%
M48
M72
T01C0.01378
T02C0.03150
T03C0.04331
T04C0.06700
T05C0.07900
%
T01
X37917Y15280
X37917Y19217
X37917Y23154
X41854Y23154
X45791Y23154
X45791Y19217
X41854Y19217
X41854Y15280
X45791Y15280
X68429Y15280
X72366Y15280
X72366Y19217
X68429Y19217
X68429Y23154
X72366Y23154
X76303Y23154
X76303Y19217
X76303Y15280
X40237Y42637
X43232Y53328
X55831Y72581
X43837Y82237
X58237Y88837
X60637Y92437
X84037Y78637
X88114Y72581
X103237Y82837
X121237Y100837
X113437Y108037
X107437Y120037
X111637Y121237
X104437Y132637
X100837Y133237
X104437Y140437
X99637Y142837
X96037Y141637
X94237Y147037
X100837Y151837
X103837Y149437
X111637Y150637
X111637Y147037
X116437Y151837
X125437Y151837
X127237Y162637
X124237Y165037
X117637Y177637
X120637Y180037
X130837Y180037
X139237Y169837
X142909Y169540
X147637Y169237
X149437Y184837
X137437Y214837
X111637Y198637
X112237Y189637
X99637Y202237
X95437Y177637
X109237Y165637
X103837Y162637
X124237Y132637
X127837Y132637
X131437Y132637
X142837Y137437
X148837Y144037
X148837Y147637
X142837Y146437
X136837Y148837
X141037Y122437
X138037Y120037
X134437Y120037
X127837Y122437
X124237Y122437
X145988Y122366
X148237Y114637
X149437Y111037
X153637Y96637
X145237Y88837
X96037Y121837
X97237Y125437
X92437Y128437
X24637Y82837
X24637Y76837
X73547Y53328
X181237Y143437
T02
X165244Y139650
X165244Y149650
X165244Y159650
X165244Y169650
X165244Y179650
X165244Y189650
X165244Y199650
X165244Y209650
X225244Y209650
X225244Y199650
X225244Y189650
X225244Y179650
X225244Y169650
X225244Y159650
X225244Y149650
X225244Y139650
X225244Y129650
X225244Y119650
X225244Y109650
X225244Y99650
X225244Y89650
X225244Y79650
X225244Y69650
X225244Y59650
X225244Y49650
X225244Y39650
X225244Y29650
X225244Y19650
X165244Y19650
X165244Y29650
X165244Y39650
X165244Y49650
X165244Y59650
X165244Y69650
X165244Y79650
X165244Y89650
X165244Y99650
X165244Y109650
X165244Y119650
X165244Y129650
T03
X180244Y79650
X190244Y79650
X190244Y69650
X180244Y69650
X180244Y59650
X190244Y59650
T04
X187114Y22654
X202114Y22654
T05
X136854Y27437
X119886Y27437
M30
