G75*
%MOIN*%
%OFA0B0*%
%FSLAX25Y25*%
%IPPOS*%
%LPD*%
%AMOC8*
5,1,8,0,0,1.08239X$1,22.5*
%
%ADD10C,0.10050*%
%ADD11R,0.03937X0.04331*%
%ADD12R,0.12598X0.07087*%
%ADD13C,0.11850*%
%ADD14OC8,0.07600*%
%ADD15R,0.01181X0.05807*%
%ADD16R,0.17402X0.13701*%
%ADD17R,0.04331X0.03937*%
%ADD18C,0.12000*%
%ADD19C,0.05000*%
%ADD20C,0.01181*%
%ADD21C,0.00600*%
%ADD22C,0.02978*%
%ADD23C,0.01102*%
%ADD24C,0.01496*%
%ADD25C,0.00200*%
%ADD26C,0.01500*%
%ADD27C,0.04000*%
%ADD28C,0.00100*%
D10*
X0187114Y0017629D02*
X0187114Y0027679D01*
X0202114Y0027679D02*
X0202114Y0017629D01*
D11*
X0149697Y0079760D03*
X0149697Y0086453D03*
X0149638Y0093110D03*
X0143232Y0093142D03*
X0143232Y0099835D03*
X0149638Y0099803D03*
X0151500Y0165870D03*
X0151500Y0172563D03*
X0126209Y0182209D03*
X0126209Y0188902D03*
X0116461Y0188902D03*
X0116461Y0182209D03*
X0107209Y0182209D03*
X0107209Y0188902D03*
X0097957Y0188902D03*
X0097957Y0182209D03*
X0058823Y0050783D03*
X0058823Y0044091D03*
X0028823Y0044091D03*
X0028823Y0050783D03*
D12*
X0043323Y0058961D03*
X0043323Y0036913D03*
X0073323Y0036913D03*
X0073323Y0058961D03*
D13*
X0119886Y0033362D02*
X0119886Y0021512D01*
X0136854Y0021512D02*
X0136854Y0033362D01*
D14*
X0165244Y0029650D03*
X0165244Y0039650D03*
X0165244Y0049650D03*
X0165244Y0059650D03*
X0165244Y0069650D03*
X0165244Y0079650D03*
X0165244Y0089650D03*
X0165244Y0099650D03*
X0165244Y0109650D03*
X0165244Y0119650D03*
X0165244Y0129650D03*
X0165244Y0139650D03*
X0165244Y0149650D03*
X0165244Y0159650D03*
X0165244Y0169650D03*
X0165244Y0179650D03*
X0165244Y0189650D03*
X0165244Y0199650D03*
X0165244Y0209650D03*
X0225244Y0209650D03*
X0225244Y0199650D03*
X0225244Y0189650D03*
X0225244Y0179650D03*
X0225244Y0169650D03*
X0225244Y0159650D03*
X0225244Y0149650D03*
X0225244Y0139650D03*
X0225244Y0129650D03*
X0225244Y0119650D03*
X0225244Y0109650D03*
X0225244Y0099650D03*
X0225244Y0089650D03*
X0225244Y0079650D03*
X0225244Y0069650D03*
X0225244Y0059650D03*
X0225244Y0049650D03*
X0225244Y0039650D03*
X0225244Y0029650D03*
X0225244Y0019650D03*
X0190244Y0059650D03*
X0180244Y0059650D03*
X0180244Y0069650D03*
X0180244Y0079650D03*
X0190244Y0079650D03*
X0190244Y0069650D03*
X0165244Y0019650D03*
D15*
X0145398Y0127441D03*
X0143429Y0127441D03*
X0141461Y0127441D03*
X0139492Y0127441D03*
X0137524Y0127441D03*
X0135555Y0127441D03*
X0133587Y0127441D03*
X0131618Y0127441D03*
X0129650Y0127441D03*
X0127681Y0127441D03*
X0125713Y0127441D03*
X0123744Y0127441D03*
X0121776Y0127441D03*
X0119807Y0127441D03*
X0117839Y0127441D03*
X0115870Y0127441D03*
X0113902Y0127441D03*
X0111933Y0127441D03*
X0109965Y0127441D03*
X0107996Y0127441D03*
X0106028Y0127441D03*
X0104059Y0127441D03*
X0102091Y0127441D03*
X0100122Y0127441D03*
X0100122Y0157268D03*
X0102091Y0157268D03*
X0104059Y0157268D03*
X0106028Y0157268D03*
X0107996Y0157268D03*
X0109965Y0157268D03*
X0111933Y0157268D03*
X0113902Y0157268D03*
X0115870Y0157268D03*
X0117839Y0157268D03*
X0119807Y0157268D03*
X0121776Y0157268D03*
X0123744Y0157268D03*
X0125713Y0157268D03*
X0127681Y0157268D03*
X0129650Y0157268D03*
X0131618Y0157268D03*
X0133587Y0157268D03*
X0135555Y0157268D03*
X0137524Y0157268D03*
X0139492Y0157268D03*
X0141461Y0157268D03*
X0143429Y0157268D03*
X0145398Y0157268D03*
D16*
X0122760Y0142354D03*
D17*
X0122957Y0115673D03*
X0116264Y0115673D03*
X0106028Y0115673D03*
X0099335Y0115673D03*
X0132012Y0115673D03*
X0138705Y0115673D03*
X0116264Y0172169D03*
X0109571Y0172169D03*
X0138114Y0175516D03*
X0138114Y0181421D03*
X0144807Y0181421D03*
X0144807Y0175516D03*
D18*
X0119886Y0064492D02*
X0112720Y0064492D01*
X0072366Y0064492D01*
X0058837Y0064492D01*
X0053437Y0064492D01*
X0042839Y0064492D01*
X0036933Y0064492D01*
X0119886Y0064492D02*
X0119886Y0040237D01*
X0119886Y0027437D01*
D19*
X0073323Y0058961D02*
X0073323Y0064492D01*
X0072366Y0064492D01*
X0043323Y0064492D02*
X0043323Y0058961D01*
X0043323Y0064492D02*
X0042839Y0064492D01*
D20*
X0112720Y0064492D02*
X0140073Y0091845D01*
X0140073Y0095800D01*
X0143674Y0099401D01*
X0144161Y0099888D01*
X0144161Y0116749D01*
X0148668Y0121256D01*
X0148668Y0129349D01*
X0146481Y0131535D01*
X0144314Y0131535D01*
X0143459Y0130680D01*
X0143459Y0127471D01*
X0143429Y0127441D01*
X0143401Y0127469D01*
X0143401Y0130678D01*
X0142544Y0131535D01*
X0140377Y0131535D01*
X0139520Y0130678D01*
X0139520Y0127469D01*
X0139492Y0127441D01*
X0139464Y0127469D01*
X0139464Y0130678D01*
X0138607Y0131535D01*
X0136440Y0131535D01*
X0135583Y0130678D01*
X0135583Y0127469D01*
X0135555Y0127441D01*
D21*
X0133837Y0127837D02*
X0133587Y0127441D01*
X0133837Y0127837D02*
X0133837Y0132037D01*
X0141637Y0139837D01*
X0144037Y0139837D01*
X0145237Y0138637D01*
X0145237Y0136837D01*
X0151837Y0130237D01*
X0151837Y0103237D01*
X0153637Y0101437D01*
X0153637Y0096637D01*
X0150037Y0093037D02*
X0149638Y0093110D01*
X0149437Y0093637D01*
X0143437Y0093637D01*
X0143232Y0093142D01*
X0145237Y0088837D02*
X0147037Y0087037D01*
X0149437Y0087037D01*
X0149697Y0086453D01*
X0150037Y0093037D02*
X0162037Y0093037D01*
X0165037Y0090037D01*
X0165244Y0089650D01*
X0163237Y0094837D02*
X0210037Y0094837D01*
X0225037Y0079837D01*
X0225244Y0079650D01*
X0230437Y0075037D02*
X0225637Y0070237D01*
X0225244Y0069650D01*
X0230437Y0075037D02*
X0230437Y0161437D01*
X0227437Y0164437D01*
X0223237Y0164437D01*
X0183037Y0204637D01*
X0098437Y0204637D01*
X0089437Y0195637D01*
X0089437Y0144637D01*
X0094837Y0139237D01*
X0097237Y0139237D01*
X0098437Y0140437D01*
X0104437Y0140437D01*
X0105637Y0136837D02*
X0099037Y0136837D01*
X0093037Y0130837D01*
X0091237Y0130837D01*
X0063037Y0102637D01*
X0063037Y0091237D01*
X0060637Y0088837D01*
X0058237Y0088837D01*
X0060037Y0086437D02*
X0046837Y0086437D01*
X0046237Y0087037D01*
X0025237Y0087037D01*
X0022237Y0084037D01*
X0022237Y0051637D01*
X0026437Y0047437D01*
X0035437Y0047437D01*
X0040237Y0042637D01*
X0034837Y0039637D02*
X0034823Y0039343D01*
X0034837Y0039637D02*
X0030637Y0043837D01*
X0028837Y0043837D01*
X0028823Y0044091D01*
X0028823Y0050783D02*
X0028837Y0051037D01*
X0028837Y0054637D01*
X0033637Y0059437D01*
X0036933Y0064492D01*
X0053437Y0064492D02*
X0053437Y0073837D01*
X0054637Y0075037D01*
X0055837Y0075037D01*
X0094837Y0114037D01*
X0094837Y0117037D01*
X0099637Y0121837D01*
X0099637Y0127237D01*
X0100122Y0127441D01*
X0100237Y0127837D01*
X0100837Y0127837D01*
X0100837Y0133237D01*
X0099637Y0135637D02*
X0094837Y0130837D01*
X0094837Y0126637D01*
X0092437Y0124237D01*
X0092437Y0122437D01*
X0091237Y0121237D01*
X0091237Y0115837D01*
X0060637Y0085237D01*
X0046237Y0085237D01*
X0045637Y0085837D01*
X0027637Y0085837D01*
X0024637Y0082837D01*
X0024637Y0076837D02*
X0032437Y0084637D01*
X0045037Y0084637D01*
X0045637Y0084037D01*
X0061237Y0084037D01*
X0092437Y0115237D01*
X0092437Y0118237D01*
X0093637Y0119437D01*
X0093637Y0123037D01*
X0096037Y0125437D01*
X0097237Y0125437D01*
X0092437Y0126037D02*
X0092437Y0128437D01*
X0092437Y0126037D02*
X0091237Y0124837D01*
X0091237Y0123037D01*
X0090037Y0121837D01*
X0090037Y0116437D01*
X0060037Y0086437D01*
X0061237Y0082237D02*
X0043837Y0082237D01*
X0060637Y0092437D02*
X0060637Y0102037D01*
X0090637Y0132037D01*
X0092437Y0132037D01*
X0098437Y0138037D01*
X0108037Y0138037D01*
X0111637Y0134437D01*
X0117637Y0134437D01*
X0121837Y0130237D01*
X0121837Y0127837D01*
X0121776Y0127441D01*
X0121837Y0127237D01*
X0121837Y0121237D01*
X0122437Y0120637D01*
X0122437Y0115837D01*
X0122957Y0115673D01*
X0116437Y0115837D02*
X0116264Y0115673D01*
X0116437Y0115837D02*
X0116437Y0120037D01*
X0117637Y0121237D01*
X0117637Y0127237D01*
X0117839Y0127441D01*
X0119437Y0127837D02*
X0119437Y0130837D01*
X0117037Y0133237D01*
X0109237Y0133237D01*
X0105637Y0136837D01*
X0105037Y0135637D02*
X0099637Y0135637D01*
X0104437Y0132637D02*
X0105637Y0131437D01*
X0105637Y0127837D01*
X0106028Y0127441D01*
X0107996Y0127441D02*
X0108037Y0127237D01*
X0108037Y0124237D01*
X0099637Y0115837D01*
X0099335Y0115673D01*
X0096037Y0120037D02*
X0093637Y0117637D01*
X0093637Y0114637D01*
X0061237Y0082237D01*
X0058837Y0064492D02*
X0058837Y0051037D01*
X0058823Y0050783D01*
X0058823Y0044091D02*
X0058837Y0043837D01*
X0060637Y0043837D01*
X0064837Y0039637D01*
X0064823Y0039343D01*
X0084037Y0078637D02*
X0113437Y0108037D01*
X0112837Y0112355D02*
X0112837Y0118237D01*
X0115837Y0121237D01*
X0115837Y0127237D01*
X0115870Y0127441D01*
X0113902Y0127441D02*
X0113437Y0127237D01*
X0113437Y0123037D01*
X0111637Y0121237D01*
X0111037Y0123637D02*
X0111637Y0124237D01*
X0111637Y0127237D01*
X0111933Y0127441D01*
X0109965Y0127441D02*
X0109837Y0127837D01*
X0109837Y0130837D01*
X0105037Y0135637D01*
X0103837Y0127837D02*
X0104059Y0127441D01*
X0103837Y0127837D02*
X0102637Y0127837D01*
X0102091Y0127441D01*
X0102037Y0127837D01*
X0100837Y0127837D01*
X0096037Y0121837D02*
X0096037Y0120037D01*
X0106237Y0119437D02*
X0106237Y0115837D01*
X0106028Y0115673D01*
X0106237Y0119437D02*
X0107437Y0120637D01*
X0107437Y0120037D01*
X0107437Y0120637D02*
X0110437Y0123637D01*
X0111037Y0123637D01*
X0119437Y0127837D02*
X0119807Y0127441D01*
X0123637Y0127237D02*
X0123744Y0127441D01*
X0123637Y0127237D02*
X0123637Y0123037D01*
X0124237Y0122437D01*
X0127837Y0122437D02*
X0129637Y0124237D01*
X0129637Y0127237D01*
X0129650Y0127441D01*
X0131437Y0127837D02*
X0131618Y0127441D01*
X0131437Y0127837D02*
X0131437Y0132637D01*
X0127837Y0132637D02*
X0127837Y0127837D01*
X0127681Y0127441D01*
X0125713Y0127441D02*
X0125437Y0127837D01*
X0125437Y0131437D01*
X0124237Y0132637D01*
X0122760Y0142354D02*
X0122437Y0142837D01*
X0099637Y0142837D01*
X0096037Y0141637D02*
X0096037Y0145237D01*
X0094237Y0147037D01*
X0099637Y0149437D02*
X0095437Y0153637D01*
X0095437Y0172237D01*
X0091837Y0175837D01*
X0091837Y0190237D01*
X0100237Y0198637D01*
X0111637Y0198637D01*
X0110437Y0201037D02*
X0109237Y0199837D01*
X0099637Y0199837D01*
X0090637Y0190837D01*
X0090637Y0156637D01*
X0100237Y0147037D01*
X0105037Y0147037D01*
X0108037Y0150037D01*
X0108037Y0157237D01*
X0107996Y0157268D01*
X0109837Y0157237D02*
X0109965Y0157268D01*
X0109837Y0157237D02*
X0109837Y0152437D01*
X0109237Y0151837D01*
X0109237Y0149437D01*
X0111637Y0147037D01*
X0111637Y0150637D02*
X0111637Y0157237D01*
X0111933Y0157268D01*
X0113437Y0157837D02*
X0113902Y0157268D01*
X0113437Y0157837D02*
X0113437Y0161437D01*
X0109237Y0165637D01*
X0108037Y0168037D02*
X0106237Y0169837D01*
X0106237Y0174637D01*
X0106837Y0175237D01*
X0108037Y0175237D01*
X0114637Y0181837D01*
X0116437Y0181837D01*
X0116461Y0182209D01*
X0113437Y0182437D02*
X0113437Y0184837D01*
X0114037Y0185437D01*
X0140437Y0185437D01*
X0142237Y0187237D01*
X0150637Y0187237D01*
X0159037Y0178837D01*
X0159037Y0159037D01*
X0163237Y0154837D01*
X0173437Y0154837D01*
X0183637Y0144637D01*
X0183637Y0142237D01*
X0171637Y0130237D01*
X0165637Y0130237D01*
X0165244Y0129650D01*
X0160237Y0125437D02*
X0160237Y0097837D01*
X0163237Y0094837D01*
X0165244Y0099650D02*
X0165637Y0100237D01*
X0184837Y0119437D01*
X0184837Y0147037D01*
X0167437Y0164437D01*
X0163237Y0164437D01*
X0160237Y0167437D01*
X0160237Y0179437D01*
X0138637Y0201037D01*
X0110437Y0201037D01*
X0113437Y0192037D02*
X0116437Y0189037D01*
X0116461Y0188902D01*
X0117037Y0189037D01*
X0126037Y0189037D01*
X0126209Y0188902D01*
X0126209Y0182209D02*
X0126637Y0181837D01*
X0126637Y0172237D01*
X0135637Y0163237D01*
X0135637Y0157837D01*
X0135555Y0157268D01*
X0133587Y0157268D02*
X0133237Y0157837D01*
X0133237Y0163837D01*
X0120637Y0176437D01*
X0120637Y0180037D01*
X0117637Y0177637D02*
X0131437Y0163837D01*
X0131437Y0157837D01*
X0131618Y0157268D01*
X0129650Y0157268D02*
X0129637Y0157837D01*
X0129637Y0160237D01*
X0127237Y0162637D01*
X0124237Y0162637D02*
X0124237Y0165037D01*
X0124237Y0162637D02*
X0121837Y0160237D01*
X0121837Y0157837D01*
X0121776Y0157268D01*
X0123637Y0157237D02*
X0123744Y0157268D01*
X0123637Y0157237D02*
X0123637Y0154237D01*
X0121237Y0151837D01*
X0116437Y0151837D01*
X0115870Y0157268D02*
X0115837Y0157837D01*
X0115837Y0162637D01*
X0110437Y0168037D01*
X0108037Y0168037D01*
X0106237Y0168037D02*
X0105037Y0169237D01*
X0105037Y0175237D01*
X0108637Y0178837D01*
X0109837Y0178837D01*
X0113437Y0182437D01*
X0109237Y0185437D02*
X0112237Y0188437D01*
X0112237Y0189637D01*
X0113437Y0192037D02*
X0095437Y0192037D01*
X0093037Y0189637D01*
X0093037Y0176437D01*
X0096637Y0172837D01*
X0096637Y0155437D01*
X0099037Y0153037D01*
X0100837Y0153037D01*
X0100837Y0151837D01*
X0100837Y0153037D02*
X0102637Y0153037D01*
X0103837Y0154237D01*
X0103837Y0157237D01*
X0104059Y0157268D01*
X0102091Y0157268D02*
X0102037Y0157837D01*
X0102037Y0160837D01*
X0103837Y0162637D01*
X0103837Y0175837D01*
X0106837Y0178837D01*
X0106837Y0181837D01*
X0107209Y0182209D01*
X0109237Y0185437D02*
X0104437Y0185437D01*
X0101437Y0182437D01*
X0098437Y0182437D01*
X0097957Y0182209D01*
X0098437Y0181837D01*
X0098437Y0159037D01*
X0099637Y0157837D01*
X0100122Y0157268D01*
X0106028Y0157268D02*
X0106237Y0157837D01*
X0106237Y0168037D01*
X0109837Y0170437D02*
X0117637Y0162637D01*
X0117637Y0157837D01*
X0117839Y0157268D01*
X0119437Y0157837D02*
X0119807Y0157268D01*
X0119437Y0157837D02*
X0119437Y0162637D01*
X0116437Y0165637D01*
X0116437Y0171637D01*
X0116264Y0172169D01*
X0109837Y0171637D02*
X0109571Y0172169D01*
X0109837Y0171637D02*
X0109837Y0170437D01*
X0095437Y0177637D02*
X0095437Y0178837D01*
X0094837Y0179437D01*
X0094837Y0185437D01*
X0097837Y0188437D01*
X0097957Y0188902D01*
X0098437Y0189037D01*
X0106837Y0189037D01*
X0107209Y0188902D01*
X0099637Y0202237D02*
X0145837Y0202237D01*
X0163237Y0184837D01*
X0200437Y0184837D01*
X0225037Y0160237D01*
X0225244Y0159650D01*
X0231637Y0170437D02*
X0231637Y0046237D01*
X0225637Y0040237D01*
X0225244Y0039650D01*
X0187114Y0022654D02*
X0186637Y0022837D01*
X0165637Y0039637D02*
X0165244Y0039650D01*
X0165037Y0030037D02*
X0165244Y0029650D01*
X0165037Y0030037D02*
X0150037Y0030037D01*
X0139837Y0040237D01*
X0119886Y0040237D01*
X0149697Y0079760D02*
X0150037Y0079837D01*
X0165037Y0079837D01*
X0165244Y0079650D01*
X0149638Y0099803D02*
X0149437Y0100237D01*
X0149437Y0111037D01*
X0148237Y0114637D02*
X0150637Y0117037D01*
X0150637Y0129637D01*
X0142837Y0137437D01*
X0144637Y0141037D02*
X0141037Y0141037D01*
X0127837Y0154237D01*
X0127837Y0157237D01*
X0127681Y0157268D01*
X0125713Y0157268D02*
X0125437Y0157237D01*
X0125437Y0151837D01*
X0136837Y0148837D02*
X0143437Y0142237D01*
X0145237Y0142237D01*
X0165037Y0122437D01*
X0165037Y0120037D01*
X0165244Y0119650D01*
X0160237Y0125437D02*
X0144637Y0141037D01*
X0147637Y0141637D02*
X0160237Y0141637D01*
X0163237Y0144637D01*
X0180037Y0144637D01*
X0181237Y0143437D01*
X0155437Y0163837D02*
X0155437Y0169837D01*
X0153037Y0172237D01*
X0151837Y0172237D01*
X0151500Y0172563D01*
X0151237Y0172837D01*
X0151237Y0180637D01*
X0148237Y0183637D01*
X0149437Y0184837D01*
X0148237Y0183637D02*
X0147037Y0184837D01*
X0141637Y0184837D01*
X0138637Y0181837D01*
X0138114Y0181421D01*
X0138037Y0181237D01*
X0138037Y0175837D01*
X0138114Y0175516D01*
X0138637Y0175237D01*
X0139237Y0174637D01*
X0139237Y0169837D01*
X0141288Y0164186D02*
X0130837Y0174637D01*
X0130837Y0180037D01*
X0147637Y0169246D02*
X0147637Y0169237D01*
X0148837Y0165637D02*
X0143437Y0160237D01*
X0143437Y0157837D01*
X0143429Y0157268D01*
X0141637Y0157237D02*
X0141461Y0157268D01*
X0141637Y0157237D02*
X0141637Y0154237D01*
X0142837Y0153037D01*
X0143437Y0153037D01*
X0148837Y0147637D01*
X0148837Y0144037D02*
X0139837Y0153037D01*
X0139837Y0157237D01*
X0139492Y0157268D01*
X0145398Y0157268D02*
X0145837Y0157837D01*
X0149437Y0157837D01*
X0155437Y0163837D01*
X0151500Y0165870D02*
X0151237Y0165637D01*
X0148837Y0165637D01*
X0142837Y0146437D02*
X0147637Y0141637D01*
X0141461Y0122437D02*
X0141037Y0122437D01*
X0138037Y0120037D02*
X0138637Y0119437D01*
X0138637Y0115837D01*
X0138705Y0115673D01*
X0134437Y0120037D02*
X0132037Y0117637D01*
X0132037Y0115837D01*
X0132012Y0115673D01*
X0121237Y0100837D02*
X0103237Y0082837D01*
X0143232Y0099835D02*
X0143437Y0099637D01*
X0143674Y0099401D01*
X0103837Y0149437D02*
X0099637Y0149437D01*
X0137437Y0214837D02*
X0183037Y0214837D01*
X0223237Y0174637D01*
X0227437Y0174637D01*
X0231637Y0170437D01*
D22*
X0181237Y0143437D03*
X0148837Y0144037D03*
X0148837Y0147637D03*
X0142837Y0146437D03*
X0136837Y0148837D03*
X0125437Y0151837D03*
X0116437Y0151837D03*
X0111637Y0150637D03*
X0111637Y0147037D03*
X0103837Y0149437D03*
X0100837Y0151837D03*
X0094237Y0147037D03*
X0096037Y0141637D03*
X0099637Y0142837D03*
X0104437Y0140437D03*
X0104437Y0132637D03*
X0100837Y0133237D03*
X0097237Y0125437D03*
X0092437Y0128437D03*
X0096037Y0121837D03*
X0107437Y0120037D03*
X0111637Y0121237D03*
X0124237Y0122437D03*
X0127837Y0122437D03*
X0134437Y0120037D03*
X0138037Y0120037D03*
X0141037Y0122437D03*
X0145988Y0122366D03*
X0148237Y0114637D03*
X0149437Y0111037D03*
X0153637Y0096637D03*
X0145237Y0088837D03*
X0121237Y0100837D03*
X0113437Y0108037D03*
X0124237Y0132637D03*
X0127837Y0132637D03*
X0131437Y0132637D03*
X0142837Y0137437D03*
X0127237Y0162637D03*
X0124237Y0165037D03*
X0117637Y0177637D03*
X0120637Y0180037D03*
X0130837Y0180037D03*
X0139237Y0169837D03*
X0142909Y0169540D03*
X0147637Y0169237D03*
X0149437Y0184837D03*
X0137437Y0214837D03*
X0111637Y0198637D03*
X0112237Y0189637D03*
X0099637Y0202237D03*
X0095437Y0177637D03*
X0109237Y0165637D03*
X0103837Y0162637D03*
X0060637Y0092437D03*
X0058237Y0088837D03*
X0043837Y0082237D03*
X0055831Y0072581D03*
X0043232Y0053328D03*
X0040237Y0042637D03*
X0041854Y0023154D03*
X0045791Y0023154D03*
X0045791Y0019217D03*
X0041854Y0019217D03*
X0037917Y0019217D03*
X0037917Y0023154D03*
X0037917Y0015280D03*
X0041854Y0015280D03*
X0045791Y0015280D03*
X0068429Y0015280D03*
X0072366Y0015280D03*
X0072366Y0019217D03*
X0068429Y0019217D03*
X0068429Y0023154D03*
X0072366Y0023154D03*
X0076303Y0023154D03*
X0076303Y0019217D03*
X0076303Y0015280D03*
X0073547Y0053328D03*
X0088114Y0072581D03*
X0084037Y0078637D03*
X0103237Y0082837D03*
X0024637Y0082837D03*
X0024637Y0076837D03*
D23*
X0137524Y0157268D02*
X0137750Y0157494D01*
X0137750Y0160648D01*
X0141288Y0164186D01*
X0146349Y0169246D01*
X0147637Y0169246D01*
X0153945Y0169246D01*
X0144807Y0171439D02*
X0142909Y0169540D01*
X0144807Y0171439D02*
X0144807Y0175516D01*
X0144807Y0181421D01*
D24*
X0145398Y0127441D02*
X0145398Y0122957D01*
X0145988Y0122366D01*
D25*
X0081323Y0039343D02*
X0079722Y0039343D01*
X0079722Y0037013D01*
X0073423Y0037013D01*
X0073423Y0036813D01*
X0073423Y0033270D01*
X0079663Y0033270D01*
X0079722Y0033329D01*
X0079722Y0036813D01*
X0073423Y0036813D01*
X0073223Y0036813D01*
X0073223Y0033270D01*
X0066982Y0033270D01*
X0066924Y0033329D01*
X0066924Y0036813D01*
X0073223Y0036813D01*
X0073223Y0037013D01*
X0066924Y0037013D01*
X0066924Y0039343D01*
X0064823Y0039343D01*
X0064823Y0012937D01*
X0081323Y0012937D01*
X0081323Y0039343D01*
X0081323Y0039184D02*
X0079722Y0039184D01*
X0079722Y0038985D02*
X0081323Y0038985D01*
X0081323Y0038787D02*
X0079722Y0038787D01*
X0079722Y0038588D02*
X0081323Y0038588D01*
X0081323Y0038390D02*
X0079722Y0038390D01*
X0079722Y0038191D02*
X0081323Y0038191D01*
X0081323Y0037993D02*
X0079722Y0037993D01*
X0079722Y0037794D02*
X0081323Y0037794D01*
X0081323Y0037596D02*
X0079722Y0037596D01*
X0079722Y0037397D02*
X0081323Y0037397D01*
X0081323Y0037199D02*
X0079722Y0037199D01*
X0079722Y0036802D02*
X0081323Y0036802D01*
X0081323Y0037000D02*
X0073423Y0037000D01*
X0073423Y0036802D02*
X0073223Y0036802D01*
X0073223Y0037000D02*
X0064823Y0037000D01*
X0064823Y0036802D02*
X0066924Y0036802D01*
X0066924Y0036603D02*
X0064823Y0036603D01*
X0064823Y0036405D02*
X0066924Y0036405D01*
X0066924Y0036206D02*
X0064823Y0036206D01*
X0064823Y0036008D02*
X0066924Y0036008D01*
X0066924Y0035809D02*
X0064823Y0035809D01*
X0064823Y0035611D02*
X0066924Y0035611D01*
X0066924Y0035412D02*
X0064823Y0035412D01*
X0064823Y0035214D02*
X0066924Y0035214D01*
X0066924Y0035015D02*
X0064823Y0035015D01*
X0064823Y0034817D02*
X0066924Y0034817D01*
X0066924Y0034618D02*
X0064823Y0034618D01*
X0064823Y0034420D02*
X0066924Y0034420D01*
X0066924Y0034221D02*
X0064823Y0034221D01*
X0064823Y0034023D02*
X0066924Y0034023D01*
X0066924Y0033824D02*
X0064823Y0033824D01*
X0064823Y0033626D02*
X0066924Y0033626D01*
X0066924Y0033427D02*
X0064823Y0033427D01*
X0064823Y0033229D02*
X0081323Y0033229D01*
X0081323Y0033427D02*
X0079722Y0033427D01*
X0079722Y0033626D02*
X0081323Y0033626D01*
X0081323Y0033824D02*
X0079722Y0033824D01*
X0079722Y0034023D02*
X0081323Y0034023D01*
X0081323Y0034221D02*
X0079722Y0034221D01*
X0079722Y0034420D02*
X0081323Y0034420D01*
X0081323Y0034618D02*
X0079722Y0034618D01*
X0079722Y0034817D02*
X0081323Y0034817D01*
X0081323Y0035015D02*
X0079722Y0035015D01*
X0079722Y0035214D02*
X0081323Y0035214D01*
X0081323Y0035412D02*
X0079722Y0035412D01*
X0079722Y0035611D02*
X0081323Y0035611D01*
X0081323Y0035809D02*
X0079722Y0035809D01*
X0079722Y0036008D02*
X0081323Y0036008D01*
X0081323Y0036206D02*
X0079722Y0036206D01*
X0079722Y0036405D02*
X0081323Y0036405D01*
X0081323Y0036603D02*
X0079722Y0036603D01*
X0081323Y0033030D02*
X0064823Y0033030D01*
X0064823Y0032832D02*
X0081323Y0032832D01*
X0081323Y0032633D02*
X0064823Y0032633D01*
X0064823Y0032435D02*
X0081323Y0032435D01*
X0081323Y0032236D02*
X0064823Y0032236D01*
X0064823Y0032038D02*
X0081323Y0032038D01*
X0081323Y0031839D02*
X0064823Y0031839D01*
X0064823Y0031641D02*
X0081323Y0031641D01*
X0081323Y0031442D02*
X0064823Y0031442D01*
X0064823Y0031243D02*
X0081323Y0031243D01*
X0081323Y0031045D02*
X0064823Y0031045D01*
X0064823Y0030846D02*
X0081323Y0030846D01*
X0081323Y0030648D02*
X0064823Y0030648D01*
X0064823Y0030449D02*
X0081323Y0030449D01*
X0081323Y0030251D02*
X0064823Y0030251D01*
X0064823Y0030052D02*
X0081323Y0030052D01*
X0081323Y0029854D02*
X0064823Y0029854D01*
X0064823Y0029655D02*
X0081323Y0029655D01*
X0081323Y0029457D02*
X0064823Y0029457D01*
X0064823Y0029258D02*
X0081323Y0029258D01*
X0081323Y0029060D02*
X0064823Y0029060D01*
X0064823Y0028861D02*
X0081323Y0028861D01*
X0081323Y0028663D02*
X0064823Y0028663D01*
X0064823Y0028464D02*
X0081323Y0028464D01*
X0081323Y0028266D02*
X0064823Y0028266D01*
X0064823Y0028067D02*
X0081323Y0028067D01*
X0081323Y0027869D02*
X0064823Y0027869D01*
X0064823Y0027670D02*
X0081323Y0027670D01*
X0081323Y0027472D02*
X0064823Y0027472D01*
X0064823Y0027273D02*
X0081323Y0027273D01*
X0081323Y0027075D02*
X0064823Y0027075D01*
X0064823Y0026876D02*
X0081323Y0026876D01*
X0081323Y0026678D02*
X0064823Y0026678D01*
X0064823Y0026479D02*
X0081323Y0026479D01*
X0081323Y0026281D02*
X0064823Y0026281D01*
X0064823Y0026082D02*
X0081323Y0026082D01*
X0081323Y0025884D02*
X0064823Y0025884D01*
X0064823Y0025685D02*
X0081323Y0025685D01*
X0081323Y0025487D02*
X0064823Y0025487D01*
X0064823Y0025288D02*
X0081323Y0025288D01*
X0081323Y0025090D02*
X0064823Y0025090D01*
X0064823Y0024891D02*
X0081323Y0024891D01*
X0081323Y0024693D02*
X0064823Y0024693D01*
X0064823Y0024494D02*
X0081323Y0024494D01*
X0081323Y0024296D02*
X0064823Y0024296D01*
X0064823Y0024097D02*
X0081323Y0024097D01*
X0081323Y0023899D02*
X0064823Y0023899D01*
X0064823Y0023700D02*
X0081323Y0023700D01*
X0081323Y0023502D02*
X0064823Y0023502D01*
X0064823Y0023303D02*
X0081323Y0023303D01*
X0081323Y0023105D02*
X0064823Y0023105D01*
X0064823Y0022906D02*
X0081323Y0022906D01*
X0081323Y0022707D02*
X0064823Y0022707D01*
X0064823Y0022509D02*
X0081323Y0022509D01*
X0081323Y0022310D02*
X0064823Y0022310D01*
X0064823Y0022112D02*
X0081323Y0022112D01*
X0081323Y0021913D02*
X0064823Y0021913D01*
X0064823Y0021715D02*
X0081323Y0021715D01*
X0081323Y0021516D02*
X0064823Y0021516D01*
X0064823Y0021318D02*
X0081323Y0021318D01*
X0081323Y0021119D02*
X0064823Y0021119D01*
X0064823Y0020921D02*
X0081323Y0020921D01*
X0081323Y0020722D02*
X0064823Y0020722D01*
X0064823Y0020524D02*
X0081323Y0020524D01*
X0081323Y0020325D02*
X0064823Y0020325D01*
X0064823Y0020127D02*
X0081323Y0020127D01*
X0081323Y0019928D02*
X0064823Y0019928D01*
X0064823Y0019730D02*
X0081323Y0019730D01*
X0081323Y0019531D02*
X0064823Y0019531D01*
X0064823Y0019333D02*
X0081323Y0019333D01*
X0081323Y0019134D02*
X0064823Y0019134D01*
X0064823Y0018936D02*
X0081323Y0018936D01*
X0081323Y0018737D02*
X0064823Y0018737D01*
X0064823Y0018539D02*
X0081323Y0018539D01*
X0081323Y0018340D02*
X0064823Y0018340D01*
X0064823Y0018142D02*
X0081323Y0018142D01*
X0081323Y0017943D02*
X0064823Y0017943D01*
X0064823Y0017745D02*
X0081323Y0017745D01*
X0081323Y0017546D02*
X0064823Y0017546D01*
X0064823Y0017348D02*
X0081323Y0017348D01*
X0081323Y0017149D02*
X0064823Y0017149D01*
X0064823Y0016951D02*
X0081323Y0016951D01*
X0081323Y0016752D02*
X0064823Y0016752D01*
X0064823Y0016554D02*
X0081323Y0016554D01*
X0081323Y0016355D02*
X0064823Y0016355D01*
X0064823Y0016157D02*
X0081323Y0016157D01*
X0081323Y0015958D02*
X0064823Y0015958D01*
X0064823Y0015760D02*
X0081323Y0015760D01*
X0081323Y0015561D02*
X0064823Y0015561D01*
X0064823Y0015363D02*
X0081323Y0015363D01*
X0081323Y0015164D02*
X0064823Y0015164D01*
X0064823Y0014966D02*
X0081323Y0014966D01*
X0081323Y0014767D02*
X0064823Y0014767D01*
X0064823Y0014569D02*
X0081323Y0014569D01*
X0081323Y0014370D02*
X0064823Y0014370D01*
X0064823Y0014172D02*
X0081323Y0014172D01*
X0081323Y0013973D02*
X0064823Y0013973D01*
X0064823Y0013774D02*
X0081323Y0013774D01*
X0081323Y0013576D02*
X0064823Y0013576D01*
X0064823Y0013377D02*
X0081323Y0013377D01*
X0081323Y0013179D02*
X0064823Y0013179D01*
X0064823Y0012980D02*
X0081323Y0012980D01*
X0073423Y0033427D02*
X0073223Y0033427D01*
X0073223Y0033626D02*
X0073423Y0033626D01*
X0073423Y0033824D02*
X0073223Y0033824D01*
X0073223Y0034023D02*
X0073423Y0034023D01*
X0073423Y0034221D02*
X0073223Y0034221D01*
X0073223Y0034420D02*
X0073423Y0034420D01*
X0073423Y0034618D02*
X0073223Y0034618D01*
X0073223Y0034817D02*
X0073423Y0034817D01*
X0073423Y0035015D02*
X0073223Y0035015D01*
X0073223Y0035214D02*
X0073423Y0035214D01*
X0073423Y0035412D02*
X0073223Y0035412D01*
X0073223Y0035611D02*
X0073423Y0035611D01*
X0073423Y0035809D02*
X0073223Y0035809D01*
X0073223Y0036008D02*
X0073423Y0036008D01*
X0073423Y0036206D02*
X0073223Y0036206D01*
X0073223Y0036405D02*
X0073423Y0036405D01*
X0073423Y0036603D02*
X0073223Y0036603D01*
X0066924Y0037199D02*
X0064823Y0037199D01*
X0064823Y0037397D02*
X0066924Y0037397D01*
X0066924Y0037596D02*
X0064823Y0037596D01*
X0064823Y0037794D02*
X0066924Y0037794D01*
X0066924Y0037993D02*
X0064823Y0037993D01*
X0064823Y0038191D02*
X0066924Y0038191D01*
X0066924Y0038390D02*
X0064823Y0038390D01*
X0064823Y0038588D02*
X0066924Y0038588D01*
X0066924Y0038787D02*
X0064823Y0038787D01*
X0064823Y0038985D02*
X0066924Y0038985D01*
X0066924Y0039184D02*
X0064823Y0039184D01*
D26*
X0073323Y0036913D02*
X0073323Y0053104D01*
X0073547Y0053328D01*
X0088114Y0072581D02*
X0125788Y0110255D01*
X0139329Y0110255D01*
X0142220Y0113146D01*
X0142220Y0118201D01*
X0141461Y0118960D01*
X0141461Y0122437D01*
X0141461Y0127441D01*
X0137524Y0127441D02*
X0137524Y0124006D01*
X0136705Y0123187D01*
X0133483Y0123187D01*
X0128496Y0118201D01*
X0128496Y0115111D01*
X0127484Y0114098D01*
X0127425Y0114098D01*
X0125681Y0112355D01*
X0112837Y0112355D01*
X0095604Y0112355D01*
X0055831Y0072581D01*
X0043232Y0053328D02*
X0043323Y0053238D01*
X0043323Y0036913D01*
D27*
X0165637Y0039637D02*
X0169837Y0039637D01*
X0186637Y0022837D01*
D28*
X0034823Y0012937D02*
X0034823Y0039343D01*
X0036974Y0039343D01*
X0036974Y0036963D01*
X0043273Y0036963D01*
X0043273Y0036863D01*
X0043373Y0036863D01*
X0043373Y0033320D01*
X0049643Y0033320D01*
X0049672Y0033349D01*
X0049672Y0036863D01*
X0043373Y0036863D01*
X0043373Y0036963D01*
X0049672Y0036963D01*
X0049672Y0039343D01*
X0050823Y0039343D01*
X0050823Y0012937D01*
X0034823Y0012937D01*
X0034823Y0013022D02*
X0050823Y0013022D01*
X0050823Y0013121D02*
X0034823Y0013121D01*
X0034823Y0013219D02*
X0050823Y0013219D01*
X0050823Y0013318D02*
X0034823Y0013318D01*
X0034823Y0013416D02*
X0050823Y0013416D01*
X0050823Y0013515D02*
X0034823Y0013515D01*
X0034823Y0013613D02*
X0050823Y0013613D01*
X0050823Y0013712D02*
X0034823Y0013712D01*
X0034823Y0013810D02*
X0050823Y0013810D01*
X0050823Y0013909D02*
X0034823Y0013909D01*
X0034823Y0014007D02*
X0050823Y0014007D01*
X0050823Y0014106D02*
X0034823Y0014106D01*
X0034823Y0014205D02*
X0050823Y0014205D01*
X0050823Y0014303D02*
X0034823Y0014303D01*
X0034823Y0014402D02*
X0050823Y0014402D01*
X0050823Y0014500D02*
X0034823Y0014500D01*
X0034823Y0014599D02*
X0050823Y0014599D01*
X0050823Y0014697D02*
X0034823Y0014697D01*
X0034823Y0014796D02*
X0050823Y0014796D01*
X0050823Y0014894D02*
X0034823Y0014894D01*
X0034823Y0014993D02*
X0050823Y0014993D01*
X0050823Y0015091D02*
X0034823Y0015091D01*
X0034823Y0015190D02*
X0050823Y0015190D01*
X0050823Y0015288D02*
X0034823Y0015288D01*
X0034823Y0015387D02*
X0050823Y0015387D01*
X0050823Y0015485D02*
X0034823Y0015485D01*
X0034823Y0015584D02*
X0050823Y0015584D01*
X0050823Y0015682D02*
X0034823Y0015682D01*
X0034823Y0015781D02*
X0050823Y0015781D01*
X0050823Y0015879D02*
X0034823Y0015879D01*
X0034823Y0015978D02*
X0050823Y0015978D01*
X0050823Y0016076D02*
X0034823Y0016076D01*
X0034823Y0016175D02*
X0050823Y0016175D01*
X0050823Y0016273D02*
X0034823Y0016273D01*
X0034823Y0016372D02*
X0050823Y0016372D01*
X0050823Y0016470D02*
X0034823Y0016470D01*
X0034823Y0016569D02*
X0050823Y0016569D01*
X0050823Y0016667D02*
X0034823Y0016667D01*
X0034823Y0016766D02*
X0050823Y0016766D01*
X0050823Y0016864D02*
X0034823Y0016864D01*
X0034823Y0016963D02*
X0050823Y0016963D01*
X0050823Y0017061D02*
X0034823Y0017061D01*
X0034823Y0017160D02*
X0050823Y0017160D01*
X0050823Y0017258D02*
X0034823Y0017258D01*
X0034823Y0017357D02*
X0050823Y0017357D01*
X0050823Y0017455D02*
X0034823Y0017455D01*
X0034823Y0017554D02*
X0050823Y0017554D01*
X0050823Y0017652D02*
X0034823Y0017652D01*
X0034823Y0017751D02*
X0050823Y0017751D01*
X0050823Y0017849D02*
X0034823Y0017849D01*
X0034823Y0017948D02*
X0050823Y0017948D01*
X0050823Y0018046D02*
X0034823Y0018046D01*
X0034823Y0018145D02*
X0050823Y0018145D01*
X0050823Y0018243D02*
X0034823Y0018243D01*
X0034823Y0018342D02*
X0050823Y0018342D01*
X0050823Y0018441D02*
X0034823Y0018441D01*
X0034823Y0018539D02*
X0050823Y0018539D01*
X0050823Y0018638D02*
X0034823Y0018638D01*
X0034823Y0018736D02*
X0050823Y0018736D01*
X0050823Y0018835D02*
X0034823Y0018835D01*
X0034823Y0018933D02*
X0050823Y0018933D01*
X0050823Y0019032D02*
X0034823Y0019032D01*
X0034823Y0019130D02*
X0050823Y0019130D01*
X0050823Y0019229D02*
X0034823Y0019229D01*
X0034823Y0019327D02*
X0050823Y0019327D01*
X0050823Y0019426D02*
X0034823Y0019426D01*
X0034823Y0019524D02*
X0050823Y0019524D01*
X0050823Y0019623D02*
X0034823Y0019623D01*
X0034823Y0019721D02*
X0050823Y0019721D01*
X0050823Y0019820D02*
X0034823Y0019820D01*
X0034823Y0019918D02*
X0050823Y0019918D01*
X0050823Y0020017D02*
X0034823Y0020017D01*
X0034823Y0020115D02*
X0050823Y0020115D01*
X0050823Y0020214D02*
X0034823Y0020214D01*
X0034823Y0020312D02*
X0050823Y0020312D01*
X0050823Y0020411D02*
X0034823Y0020411D01*
X0034823Y0020509D02*
X0050823Y0020509D01*
X0050823Y0020608D02*
X0034823Y0020608D01*
X0034823Y0020706D02*
X0050823Y0020706D01*
X0050823Y0020805D02*
X0034823Y0020805D01*
X0034823Y0020903D02*
X0050823Y0020903D01*
X0050823Y0021002D02*
X0034823Y0021002D01*
X0034823Y0021100D02*
X0050823Y0021100D01*
X0050823Y0021199D02*
X0034823Y0021199D01*
X0034823Y0021297D02*
X0050823Y0021297D01*
X0050823Y0021396D02*
X0034823Y0021396D01*
X0034823Y0021494D02*
X0050823Y0021494D01*
X0050823Y0021593D02*
X0034823Y0021593D01*
X0034823Y0021691D02*
X0050823Y0021691D01*
X0050823Y0021790D02*
X0034823Y0021790D01*
X0034823Y0021888D02*
X0050823Y0021888D01*
X0050823Y0021987D02*
X0034823Y0021987D01*
X0034823Y0022085D02*
X0050823Y0022085D01*
X0050823Y0022184D02*
X0034823Y0022184D01*
X0034823Y0022282D02*
X0050823Y0022282D01*
X0050823Y0022381D02*
X0034823Y0022381D01*
X0034823Y0022479D02*
X0050823Y0022479D01*
X0050823Y0022578D02*
X0034823Y0022578D01*
X0034823Y0022676D02*
X0050823Y0022676D01*
X0050823Y0022775D02*
X0034823Y0022775D01*
X0034823Y0022874D02*
X0050823Y0022874D01*
X0050823Y0022972D02*
X0034823Y0022972D01*
X0034823Y0023071D02*
X0050823Y0023071D01*
X0050823Y0023169D02*
X0034823Y0023169D01*
X0034823Y0023268D02*
X0050823Y0023268D01*
X0050823Y0023366D02*
X0034823Y0023366D01*
X0034823Y0023465D02*
X0050823Y0023465D01*
X0050823Y0023563D02*
X0034823Y0023563D01*
X0034823Y0023662D02*
X0050823Y0023662D01*
X0050823Y0023760D02*
X0034823Y0023760D01*
X0034823Y0023859D02*
X0050823Y0023859D01*
X0050823Y0023957D02*
X0034823Y0023957D01*
X0034823Y0024056D02*
X0050823Y0024056D01*
X0050823Y0024154D02*
X0034823Y0024154D01*
X0034823Y0024253D02*
X0050823Y0024253D01*
X0050823Y0024351D02*
X0034823Y0024351D01*
X0034823Y0024450D02*
X0050823Y0024450D01*
X0050823Y0024548D02*
X0034823Y0024548D01*
X0034823Y0024647D02*
X0050823Y0024647D01*
X0050823Y0024745D02*
X0034823Y0024745D01*
X0034823Y0024844D02*
X0050823Y0024844D01*
X0050823Y0024942D02*
X0034823Y0024942D01*
X0034823Y0025041D02*
X0050823Y0025041D01*
X0050823Y0025139D02*
X0034823Y0025139D01*
X0034823Y0025238D02*
X0050823Y0025238D01*
X0050823Y0025336D02*
X0034823Y0025336D01*
X0034823Y0025435D02*
X0050823Y0025435D01*
X0050823Y0025533D02*
X0034823Y0025533D01*
X0034823Y0025632D02*
X0050823Y0025632D01*
X0050823Y0025730D02*
X0034823Y0025730D01*
X0034823Y0025829D02*
X0050823Y0025829D01*
X0050823Y0025927D02*
X0034823Y0025927D01*
X0034823Y0026026D02*
X0050823Y0026026D01*
X0050823Y0026124D02*
X0034823Y0026124D01*
X0034823Y0026223D02*
X0050823Y0026223D01*
X0050823Y0026321D02*
X0034823Y0026321D01*
X0034823Y0026420D02*
X0050823Y0026420D01*
X0050823Y0026518D02*
X0034823Y0026518D01*
X0034823Y0026617D02*
X0050823Y0026617D01*
X0050823Y0026715D02*
X0034823Y0026715D01*
X0034823Y0026814D02*
X0050823Y0026814D01*
X0050823Y0026912D02*
X0034823Y0026912D01*
X0034823Y0027011D02*
X0050823Y0027011D01*
X0050823Y0027109D02*
X0034823Y0027109D01*
X0034823Y0027208D02*
X0050823Y0027208D01*
X0050823Y0027307D02*
X0034823Y0027307D01*
X0034823Y0027405D02*
X0050823Y0027405D01*
X0050823Y0027504D02*
X0034823Y0027504D01*
X0034823Y0027602D02*
X0050823Y0027602D01*
X0050823Y0027701D02*
X0034823Y0027701D01*
X0034823Y0027799D02*
X0050823Y0027799D01*
X0050823Y0027898D02*
X0034823Y0027898D01*
X0034823Y0027996D02*
X0050823Y0027996D01*
X0050823Y0028095D02*
X0034823Y0028095D01*
X0034823Y0028193D02*
X0050823Y0028193D01*
X0050823Y0028292D02*
X0034823Y0028292D01*
X0034823Y0028390D02*
X0050823Y0028390D01*
X0050823Y0028489D02*
X0034823Y0028489D01*
X0034823Y0028587D02*
X0050823Y0028587D01*
X0050823Y0028686D02*
X0034823Y0028686D01*
X0034823Y0028784D02*
X0050823Y0028784D01*
X0050823Y0028883D02*
X0034823Y0028883D01*
X0034823Y0028981D02*
X0050823Y0028981D01*
X0050823Y0029080D02*
X0034823Y0029080D01*
X0034823Y0029178D02*
X0050823Y0029178D01*
X0050823Y0029277D02*
X0034823Y0029277D01*
X0034823Y0029375D02*
X0050823Y0029375D01*
X0050823Y0029474D02*
X0034823Y0029474D01*
X0034823Y0029572D02*
X0050823Y0029572D01*
X0050823Y0029671D02*
X0034823Y0029671D01*
X0034823Y0029769D02*
X0050823Y0029769D01*
X0050823Y0029868D02*
X0034823Y0029868D01*
X0034823Y0029966D02*
X0050823Y0029966D01*
X0050823Y0030065D02*
X0034823Y0030065D01*
X0034823Y0030163D02*
X0050823Y0030163D01*
X0050823Y0030262D02*
X0034823Y0030262D01*
X0034823Y0030360D02*
X0050823Y0030360D01*
X0050823Y0030459D02*
X0034823Y0030459D01*
X0034823Y0030557D02*
X0050823Y0030557D01*
X0050823Y0030656D02*
X0034823Y0030656D01*
X0034823Y0030754D02*
X0050823Y0030754D01*
X0050823Y0030853D02*
X0034823Y0030853D01*
X0034823Y0030951D02*
X0050823Y0030951D01*
X0050823Y0031050D02*
X0034823Y0031050D01*
X0034823Y0031148D02*
X0050823Y0031148D01*
X0050823Y0031247D02*
X0034823Y0031247D01*
X0034823Y0031345D02*
X0050823Y0031345D01*
X0050823Y0031444D02*
X0034823Y0031444D01*
X0034823Y0031543D02*
X0050823Y0031543D01*
X0050823Y0031641D02*
X0034823Y0031641D01*
X0034823Y0031740D02*
X0050823Y0031740D01*
X0050823Y0031838D02*
X0034823Y0031838D01*
X0034823Y0031937D02*
X0050823Y0031937D01*
X0050823Y0032035D02*
X0034823Y0032035D01*
X0034823Y0032134D02*
X0050823Y0032134D01*
X0050823Y0032232D02*
X0034823Y0032232D01*
X0034823Y0032331D02*
X0050823Y0032331D01*
X0050823Y0032429D02*
X0034823Y0032429D01*
X0034823Y0032528D02*
X0050823Y0032528D01*
X0050823Y0032626D02*
X0034823Y0032626D01*
X0034823Y0032725D02*
X0050823Y0032725D01*
X0050823Y0032823D02*
X0034823Y0032823D01*
X0034823Y0032922D02*
X0050823Y0032922D01*
X0050823Y0033020D02*
X0034823Y0033020D01*
X0034823Y0033119D02*
X0050823Y0033119D01*
X0050823Y0033217D02*
X0034823Y0033217D01*
X0034823Y0033316D02*
X0050823Y0033316D01*
X0050823Y0033414D02*
X0049672Y0033414D01*
X0049672Y0033513D02*
X0050823Y0033513D01*
X0050823Y0033611D02*
X0049672Y0033611D01*
X0049672Y0033710D02*
X0050823Y0033710D01*
X0050823Y0033808D02*
X0049672Y0033808D01*
X0049672Y0033907D02*
X0050823Y0033907D01*
X0050823Y0034005D02*
X0049672Y0034005D01*
X0049672Y0034104D02*
X0050823Y0034104D01*
X0050823Y0034202D02*
X0049672Y0034202D01*
X0049672Y0034301D02*
X0050823Y0034301D01*
X0050823Y0034399D02*
X0049672Y0034399D01*
X0049672Y0034498D02*
X0050823Y0034498D01*
X0050823Y0034596D02*
X0049672Y0034596D01*
X0049672Y0034695D02*
X0050823Y0034695D01*
X0050823Y0034793D02*
X0049672Y0034793D01*
X0049672Y0034892D02*
X0050823Y0034892D01*
X0050823Y0034990D02*
X0049672Y0034990D01*
X0049672Y0035089D02*
X0050823Y0035089D01*
X0050823Y0035187D02*
X0049672Y0035187D01*
X0049672Y0035286D02*
X0050823Y0035286D01*
X0050823Y0035384D02*
X0049672Y0035384D01*
X0049672Y0035483D02*
X0050823Y0035483D01*
X0050823Y0035581D02*
X0049672Y0035581D01*
X0049672Y0035680D02*
X0050823Y0035680D01*
X0050823Y0035778D02*
X0049672Y0035778D01*
X0049672Y0035877D02*
X0050823Y0035877D01*
X0050823Y0035976D02*
X0049672Y0035976D01*
X0049672Y0036074D02*
X0050823Y0036074D01*
X0050823Y0036173D02*
X0049672Y0036173D01*
X0049672Y0036271D02*
X0050823Y0036271D01*
X0050823Y0036370D02*
X0049672Y0036370D01*
X0049672Y0036468D02*
X0050823Y0036468D01*
X0050823Y0036567D02*
X0049672Y0036567D01*
X0049672Y0036665D02*
X0050823Y0036665D01*
X0050823Y0036764D02*
X0049672Y0036764D01*
X0049672Y0036862D02*
X0050823Y0036862D01*
X0050823Y0036961D02*
X0043373Y0036961D01*
X0043373Y0036862D02*
X0043273Y0036862D01*
X0043273Y0036863D02*
X0043273Y0033320D01*
X0037003Y0033320D01*
X0036974Y0033349D01*
X0036974Y0036863D01*
X0043273Y0036863D01*
X0043273Y0036961D02*
X0034823Y0036961D01*
X0034823Y0037059D02*
X0036974Y0037059D01*
X0036974Y0037158D02*
X0034823Y0037158D01*
X0034823Y0037256D02*
X0036974Y0037256D01*
X0036974Y0037355D02*
X0034823Y0037355D01*
X0034823Y0037453D02*
X0036974Y0037453D01*
X0036974Y0037552D02*
X0034823Y0037552D01*
X0034823Y0037650D02*
X0036974Y0037650D01*
X0036974Y0037749D02*
X0034823Y0037749D01*
X0034823Y0037847D02*
X0036974Y0037847D01*
X0036974Y0037946D02*
X0034823Y0037946D01*
X0034823Y0038044D02*
X0036974Y0038044D01*
X0036974Y0038143D02*
X0034823Y0038143D01*
X0034823Y0038241D02*
X0036974Y0038241D01*
X0036974Y0038340D02*
X0034823Y0038340D01*
X0034823Y0038438D02*
X0036974Y0038438D01*
X0036974Y0038537D02*
X0034823Y0038537D01*
X0034823Y0038635D02*
X0036974Y0038635D01*
X0036974Y0038734D02*
X0034823Y0038734D01*
X0034823Y0038832D02*
X0036974Y0038832D01*
X0036974Y0038931D02*
X0034823Y0038931D01*
X0034823Y0039029D02*
X0036974Y0039029D01*
X0036974Y0039128D02*
X0034823Y0039128D01*
X0034823Y0039226D02*
X0036974Y0039226D01*
X0036974Y0039325D02*
X0034823Y0039325D01*
X0034823Y0036862D02*
X0036974Y0036862D01*
X0036974Y0036764D02*
X0034823Y0036764D01*
X0034823Y0036665D02*
X0036974Y0036665D01*
X0036974Y0036567D02*
X0034823Y0036567D01*
X0034823Y0036468D02*
X0036974Y0036468D01*
X0036974Y0036370D02*
X0034823Y0036370D01*
X0034823Y0036271D02*
X0036974Y0036271D01*
X0036974Y0036173D02*
X0034823Y0036173D01*
X0034823Y0036074D02*
X0036974Y0036074D01*
X0036974Y0035976D02*
X0034823Y0035976D01*
X0034823Y0035877D02*
X0036974Y0035877D01*
X0036974Y0035778D02*
X0034823Y0035778D01*
X0034823Y0035680D02*
X0036974Y0035680D01*
X0036974Y0035581D02*
X0034823Y0035581D01*
X0034823Y0035483D02*
X0036974Y0035483D01*
X0036974Y0035384D02*
X0034823Y0035384D01*
X0034823Y0035286D02*
X0036974Y0035286D01*
X0036974Y0035187D02*
X0034823Y0035187D01*
X0034823Y0035089D02*
X0036974Y0035089D01*
X0036974Y0034990D02*
X0034823Y0034990D01*
X0034823Y0034892D02*
X0036974Y0034892D01*
X0036974Y0034793D02*
X0034823Y0034793D01*
X0034823Y0034695D02*
X0036974Y0034695D01*
X0036974Y0034596D02*
X0034823Y0034596D01*
X0034823Y0034498D02*
X0036974Y0034498D01*
X0036974Y0034399D02*
X0034823Y0034399D01*
X0034823Y0034301D02*
X0036974Y0034301D01*
X0036974Y0034202D02*
X0034823Y0034202D01*
X0034823Y0034104D02*
X0036974Y0034104D01*
X0036974Y0034005D02*
X0034823Y0034005D01*
X0034823Y0033907D02*
X0036974Y0033907D01*
X0036974Y0033808D02*
X0034823Y0033808D01*
X0034823Y0033710D02*
X0036974Y0033710D01*
X0036974Y0033611D02*
X0034823Y0033611D01*
X0034823Y0033513D02*
X0036974Y0033513D01*
X0036974Y0033414D02*
X0034823Y0033414D01*
X0043273Y0033414D02*
X0043373Y0033414D01*
X0043373Y0033513D02*
X0043273Y0033513D01*
X0043273Y0033611D02*
X0043373Y0033611D01*
X0043373Y0033710D02*
X0043273Y0033710D01*
X0043273Y0033808D02*
X0043373Y0033808D01*
X0043373Y0033907D02*
X0043273Y0033907D01*
X0043273Y0034005D02*
X0043373Y0034005D01*
X0043373Y0034104D02*
X0043273Y0034104D01*
X0043273Y0034202D02*
X0043373Y0034202D01*
X0043373Y0034301D02*
X0043273Y0034301D01*
X0043273Y0034399D02*
X0043373Y0034399D01*
X0043373Y0034498D02*
X0043273Y0034498D01*
X0043273Y0034596D02*
X0043373Y0034596D01*
X0043373Y0034695D02*
X0043273Y0034695D01*
X0043273Y0034793D02*
X0043373Y0034793D01*
X0043373Y0034892D02*
X0043273Y0034892D01*
X0043273Y0034990D02*
X0043373Y0034990D01*
X0043373Y0035089D02*
X0043273Y0035089D01*
X0043273Y0035187D02*
X0043373Y0035187D01*
X0043373Y0035286D02*
X0043273Y0035286D01*
X0043273Y0035384D02*
X0043373Y0035384D01*
X0043373Y0035483D02*
X0043273Y0035483D01*
X0043273Y0035581D02*
X0043373Y0035581D01*
X0043373Y0035680D02*
X0043273Y0035680D01*
X0043273Y0035778D02*
X0043373Y0035778D01*
X0043373Y0035877D02*
X0043273Y0035877D01*
X0043273Y0035976D02*
X0043373Y0035976D01*
X0043373Y0036074D02*
X0043273Y0036074D01*
X0043273Y0036173D02*
X0043373Y0036173D01*
X0043373Y0036271D02*
X0043273Y0036271D01*
X0043273Y0036370D02*
X0043373Y0036370D01*
X0043373Y0036468D02*
X0043273Y0036468D01*
X0043273Y0036567D02*
X0043373Y0036567D01*
X0043373Y0036665D02*
X0043273Y0036665D01*
X0043273Y0036764D02*
X0043373Y0036764D01*
X0049672Y0037059D02*
X0050823Y0037059D01*
X0050823Y0037158D02*
X0049672Y0037158D01*
X0049672Y0037256D02*
X0050823Y0037256D01*
X0050823Y0037355D02*
X0049672Y0037355D01*
X0049672Y0037453D02*
X0050823Y0037453D01*
X0050823Y0037552D02*
X0049672Y0037552D01*
X0049672Y0037650D02*
X0050823Y0037650D01*
X0050823Y0037749D02*
X0049672Y0037749D01*
X0049672Y0037847D02*
X0050823Y0037847D01*
X0050823Y0037946D02*
X0049672Y0037946D01*
X0049672Y0038044D02*
X0050823Y0038044D01*
X0050823Y0038143D02*
X0049672Y0038143D01*
X0049672Y0038241D02*
X0050823Y0038241D01*
X0050823Y0038340D02*
X0049672Y0038340D01*
X0049672Y0038438D02*
X0050823Y0038438D01*
X0050823Y0038537D02*
X0049672Y0038537D01*
X0049672Y0038635D02*
X0050823Y0038635D01*
X0050823Y0038734D02*
X0049672Y0038734D01*
X0049672Y0038832D02*
X0050823Y0038832D01*
X0050823Y0038931D02*
X0049672Y0038931D01*
X0049672Y0039029D02*
X0050823Y0039029D01*
X0050823Y0039128D02*
X0049672Y0039128D01*
X0049672Y0039226D02*
X0050823Y0039226D01*
X0050823Y0039325D02*
X0049672Y0039325D01*
M02*
