G75*
%MOIN*%
%OFA0B0*%
%FSLAX25Y25*%
%IPPOS*%
%LPD*%
%AMOC8*
5,1,8,0,0,1.08239X$1,22.5*
%
%ADD10C,0.10050*%
%ADD11R,0.10000X0.20000*%
%ADD12R,0.03937X0.04331*%
%ADD13R,0.21260X0.24409*%
%ADD14R,0.03937X0.06299*%
%ADD15C,0.11850*%
%ADD16OC8,0.07600*%
%ADD17C,0.01181*%
%ADD18C,0.00394*%
%ADD19C,0.11000*%
%ADD20C,0.00600*%
%ADD21C,0.02978*%
%ADD22C,0.04000*%
%ADD23C,0.12000*%
%ADD24C,0.05906*%
%ADD25C,0.01969*%
%ADD26C,0.01102*%
%ADD27C,0.14000*%
%ADD28C,0.00200*%
%ADD29C,0.01500*%
D10*
X0187114Y0017629D02*
X0187114Y0027679D01*
X0202114Y0027679D02*
X0202114Y0017629D01*
D11*
X0028823Y0014094D03*
X0058823Y0014094D03*
X0088823Y0014094D03*
D12*
X0088323Y0125091D03*
X0088323Y0131783D03*
X0058823Y0131783D03*
X0058823Y0125091D03*
X0028823Y0125091D03*
X0028823Y0131783D03*
D13*
X0028823Y0107280D03*
X0058823Y0107280D03*
X0088823Y0107280D03*
X0088823Y0057280D03*
X0058823Y0057280D03*
X0028823Y0057280D03*
D14*
X0037799Y0078539D03*
X0049846Y0078539D03*
X0067799Y0078539D03*
X0079846Y0078539D03*
X0097799Y0078539D03*
X0097799Y0028539D03*
X0079846Y0028539D03*
X0067799Y0028539D03*
X0049846Y0028539D03*
X0037799Y0028539D03*
X0019846Y0028539D03*
X0019846Y0078539D03*
D15*
X0119886Y0033362D02*
X0119886Y0021512D01*
X0136854Y0021512D02*
X0136854Y0033362D01*
D16*
X0165244Y0029650D03*
X0165244Y0039650D03*
X0165244Y0049650D03*
X0165244Y0059650D03*
X0165244Y0069650D03*
X0165244Y0079650D03*
X0165244Y0089650D03*
X0165244Y0099650D03*
X0165244Y0109650D03*
X0165244Y0119650D03*
X0165244Y0129650D03*
X0165244Y0139650D03*
X0165244Y0149650D03*
X0165244Y0159650D03*
X0165244Y0169650D03*
X0165244Y0179650D03*
X0165244Y0189650D03*
X0165244Y0199650D03*
X0165244Y0209650D03*
X0225244Y0209650D03*
X0225244Y0199650D03*
X0225244Y0189650D03*
X0225244Y0179650D03*
X0225244Y0169650D03*
X0225244Y0159650D03*
X0225244Y0149650D03*
X0225244Y0139650D03*
X0225244Y0129650D03*
X0225244Y0119650D03*
X0225244Y0109650D03*
X0225244Y0099650D03*
X0225244Y0089650D03*
X0225244Y0079650D03*
X0225244Y0069650D03*
X0225244Y0059650D03*
X0225244Y0049650D03*
X0225244Y0039650D03*
X0225244Y0029650D03*
X0225244Y0019650D03*
X0190244Y0059650D03*
X0180244Y0059650D03*
X0180244Y0069650D03*
X0180244Y0079650D03*
X0190244Y0079650D03*
X0190244Y0069650D03*
X0165244Y0019650D03*
D17*
X0142551Y0172957D02*
X0142551Y0175713D01*
X0145307Y0175713D01*
X0145307Y0172957D01*
X0142551Y0172957D01*
X0142551Y0174079D02*
X0145307Y0174079D01*
X0145307Y0175201D02*
X0142551Y0175201D01*
X0135646Y0175713D02*
X0135646Y0172957D01*
X0135646Y0175713D02*
X0138402Y0175713D01*
X0138402Y0172957D01*
X0135646Y0172957D01*
X0135646Y0174079D02*
X0138402Y0174079D01*
X0138402Y0175201D02*
X0135646Y0175201D01*
X0135646Y0182799D02*
X0135646Y0185555D01*
X0138402Y0185555D01*
X0138402Y0182799D01*
X0135646Y0182799D01*
X0135646Y0183921D02*
X0138402Y0183921D01*
X0138402Y0185043D02*
X0135646Y0185043D01*
X0142551Y0185555D02*
X0142551Y0182799D01*
X0142551Y0185555D02*
X0145307Y0185555D01*
X0145307Y0182799D01*
X0142551Y0182799D01*
X0142551Y0183921D02*
X0145307Y0183921D01*
X0145307Y0185043D02*
X0142551Y0185043D01*
D18*
X0111736Y0033783D02*
X0095120Y0033783D01*
X0095120Y0020004D01*
X0111736Y0020004D01*
X0111736Y0033783D01*
X0111736Y0033676D02*
X0095120Y0033676D01*
X0095120Y0033284D02*
X0111736Y0033284D01*
X0111736Y0032892D02*
X0095120Y0032892D01*
X0095120Y0032500D02*
X0111736Y0032500D01*
X0111736Y0032107D02*
X0095120Y0032107D01*
X0095120Y0031715D02*
X0095634Y0031715D01*
X0095634Y0031771D02*
X0095634Y0028736D01*
X0097602Y0028736D01*
X0097602Y0028343D01*
X0095634Y0028343D01*
X0095634Y0025308D01*
X0095749Y0025193D01*
X0097602Y0025193D01*
X0097602Y0028342D01*
X0097996Y0028342D01*
X0097996Y0025193D01*
X0099849Y0025193D01*
X0099965Y0025308D01*
X0099965Y0028343D01*
X0097996Y0028343D01*
X0097996Y0028736D01*
X0099965Y0028736D01*
X0099965Y0031771D01*
X0099849Y0031886D01*
X0097996Y0031886D01*
X0097996Y0028736D01*
X0097602Y0028736D01*
X0097602Y0031886D01*
X0095749Y0031886D01*
X0095634Y0031771D01*
X0095634Y0031323D02*
X0095120Y0031323D01*
X0095120Y0030931D02*
X0095634Y0030931D01*
X0095634Y0030539D02*
X0095120Y0030539D01*
X0095120Y0030146D02*
X0095634Y0030146D01*
X0095634Y0029754D02*
X0095120Y0029754D01*
X0095120Y0029362D02*
X0095634Y0029362D01*
X0095634Y0028970D02*
X0095120Y0028970D01*
X0095120Y0028578D02*
X0097602Y0028578D01*
X0097602Y0028970D02*
X0097996Y0028970D01*
X0097996Y0029362D02*
X0097602Y0029362D01*
X0097602Y0029754D02*
X0097996Y0029754D01*
X0097996Y0030146D02*
X0097602Y0030146D01*
X0097602Y0030539D02*
X0097996Y0030539D01*
X0097996Y0030931D02*
X0097602Y0030931D01*
X0097602Y0031323D02*
X0097996Y0031323D01*
X0097996Y0031715D02*
X0097602Y0031715D01*
X0099965Y0031715D02*
X0111736Y0031715D01*
X0111736Y0031323D02*
X0099965Y0031323D01*
X0099965Y0030931D02*
X0111736Y0030931D01*
X0111736Y0030539D02*
X0099965Y0030539D01*
X0099965Y0030146D02*
X0111736Y0030146D01*
X0111736Y0029754D02*
X0099965Y0029754D01*
X0099965Y0029362D02*
X0111736Y0029362D01*
X0111736Y0028970D02*
X0099965Y0028970D01*
X0099965Y0028185D02*
X0111736Y0028185D01*
X0111736Y0027793D02*
X0099965Y0027793D01*
X0099965Y0027401D02*
X0111736Y0027401D01*
X0111736Y0027009D02*
X0099965Y0027009D01*
X0099965Y0026616D02*
X0111736Y0026616D01*
X0111736Y0026224D02*
X0099965Y0026224D01*
X0099965Y0025832D02*
X0111736Y0025832D01*
X0111736Y0025440D02*
X0099965Y0025440D01*
X0097996Y0025440D02*
X0097602Y0025440D01*
X0097602Y0025832D02*
X0097996Y0025832D01*
X0097996Y0026224D02*
X0097602Y0026224D01*
X0097602Y0026616D02*
X0097996Y0026616D01*
X0097996Y0027009D02*
X0097602Y0027009D01*
X0097602Y0027401D02*
X0097996Y0027401D01*
X0097996Y0027793D02*
X0097602Y0027793D01*
X0097602Y0028185D02*
X0097996Y0028185D01*
X0097996Y0028578D02*
X0111736Y0028578D01*
X0111736Y0025048D02*
X0095120Y0025048D01*
X0095120Y0025440D02*
X0095634Y0025440D01*
X0095634Y0025832D02*
X0095120Y0025832D01*
X0095120Y0026224D02*
X0095634Y0026224D01*
X0095634Y0026616D02*
X0095120Y0026616D01*
X0095120Y0027009D02*
X0095634Y0027009D01*
X0095634Y0027401D02*
X0095120Y0027401D01*
X0095120Y0027793D02*
X0095634Y0027793D01*
X0095634Y0028185D02*
X0095120Y0028185D01*
X0095120Y0024655D02*
X0111736Y0024655D01*
X0111736Y0024263D02*
X0095120Y0024263D01*
X0095120Y0023871D02*
X0111736Y0023871D01*
X0111736Y0023479D02*
X0095120Y0023479D01*
X0095120Y0023087D02*
X0111736Y0023087D01*
X0111736Y0022694D02*
X0095120Y0022694D01*
X0095120Y0022302D02*
X0111736Y0022302D01*
X0111736Y0021910D02*
X0095120Y0021910D01*
X0095120Y0021518D02*
X0111736Y0021518D01*
X0111736Y0021125D02*
X0095120Y0021125D01*
X0095120Y0020733D02*
X0111736Y0020733D01*
X0111736Y0020341D02*
X0095120Y0020341D01*
D19*
X0088823Y0014094D02*
X0088823Y0057280D01*
X0058823Y0057280D02*
X0058823Y0014094D01*
X0028823Y0014094D02*
X0028823Y0057280D01*
X0100909Y0027091D02*
X0119539Y0027091D01*
X0119886Y0027437D01*
D20*
X0128437Y0003037D02*
X0083437Y0003037D01*
X0082237Y0004237D01*
X0082237Y0026437D01*
X0080437Y0028237D01*
X0079846Y0028539D01*
X0052237Y0030637D02*
X0050437Y0028837D01*
X0049846Y0028539D01*
X0052237Y0030637D02*
X0052237Y0039637D01*
X0049237Y0042637D01*
X0040237Y0042637D01*
X0019837Y0028837D02*
X0019846Y0028539D01*
X0019837Y0028837D02*
X0016837Y0031837D01*
X0016837Y0069637D01*
X0018037Y0070837D01*
X0018637Y0070837D01*
X0024637Y0076837D01*
X0020437Y0078637D02*
X0019846Y0078539D01*
X0020437Y0078637D02*
X0024637Y0082837D01*
X0037799Y0078539D02*
X0043837Y0082237D01*
X0049846Y0078539D02*
X0050437Y0078637D01*
X0058237Y0086437D01*
X0058237Y0088837D01*
X0060637Y0088237D02*
X0064237Y0084637D01*
X0067799Y0078539D01*
X0060637Y0088237D02*
X0060637Y0092437D01*
X0079846Y0078539D02*
X0080437Y0078637D01*
X0084037Y0078637D01*
X0097799Y0078539D02*
X0103237Y0082837D01*
X0121237Y0100837D02*
X0138037Y0117637D01*
X0138037Y0120037D01*
X0138037Y0126037D01*
X0131437Y0132637D01*
X0132637Y0135037D02*
X0141037Y0126637D01*
X0141037Y0122437D01*
X0144637Y0117037D02*
X0148837Y0121237D01*
X0148837Y0144037D01*
X0151237Y0145237D02*
X0148837Y0147637D01*
X0151237Y0145237D02*
X0151237Y0114037D01*
X0149437Y0112237D01*
X0149437Y0111037D01*
X0148237Y0108637D02*
X0164437Y0108637D01*
X0165037Y0109237D01*
X0165244Y0109650D01*
X0153637Y0096637D02*
X0153637Y0028237D01*
X0128437Y0003037D01*
X0165244Y0019650D02*
X0165637Y0019837D01*
X0165637Y0029437D02*
X0165244Y0029650D01*
X0165637Y0030037D01*
X0165244Y0039650D02*
X0165637Y0040237D01*
X0165637Y0043237D01*
X0170437Y0048037D01*
X0170437Y0141637D01*
X0167437Y0144637D01*
X0163237Y0144637D01*
X0147637Y0160237D01*
X0147637Y0169237D01*
X0150037Y0168037D02*
X0150037Y0173437D01*
X0145837Y0177637D01*
X0140437Y0177637D01*
X0137437Y0174637D01*
X0137024Y0174335D01*
X0136837Y0174037D01*
X0133237Y0174037D01*
X0124237Y0165037D01*
X0127237Y0162637D02*
X0116437Y0162637D01*
X0103837Y0150037D01*
X0103837Y0149437D01*
X0102637Y0151837D02*
X0100837Y0151837D01*
X0102637Y0151837D02*
X0128437Y0177637D01*
X0135637Y0177637D01*
X0141637Y0183637D01*
X0143437Y0183637D01*
X0143929Y0184177D01*
X0144037Y0184237D01*
X0144637Y0184837D01*
X0149437Y0184837D01*
X0167437Y0184837D01*
X0181837Y0199237D01*
X0225037Y0199237D01*
X0225244Y0199650D01*
X0230437Y0198037D02*
X0226837Y0194437D01*
X0223237Y0194437D01*
X0217837Y0189037D01*
X0217837Y0130237D01*
X0223237Y0124837D01*
X0226837Y0124837D01*
X0230437Y0121237D01*
X0230437Y0037837D01*
X0225637Y0033037D01*
X0225637Y0030037D01*
X0225244Y0029650D01*
X0225037Y0022837D02*
X0195037Y0052837D01*
X0195037Y0126037D01*
X0170437Y0150637D01*
X0170437Y0151237D01*
X0166837Y0154837D01*
X0163237Y0154837D01*
X0150037Y0168037D01*
X0143929Y0174335D02*
X0143437Y0174037D01*
X0139237Y0169837D01*
X0130837Y0180037D02*
X0129037Y0180037D01*
X0109237Y0160237D01*
X0094237Y0160237D01*
X0094237Y0147037D01*
X0096637Y0145837D02*
X0099637Y0142837D01*
X0099637Y0134437D01*
X0100837Y0133237D01*
X0099637Y0130837D02*
X0096037Y0134437D01*
X0096037Y0141637D01*
X0096637Y0145837D02*
X0102637Y0151837D01*
X0106837Y0151237D02*
X0106837Y0148837D01*
X0102037Y0144037D01*
X0102037Y0139237D01*
X0103237Y0138037D01*
X0105637Y0138037D01*
X0109237Y0141637D01*
X0109237Y0148237D01*
X0111637Y0150637D01*
X0108037Y0150637D02*
X0108037Y0144037D01*
X0104437Y0140437D01*
X0104437Y0132637D02*
X0102637Y0130837D01*
X0099637Y0130837D01*
X0097237Y0125437D02*
X0105637Y0125437D01*
X0109837Y0121237D01*
X0111637Y0121237D01*
X0114037Y0122437D02*
X0108037Y0128437D01*
X0092437Y0128437D01*
X0088837Y0132037D02*
X0088323Y0131783D01*
X0088237Y0132037D01*
X0058837Y0132037D01*
X0058823Y0131783D01*
X0058237Y0132037D01*
X0028837Y0132037D01*
X0028823Y0131783D01*
X0088837Y0132037D02*
X0088837Y0138037D01*
X0096637Y0145837D01*
X0106837Y0151237D02*
X0111037Y0155437D01*
X0130237Y0155437D01*
X0136837Y0148837D01*
X0142837Y0146437D02*
X0123637Y0146437D01*
X0118237Y0151837D01*
X0116437Y0151837D01*
X0117637Y0154237D02*
X0111637Y0154237D01*
X0108037Y0150637D01*
X0111637Y0147037D02*
X0121237Y0147037D01*
X0130837Y0137437D01*
X0142837Y0137437D01*
X0132637Y0135037D02*
X0126637Y0135037D01*
X0124237Y0132637D01*
X0127837Y0132637D02*
X0134437Y0126037D01*
X0134437Y0120037D01*
X0127837Y0122437D02*
X0113437Y0108037D01*
X0107437Y0120037D02*
X0100237Y0120037D01*
X0098437Y0121837D01*
X0096037Y0121837D01*
X0114037Y0122437D02*
X0124237Y0122437D01*
X0144637Y0117037D02*
X0144637Y0109237D01*
X0145237Y0108637D01*
X0145237Y0088837D01*
X0136854Y0072839D02*
X0136837Y0069637D01*
X0136539Y0069637D01*
X0148237Y0108637D02*
X0147037Y0109837D01*
X0147037Y0112237D01*
X0148237Y0113437D01*
X0148237Y0114637D01*
X0181237Y0141637D02*
X0220237Y0102637D01*
X0220237Y0064837D01*
X0225037Y0060037D01*
X0225244Y0059650D01*
X0225037Y0022837D02*
X0225037Y0019837D01*
X0225244Y0019650D01*
X0202114Y0022654D02*
X0201637Y0022837D01*
X0225244Y0129650D02*
X0225037Y0130237D01*
X0219037Y0136237D01*
X0219037Y0180637D01*
X0223237Y0184837D01*
X0227437Y0184837D01*
X0231637Y0189037D01*
X0231637Y0210037D01*
X0226837Y0214837D01*
X0160237Y0214837D01*
X0111037Y0165637D01*
X0109237Y0165637D01*
X0109837Y0162637D02*
X0103837Y0162637D01*
X0109837Y0162637D02*
X0130837Y0183637D01*
X0136837Y0183637D01*
X0137024Y0184177D01*
X0137437Y0184237D01*
X0157837Y0204637D01*
X0227437Y0204637D01*
X0230437Y0201637D01*
X0230437Y0198037D01*
X0234037Y0211237D02*
X0234037Y0181237D01*
X0227437Y0174637D01*
X0223237Y0174637D01*
X0220237Y0171637D01*
X0220237Y0154837D01*
X0225037Y0150037D01*
X0225244Y0149650D01*
X0225244Y0169650D02*
X0225637Y0169837D01*
X0235237Y0179437D01*
X0235237Y0211837D01*
X0226837Y0220237D01*
X0121237Y0220237D01*
X0100837Y0199837D01*
X0100837Y0197437D01*
X0118237Y0180037D01*
X0120637Y0180037D01*
X0117637Y0178837D02*
X0117637Y0177637D01*
X0117637Y0178837D02*
X0099637Y0196837D01*
X0099637Y0202237D01*
X0111637Y0198637D02*
X0113437Y0198637D01*
X0133837Y0219037D01*
X0226237Y0219037D01*
X0234037Y0211237D01*
X0181237Y0143437D02*
X0181237Y0141637D01*
X0125437Y0151837D02*
X0120037Y0151837D01*
X0117637Y0154237D01*
X0094237Y0160237D02*
X0094237Y0176437D01*
X0095437Y0177637D01*
X0112237Y0189637D02*
X0137437Y0214837D01*
D21*
X0137437Y0214837D03*
X0111637Y0198637D03*
X0112237Y0189637D03*
X0120637Y0180037D03*
X0117637Y0177637D03*
X0130837Y0180037D03*
X0139237Y0169837D03*
X0142909Y0169540D03*
X0147637Y0169237D03*
X0149437Y0184837D03*
X0127237Y0162637D03*
X0124237Y0165037D03*
X0125437Y0151837D03*
X0116437Y0151837D03*
X0111637Y0150637D03*
X0111637Y0147037D03*
X0103837Y0149437D03*
X0100837Y0151837D03*
X0094237Y0147037D03*
X0096037Y0141637D03*
X0099637Y0142837D03*
X0104437Y0140437D03*
X0104437Y0132637D03*
X0100837Y0133237D03*
X0097237Y0125437D03*
X0092437Y0128437D03*
X0096037Y0121837D03*
X0107437Y0120037D03*
X0111637Y0121237D03*
X0124237Y0122437D03*
X0127837Y0122437D03*
X0134437Y0120037D03*
X0138037Y0120037D03*
X0141037Y0122437D03*
X0145988Y0122366D03*
X0148237Y0114637D03*
X0149437Y0111037D03*
X0153637Y0096637D03*
X0145237Y0088837D03*
X0121237Y0100837D03*
X0113437Y0108037D03*
X0124237Y0132637D03*
X0127837Y0132637D03*
X0131437Y0132637D03*
X0142837Y0137437D03*
X0148837Y0144037D03*
X0148837Y0147637D03*
X0142837Y0146437D03*
X0136837Y0148837D03*
X0109237Y0165637D03*
X0103837Y0162637D03*
X0095437Y0177637D03*
X0099637Y0202237D03*
X0181237Y0143437D03*
X0103237Y0082837D03*
X0088114Y0072581D03*
X0084037Y0078637D03*
X0060637Y0092437D03*
X0058237Y0088837D03*
X0043837Y0082237D03*
X0055831Y0072581D03*
X0043232Y0053328D03*
X0040237Y0042637D03*
X0041854Y0023154D03*
X0045791Y0023154D03*
X0045791Y0019217D03*
X0041854Y0019217D03*
X0037917Y0019217D03*
X0037917Y0023154D03*
X0037917Y0015280D03*
X0041854Y0015280D03*
X0045791Y0015280D03*
X0068429Y0015280D03*
X0072366Y0015280D03*
X0072366Y0019217D03*
X0068429Y0019217D03*
X0068429Y0023154D03*
X0072366Y0023154D03*
X0076303Y0023154D03*
X0076303Y0019217D03*
X0076303Y0015280D03*
X0073547Y0053328D03*
X0024637Y0076837D03*
X0024637Y0082837D03*
D22*
X0165244Y0029650D02*
X0165244Y0019650D01*
X0165244Y0029650D02*
X0178302Y0029650D01*
X0183956Y0035304D01*
X0190273Y0035304D01*
X0194739Y0030837D01*
X0194739Y0030029D01*
X0202114Y0022654D01*
D23*
X0136854Y0027437D02*
X0136854Y0072839D01*
X0102413Y0107280D01*
X0088823Y0107280D01*
X0058823Y0107280D01*
X0028823Y0107280D01*
D24*
X0028823Y0125091D01*
X0058823Y0125091D02*
X0058823Y0107280D01*
X0088323Y0107780D02*
X0088823Y0107280D01*
X0088323Y0107780D02*
X0088323Y0125091D01*
D25*
X0136539Y0112917D02*
X0136539Y0069637D01*
X0136539Y0025516D01*
X0136539Y0112917D02*
X0145988Y0122366D01*
D26*
X0145988Y0166461D01*
X0142909Y0169540D01*
D27*
X0097799Y0078539D02*
X0097799Y0066256D01*
X0088823Y0057280D01*
X0067799Y0066256D02*
X0058823Y0057280D01*
X0067799Y0066256D02*
X0067799Y0078539D01*
X0037799Y0078539D02*
X0037799Y0066343D01*
X0027091Y0055634D01*
X0027177Y0055634D01*
X0028823Y0057280D01*
D28*
X0035023Y0039343D02*
X0050823Y0039343D01*
X0050823Y0032389D01*
X0047588Y0032389D01*
X0047178Y0031979D01*
X0047178Y0025100D01*
X0047588Y0024690D01*
X0050823Y0024690D01*
X0050823Y0012937D01*
X0035023Y0012937D01*
X0035023Y0039343D01*
X0035023Y0039184D02*
X0050823Y0039184D01*
X0050823Y0038985D02*
X0035023Y0038985D01*
X0035023Y0038787D02*
X0050823Y0038787D01*
X0050823Y0038588D02*
X0035023Y0038588D01*
X0035023Y0038390D02*
X0050823Y0038390D01*
X0050823Y0038191D02*
X0035023Y0038191D01*
X0035023Y0037993D02*
X0050823Y0037993D01*
X0050823Y0037794D02*
X0035023Y0037794D01*
X0035023Y0037596D02*
X0050823Y0037596D01*
X0050823Y0037397D02*
X0035023Y0037397D01*
X0035023Y0037199D02*
X0050823Y0037199D01*
X0050823Y0037000D02*
X0035023Y0037000D01*
X0035023Y0036802D02*
X0050823Y0036802D01*
X0050823Y0036603D02*
X0035023Y0036603D01*
X0035023Y0036405D02*
X0050823Y0036405D01*
X0050823Y0036206D02*
X0035023Y0036206D01*
X0035023Y0036008D02*
X0050823Y0036008D01*
X0050823Y0035809D02*
X0035023Y0035809D01*
X0035023Y0035611D02*
X0050823Y0035611D01*
X0050823Y0035412D02*
X0035023Y0035412D01*
X0035023Y0035214D02*
X0050823Y0035214D01*
X0050823Y0035015D02*
X0035023Y0035015D01*
X0035023Y0034817D02*
X0050823Y0034817D01*
X0050823Y0034618D02*
X0035023Y0034618D01*
X0035023Y0034420D02*
X0050823Y0034420D01*
X0050823Y0034221D02*
X0035023Y0034221D01*
X0035023Y0034023D02*
X0050823Y0034023D01*
X0050823Y0033824D02*
X0035023Y0033824D01*
X0035023Y0033626D02*
X0050823Y0033626D01*
X0050823Y0033427D02*
X0035023Y0033427D01*
X0035023Y0033229D02*
X0050823Y0033229D01*
X0050823Y0033030D02*
X0035023Y0033030D01*
X0035023Y0032832D02*
X0050823Y0032832D01*
X0050823Y0032633D02*
X0035023Y0032633D01*
X0035023Y0032435D02*
X0050823Y0032435D01*
X0047435Y0032236D02*
X0035023Y0032236D01*
X0035023Y0032038D02*
X0047237Y0032038D01*
X0047178Y0031839D02*
X0035023Y0031839D01*
X0035023Y0031641D02*
X0035731Y0031641D01*
X0035731Y0031730D02*
X0035731Y0028639D01*
X0037699Y0028639D01*
X0037699Y0028439D01*
X0037899Y0028439D01*
X0037899Y0025290D01*
X0039809Y0025290D01*
X0039868Y0025348D01*
X0039868Y0028439D01*
X0037899Y0028439D01*
X0037899Y0028639D01*
X0039868Y0028639D01*
X0039868Y0031730D01*
X0039809Y0031789D01*
X0037899Y0031789D01*
X0037899Y0028639D01*
X0037699Y0028639D01*
X0037699Y0031789D01*
X0035789Y0031789D01*
X0035731Y0031730D01*
X0035731Y0031442D02*
X0035023Y0031442D01*
X0035023Y0031243D02*
X0035731Y0031243D01*
X0035731Y0031045D02*
X0035023Y0031045D01*
X0035023Y0030846D02*
X0035731Y0030846D01*
X0035731Y0030648D02*
X0035023Y0030648D01*
X0035023Y0030449D02*
X0035731Y0030449D01*
X0035731Y0030251D02*
X0035023Y0030251D01*
X0035023Y0030052D02*
X0035731Y0030052D01*
X0035731Y0029854D02*
X0035023Y0029854D01*
X0035023Y0029655D02*
X0035731Y0029655D01*
X0035731Y0029457D02*
X0035023Y0029457D01*
X0035023Y0029258D02*
X0035731Y0029258D01*
X0035731Y0029060D02*
X0035023Y0029060D01*
X0035023Y0028861D02*
X0035731Y0028861D01*
X0035731Y0028663D02*
X0035023Y0028663D01*
X0035023Y0028464D02*
X0037699Y0028464D01*
X0037699Y0028439D02*
X0035731Y0028439D01*
X0035731Y0025348D01*
X0035789Y0025290D01*
X0037699Y0025290D01*
X0037699Y0028439D01*
X0037699Y0028266D02*
X0037899Y0028266D01*
X0037899Y0028464D02*
X0047178Y0028464D01*
X0047178Y0028266D02*
X0039868Y0028266D01*
X0039868Y0028067D02*
X0047178Y0028067D01*
X0047178Y0027869D02*
X0039868Y0027869D01*
X0039868Y0027670D02*
X0047178Y0027670D01*
X0047178Y0027472D02*
X0039868Y0027472D01*
X0039868Y0027273D02*
X0047178Y0027273D01*
X0047178Y0027075D02*
X0039868Y0027075D01*
X0039868Y0026876D02*
X0047178Y0026876D01*
X0047178Y0026678D02*
X0039868Y0026678D01*
X0039868Y0026479D02*
X0047178Y0026479D01*
X0047178Y0026281D02*
X0039868Y0026281D01*
X0039868Y0026082D02*
X0047178Y0026082D01*
X0047178Y0025884D02*
X0039868Y0025884D01*
X0039868Y0025685D02*
X0047178Y0025685D01*
X0047178Y0025487D02*
X0039868Y0025487D01*
X0037899Y0025487D02*
X0037699Y0025487D01*
X0037699Y0025685D02*
X0037899Y0025685D01*
X0037899Y0025884D02*
X0037699Y0025884D01*
X0037699Y0026082D02*
X0037899Y0026082D01*
X0037899Y0026281D02*
X0037699Y0026281D01*
X0037699Y0026479D02*
X0037899Y0026479D01*
X0037899Y0026678D02*
X0037699Y0026678D01*
X0037699Y0026876D02*
X0037899Y0026876D01*
X0037899Y0027075D02*
X0037699Y0027075D01*
X0037699Y0027273D02*
X0037899Y0027273D01*
X0037899Y0027472D02*
X0037699Y0027472D01*
X0037699Y0027670D02*
X0037899Y0027670D01*
X0037899Y0027869D02*
X0037699Y0027869D01*
X0037699Y0028067D02*
X0037899Y0028067D01*
X0037899Y0028663D02*
X0037699Y0028663D01*
X0037699Y0028861D02*
X0037899Y0028861D01*
X0037899Y0029060D02*
X0037699Y0029060D01*
X0037699Y0029258D02*
X0037899Y0029258D01*
X0037899Y0029457D02*
X0037699Y0029457D01*
X0037699Y0029655D02*
X0037899Y0029655D01*
X0037899Y0029854D02*
X0037699Y0029854D01*
X0037699Y0030052D02*
X0037899Y0030052D01*
X0037899Y0030251D02*
X0037699Y0030251D01*
X0037699Y0030449D02*
X0037899Y0030449D01*
X0037899Y0030648D02*
X0037699Y0030648D01*
X0037699Y0030846D02*
X0037899Y0030846D01*
X0037899Y0031045D02*
X0037699Y0031045D01*
X0037699Y0031243D02*
X0037899Y0031243D01*
X0037899Y0031442D02*
X0037699Y0031442D01*
X0037699Y0031641D02*
X0037899Y0031641D01*
X0039868Y0031641D02*
X0047178Y0031641D01*
X0047178Y0031442D02*
X0039868Y0031442D01*
X0039868Y0031243D02*
X0047178Y0031243D01*
X0047178Y0031045D02*
X0039868Y0031045D01*
X0039868Y0030846D02*
X0047178Y0030846D01*
X0047178Y0030648D02*
X0039868Y0030648D01*
X0039868Y0030449D02*
X0047178Y0030449D01*
X0047178Y0030251D02*
X0039868Y0030251D01*
X0039868Y0030052D02*
X0047178Y0030052D01*
X0047178Y0029854D02*
X0039868Y0029854D01*
X0039868Y0029655D02*
X0047178Y0029655D01*
X0047178Y0029457D02*
X0039868Y0029457D01*
X0039868Y0029258D02*
X0047178Y0029258D01*
X0047178Y0029060D02*
X0039868Y0029060D01*
X0039868Y0028861D02*
X0047178Y0028861D01*
X0047178Y0028663D02*
X0039868Y0028663D01*
X0035731Y0028266D02*
X0035023Y0028266D01*
X0035023Y0028067D02*
X0035731Y0028067D01*
X0035731Y0027869D02*
X0035023Y0027869D01*
X0035023Y0027670D02*
X0035731Y0027670D01*
X0035731Y0027472D02*
X0035023Y0027472D01*
X0035023Y0027273D02*
X0035731Y0027273D01*
X0035731Y0027075D02*
X0035023Y0027075D01*
X0035023Y0026876D02*
X0035731Y0026876D01*
X0035731Y0026678D02*
X0035023Y0026678D01*
X0035023Y0026479D02*
X0035731Y0026479D01*
X0035731Y0026281D02*
X0035023Y0026281D01*
X0035023Y0026082D02*
X0035731Y0026082D01*
X0035731Y0025884D02*
X0035023Y0025884D01*
X0035023Y0025685D02*
X0035731Y0025685D01*
X0035731Y0025487D02*
X0035023Y0025487D01*
X0035023Y0025288D02*
X0047178Y0025288D01*
X0047188Y0025090D02*
X0035023Y0025090D01*
X0035023Y0024891D02*
X0047387Y0024891D01*
X0047585Y0024693D02*
X0035023Y0024693D01*
X0035023Y0024494D02*
X0050823Y0024494D01*
X0050823Y0024296D02*
X0035023Y0024296D01*
X0035023Y0024097D02*
X0050823Y0024097D01*
X0050823Y0023899D02*
X0035023Y0023899D01*
X0035023Y0023700D02*
X0050823Y0023700D01*
X0050823Y0023502D02*
X0035023Y0023502D01*
X0035023Y0023303D02*
X0050823Y0023303D01*
X0050823Y0023105D02*
X0035023Y0023105D01*
X0035023Y0022906D02*
X0050823Y0022906D01*
X0050823Y0022707D02*
X0035023Y0022707D01*
X0035023Y0022509D02*
X0050823Y0022509D01*
X0050823Y0022310D02*
X0035023Y0022310D01*
X0035023Y0022112D02*
X0050823Y0022112D01*
X0050823Y0021913D02*
X0035023Y0021913D01*
X0035023Y0021715D02*
X0050823Y0021715D01*
X0050823Y0021516D02*
X0035023Y0021516D01*
X0035023Y0021318D02*
X0050823Y0021318D01*
X0050823Y0021119D02*
X0035023Y0021119D01*
X0035023Y0020921D02*
X0050823Y0020921D01*
X0050823Y0020722D02*
X0035023Y0020722D01*
X0035023Y0020524D02*
X0050823Y0020524D01*
X0050823Y0020325D02*
X0035023Y0020325D01*
X0035023Y0020127D02*
X0050823Y0020127D01*
X0050823Y0019928D02*
X0035023Y0019928D01*
X0035023Y0019730D02*
X0050823Y0019730D01*
X0050823Y0019531D02*
X0035023Y0019531D01*
X0035023Y0019333D02*
X0050823Y0019333D01*
X0050823Y0019134D02*
X0035023Y0019134D01*
X0035023Y0018936D02*
X0050823Y0018936D01*
X0050823Y0018737D02*
X0035023Y0018737D01*
X0035023Y0018539D02*
X0050823Y0018539D01*
X0050823Y0018340D02*
X0035023Y0018340D01*
X0035023Y0018142D02*
X0050823Y0018142D01*
X0050823Y0017943D02*
X0035023Y0017943D01*
X0035023Y0017745D02*
X0050823Y0017745D01*
X0050823Y0017546D02*
X0035023Y0017546D01*
X0035023Y0017348D02*
X0050823Y0017348D01*
X0050823Y0017149D02*
X0035023Y0017149D01*
X0035023Y0016951D02*
X0050823Y0016951D01*
X0050823Y0016752D02*
X0035023Y0016752D01*
X0035023Y0016554D02*
X0050823Y0016554D01*
X0050823Y0016355D02*
X0035023Y0016355D01*
X0035023Y0016157D02*
X0050823Y0016157D01*
X0050823Y0015958D02*
X0035023Y0015958D01*
X0035023Y0015760D02*
X0050823Y0015760D01*
X0050823Y0015561D02*
X0035023Y0015561D01*
X0035023Y0015363D02*
X0050823Y0015363D01*
X0050823Y0015164D02*
X0035023Y0015164D01*
X0035023Y0014966D02*
X0050823Y0014966D01*
X0050823Y0014767D02*
X0035023Y0014767D01*
X0035023Y0014569D02*
X0050823Y0014569D01*
X0050823Y0014370D02*
X0035023Y0014370D01*
X0035023Y0014172D02*
X0050823Y0014172D01*
X0050823Y0013973D02*
X0035023Y0013973D01*
X0035023Y0013774D02*
X0050823Y0013774D01*
X0050823Y0013576D02*
X0035023Y0013576D01*
X0035023Y0013377D02*
X0050823Y0013377D01*
X0050823Y0013179D02*
X0035023Y0013179D01*
X0035023Y0012980D02*
X0050823Y0012980D01*
X0065023Y0012980D02*
X0081237Y0012980D01*
X0081237Y0012937D02*
X0065023Y0012937D01*
X0065023Y0039437D01*
X0081323Y0039437D01*
X0081323Y0032389D01*
X0077588Y0032389D01*
X0077178Y0031979D01*
X0077178Y0025100D01*
X0077588Y0024690D01*
X0081237Y0024690D01*
X0081237Y0012937D01*
X0081237Y0013179D02*
X0065023Y0013179D01*
X0065023Y0013377D02*
X0081237Y0013377D01*
X0081237Y0013576D02*
X0065023Y0013576D01*
X0065023Y0013774D02*
X0081237Y0013774D01*
X0081237Y0013973D02*
X0065023Y0013973D01*
X0065023Y0014172D02*
X0081237Y0014172D01*
X0081237Y0014370D02*
X0065023Y0014370D01*
X0065023Y0014569D02*
X0081237Y0014569D01*
X0081237Y0014767D02*
X0065023Y0014767D01*
X0065023Y0014966D02*
X0081237Y0014966D01*
X0081237Y0015164D02*
X0065023Y0015164D01*
X0065023Y0015363D02*
X0081237Y0015363D01*
X0081237Y0015561D02*
X0065023Y0015561D01*
X0065023Y0015760D02*
X0081237Y0015760D01*
X0081237Y0015958D02*
X0065023Y0015958D01*
X0065023Y0016157D02*
X0081237Y0016157D01*
X0081237Y0016355D02*
X0065023Y0016355D01*
X0065023Y0016554D02*
X0081237Y0016554D01*
X0081237Y0016752D02*
X0065023Y0016752D01*
X0065023Y0016951D02*
X0081237Y0016951D01*
X0081237Y0017149D02*
X0065023Y0017149D01*
X0065023Y0017348D02*
X0081237Y0017348D01*
X0081237Y0017546D02*
X0065023Y0017546D01*
X0065023Y0017745D02*
X0081237Y0017745D01*
X0081237Y0017943D02*
X0065023Y0017943D01*
X0065023Y0018142D02*
X0081237Y0018142D01*
X0081237Y0018340D02*
X0065023Y0018340D01*
X0065023Y0018539D02*
X0081237Y0018539D01*
X0081237Y0018737D02*
X0065023Y0018737D01*
X0065023Y0018936D02*
X0081237Y0018936D01*
X0081237Y0019134D02*
X0065023Y0019134D01*
X0065023Y0019333D02*
X0081237Y0019333D01*
X0081237Y0019531D02*
X0065023Y0019531D01*
X0065023Y0019730D02*
X0081237Y0019730D01*
X0081237Y0019928D02*
X0065023Y0019928D01*
X0065023Y0020127D02*
X0081237Y0020127D01*
X0081237Y0020325D02*
X0065023Y0020325D01*
X0065023Y0020524D02*
X0081237Y0020524D01*
X0081237Y0020722D02*
X0065023Y0020722D01*
X0065023Y0020921D02*
X0081237Y0020921D01*
X0081237Y0021119D02*
X0065023Y0021119D01*
X0065023Y0021318D02*
X0081237Y0021318D01*
X0081237Y0021516D02*
X0065023Y0021516D01*
X0065023Y0021715D02*
X0081237Y0021715D01*
X0081237Y0021913D02*
X0065023Y0021913D01*
X0065023Y0022112D02*
X0081237Y0022112D01*
X0081237Y0022310D02*
X0065023Y0022310D01*
X0065023Y0022509D02*
X0081237Y0022509D01*
X0081237Y0022707D02*
X0065023Y0022707D01*
X0065023Y0022906D02*
X0081237Y0022906D01*
X0081237Y0023105D02*
X0065023Y0023105D01*
X0065023Y0023303D02*
X0081237Y0023303D01*
X0081237Y0023502D02*
X0065023Y0023502D01*
X0065023Y0023700D02*
X0081237Y0023700D01*
X0081237Y0023899D02*
X0065023Y0023899D01*
X0065023Y0024097D02*
X0081237Y0024097D01*
X0081237Y0024296D02*
X0065023Y0024296D01*
X0065023Y0024494D02*
X0081237Y0024494D01*
X0077585Y0024693D02*
X0065023Y0024693D01*
X0065023Y0024891D02*
X0077387Y0024891D01*
X0077188Y0025090D02*
X0065023Y0025090D01*
X0065023Y0025288D02*
X0077178Y0025288D01*
X0077178Y0025487D02*
X0069868Y0025487D01*
X0069868Y0025348D02*
X0069868Y0028439D01*
X0067899Y0028439D01*
X0067899Y0025290D01*
X0069809Y0025290D01*
X0069868Y0025348D01*
X0069868Y0025685D02*
X0077178Y0025685D01*
X0077178Y0025884D02*
X0069868Y0025884D01*
X0069868Y0026082D02*
X0077178Y0026082D01*
X0077178Y0026281D02*
X0069868Y0026281D01*
X0069868Y0026479D02*
X0077178Y0026479D01*
X0077178Y0026678D02*
X0069868Y0026678D01*
X0069868Y0026876D02*
X0077178Y0026876D01*
X0077178Y0027075D02*
X0069868Y0027075D01*
X0069868Y0027273D02*
X0077178Y0027273D01*
X0077178Y0027472D02*
X0069868Y0027472D01*
X0069868Y0027670D02*
X0077178Y0027670D01*
X0077178Y0027869D02*
X0069868Y0027869D01*
X0069868Y0028067D02*
X0077178Y0028067D01*
X0077178Y0028266D02*
X0069868Y0028266D01*
X0069868Y0028639D02*
X0069868Y0031730D01*
X0069809Y0031789D01*
X0067899Y0031789D01*
X0067899Y0028639D01*
X0069868Y0028639D01*
X0069868Y0028663D02*
X0077178Y0028663D01*
X0077178Y0028861D02*
X0069868Y0028861D01*
X0069868Y0029060D02*
X0077178Y0029060D01*
X0077178Y0029258D02*
X0069868Y0029258D01*
X0069868Y0029457D02*
X0077178Y0029457D01*
X0077178Y0029655D02*
X0069868Y0029655D01*
X0069868Y0029854D02*
X0077178Y0029854D01*
X0077178Y0030052D02*
X0069868Y0030052D01*
X0069868Y0030251D02*
X0077178Y0030251D01*
X0077178Y0030449D02*
X0069868Y0030449D01*
X0069868Y0030648D02*
X0077178Y0030648D01*
X0077178Y0030846D02*
X0069868Y0030846D01*
X0069868Y0031045D02*
X0077178Y0031045D01*
X0077178Y0031243D02*
X0069868Y0031243D01*
X0069868Y0031442D02*
X0077178Y0031442D01*
X0077178Y0031641D02*
X0069868Y0031641D01*
X0067899Y0031641D02*
X0067699Y0031641D01*
X0067699Y0031789D02*
X0065789Y0031789D01*
X0065731Y0031730D01*
X0065731Y0028639D01*
X0067699Y0028639D01*
X0067699Y0028439D01*
X0067899Y0028439D01*
X0067899Y0028639D01*
X0067699Y0028639D01*
X0067699Y0031789D01*
X0067699Y0031442D02*
X0067899Y0031442D01*
X0067899Y0031243D02*
X0067699Y0031243D01*
X0067699Y0031045D02*
X0067899Y0031045D01*
X0067899Y0030846D02*
X0067699Y0030846D01*
X0067699Y0030648D02*
X0067899Y0030648D01*
X0067899Y0030449D02*
X0067699Y0030449D01*
X0067699Y0030251D02*
X0067899Y0030251D01*
X0067899Y0030052D02*
X0067699Y0030052D01*
X0067699Y0029854D02*
X0067899Y0029854D01*
X0067899Y0029655D02*
X0067699Y0029655D01*
X0067699Y0029457D02*
X0067899Y0029457D01*
X0067899Y0029258D02*
X0067699Y0029258D01*
X0067699Y0029060D02*
X0067899Y0029060D01*
X0067899Y0028861D02*
X0067699Y0028861D01*
X0067699Y0028663D02*
X0067899Y0028663D01*
X0067899Y0028464D02*
X0077178Y0028464D01*
X0077178Y0031839D02*
X0065023Y0031839D01*
X0065023Y0031641D02*
X0065731Y0031641D01*
X0065731Y0031442D02*
X0065023Y0031442D01*
X0065023Y0031243D02*
X0065731Y0031243D01*
X0065731Y0031045D02*
X0065023Y0031045D01*
X0065023Y0030846D02*
X0065731Y0030846D01*
X0065731Y0030648D02*
X0065023Y0030648D01*
X0065023Y0030449D02*
X0065731Y0030449D01*
X0065731Y0030251D02*
X0065023Y0030251D01*
X0065023Y0030052D02*
X0065731Y0030052D01*
X0065731Y0029854D02*
X0065023Y0029854D01*
X0065023Y0029655D02*
X0065731Y0029655D01*
X0065731Y0029457D02*
X0065023Y0029457D01*
X0065023Y0029258D02*
X0065731Y0029258D01*
X0065731Y0029060D02*
X0065023Y0029060D01*
X0065023Y0028861D02*
X0065731Y0028861D01*
X0065731Y0028663D02*
X0065023Y0028663D01*
X0065023Y0028464D02*
X0067699Y0028464D01*
X0067699Y0028439D02*
X0065731Y0028439D01*
X0065731Y0025348D01*
X0065789Y0025290D01*
X0067699Y0025290D01*
X0067699Y0028439D01*
X0067699Y0028266D02*
X0067899Y0028266D01*
X0067899Y0028067D02*
X0067699Y0028067D01*
X0067699Y0027869D02*
X0067899Y0027869D01*
X0067899Y0027670D02*
X0067699Y0027670D01*
X0067699Y0027472D02*
X0067899Y0027472D01*
X0067899Y0027273D02*
X0067699Y0027273D01*
X0067699Y0027075D02*
X0067899Y0027075D01*
X0067899Y0026876D02*
X0067699Y0026876D01*
X0067699Y0026678D02*
X0067899Y0026678D01*
X0067899Y0026479D02*
X0067699Y0026479D01*
X0067699Y0026281D02*
X0067899Y0026281D01*
X0067899Y0026082D02*
X0067699Y0026082D01*
X0067699Y0025884D02*
X0067899Y0025884D01*
X0067899Y0025685D02*
X0067699Y0025685D01*
X0067699Y0025487D02*
X0067899Y0025487D01*
X0065731Y0025487D02*
X0065023Y0025487D01*
X0065023Y0025685D02*
X0065731Y0025685D01*
X0065731Y0025884D02*
X0065023Y0025884D01*
X0065023Y0026082D02*
X0065731Y0026082D01*
X0065731Y0026281D02*
X0065023Y0026281D01*
X0065023Y0026479D02*
X0065731Y0026479D01*
X0065731Y0026678D02*
X0065023Y0026678D01*
X0065023Y0026876D02*
X0065731Y0026876D01*
X0065731Y0027075D02*
X0065023Y0027075D01*
X0065023Y0027273D02*
X0065731Y0027273D01*
X0065731Y0027472D02*
X0065023Y0027472D01*
X0065023Y0027670D02*
X0065731Y0027670D01*
X0065731Y0027869D02*
X0065023Y0027869D01*
X0065023Y0028067D02*
X0065731Y0028067D01*
X0065731Y0028266D02*
X0065023Y0028266D01*
X0065023Y0032038D02*
X0077237Y0032038D01*
X0077435Y0032236D02*
X0065023Y0032236D01*
X0065023Y0032435D02*
X0081323Y0032435D01*
X0081323Y0032633D02*
X0065023Y0032633D01*
X0065023Y0032832D02*
X0081323Y0032832D01*
X0081323Y0033030D02*
X0065023Y0033030D01*
X0065023Y0033229D02*
X0081323Y0033229D01*
X0081323Y0033427D02*
X0065023Y0033427D01*
X0065023Y0033626D02*
X0081323Y0033626D01*
X0081323Y0033824D02*
X0065023Y0033824D01*
X0065023Y0034023D02*
X0081323Y0034023D01*
X0081323Y0034221D02*
X0065023Y0034221D01*
X0065023Y0034420D02*
X0081323Y0034420D01*
X0081323Y0034618D02*
X0065023Y0034618D01*
X0065023Y0034817D02*
X0081323Y0034817D01*
X0081323Y0035015D02*
X0065023Y0035015D01*
X0065023Y0035214D02*
X0081323Y0035214D01*
X0081323Y0035412D02*
X0065023Y0035412D01*
X0065023Y0035611D02*
X0081323Y0035611D01*
X0081323Y0035809D02*
X0065023Y0035809D01*
X0065023Y0036008D02*
X0081323Y0036008D01*
X0081323Y0036206D02*
X0065023Y0036206D01*
X0065023Y0036405D02*
X0081323Y0036405D01*
X0081323Y0036603D02*
X0065023Y0036603D01*
X0065023Y0036802D02*
X0081323Y0036802D01*
X0081323Y0037000D02*
X0065023Y0037000D01*
X0065023Y0037199D02*
X0081323Y0037199D01*
X0081323Y0037397D02*
X0065023Y0037397D01*
X0065023Y0037596D02*
X0081323Y0037596D01*
X0081323Y0037794D02*
X0065023Y0037794D01*
X0065023Y0037993D02*
X0081323Y0037993D01*
X0081323Y0038191D02*
X0065023Y0038191D01*
X0065023Y0038390D02*
X0081323Y0038390D01*
X0081323Y0038588D02*
X0065023Y0038588D01*
X0065023Y0038787D02*
X0081323Y0038787D01*
X0081323Y0038985D02*
X0065023Y0038985D01*
X0065023Y0039184D02*
X0081323Y0039184D01*
X0081323Y0039382D02*
X0065023Y0039382D01*
D29*
X0073547Y0053328D02*
X0073547Y0058014D01*
X0076843Y0061310D01*
X0076843Y0070043D01*
X0077634Y0070834D01*
X0086367Y0070834D01*
X0088114Y0072581D01*
X0055831Y0072581D02*
X0054084Y0070834D01*
X0047634Y0070834D01*
X0046843Y0070043D01*
X0046843Y0063578D01*
X0043232Y0059967D01*
X0043232Y0053328D01*
M02*
