G75*
%MOIN*%
%OFA0B0*%
%FSLAX25Y25*%
%IPPOS*%
%LPD*%
%AMOC8*
5,1,8,0,0,1.08239X$1,22.5*
%
%ADD10C,0.12000*%
%ADD11C,0.10850*%
%ADD12R,0.10800X0.20800*%
%ADD13R,0.04737X0.05131*%
%ADD14R,0.22060X0.25209*%
%ADD15R,0.04737X0.07099*%
%ADD16C,0.12650*%
%ADD17OC8,0.08400*%
%ADD18C,0.04000*%
%ADD19R,0.20800X0.20800*%
%ADD20R,0.05524X0.05524*%
D10*
X0031815Y0107406D02*
X0088902Y0107406D01*
X0138902Y0057406D01*
X0138902Y0027484D01*
D11*
X0187114Y0199912D02*
X0187114Y0209962D01*
X0202114Y0209962D02*
X0202114Y0199912D01*
D12*
X0028823Y0023937D03*
X0058823Y0023937D03*
X0088823Y0023937D03*
D13*
X0088323Y0125091D03*
X0088323Y0131783D03*
X0058823Y0131783D03*
X0058823Y0125091D03*
X0028823Y0125091D03*
X0028823Y0131783D03*
D14*
X0028823Y0107280D03*
X0058823Y0107280D03*
X0088823Y0107280D03*
X0088823Y0057280D03*
X0058823Y0057280D03*
X0028823Y0057280D03*
D15*
X0037799Y0078539D03*
X0049846Y0078539D03*
X0067799Y0078539D03*
X0079846Y0078539D03*
X0097799Y0078539D03*
X0097799Y0028539D03*
X0079846Y0028539D03*
X0067799Y0028539D03*
X0049846Y0028539D03*
X0037799Y0028539D03*
X0019846Y0028539D03*
X0019846Y0078539D03*
D16*
X0123823Y0033362D02*
X0123823Y0021512D01*
X0138823Y0021512D02*
X0138823Y0033362D01*
D17*
X0165244Y0029650D03*
X0165244Y0039650D03*
X0165244Y0049650D03*
X0165244Y0059650D03*
X0165244Y0069650D03*
X0165244Y0079650D03*
X0165244Y0089650D03*
X0165244Y0099650D03*
X0165244Y0109650D03*
X0165244Y0119650D03*
X0165244Y0129650D03*
X0165244Y0139650D03*
X0165244Y0149650D03*
X0165244Y0159650D03*
X0165244Y0169650D03*
X0165244Y0179650D03*
X0165244Y0189650D03*
X0165244Y0199650D03*
X0165244Y0209650D03*
X0225244Y0209650D03*
X0225244Y0199650D03*
X0225244Y0189650D03*
X0225244Y0179650D03*
X0225244Y0169650D03*
X0225244Y0159650D03*
X0225244Y0149650D03*
X0225244Y0139650D03*
X0225244Y0129650D03*
X0225244Y0119650D03*
X0225244Y0109650D03*
X0225244Y0099650D03*
X0225244Y0089650D03*
X0225244Y0079650D03*
X0225244Y0069650D03*
X0225244Y0059650D03*
X0225244Y0049650D03*
X0225244Y0039650D03*
X0225244Y0029650D03*
X0225244Y0019650D03*
X0190244Y0059650D03*
X0180244Y0059650D03*
X0180244Y0069650D03*
X0180244Y0079650D03*
X0190244Y0079650D03*
X0190244Y0069650D03*
X0165244Y0019650D03*
D18*
X0134020Y0095358D03*
X0134020Y0099295D03*
X0134020Y0103232D03*
X0134020Y0107169D03*
X0134020Y0111106D03*
X0130083Y0111106D03*
X0130083Y0107169D03*
X0130083Y0103232D03*
X0130083Y0099295D03*
X0130083Y0095358D03*
X0126146Y0095358D03*
X0122209Y0095358D03*
X0122209Y0099295D03*
X0126146Y0099295D03*
X0126146Y0103232D03*
X0126146Y0107169D03*
X0122209Y0107169D03*
X0122209Y0103232D03*
X0118272Y0103232D03*
X0118272Y0107169D03*
X0118272Y0111106D03*
X0122209Y0111106D03*
X0126146Y0111106D03*
X0118272Y0099295D03*
X0118272Y0095358D03*
D19*
X0126146Y0103232D03*
D20*
X0136736Y0173941D03*
X0145004Y0173941D03*
X0145004Y0184177D03*
X0136736Y0184177D03*
M02*
