G75*
%MOIN*%
%OFA0B0*%
%FSLAX25Y25*%
%IPPOS*%
%LPD*%
%AMOC8*
5,1,8,0,0,1.08239X$1,22.5*
%
%ADD10C,0.10050*%
%ADD11R,0.03937X0.04331*%
%ADD12R,0.12598X0.07087*%
%ADD13R,0.04331X0.03937*%
%ADD14C,0.11850*%
%ADD15OC8,0.07600*%
%ADD16R,0.05512X0.01181*%
%ADD17R,0.01181X0.05512*%
%ADD18R,0.19685X0.19685*%
%ADD19C,0.03200*%
%ADD20C,0.12000*%
%ADD21C,0.08000*%
%ADD22C,0.00600*%
%ADD23C,0.02978*%
%ADD24C,0.01600*%
%ADD25C,0.00200*%
%ADD26C,0.01181*%
%ADD27C,0.01000*%
%ADD28C,0.02000*%
%ADD29C,0.00100*%
D10*
X0187114Y0199912D02*
X0187114Y0209962D01*
X0202114Y0209962D02*
X0202114Y0199912D01*
D11*
X0147598Y0160508D03*
X0147598Y0153815D03*
X0139598Y0153815D03*
X0139598Y0160508D03*
X0131598Y0160508D03*
X0131598Y0153815D03*
X0123496Y0153815D03*
X0123496Y0160508D03*
X0115598Y0160508D03*
X0115598Y0153815D03*
X0099598Y0153815D03*
X0099598Y0160508D03*
X0089130Y0084787D03*
X0089130Y0078094D03*
X0072130Y0078094D03*
X0072130Y0084787D03*
X0065130Y0084787D03*
X0065130Y0078094D03*
X0058823Y0050783D03*
X0058823Y0044091D03*
X0088823Y0044591D03*
X0088823Y0051283D03*
X0028823Y0050783D03*
X0028823Y0044091D03*
D12*
X0043323Y0036913D03*
X0043323Y0058961D03*
X0073323Y0058961D03*
X0073323Y0036913D03*
X0103323Y0036913D03*
X0103323Y0058961D03*
D13*
X0080630Y0078094D03*
X0080630Y0084787D03*
X0107709Y0153815D03*
X0107709Y0160508D03*
D14*
X0123823Y0033362D02*
X0123823Y0021512D01*
X0138823Y0021512D02*
X0138823Y0033362D01*
D15*
X0165244Y0029650D03*
X0165244Y0039650D03*
X0165244Y0049650D03*
X0165244Y0059650D03*
X0165244Y0069650D03*
X0165244Y0079650D03*
X0165244Y0089650D03*
X0165244Y0099650D03*
X0165244Y0109650D03*
X0165244Y0119650D03*
X0165244Y0129650D03*
X0165244Y0139650D03*
X0165244Y0149650D03*
X0165244Y0159650D03*
X0165244Y0169650D03*
X0165244Y0179650D03*
X0165244Y0189650D03*
X0165244Y0199650D03*
X0165244Y0209650D03*
X0225244Y0209650D03*
X0225244Y0199650D03*
X0225244Y0189650D03*
X0225244Y0179650D03*
X0225244Y0169650D03*
X0225244Y0159650D03*
X0225244Y0149650D03*
X0225244Y0139650D03*
X0225244Y0129650D03*
X0225244Y0119650D03*
X0225244Y0109650D03*
X0225244Y0099650D03*
X0225244Y0089650D03*
X0225244Y0079650D03*
X0225244Y0069650D03*
X0225244Y0059650D03*
X0225244Y0049650D03*
X0225244Y0039650D03*
X0225244Y0029650D03*
X0225244Y0019650D03*
X0190244Y0059650D03*
X0180244Y0059650D03*
X0180244Y0069650D03*
X0180244Y0079650D03*
X0190244Y0079650D03*
X0190244Y0069650D03*
X0165244Y0019650D03*
D16*
X0143075Y0092406D03*
X0143075Y0094374D03*
X0143075Y0096343D03*
X0143075Y0098311D03*
X0143075Y0100280D03*
X0143075Y0102248D03*
X0143075Y0104217D03*
X0143075Y0106185D03*
X0143075Y0108154D03*
X0143075Y0110122D03*
X0143075Y0112091D03*
X0143075Y0114059D03*
X0109217Y0114059D03*
X0109217Y0112091D03*
X0109217Y0110122D03*
X0109217Y0108154D03*
X0109217Y0106185D03*
X0109217Y0104217D03*
X0109217Y0102248D03*
X0109217Y0100280D03*
X0109217Y0098311D03*
X0109217Y0096343D03*
X0109217Y0094374D03*
X0109217Y0092406D03*
D17*
X0115319Y0086303D03*
X0117287Y0086303D03*
X0119256Y0086303D03*
X0121224Y0086303D03*
X0123193Y0086303D03*
X0125161Y0086303D03*
X0127130Y0086303D03*
X0129098Y0086303D03*
X0131067Y0086303D03*
X0133035Y0086303D03*
X0135004Y0086303D03*
X0136972Y0086303D03*
X0136972Y0120161D03*
X0135004Y0120161D03*
X0133035Y0120161D03*
X0131067Y0120161D03*
X0129098Y0120161D03*
X0127130Y0120161D03*
X0125161Y0120161D03*
X0123193Y0120161D03*
X0121224Y0120161D03*
X0119256Y0120161D03*
X0117287Y0120161D03*
X0115319Y0120161D03*
D18*
X0126146Y0103232D03*
D19*
X0126146Y0103232D03*
X0126146Y0107169D03*
X0122209Y0107169D03*
X0122209Y0103232D03*
X0122209Y0099295D03*
X0126146Y0099295D03*
X0130083Y0099295D03*
X0134020Y0099295D03*
X0134020Y0095358D03*
X0130083Y0095358D03*
X0126146Y0095358D03*
X0122209Y0095358D03*
X0118272Y0095358D03*
X0118272Y0099295D03*
X0118272Y0103232D03*
X0118272Y0107169D03*
X0118272Y0111106D03*
X0122209Y0111106D03*
X0126146Y0111106D03*
X0130083Y0111106D03*
X0134020Y0111106D03*
X0134020Y0107169D03*
X0134020Y0103232D03*
X0130083Y0103232D03*
X0130083Y0107169D03*
D20*
X0123823Y0065437D02*
X0103823Y0065437D01*
X0089223Y0065437D01*
X0073823Y0065437D01*
X0072037Y0065437D01*
X0059223Y0065437D01*
X0043623Y0065437D01*
X0038823Y0065437D01*
X0123823Y0065437D02*
X0123823Y0040237D01*
X0123823Y0027437D01*
D21*
X0103323Y0058961D02*
X0103323Y0064937D01*
X0103823Y0065437D01*
X0073823Y0065437D02*
X0073323Y0064937D01*
X0073323Y0058961D01*
X0043823Y0065437D02*
X0043723Y0065337D01*
X0043323Y0064937D01*
X0043323Y0058961D01*
D22*
X0043723Y0065337D02*
X0043623Y0065437D01*
X0038823Y0065437D02*
X0037623Y0070837D01*
X0038823Y0065437D02*
X0035223Y0060637D01*
X0029223Y0054637D01*
X0029223Y0051037D01*
X0028823Y0050783D01*
X0025837Y0048037D02*
X0028837Y0045037D01*
X0028823Y0044091D01*
X0029437Y0043837D01*
X0034837Y0038437D01*
X0034837Y0033637D01*
X0034823Y0033437D01*
X0038902Y0032492D02*
X0043323Y0036913D01*
X0038902Y0032492D02*
X0038902Y0023154D01*
X0031237Y0036037D02*
X0024637Y0042637D01*
X0024637Y0063037D01*
X0043237Y0081637D01*
X0043237Y0094237D01*
X0048037Y0094237D02*
X0048037Y0121837D01*
X0040837Y0129037D01*
X0040837Y0144037D01*
X0042037Y0145237D01*
X0042037Y0148837D02*
X0045637Y0145237D01*
X0045637Y0135037D01*
X0048037Y0132637D01*
X0048037Y0127237D01*
X0067237Y0108037D01*
X0108637Y0108037D01*
X0109217Y0108154D01*
X0108637Y0109837D02*
X0109217Y0110122D01*
X0108637Y0109837D02*
X0069037Y0109837D01*
X0054637Y0124237D01*
X0055237Y0127237D02*
X0052237Y0127237D01*
X0055237Y0127237D02*
X0067837Y0114637D01*
X0108637Y0114637D01*
X0109217Y0114059D01*
X0108637Y0112237D02*
X0109217Y0112091D01*
X0108637Y0112237D02*
X0103837Y0112237D01*
X0102037Y0117037D02*
X0096637Y0117037D01*
X0073237Y0140437D01*
X0076837Y0140437D02*
X0076837Y0139237D01*
X0094237Y0121837D01*
X0106237Y0121837D01*
X0113437Y0114637D01*
X0113437Y0093637D01*
X0112237Y0092437D01*
X0109237Y0092437D01*
X0109217Y0092406D01*
X0108637Y0094237D02*
X0106237Y0094237D01*
X0102037Y0090037D01*
X0102037Y0082237D01*
X0100837Y0079837D02*
X0105037Y0079837D01*
X0111037Y0085837D01*
X0115237Y0085837D01*
X0115319Y0086303D01*
X0115237Y0086437D01*
X0115237Y0089437D01*
X0115837Y0090037D01*
X0120037Y0090037D01*
X0122946Y0090037D01*
X0123037Y0090037D01*
X0122946Y0090037D02*
X0122946Y0086632D01*
X0123193Y0086303D01*
X0119437Y0086437D02*
X0119256Y0086303D01*
X0119437Y0086437D02*
X0119437Y0089437D01*
X0120037Y0090037D01*
X0122946Y0090037D02*
X0122946Y0094432D01*
X0122346Y0095032D01*
X0126146Y0103232D01*
X0130237Y0111037D01*
X0130083Y0111106D01*
X0130237Y0111637D02*
X0126146Y0103232D01*
X0124837Y0099637D01*
X0126037Y0099637D01*
X0126146Y0099295D01*
X0127746Y0101632D02*
X0126146Y0103232D01*
X0120637Y0097237D01*
X0118837Y0099037D01*
X0118272Y0099295D01*
X0118746Y0095632D02*
X0126146Y0103232D01*
X0122437Y0095437D01*
X0122209Y0095358D01*
X0122946Y0095632D02*
X0126146Y0103232D01*
X0122437Y0106837D01*
X0122209Y0107169D01*
X0121746Y0103432D02*
X0122209Y0103232D01*
X0121746Y0103432D02*
X0118746Y0103432D01*
X0118272Y0103232D01*
X0118272Y0107169D02*
X0118146Y0107632D01*
X0118146Y0110632D01*
X0126146Y0103232D01*
X0127746Y0107032D01*
X0126546Y0107032D01*
X0126146Y0107169D01*
X0125946Y0103432D02*
X0126146Y0103232D01*
X0130146Y0107032D01*
X0130083Y0107169D01*
X0130083Y0103232D02*
X0129546Y0102832D01*
X0128346Y0101632D01*
X0127746Y0101632D01*
X0131946Y0097432D01*
X0130146Y0095632D01*
X0130083Y0095358D01*
X0131946Y0097432D02*
X0133746Y0099232D01*
X0134020Y0099295D01*
X0131946Y0097432D02*
X0134020Y0095358D01*
X0138037Y0094237D02*
X0138037Y0115837D01*
X0140437Y0118237D01*
X0163837Y0118237D01*
X0165037Y0119437D01*
X0165244Y0119650D01*
X0157837Y0117037D02*
X0165037Y0109837D01*
X0165244Y0109650D01*
X0160837Y0105637D02*
X0154837Y0105637D01*
X0152437Y0108037D01*
X0143437Y0108037D01*
X0143075Y0108154D01*
X0143437Y0109837D02*
X0143075Y0110122D01*
X0143437Y0109837D02*
X0154237Y0109837D01*
X0159037Y0112237D02*
X0143437Y0112237D01*
X0143075Y0112091D01*
X0143075Y0114059D02*
X0143437Y0114637D01*
X0150037Y0114637D01*
X0145237Y0120637D02*
X0156037Y0120637D01*
X0165037Y0129637D01*
X0165244Y0129650D01*
X0165637Y0139237D02*
X0165244Y0139650D01*
X0165637Y0139237D02*
X0177637Y0127237D01*
X0177637Y0085237D01*
X0166837Y0074437D01*
X0134437Y0074437D01*
X0127237Y0081637D01*
X0127237Y0085837D01*
X0127130Y0086303D01*
X0129037Y0086437D02*
X0129098Y0086303D01*
X0129037Y0086437D02*
X0129037Y0089437D01*
X0130837Y0091237D01*
X0139237Y0091237D01*
X0141037Y0089437D01*
X0154837Y0089437D01*
X0156037Y0091837D02*
X0163237Y0084637D01*
X0167437Y0084637D01*
X0176437Y0093637D01*
X0176437Y0104437D01*
X0175237Y0105637D01*
X0171037Y0105637D01*
X0165637Y0100237D01*
X0165244Y0099650D01*
X0162037Y0103237D02*
X0163237Y0104437D01*
X0167437Y0104437D01*
X0175237Y0112237D01*
X0174037Y0103237D02*
X0174037Y0101437D01*
X0167437Y0094837D01*
X0163237Y0094837D01*
X0156037Y0102037D01*
X0143437Y0102037D01*
X0143075Y0102248D01*
X0143437Y0103837D02*
X0143075Y0104217D01*
X0143437Y0103837D02*
X0147637Y0103837D01*
X0148237Y0103237D01*
X0162037Y0103237D01*
X0151837Y0099637D02*
X0151237Y0100237D01*
X0143437Y0100237D01*
X0143075Y0100280D01*
X0143075Y0098311D02*
X0143437Y0097837D01*
X0148237Y0097837D01*
X0146437Y0096037D02*
X0150637Y0091837D01*
X0156037Y0091837D01*
X0146437Y0096037D02*
X0143437Y0096037D01*
X0143075Y0096343D01*
X0142837Y0094837D02*
X0139837Y0094837D01*
X0139237Y0095437D01*
X0139237Y0115237D01*
X0141037Y0117037D01*
X0157837Y0117037D01*
X0148837Y0106237D02*
X0149437Y0105637D01*
X0148837Y0106237D02*
X0143437Y0106237D01*
X0143075Y0106185D01*
X0142837Y0094837D02*
X0143075Y0094374D01*
X0142837Y0092437D02*
X0139837Y0092437D01*
X0138037Y0094237D01*
X0138637Y0090037D02*
X0132037Y0090037D01*
X0131437Y0089437D01*
X0131437Y0086437D01*
X0131067Y0086303D01*
X0132637Y0085837D02*
X0133035Y0086303D01*
X0132637Y0085837D02*
X0132637Y0082237D01*
X0131437Y0081037D01*
X0135037Y0081037D02*
X0135037Y0085837D01*
X0135004Y0086303D01*
X0136972Y0086303D02*
X0137437Y0085837D01*
X0138637Y0084637D01*
X0138637Y0077437D01*
X0148837Y0079837D02*
X0165037Y0079837D01*
X0165244Y0079650D01*
X0148837Y0079837D02*
X0138637Y0090037D01*
X0142837Y0092437D02*
X0143075Y0092406D01*
X0126146Y0095358D02*
X0125946Y0095632D01*
X0122946Y0095632D01*
X0122346Y0099232D02*
X0126146Y0103232D01*
X0122346Y0099232D02*
X0122209Y0099295D01*
X0118746Y0095632D02*
X0118272Y0095358D01*
X0114637Y0091837D02*
X0112237Y0089437D01*
X0114637Y0091837D02*
X0114637Y0112837D01*
X0115837Y0114037D01*
X0120037Y0114037D01*
X0123037Y0117037D01*
X0123037Y0120037D01*
X0123193Y0120161D01*
X0124837Y0120637D02*
X0125161Y0120161D01*
X0124837Y0120637D02*
X0124837Y0123637D01*
X0124237Y0124237D01*
X0124237Y0128437D01*
X0127237Y0129037D02*
X0127237Y0120637D01*
X0127130Y0120161D01*
X0130837Y0120037D02*
X0131067Y0120161D01*
X0130837Y0120637D01*
X0130837Y0135037D01*
X0133237Y0136237D02*
X0133237Y0120637D01*
X0133035Y0120161D01*
X0130837Y0120037D02*
X0130837Y0112237D01*
X0130237Y0111637D01*
X0136746Y0120232D02*
X0137194Y0120161D01*
X0136972Y0120161D02*
X0137437Y0120637D01*
X0137437Y0129037D01*
X0161437Y0153037D01*
X0150637Y0163837D01*
X0147637Y0163837D01*
X0133837Y0177637D01*
X0106837Y0177637D01*
X0063637Y0134437D01*
X0049837Y0134437D01*
X0045637Y0130237D02*
X0045637Y0127837D01*
X0064237Y0109237D01*
X0064237Y0085237D01*
X0065130Y0084787D01*
X0062437Y0081637D02*
X0049237Y0094837D01*
X0049237Y0122437D01*
X0043237Y0128437D01*
X0043237Y0135037D01*
X0042037Y0148837D02*
X0039637Y0148837D01*
X0021637Y0130837D01*
X0021637Y0034237D01*
X0025837Y0048037D02*
X0025837Y0062437D01*
X0045637Y0082237D01*
X0045637Y0115837D01*
X0042037Y0117037D02*
X0042037Y0100237D01*
X0024037Y0082237D01*
X0046237Y0073837D02*
X0050437Y0078037D01*
X0054037Y0078037D01*
X0062437Y0081637D02*
X0074437Y0081637D01*
X0077437Y0078637D01*
X0080437Y0078637D01*
X0080630Y0078094D01*
X0084037Y0083437D02*
X0084037Y0087637D01*
X0082237Y0089437D01*
X0078637Y0089437D02*
X0091237Y0102037D01*
X0108637Y0102037D01*
X0109217Y0102248D01*
X0109217Y0100280D02*
X0108637Y0100237D01*
X0093037Y0100237D01*
X0085237Y0092437D01*
X0091237Y0089437D02*
X0099637Y0097837D01*
X0108637Y0097837D01*
X0109217Y0098311D01*
X0109217Y0096343D02*
X0108637Y0096037D01*
X0106237Y0096037D01*
X0097237Y0087037D01*
X0096037Y0084637D02*
X0100837Y0079837D01*
X0096037Y0084637D02*
X0089437Y0084637D01*
X0089130Y0084787D01*
X0089330Y0085341D01*
X0084037Y0083437D02*
X0088837Y0078637D01*
X0089130Y0078094D01*
X0089223Y0065437D02*
X0089223Y0051637D01*
X0088823Y0051283D01*
X0088823Y0044591D02*
X0088837Y0043837D01*
X0088837Y0040237D01*
X0094837Y0034237D01*
X0094837Y0033937D01*
X0084177Y0011437D02*
X0080146Y0011437D01*
X0068429Y0023154D01*
X0064837Y0033937D02*
X0064837Y0034237D01*
X0059437Y0039637D01*
X0059437Y0043837D01*
X0058823Y0044091D01*
X0058823Y0050783D02*
X0059223Y0051037D01*
X0059223Y0065437D01*
X0072037Y0065437D02*
X0072037Y0078037D01*
X0072130Y0078094D01*
X0065130Y0078094D02*
X0064837Y0078637D01*
X0063637Y0078637D01*
X0048037Y0094237D01*
X0068437Y0089437D02*
X0073237Y0094237D01*
X0073237Y0097837D02*
X0082237Y0106837D01*
X0104437Y0106837D01*
X0105037Y0106237D01*
X0108637Y0106237D01*
X0109217Y0106185D01*
X0108637Y0104437D02*
X0109217Y0104217D01*
X0108637Y0104437D02*
X0103237Y0104437D01*
X0108637Y0094237D02*
X0109217Y0094374D01*
X0118146Y0110632D02*
X0118272Y0111106D01*
X0119256Y0120161D02*
X0119437Y0120637D01*
X0119437Y0126637D01*
X0121237Y0128437D01*
X0121237Y0130837D01*
X0117637Y0130837D02*
X0117637Y0120637D01*
X0117287Y0120161D01*
X0115319Y0120161D02*
X0115237Y0120637D01*
X0115237Y0123637D01*
X0112237Y0126637D01*
X0109237Y0124237D02*
X0100837Y0124237D01*
X0100837Y0138037D02*
X0083437Y0138037D01*
X0082237Y0139237D01*
X0082237Y0150637D01*
X0107437Y0175837D01*
X0132637Y0175837D01*
X0144037Y0164437D01*
X0144037Y0158437D01*
X0147037Y0155437D01*
X0147037Y0154237D01*
X0147598Y0153815D01*
X0145237Y0150637D02*
X0150037Y0150637D01*
X0150637Y0151237D01*
X0150637Y0157237D01*
X0147637Y0160237D01*
X0147598Y0160508D01*
X0142837Y0163237D02*
X0142837Y0153037D01*
X0142237Y0153637D01*
X0139837Y0153637D01*
X0139598Y0153815D01*
X0142837Y0153037D02*
X0145237Y0150637D01*
X0139598Y0160508D02*
X0139237Y0160837D01*
X0132037Y0160837D01*
X0131598Y0160508D01*
X0131437Y0160237D01*
X0129037Y0160237D01*
X0126037Y0157237D01*
X0111037Y0157237D01*
X0108037Y0160237D01*
X0107709Y0160508D01*
X0106237Y0165037D02*
X0118237Y0165037D01*
X0120637Y0167437D02*
X0121837Y0166237D01*
X0123037Y0167437D01*
X0131437Y0167437D01*
X0131437Y0173437D01*
X0131437Y0167437D02*
X0138637Y0167437D01*
X0142837Y0163237D01*
X0135637Y0157237D02*
X0135037Y0157237D01*
X0132037Y0154237D01*
X0131598Y0153815D01*
X0126637Y0146437D02*
X0123637Y0149437D01*
X0123637Y0153637D01*
X0123496Y0153815D01*
X0123496Y0160508D02*
X0123637Y0160837D01*
X0123637Y0164437D01*
X0124237Y0165037D01*
X0121837Y0165037D02*
X0121837Y0166237D01*
X0121837Y0165037D02*
X0117637Y0160837D01*
X0115837Y0160837D01*
X0115598Y0160508D01*
X0115598Y0153815D02*
X0115837Y0153637D01*
X0133237Y0136237D01*
X0127237Y0129037D02*
X0118237Y0138037D01*
X0121837Y0125437D02*
X0121837Y0123637D01*
X0121237Y0123037D01*
X0121237Y0120637D01*
X0121224Y0120161D01*
X0136746Y0120232D02*
X0136972Y0120161D01*
X0147637Y0129037D02*
X0163237Y0144637D01*
X0220237Y0144637D01*
X0225037Y0149437D01*
X0225244Y0149650D01*
X0186637Y0174037D02*
X0186637Y0204637D01*
X0187114Y0204937D01*
X0186637Y0174037D02*
X0167437Y0154837D01*
X0163237Y0154837D01*
X0161437Y0153037D01*
X0120637Y0167437D02*
X0100837Y0167437D01*
X0084637Y0151237D01*
X0084637Y0140437D01*
X0099637Y0145237D02*
X0099637Y0153637D01*
X0099598Y0153815D01*
X0099598Y0160508D02*
X0099637Y0160837D01*
X0102037Y0160837D01*
X0106237Y0165037D01*
X0123823Y0040237D02*
X0154837Y0040237D01*
X0165037Y0030037D01*
X0165244Y0029650D01*
D23*
X0115673Y0056618D03*
X0111137Y0073526D03*
X0105437Y0073526D03*
X0102037Y0082237D03*
X0097237Y0087037D03*
X0091237Y0089437D03*
X0085237Y0092437D03*
X0082237Y0089437D03*
X0078637Y0089437D03*
X0073237Y0094237D03*
X0073237Y0097837D03*
X0068437Y0089437D03*
X0054037Y0078037D03*
X0046237Y0073837D03*
X0043237Y0094237D03*
X0024037Y0082237D03*
X0043232Y0052681D03*
X0031237Y0036037D03*
X0021637Y0034237D03*
X0038902Y0023154D03*
X0042839Y0023154D03*
X0046776Y0023154D03*
X0046776Y0019217D03*
X0042839Y0019217D03*
X0038902Y0019217D03*
X0038902Y0015280D03*
X0042839Y0015280D03*
X0046776Y0015280D03*
X0068429Y0015280D03*
X0072366Y0015280D03*
X0072366Y0019217D03*
X0068429Y0019217D03*
X0068429Y0023154D03*
X0072366Y0023154D03*
X0076303Y0023154D03*
X0076303Y0019217D03*
X0076303Y0015280D03*
X0084177Y0011437D03*
X0097957Y0015280D03*
X0101894Y0015280D03*
X0101894Y0019217D03*
X0097957Y0019217D03*
X0097957Y0023154D03*
X0101894Y0023154D03*
X0105831Y0023154D03*
X0105831Y0019217D03*
X0105831Y0015280D03*
X0073154Y0052872D03*
X0075516Y0073526D03*
X0103237Y0104437D03*
X0103837Y0112237D03*
X0102037Y0117037D03*
X0100837Y0124237D03*
X0095988Y0125516D03*
X0109237Y0124237D03*
X0112237Y0126637D03*
X0117637Y0130837D03*
X0121237Y0130837D03*
X0124237Y0128437D03*
X0121837Y0125437D03*
X0130837Y0135037D03*
X0126637Y0146437D03*
X0118237Y0138037D03*
X0100837Y0138037D03*
X0099637Y0145237D03*
X0084637Y0140437D03*
X0076837Y0140437D03*
X0073237Y0140437D03*
X0054637Y0124237D03*
X0052237Y0127237D03*
X0045637Y0130237D03*
X0043237Y0135037D03*
X0049837Y0134437D03*
X0042037Y0145237D03*
X0042037Y0117037D03*
X0045637Y0115837D03*
X0112237Y0089437D03*
X0131437Y0081037D03*
X0135037Y0081037D03*
X0138637Y0077437D03*
X0154837Y0089437D03*
X0148237Y0097837D03*
X0151837Y0099637D03*
X0149437Y0105637D03*
X0154237Y0109837D03*
X0159037Y0112237D03*
X0160837Y0105637D03*
X0174037Y0103237D03*
X0175237Y0112237D03*
X0150037Y0114637D03*
X0145237Y0120637D03*
X0147637Y0129037D03*
X0135637Y0157237D03*
X0124237Y0165037D03*
X0118237Y0165037D03*
X0131437Y0173437D03*
D24*
X0107709Y0160508D02*
X0103862Y0156661D01*
X0103862Y0133390D01*
X0095988Y0125516D01*
X0121224Y0082945D02*
X0121224Y0082642D01*
X0114998Y0076415D01*
X0109940Y0076415D01*
X0107051Y0073526D01*
X0105437Y0073526D01*
X0101351Y0073526D02*
X0075516Y0073526D01*
X0073154Y0052872D02*
X0067604Y0052872D01*
X0058823Y0044091D01*
X0043232Y0052681D02*
X0037413Y0052681D01*
X0028823Y0044091D01*
X0088823Y0044591D02*
X0088853Y0044561D01*
X0101894Y0037835D02*
X0115673Y0051615D01*
X0115673Y0056618D01*
X0119983Y0073526D02*
X0111137Y0073526D01*
X0114048Y0078615D02*
X0106440Y0078615D01*
X0101351Y0073526D01*
X0114048Y0078615D02*
X0117248Y0081815D01*
X0125161Y0082945D02*
X0125161Y0078705D01*
X0119983Y0073526D01*
X0101894Y0037835D02*
X0101894Y0023154D01*
D25*
X0094823Y0023105D02*
X0112323Y0023105D01*
X0112323Y0023303D02*
X0094823Y0023303D01*
X0094823Y0023502D02*
X0112323Y0023502D01*
X0112323Y0023700D02*
X0094823Y0023700D01*
X0094823Y0023899D02*
X0112323Y0023899D01*
X0112323Y0024097D02*
X0094823Y0024097D01*
X0094823Y0024296D02*
X0112323Y0024296D01*
X0112323Y0024494D02*
X0094823Y0024494D01*
X0094823Y0024693D02*
X0112323Y0024693D01*
X0112323Y0024891D02*
X0094823Y0024891D01*
X0094823Y0025090D02*
X0112323Y0025090D01*
X0112323Y0025288D02*
X0094823Y0025288D01*
X0094823Y0025487D02*
X0112323Y0025487D01*
X0112323Y0025685D02*
X0094823Y0025685D01*
X0094823Y0025884D02*
X0112323Y0025884D01*
X0112323Y0026082D02*
X0094823Y0026082D01*
X0094823Y0026281D02*
X0112323Y0026281D01*
X0112323Y0026479D02*
X0094823Y0026479D01*
X0094823Y0026678D02*
X0112323Y0026678D01*
X0112323Y0026876D02*
X0094823Y0026876D01*
X0094823Y0027075D02*
X0112323Y0027075D01*
X0112323Y0027273D02*
X0094823Y0027273D01*
X0094823Y0027472D02*
X0112323Y0027472D01*
X0112323Y0027670D02*
X0094823Y0027670D01*
X0094823Y0027869D02*
X0112323Y0027869D01*
X0112323Y0028067D02*
X0094823Y0028067D01*
X0094823Y0028266D02*
X0112323Y0028266D01*
X0112323Y0028464D02*
X0094823Y0028464D01*
X0094823Y0028663D02*
X0112323Y0028663D01*
X0112323Y0028861D02*
X0094823Y0028861D01*
X0094823Y0029060D02*
X0112323Y0029060D01*
X0112323Y0029258D02*
X0094823Y0029258D01*
X0094823Y0029457D02*
X0112323Y0029457D01*
X0112323Y0029655D02*
X0094823Y0029655D01*
X0094823Y0029854D02*
X0112323Y0029854D01*
X0112323Y0030052D02*
X0094823Y0030052D01*
X0094823Y0030251D02*
X0112323Y0030251D01*
X0112323Y0030449D02*
X0094823Y0030449D01*
X0094823Y0030648D02*
X0112323Y0030648D01*
X0112323Y0030846D02*
X0094823Y0030846D01*
X0094823Y0031045D02*
X0112323Y0031045D01*
X0112323Y0031243D02*
X0094823Y0031243D01*
X0094823Y0031442D02*
X0112323Y0031442D01*
X0112323Y0031641D02*
X0094823Y0031641D01*
X0094823Y0031839D02*
X0112323Y0031839D01*
X0112323Y0032038D02*
X0094823Y0032038D01*
X0094823Y0032236D02*
X0112323Y0032236D01*
X0112323Y0032435D02*
X0094823Y0032435D01*
X0094823Y0032633D02*
X0112323Y0032633D01*
X0112323Y0032832D02*
X0094823Y0032832D01*
X0094823Y0033030D02*
X0112323Y0033030D01*
X0112323Y0033229D02*
X0094823Y0033229D01*
X0094823Y0033427D02*
X0096924Y0033427D01*
X0096924Y0033329D02*
X0096982Y0033270D01*
X0103223Y0033270D01*
X0103223Y0033937D01*
X0103423Y0033937D01*
X0103423Y0033270D01*
X0109663Y0033270D01*
X0109722Y0033329D01*
X0109722Y0033937D01*
X0112323Y0033937D01*
X0112323Y0012937D01*
X0094823Y0012937D01*
X0094823Y0033937D01*
X0096924Y0033937D01*
X0096924Y0033329D01*
X0096924Y0033626D02*
X0094823Y0033626D01*
X0094823Y0033824D02*
X0096924Y0033824D01*
X0103223Y0033824D02*
X0103423Y0033824D01*
X0103423Y0033626D02*
X0103223Y0033626D01*
X0103223Y0033427D02*
X0103423Y0033427D01*
X0109722Y0033427D02*
X0112323Y0033427D01*
X0112323Y0033626D02*
X0109722Y0033626D01*
X0109722Y0033824D02*
X0112323Y0033824D01*
X0112323Y0022906D02*
X0094823Y0022906D01*
X0094823Y0022707D02*
X0112323Y0022707D01*
X0112323Y0022509D02*
X0094823Y0022509D01*
X0094823Y0022310D02*
X0112323Y0022310D01*
X0112323Y0022112D02*
X0094823Y0022112D01*
X0094823Y0021913D02*
X0112323Y0021913D01*
X0112323Y0021715D02*
X0094823Y0021715D01*
X0094823Y0021516D02*
X0112323Y0021516D01*
X0112323Y0021318D02*
X0094823Y0021318D01*
X0094823Y0021119D02*
X0112323Y0021119D01*
X0112323Y0020921D02*
X0094823Y0020921D01*
X0094823Y0020722D02*
X0112323Y0020722D01*
X0112323Y0020524D02*
X0094823Y0020524D01*
X0094823Y0020325D02*
X0112323Y0020325D01*
X0112323Y0020127D02*
X0094823Y0020127D01*
X0094823Y0019928D02*
X0112323Y0019928D01*
X0112323Y0019730D02*
X0094823Y0019730D01*
X0094823Y0019531D02*
X0112323Y0019531D01*
X0112323Y0019333D02*
X0094823Y0019333D01*
X0094823Y0019134D02*
X0112323Y0019134D01*
X0112323Y0018936D02*
X0094823Y0018936D01*
X0094823Y0018737D02*
X0112323Y0018737D01*
X0112323Y0018539D02*
X0094823Y0018539D01*
X0094823Y0018340D02*
X0112323Y0018340D01*
X0112323Y0018142D02*
X0094823Y0018142D01*
X0094823Y0017943D02*
X0112323Y0017943D01*
X0112323Y0017745D02*
X0094823Y0017745D01*
X0094823Y0017546D02*
X0112323Y0017546D01*
X0112323Y0017348D02*
X0094823Y0017348D01*
X0094823Y0017149D02*
X0112323Y0017149D01*
X0112323Y0016951D02*
X0094823Y0016951D01*
X0094823Y0016752D02*
X0112323Y0016752D01*
X0112323Y0016554D02*
X0094823Y0016554D01*
X0094823Y0016355D02*
X0112323Y0016355D01*
X0112323Y0016157D02*
X0094823Y0016157D01*
X0094823Y0015958D02*
X0112323Y0015958D01*
X0112323Y0015760D02*
X0094823Y0015760D01*
X0094823Y0015561D02*
X0112323Y0015561D01*
X0112323Y0015363D02*
X0094823Y0015363D01*
X0094823Y0015164D02*
X0112323Y0015164D01*
X0112323Y0014966D02*
X0094823Y0014966D01*
X0094823Y0014767D02*
X0112323Y0014767D01*
X0112323Y0014569D02*
X0094823Y0014569D01*
X0094823Y0014370D02*
X0112323Y0014370D01*
X0112323Y0014172D02*
X0094823Y0014172D01*
X0094823Y0013973D02*
X0112323Y0013973D01*
X0112323Y0013774D02*
X0094823Y0013774D01*
X0094823Y0013576D02*
X0112323Y0013576D01*
X0112323Y0013377D02*
X0094823Y0013377D01*
X0094823Y0013179D02*
X0112323Y0013179D01*
X0112323Y0012980D02*
X0094823Y0012980D01*
X0081323Y0012980D02*
X0064823Y0012980D01*
X0064823Y0012937D02*
X0081323Y0012937D01*
X0081323Y0033937D01*
X0079722Y0033937D01*
X0079722Y0033329D01*
X0079663Y0033270D01*
X0073423Y0033270D01*
X0073423Y0033937D01*
X0073223Y0033937D01*
X0073223Y0033270D01*
X0066982Y0033270D01*
X0066924Y0033329D01*
X0066924Y0033937D01*
X0064823Y0033937D01*
X0064823Y0012937D01*
X0064823Y0013179D02*
X0081323Y0013179D01*
X0081323Y0013377D02*
X0064823Y0013377D01*
X0064823Y0013576D02*
X0081323Y0013576D01*
X0081323Y0013774D02*
X0064823Y0013774D01*
X0064823Y0013973D02*
X0081323Y0013973D01*
X0081323Y0014172D02*
X0064823Y0014172D01*
X0064823Y0014370D02*
X0081323Y0014370D01*
X0081323Y0014569D02*
X0064823Y0014569D01*
X0064823Y0014767D02*
X0081323Y0014767D01*
X0081323Y0014966D02*
X0064823Y0014966D01*
X0064823Y0015164D02*
X0081323Y0015164D01*
X0081323Y0015363D02*
X0064823Y0015363D01*
X0064823Y0015561D02*
X0081323Y0015561D01*
X0081323Y0015760D02*
X0064823Y0015760D01*
X0064823Y0015958D02*
X0081323Y0015958D01*
X0081323Y0016157D02*
X0064823Y0016157D01*
X0064823Y0016355D02*
X0081323Y0016355D01*
X0081323Y0016554D02*
X0064823Y0016554D01*
X0064823Y0016752D02*
X0081323Y0016752D01*
X0081323Y0016951D02*
X0064823Y0016951D01*
X0064823Y0017149D02*
X0081323Y0017149D01*
X0081323Y0017348D02*
X0064823Y0017348D01*
X0064823Y0017546D02*
X0081323Y0017546D01*
X0081323Y0017745D02*
X0064823Y0017745D01*
X0064823Y0017943D02*
X0081323Y0017943D01*
X0081323Y0018142D02*
X0064823Y0018142D01*
X0064823Y0018340D02*
X0081323Y0018340D01*
X0081323Y0018539D02*
X0064823Y0018539D01*
X0064823Y0018737D02*
X0081323Y0018737D01*
X0081323Y0018936D02*
X0064823Y0018936D01*
X0064823Y0019134D02*
X0081323Y0019134D01*
X0081323Y0019333D02*
X0064823Y0019333D01*
X0064823Y0019531D02*
X0081323Y0019531D01*
X0081323Y0019730D02*
X0064823Y0019730D01*
X0064823Y0019928D02*
X0081323Y0019928D01*
X0081323Y0020127D02*
X0064823Y0020127D01*
X0064823Y0020325D02*
X0081323Y0020325D01*
X0081323Y0020524D02*
X0064823Y0020524D01*
X0064823Y0020722D02*
X0081323Y0020722D01*
X0081323Y0020921D02*
X0064823Y0020921D01*
X0064823Y0021119D02*
X0081323Y0021119D01*
X0081323Y0021318D02*
X0064823Y0021318D01*
X0064823Y0021516D02*
X0081323Y0021516D01*
X0081323Y0021715D02*
X0064823Y0021715D01*
X0064823Y0021913D02*
X0081323Y0021913D01*
X0081323Y0022112D02*
X0064823Y0022112D01*
X0064823Y0022310D02*
X0081323Y0022310D01*
X0081323Y0022509D02*
X0064823Y0022509D01*
X0064823Y0022707D02*
X0081323Y0022707D01*
X0081323Y0022906D02*
X0064823Y0022906D01*
X0064823Y0023105D02*
X0081323Y0023105D01*
X0081323Y0023303D02*
X0064823Y0023303D01*
X0064823Y0023502D02*
X0081323Y0023502D01*
X0081323Y0023700D02*
X0064823Y0023700D01*
X0064823Y0023899D02*
X0081323Y0023899D01*
X0081323Y0024097D02*
X0064823Y0024097D01*
X0064823Y0024296D02*
X0081323Y0024296D01*
X0081323Y0024494D02*
X0064823Y0024494D01*
X0064823Y0024693D02*
X0081323Y0024693D01*
X0081323Y0024891D02*
X0064823Y0024891D01*
X0064823Y0025090D02*
X0081323Y0025090D01*
X0081323Y0025288D02*
X0064823Y0025288D01*
X0064823Y0025487D02*
X0081323Y0025487D01*
X0081323Y0025685D02*
X0064823Y0025685D01*
X0064823Y0025884D02*
X0081323Y0025884D01*
X0081323Y0026082D02*
X0064823Y0026082D01*
X0064823Y0026281D02*
X0081323Y0026281D01*
X0081323Y0026479D02*
X0064823Y0026479D01*
X0064823Y0026678D02*
X0081323Y0026678D01*
X0081323Y0026876D02*
X0064823Y0026876D01*
X0064823Y0027075D02*
X0081323Y0027075D01*
X0081323Y0027273D02*
X0064823Y0027273D01*
X0064823Y0027472D02*
X0081323Y0027472D01*
X0081323Y0027670D02*
X0064823Y0027670D01*
X0064823Y0027869D02*
X0081323Y0027869D01*
X0081323Y0028067D02*
X0064823Y0028067D01*
X0064823Y0028266D02*
X0081323Y0028266D01*
X0081323Y0028464D02*
X0064823Y0028464D01*
X0064823Y0028663D02*
X0081323Y0028663D01*
X0081323Y0028861D02*
X0064823Y0028861D01*
X0064823Y0029060D02*
X0081323Y0029060D01*
X0081323Y0029258D02*
X0064823Y0029258D01*
X0064823Y0029457D02*
X0081323Y0029457D01*
X0081323Y0029655D02*
X0064823Y0029655D01*
X0064823Y0029854D02*
X0081323Y0029854D01*
X0081323Y0030052D02*
X0064823Y0030052D01*
X0064823Y0030251D02*
X0081323Y0030251D01*
X0081323Y0030449D02*
X0064823Y0030449D01*
X0064823Y0030648D02*
X0081323Y0030648D01*
X0081323Y0030846D02*
X0064823Y0030846D01*
X0064823Y0031045D02*
X0081323Y0031045D01*
X0081323Y0031243D02*
X0064823Y0031243D01*
X0064823Y0031442D02*
X0081323Y0031442D01*
X0081323Y0031641D02*
X0064823Y0031641D01*
X0064823Y0031839D02*
X0081323Y0031839D01*
X0081323Y0032038D02*
X0064823Y0032038D01*
X0064823Y0032236D02*
X0081323Y0032236D01*
X0081323Y0032435D02*
X0064823Y0032435D01*
X0064823Y0032633D02*
X0081323Y0032633D01*
X0081323Y0032832D02*
X0064823Y0032832D01*
X0064823Y0033030D02*
X0081323Y0033030D01*
X0081323Y0033229D02*
X0064823Y0033229D01*
X0064823Y0033427D02*
X0066924Y0033427D01*
X0066924Y0033626D02*
X0064823Y0033626D01*
X0064823Y0033824D02*
X0066924Y0033824D01*
X0073223Y0033824D02*
X0073423Y0033824D01*
X0073423Y0033626D02*
X0073223Y0033626D01*
X0073223Y0033427D02*
X0073423Y0033427D01*
X0079722Y0033427D02*
X0081323Y0033427D01*
X0081323Y0033626D02*
X0079722Y0033626D01*
X0079722Y0033824D02*
X0081323Y0033824D01*
D26*
X0117248Y0081815D02*
X0117248Y0086264D01*
X0117287Y0086303D01*
X0121224Y0086303D02*
X0121224Y0082642D01*
X0125161Y0082945D02*
X0125161Y0086303D01*
D27*
X0129098Y0120161D02*
X0129098Y0132425D01*
X0107709Y0153815D01*
D28*
X0080630Y0084787D02*
X0072130Y0084787D01*
X0065130Y0084787D01*
X0065130Y0084491D01*
D29*
X0034823Y0033437D02*
X0034823Y0012937D01*
X0050823Y0012937D01*
X0050823Y0033437D01*
X0049672Y0033437D01*
X0049672Y0033349D01*
X0049643Y0033320D01*
X0043373Y0033320D01*
X0043373Y0033437D01*
X0043273Y0033437D01*
X0043273Y0033320D01*
X0037003Y0033320D01*
X0036974Y0033349D01*
X0036974Y0033437D01*
X0034823Y0033437D01*
X0034823Y0033414D02*
X0036974Y0033414D01*
X0034823Y0033316D02*
X0050823Y0033316D01*
X0050823Y0033414D02*
X0049672Y0033414D01*
X0050823Y0033217D02*
X0034823Y0033217D01*
X0034823Y0033119D02*
X0050823Y0033119D01*
X0050823Y0033020D02*
X0034823Y0033020D01*
X0034823Y0032922D02*
X0050823Y0032922D01*
X0050823Y0032823D02*
X0034823Y0032823D01*
X0034823Y0032725D02*
X0050823Y0032725D01*
X0050823Y0032626D02*
X0034823Y0032626D01*
X0034823Y0032528D02*
X0050823Y0032528D01*
X0050823Y0032429D02*
X0034823Y0032429D01*
X0034823Y0032331D02*
X0050823Y0032331D01*
X0050823Y0032232D02*
X0034823Y0032232D01*
X0034823Y0032134D02*
X0050823Y0032134D01*
X0050823Y0032035D02*
X0034823Y0032035D01*
X0034823Y0031937D02*
X0050823Y0031937D01*
X0050823Y0031838D02*
X0034823Y0031838D01*
X0034823Y0031740D02*
X0050823Y0031740D01*
X0050823Y0031641D02*
X0034823Y0031641D01*
X0034823Y0031543D02*
X0050823Y0031543D01*
X0050823Y0031444D02*
X0034823Y0031444D01*
X0034823Y0031345D02*
X0050823Y0031345D01*
X0050823Y0031247D02*
X0034823Y0031247D01*
X0034823Y0031148D02*
X0050823Y0031148D01*
X0050823Y0031050D02*
X0034823Y0031050D01*
X0034823Y0030951D02*
X0050823Y0030951D01*
X0050823Y0030853D02*
X0034823Y0030853D01*
X0034823Y0030754D02*
X0050823Y0030754D01*
X0050823Y0030656D02*
X0034823Y0030656D01*
X0034823Y0030557D02*
X0050823Y0030557D01*
X0050823Y0030459D02*
X0034823Y0030459D01*
X0034823Y0030360D02*
X0050823Y0030360D01*
X0050823Y0030262D02*
X0034823Y0030262D01*
X0034823Y0030163D02*
X0050823Y0030163D01*
X0050823Y0030065D02*
X0034823Y0030065D01*
X0034823Y0029966D02*
X0050823Y0029966D01*
X0050823Y0029868D02*
X0034823Y0029868D01*
X0034823Y0029769D02*
X0050823Y0029769D01*
X0050823Y0029671D02*
X0034823Y0029671D01*
X0034823Y0029572D02*
X0050823Y0029572D01*
X0050823Y0029474D02*
X0034823Y0029474D01*
X0034823Y0029375D02*
X0050823Y0029375D01*
X0050823Y0029277D02*
X0034823Y0029277D01*
X0034823Y0029178D02*
X0050823Y0029178D01*
X0050823Y0029080D02*
X0034823Y0029080D01*
X0034823Y0028981D02*
X0050823Y0028981D01*
X0050823Y0028883D02*
X0034823Y0028883D01*
X0034823Y0028784D02*
X0050823Y0028784D01*
X0050823Y0028686D02*
X0034823Y0028686D01*
X0034823Y0028587D02*
X0050823Y0028587D01*
X0050823Y0028489D02*
X0034823Y0028489D01*
X0034823Y0028390D02*
X0050823Y0028390D01*
X0050823Y0028292D02*
X0034823Y0028292D01*
X0034823Y0028193D02*
X0050823Y0028193D01*
X0050823Y0028095D02*
X0034823Y0028095D01*
X0034823Y0027996D02*
X0050823Y0027996D01*
X0050823Y0027898D02*
X0034823Y0027898D01*
X0034823Y0027799D02*
X0050823Y0027799D01*
X0050823Y0027701D02*
X0034823Y0027701D01*
X0034823Y0027602D02*
X0050823Y0027602D01*
X0050823Y0027504D02*
X0034823Y0027504D01*
X0034823Y0027405D02*
X0050823Y0027405D01*
X0050823Y0027307D02*
X0034823Y0027307D01*
X0034823Y0027208D02*
X0050823Y0027208D01*
X0050823Y0027109D02*
X0034823Y0027109D01*
X0034823Y0027011D02*
X0050823Y0027011D01*
X0050823Y0026912D02*
X0034823Y0026912D01*
X0034823Y0026814D02*
X0050823Y0026814D01*
X0050823Y0026715D02*
X0034823Y0026715D01*
X0034823Y0026617D02*
X0050823Y0026617D01*
X0050823Y0026518D02*
X0034823Y0026518D01*
X0034823Y0026420D02*
X0050823Y0026420D01*
X0050823Y0026321D02*
X0034823Y0026321D01*
X0034823Y0026223D02*
X0050823Y0026223D01*
X0050823Y0026124D02*
X0034823Y0026124D01*
X0034823Y0026026D02*
X0050823Y0026026D01*
X0050823Y0025927D02*
X0034823Y0025927D01*
X0034823Y0025829D02*
X0050823Y0025829D01*
X0050823Y0025730D02*
X0034823Y0025730D01*
X0034823Y0025632D02*
X0050823Y0025632D01*
X0050823Y0025533D02*
X0034823Y0025533D01*
X0034823Y0025435D02*
X0050823Y0025435D01*
X0050823Y0025336D02*
X0034823Y0025336D01*
X0034823Y0025238D02*
X0050823Y0025238D01*
X0050823Y0025139D02*
X0034823Y0025139D01*
X0034823Y0025041D02*
X0050823Y0025041D01*
X0050823Y0024942D02*
X0034823Y0024942D01*
X0034823Y0024844D02*
X0050823Y0024844D01*
X0050823Y0024745D02*
X0034823Y0024745D01*
X0034823Y0024647D02*
X0050823Y0024647D01*
X0050823Y0024548D02*
X0034823Y0024548D01*
X0034823Y0024450D02*
X0050823Y0024450D01*
X0050823Y0024351D02*
X0034823Y0024351D01*
X0034823Y0024253D02*
X0050823Y0024253D01*
X0050823Y0024154D02*
X0034823Y0024154D01*
X0034823Y0024056D02*
X0050823Y0024056D01*
X0050823Y0023957D02*
X0034823Y0023957D01*
X0034823Y0023859D02*
X0050823Y0023859D01*
X0050823Y0023760D02*
X0034823Y0023760D01*
X0034823Y0023662D02*
X0050823Y0023662D01*
X0050823Y0023563D02*
X0034823Y0023563D01*
X0034823Y0023465D02*
X0050823Y0023465D01*
X0050823Y0023366D02*
X0034823Y0023366D01*
X0034823Y0023268D02*
X0050823Y0023268D01*
X0050823Y0023169D02*
X0034823Y0023169D01*
X0034823Y0023071D02*
X0050823Y0023071D01*
X0050823Y0022972D02*
X0034823Y0022972D01*
X0034823Y0022874D02*
X0050823Y0022874D01*
X0050823Y0022775D02*
X0034823Y0022775D01*
X0034823Y0022676D02*
X0050823Y0022676D01*
X0050823Y0022578D02*
X0034823Y0022578D01*
X0034823Y0022479D02*
X0050823Y0022479D01*
X0050823Y0022381D02*
X0034823Y0022381D01*
X0034823Y0022282D02*
X0050823Y0022282D01*
X0050823Y0022184D02*
X0034823Y0022184D01*
X0034823Y0022085D02*
X0050823Y0022085D01*
X0050823Y0021987D02*
X0034823Y0021987D01*
X0034823Y0021888D02*
X0050823Y0021888D01*
X0050823Y0021790D02*
X0034823Y0021790D01*
X0034823Y0021691D02*
X0050823Y0021691D01*
X0050823Y0021593D02*
X0034823Y0021593D01*
X0034823Y0021494D02*
X0050823Y0021494D01*
X0050823Y0021396D02*
X0034823Y0021396D01*
X0034823Y0021297D02*
X0050823Y0021297D01*
X0050823Y0021199D02*
X0034823Y0021199D01*
X0034823Y0021100D02*
X0050823Y0021100D01*
X0050823Y0021002D02*
X0034823Y0021002D01*
X0034823Y0020903D02*
X0050823Y0020903D01*
X0050823Y0020805D02*
X0034823Y0020805D01*
X0034823Y0020706D02*
X0050823Y0020706D01*
X0050823Y0020608D02*
X0034823Y0020608D01*
X0034823Y0020509D02*
X0050823Y0020509D01*
X0050823Y0020411D02*
X0034823Y0020411D01*
X0034823Y0020312D02*
X0050823Y0020312D01*
X0050823Y0020214D02*
X0034823Y0020214D01*
X0034823Y0020115D02*
X0050823Y0020115D01*
X0050823Y0020017D02*
X0034823Y0020017D01*
X0034823Y0019918D02*
X0050823Y0019918D01*
X0050823Y0019820D02*
X0034823Y0019820D01*
X0034823Y0019721D02*
X0050823Y0019721D01*
X0050823Y0019623D02*
X0034823Y0019623D01*
X0034823Y0019524D02*
X0050823Y0019524D01*
X0050823Y0019426D02*
X0034823Y0019426D01*
X0034823Y0019327D02*
X0050823Y0019327D01*
X0050823Y0019229D02*
X0034823Y0019229D01*
X0034823Y0019130D02*
X0050823Y0019130D01*
X0050823Y0019032D02*
X0034823Y0019032D01*
X0034823Y0018933D02*
X0050823Y0018933D01*
X0050823Y0018835D02*
X0034823Y0018835D01*
X0034823Y0018736D02*
X0050823Y0018736D01*
X0050823Y0018638D02*
X0034823Y0018638D01*
X0034823Y0018539D02*
X0050823Y0018539D01*
X0050823Y0018441D02*
X0034823Y0018441D01*
X0034823Y0018342D02*
X0050823Y0018342D01*
X0050823Y0018243D02*
X0034823Y0018243D01*
X0034823Y0018145D02*
X0050823Y0018145D01*
X0050823Y0018046D02*
X0034823Y0018046D01*
X0034823Y0017948D02*
X0050823Y0017948D01*
X0050823Y0017849D02*
X0034823Y0017849D01*
X0034823Y0017751D02*
X0050823Y0017751D01*
X0050823Y0017652D02*
X0034823Y0017652D01*
X0034823Y0017554D02*
X0050823Y0017554D01*
X0050823Y0017455D02*
X0034823Y0017455D01*
X0034823Y0017357D02*
X0050823Y0017357D01*
X0050823Y0017258D02*
X0034823Y0017258D01*
X0034823Y0017160D02*
X0050823Y0017160D01*
X0050823Y0017061D02*
X0034823Y0017061D01*
X0034823Y0016963D02*
X0050823Y0016963D01*
X0050823Y0016864D02*
X0034823Y0016864D01*
X0034823Y0016766D02*
X0050823Y0016766D01*
X0050823Y0016667D02*
X0034823Y0016667D01*
X0034823Y0016569D02*
X0050823Y0016569D01*
X0050823Y0016470D02*
X0034823Y0016470D01*
X0034823Y0016372D02*
X0050823Y0016372D01*
X0050823Y0016273D02*
X0034823Y0016273D01*
X0034823Y0016175D02*
X0050823Y0016175D01*
X0050823Y0016076D02*
X0034823Y0016076D01*
X0034823Y0015978D02*
X0050823Y0015978D01*
X0050823Y0015879D02*
X0034823Y0015879D01*
X0034823Y0015781D02*
X0050823Y0015781D01*
X0050823Y0015682D02*
X0034823Y0015682D01*
X0034823Y0015584D02*
X0050823Y0015584D01*
X0050823Y0015485D02*
X0034823Y0015485D01*
X0034823Y0015387D02*
X0050823Y0015387D01*
X0050823Y0015288D02*
X0034823Y0015288D01*
X0034823Y0015190D02*
X0050823Y0015190D01*
X0050823Y0015091D02*
X0034823Y0015091D01*
X0034823Y0014993D02*
X0050823Y0014993D01*
X0050823Y0014894D02*
X0034823Y0014894D01*
X0034823Y0014796D02*
X0050823Y0014796D01*
X0050823Y0014697D02*
X0034823Y0014697D01*
X0034823Y0014599D02*
X0050823Y0014599D01*
X0050823Y0014500D02*
X0034823Y0014500D01*
X0034823Y0014402D02*
X0050823Y0014402D01*
X0050823Y0014303D02*
X0034823Y0014303D01*
X0034823Y0014205D02*
X0050823Y0014205D01*
X0050823Y0014106D02*
X0034823Y0014106D01*
X0034823Y0014007D02*
X0050823Y0014007D01*
X0050823Y0013909D02*
X0034823Y0013909D01*
X0034823Y0013810D02*
X0050823Y0013810D01*
X0050823Y0013712D02*
X0034823Y0013712D01*
X0034823Y0013613D02*
X0050823Y0013613D01*
X0050823Y0013515D02*
X0034823Y0013515D01*
X0034823Y0013416D02*
X0050823Y0013416D01*
X0050823Y0013318D02*
X0034823Y0013318D01*
X0034823Y0013219D02*
X0050823Y0013219D01*
X0050823Y0013121D02*
X0034823Y0013121D01*
X0034823Y0013022D02*
X0050823Y0013022D01*
X0043373Y0033414D02*
X0043273Y0033414D01*
M02*
