G04 EAGLE Gerber X2 export*
%TF.Part,Single*%
%TF.FileFunction,Other,Solderpaste Top*%
%TF.FilePolarity,Positive*%
%TF.GenerationSoftware,Autodesk,EAGLE,9.6.2*%
%TF.CreationDate,2021-10-21T15:25:30Z*%
G75*
%MOMM*%
%FSLAX34Y34*%
%LPD*%
%INSolderpaste Top*%
%AMOC8*
5,1,8,0,0,1.08239X$1,22.5*%
G01*
%ADD10R,1.400000X0.300000*%
%ADD11R,0.300000X1.400000*%
%ADD12R,5.000000X5.000000*%
%ADD13R,1.100000X1.000000*%
%ADD14R,1.000000X1.100000*%
%ADD15R,5.400000X6.200000*%
%ADD16R,1.000000X1.600000*%


D10*
X534850Y378020D03*
X534850Y373020D03*
X534850Y368020D03*
X534850Y363020D03*
X534850Y358020D03*
X534850Y353020D03*
X534850Y348020D03*
X534850Y343020D03*
X534850Y338020D03*
X534850Y333020D03*
X534850Y328020D03*
X534850Y323020D03*
D11*
X550350Y307520D03*
X555350Y307520D03*
X560350Y307520D03*
X565350Y307520D03*
X570350Y307520D03*
X575350Y307520D03*
X580350Y307520D03*
X585350Y307520D03*
X590350Y307520D03*
X595350Y307520D03*
X600350Y307520D03*
X605350Y307520D03*
D10*
X620850Y323020D03*
X620850Y328020D03*
X620850Y333020D03*
X620850Y338020D03*
X620850Y343020D03*
X620850Y348020D03*
X620850Y353020D03*
X620850Y358020D03*
X620850Y363020D03*
X620850Y368020D03*
X620850Y373020D03*
X620850Y378020D03*
D11*
X605350Y393520D03*
X600350Y393520D03*
X595350Y393520D03*
X590350Y393520D03*
X585350Y393520D03*
X580350Y393520D03*
X575350Y393520D03*
X570350Y393520D03*
X565350Y393520D03*
X560350Y393520D03*
X555350Y393520D03*
X550350Y393520D03*
D12*
X577850Y350520D03*
D13*
X454025Y318380D03*
X454025Y301380D03*
D14*
X474345Y318380D03*
X474345Y301380D03*
D13*
X625865Y394970D03*
X642865Y394970D03*
D14*
X635000Y437125D03*
X635000Y420125D03*
X614680Y437125D03*
X614680Y420125D03*
X594360Y437125D03*
X594360Y420125D03*
X552450Y432680D03*
X552450Y415680D03*
D13*
X532130Y415680D03*
X532130Y432680D03*
D14*
X572770Y415680D03*
X572770Y432680D03*
X511810Y415680D03*
X511810Y432680D03*
X434340Y318380D03*
X434340Y301380D03*
D15*
X327025Y209150D03*
D16*
X304225Y136150D03*
X349825Y136150D03*
D15*
X409575Y114700D03*
D16*
X432375Y187700D03*
X386775Y187700D03*
D15*
X494030Y209150D03*
D16*
X471230Y136150D03*
X516830Y136150D03*
D15*
X577215Y114700D03*
D16*
X600015Y187700D03*
X554415Y187700D03*
D15*
X662940Y209150D03*
D16*
X640140Y136150D03*
X685740Y136150D03*
D15*
X751205Y114700D03*
D16*
X774005Y187700D03*
X728405Y187700D03*
M02*
