G75*
%MOIN*%
%OFA0B0*%
%FSLAX25Y25*%
%IPPOS*%
%LPD*%
%AMOC8*
5,1,8,0,0,1.08239X$1,22.5*
%
%ADD10C,0.00000*%
%ADD11C,0.00600*%
%ADD12R,0.03346X0.12205*%
%ADD13C,0.00400*%
%ADD14R,0.01969X0.03740*%
%ADD15C,0.00500*%
%ADD16R,0.03740X0.01969*%
D10*
X0026287Y0014000D02*
X0335086Y0014000D01*
X0335372Y0014003D01*
X0335657Y0014014D01*
X0335943Y0014031D01*
X0336228Y0014055D01*
X0336512Y0014086D01*
X0336795Y0014124D01*
X0337077Y0014169D01*
X0337358Y0014221D01*
X0337638Y0014279D01*
X0337916Y0014344D01*
X0338193Y0014416D01*
X0338468Y0014495D01*
X0338741Y0014580D01*
X0339011Y0014671D01*
X0339280Y0014770D01*
X0339546Y0014874D01*
X0339809Y0014986D01*
X0340070Y0015103D01*
X0340327Y0015227D01*
X0340582Y0015357D01*
X0340833Y0015493D01*
X0341081Y0015635D01*
X0341326Y0015783D01*
X0341567Y0015937D01*
X0341804Y0016096D01*
X0342037Y0016262D01*
X0342266Y0016433D01*
X0342491Y0016609D01*
X0342711Y0016791D01*
X0342927Y0016978D01*
X0343139Y0017171D01*
X0343345Y0017368D01*
X0343547Y0017570D01*
X0343744Y0017778D01*
X0343936Y0017989D01*
X0344123Y0018206D01*
X0344304Y0018427D01*
X0344480Y0018652D01*
X0344651Y0018881D01*
X0344815Y0019115D01*
X0344975Y0019352D01*
X0345128Y0019593D01*
X0345276Y0019838D01*
X0345417Y0020087D01*
X0345553Y0020338D01*
X0345682Y0020593D01*
X0345805Y0020851D01*
X0345922Y0021112D01*
X0346032Y0021375D01*
X0346137Y0021642D01*
X0346234Y0021910D01*
X0346325Y0022181D01*
X0346410Y0022454D01*
X0346488Y0022729D01*
X0346559Y0023006D01*
X0346624Y0023284D01*
X0346681Y0023564D01*
X0346732Y0023846D01*
X0346776Y0024128D01*
X0346814Y0024411D01*
X0346844Y0024696D01*
X0346868Y0024980D01*
X0346884Y0025266D01*
X0346894Y0025551D01*
X0346897Y0025837D01*
X0346445Y0245912D01*
X0346441Y0246201D01*
X0346430Y0246491D01*
X0346411Y0246780D01*
X0346386Y0247068D01*
X0346354Y0247356D01*
X0346314Y0247643D01*
X0346268Y0247928D01*
X0346214Y0248213D01*
X0346154Y0248496D01*
X0346086Y0248778D01*
X0346012Y0249058D01*
X0345931Y0249335D01*
X0345843Y0249611D01*
X0345749Y0249885D01*
X0345647Y0250156D01*
X0345539Y0250425D01*
X0345425Y0250691D01*
X0345304Y0250954D01*
X0345177Y0251214D01*
X0345043Y0251471D01*
X0344903Y0251724D01*
X0344757Y0251974D01*
X0344605Y0252220D01*
X0344447Y0252463D01*
X0344283Y0252702D01*
X0344113Y0252936D01*
X0343937Y0253166D01*
X0343756Y0253392D01*
X0343569Y0253613D01*
X0343377Y0253830D01*
X0343180Y0254042D01*
X0342978Y0254249D01*
X0342770Y0254451D01*
X0342558Y0254648D01*
X0342341Y0254840D01*
X0342119Y0255026D01*
X0341893Y0255206D01*
X0341662Y0255382D01*
X0341428Y0255551D01*
X0341189Y0255715D01*
X0340946Y0255872D01*
X0340699Y0256024D01*
X0340449Y0256170D01*
X0340196Y0256309D01*
X0339938Y0256442D01*
X0339678Y0256569D01*
X0339415Y0256690D01*
X0339149Y0256804D01*
X0338880Y0256911D01*
X0338609Y0257012D01*
X0338335Y0257106D01*
X0338059Y0257193D01*
X0337781Y0257274D01*
X0337501Y0257348D01*
X0337219Y0257414D01*
X0336936Y0257474D01*
X0336651Y0257527D01*
X0336365Y0257573D01*
X0336078Y0257612D01*
X0335791Y0257644D01*
X0335502Y0257669D01*
X0335213Y0257687D01*
X0334924Y0257697D01*
X0334634Y0257701D01*
X0025835Y0257701D01*
X0025549Y0257698D01*
X0025264Y0257687D01*
X0024978Y0257670D01*
X0024693Y0257646D01*
X0024409Y0257615D01*
X0024126Y0257577D01*
X0023844Y0257532D01*
X0023563Y0257480D01*
X0023283Y0257422D01*
X0023005Y0257357D01*
X0022728Y0257285D01*
X0022453Y0257206D01*
X0022180Y0257121D01*
X0021910Y0257030D01*
X0021641Y0256931D01*
X0021375Y0256827D01*
X0021112Y0256715D01*
X0020851Y0256598D01*
X0020594Y0256474D01*
X0020339Y0256344D01*
X0020088Y0256208D01*
X0019840Y0256066D01*
X0019595Y0255918D01*
X0019354Y0255764D01*
X0019117Y0255605D01*
X0018884Y0255439D01*
X0018655Y0255268D01*
X0018430Y0255092D01*
X0018210Y0254910D01*
X0017994Y0254723D01*
X0017782Y0254530D01*
X0017576Y0254333D01*
X0017374Y0254131D01*
X0017177Y0253923D01*
X0016985Y0253712D01*
X0016798Y0253495D01*
X0016617Y0253274D01*
X0016441Y0253049D01*
X0016270Y0252820D01*
X0016106Y0252586D01*
X0015946Y0252349D01*
X0015793Y0252108D01*
X0015645Y0251863D01*
X0015504Y0251614D01*
X0015368Y0251363D01*
X0015239Y0251108D01*
X0015116Y0250850D01*
X0014999Y0250589D01*
X0014889Y0250326D01*
X0014784Y0250059D01*
X0014687Y0249791D01*
X0014596Y0249520D01*
X0014511Y0249247D01*
X0014433Y0248972D01*
X0014362Y0248695D01*
X0014297Y0248417D01*
X0014240Y0248137D01*
X0014189Y0247855D01*
X0014145Y0247573D01*
X0014107Y0247290D01*
X0014077Y0247005D01*
X0014053Y0246721D01*
X0014037Y0246435D01*
X0014027Y0246150D01*
X0014024Y0245864D01*
X0014476Y0025789D01*
X0014480Y0025500D01*
X0014491Y0025210D01*
X0014510Y0024921D01*
X0014535Y0024633D01*
X0014567Y0024345D01*
X0014607Y0024058D01*
X0014653Y0023773D01*
X0014707Y0023488D01*
X0014767Y0023205D01*
X0014835Y0022923D01*
X0014909Y0022643D01*
X0014990Y0022366D01*
X0015078Y0022090D01*
X0015172Y0021816D01*
X0015274Y0021545D01*
X0015382Y0021276D01*
X0015496Y0021010D01*
X0015617Y0020747D01*
X0015744Y0020487D01*
X0015878Y0020230D01*
X0016018Y0019977D01*
X0016164Y0019727D01*
X0016316Y0019481D01*
X0016474Y0019238D01*
X0016638Y0018999D01*
X0016808Y0018765D01*
X0016984Y0018535D01*
X0017165Y0018309D01*
X0017352Y0018088D01*
X0017544Y0017871D01*
X0017741Y0017659D01*
X0017943Y0017452D01*
X0018151Y0017250D01*
X0018363Y0017053D01*
X0018580Y0016861D01*
X0018802Y0016675D01*
X0019028Y0016495D01*
X0019259Y0016319D01*
X0019493Y0016150D01*
X0019732Y0015986D01*
X0019975Y0015829D01*
X0020222Y0015677D01*
X0020472Y0015531D01*
X0020725Y0015392D01*
X0020983Y0015259D01*
X0021243Y0015132D01*
X0021506Y0015011D01*
X0021772Y0014897D01*
X0022041Y0014790D01*
X0022312Y0014689D01*
X0022586Y0014595D01*
X0022862Y0014508D01*
X0023140Y0014427D01*
X0023420Y0014353D01*
X0023702Y0014287D01*
X0023985Y0014227D01*
X0024270Y0014174D01*
X0024556Y0014128D01*
X0024843Y0014089D01*
X0025130Y0014057D01*
X0025419Y0014032D01*
X0025708Y0014014D01*
X0025997Y0014004D01*
X0026287Y0014000D01*
D11*
X0168602Y0084701D02*
X0187299Y0084701D01*
X0187299Y0096299D02*
X0168602Y0096299D01*
X0234602Y0096799D02*
X0253299Y0096799D01*
X0253299Y0085201D02*
X0234602Y0085201D01*
X0302602Y0085201D02*
X0321299Y0085201D01*
X0321299Y0096799D02*
X0302602Y0096799D01*
D12*
X0301027Y0091003D03*
X0322927Y0091003D03*
X0254927Y0091003D03*
X0233027Y0091003D03*
X0188927Y0090503D03*
X0167027Y0090503D03*
D13*
X0176598Y0100350D02*
X0179402Y0100350D01*
X0179402Y0103701D02*
X0176598Y0103701D01*
X0207350Y0117098D02*
X0207350Y0119902D01*
X0210701Y0119902D02*
X0210701Y0117098D01*
X0242098Y0104201D02*
X0244902Y0104201D01*
X0244902Y0100850D02*
X0242098Y0100850D01*
X0273600Y0117098D02*
X0273600Y0119902D01*
X0276951Y0119902D02*
X0276951Y0117098D01*
X0310098Y0104201D02*
X0312902Y0104201D01*
X0312902Y0100850D02*
X0310098Y0100850D01*
X0144201Y0117098D02*
X0144201Y0119902D01*
X0140850Y0119902D02*
X0140850Y0117098D01*
D14*
X0175716Y0102020D03*
X0180316Y0102020D03*
X0241216Y0102520D03*
X0245816Y0102520D03*
X0309216Y0102520D03*
X0313816Y0102520D03*
D15*
X0313522Y0099250D02*
X0313522Y0097350D01*
X0312995Y0097350D02*
X0314050Y0097350D01*
X0314050Y0098828D02*
X0313522Y0099250D01*
X0311857Y0098617D02*
X0311329Y0098617D01*
X0311294Y0098615D01*
X0311258Y0098609D01*
X0311224Y0098599D01*
X0311191Y0098586D01*
X0311160Y0098568D01*
X0311131Y0098548D01*
X0311105Y0098524D01*
X0311081Y0098498D01*
X0311061Y0098469D01*
X0311043Y0098438D01*
X0311030Y0098405D01*
X0311020Y0098371D01*
X0311014Y0098336D01*
X0311012Y0098300D01*
X0311012Y0097350D01*
X0311857Y0097350D02*
X0311857Y0098617D01*
X0309794Y0098406D02*
X0308950Y0098406D01*
X0308950Y0099250D02*
X0309794Y0099250D01*
X0309794Y0097350D01*
X0280400Y0117489D02*
X0280400Y0117911D01*
X0280400Y0117489D02*
X0280398Y0117450D01*
X0280393Y0117411D01*
X0280384Y0117374D01*
X0280371Y0117337D01*
X0280356Y0117301D01*
X0280337Y0117267D01*
X0280315Y0117235D01*
X0280290Y0117205D01*
X0280262Y0117177D01*
X0280232Y0117152D01*
X0280200Y0117130D01*
X0280166Y0117111D01*
X0280130Y0117095D01*
X0280093Y0117083D01*
X0280056Y0117074D01*
X0280017Y0117069D01*
X0279978Y0117067D01*
X0278922Y0117067D01*
X0278883Y0117069D01*
X0278844Y0117074D01*
X0278807Y0117083D01*
X0278770Y0117095D01*
X0278734Y0117111D01*
X0278700Y0117130D01*
X0278668Y0117152D01*
X0278638Y0117177D01*
X0278610Y0117205D01*
X0278585Y0117235D01*
X0278563Y0117267D01*
X0278544Y0117301D01*
X0278528Y0117337D01*
X0278516Y0117374D01*
X0278507Y0117411D01*
X0278502Y0117450D01*
X0278500Y0117489D01*
X0278500Y0117911D01*
X0278500Y0119406D02*
X0280400Y0119933D01*
X0280400Y0118878D01*
X0280189Y0118878D01*
X0271578Y0118412D02*
X0270522Y0117567D01*
X0270100Y0117990D02*
X0270102Y0118027D01*
X0270107Y0118064D01*
X0270116Y0118100D01*
X0270128Y0118136D01*
X0270144Y0118170D01*
X0270162Y0118202D01*
X0270184Y0118232D01*
X0270208Y0118260D01*
X0270236Y0118286D01*
X0270265Y0118309D01*
X0270296Y0118329D01*
X0270330Y0118346D01*
X0270364Y0118360D01*
X0270100Y0117990D02*
X0270102Y0117953D01*
X0270107Y0117916D01*
X0270116Y0117880D01*
X0270128Y0117844D01*
X0270144Y0117810D01*
X0270162Y0117778D01*
X0270184Y0117748D01*
X0270208Y0117720D01*
X0270236Y0117694D01*
X0270265Y0117671D01*
X0270296Y0117651D01*
X0270330Y0117634D01*
X0270364Y0117620D01*
X0271050Y0118518D02*
X0271121Y0118516D01*
X0271192Y0118512D01*
X0271262Y0118504D01*
X0271333Y0118492D01*
X0271402Y0118478D01*
X0271471Y0118460D01*
X0271539Y0118440D01*
X0271606Y0118416D01*
X0271672Y0118389D01*
X0271736Y0118360D01*
X0271770Y0118346D01*
X0271804Y0118329D01*
X0271835Y0118309D01*
X0271864Y0118286D01*
X0271891Y0118260D01*
X0271916Y0118232D01*
X0271938Y0118202D01*
X0271956Y0118170D01*
X0271972Y0118136D01*
X0271984Y0118100D01*
X0271993Y0118064D01*
X0271998Y0118027D01*
X0272000Y0117990D01*
X0271998Y0117953D01*
X0271993Y0117916D01*
X0271984Y0117880D01*
X0271972Y0117844D01*
X0271956Y0117810D01*
X0271938Y0117778D01*
X0271916Y0117748D01*
X0271891Y0117720D01*
X0271864Y0117694D01*
X0271835Y0117671D01*
X0271804Y0117651D01*
X0271770Y0117634D01*
X0271736Y0117620D01*
X0271050Y0118518D02*
X0270979Y0118516D01*
X0270908Y0118512D01*
X0270838Y0118504D01*
X0270767Y0118492D01*
X0270698Y0118478D01*
X0270629Y0118460D01*
X0270561Y0118440D01*
X0270494Y0118416D01*
X0270428Y0118389D01*
X0270364Y0118360D01*
X0271050Y0117462D02*
X0271121Y0117464D01*
X0271192Y0117468D01*
X0271262Y0117476D01*
X0271333Y0117488D01*
X0271402Y0117502D01*
X0271471Y0117520D01*
X0271539Y0117540D01*
X0271606Y0117564D01*
X0271672Y0117591D01*
X0271736Y0117620D01*
X0271050Y0117462D02*
X0270979Y0117464D01*
X0270908Y0117468D01*
X0270838Y0117476D01*
X0270767Y0117488D01*
X0270698Y0117502D01*
X0270629Y0117520D01*
X0270561Y0117540D01*
X0270494Y0117564D01*
X0270428Y0117591D01*
X0270364Y0117620D01*
X0270206Y0116530D02*
X0270100Y0116530D01*
X0270100Y0116425D01*
X0270206Y0116425D01*
X0270206Y0116530D01*
X0270100Y0115494D02*
X0270100Y0114438D01*
X0270100Y0114966D02*
X0272000Y0114966D01*
X0271578Y0114438D01*
X0271367Y0119655D02*
X0270417Y0119655D01*
X0270384Y0119657D01*
X0270351Y0119662D01*
X0270319Y0119671D01*
X0270288Y0119682D01*
X0270259Y0119697D01*
X0270231Y0119716D01*
X0270205Y0119736D01*
X0270181Y0119760D01*
X0270161Y0119786D01*
X0270142Y0119814D01*
X0270127Y0119843D01*
X0270116Y0119874D01*
X0270107Y0119906D01*
X0270102Y0119939D01*
X0270100Y0119972D01*
X0270100Y0120500D01*
X0271367Y0120500D01*
X0271156Y0121718D02*
X0271156Y0122562D01*
X0272000Y0122562D02*
X0272000Y0121718D01*
X0270100Y0121718D01*
X0246050Y0098828D02*
X0245522Y0099250D01*
X0245522Y0097350D01*
X0244995Y0097350D02*
X0246050Y0097350D01*
X0243857Y0097350D02*
X0243857Y0098617D01*
X0243329Y0098617D01*
X0243294Y0098615D01*
X0243258Y0098609D01*
X0243224Y0098599D01*
X0243191Y0098586D01*
X0243160Y0098568D01*
X0243131Y0098548D01*
X0243105Y0098524D01*
X0243081Y0098498D01*
X0243061Y0098469D01*
X0243043Y0098438D01*
X0243030Y0098405D01*
X0243020Y0098371D01*
X0243014Y0098336D01*
X0243012Y0098300D01*
X0243012Y0097350D01*
X0241794Y0097350D02*
X0241794Y0099250D01*
X0240950Y0099250D01*
X0240950Y0098406D02*
X0241794Y0098406D01*
X0214150Y0117489D02*
X0214150Y0117911D01*
X0214150Y0117489D02*
X0214148Y0117450D01*
X0214143Y0117411D01*
X0214134Y0117374D01*
X0214121Y0117337D01*
X0214106Y0117301D01*
X0214087Y0117267D01*
X0214065Y0117235D01*
X0214040Y0117205D01*
X0214012Y0117177D01*
X0213982Y0117152D01*
X0213950Y0117130D01*
X0213916Y0117111D01*
X0213880Y0117095D01*
X0213843Y0117083D01*
X0213806Y0117074D01*
X0213767Y0117069D01*
X0213728Y0117067D01*
X0212672Y0117067D01*
X0212633Y0117069D01*
X0212594Y0117074D01*
X0212557Y0117083D01*
X0212520Y0117095D01*
X0212484Y0117111D01*
X0212450Y0117130D01*
X0212418Y0117152D01*
X0212388Y0117177D01*
X0212360Y0117205D01*
X0212335Y0117235D01*
X0212313Y0117267D01*
X0212294Y0117301D01*
X0212278Y0117337D01*
X0212266Y0117374D01*
X0212257Y0117411D01*
X0212252Y0117450D01*
X0212250Y0117489D01*
X0212250Y0117911D01*
X0212778Y0118878D02*
X0213306Y0118878D01*
X0213306Y0119511D01*
X0213306Y0118878D02*
X0213364Y0118880D01*
X0213421Y0118886D01*
X0213478Y0118896D01*
X0213534Y0118909D01*
X0213589Y0118927D01*
X0213642Y0118948D01*
X0213694Y0118973D01*
X0213745Y0119001D01*
X0213793Y0119032D01*
X0213839Y0119067D01*
X0213882Y0119105D01*
X0213923Y0119146D01*
X0213961Y0119189D01*
X0213996Y0119235D01*
X0214027Y0119283D01*
X0214055Y0119334D01*
X0214080Y0119386D01*
X0214101Y0119439D01*
X0214119Y0119494D01*
X0214132Y0119550D01*
X0214142Y0119607D01*
X0214148Y0119664D01*
X0214150Y0119722D01*
X0213305Y0119511D02*
X0213303Y0119550D01*
X0213298Y0119589D01*
X0213289Y0119626D01*
X0213277Y0119663D01*
X0213261Y0119699D01*
X0213242Y0119733D01*
X0213220Y0119765D01*
X0213195Y0119795D01*
X0213167Y0119823D01*
X0213137Y0119848D01*
X0213105Y0119870D01*
X0213071Y0119889D01*
X0213035Y0119905D01*
X0212998Y0119917D01*
X0212961Y0119926D01*
X0212922Y0119931D01*
X0212883Y0119933D01*
X0212778Y0119933D01*
X0212778Y0119934D02*
X0212733Y0119932D01*
X0212689Y0119926D01*
X0212645Y0119917D01*
X0212602Y0119904D01*
X0212561Y0119887D01*
X0212520Y0119867D01*
X0212482Y0119843D01*
X0212446Y0119817D01*
X0212413Y0119787D01*
X0212382Y0119755D01*
X0212353Y0119720D01*
X0212328Y0119683D01*
X0212307Y0119644D01*
X0212288Y0119603D01*
X0212273Y0119561D01*
X0212262Y0119517D01*
X0212254Y0119473D01*
X0212250Y0119428D01*
X0212250Y0119384D01*
X0212254Y0119339D01*
X0212262Y0119295D01*
X0212273Y0119251D01*
X0212288Y0119209D01*
X0212307Y0119168D01*
X0212328Y0119129D01*
X0212353Y0119092D01*
X0212382Y0119057D01*
X0212413Y0119025D01*
X0212446Y0118995D01*
X0212482Y0118969D01*
X0212520Y0118945D01*
X0212561Y0118925D01*
X0212602Y0118908D01*
X0212645Y0118895D01*
X0212689Y0118886D01*
X0212733Y0118880D01*
X0212778Y0118878D01*
X0205328Y0118412D02*
X0204272Y0117567D01*
X0203850Y0117990D02*
X0203852Y0118027D01*
X0203857Y0118064D01*
X0203866Y0118100D01*
X0203878Y0118136D01*
X0203894Y0118170D01*
X0203912Y0118202D01*
X0203934Y0118232D01*
X0203958Y0118260D01*
X0203986Y0118286D01*
X0204015Y0118309D01*
X0204046Y0118329D01*
X0204080Y0118346D01*
X0204114Y0118360D01*
X0203850Y0117990D02*
X0203852Y0117953D01*
X0203857Y0117916D01*
X0203866Y0117880D01*
X0203878Y0117844D01*
X0203894Y0117810D01*
X0203912Y0117778D01*
X0203934Y0117748D01*
X0203958Y0117720D01*
X0203986Y0117694D01*
X0204015Y0117671D01*
X0204046Y0117651D01*
X0204080Y0117634D01*
X0204114Y0117620D01*
X0204800Y0118518D02*
X0204871Y0118516D01*
X0204942Y0118512D01*
X0205012Y0118504D01*
X0205083Y0118492D01*
X0205152Y0118478D01*
X0205221Y0118460D01*
X0205289Y0118440D01*
X0205356Y0118416D01*
X0205422Y0118389D01*
X0205486Y0118360D01*
X0205520Y0118346D01*
X0205554Y0118329D01*
X0205585Y0118309D01*
X0205614Y0118286D01*
X0205641Y0118260D01*
X0205666Y0118232D01*
X0205688Y0118202D01*
X0205706Y0118170D01*
X0205722Y0118136D01*
X0205734Y0118100D01*
X0205743Y0118064D01*
X0205748Y0118027D01*
X0205750Y0117990D01*
X0205748Y0117953D01*
X0205743Y0117916D01*
X0205734Y0117880D01*
X0205722Y0117844D01*
X0205706Y0117810D01*
X0205688Y0117778D01*
X0205666Y0117748D01*
X0205641Y0117720D01*
X0205614Y0117694D01*
X0205585Y0117671D01*
X0205554Y0117651D01*
X0205520Y0117634D01*
X0205486Y0117620D01*
X0204800Y0118518D02*
X0204729Y0118516D01*
X0204658Y0118512D01*
X0204588Y0118504D01*
X0204517Y0118492D01*
X0204448Y0118478D01*
X0204379Y0118460D01*
X0204311Y0118440D01*
X0204244Y0118416D01*
X0204178Y0118389D01*
X0204114Y0118360D01*
X0204800Y0117462D02*
X0204871Y0117464D01*
X0204942Y0117468D01*
X0205012Y0117476D01*
X0205083Y0117488D01*
X0205152Y0117502D01*
X0205221Y0117520D01*
X0205289Y0117540D01*
X0205356Y0117564D01*
X0205422Y0117591D01*
X0205486Y0117620D01*
X0204800Y0117462D02*
X0204729Y0117464D01*
X0204658Y0117468D01*
X0204588Y0117476D01*
X0204517Y0117488D01*
X0204448Y0117502D01*
X0204379Y0117520D01*
X0204311Y0117540D01*
X0204244Y0117564D01*
X0204178Y0117591D01*
X0204114Y0117620D01*
X0203956Y0116530D02*
X0203850Y0116530D01*
X0203850Y0116425D01*
X0203956Y0116425D01*
X0203956Y0116530D01*
X0203850Y0115494D02*
X0203850Y0114438D01*
X0203850Y0114966D02*
X0205750Y0114966D01*
X0205328Y0114438D01*
X0205117Y0119655D02*
X0204167Y0119655D01*
X0204134Y0119657D01*
X0204101Y0119662D01*
X0204069Y0119671D01*
X0204038Y0119682D01*
X0204009Y0119697D01*
X0203981Y0119716D01*
X0203955Y0119736D01*
X0203931Y0119760D01*
X0203911Y0119786D01*
X0203892Y0119814D01*
X0203877Y0119843D01*
X0203866Y0119874D01*
X0203857Y0119906D01*
X0203852Y0119939D01*
X0203850Y0119972D01*
X0203850Y0120500D01*
X0205117Y0120500D01*
X0204906Y0121718D02*
X0204906Y0122562D01*
X0205750Y0122562D02*
X0205750Y0121718D01*
X0203850Y0121718D01*
X0179433Y0106728D02*
X0179433Y0105672D01*
X0179431Y0105633D01*
X0179426Y0105594D01*
X0179417Y0105557D01*
X0179405Y0105520D01*
X0179389Y0105484D01*
X0179370Y0105450D01*
X0179348Y0105418D01*
X0179323Y0105388D01*
X0179295Y0105360D01*
X0179265Y0105335D01*
X0179233Y0105313D01*
X0179199Y0105294D01*
X0179163Y0105278D01*
X0179126Y0105266D01*
X0179089Y0105257D01*
X0179050Y0105252D01*
X0179011Y0105250D01*
X0178589Y0105250D01*
X0177622Y0105250D02*
X0176567Y0105250D01*
X0177622Y0105250D02*
X0176725Y0106306D01*
X0177042Y0107150D02*
X0177090Y0107148D01*
X0177137Y0107142D01*
X0177185Y0107133D01*
X0177231Y0107120D01*
X0177276Y0107103D01*
X0177319Y0107083D01*
X0177361Y0107060D01*
X0177401Y0107033D01*
X0177438Y0107004D01*
X0177474Y0106971D01*
X0177506Y0106936D01*
X0177536Y0106898D01*
X0177562Y0106858D01*
X0177586Y0106816D01*
X0177606Y0106773D01*
X0177622Y0106728D01*
X0176725Y0106306D02*
X0176697Y0106335D01*
X0176670Y0106367D01*
X0176647Y0106401D01*
X0176626Y0106437D01*
X0176608Y0106474D01*
X0176594Y0106513D01*
X0176582Y0106552D01*
X0176574Y0106593D01*
X0176569Y0106634D01*
X0176567Y0106675D01*
X0176569Y0106716D01*
X0176574Y0106757D01*
X0176583Y0106798D01*
X0176596Y0106837D01*
X0176612Y0106876D01*
X0176631Y0106912D01*
X0176653Y0106947D01*
X0176678Y0106980D01*
X0176706Y0107011D01*
X0176737Y0107039D01*
X0176770Y0107064D01*
X0176804Y0107086D01*
X0176841Y0107105D01*
X0176880Y0107121D01*
X0176919Y0107134D01*
X0176960Y0107143D01*
X0177001Y0107148D01*
X0177042Y0107150D01*
X0178589Y0107150D02*
X0179011Y0107150D01*
X0179050Y0107148D01*
X0179089Y0107143D01*
X0179126Y0107134D01*
X0179163Y0107122D01*
X0179199Y0107106D01*
X0179233Y0107087D01*
X0179265Y0107065D01*
X0179295Y0107040D01*
X0179323Y0107012D01*
X0179348Y0106982D01*
X0179370Y0106950D01*
X0179389Y0106916D01*
X0179405Y0106880D01*
X0179417Y0106843D01*
X0179426Y0106806D01*
X0179431Y0106767D01*
X0179433Y0106728D01*
X0180022Y0098750D02*
X0180022Y0096850D01*
X0179495Y0096850D02*
X0180550Y0096850D01*
X0180550Y0098328D02*
X0180022Y0098750D01*
X0178357Y0098117D02*
X0177829Y0098117D01*
X0177794Y0098115D01*
X0177758Y0098109D01*
X0177724Y0098099D01*
X0177691Y0098086D01*
X0177660Y0098068D01*
X0177631Y0098048D01*
X0177605Y0098024D01*
X0177581Y0097998D01*
X0177561Y0097969D01*
X0177543Y0097938D01*
X0177530Y0097905D01*
X0177520Y0097871D01*
X0177514Y0097836D01*
X0177512Y0097800D01*
X0177512Y0096850D01*
X0178357Y0096850D02*
X0178357Y0098117D01*
X0176294Y0097906D02*
X0175450Y0097906D01*
X0175450Y0098750D02*
X0176294Y0098750D01*
X0176294Y0096850D01*
X0147650Y0117489D02*
X0147650Y0117911D01*
X0147650Y0117489D02*
X0147648Y0117450D01*
X0147643Y0117411D01*
X0147634Y0117374D01*
X0147621Y0117337D01*
X0147606Y0117301D01*
X0147587Y0117267D01*
X0147565Y0117235D01*
X0147540Y0117205D01*
X0147512Y0117177D01*
X0147482Y0117152D01*
X0147450Y0117130D01*
X0147416Y0117111D01*
X0147380Y0117095D01*
X0147343Y0117083D01*
X0147306Y0117074D01*
X0147267Y0117069D01*
X0147228Y0117067D01*
X0146172Y0117067D01*
X0146133Y0117069D01*
X0146094Y0117074D01*
X0146057Y0117083D01*
X0146020Y0117095D01*
X0145984Y0117111D01*
X0145950Y0117130D01*
X0145918Y0117152D01*
X0145888Y0117177D01*
X0145860Y0117205D01*
X0145835Y0117235D01*
X0145813Y0117267D01*
X0145794Y0117301D01*
X0145778Y0117337D01*
X0145766Y0117374D01*
X0145757Y0117411D01*
X0145752Y0117450D01*
X0145750Y0117489D01*
X0145750Y0117911D01*
X0145750Y0118878D02*
X0145750Y0119511D01*
X0145752Y0119550D01*
X0145757Y0119589D01*
X0145766Y0119626D01*
X0145778Y0119663D01*
X0145794Y0119699D01*
X0145813Y0119733D01*
X0145835Y0119765D01*
X0145860Y0119795D01*
X0145888Y0119823D01*
X0145918Y0119848D01*
X0145950Y0119870D01*
X0145984Y0119889D01*
X0146020Y0119905D01*
X0146057Y0119917D01*
X0146094Y0119926D01*
X0146133Y0119931D01*
X0146172Y0119933D01*
X0146383Y0119933D01*
X0146422Y0119931D01*
X0146461Y0119926D01*
X0146498Y0119917D01*
X0146535Y0119905D01*
X0146571Y0119889D01*
X0146605Y0119870D01*
X0146637Y0119848D01*
X0146667Y0119823D01*
X0146695Y0119795D01*
X0146720Y0119765D01*
X0146742Y0119733D01*
X0146761Y0119699D01*
X0146777Y0119663D01*
X0146789Y0119626D01*
X0146798Y0119589D01*
X0146803Y0119550D01*
X0146805Y0119511D01*
X0146806Y0119511D02*
X0146806Y0118878D01*
X0147650Y0118878D01*
X0147650Y0119933D01*
X0139250Y0121718D02*
X0139250Y0122562D01*
X0139250Y0121718D02*
X0137350Y0121718D01*
X0138406Y0121718D02*
X0138406Y0122562D01*
X0138617Y0120500D02*
X0137350Y0120500D01*
X0137350Y0119972D01*
X0137352Y0119939D01*
X0137357Y0119906D01*
X0137366Y0119874D01*
X0137377Y0119843D01*
X0137392Y0119814D01*
X0137411Y0119786D01*
X0137431Y0119760D01*
X0137455Y0119736D01*
X0137481Y0119716D01*
X0137509Y0119697D01*
X0137538Y0119682D01*
X0137569Y0119671D01*
X0137601Y0119662D01*
X0137634Y0119657D01*
X0137667Y0119655D01*
X0138617Y0119655D01*
X0138300Y0117462D02*
X0138229Y0117464D01*
X0138158Y0117468D01*
X0138088Y0117476D01*
X0138017Y0117488D01*
X0137948Y0117502D01*
X0137879Y0117520D01*
X0137811Y0117540D01*
X0137744Y0117564D01*
X0137678Y0117591D01*
X0137614Y0117620D01*
X0137772Y0117567D02*
X0138828Y0118412D01*
X0138986Y0118360D02*
X0139020Y0118346D01*
X0139054Y0118329D01*
X0139085Y0118309D01*
X0139114Y0118286D01*
X0139141Y0118260D01*
X0139166Y0118232D01*
X0139188Y0118202D01*
X0139206Y0118170D01*
X0139222Y0118136D01*
X0139234Y0118100D01*
X0139243Y0118064D01*
X0139248Y0118027D01*
X0139250Y0117990D01*
X0139248Y0117953D01*
X0139243Y0117916D01*
X0139234Y0117880D01*
X0139222Y0117844D01*
X0139206Y0117810D01*
X0139188Y0117778D01*
X0139166Y0117748D01*
X0139141Y0117720D01*
X0139114Y0117694D01*
X0139085Y0117671D01*
X0139054Y0117651D01*
X0139020Y0117634D01*
X0138986Y0117620D01*
X0138986Y0118360D02*
X0138922Y0118389D01*
X0138856Y0118416D01*
X0138789Y0118440D01*
X0138721Y0118460D01*
X0138652Y0118478D01*
X0138583Y0118492D01*
X0138512Y0118504D01*
X0138442Y0118512D01*
X0138371Y0118516D01*
X0138300Y0118518D01*
X0138300Y0117462D02*
X0138371Y0117464D01*
X0138442Y0117468D01*
X0138512Y0117476D01*
X0138583Y0117488D01*
X0138652Y0117502D01*
X0138721Y0117520D01*
X0138789Y0117540D01*
X0138856Y0117564D01*
X0138922Y0117591D01*
X0138986Y0117620D01*
X0138300Y0118518D02*
X0138229Y0118516D01*
X0138158Y0118512D01*
X0138088Y0118504D01*
X0138017Y0118492D01*
X0137948Y0118478D01*
X0137879Y0118460D01*
X0137811Y0118440D01*
X0137744Y0118416D01*
X0137678Y0118389D01*
X0137614Y0118360D01*
X0137580Y0118346D01*
X0137546Y0118329D01*
X0137515Y0118309D01*
X0137486Y0118286D01*
X0137458Y0118260D01*
X0137434Y0118232D01*
X0137412Y0118202D01*
X0137394Y0118170D01*
X0137378Y0118136D01*
X0137366Y0118100D01*
X0137357Y0118064D01*
X0137352Y0118027D01*
X0137350Y0117990D01*
X0137352Y0117953D01*
X0137357Y0117916D01*
X0137366Y0117880D01*
X0137378Y0117844D01*
X0137394Y0117810D01*
X0137412Y0117778D01*
X0137434Y0117748D01*
X0137458Y0117720D01*
X0137486Y0117694D01*
X0137515Y0117671D01*
X0137546Y0117651D01*
X0137580Y0117634D01*
X0137614Y0117620D01*
X0137456Y0116530D02*
X0137350Y0116530D01*
X0137350Y0116425D01*
X0137456Y0116425D01*
X0137456Y0116530D01*
X0137350Y0115494D02*
X0137350Y0114438D01*
X0137350Y0114966D02*
X0139250Y0114966D01*
X0138828Y0114438D01*
D16*
X0142520Y0116184D03*
X0142520Y0120784D03*
X0209020Y0120784D03*
X0209020Y0116184D03*
X0275270Y0116184D03*
X0275270Y0120784D03*
M02*
