G04 EAGLE Gerber RS-274X export*
G75*
%MOMM*%
%FSLAX34Y34*%
%LPD*%
%INSilkscreen Bottom*%
%IPPOS*%
%AMOC8*
5,1,8,0,0,1.08239X$1,22.5*%
G01*
%ADD10C,0.127000*%


D10*
X416786Y224155D02*
X417858Y224155D01*
X417923Y224157D01*
X417987Y224163D01*
X418051Y224173D01*
X418115Y224186D01*
X418177Y224204D01*
X418238Y224225D01*
X418298Y224249D01*
X418356Y224278D01*
X418413Y224310D01*
X418467Y224345D01*
X418519Y224383D01*
X418569Y224425D01*
X418616Y224469D01*
X418660Y224516D01*
X418702Y224566D01*
X418740Y224618D01*
X418775Y224672D01*
X418807Y224729D01*
X418836Y224787D01*
X418860Y224847D01*
X418881Y224908D01*
X418899Y224970D01*
X418912Y225034D01*
X418922Y225098D01*
X418928Y225162D01*
X418930Y225227D01*
X418931Y225227D02*
X418931Y227909D01*
X418930Y227909D02*
X418928Y227974D01*
X418922Y228038D01*
X418912Y228102D01*
X418899Y228166D01*
X418881Y228228D01*
X418860Y228289D01*
X418836Y228349D01*
X418807Y228407D01*
X418775Y228464D01*
X418740Y228518D01*
X418702Y228570D01*
X418660Y228620D01*
X418616Y228667D01*
X418569Y228711D01*
X418519Y228753D01*
X418467Y228791D01*
X418413Y228826D01*
X418356Y228858D01*
X418298Y228887D01*
X418238Y228911D01*
X418177Y228932D01*
X418115Y228950D01*
X418051Y228963D01*
X417987Y228973D01*
X417923Y228979D01*
X417858Y228981D01*
X416786Y228981D01*
X412856Y228981D02*
X412788Y228979D01*
X412721Y228973D01*
X412654Y228964D01*
X412587Y228951D01*
X412522Y228934D01*
X412457Y228913D01*
X412394Y228889D01*
X412332Y228861D01*
X412272Y228830D01*
X412214Y228796D01*
X412158Y228758D01*
X412103Y228718D01*
X412052Y228674D01*
X412003Y228627D01*
X411956Y228578D01*
X411912Y228527D01*
X411872Y228472D01*
X411834Y228416D01*
X411800Y228358D01*
X411769Y228298D01*
X411741Y228236D01*
X411717Y228173D01*
X411696Y228108D01*
X411679Y228043D01*
X411666Y227976D01*
X411657Y227909D01*
X411651Y227842D01*
X411649Y227774D01*
X412856Y228981D02*
X412934Y228979D01*
X413012Y228973D01*
X413089Y228963D01*
X413166Y228950D01*
X413242Y228932D01*
X413317Y228911D01*
X413391Y228886D01*
X413463Y228857D01*
X413534Y228825D01*
X413603Y228789D01*
X413671Y228750D01*
X413736Y228707D01*
X413799Y228661D01*
X413860Y228612D01*
X413918Y228560D01*
X413973Y228505D01*
X414026Y228448D01*
X414075Y228388D01*
X414122Y228325D01*
X414165Y228260D01*
X414205Y228194D01*
X414242Y228125D01*
X414275Y228054D01*
X414305Y227982D01*
X414331Y227908D01*
X412051Y226836D02*
X412002Y226885D01*
X411955Y226937D01*
X411912Y226992D01*
X411871Y227049D01*
X411833Y227108D01*
X411799Y227169D01*
X411768Y227232D01*
X411740Y227296D01*
X411716Y227362D01*
X411696Y227428D01*
X411679Y227496D01*
X411666Y227565D01*
X411657Y227634D01*
X411651Y227704D01*
X411649Y227774D01*
X412051Y226836D02*
X414330Y224155D01*
X411649Y224155D01*
X420427Y207645D02*
X421767Y206573D01*
X420427Y207645D02*
X420427Y202819D01*
X421767Y202819D02*
X419086Y202819D01*
X416196Y202819D02*
X416196Y206036D01*
X414855Y206036D01*
X414800Y206034D01*
X414746Y206029D01*
X414691Y206019D01*
X414638Y206006D01*
X414586Y205990D01*
X414535Y205969D01*
X414485Y205946D01*
X414437Y205919D01*
X414391Y205889D01*
X414348Y205856D01*
X414306Y205820D01*
X414267Y205781D01*
X414231Y205739D01*
X414198Y205696D01*
X414168Y205650D01*
X414141Y205602D01*
X414118Y205552D01*
X414097Y205501D01*
X414081Y205449D01*
X414068Y205396D01*
X414058Y205342D01*
X414053Y205287D01*
X414051Y205232D01*
X414051Y202819D01*
X410958Y202819D02*
X410958Y207645D01*
X408813Y207645D01*
X408813Y205500D02*
X410958Y205500D01*
X586797Y208915D02*
X588137Y207843D01*
X586797Y208915D02*
X586797Y204089D01*
X588137Y204089D02*
X585456Y204089D01*
X582566Y204089D02*
X582566Y207306D01*
X581225Y207306D01*
X581170Y207304D01*
X581116Y207299D01*
X581061Y207289D01*
X581008Y207276D01*
X580956Y207260D01*
X580905Y207239D01*
X580855Y207216D01*
X580807Y207189D01*
X580761Y207159D01*
X580718Y207126D01*
X580676Y207090D01*
X580637Y207051D01*
X580601Y207009D01*
X580568Y206966D01*
X580538Y206920D01*
X580511Y206872D01*
X580488Y206822D01*
X580467Y206771D01*
X580451Y206719D01*
X580438Y206666D01*
X580428Y206612D01*
X580423Y206557D01*
X580421Y206502D01*
X580421Y204089D01*
X577328Y204089D02*
X577328Y208915D01*
X575183Y208915D01*
X575183Y206770D02*
X577328Y206770D01*
X759517Y208915D02*
X760857Y207843D01*
X759517Y208915D02*
X759517Y204089D01*
X760857Y204089D02*
X758176Y204089D01*
X755286Y204089D02*
X755286Y207306D01*
X753945Y207306D01*
X753890Y207304D01*
X753836Y207299D01*
X753781Y207289D01*
X753728Y207276D01*
X753676Y207260D01*
X753625Y207239D01*
X753575Y207216D01*
X753527Y207189D01*
X753481Y207159D01*
X753438Y207126D01*
X753396Y207090D01*
X753357Y207051D01*
X753321Y207009D01*
X753288Y206966D01*
X753258Y206920D01*
X753231Y206872D01*
X753208Y206822D01*
X753187Y206771D01*
X753171Y206719D01*
X753158Y206666D01*
X753148Y206612D01*
X753143Y206557D01*
X753141Y206502D01*
X753141Y204089D01*
X750048Y204089D02*
X750048Y208915D01*
X747903Y208915D01*
X747903Y206770D02*
X750048Y206770D01*
X333375Y255242D02*
X333375Y256314D01*
X333375Y255242D02*
X333377Y255177D01*
X333383Y255113D01*
X333393Y255049D01*
X333406Y254985D01*
X333424Y254923D01*
X333445Y254862D01*
X333469Y254802D01*
X333498Y254744D01*
X333530Y254687D01*
X333565Y254633D01*
X333603Y254581D01*
X333645Y254531D01*
X333689Y254484D01*
X333736Y254440D01*
X333786Y254398D01*
X333838Y254360D01*
X333892Y254325D01*
X333949Y254293D01*
X334007Y254264D01*
X334067Y254240D01*
X334128Y254219D01*
X334190Y254201D01*
X334254Y254188D01*
X334318Y254178D01*
X334382Y254172D01*
X334447Y254170D01*
X334447Y254169D02*
X337129Y254169D01*
X337129Y254170D02*
X337194Y254172D01*
X337258Y254178D01*
X337322Y254188D01*
X337386Y254201D01*
X337448Y254219D01*
X337509Y254240D01*
X337569Y254264D01*
X337627Y254293D01*
X337684Y254325D01*
X337738Y254360D01*
X337790Y254398D01*
X337840Y254440D01*
X337887Y254484D01*
X337931Y254531D01*
X337973Y254581D01*
X338011Y254633D01*
X338046Y254687D01*
X338078Y254744D01*
X338107Y254802D01*
X338131Y254862D01*
X338152Y254923D01*
X338170Y254985D01*
X338183Y255049D01*
X338193Y255113D01*
X338199Y255177D01*
X338201Y255242D01*
X338201Y256314D01*
X333375Y258770D02*
X333375Y260378D01*
X333377Y260443D01*
X333383Y260507D01*
X333393Y260571D01*
X333406Y260635D01*
X333424Y260697D01*
X333445Y260758D01*
X333469Y260818D01*
X333498Y260876D01*
X333530Y260933D01*
X333565Y260987D01*
X333603Y261039D01*
X333645Y261089D01*
X333689Y261136D01*
X333736Y261180D01*
X333786Y261222D01*
X333838Y261260D01*
X333892Y261295D01*
X333949Y261327D01*
X334007Y261356D01*
X334067Y261380D01*
X334128Y261401D01*
X334190Y261419D01*
X334254Y261432D01*
X334318Y261442D01*
X334382Y261448D01*
X334447Y261450D01*
X334447Y261451D02*
X334984Y261451D01*
X334984Y261450D02*
X335049Y261448D01*
X335113Y261442D01*
X335177Y261432D01*
X335241Y261419D01*
X335303Y261401D01*
X335364Y261380D01*
X335424Y261356D01*
X335482Y261327D01*
X335539Y261295D01*
X335593Y261260D01*
X335645Y261222D01*
X335695Y261180D01*
X335742Y261136D01*
X335786Y261089D01*
X335828Y261039D01*
X335866Y260987D01*
X335901Y260933D01*
X335933Y260876D01*
X335962Y260818D01*
X335986Y260758D01*
X336007Y260697D01*
X336025Y260635D01*
X336038Y260571D01*
X336048Y260507D01*
X336054Y260443D01*
X336056Y260378D01*
X336056Y258770D01*
X338201Y258770D01*
X338201Y261451D01*
X316865Y248833D02*
X315793Y247492D01*
X316865Y248833D02*
X312039Y248833D01*
X312039Y247492D02*
X312039Y250174D01*
X312039Y252539D02*
X312307Y252539D01*
X312307Y252807D01*
X312039Y252807D01*
X312039Y252539D01*
X314452Y255173D02*
X314572Y255175D01*
X314692Y255180D01*
X314812Y255189D01*
X314932Y255202D01*
X315051Y255218D01*
X315170Y255238D01*
X315288Y255262D01*
X315405Y255289D01*
X315521Y255319D01*
X315636Y255353D01*
X315751Y255391D01*
X315864Y255432D01*
X315975Y255476D01*
X316086Y255524D01*
X316195Y255575D01*
X316195Y255576D02*
X316252Y255597D01*
X316308Y255623D01*
X316363Y255651D01*
X316415Y255683D01*
X316466Y255719D01*
X316514Y255757D01*
X316560Y255798D01*
X316603Y255842D01*
X316643Y255888D01*
X316680Y255937D01*
X316714Y255989D01*
X316745Y256042D01*
X316773Y256097D01*
X316797Y256153D01*
X316818Y256211D01*
X316835Y256270D01*
X316848Y256330D01*
X316857Y256391D01*
X316863Y256453D01*
X316865Y256514D01*
X316863Y256575D01*
X316857Y256637D01*
X316848Y256698D01*
X316835Y256758D01*
X316818Y256817D01*
X316797Y256875D01*
X316773Y256931D01*
X316745Y256986D01*
X316714Y257039D01*
X316680Y257091D01*
X316643Y257140D01*
X316603Y257186D01*
X316560Y257230D01*
X316514Y257271D01*
X316466Y257309D01*
X316415Y257345D01*
X316363Y257377D01*
X316308Y257405D01*
X316252Y257431D01*
X316195Y257452D01*
X316086Y257503D01*
X315975Y257551D01*
X315864Y257595D01*
X315751Y257636D01*
X315636Y257674D01*
X315521Y257708D01*
X315405Y257738D01*
X315288Y257765D01*
X315170Y257789D01*
X315051Y257809D01*
X314932Y257825D01*
X314812Y257838D01*
X314692Y257847D01*
X314572Y257852D01*
X314452Y257854D01*
X314452Y255174D02*
X314332Y255176D01*
X314212Y255181D01*
X314092Y255190D01*
X313972Y255203D01*
X313853Y255219D01*
X313734Y255239D01*
X313616Y255263D01*
X313499Y255290D01*
X313383Y255320D01*
X313268Y255354D01*
X313153Y255392D01*
X313040Y255433D01*
X312929Y255477D01*
X312818Y255525D01*
X312709Y255576D01*
X312652Y255597D01*
X312596Y255623D01*
X312541Y255651D01*
X312489Y255683D01*
X312438Y255719D01*
X312390Y255757D01*
X312344Y255798D01*
X312301Y255842D01*
X312261Y255888D01*
X312224Y255937D01*
X312190Y255989D01*
X312159Y256042D01*
X312131Y256097D01*
X312107Y256153D01*
X312086Y256211D01*
X312069Y256270D01*
X312056Y256330D01*
X312047Y256391D01*
X312041Y256453D01*
X312039Y256514D01*
X312709Y257452D02*
X312818Y257503D01*
X312929Y257551D01*
X313040Y257595D01*
X313153Y257636D01*
X313268Y257674D01*
X313383Y257708D01*
X313499Y257738D01*
X313616Y257765D01*
X313734Y257789D01*
X313853Y257809D01*
X313972Y257825D01*
X314092Y257838D01*
X314212Y257847D01*
X314332Y257852D01*
X314452Y257854D01*
X312709Y257452D02*
X312652Y257431D01*
X312596Y257405D01*
X312541Y257377D01*
X312489Y257345D01*
X312438Y257309D01*
X312390Y257271D01*
X312344Y257230D01*
X312301Y257186D01*
X312261Y257139D01*
X312224Y257091D01*
X312190Y257039D01*
X312159Y256986D01*
X312131Y256931D01*
X312107Y256875D01*
X312086Y256817D01*
X312069Y256758D01*
X312056Y256698D01*
X312047Y256637D01*
X312041Y256575D01*
X312039Y256514D01*
X313111Y255441D02*
X315793Y257586D01*
X315256Y260745D02*
X312843Y260745D01*
X312788Y260747D01*
X312734Y260752D01*
X312679Y260762D01*
X312626Y260775D01*
X312574Y260791D01*
X312523Y260812D01*
X312473Y260835D01*
X312425Y260862D01*
X312379Y260892D01*
X312336Y260925D01*
X312294Y260961D01*
X312255Y261000D01*
X312219Y261042D01*
X312186Y261085D01*
X312156Y261131D01*
X312129Y261179D01*
X312106Y261229D01*
X312085Y261280D01*
X312069Y261332D01*
X312056Y261385D01*
X312046Y261440D01*
X312041Y261494D01*
X312039Y261549D01*
X312039Y262890D01*
X315256Y262890D01*
X316865Y265983D02*
X312039Y265983D01*
X316865Y265983D02*
X316865Y268128D01*
X314720Y268128D02*
X314720Y265983D01*
X502285Y256314D02*
X502285Y255242D01*
X502287Y255177D01*
X502293Y255113D01*
X502303Y255049D01*
X502316Y254985D01*
X502334Y254923D01*
X502355Y254862D01*
X502379Y254802D01*
X502408Y254744D01*
X502440Y254687D01*
X502475Y254633D01*
X502513Y254581D01*
X502555Y254531D01*
X502599Y254484D01*
X502646Y254440D01*
X502696Y254398D01*
X502748Y254360D01*
X502802Y254325D01*
X502859Y254293D01*
X502917Y254264D01*
X502977Y254240D01*
X503038Y254219D01*
X503100Y254201D01*
X503164Y254188D01*
X503228Y254178D01*
X503292Y254172D01*
X503357Y254170D01*
X503357Y254169D02*
X506039Y254169D01*
X506039Y254170D02*
X506104Y254172D01*
X506168Y254178D01*
X506232Y254188D01*
X506296Y254201D01*
X506358Y254219D01*
X506419Y254240D01*
X506479Y254264D01*
X506537Y254293D01*
X506594Y254325D01*
X506648Y254360D01*
X506700Y254398D01*
X506750Y254440D01*
X506797Y254484D01*
X506841Y254531D01*
X506883Y254581D01*
X506921Y254633D01*
X506956Y254687D01*
X506988Y254744D01*
X507017Y254802D01*
X507041Y254862D01*
X507062Y254923D01*
X507080Y254985D01*
X507093Y255049D01*
X507103Y255113D01*
X507109Y255177D01*
X507111Y255242D01*
X507111Y256314D01*
X504966Y258770D02*
X504966Y260378D01*
X504964Y260443D01*
X504958Y260507D01*
X504948Y260571D01*
X504935Y260635D01*
X504917Y260697D01*
X504896Y260758D01*
X504872Y260818D01*
X504843Y260876D01*
X504811Y260933D01*
X504776Y260987D01*
X504738Y261039D01*
X504696Y261089D01*
X504652Y261136D01*
X504605Y261180D01*
X504555Y261222D01*
X504503Y261260D01*
X504449Y261295D01*
X504392Y261327D01*
X504334Y261356D01*
X504274Y261380D01*
X504213Y261401D01*
X504151Y261419D01*
X504087Y261432D01*
X504023Y261442D01*
X503959Y261448D01*
X503894Y261450D01*
X503894Y261451D02*
X503626Y261451D01*
X503555Y261449D01*
X503483Y261443D01*
X503413Y261434D01*
X503343Y261421D01*
X503273Y261404D01*
X503205Y261383D01*
X503138Y261359D01*
X503072Y261331D01*
X503008Y261300D01*
X502945Y261265D01*
X502885Y261227D01*
X502826Y261186D01*
X502770Y261142D01*
X502716Y261095D01*
X502665Y261046D01*
X502617Y260993D01*
X502571Y260938D01*
X502529Y260881D01*
X502489Y260821D01*
X502453Y260760D01*
X502420Y260696D01*
X502391Y260631D01*
X502365Y260565D01*
X502342Y260497D01*
X502323Y260428D01*
X502308Y260358D01*
X502297Y260288D01*
X502289Y260217D01*
X502285Y260146D01*
X502285Y260074D01*
X502289Y260003D01*
X502297Y259932D01*
X502308Y259862D01*
X502323Y259792D01*
X502342Y259723D01*
X502365Y259655D01*
X502391Y259589D01*
X502420Y259524D01*
X502453Y259460D01*
X502489Y259399D01*
X502529Y259339D01*
X502571Y259282D01*
X502617Y259227D01*
X502665Y259174D01*
X502716Y259125D01*
X502770Y259078D01*
X502826Y259034D01*
X502885Y258993D01*
X502945Y258955D01*
X503008Y258920D01*
X503072Y258889D01*
X503138Y258861D01*
X503205Y258837D01*
X503273Y258816D01*
X503343Y258799D01*
X503413Y258786D01*
X503483Y258777D01*
X503555Y258771D01*
X503626Y258769D01*
X503626Y258770D02*
X504966Y258770D01*
X505057Y258772D01*
X505148Y258778D01*
X505238Y258787D01*
X505329Y258801D01*
X505418Y258818D01*
X505506Y258839D01*
X505594Y258864D01*
X505681Y258893D01*
X505766Y258925D01*
X505850Y258960D01*
X505932Y259000D01*
X506012Y259042D01*
X506091Y259088D01*
X506167Y259138D01*
X506241Y259190D01*
X506314Y259246D01*
X506383Y259305D01*
X506450Y259366D01*
X506515Y259431D01*
X506576Y259498D01*
X506635Y259567D01*
X506691Y259639D01*
X506743Y259714D01*
X506793Y259790D01*
X506839Y259869D01*
X506881Y259949D01*
X506921Y260031D01*
X506956Y260115D01*
X506988Y260200D01*
X507017Y260287D01*
X507042Y260374D01*
X507063Y260463D01*
X507080Y260552D01*
X507094Y260643D01*
X507103Y260733D01*
X507109Y260824D01*
X507111Y260915D01*
X485775Y248833D02*
X484703Y247492D01*
X485775Y248833D02*
X480949Y248833D01*
X480949Y247492D02*
X480949Y250174D01*
X480949Y252539D02*
X481217Y252539D01*
X481217Y252807D01*
X480949Y252807D01*
X480949Y252539D01*
X483362Y255173D02*
X483482Y255175D01*
X483602Y255180D01*
X483722Y255189D01*
X483842Y255202D01*
X483961Y255218D01*
X484080Y255238D01*
X484198Y255262D01*
X484315Y255289D01*
X484431Y255319D01*
X484546Y255353D01*
X484661Y255391D01*
X484774Y255432D01*
X484885Y255476D01*
X484996Y255524D01*
X485105Y255575D01*
X485105Y255576D02*
X485162Y255597D01*
X485218Y255623D01*
X485273Y255651D01*
X485325Y255683D01*
X485376Y255719D01*
X485424Y255757D01*
X485470Y255798D01*
X485513Y255842D01*
X485553Y255888D01*
X485590Y255937D01*
X485624Y255989D01*
X485655Y256042D01*
X485683Y256097D01*
X485707Y256153D01*
X485728Y256211D01*
X485745Y256270D01*
X485758Y256330D01*
X485767Y256391D01*
X485773Y256453D01*
X485775Y256514D01*
X485773Y256575D01*
X485767Y256637D01*
X485758Y256698D01*
X485745Y256758D01*
X485728Y256817D01*
X485707Y256875D01*
X485683Y256931D01*
X485655Y256986D01*
X485624Y257039D01*
X485590Y257091D01*
X485553Y257140D01*
X485513Y257186D01*
X485470Y257230D01*
X485424Y257271D01*
X485376Y257309D01*
X485325Y257345D01*
X485273Y257377D01*
X485218Y257405D01*
X485162Y257431D01*
X485105Y257452D01*
X484996Y257503D01*
X484885Y257551D01*
X484774Y257595D01*
X484661Y257636D01*
X484546Y257674D01*
X484431Y257708D01*
X484315Y257738D01*
X484198Y257765D01*
X484080Y257789D01*
X483961Y257809D01*
X483842Y257825D01*
X483722Y257838D01*
X483602Y257847D01*
X483482Y257852D01*
X483362Y257854D01*
X483362Y255174D02*
X483242Y255176D01*
X483122Y255181D01*
X483002Y255190D01*
X482882Y255203D01*
X482763Y255219D01*
X482644Y255239D01*
X482526Y255263D01*
X482409Y255290D01*
X482293Y255320D01*
X482178Y255354D01*
X482063Y255392D01*
X481950Y255433D01*
X481839Y255477D01*
X481728Y255525D01*
X481619Y255576D01*
X481562Y255597D01*
X481506Y255623D01*
X481451Y255651D01*
X481399Y255683D01*
X481348Y255719D01*
X481300Y255757D01*
X481254Y255798D01*
X481211Y255842D01*
X481171Y255888D01*
X481134Y255937D01*
X481100Y255989D01*
X481069Y256042D01*
X481041Y256097D01*
X481017Y256153D01*
X480996Y256211D01*
X480979Y256270D01*
X480966Y256330D01*
X480957Y256391D01*
X480951Y256453D01*
X480949Y256514D01*
X481619Y257452D02*
X481728Y257503D01*
X481839Y257551D01*
X481950Y257595D01*
X482063Y257636D01*
X482178Y257674D01*
X482293Y257708D01*
X482409Y257738D01*
X482526Y257765D01*
X482644Y257789D01*
X482763Y257809D01*
X482882Y257825D01*
X483002Y257838D01*
X483122Y257847D01*
X483242Y257852D01*
X483362Y257854D01*
X481619Y257452D02*
X481562Y257431D01*
X481506Y257405D01*
X481451Y257377D01*
X481399Y257345D01*
X481348Y257309D01*
X481300Y257271D01*
X481254Y257230D01*
X481211Y257186D01*
X481171Y257139D01*
X481134Y257091D01*
X481100Y257039D01*
X481069Y256986D01*
X481041Y256931D01*
X481017Y256875D01*
X480996Y256817D01*
X480979Y256758D01*
X480966Y256698D01*
X480957Y256637D01*
X480951Y256575D01*
X480949Y256514D01*
X482021Y255441D02*
X484703Y257586D01*
X484166Y260745D02*
X481753Y260745D01*
X481698Y260747D01*
X481644Y260752D01*
X481589Y260762D01*
X481536Y260775D01*
X481484Y260791D01*
X481433Y260812D01*
X481383Y260835D01*
X481335Y260862D01*
X481289Y260892D01*
X481246Y260925D01*
X481204Y260961D01*
X481165Y261000D01*
X481129Y261042D01*
X481096Y261085D01*
X481066Y261131D01*
X481039Y261179D01*
X481016Y261229D01*
X480995Y261280D01*
X480979Y261332D01*
X480966Y261385D01*
X480956Y261440D01*
X480951Y261494D01*
X480949Y261549D01*
X480949Y262890D01*
X484166Y262890D01*
X485775Y265983D02*
X480949Y265983D01*
X485775Y265983D02*
X485775Y268128D01*
X483630Y268128D02*
X483630Y265983D01*
X670560Y256314D02*
X670560Y255242D01*
X670562Y255177D01*
X670568Y255113D01*
X670578Y255049D01*
X670591Y254985D01*
X670609Y254923D01*
X670630Y254862D01*
X670654Y254802D01*
X670683Y254744D01*
X670715Y254687D01*
X670750Y254633D01*
X670788Y254581D01*
X670830Y254531D01*
X670874Y254484D01*
X670921Y254440D01*
X670971Y254398D01*
X671023Y254360D01*
X671077Y254325D01*
X671134Y254293D01*
X671192Y254264D01*
X671252Y254240D01*
X671313Y254219D01*
X671375Y254201D01*
X671439Y254188D01*
X671503Y254178D01*
X671567Y254172D01*
X671632Y254170D01*
X671632Y254169D02*
X674314Y254169D01*
X674314Y254170D02*
X674379Y254172D01*
X674443Y254178D01*
X674507Y254188D01*
X674571Y254201D01*
X674633Y254219D01*
X674694Y254240D01*
X674754Y254264D01*
X674812Y254293D01*
X674869Y254325D01*
X674923Y254360D01*
X674975Y254398D01*
X675025Y254440D01*
X675072Y254484D01*
X675116Y254531D01*
X675158Y254581D01*
X675196Y254633D01*
X675231Y254687D01*
X675263Y254744D01*
X675292Y254802D01*
X675316Y254862D01*
X675337Y254923D01*
X675355Y254985D01*
X675368Y255049D01*
X675378Y255113D01*
X675384Y255177D01*
X675386Y255242D01*
X675386Y256314D01*
X675386Y258770D02*
X674850Y258770D01*
X675386Y258770D02*
X675386Y261451D01*
X670560Y260110D01*
X654050Y248833D02*
X652978Y247492D01*
X654050Y248833D02*
X649224Y248833D01*
X649224Y247492D02*
X649224Y250174D01*
X649224Y252539D02*
X649492Y252539D01*
X649492Y252807D01*
X649224Y252807D01*
X649224Y252539D01*
X651637Y255173D02*
X651757Y255175D01*
X651877Y255180D01*
X651997Y255189D01*
X652117Y255202D01*
X652236Y255218D01*
X652355Y255238D01*
X652473Y255262D01*
X652590Y255289D01*
X652706Y255319D01*
X652821Y255353D01*
X652936Y255391D01*
X653049Y255432D01*
X653160Y255476D01*
X653271Y255524D01*
X653380Y255575D01*
X653380Y255576D02*
X653437Y255597D01*
X653493Y255623D01*
X653548Y255651D01*
X653600Y255683D01*
X653651Y255719D01*
X653699Y255757D01*
X653745Y255798D01*
X653788Y255842D01*
X653828Y255888D01*
X653865Y255937D01*
X653899Y255989D01*
X653930Y256042D01*
X653958Y256097D01*
X653982Y256153D01*
X654003Y256211D01*
X654020Y256270D01*
X654033Y256330D01*
X654042Y256391D01*
X654048Y256453D01*
X654050Y256514D01*
X654048Y256575D01*
X654042Y256637D01*
X654033Y256698D01*
X654020Y256758D01*
X654003Y256817D01*
X653982Y256875D01*
X653958Y256931D01*
X653930Y256986D01*
X653899Y257039D01*
X653865Y257091D01*
X653828Y257140D01*
X653788Y257186D01*
X653745Y257230D01*
X653699Y257271D01*
X653651Y257309D01*
X653600Y257345D01*
X653548Y257377D01*
X653493Y257405D01*
X653437Y257431D01*
X653380Y257452D01*
X653271Y257503D01*
X653160Y257551D01*
X653049Y257595D01*
X652936Y257636D01*
X652821Y257674D01*
X652706Y257708D01*
X652590Y257738D01*
X652473Y257765D01*
X652355Y257789D01*
X652236Y257809D01*
X652117Y257825D01*
X651997Y257838D01*
X651877Y257847D01*
X651757Y257852D01*
X651637Y257854D01*
X651637Y255174D02*
X651517Y255176D01*
X651397Y255181D01*
X651277Y255190D01*
X651157Y255203D01*
X651038Y255219D01*
X650919Y255239D01*
X650801Y255263D01*
X650684Y255290D01*
X650568Y255320D01*
X650453Y255354D01*
X650338Y255392D01*
X650225Y255433D01*
X650114Y255477D01*
X650003Y255525D01*
X649894Y255576D01*
X649837Y255597D01*
X649781Y255623D01*
X649726Y255651D01*
X649674Y255683D01*
X649623Y255719D01*
X649575Y255757D01*
X649529Y255798D01*
X649486Y255842D01*
X649446Y255888D01*
X649409Y255937D01*
X649375Y255989D01*
X649344Y256042D01*
X649316Y256097D01*
X649292Y256153D01*
X649271Y256211D01*
X649254Y256270D01*
X649241Y256330D01*
X649232Y256391D01*
X649226Y256453D01*
X649224Y256514D01*
X649894Y257452D02*
X650003Y257503D01*
X650114Y257551D01*
X650225Y257595D01*
X650338Y257636D01*
X650453Y257674D01*
X650568Y257708D01*
X650684Y257738D01*
X650801Y257765D01*
X650919Y257789D01*
X651038Y257809D01*
X651157Y257825D01*
X651277Y257838D01*
X651397Y257847D01*
X651517Y257852D01*
X651637Y257854D01*
X649894Y257452D02*
X649837Y257431D01*
X649781Y257405D01*
X649726Y257377D01*
X649674Y257345D01*
X649623Y257309D01*
X649575Y257271D01*
X649529Y257230D01*
X649486Y257186D01*
X649446Y257139D01*
X649409Y257091D01*
X649375Y257039D01*
X649344Y256986D01*
X649316Y256931D01*
X649292Y256875D01*
X649271Y256817D01*
X649254Y256758D01*
X649241Y256698D01*
X649232Y256637D01*
X649226Y256575D01*
X649224Y256514D01*
X650296Y255441D02*
X652978Y257586D01*
X652441Y260745D02*
X650028Y260745D01*
X649973Y260747D01*
X649919Y260752D01*
X649864Y260762D01*
X649811Y260775D01*
X649759Y260791D01*
X649708Y260812D01*
X649658Y260835D01*
X649610Y260862D01*
X649564Y260892D01*
X649521Y260925D01*
X649479Y260961D01*
X649440Y261000D01*
X649404Y261042D01*
X649371Y261085D01*
X649341Y261131D01*
X649314Y261179D01*
X649291Y261229D01*
X649270Y261280D01*
X649254Y261332D01*
X649241Y261385D01*
X649231Y261440D01*
X649226Y261494D01*
X649224Y261549D01*
X649224Y262890D01*
X652441Y262890D01*
X654050Y265983D02*
X649224Y265983D01*
X654050Y265983D02*
X654050Y268128D01*
X651905Y268128D02*
X651905Y265983D01*
M02*
