G75*
%MOIN*%
%OFA0B0*%
%FSLAX25Y25*%
%IPPOS*%
%LPD*%
%AMOC8*
5,1,8,0,0,1.08239X$1,22.5*
%
%ADD10C,0.00394*%
%ADD11C,0.00400*%
%ADD12R,0.03740X0.01969*%
%ADD13C,0.00500*%
%ADD14C,0.00600*%
%ADD15R,0.12205X0.03346*%
%ADD16C,0.00197*%
%ADD17C,0.00787*%
%ADD18R,0.01969X0.03740*%
D10*
X0001346Y0013008D02*
X0001346Y0207890D01*
X0001349Y0208175D01*
X0001360Y0208461D01*
X0001377Y0208746D01*
X0001401Y0209030D01*
X0001432Y0209314D01*
X0001470Y0209597D01*
X0001515Y0209878D01*
X0001566Y0210159D01*
X0001624Y0210439D01*
X0001689Y0210717D01*
X0001761Y0210993D01*
X0001839Y0211267D01*
X0001924Y0211540D01*
X0002016Y0211810D01*
X0002114Y0212078D01*
X0002218Y0212344D01*
X0002329Y0212607D01*
X0002446Y0212867D01*
X0002569Y0213125D01*
X0002699Y0213379D01*
X0002835Y0213630D01*
X0002976Y0213878D01*
X0003124Y0214122D01*
X0003277Y0214363D01*
X0003437Y0214599D01*
X0003602Y0214832D01*
X0003772Y0215061D01*
X0003948Y0215286D01*
X0004130Y0215506D01*
X0004316Y0215722D01*
X0004508Y0215933D01*
X0004705Y0216140D01*
X0004907Y0216342D01*
X0005114Y0216539D01*
X0005325Y0216731D01*
X0005541Y0216917D01*
X0005761Y0217099D01*
X0005986Y0217275D01*
X0006215Y0217445D01*
X0006448Y0217610D01*
X0006684Y0217770D01*
X0006925Y0217923D01*
X0007169Y0218071D01*
X0007417Y0218212D01*
X0007668Y0218348D01*
X0007922Y0218478D01*
X0008180Y0218601D01*
X0008440Y0218718D01*
X0008703Y0218829D01*
X0008969Y0218933D01*
X0009237Y0219031D01*
X0009507Y0219123D01*
X0009780Y0219208D01*
X0010054Y0219286D01*
X0010330Y0219358D01*
X0010608Y0219423D01*
X0010888Y0219481D01*
X0011169Y0219532D01*
X0011450Y0219577D01*
X0011733Y0219615D01*
X0012017Y0219646D01*
X0012301Y0219670D01*
X0012586Y0219687D01*
X0012872Y0219698D01*
X0013157Y0219701D01*
X0239535Y0219701D01*
X0239820Y0219698D01*
X0240106Y0219687D01*
X0240391Y0219670D01*
X0240675Y0219646D01*
X0240959Y0219615D01*
X0241242Y0219577D01*
X0241523Y0219532D01*
X0241804Y0219481D01*
X0242084Y0219423D01*
X0242362Y0219358D01*
X0242638Y0219286D01*
X0242912Y0219208D01*
X0243185Y0219123D01*
X0243455Y0219031D01*
X0243723Y0218933D01*
X0243989Y0218829D01*
X0244252Y0218718D01*
X0244512Y0218601D01*
X0244770Y0218478D01*
X0245024Y0218348D01*
X0245275Y0218212D01*
X0245523Y0218071D01*
X0245767Y0217923D01*
X0246008Y0217770D01*
X0246244Y0217610D01*
X0246477Y0217445D01*
X0246706Y0217275D01*
X0246931Y0217099D01*
X0247151Y0216917D01*
X0247367Y0216731D01*
X0247578Y0216539D01*
X0247785Y0216342D01*
X0247987Y0216140D01*
X0248184Y0215933D01*
X0248376Y0215722D01*
X0248562Y0215506D01*
X0248744Y0215286D01*
X0248920Y0215061D01*
X0249090Y0214832D01*
X0249255Y0214599D01*
X0249415Y0214363D01*
X0249568Y0214122D01*
X0249716Y0213878D01*
X0249857Y0213630D01*
X0249993Y0213379D01*
X0250123Y0213125D01*
X0250246Y0212867D01*
X0250363Y0212607D01*
X0250474Y0212344D01*
X0250578Y0212078D01*
X0250676Y0211810D01*
X0250768Y0211540D01*
X0250853Y0211267D01*
X0250931Y0210993D01*
X0251003Y0210717D01*
X0251068Y0210439D01*
X0251126Y0210159D01*
X0251177Y0209878D01*
X0251222Y0209597D01*
X0251260Y0209314D01*
X0251291Y0209030D01*
X0251315Y0208746D01*
X0251332Y0208461D01*
X0251343Y0208175D01*
X0251346Y0207890D01*
X0251346Y0013008D01*
X0251343Y0012723D01*
X0251332Y0012437D01*
X0251315Y0012152D01*
X0251291Y0011868D01*
X0251260Y0011584D01*
X0251222Y0011301D01*
X0251177Y0011020D01*
X0251126Y0010739D01*
X0251068Y0010459D01*
X0251003Y0010181D01*
X0250931Y0009905D01*
X0250853Y0009631D01*
X0250768Y0009358D01*
X0250676Y0009088D01*
X0250578Y0008820D01*
X0250474Y0008554D01*
X0250363Y0008291D01*
X0250246Y0008031D01*
X0250123Y0007773D01*
X0249993Y0007519D01*
X0249857Y0007268D01*
X0249716Y0007020D01*
X0249568Y0006776D01*
X0249415Y0006535D01*
X0249255Y0006299D01*
X0249090Y0006066D01*
X0248920Y0005837D01*
X0248744Y0005612D01*
X0248562Y0005392D01*
X0248376Y0005176D01*
X0248184Y0004965D01*
X0247987Y0004758D01*
X0247785Y0004556D01*
X0247578Y0004359D01*
X0247367Y0004167D01*
X0247151Y0003981D01*
X0246931Y0003799D01*
X0246706Y0003623D01*
X0246477Y0003453D01*
X0246244Y0003288D01*
X0246008Y0003128D01*
X0245767Y0002975D01*
X0245523Y0002827D01*
X0245275Y0002686D01*
X0245024Y0002550D01*
X0244770Y0002420D01*
X0244512Y0002297D01*
X0244252Y0002180D01*
X0243989Y0002069D01*
X0243723Y0001965D01*
X0243455Y0001867D01*
X0243185Y0001775D01*
X0242912Y0001690D01*
X0242638Y0001612D01*
X0242362Y0001540D01*
X0242084Y0001475D01*
X0241804Y0001417D01*
X0241523Y0001366D01*
X0241242Y0001321D01*
X0240959Y0001283D01*
X0240675Y0001252D01*
X0240391Y0001228D01*
X0240106Y0001211D01*
X0239820Y0001200D01*
X0239535Y0001197D01*
X0013157Y0001197D01*
X0012872Y0001200D01*
X0012586Y0001211D01*
X0012301Y0001228D01*
X0012017Y0001252D01*
X0011733Y0001283D01*
X0011450Y0001321D01*
X0011169Y0001366D01*
X0010888Y0001417D01*
X0010608Y0001475D01*
X0010330Y0001540D01*
X0010054Y0001612D01*
X0009780Y0001690D01*
X0009507Y0001775D01*
X0009237Y0001867D01*
X0008969Y0001965D01*
X0008703Y0002069D01*
X0008440Y0002180D01*
X0008180Y0002297D01*
X0007922Y0002420D01*
X0007668Y0002550D01*
X0007417Y0002686D01*
X0007169Y0002827D01*
X0006925Y0002975D01*
X0006684Y0003128D01*
X0006448Y0003288D01*
X0006215Y0003453D01*
X0005986Y0003623D01*
X0005761Y0003799D01*
X0005541Y0003981D01*
X0005325Y0004167D01*
X0005114Y0004359D01*
X0004907Y0004556D01*
X0004705Y0004758D01*
X0004508Y0004965D01*
X0004316Y0005176D01*
X0004130Y0005392D01*
X0003948Y0005612D01*
X0003772Y0005837D01*
X0003602Y0006066D01*
X0003437Y0006299D01*
X0003277Y0006535D01*
X0003124Y0006776D01*
X0002976Y0007020D01*
X0002835Y0007268D01*
X0002699Y0007519D01*
X0002569Y0007773D01*
X0002446Y0008031D01*
X0002329Y0008291D01*
X0002218Y0008554D01*
X0002114Y0008820D01*
X0002016Y0009088D01*
X0001924Y0009358D01*
X0001839Y0009631D01*
X0001761Y0009905D01*
X0001689Y0010181D01*
X0001624Y0010459D01*
X0001566Y0010739D01*
X0001515Y0011020D01*
X0001470Y0011301D01*
X0001432Y0011584D01*
X0001401Y0011868D01*
X0001377Y0012152D01*
X0001360Y0012437D01*
X0001349Y0012723D01*
X0001346Y0013008D01*
X0096031Y0132012D02*
X0145243Y0132012D01*
X0145243Y0156028D01*
X0096031Y0156028D01*
X0096031Y0132012D01*
X0096031Y0154059D02*
X0097999Y0156028D01*
D11*
X0089866Y0154879D02*
X0089866Y0153602D01*
X0085266Y0153602D01*
X0085266Y0154879D01*
X0085268Y0154948D01*
X0085273Y0155017D01*
X0085283Y0155086D01*
X0085296Y0155154D01*
X0085313Y0155221D01*
X0085333Y0155287D01*
X0085357Y0155352D01*
X0085384Y0155416D01*
X0085415Y0155478D01*
X0085449Y0155538D01*
X0085486Y0155596D01*
X0085527Y0155652D01*
X0085570Y0155706D01*
X0085616Y0155758D01*
X0085665Y0155807D01*
X0085717Y0155853D01*
X0085771Y0155896D01*
X0085827Y0155937D01*
X0085885Y0155974D01*
X0085945Y0156008D01*
X0086007Y0156039D01*
X0086071Y0156066D01*
X0086136Y0156090D01*
X0086202Y0156110D01*
X0086269Y0156127D01*
X0086337Y0156140D01*
X0086406Y0156150D01*
X0086475Y0156155D01*
X0086544Y0156157D01*
X0088588Y0156157D01*
X0088657Y0156155D01*
X0088726Y0156150D01*
X0088795Y0156140D01*
X0088863Y0156127D01*
X0088930Y0156110D01*
X0088996Y0156090D01*
X0089061Y0156066D01*
X0089125Y0156039D01*
X0089187Y0156008D01*
X0089247Y0155974D01*
X0089305Y0155937D01*
X0089361Y0155896D01*
X0089415Y0155853D01*
X0089467Y0155807D01*
X0089516Y0155758D01*
X0089562Y0155706D01*
X0089605Y0155652D01*
X0089646Y0155596D01*
X0089683Y0155538D01*
X0089717Y0155478D01*
X0089748Y0155416D01*
X0089775Y0155352D01*
X0089799Y0155287D01*
X0089819Y0155221D01*
X0089836Y0155154D01*
X0089849Y0155086D01*
X0089859Y0155017D01*
X0089864Y0154948D01*
X0089866Y0154879D01*
X0088844Y0158239D02*
X0086288Y0158239D01*
X0086226Y0158241D01*
X0086165Y0158246D01*
X0086104Y0158256D01*
X0086043Y0158269D01*
X0085984Y0158285D01*
X0085926Y0158305D01*
X0085869Y0158329D01*
X0085813Y0158356D01*
X0085759Y0158386D01*
X0085707Y0158420D01*
X0085658Y0158456D01*
X0085610Y0158496D01*
X0085565Y0158538D01*
X0085523Y0158583D01*
X0085483Y0158631D01*
X0085447Y0158680D01*
X0085413Y0158732D01*
X0085383Y0158786D01*
X0085356Y0158842D01*
X0085332Y0158899D01*
X0085312Y0158957D01*
X0085296Y0159016D01*
X0085283Y0159077D01*
X0085273Y0159138D01*
X0085268Y0159199D01*
X0085266Y0159261D01*
X0085266Y0160283D01*
X0085266Y0161746D02*
X0089866Y0163279D01*
X0085266Y0164813D01*
X0086416Y0164429D02*
X0086416Y0162129D01*
X0089866Y0159261D02*
X0089864Y0159199D01*
X0089859Y0159138D01*
X0089849Y0159077D01*
X0089836Y0159016D01*
X0089820Y0158957D01*
X0089800Y0158899D01*
X0089776Y0158842D01*
X0089749Y0158786D01*
X0089719Y0158732D01*
X0089685Y0158680D01*
X0089648Y0158631D01*
X0089609Y0158583D01*
X0089567Y0158538D01*
X0089522Y0158496D01*
X0089474Y0158456D01*
X0089425Y0158420D01*
X0089373Y0158386D01*
X0089319Y0158356D01*
X0089263Y0158329D01*
X0089206Y0158305D01*
X0089148Y0158285D01*
X0089089Y0158269D01*
X0089028Y0158256D01*
X0088967Y0158246D01*
X0088906Y0158241D01*
X0088844Y0158239D01*
X0089866Y0159261D02*
X0089866Y0160283D01*
X0089866Y0150485D02*
X0089866Y0148952D01*
X0089866Y0150485D02*
X0089864Y0150548D01*
X0089858Y0150611D01*
X0089849Y0150673D01*
X0089835Y0150734D01*
X0089818Y0150795D01*
X0089797Y0150854D01*
X0089772Y0150912D01*
X0089744Y0150969D01*
X0089713Y0151023D01*
X0089678Y0151075D01*
X0089640Y0151126D01*
X0089599Y0151174D01*
X0089555Y0151219D01*
X0089509Y0151261D01*
X0089460Y0151301D01*
X0089409Y0151337D01*
X0089355Y0151370D01*
X0089300Y0151400D01*
X0089242Y0151426D01*
X0089184Y0151449D01*
X0089124Y0151468D01*
X0089063Y0151483D01*
X0089001Y0151495D01*
X0088938Y0151503D01*
X0088875Y0151507D01*
X0088813Y0151507D01*
X0088750Y0151503D01*
X0088687Y0151495D01*
X0088625Y0151483D01*
X0088564Y0151468D01*
X0088504Y0151449D01*
X0088446Y0151426D01*
X0088388Y0151400D01*
X0088333Y0151370D01*
X0088279Y0151337D01*
X0088228Y0151301D01*
X0088179Y0151261D01*
X0088133Y0151219D01*
X0088089Y0151174D01*
X0088048Y0151126D01*
X0088010Y0151075D01*
X0087975Y0151023D01*
X0087944Y0150969D01*
X0087916Y0150912D01*
X0087891Y0150854D01*
X0087870Y0150795D01*
X0087853Y0150734D01*
X0087839Y0150673D01*
X0087830Y0150611D01*
X0087824Y0150548D01*
X0087822Y0150485D01*
X0087822Y0149463D01*
X0085905Y0144835D02*
X0086009Y0144787D01*
X0086114Y0144741D01*
X0086220Y0144699D01*
X0086328Y0144660D01*
X0086437Y0144624D01*
X0086547Y0144592D01*
X0086658Y0144562D01*
X0086770Y0144537D01*
X0086882Y0144514D01*
X0086995Y0144495D01*
X0087109Y0144480D01*
X0087223Y0144468D01*
X0087337Y0144459D01*
X0087451Y0144454D01*
X0087566Y0144452D01*
X0087566Y0147008D02*
X0087681Y0147006D01*
X0087795Y0147001D01*
X0087909Y0146992D01*
X0088023Y0146980D01*
X0088137Y0146965D01*
X0088250Y0146946D01*
X0088362Y0146923D01*
X0088474Y0146898D01*
X0088585Y0146868D01*
X0088695Y0146836D01*
X0088804Y0146800D01*
X0088912Y0146761D01*
X0089018Y0146719D01*
X0089123Y0146673D01*
X0089227Y0146625D01*
X0088844Y0146752D02*
X0086288Y0144707D01*
X0085266Y0145729D02*
X0085268Y0145788D01*
X0085273Y0145846D01*
X0085282Y0145904D01*
X0085295Y0145961D01*
X0085311Y0146018D01*
X0085331Y0146073D01*
X0085354Y0146127D01*
X0085380Y0146179D01*
X0085410Y0146230D01*
X0085442Y0146279D01*
X0085478Y0146326D01*
X0085516Y0146370D01*
X0085557Y0146412D01*
X0085601Y0146451D01*
X0085647Y0146488D01*
X0085695Y0146521D01*
X0085745Y0146552D01*
X0085797Y0146579D01*
X0085850Y0146603D01*
X0085905Y0146624D01*
X0085266Y0145729D02*
X0085268Y0145670D01*
X0085273Y0145612D01*
X0085282Y0145554D01*
X0085295Y0145497D01*
X0085311Y0145440D01*
X0085331Y0145385D01*
X0085354Y0145331D01*
X0085380Y0145279D01*
X0085410Y0145228D01*
X0085442Y0145179D01*
X0085478Y0145132D01*
X0085516Y0145088D01*
X0085557Y0145046D01*
X0085601Y0145007D01*
X0085647Y0144970D01*
X0085695Y0144937D01*
X0085745Y0144906D01*
X0085797Y0144879D01*
X0085850Y0144855D01*
X0085905Y0144834D01*
X0085905Y0146624D02*
X0086009Y0146672D01*
X0086114Y0146718D01*
X0086220Y0146760D01*
X0086328Y0146799D01*
X0086437Y0146835D01*
X0086547Y0146867D01*
X0086658Y0146897D01*
X0086770Y0146922D01*
X0086882Y0146945D01*
X0086995Y0146964D01*
X0087109Y0146979D01*
X0087223Y0146991D01*
X0087337Y0147000D01*
X0087451Y0147005D01*
X0087566Y0147007D01*
X0087566Y0144451D02*
X0087681Y0144453D01*
X0087795Y0144458D01*
X0087909Y0144467D01*
X0088023Y0144479D01*
X0088137Y0144494D01*
X0088250Y0144513D01*
X0088362Y0144536D01*
X0088474Y0144561D01*
X0088585Y0144591D01*
X0088695Y0144623D01*
X0088804Y0144659D01*
X0088912Y0144698D01*
X0089018Y0144740D01*
X0089123Y0144786D01*
X0089227Y0144834D01*
X0089867Y0145729D02*
X0089865Y0145788D01*
X0089860Y0145846D01*
X0089851Y0145904D01*
X0089838Y0145961D01*
X0089822Y0146018D01*
X0089802Y0146073D01*
X0089779Y0146127D01*
X0089753Y0146179D01*
X0089723Y0146230D01*
X0089691Y0146279D01*
X0089655Y0146326D01*
X0089617Y0146370D01*
X0089576Y0146412D01*
X0089532Y0146451D01*
X0089486Y0146488D01*
X0089438Y0146521D01*
X0089388Y0146552D01*
X0089336Y0146579D01*
X0089283Y0146603D01*
X0089228Y0146624D01*
X0089867Y0145729D02*
X0089865Y0145670D01*
X0089860Y0145612D01*
X0089851Y0145554D01*
X0089838Y0145497D01*
X0089822Y0145440D01*
X0089802Y0145385D01*
X0089779Y0145331D01*
X0089753Y0145279D01*
X0089723Y0145228D01*
X0089691Y0145179D01*
X0089655Y0145132D01*
X0089617Y0145088D01*
X0089576Y0145046D01*
X0089532Y0145007D01*
X0089486Y0144970D01*
X0089438Y0144937D01*
X0089388Y0144906D01*
X0089336Y0144879D01*
X0089283Y0144855D01*
X0089228Y0144834D01*
X0089866Y0141485D02*
X0089864Y0141548D01*
X0089858Y0141611D01*
X0089849Y0141673D01*
X0089835Y0141734D01*
X0089818Y0141795D01*
X0089797Y0141854D01*
X0089772Y0141912D01*
X0089744Y0141969D01*
X0089713Y0142023D01*
X0089678Y0142075D01*
X0089640Y0142126D01*
X0089599Y0142174D01*
X0089555Y0142219D01*
X0089509Y0142261D01*
X0089460Y0142301D01*
X0089409Y0142337D01*
X0089355Y0142370D01*
X0089300Y0142400D01*
X0089242Y0142426D01*
X0089184Y0142449D01*
X0089124Y0142468D01*
X0089063Y0142483D01*
X0089001Y0142495D01*
X0088938Y0142503D01*
X0088875Y0142507D01*
X0088813Y0142507D01*
X0088750Y0142503D01*
X0088687Y0142495D01*
X0088625Y0142483D01*
X0088564Y0142468D01*
X0088504Y0142449D01*
X0088446Y0142426D01*
X0088388Y0142400D01*
X0088333Y0142370D01*
X0088279Y0142337D01*
X0088228Y0142301D01*
X0088179Y0142261D01*
X0088133Y0142219D01*
X0088089Y0142174D01*
X0088048Y0142126D01*
X0088010Y0142075D01*
X0087975Y0142023D01*
X0087944Y0141969D01*
X0087916Y0141912D01*
X0087891Y0141854D01*
X0087870Y0141795D01*
X0087853Y0141734D01*
X0087839Y0141673D01*
X0087830Y0141611D01*
X0087824Y0141548D01*
X0087822Y0141485D01*
X0087822Y0140463D01*
X0087822Y0141230D02*
X0087820Y0141300D01*
X0087814Y0141371D01*
X0087805Y0141440D01*
X0087791Y0141509D01*
X0087774Y0141578D01*
X0087753Y0141645D01*
X0087728Y0141711D01*
X0087700Y0141775D01*
X0087668Y0141838D01*
X0087633Y0141899D01*
X0087594Y0141958D01*
X0087553Y0142015D01*
X0087508Y0142069D01*
X0087460Y0142121D01*
X0087410Y0142170D01*
X0087356Y0142217D01*
X0087301Y0142260D01*
X0087243Y0142300D01*
X0087183Y0142337D01*
X0087121Y0142370D01*
X0087057Y0142400D01*
X0086992Y0142427D01*
X0086926Y0142450D01*
X0086858Y0142469D01*
X0086789Y0142484D01*
X0086720Y0142496D01*
X0086650Y0142504D01*
X0086579Y0142508D01*
X0086509Y0142508D01*
X0086438Y0142504D01*
X0086368Y0142496D01*
X0086299Y0142484D01*
X0086230Y0142469D01*
X0086162Y0142450D01*
X0086096Y0142427D01*
X0086031Y0142400D01*
X0085967Y0142370D01*
X0085905Y0142337D01*
X0085845Y0142300D01*
X0085787Y0142260D01*
X0085732Y0142217D01*
X0085678Y0142170D01*
X0085628Y0142121D01*
X0085580Y0142069D01*
X0085535Y0142015D01*
X0085494Y0141958D01*
X0085455Y0141899D01*
X0085420Y0141838D01*
X0085388Y0141775D01*
X0085360Y0141711D01*
X0085335Y0141645D01*
X0085314Y0141578D01*
X0085297Y0141509D01*
X0085283Y0141440D01*
X0085274Y0141371D01*
X0085268Y0141300D01*
X0085266Y0141230D01*
X0085266Y0139952D01*
X0086544Y0138008D02*
X0086474Y0138006D01*
X0086403Y0138000D01*
X0086334Y0137991D01*
X0086265Y0137977D01*
X0086196Y0137960D01*
X0086129Y0137939D01*
X0086063Y0137914D01*
X0085999Y0137886D01*
X0085936Y0137854D01*
X0085875Y0137819D01*
X0085816Y0137780D01*
X0085759Y0137739D01*
X0085705Y0137694D01*
X0085653Y0137646D01*
X0085604Y0137596D01*
X0085557Y0137542D01*
X0085514Y0137487D01*
X0085474Y0137429D01*
X0085437Y0137369D01*
X0085404Y0137307D01*
X0085374Y0137243D01*
X0085347Y0137178D01*
X0085324Y0137112D01*
X0085305Y0137044D01*
X0085290Y0136975D01*
X0085278Y0136906D01*
X0085270Y0136836D01*
X0085266Y0136765D01*
X0085266Y0136695D01*
X0085270Y0136624D01*
X0085278Y0136554D01*
X0085290Y0136485D01*
X0085305Y0136416D01*
X0085324Y0136348D01*
X0085347Y0136282D01*
X0085374Y0136217D01*
X0085404Y0136153D01*
X0085437Y0136091D01*
X0085474Y0136031D01*
X0085514Y0135973D01*
X0085557Y0135918D01*
X0085604Y0135864D01*
X0085653Y0135814D01*
X0085705Y0135766D01*
X0085759Y0135721D01*
X0085816Y0135680D01*
X0085875Y0135641D01*
X0085936Y0135606D01*
X0085999Y0135574D01*
X0086063Y0135546D01*
X0086129Y0135521D01*
X0086196Y0135500D01*
X0086265Y0135483D01*
X0086334Y0135469D01*
X0086403Y0135460D01*
X0086474Y0135454D01*
X0086544Y0135452D01*
X0086614Y0135454D01*
X0086685Y0135460D01*
X0086754Y0135469D01*
X0086823Y0135483D01*
X0086892Y0135500D01*
X0086959Y0135521D01*
X0087025Y0135546D01*
X0087089Y0135574D01*
X0087152Y0135606D01*
X0087213Y0135641D01*
X0087272Y0135680D01*
X0087329Y0135721D01*
X0087383Y0135766D01*
X0087435Y0135814D01*
X0087484Y0135864D01*
X0087531Y0135918D01*
X0087574Y0135973D01*
X0087614Y0136031D01*
X0087651Y0136091D01*
X0087684Y0136153D01*
X0087714Y0136217D01*
X0087741Y0136282D01*
X0087764Y0136348D01*
X0087783Y0136416D01*
X0087798Y0136485D01*
X0087810Y0136554D01*
X0087818Y0136624D01*
X0087822Y0136695D01*
X0087822Y0136765D01*
X0087818Y0136836D01*
X0087810Y0136906D01*
X0087798Y0136975D01*
X0087783Y0137044D01*
X0087764Y0137112D01*
X0087741Y0137178D01*
X0087714Y0137243D01*
X0087684Y0137307D01*
X0087651Y0137369D01*
X0087614Y0137429D01*
X0087574Y0137487D01*
X0087531Y0137542D01*
X0087484Y0137596D01*
X0087435Y0137646D01*
X0087383Y0137694D01*
X0087329Y0137739D01*
X0087272Y0137780D01*
X0087213Y0137819D01*
X0087152Y0137854D01*
X0087089Y0137886D01*
X0087025Y0137914D01*
X0086959Y0137939D01*
X0086892Y0137960D01*
X0086823Y0137977D01*
X0086754Y0137991D01*
X0086685Y0138000D01*
X0086614Y0138006D01*
X0086544Y0138008D01*
X0088844Y0137752D02*
X0088781Y0137750D01*
X0088718Y0137744D01*
X0088656Y0137735D01*
X0088595Y0137721D01*
X0088534Y0137704D01*
X0088475Y0137683D01*
X0088417Y0137658D01*
X0088360Y0137630D01*
X0088306Y0137599D01*
X0088254Y0137564D01*
X0088203Y0137526D01*
X0088155Y0137485D01*
X0088110Y0137441D01*
X0088068Y0137395D01*
X0088028Y0137346D01*
X0087992Y0137295D01*
X0087959Y0137241D01*
X0087929Y0137186D01*
X0087903Y0137128D01*
X0087880Y0137070D01*
X0087861Y0137010D01*
X0087846Y0136949D01*
X0087834Y0136887D01*
X0087826Y0136824D01*
X0087822Y0136761D01*
X0087822Y0136699D01*
X0087826Y0136636D01*
X0087834Y0136573D01*
X0087846Y0136511D01*
X0087861Y0136450D01*
X0087880Y0136390D01*
X0087903Y0136332D01*
X0087929Y0136274D01*
X0087959Y0136219D01*
X0087992Y0136165D01*
X0088028Y0136114D01*
X0088068Y0136065D01*
X0088110Y0136019D01*
X0088155Y0135975D01*
X0088203Y0135934D01*
X0088254Y0135896D01*
X0088306Y0135861D01*
X0088360Y0135830D01*
X0088417Y0135802D01*
X0088475Y0135777D01*
X0088534Y0135756D01*
X0088595Y0135739D01*
X0088656Y0135725D01*
X0088718Y0135716D01*
X0088781Y0135710D01*
X0088844Y0135708D01*
X0088907Y0135710D01*
X0088970Y0135716D01*
X0089032Y0135725D01*
X0089093Y0135739D01*
X0089154Y0135756D01*
X0089213Y0135777D01*
X0089271Y0135802D01*
X0089328Y0135830D01*
X0089382Y0135861D01*
X0089434Y0135896D01*
X0089485Y0135934D01*
X0089533Y0135975D01*
X0089578Y0136019D01*
X0089620Y0136065D01*
X0089660Y0136114D01*
X0089696Y0136165D01*
X0089729Y0136219D01*
X0089759Y0136274D01*
X0089785Y0136332D01*
X0089808Y0136390D01*
X0089827Y0136450D01*
X0089842Y0136511D01*
X0089854Y0136573D01*
X0089862Y0136636D01*
X0089866Y0136699D01*
X0089866Y0136761D01*
X0089862Y0136824D01*
X0089854Y0136887D01*
X0089842Y0136949D01*
X0089827Y0137010D01*
X0089808Y0137070D01*
X0089785Y0137128D01*
X0089759Y0137186D01*
X0089729Y0137241D01*
X0089696Y0137295D01*
X0089660Y0137346D01*
X0089620Y0137395D01*
X0089578Y0137441D01*
X0089533Y0137485D01*
X0089485Y0137526D01*
X0089434Y0137564D01*
X0089382Y0137599D01*
X0089328Y0137630D01*
X0089271Y0137658D01*
X0089213Y0137683D01*
X0089154Y0137704D01*
X0089093Y0137721D01*
X0089032Y0137735D01*
X0088970Y0137744D01*
X0088907Y0137750D01*
X0088844Y0137752D01*
X0089866Y0139952D02*
X0089866Y0141485D01*
X0085266Y0148952D02*
X0085266Y0150229D01*
X0085268Y0150299D01*
X0085274Y0150370D01*
X0085283Y0150439D01*
X0085297Y0150508D01*
X0085314Y0150577D01*
X0085335Y0150644D01*
X0085360Y0150710D01*
X0085388Y0150774D01*
X0085420Y0150837D01*
X0085455Y0150898D01*
X0085494Y0150957D01*
X0085535Y0151014D01*
X0085580Y0151068D01*
X0085628Y0151120D01*
X0085678Y0151169D01*
X0085732Y0151216D01*
X0085787Y0151259D01*
X0085845Y0151299D01*
X0085905Y0151336D01*
X0085967Y0151369D01*
X0086031Y0151399D01*
X0086096Y0151426D01*
X0086162Y0151449D01*
X0086230Y0151468D01*
X0086299Y0151483D01*
X0086368Y0151495D01*
X0086438Y0151503D01*
X0086509Y0151507D01*
X0086579Y0151507D01*
X0086650Y0151503D01*
X0086720Y0151495D01*
X0086789Y0151483D01*
X0086858Y0151468D01*
X0086926Y0151449D01*
X0086992Y0151426D01*
X0087057Y0151399D01*
X0087121Y0151369D01*
X0087183Y0151336D01*
X0087243Y0151299D01*
X0087301Y0151259D01*
X0087356Y0151216D01*
X0087410Y0151169D01*
X0087460Y0151120D01*
X0087508Y0151068D01*
X0087553Y0151014D01*
X0087594Y0150957D01*
X0087633Y0150898D01*
X0087668Y0150837D01*
X0087700Y0150774D01*
X0087728Y0150710D01*
X0087753Y0150644D01*
X0087774Y0150577D01*
X0087791Y0150508D01*
X0087805Y0150439D01*
X0087814Y0150370D01*
X0087820Y0150299D01*
X0087822Y0150229D01*
X0089866Y0133763D02*
X0085266Y0132230D01*
X0089866Y0130696D01*
X0089866Y0127759D02*
X0089866Y0126481D01*
X0085266Y0126481D01*
X0087311Y0126481D02*
X0087311Y0127759D01*
X0087311Y0128014D02*
X0085266Y0129036D01*
X0087310Y0127759D02*
X0087312Y0127829D01*
X0087318Y0127900D01*
X0087327Y0127969D01*
X0087341Y0128038D01*
X0087358Y0128107D01*
X0087379Y0128174D01*
X0087404Y0128240D01*
X0087432Y0128304D01*
X0087464Y0128367D01*
X0087499Y0128428D01*
X0087538Y0128487D01*
X0087579Y0128544D01*
X0087624Y0128598D01*
X0087672Y0128650D01*
X0087722Y0128699D01*
X0087776Y0128746D01*
X0087831Y0128789D01*
X0087889Y0128829D01*
X0087949Y0128866D01*
X0088011Y0128899D01*
X0088075Y0128929D01*
X0088140Y0128956D01*
X0088206Y0128979D01*
X0088274Y0128998D01*
X0088343Y0129013D01*
X0088412Y0129025D01*
X0088482Y0129033D01*
X0088553Y0129037D01*
X0088623Y0129037D01*
X0088694Y0129033D01*
X0088764Y0129025D01*
X0088833Y0129013D01*
X0088902Y0128998D01*
X0088970Y0128979D01*
X0089036Y0128956D01*
X0089101Y0128929D01*
X0089165Y0128899D01*
X0089227Y0128866D01*
X0089287Y0128829D01*
X0089345Y0128789D01*
X0089400Y0128746D01*
X0089454Y0128699D01*
X0089504Y0128650D01*
X0089552Y0128598D01*
X0089597Y0128544D01*
X0089638Y0128487D01*
X0089677Y0128428D01*
X0089712Y0128367D01*
X0089744Y0128304D01*
X0089772Y0128240D01*
X0089797Y0128174D01*
X0089818Y0128107D01*
X0089835Y0128038D01*
X0089849Y0127969D01*
X0089858Y0127900D01*
X0089864Y0127829D01*
X0089866Y0127759D01*
X0088588Y0124207D02*
X0086544Y0124207D01*
X0086544Y0124208D02*
X0086475Y0124206D01*
X0086406Y0124201D01*
X0086337Y0124191D01*
X0086269Y0124178D01*
X0086202Y0124161D01*
X0086136Y0124141D01*
X0086071Y0124117D01*
X0086007Y0124090D01*
X0085945Y0124059D01*
X0085885Y0124025D01*
X0085827Y0123988D01*
X0085771Y0123947D01*
X0085717Y0123904D01*
X0085665Y0123858D01*
X0085616Y0123809D01*
X0085570Y0123757D01*
X0085527Y0123703D01*
X0085486Y0123647D01*
X0085449Y0123589D01*
X0085415Y0123529D01*
X0085384Y0123467D01*
X0085357Y0123403D01*
X0085333Y0123338D01*
X0085313Y0123272D01*
X0085296Y0123205D01*
X0085283Y0123137D01*
X0085273Y0123068D01*
X0085268Y0122999D01*
X0085266Y0122930D01*
X0085266Y0121652D01*
X0089866Y0121652D01*
X0089866Y0122930D01*
X0089864Y0122999D01*
X0089859Y0123068D01*
X0089849Y0123137D01*
X0089836Y0123205D01*
X0089819Y0123272D01*
X0089799Y0123338D01*
X0089775Y0123403D01*
X0089748Y0123467D01*
X0089717Y0123529D01*
X0089683Y0123589D01*
X0089646Y0123647D01*
X0089605Y0123703D01*
X0089562Y0123757D01*
X0089516Y0123809D01*
X0089467Y0123858D01*
X0089415Y0123904D01*
X0089361Y0123947D01*
X0089305Y0123988D01*
X0089247Y0124025D01*
X0089187Y0124059D01*
X0089125Y0124090D01*
X0089061Y0124117D01*
X0088996Y0124141D01*
X0088930Y0124161D01*
X0088863Y0124178D01*
X0088795Y0124191D01*
X0088726Y0124201D01*
X0088657Y0124206D01*
X0088588Y0124208D01*
X0099157Y0118988D02*
X0101960Y0118988D01*
X0101960Y0115638D02*
X0099157Y0115638D01*
X0116086Y0115638D02*
X0118889Y0115638D01*
X0118889Y0118988D02*
X0116086Y0118988D01*
X0131834Y0118988D02*
X0134637Y0118988D01*
X0134637Y0115638D02*
X0131834Y0115638D01*
X0149302Y0099555D02*
X0149302Y0096752D01*
X0152653Y0096752D02*
X0152653Y0099555D01*
X0156692Y0099524D02*
X0156692Y0096720D01*
X0160043Y0096720D02*
X0160043Y0099524D01*
X0160102Y0086173D02*
X0160102Y0083370D01*
X0156751Y0083370D02*
X0156751Y0086173D01*
X0157377Y0134441D02*
X0157377Y0137244D01*
X0154027Y0137244D02*
X0154027Y0134441D01*
X0154027Y0148220D02*
X0154027Y0151024D01*
X0157377Y0151024D02*
X0157377Y0148220D01*
X0145857Y0170165D02*
X0143054Y0170165D01*
X0143054Y0173516D02*
X0145857Y0173516D01*
X0132669Y0174748D02*
X0129865Y0174748D01*
X0129865Y0171398D02*
X0132669Y0171398D01*
X0111015Y0171594D02*
X0108212Y0171594D01*
X0108212Y0174945D02*
X0111015Y0174945D01*
X0110818Y0181189D02*
X0108015Y0181189D01*
X0108015Y0184539D02*
X0110818Y0184539D01*
X0096944Y0178780D02*
X0096944Y0175976D01*
X0093594Y0175976D02*
X0093594Y0178780D01*
X0088676Y0178780D02*
X0088676Y0175976D01*
X0085326Y0175976D02*
X0085326Y0178780D01*
X0058350Y0050504D02*
X0058350Y0047701D01*
X0054999Y0047701D02*
X0054999Y0050504D01*
X0028350Y0050504D02*
X0028350Y0047701D01*
X0024999Y0047701D02*
X0024999Y0050504D01*
D12*
X0026680Y0051418D03*
X0026680Y0046818D03*
X0056680Y0046818D03*
X0056680Y0051418D03*
X0150972Y0095838D03*
X0150972Y0100438D03*
X0158362Y0100406D03*
X0158362Y0095806D03*
X0158421Y0087056D03*
X0158421Y0082456D03*
X0155696Y0133527D03*
X0155696Y0138127D03*
X0155696Y0147306D03*
X0155696Y0151906D03*
X0095263Y0175062D03*
X0095263Y0179662D03*
X0086996Y0179662D03*
X0086996Y0175062D03*
D13*
X0090093Y0175284D02*
X0091993Y0175284D01*
X0091571Y0174756D01*
X0091070Y0175783D02*
X0091070Y0176310D01*
X0091043Y0177972D02*
X0090972Y0177970D01*
X0090901Y0177966D01*
X0090831Y0177958D01*
X0090760Y0177946D01*
X0090691Y0177932D01*
X0090622Y0177914D01*
X0090554Y0177894D01*
X0090487Y0177870D01*
X0090421Y0177843D01*
X0090357Y0177814D01*
X0090648Y0177918D02*
X0090648Y0178973D01*
X0090727Y0179156D02*
X0091360Y0180000D01*
X0090991Y0179525D02*
X0090093Y0180000D01*
X0090093Y0179156D02*
X0091993Y0179156D01*
X0092126Y0178340D02*
X0090648Y0177918D01*
X0090357Y0177814D02*
X0090323Y0177800D01*
X0090289Y0177783D01*
X0090258Y0177763D01*
X0090229Y0177740D01*
X0090201Y0177714D01*
X0090177Y0177686D01*
X0090155Y0177656D01*
X0090137Y0177624D01*
X0090121Y0177590D01*
X0090109Y0177554D01*
X0090100Y0177518D01*
X0090095Y0177481D01*
X0090093Y0177444D01*
X0090095Y0177407D01*
X0090100Y0177370D01*
X0090109Y0177334D01*
X0090121Y0177298D01*
X0090137Y0177264D01*
X0090155Y0177232D01*
X0090177Y0177202D01*
X0090201Y0177174D01*
X0090229Y0177148D01*
X0090258Y0177125D01*
X0090289Y0177105D01*
X0090323Y0177088D01*
X0090357Y0177074D01*
X0090516Y0177021D02*
X0091571Y0177866D01*
X0091730Y0177814D02*
X0091764Y0177800D01*
X0091798Y0177783D01*
X0091829Y0177763D01*
X0091858Y0177740D01*
X0091885Y0177714D01*
X0091910Y0177686D01*
X0091932Y0177656D01*
X0091950Y0177624D01*
X0091966Y0177590D01*
X0091978Y0177554D01*
X0091987Y0177518D01*
X0091992Y0177481D01*
X0091994Y0177444D01*
X0091992Y0177407D01*
X0091987Y0177370D01*
X0091978Y0177334D01*
X0091966Y0177298D01*
X0091950Y0177264D01*
X0091932Y0177232D01*
X0091910Y0177202D01*
X0091885Y0177174D01*
X0091858Y0177148D01*
X0091829Y0177125D01*
X0091798Y0177105D01*
X0091764Y0177088D01*
X0091730Y0177074D01*
X0092126Y0176310D02*
X0092124Y0176355D01*
X0092118Y0176399D01*
X0092109Y0176443D01*
X0092096Y0176486D01*
X0092079Y0176527D01*
X0092059Y0176568D01*
X0092035Y0176606D01*
X0092009Y0176642D01*
X0091979Y0176675D01*
X0091947Y0176706D01*
X0091912Y0176735D01*
X0091875Y0176760D01*
X0091836Y0176781D01*
X0091795Y0176800D01*
X0091753Y0176815D01*
X0091709Y0176826D01*
X0091665Y0176834D01*
X0091620Y0176838D01*
X0091576Y0176838D01*
X0091531Y0176834D01*
X0091487Y0176826D01*
X0091443Y0176815D01*
X0091401Y0176800D01*
X0091360Y0176781D01*
X0091321Y0176760D01*
X0091284Y0176735D01*
X0091249Y0176706D01*
X0091217Y0176675D01*
X0091187Y0176642D01*
X0091161Y0176606D01*
X0091137Y0176568D01*
X0091117Y0176527D01*
X0091100Y0176486D01*
X0091087Y0176443D01*
X0091078Y0176399D01*
X0091072Y0176355D01*
X0091070Y0176310D01*
X0091729Y0177814D02*
X0091665Y0177843D01*
X0091599Y0177870D01*
X0091532Y0177894D01*
X0091464Y0177914D01*
X0091395Y0177932D01*
X0091326Y0177946D01*
X0091255Y0177958D01*
X0091185Y0177966D01*
X0091114Y0177970D01*
X0091043Y0177972D01*
X0091043Y0176916D02*
X0091114Y0176918D01*
X0091185Y0176922D01*
X0091255Y0176930D01*
X0091326Y0176942D01*
X0091395Y0176956D01*
X0091464Y0176974D01*
X0091532Y0176994D01*
X0091599Y0177018D01*
X0091665Y0177045D01*
X0091729Y0177074D01*
X0092126Y0176310D02*
X0092126Y0175783D01*
X0090226Y0175783D01*
X0090093Y0175811D02*
X0090093Y0174756D01*
X0091070Y0176416D02*
X0090226Y0176838D01*
X0090226Y0178657D02*
X0091070Y0178657D01*
X0090357Y0177074D02*
X0090421Y0177045D01*
X0090487Y0177018D01*
X0090554Y0176994D01*
X0090622Y0176974D01*
X0090691Y0176956D01*
X0090760Y0176942D01*
X0090831Y0176930D01*
X0090901Y0176922D01*
X0090972Y0176918D01*
X0091043Y0176916D01*
X0098493Y0176838D02*
X0099338Y0176416D01*
X0099338Y0176310D02*
X0099338Y0175783D01*
X0099338Y0176310D02*
X0099340Y0176355D01*
X0099346Y0176399D01*
X0099355Y0176443D01*
X0099368Y0176486D01*
X0099385Y0176527D01*
X0099405Y0176568D01*
X0099429Y0176606D01*
X0099455Y0176642D01*
X0099485Y0176675D01*
X0099517Y0176706D01*
X0099552Y0176735D01*
X0099589Y0176760D01*
X0099628Y0176781D01*
X0099669Y0176800D01*
X0099711Y0176815D01*
X0099755Y0176826D01*
X0099799Y0176834D01*
X0099844Y0176838D01*
X0099888Y0176838D01*
X0099933Y0176834D01*
X0099977Y0176826D01*
X0100021Y0176815D01*
X0100063Y0176800D01*
X0100104Y0176781D01*
X0100143Y0176760D01*
X0100180Y0176735D01*
X0100215Y0176706D01*
X0100247Y0176675D01*
X0100277Y0176642D01*
X0100303Y0176606D01*
X0100327Y0176568D01*
X0100347Y0176527D01*
X0100364Y0176486D01*
X0100377Y0176443D01*
X0100386Y0176399D01*
X0100392Y0176355D01*
X0100394Y0176310D01*
X0100393Y0176310D02*
X0100393Y0175783D01*
X0098493Y0175783D01*
X0099021Y0177918D02*
X0099549Y0177918D01*
X0099549Y0178551D01*
X0099549Y0177918D02*
X0099607Y0177920D01*
X0099664Y0177926D01*
X0099721Y0177936D01*
X0099777Y0177949D01*
X0099832Y0177967D01*
X0099885Y0177988D01*
X0099937Y0178013D01*
X0099988Y0178041D01*
X0100036Y0178072D01*
X0100082Y0178107D01*
X0100125Y0178145D01*
X0100166Y0178186D01*
X0100204Y0178229D01*
X0100239Y0178275D01*
X0100270Y0178323D01*
X0100298Y0178374D01*
X0100323Y0178426D01*
X0100344Y0178479D01*
X0100362Y0178534D01*
X0100375Y0178590D01*
X0100385Y0178647D01*
X0100391Y0178704D01*
X0100393Y0178762D01*
X0099549Y0178551D02*
X0099547Y0178590D01*
X0099542Y0178629D01*
X0099533Y0178666D01*
X0099521Y0178703D01*
X0099505Y0178739D01*
X0099486Y0178773D01*
X0099464Y0178805D01*
X0099439Y0178835D01*
X0099411Y0178863D01*
X0099381Y0178888D01*
X0099349Y0178910D01*
X0099315Y0178929D01*
X0099279Y0178945D01*
X0099242Y0178957D01*
X0099205Y0178966D01*
X0099166Y0178971D01*
X0099127Y0178973D01*
X0099021Y0178973D01*
X0098976Y0178971D01*
X0098932Y0178965D01*
X0098888Y0178956D01*
X0098845Y0178943D01*
X0098804Y0178926D01*
X0098763Y0178906D01*
X0098725Y0178882D01*
X0098689Y0178856D01*
X0098656Y0178826D01*
X0098625Y0178794D01*
X0098596Y0178759D01*
X0098571Y0178722D01*
X0098550Y0178683D01*
X0098531Y0178642D01*
X0098516Y0178600D01*
X0098505Y0178556D01*
X0098497Y0178512D01*
X0098493Y0178467D01*
X0098493Y0178423D01*
X0098497Y0178378D01*
X0098505Y0178334D01*
X0098516Y0178290D01*
X0098531Y0178248D01*
X0098550Y0178207D01*
X0098571Y0178168D01*
X0098596Y0178131D01*
X0098625Y0178096D01*
X0098656Y0178064D01*
X0098689Y0178034D01*
X0098725Y0178008D01*
X0098763Y0177984D01*
X0098804Y0177964D01*
X0098845Y0177947D01*
X0098888Y0177934D01*
X0098932Y0177925D01*
X0098976Y0177919D01*
X0099021Y0177917D01*
X0107983Y0178584D02*
X0107983Y0179112D01*
X0107983Y0178584D02*
X0108616Y0178584D01*
X0107984Y0178584D02*
X0107986Y0178529D01*
X0107991Y0178474D01*
X0108000Y0178419D01*
X0108013Y0178366D01*
X0108029Y0178313D01*
X0108048Y0178261D01*
X0108071Y0178211D01*
X0108097Y0178162D01*
X0108126Y0178115D01*
X0108158Y0178070D01*
X0108193Y0178028D01*
X0108231Y0177987D01*
X0108272Y0177949D01*
X0108314Y0177914D01*
X0108359Y0177882D01*
X0108406Y0177853D01*
X0108455Y0177827D01*
X0108505Y0177804D01*
X0108557Y0177785D01*
X0108610Y0177769D01*
X0108663Y0177756D01*
X0108718Y0177747D01*
X0108773Y0177742D01*
X0108828Y0177740D01*
X0109130Y0177972D02*
X0109128Y0177932D01*
X0109122Y0177892D01*
X0109113Y0177853D01*
X0109100Y0177815D01*
X0109083Y0177779D01*
X0109063Y0177744D01*
X0109040Y0177711D01*
X0109013Y0177681D01*
X0108984Y0177653D01*
X0108953Y0177628D01*
X0108919Y0177607D01*
X0108883Y0177588D01*
X0108846Y0177573D01*
X0108807Y0177562D01*
X0108768Y0177554D01*
X0108728Y0177550D01*
X0108688Y0177550D01*
X0108648Y0177554D01*
X0108609Y0177562D01*
X0108570Y0177573D01*
X0108533Y0177588D01*
X0108497Y0177607D01*
X0108463Y0177628D01*
X0108432Y0177653D01*
X0108403Y0177681D01*
X0108376Y0177711D01*
X0108353Y0177744D01*
X0108333Y0177779D01*
X0108316Y0177815D01*
X0108303Y0177853D01*
X0108294Y0177892D01*
X0108288Y0177932D01*
X0108286Y0177972D01*
X0108288Y0178012D01*
X0108294Y0178052D01*
X0108303Y0178091D01*
X0108316Y0178129D01*
X0108333Y0178165D01*
X0108353Y0178200D01*
X0108376Y0178233D01*
X0108403Y0178263D01*
X0108432Y0178291D01*
X0108463Y0178316D01*
X0108497Y0178337D01*
X0108533Y0178356D01*
X0108570Y0178371D01*
X0108609Y0178382D01*
X0108648Y0178390D01*
X0108688Y0178394D01*
X0108728Y0178394D01*
X0108768Y0178390D01*
X0108807Y0178382D01*
X0108846Y0178371D01*
X0108883Y0178356D01*
X0108919Y0178337D01*
X0108953Y0178316D01*
X0108984Y0178291D01*
X0109013Y0178263D01*
X0109040Y0178233D01*
X0109063Y0178200D01*
X0109083Y0178165D01*
X0109100Y0178129D01*
X0109113Y0178091D01*
X0109122Y0178052D01*
X0109128Y0178012D01*
X0109130Y0177972D01*
X0110006Y0177740D02*
X0110428Y0177740D01*
X0111047Y0177972D02*
X0111045Y0178011D01*
X0111040Y0178050D01*
X0111031Y0178087D01*
X0111019Y0178124D01*
X0111003Y0178160D01*
X0110984Y0178194D01*
X0110962Y0178226D01*
X0110937Y0178256D01*
X0110909Y0178284D01*
X0110879Y0178309D01*
X0110847Y0178331D01*
X0110813Y0178350D01*
X0110777Y0178366D01*
X0110740Y0178378D01*
X0110703Y0178387D01*
X0110664Y0178392D01*
X0110625Y0178394D01*
X0110202Y0178394D01*
X0110850Y0178162D02*
X0110848Y0178123D01*
X0110843Y0178084D01*
X0110834Y0178047D01*
X0110822Y0178010D01*
X0110806Y0177974D01*
X0110787Y0177940D01*
X0110765Y0177908D01*
X0110740Y0177878D01*
X0110712Y0177850D01*
X0110682Y0177825D01*
X0110650Y0177803D01*
X0110616Y0177784D01*
X0110580Y0177768D01*
X0110543Y0177756D01*
X0110506Y0177747D01*
X0110467Y0177742D01*
X0110428Y0177740D01*
X0110850Y0178162D02*
X0110850Y0179218D01*
X0110848Y0179257D01*
X0110843Y0179296D01*
X0110834Y0179333D01*
X0110822Y0179370D01*
X0110806Y0179406D01*
X0110787Y0179440D01*
X0110765Y0179472D01*
X0110740Y0179502D01*
X0110712Y0179530D01*
X0110682Y0179555D01*
X0110650Y0179577D01*
X0110616Y0179596D01*
X0110580Y0179612D01*
X0110543Y0179624D01*
X0110506Y0179633D01*
X0110467Y0179638D01*
X0110428Y0179640D01*
X0110006Y0179640D01*
X0109039Y0179112D02*
X0109039Y0179006D01*
X0109038Y0179006D02*
X0109036Y0178967D01*
X0109031Y0178928D01*
X0109022Y0178891D01*
X0109010Y0178854D01*
X0108994Y0178818D01*
X0108975Y0178784D01*
X0108953Y0178752D01*
X0108928Y0178722D01*
X0108900Y0178694D01*
X0108870Y0178669D01*
X0108838Y0178647D01*
X0108804Y0178628D01*
X0108768Y0178612D01*
X0108731Y0178600D01*
X0108694Y0178591D01*
X0108655Y0178586D01*
X0108616Y0178584D01*
X0109039Y0179112D02*
X0109037Y0179157D01*
X0109031Y0179201D01*
X0109022Y0179245D01*
X0109009Y0179288D01*
X0108992Y0179329D01*
X0108972Y0179370D01*
X0108948Y0179408D01*
X0108922Y0179444D01*
X0108892Y0179477D01*
X0108860Y0179508D01*
X0108825Y0179537D01*
X0108788Y0179562D01*
X0108749Y0179583D01*
X0108708Y0179602D01*
X0108666Y0179617D01*
X0108622Y0179628D01*
X0108578Y0179636D01*
X0108533Y0179640D01*
X0108489Y0179640D01*
X0108444Y0179636D01*
X0108400Y0179628D01*
X0108356Y0179617D01*
X0108314Y0179602D01*
X0108273Y0179583D01*
X0108234Y0179562D01*
X0108197Y0179537D01*
X0108162Y0179508D01*
X0108130Y0179477D01*
X0108100Y0179444D01*
X0108074Y0179408D01*
X0108050Y0179370D01*
X0108030Y0179329D01*
X0108013Y0179288D01*
X0108000Y0179245D01*
X0107991Y0179201D01*
X0107985Y0179157D01*
X0107983Y0179112D01*
X0108180Y0177022D02*
X0108182Y0176977D01*
X0108188Y0176933D01*
X0108197Y0176889D01*
X0108210Y0176846D01*
X0108227Y0176805D01*
X0108247Y0176764D01*
X0108271Y0176726D01*
X0108297Y0176690D01*
X0108327Y0176657D01*
X0108359Y0176626D01*
X0108394Y0176597D01*
X0108431Y0176572D01*
X0108470Y0176551D01*
X0108511Y0176532D01*
X0108553Y0176517D01*
X0108597Y0176506D01*
X0108641Y0176498D01*
X0108686Y0176494D01*
X0108730Y0176494D01*
X0108775Y0176498D01*
X0108819Y0176506D01*
X0108863Y0176517D01*
X0108905Y0176532D01*
X0108946Y0176551D01*
X0108985Y0176572D01*
X0109022Y0176597D01*
X0109057Y0176626D01*
X0109089Y0176657D01*
X0109119Y0176690D01*
X0109145Y0176726D01*
X0109169Y0176764D01*
X0109189Y0176805D01*
X0109206Y0176846D01*
X0109219Y0176889D01*
X0109228Y0176933D01*
X0109234Y0176977D01*
X0109236Y0177022D01*
X0109234Y0177067D01*
X0109228Y0177111D01*
X0109219Y0177155D01*
X0109206Y0177198D01*
X0109189Y0177239D01*
X0109169Y0177280D01*
X0109145Y0177318D01*
X0109119Y0177354D01*
X0109089Y0177387D01*
X0109057Y0177418D01*
X0109022Y0177447D01*
X0108985Y0177472D01*
X0108946Y0177493D01*
X0108905Y0177512D01*
X0108863Y0177527D01*
X0108819Y0177538D01*
X0108775Y0177546D01*
X0108730Y0177550D01*
X0108686Y0177550D01*
X0108641Y0177546D01*
X0108597Y0177538D01*
X0108553Y0177527D01*
X0108511Y0177512D01*
X0108470Y0177493D01*
X0108431Y0177472D01*
X0108394Y0177447D01*
X0108359Y0177418D01*
X0108327Y0177387D01*
X0108297Y0177354D01*
X0108271Y0177318D01*
X0108247Y0177280D01*
X0108227Y0177239D01*
X0108210Y0177198D01*
X0108197Y0177155D01*
X0108188Y0177111D01*
X0108182Y0177067D01*
X0108180Y0177022D01*
X0110202Y0176494D02*
X0110625Y0176494D01*
X0110664Y0176496D01*
X0110703Y0176501D01*
X0110740Y0176510D01*
X0110777Y0176522D01*
X0110813Y0176538D01*
X0110847Y0176557D01*
X0110879Y0176579D01*
X0110909Y0176604D01*
X0110937Y0176632D01*
X0110962Y0176662D01*
X0110984Y0176694D01*
X0111003Y0176728D01*
X0111019Y0176764D01*
X0111031Y0176801D01*
X0111040Y0176838D01*
X0111045Y0176877D01*
X0111047Y0176916D01*
X0111047Y0177972D01*
X0111535Y0186140D02*
X0110479Y0186140D01*
X0111535Y0186140D02*
X0110637Y0187195D01*
X0110954Y0188040D02*
X0111002Y0188038D01*
X0111049Y0188032D01*
X0111097Y0188023D01*
X0111143Y0188010D01*
X0111188Y0187993D01*
X0111231Y0187973D01*
X0111273Y0187950D01*
X0111313Y0187923D01*
X0111350Y0187894D01*
X0111386Y0187861D01*
X0111418Y0187826D01*
X0111448Y0187788D01*
X0111474Y0187748D01*
X0111498Y0187706D01*
X0111518Y0187663D01*
X0111534Y0187618D01*
X0110637Y0187196D02*
X0110609Y0187225D01*
X0110582Y0187257D01*
X0110559Y0187291D01*
X0110538Y0187327D01*
X0110520Y0187364D01*
X0110506Y0187403D01*
X0110494Y0187442D01*
X0110486Y0187483D01*
X0110481Y0187524D01*
X0110479Y0187565D01*
X0110481Y0187606D01*
X0110486Y0187647D01*
X0110495Y0187688D01*
X0110508Y0187727D01*
X0110524Y0187766D01*
X0110543Y0187802D01*
X0110565Y0187837D01*
X0110590Y0187870D01*
X0110618Y0187901D01*
X0110649Y0187929D01*
X0110682Y0187954D01*
X0110716Y0187976D01*
X0110753Y0187995D01*
X0110792Y0188011D01*
X0110831Y0188024D01*
X0110872Y0188033D01*
X0110913Y0188038D01*
X0110954Y0188040D01*
X0108477Y0187196D02*
X0108449Y0187225D01*
X0108422Y0187257D01*
X0108399Y0187291D01*
X0108378Y0187327D01*
X0108360Y0187364D01*
X0108346Y0187403D01*
X0108334Y0187442D01*
X0108326Y0187483D01*
X0108321Y0187524D01*
X0108319Y0187565D01*
X0108477Y0187195D02*
X0109375Y0186140D01*
X0108319Y0186140D01*
X0107181Y0186456D02*
X0107181Y0187406D01*
X0106337Y0187406D02*
X0106337Y0186140D01*
X0106864Y0186140D01*
X0106864Y0186139D02*
X0106897Y0186141D01*
X0106930Y0186146D01*
X0106962Y0186155D01*
X0106993Y0186166D01*
X0107023Y0186181D01*
X0107050Y0186200D01*
X0107076Y0186220D01*
X0107100Y0186244D01*
X0107120Y0186270D01*
X0107139Y0186298D01*
X0107154Y0186327D01*
X0107165Y0186358D01*
X0107174Y0186390D01*
X0107179Y0186423D01*
X0107181Y0186456D01*
X0108794Y0188040D02*
X0108842Y0188038D01*
X0108889Y0188032D01*
X0108937Y0188023D01*
X0108983Y0188010D01*
X0109028Y0187993D01*
X0109071Y0187973D01*
X0109113Y0187950D01*
X0109153Y0187923D01*
X0109190Y0187894D01*
X0109226Y0187861D01*
X0109258Y0187826D01*
X0109288Y0187788D01*
X0109314Y0187748D01*
X0109338Y0187706D01*
X0109358Y0187663D01*
X0109374Y0187618D01*
X0108794Y0188040D02*
X0108753Y0188038D01*
X0108712Y0188033D01*
X0108671Y0188024D01*
X0108632Y0188011D01*
X0108593Y0187995D01*
X0108556Y0187976D01*
X0108522Y0187954D01*
X0108489Y0187929D01*
X0108458Y0187901D01*
X0108430Y0187870D01*
X0108405Y0187837D01*
X0108383Y0187802D01*
X0108364Y0187766D01*
X0108348Y0187727D01*
X0108335Y0187688D01*
X0108326Y0187647D01*
X0108321Y0187606D01*
X0108319Y0187565D01*
X0105119Y0187195D02*
X0104275Y0187195D01*
X0104275Y0188040D02*
X0105119Y0188040D01*
X0105119Y0186140D01*
X0112466Y0186140D02*
X0112572Y0186140D01*
X0112572Y0186245D01*
X0112466Y0186245D01*
X0112466Y0186140D01*
X0114401Y0186404D02*
X0114430Y0186468D01*
X0114457Y0186534D01*
X0114481Y0186601D01*
X0114501Y0186669D01*
X0114519Y0186738D01*
X0114533Y0186807D01*
X0114545Y0186878D01*
X0114553Y0186948D01*
X0114557Y0187019D01*
X0114559Y0187090D01*
X0113503Y0187090D02*
X0113505Y0187161D01*
X0113509Y0187232D01*
X0113517Y0187302D01*
X0113529Y0187373D01*
X0113543Y0187442D01*
X0113561Y0187511D01*
X0113581Y0187579D01*
X0113605Y0187646D01*
X0113632Y0187712D01*
X0113661Y0187776D01*
X0113609Y0187618D02*
X0114453Y0186562D01*
X0114031Y0186139D02*
X0113994Y0186141D01*
X0113957Y0186146D01*
X0113921Y0186155D01*
X0113885Y0186167D01*
X0113851Y0186183D01*
X0113819Y0186201D01*
X0113789Y0186223D01*
X0113761Y0186247D01*
X0113735Y0186275D01*
X0113712Y0186304D01*
X0113692Y0186335D01*
X0113675Y0186369D01*
X0113661Y0186403D01*
X0114031Y0186139D02*
X0114068Y0186141D01*
X0114105Y0186146D01*
X0114141Y0186155D01*
X0114177Y0186167D01*
X0114211Y0186183D01*
X0114243Y0186201D01*
X0114273Y0186223D01*
X0114301Y0186247D01*
X0114327Y0186275D01*
X0114350Y0186304D01*
X0114370Y0186335D01*
X0114387Y0186369D01*
X0114401Y0186403D01*
X0113661Y0186404D02*
X0113632Y0186468D01*
X0113605Y0186534D01*
X0113581Y0186601D01*
X0113561Y0186669D01*
X0113543Y0186738D01*
X0113529Y0186807D01*
X0113517Y0186878D01*
X0113509Y0186948D01*
X0113505Y0187019D01*
X0113503Y0187090D01*
X0114559Y0187090D02*
X0114557Y0187161D01*
X0114553Y0187232D01*
X0114545Y0187302D01*
X0114533Y0187373D01*
X0114519Y0187442D01*
X0114501Y0187511D01*
X0114481Y0187579D01*
X0114457Y0187646D01*
X0114430Y0187712D01*
X0114401Y0187776D01*
X0114387Y0187810D01*
X0114370Y0187844D01*
X0114350Y0187875D01*
X0114327Y0187904D01*
X0114301Y0187931D01*
X0114273Y0187956D01*
X0114243Y0187978D01*
X0114211Y0187996D01*
X0114177Y0188012D01*
X0114141Y0188024D01*
X0114105Y0188033D01*
X0114068Y0188038D01*
X0114031Y0188040D01*
X0113994Y0188038D01*
X0113957Y0188033D01*
X0113921Y0188024D01*
X0113885Y0188012D01*
X0113851Y0187996D01*
X0113819Y0187978D01*
X0113789Y0187956D01*
X0113761Y0187932D01*
X0113735Y0187904D01*
X0113712Y0187875D01*
X0113692Y0187844D01*
X0113675Y0187810D01*
X0113661Y0187776D01*
X0119921Y0178394D02*
X0120449Y0178394D01*
X0120449Y0176494D01*
X0120449Y0177339D02*
X0119921Y0177339D01*
X0119921Y0177338D02*
X0119876Y0177340D01*
X0119832Y0177346D01*
X0119788Y0177355D01*
X0119745Y0177368D01*
X0119704Y0177385D01*
X0119663Y0177405D01*
X0119625Y0177429D01*
X0119589Y0177455D01*
X0119556Y0177485D01*
X0119525Y0177517D01*
X0119496Y0177552D01*
X0119471Y0177589D01*
X0119450Y0177628D01*
X0119431Y0177669D01*
X0119416Y0177711D01*
X0119405Y0177755D01*
X0119397Y0177799D01*
X0119393Y0177844D01*
X0119393Y0177888D01*
X0119397Y0177933D01*
X0119405Y0177977D01*
X0119416Y0178021D01*
X0119431Y0178063D01*
X0119450Y0178104D01*
X0119471Y0178143D01*
X0119496Y0178180D01*
X0119525Y0178215D01*
X0119556Y0178247D01*
X0119589Y0178277D01*
X0119625Y0178303D01*
X0119663Y0178327D01*
X0119704Y0178347D01*
X0119745Y0178364D01*
X0119788Y0178377D01*
X0119832Y0178386D01*
X0119876Y0178392D01*
X0119921Y0178394D01*
X0122211Y0178394D02*
X0121577Y0176494D01*
X0121736Y0176969D02*
X0122686Y0176969D01*
X0122844Y0176494D02*
X0122211Y0178394D01*
X0123705Y0178394D02*
X0124128Y0178394D01*
X0124167Y0178392D01*
X0124206Y0178387D01*
X0124243Y0178378D01*
X0124280Y0178366D01*
X0124316Y0178350D01*
X0124350Y0178331D01*
X0124382Y0178309D01*
X0124412Y0178284D01*
X0124440Y0178256D01*
X0124465Y0178226D01*
X0124487Y0178194D01*
X0124506Y0178160D01*
X0124522Y0178124D01*
X0124534Y0178087D01*
X0124543Y0178050D01*
X0124548Y0178011D01*
X0124550Y0177972D01*
X0124550Y0176916D01*
X0124548Y0176877D01*
X0124543Y0176838D01*
X0124534Y0176801D01*
X0124522Y0176764D01*
X0124506Y0176728D01*
X0124487Y0176694D01*
X0124465Y0176662D01*
X0124440Y0176632D01*
X0124412Y0176604D01*
X0124382Y0176579D01*
X0124350Y0176557D01*
X0124316Y0176538D01*
X0124280Y0176522D01*
X0124243Y0176510D01*
X0124206Y0176501D01*
X0124167Y0176496D01*
X0124128Y0176494D01*
X0123705Y0176494D01*
X0125533Y0176283D02*
X0126377Y0176283D01*
X0127443Y0177022D02*
X0127443Y0177866D01*
X0127445Y0177910D01*
X0127450Y0177953D01*
X0127459Y0177996D01*
X0127472Y0178037D01*
X0127487Y0178078D01*
X0127507Y0178117D01*
X0127529Y0178155D01*
X0127554Y0178190D01*
X0127583Y0178224D01*
X0127613Y0178254D01*
X0127647Y0178283D01*
X0127682Y0178308D01*
X0127720Y0178330D01*
X0127759Y0178350D01*
X0127800Y0178365D01*
X0127841Y0178378D01*
X0127884Y0178387D01*
X0127927Y0178392D01*
X0127971Y0178394D01*
X0128499Y0178394D01*
X0128499Y0176494D01*
X0127971Y0176494D01*
X0127927Y0176496D01*
X0127884Y0176501D01*
X0127841Y0176510D01*
X0127800Y0176523D01*
X0127759Y0176538D01*
X0127720Y0176558D01*
X0127682Y0176580D01*
X0127647Y0176605D01*
X0127613Y0176634D01*
X0127583Y0176664D01*
X0127554Y0176698D01*
X0127529Y0176733D01*
X0127507Y0176771D01*
X0127487Y0176810D01*
X0127472Y0176851D01*
X0127459Y0176892D01*
X0127450Y0176935D01*
X0127445Y0176978D01*
X0127443Y0177022D01*
X0129747Y0177022D02*
X0129747Y0177866D01*
X0129749Y0177910D01*
X0129754Y0177953D01*
X0129763Y0177996D01*
X0129776Y0178037D01*
X0129791Y0178078D01*
X0129811Y0178117D01*
X0129833Y0178155D01*
X0129858Y0178190D01*
X0129887Y0178224D01*
X0129917Y0178254D01*
X0129951Y0178283D01*
X0129986Y0178308D01*
X0130024Y0178330D01*
X0130063Y0178350D01*
X0130104Y0178365D01*
X0130145Y0178378D01*
X0130188Y0178387D01*
X0130231Y0178392D01*
X0130275Y0178394D01*
X0130803Y0178394D01*
X0130803Y0176494D01*
X0130275Y0176494D01*
X0130231Y0176496D01*
X0130188Y0176501D01*
X0130145Y0176510D01*
X0130104Y0176523D01*
X0130063Y0176538D01*
X0130024Y0176558D01*
X0129986Y0176580D01*
X0129951Y0176605D01*
X0129917Y0176634D01*
X0129887Y0176664D01*
X0129858Y0176698D01*
X0129833Y0176733D01*
X0129811Y0176771D01*
X0129791Y0176810D01*
X0129776Y0176851D01*
X0129763Y0176892D01*
X0129754Y0176935D01*
X0129749Y0176978D01*
X0129747Y0177022D01*
X0131873Y0178394D02*
X0132507Y0176494D01*
X0133140Y0178394D01*
X0134211Y0177866D02*
X0134211Y0177022D01*
X0134213Y0176978D01*
X0134218Y0176935D01*
X0134227Y0176892D01*
X0134240Y0176851D01*
X0134255Y0176810D01*
X0134275Y0176771D01*
X0134297Y0176733D01*
X0134322Y0176698D01*
X0134351Y0176664D01*
X0134381Y0176634D01*
X0134415Y0176605D01*
X0134450Y0176580D01*
X0134488Y0176558D01*
X0134527Y0176538D01*
X0134568Y0176523D01*
X0134609Y0176510D01*
X0134652Y0176501D01*
X0134695Y0176496D01*
X0134739Y0176494D01*
X0135266Y0176494D01*
X0135266Y0178394D01*
X0134739Y0178394D01*
X0134695Y0178392D01*
X0134652Y0178387D01*
X0134609Y0178378D01*
X0134568Y0178365D01*
X0134527Y0178350D01*
X0134488Y0178330D01*
X0134450Y0178308D01*
X0134415Y0178283D01*
X0134381Y0178254D01*
X0134351Y0178224D01*
X0134322Y0178190D01*
X0134297Y0178155D01*
X0134275Y0178117D01*
X0134255Y0178078D01*
X0134240Y0178037D01*
X0134227Y0177996D01*
X0134218Y0177953D01*
X0134213Y0177910D01*
X0134211Y0177866D01*
X0137030Y0177474D02*
X0137558Y0177474D01*
X0137558Y0175574D01*
X0137558Y0176419D02*
X0137030Y0176419D01*
X0136985Y0176421D01*
X0136941Y0176427D01*
X0136897Y0176436D01*
X0136854Y0176449D01*
X0136813Y0176466D01*
X0136772Y0176486D01*
X0136734Y0176510D01*
X0136698Y0176536D01*
X0136665Y0176566D01*
X0136634Y0176598D01*
X0136605Y0176633D01*
X0136580Y0176670D01*
X0136559Y0176709D01*
X0136540Y0176750D01*
X0136525Y0176792D01*
X0136514Y0176836D01*
X0136506Y0176880D01*
X0136502Y0176925D01*
X0136502Y0176969D01*
X0136506Y0177014D01*
X0136514Y0177058D01*
X0136525Y0177102D01*
X0136540Y0177144D01*
X0136559Y0177185D01*
X0136580Y0177224D01*
X0136605Y0177261D01*
X0136634Y0177296D01*
X0136665Y0177328D01*
X0136698Y0177358D01*
X0136734Y0177384D01*
X0136772Y0177408D01*
X0136813Y0177428D01*
X0136854Y0177445D01*
X0136897Y0177458D01*
X0136941Y0177467D01*
X0136985Y0177473D01*
X0137030Y0177475D01*
X0139320Y0177474D02*
X0138687Y0175574D01*
X0138845Y0176049D02*
X0139795Y0176049D01*
X0139953Y0175574D02*
X0139320Y0177474D01*
X0140394Y0177016D02*
X0141238Y0177016D01*
X0141238Y0175116D01*
X0141237Y0175574D02*
X0140815Y0175574D01*
X0141237Y0175575D02*
X0141276Y0175577D01*
X0141315Y0175582D01*
X0141352Y0175591D01*
X0141389Y0175603D01*
X0141425Y0175619D01*
X0141459Y0175638D01*
X0141491Y0175660D01*
X0141521Y0175685D01*
X0141549Y0175713D01*
X0141574Y0175743D01*
X0141596Y0175775D01*
X0141615Y0175809D01*
X0141631Y0175845D01*
X0141643Y0175882D01*
X0141652Y0175919D01*
X0141657Y0175958D01*
X0141659Y0175997D01*
X0141659Y0177052D01*
X0141657Y0177091D01*
X0141652Y0177130D01*
X0141643Y0177167D01*
X0141631Y0177204D01*
X0141615Y0177240D01*
X0141596Y0177274D01*
X0141574Y0177306D01*
X0141549Y0177336D01*
X0141521Y0177364D01*
X0141491Y0177389D01*
X0141459Y0177411D01*
X0141425Y0177430D01*
X0141389Y0177446D01*
X0141352Y0177458D01*
X0141315Y0177467D01*
X0141276Y0177472D01*
X0141237Y0177474D01*
X0140815Y0177474D01*
X0141238Y0176172D02*
X0140394Y0176172D01*
X0142456Y0176383D02*
X0142456Y0175116D01*
X0142984Y0175116D01*
X0143017Y0175118D01*
X0143050Y0175123D01*
X0143082Y0175132D01*
X0143113Y0175143D01*
X0143143Y0175158D01*
X0143170Y0175177D01*
X0143196Y0175197D01*
X0143220Y0175221D01*
X0143240Y0175247D01*
X0143259Y0175275D01*
X0143274Y0175304D01*
X0143285Y0175335D01*
X0143294Y0175367D01*
X0143299Y0175400D01*
X0143301Y0175433D01*
X0143300Y0175433D02*
X0143300Y0176383D01*
X0145494Y0176066D02*
X0145492Y0175995D01*
X0145488Y0175924D01*
X0145480Y0175854D01*
X0145468Y0175783D01*
X0145454Y0175714D01*
X0145436Y0175645D01*
X0145416Y0175577D01*
X0145392Y0175510D01*
X0145365Y0175444D01*
X0145336Y0175380D01*
X0145388Y0175538D02*
X0144544Y0176594D01*
X0144552Y0176947D02*
X0144552Y0176102D01*
X0144554Y0176058D01*
X0144559Y0176015D01*
X0144568Y0175972D01*
X0144581Y0175931D01*
X0144596Y0175890D01*
X0144616Y0175851D01*
X0144638Y0175813D01*
X0144663Y0175778D01*
X0144692Y0175744D01*
X0144722Y0175714D01*
X0144756Y0175685D01*
X0144791Y0175660D01*
X0144829Y0175638D01*
X0144868Y0175618D01*
X0144909Y0175603D01*
X0144950Y0175590D01*
X0144993Y0175581D01*
X0145036Y0175576D01*
X0145080Y0175574D01*
X0145608Y0175574D01*
X0145608Y0177474D01*
X0145080Y0177474D01*
X0145080Y0177475D02*
X0145036Y0177473D01*
X0144993Y0177468D01*
X0144950Y0177459D01*
X0144909Y0177446D01*
X0144868Y0177431D01*
X0144829Y0177411D01*
X0144791Y0177389D01*
X0144756Y0177364D01*
X0144722Y0177335D01*
X0144692Y0177305D01*
X0144663Y0177271D01*
X0144638Y0177236D01*
X0144616Y0177198D01*
X0144596Y0177159D01*
X0144581Y0177118D01*
X0144568Y0177077D01*
X0144559Y0177034D01*
X0144554Y0176991D01*
X0144552Y0176947D01*
X0144966Y0177017D02*
X0145003Y0177015D01*
X0145040Y0177010D01*
X0145076Y0177001D01*
X0145112Y0176989D01*
X0145146Y0176973D01*
X0145178Y0176955D01*
X0145208Y0176933D01*
X0145236Y0176908D01*
X0145262Y0176881D01*
X0145285Y0176852D01*
X0145305Y0176821D01*
X0145322Y0176787D01*
X0145336Y0176753D01*
X0144966Y0177017D02*
X0144929Y0177015D01*
X0144892Y0177010D01*
X0144856Y0177001D01*
X0144820Y0176989D01*
X0144786Y0176973D01*
X0144754Y0176955D01*
X0144724Y0176933D01*
X0144696Y0176909D01*
X0144670Y0176881D01*
X0144647Y0176852D01*
X0144627Y0176821D01*
X0144610Y0176787D01*
X0144596Y0176753D01*
X0145336Y0176752D02*
X0145365Y0176688D01*
X0145392Y0176622D01*
X0145416Y0176555D01*
X0145436Y0176487D01*
X0145454Y0176418D01*
X0145468Y0176349D01*
X0145480Y0176278D01*
X0145488Y0176208D01*
X0145492Y0176137D01*
X0145494Y0176066D01*
X0144438Y0176066D02*
X0144440Y0176137D01*
X0144444Y0176208D01*
X0144452Y0176278D01*
X0144464Y0176349D01*
X0144478Y0176418D01*
X0144496Y0176487D01*
X0144516Y0176555D01*
X0144540Y0176622D01*
X0144567Y0176688D01*
X0144596Y0176752D01*
X0144596Y0175380D02*
X0144610Y0175346D01*
X0144627Y0175312D01*
X0144647Y0175281D01*
X0144670Y0175252D01*
X0144696Y0175224D01*
X0144724Y0175200D01*
X0144754Y0175178D01*
X0144786Y0175160D01*
X0144820Y0175144D01*
X0144856Y0175132D01*
X0144892Y0175123D01*
X0144929Y0175118D01*
X0144966Y0175116D01*
X0145003Y0175118D01*
X0145040Y0175123D01*
X0145076Y0175132D01*
X0145112Y0175144D01*
X0145146Y0175160D01*
X0145178Y0175178D01*
X0145208Y0175200D01*
X0145236Y0175224D01*
X0145262Y0175252D01*
X0145285Y0175281D01*
X0145305Y0175312D01*
X0145322Y0175346D01*
X0145336Y0175380D01*
X0144596Y0175380D02*
X0144567Y0175444D01*
X0144540Y0175510D01*
X0144516Y0175577D01*
X0144496Y0175645D01*
X0144478Y0175714D01*
X0144464Y0175783D01*
X0144452Y0175854D01*
X0144444Y0175924D01*
X0144440Y0175995D01*
X0144438Y0176066D01*
X0143486Y0175363D02*
X0142642Y0175363D01*
X0146425Y0175222D02*
X0146425Y0175116D01*
X0146531Y0175116D01*
X0146531Y0175222D01*
X0146425Y0175222D01*
X0146856Y0176102D02*
X0146856Y0176947D01*
X0146858Y0176991D01*
X0146863Y0177034D01*
X0146872Y0177077D01*
X0146885Y0177118D01*
X0146900Y0177159D01*
X0146920Y0177198D01*
X0146942Y0177236D01*
X0146967Y0177271D01*
X0146996Y0177305D01*
X0147026Y0177335D01*
X0147060Y0177364D01*
X0147095Y0177389D01*
X0147133Y0177411D01*
X0147172Y0177431D01*
X0147213Y0177446D01*
X0147254Y0177459D01*
X0147297Y0177468D01*
X0147340Y0177473D01*
X0147384Y0177475D01*
X0147384Y0177474D02*
X0147912Y0177474D01*
X0147912Y0175574D01*
X0147384Y0175574D01*
X0147462Y0175116D02*
X0148518Y0175116D01*
X0147990Y0175116D02*
X0147990Y0177016D01*
X0148518Y0176594D01*
X0148983Y0177474D02*
X0149616Y0175574D01*
X0150249Y0177474D01*
X0151776Y0177474D02*
X0151143Y0175574D01*
X0151301Y0176049D02*
X0152251Y0176049D01*
X0152409Y0175574D02*
X0151776Y0177474D01*
X0147384Y0175574D02*
X0147340Y0175576D01*
X0147297Y0175581D01*
X0147254Y0175590D01*
X0147213Y0175603D01*
X0147172Y0175618D01*
X0147133Y0175638D01*
X0147095Y0175660D01*
X0147060Y0175685D01*
X0147026Y0175714D01*
X0146996Y0175744D01*
X0146967Y0175778D01*
X0146942Y0175813D01*
X0146920Y0175851D01*
X0146900Y0175890D01*
X0146885Y0175931D01*
X0146872Y0175972D01*
X0146863Y0176015D01*
X0146858Y0176058D01*
X0146856Y0176102D01*
X0135329Y0169375D02*
X0134801Y0169797D01*
X0134801Y0167897D01*
X0135329Y0167897D02*
X0134273Y0167897D01*
X0133342Y0167897D02*
X0133236Y0167897D01*
X0133236Y0168003D01*
X0133342Y0168003D01*
X0133342Y0167897D01*
X0131407Y0168161D02*
X0131378Y0168225D01*
X0131351Y0168291D01*
X0131327Y0168358D01*
X0131307Y0168426D01*
X0131289Y0168495D01*
X0131275Y0168564D01*
X0131263Y0168635D01*
X0131255Y0168705D01*
X0131251Y0168776D01*
X0131249Y0168847D01*
X0132305Y0168847D02*
X0132303Y0168918D01*
X0132299Y0168989D01*
X0132291Y0169059D01*
X0132279Y0169130D01*
X0132265Y0169199D01*
X0132247Y0169268D01*
X0132227Y0169336D01*
X0132203Y0169403D01*
X0132176Y0169469D01*
X0132147Y0169533D01*
X0132147Y0169534D02*
X0132133Y0169568D01*
X0132116Y0169602D01*
X0132096Y0169633D01*
X0132073Y0169662D01*
X0132047Y0169689D01*
X0132019Y0169714D01*
X0131989Y0169736D01*
X0131957Y0169754D01*
X0131923Y0169770D01*
X0131887Y0169782D01*
X0131851Y0169791D01*
X0131814Y0169796D01*
X0131777Y0169798D01*
X0131740Y0169796D01*
X0131703Y0169791D01*
X0131667Y0169782D01*
X0131631Y0169770D01*
X0131597Y0169754D01*
X0131565Y0169736D01*
X0131535Y0169714D01*
X0131507Y0169690D01*
X0131481Y0169662D01*
X0131458Y0169633D01*
X0131438Y0169602D01*
X0131421Y0169568D01*
X0131407Y0169534D01*
X0131355Y0169375D02*
X0132199Y0168319D01*
X0131777Y0167897D02*
X0131740Y0167899D01*
X0131703Y0167904D01*
X0131667Y0167913D01*
X0131631Y0167925D01*
X0131597Y0167941D01*
X0131565Y0167959D01*
X0131535Y0167981D01*
X0131507Y0168005D01*
X0131481Y0168033D01*
X0131458Y0168062D01*
X0131438Y0168093D01*
X0131421Y0168127D01*
X0131407Y0168161D01*
X0131777Y0167897D02*
X0131814Y0167899D01*
X0131851Y0167904D01*
X0131887Y0167913D01*
X0131923Y0167925D01*
X0131957Y0167941D01*
X0131989Y0167959D01*
X0132019Y0167981D01*
X0132047Y0168005D01*
X0132073Y0168033D01*
X0132096Y0168062D01*
X0132116Y0168093D01*
X0132133Y0168127D01*
X0132147Y0168161D01*
X0131249Y0168847D02*
X0131251Y0168918D01*
X0131255Y0168989D01*
X0131263Y0169059D01*
X0131275Y0169130D01*
X0131289Y0169199D01*
X0131307Y0169268D01*
X0131327Y0169336D01*
X0131351Y0169403D01*
X0131378Y0169469D01*
X0131407Y0169533D01*
X0132305Y0168847D02*
X0132303Y0168776D01*
X0132299Y0168705D01*
X0132291Y0168635D01*
X0132279Y0168564D01*
X0132265Y0168495D01*
X0132247Y0168426D01*
X0132227Y0168358D01*
X0132203Y0168291D01*
X0132176Y0168225D01*
X0132147Y0168161D01*
X0130111Y0168214D02*
X0130111Y0169164D01*
X0129267Y0169164D02*
X0129267Y0167897D01*
X0129795Y0167897D01*
X0129828Y0167899D01*
X0129861Y0167904D01*
X0129893Y0167913D01*
X0129924Y0167924D01*
X0129954Y0167939D01*
X0129981Y0167958D01*
X0130007Y0167978D01*
X0130031Y0168002D01*
X0130051Y0168028D01*
X0130070Y0168056D01*
X0130085Y0168085D01*
X0130096Y0168116D01*
X0130105Y0168148D01*
X0130110Y0168181D01*
X0130112Y0168214D01*
X0128049Y0167897D02*
X0128049Y0169797D01*
X0127205Y0169797D01*
X0127205Y0168953D02*
X0128049Y0168953D01*
X0113675Y0168094D02*
X0112620Y0168094D01*
X0111688Y0168094D02*
X0111583Y0168094D01*
X0111583Y0168200D01*
X0111688Y0168200D01*
X0111688Y0168094D01*
X0110651Y0168094D02*
X0109596Y0168094D01*
X0110651Y0168094D02*
X0109754Y0169150D01*
X0110071Y0169994D02*
X0110119Y0169992D01*
X0110166Y0169986D01*
X0110214Y0169977D01*
X0110260Y0169964D01*
X0110305Y0169947D01*
X0110348Y0169927D01*
X0110390Y0169904D01*
X0110430Y0169877D01*
X0110467Y0169848D01*
X0110503Y0169815D01*
X0110535Y0169780D01*
X0110565Y0169742D01*
X0110591Y0169702D01*
X0110615Y0169660D01*
X0110635Y0169617D01*
X0110651Y0169572D01*
X0109754Y0169150D02*
X0109726Y0169179D01*
X0109699Y0169211D01*
X0109676Y0169245D01*
X0109655Y0169281D01*
X0109637Y0169318D01*
X0109623Y0169357D01*
X0109611Y0169396D01*
X0109603Y0169437D01*
X0109598Y0169478D01*
X0109596Y0169519D01*
X0109598Y0169560D01*
X0109603Y0169601D01*
X0109612Y0169642D01*
X0109625Y0169681D01*
X0109641Y0169720D01*
X0109660Y0169756D01*
X0109682Y0169791D01*
X0109707Y0169824D01*
X0109735Y0169855D01*
X0109766Y0169883D01*
X0109799Y0169908D01*
X0109833Y0169930D01*
X0109870Y0169949D01*
X0109909Y0169965D01*
X0109948Y0169978D01*
X0109989Y0169987D01*
X0110030Y0169992D01*
X0110071Y0169994D01*
X0108458Y0169361D02*
X0108458Y0168411D01*
X0108456Y0168378D01*
X0108451Y0168345D01*
X0108442Y0168313D01*
X0108431Y0168282D01*
X0108416Y0168253D01*
X0108397Y0168225D01*
X0108377Y0168199D01*
X0108353Y0168175D01*
X0108327Y0168155D01*
X0108300Y0168136D01*
X0108270Y0168121D01*
X0108239Y0168110D01*
X0108207Y0168101D01*
X0108174Y0168096D01*
X0108141Y0168094D01*
X0107613Y0168094D01*
X0107613Y0169361D01*
X0106396Y0169150D02*
X0105551Y0169150D01*
X0105551Y0169994D02*
X0106396Y0169994D01*
X0106396Y0168094D01*
X0112778Y0169150D02*
X0113675Y0168094D01*
X0113675Y0169572D02*
X0113659Y0169617D01*
X0113639Y0169660D01*
X0113615Y0169702D01*
X0113589Y0169742D01*
X0113559Y0169780D01*
X0113527Y0169815D01*
X0113491Y0169848D01*
X0113454Y0169877D01*
X0113414Y0169904D01*
X0113372Y0169927D01*
X0113329Y0169947D01*
X0113284Y0169964D01*
X0113238Y0169977D01*
X0113190Y0169986D01*
X0113143Y0169992D01*
X0113095Y0169994D01*
X0113054Y0169992D01*
X0113013Y0169987D01*
X0112972Y0169978D01*
X0112933Y0169965D01*
X0112894Y0169949D01*
X0112857Y0169930D01*
X0112823Y0169908D01*
X0112790Y0169883D01*
X0112759Y0169855D01*
X0112731Y0169824D01*
X0112706Y0169791D01*
X0112684Y0169756D01*
X0112665Y0169720D01*
X0112649Y0169681D01*
X0112636Y0169642D01*
X0112627Y0169601D01*
X0112622Y0169560D01*
X0112620Y0169519D01*
X0112622Y0169478D01*
X0112627Y0169437D01*
X0112635Y0169396D01*
X0112647Y0169357D01*
X0112661Y0169318D01*
X0112679Y0169281D01*
X0112700Y0169245D01*
X0112723Y0169211D01*
X0112750Y0169179D01*
X0112778Y0169150D01*
X0083726Y0175284D02*
X0081826Y0175284D01*
X0081826Y0175811D02*
X0081826Y0174756D01*
X0083303Y0174756D02*
X0083726Y0175284D01*
X0082776Y0177972D02*
X0082705Y0177970D01*
X0082634Y0177966D01*
X0082564Y0177958D01*
X0082493Y0177946D01*
X0082424Y0177932D01*
X0082355Y0177914D01*
X0082287Y0177894D01*
X0082220Y0177870D01*
X0082154Y0177843D01*
X0082090Y0177814D01*
X0082089Y0177814D02*
X0082055Y0177800D01*
X0082021Y0177783D01*
X0081990Y0177763D01*
X0081961Y0177740D01*
X0081933Y0177714D01*
X0081909Y0177686D01*
X0081887Y0177656D01*
X0081869Y0177624D01*
X0081853Y0177590D01*
X0081841Y0177554D01*
X0081832Y0177518D01*
X0081827Y0177481D01*
X0081825Y0177444D01*
X0081827Y0177407D01*
X0081832Y0177370D01*
X0081841Y0177334D01*
X0081853Y0177298D01*
X0081869Y0177264D01*
X0081887Y0177232D01*
X0081909Y0177202D01*
X0081933Y0177174D01*
X0081961Y0177148D01*
X0081990Y0177125D01*
X0082021Y0177105D01*
X0082055Y0177088D01*
X0082089Y0177074D01*
X0082248Y0177021D02*
X0083303Y0177866D01*
X0083462Y0177814D02*
X0083496Y0177800D01*
X0083530Y0177783D01*
X0083561Y0177763D01*
X0083590Y0177740D01*
X0083617Y0177714D01*
X0083642Y0177686D01*
X0083664Y0177656D01*
X0083682Y0177624D01*
X0083698Y0177590D01*
X0083710Y0177554D01*
X0083719Y0177518D01*
X0083724Y0177481D01*
X0083726Y0177444D01*
X0083724Y0177407D01*
X0083719Y0177370D01*
X0083710Y0177334D01*
X0083698Y0177298D01*
X0083682Y0177264D01*
X0083664Y0177232D01*
X0083642Y0177202D01*
X0083617Y0177174D01*
X0083590Y0177148D01*
X0083561Y0177125D01*
X0083530Y0177105D01*
X0083496Y0177088D01*
X0083462Y0177074D01*
X0083462Y0177814D02*
X0083398Y0177843D01*
X0083332Y0177870D01*
X0083265Y0177894D01*
X0083197Y0177914D01*
X0083128Y0177932D01*
X0083059Y0177946D01*
X0082988Y0177958D01*
X0082918Y0177966D01*
X0082847Y0177970D01*
X0082776Y0177972D01*
X0082776Y0176916D02*
X0082847Y0176918D01*
X0082918Y0176922D01*
X0082988Y0176930D01*
X0083059Y0176942D01*
X0083128Y0176956D01*
X0083197Y0176974D01*
X0083265Y0176994D01*
X0083332Y0177018D01*
X0083398Y0177045D01*
X0083462Y0177074D01*
X0082776Y0176916D02*
X0082705Y0176918D01*
X0082634Y0176922D01*
X0082564Y0176930D01*
X0082493Y0176942D01*
X0082424Y0176956D01*
X0082355Y0176974D01*
X0082287Y0176994D01*
X0082220Y0177018D01*
X0082154Y0177045D01*
X0082090Y0177074D01*
X0081826Y0179156D02*
X0083726Y0179156D01*
X0083092Y0180000D02*
X0082459Y0179156D01*
X0082723Y0179525D02*
X0081826Y0180000D01*
X0096496Y0122489D02*
X0097341Y0122489D01*
X0097341Y0120589D01*
X0097341Y0121644D02*
X0096496Y0121644D01*
X0098558Y0121855D02*
X0098558Y0120589D01*
X0099086Y0120589D01*
X0099086Y0120588D02*
X0099119Y0120590D01*
X0099152Y0120595D01*
X0099184Y0120604D01*
X0099215Y0120615D01*
X0099245Y0120630D01*
X0099272Y0120649D01*
X0099298Y0120669D01*
X0099322Y0120693D01*
X0099342Y0120719D01*
X0099361Y0120747D01*
X0099376Y0120776D01*
X0099387Y0120807D01*
X0099396Y0120839D01*
X0099401Y0120872D01*
X0099403Y0120905D01*
X0099403Y0121855D01*
X0100541Y0120589D02*
X0101596Y0120589D01*
X0101069Y0120589D02*
X0101069Y0122489D01*
X0101596Y0122066D01*
X0104620Y0121539D02*
X0104618Y0121468D01*
X0104614Y0121397D01*
X0104606Y0121327D01*
X0104594Y0121256D01*
X0104580Y0121187D01*
X0104562Y0121118D01*
X0104542Y0121050D01*
X0104518Y0120983D01*
X0104491Y0120917D01*
X0104462Y0120853D01*
X0104515Y0121011D02*
X0103670Y0122066D01*
X0103723Y0122225D02*
X0103737Y0122259D01*
X0103754Y0122293D01*
X0103774Y0122324D01*
X0103797Y0122353D01*
X0103823Y0122381D01*
X0103851Y0122405D01*
X0103881Y0122427D01*
X0103913Y0122445D01*
X0103947Y0122461D01*
X0103983Y0122473D01*
X0104019Y0122482D01*
X0104056Y0122487D01*
X0104093Y0122489D01*
X0104130Y0122487D01*
X0104167Y0122482D01*
X0104203Y0122473D01*
X0104239Y0122461D01*
X0104273Y0122445D01*
X0104305Y0122427D01*
X0104335Y0122405D01*
X0104363Y0122380D01*
X0104389Y0122353D01*
X0104412Y0122324D01*
X0104432Y0122293D01*
X0104449Y0122259D01*
X0104463Y0122225D01*
X0103722Y0122225D02*
X0103693Y0122161D01*
X0103666Y0122095D01*
X0103642Y0122028D01*
X0103622Y0121960D01*
X0103604Y0121891D01*
X0103590Y0121822D01*
X0103578Y0121751D01*
X0103570Y0121681D01*
X0103566Y0121610D01*
X0103564Y0121539D01*
X0104621Y0121539D02*
X0104619Y0121610D01*
X0104615Y0121681D01*
X0104607Y0121751D01*
X0104595Y0121822D01*
X0104581Y0121891D01*
X0104563Y0121960D01*
X0104543Y0122028D01*
X0104519Y0122095D01*
X0104492Y0122161D01*
X0104463Y0122225D01*
X0103565Y0121539D02*
X0103567Y0121468D01*
X0103571Y0121397D01*
X0103579Y0121327D01*
X0103591Y0121256D01*
X0103605Y0121187D01*
X0103623Y0121118D01*
X0103643Y0121050D01*
X0103667Y0120983D01*
X0103694Y0120917D01*
X0103723Y0120853D01*
X0104093Y0120588D02*
X0104130Y0120590D01*
X0104167Y0120595D01*
X0104203Y0120604D01*
X0104239Y0120616D01*
X0104273Y0120632D01*
X0104305Y0120650D01*
X0104335Y0120672D01*
X0104363Y0120696D01*
X0104389Y0120724D01*
X0104412Y0120753D01*
X0104432Y0120784D01*
X0104449Y0120818D01*
X0104463Y0120852D01*
X0104093Y0120588D02*
X0104056Y0120590D01*
X0104019Y0120595D01*
X0103983Y0120604D01*
X0103947Y0120616D01*
X0103913Y0120632D01*
X0103881Y0120650D01*
X0103851Y0120672D01*
X0103823Y0120696D01*
X0103797Y0120724D01*
X0103774Y0120753D01*
X0103754Y0120784D01*
X0103737Y0120818D01*
X0103723Y0120852D01*
X0102633Y0120694D02*
X0102528Y0120694D01*
X0102528Y0120589D01*
X0102633Y0120589D01*
X0102633Y0120694D01*
X0101569Y0114089D02*
X0101147Y0114089D01*
X0101569Y0114088D02*
X0101608Y0114086D01*
X0101647Y0114081D01*
X0101684Y0114072D01*
X0101721Y0114060D01*
X0101757Y0114044D01*
X0101791Y0114025D01*
X0101823Y0114003D01*
X0101853Y0113978D01*
X0101881Y0113950D01*
X0101906Y0113920D01*
X0101928Y0113888D01*
X0101947Y0113854D01*
X0101963Y0113818D01*
X0101975Y0113781D01*
X0101984Y0113744D01*
X0101989Y0113705D01*
X0101991Y0113666D01*
X0101992Y0113666D02*
X0101992Y0112611D01*
X0101991Y0112611D02*
X0101989Y0112572D01*
X0101984Y0112533D01*
X0101975Y0112496D01*
X0101963Y0112459D01*
X0101947Y0112423D01*
X0101928Y0112389D01*
X0101906Y0112357D01*
X0101881Y0112327D01*
X0101853Y0112299D01*
X0101823Y0112274D01*
X0101791Y0112252D01*
X0101757Y0112233D01*
X0101721Y0112217D01*
X0101684Y0112205D01*
X0101647Y0112196D01*
X0101608Y0112191D01*
X0101569Y0112189D01*
X0101147Y0112189D01*
X0100180Y0112189D02*
X0099125Y0112189D01*
X0099653Y0112189D02*
X0099653Y0114089D01*
X0100180Y0113666D01*
X0113425Y0121644D02*
X0114270Y0121644D01*
X0114270Y0122489D02*
X0113425Y0122489D01*
X0114270Y0122489D02*
X0114270Y0120589D01*
X0115487Y0120589D02*
X0115487Y0121855D01*
X0116332Y0121855D02*
X0116332Y0120905D01*
X0116330Y0120872D01*
X0116325Y0120839D01*
X0116316Y0120807D01*
X0116305Y0120776D01*
X0116290Y0120747D01*
X0116271Y0120719D01*
X0116251Y0120693D01*
X0116227Y0120669D01*
X0116201Y0120649D01*
X0116174Y0120630D01*
X0116144Y0120615D01*
X0116113Y0120604D01*
X0116081Y0120595D01*
X0116048Y0120590D01*
X0116015Y0120588D01*
X0116015Y0120589D02*
X0115487Y0120589D01*
X0117470Y0120589D02*
X0118525Y0120589D01*
X0117998Y0120589D02*
X0117998Y0122489D01*
X0118525Y0122066D01*
X0121550Y0121539D02*
X0121548Y0121468D01*
X0121544Y0121397D01*
X0121536Y0121327D01*
X0121524Y0121256D01*
X0121510Y0121187D01*
X0121492Y0121118D01*
X0121472Y0121050D01*
X0121448Y0120983D01*
X0121421Y0120917D01*
X0121392Y0120853D01*
X0121444Y0121011D02*
X0120599Y0122066D01*
X0120652Y0122225D02*
X0120666Y0122259D01*
X0120683Y0122293D01*
X0120703Y0122324D01*
X0120726Y0122353D01*
X0120752Y0122381D01*
X0120780Y0122405D01*
X0120810Y0122427D01*
X0120842Y0122445D01*
X0120876Y0122461D01*
X0120912Y0122473D01*
X0120948Y0122482D01*
X0120985Y0122487D01*
X0121022Y0122489D01*
X0121059Y0122487D01*
X0121096Y0122482D01*
X0121132Y0122473D01*
X0121168Y0122461D01*
X0121202Y0122445D01*
X0121234Y0122427D01*
X0121264Y0122405D01*
X0121292Y0122380D01*
X0121318Y0122353D01*
X0121341Y0122324D01*
X0121361Y0122293D01*
X0121378Y0122259D01*
X0121392Y0122225D01*
X0120652Y0122225D02*
X0120623Y0122161D01*
X0120596Y0122095D01*
X0120572Y0122028D01*
X0120552Y0121960D01*
X0120534Y0121891D01*
X0120520Y0121822D01*
X0120508Y0121751D01*
X0120500Y0121681D01*
X0120496Y0121610D01*
X0120494Y0121539D01*
X0121550Y0121539D02*
X0121548Y0121610D01*
X0121544Y0121681D01*
X0121536Y0121751D01*
X0121524Y0121822D01*
X0121510Y0121891D01*
X0121492Y0121960D01*
X0121472Y0122028D01*
X0121448Y0122095D01*
X0121421Y0122161D01*
X0121392Y0122225D01*
X0120494Y0121539D02*
X0120496Y0121468D01*
X0120500Y0121397D01*
X0120508Y0121327D01*
X0120520Y0121256D01*
X0120534Y0121187D01*
X0120552Y0121118D01*
X0120572Y0121050D01*
X0120596Y0120983D01*
X0120623Y0120917D01*
X0120652Y0120853D01*
X0121022Y0120588D02*
X0121059Y0120590D01*
X0121096Y0120595D01*
X0121132Y0120604D01*
X0121168Y0120616D01*
X0121202Y0120632D01*
X0121234Y0120650D01*
X0121264Y0120672D01*
X0121292Y0120696D01*
X0121318Y0120724D01*
X0121341Y0120753D01*
X0121361Y0120784D01*
X0121378Y0120818D01*
X0121392Y0120852D01*
X0121022Y0120588D02*
X0120985Y0120590D01*
X0120948Y0120595D01*
X0120912Y0120604D01*
X0120876Y0120616D01*
X0120842Y0120632D01*
X0120810Y0120650D01*
X0120780Y0120672D01*
X0120752Y0120696D01*
X0120726Y0120724D01*
X0120703Y0120753D01*
X0120683Y0120784D01*
X0120666Y0120818D01*
X0120652Y0120852D01*
X0119562Y0120694D02*
X0119457Y0120694D01*
X0119457Y0120589D01*
X0119562Y0120589D01*
X0119562Y0120694D01*
X0119579Y0114089D02*
X0119156Y0114089D01*
X0119579Y0114088D02*
X0119618Y0114086D01*
X0119657Y0114081D01*
X0119694Y0114072D01*
X0119731Y0114060D01*
X0119767Y0114044D01*
X0119801Y0114025D01*
X0119833Y0114003D01*
X0119863Y0113978D01*
X0119891Y0113950D01*
X0119916Y0113920D01*
X0119938Y0113888D01*
X0119957Y0113854D01*
X0119973Y0113818D01*
X0119985Y0113781D01*
X0119994Y0113744D01*
X0119999Y0113705D01*
X0120001Y0113666D01*
X0120001Y0112611D01*
X0119999Y0112572D01*
X0119994Y0112533D01*
X0119985Y0112496D01*
X0119973Y0112459D01*
X0119957Y0112423D01*
X0119938Y0112389D01*
X0119916Y0112357D01*
X0119891Y0112327D01*
X0119863Y0112299D01*
X0119833Y0112274D01*
X0119801Y0112252D01*
X0119767Y0112233D01*
X0119731Y0112217D01*
X0119694Y0112205D01*
X0119657Y0112196D01*
X0119618Y0112191D01*
X0119579Y0112189D01*
X0119156Y0112189D01*
X0118190Y0112189D02*
X0117134Y0112189D01*
X0117662Y0112189D02*
X0117662Y0114089D01*
X0118190Y0113666D01*
X0116030Y0112189D02*
X0114974Y0112189D01*
X0116030Y0112189D02*
X0115132Y0113244D01*
X0115449Y0114088D02*
X0115497Y0114086D01*
X0115544Y0114080D01*
X0115592Y0114071D01*
X0115638Y0114058D01*
X0115683Y0114041D01*
X0115726Y0114021D01*
X0115768Y0113998D01*
X0115808Y0113971D01*
X0115845Y0113942D01*
X0115881Y0113909D01*
X0115913Y0113874D01*
X0115943Y0113836D01*
X0115969Y0113796D01*
X0115993Y0113754D01*
X0116013Y0113711D01*
X0116029Y0113666D01*
X0115132Y0113245D02*
X0115104Y0113274D01*
X0115077Y0113306D01*
X0115054Y0113340D01*
X0115033Y0113376D01*
X0115015Y0113413D01*
X0115001Y0113452D01*
X0114989Y0113491D01*
X0114981Y0113532D01*
X0114976Y0113573D01*
X0114974Y0113614D01*
X0114976Y0113655D01*
X0114981Y0113696D01*
X0114990Y0113737D01*
X0115003Y0113776D01*
X0115019Y0113815D01*
X0115038Y0113851D01*
X0115060Y0113886D01*
X0115085Y0113919D01*
X0115113Y0113950D01*
X0115144Y0113978D01*
X0115177Y0114003D01*
X0115211Y0114025D01*
X0115248Y0114044D01*
X0115287Y0114060D01*
X0115326Y0114073D01*
X0115367Y0114082D01*
X0115408Y0114087D01*
X0115449Y0114089D01*
X0129173Y0121644D02*
X0130018Y0121644D01*
X0130018Y0122489D02*
X0129173Y0122489D01*
X0130018Y0122489D02*
X0130018Y0120589D01*
X0131236Y0120589D02*
X0131236Y0121855D01*
X0132080Y0121855D02*
X0132080Y0120905D01*
X0132078Y0120872D01*
X0132073Y0120839D01*
X0132064Y0120807D01*
X0132053Y0120776D01*
X0132038Y0120747D01*
X0132019Y0120719D01*
X0131999Y0120693D01*
X0131975Y0120669D01*
X0131949Y0120649D01*
X0131922Y0120630D01*
X0131892Y0120615D01*
X0131861Y0120604D01*
X0131829Y0120595D01*
X0131796Y0120590D01*
X0131763Y0120588D01*
X0131763Y0120589D02*
X0131236Y0120589D01*
X0133218Y0120589D02*
X0134273Y0120589D01*
X0133746Y0120589D02*
X0133746Y0122489D01*
X0134273Y0122066D01*
X0137298Y0121539D02*
X0137296Y0121468D01*
X0137292Y0121397D01*
X0137284Y0121327D01*
X0137272Y0121256D01*
X0137258Y0121187D01*
X0137240Y0121118D01*
X0137220Y0121050D01*
X0137196Y0120983D01*
X0137169Y0120917D01*
X0137140Y0120853D01*
X0137192Y0121011D02*
X0136347Y0122066D01*
X0136400Y0122225D02*
X0136414Y0122259D01*
X0136431Y0122293D01*
X0136451Y0122324D01*
X0136474Y0122353D01*
X0136500Y0122381D01*
X0136528Y0122405D01*
X0136558Y0122427D01*
X0136590Y0122445D01*
X0136624Y0122461D01*
X0136660Y0122473D01*
X0136696Y0122482D01*
X0136733Y0122487D01*
X0136770Y0122489D01*
X0136807Y0122487D01*
X0136844Y0122482D01*
X0136880Y0122473D01*
X0136916Y0122461D01*
X0136950Y0122445D01*
X0136982Y0122427D01*
X0137012Y0122405D01*
X0137040Y0122380D01*
X0137066Y0122353D01*
X0137089Y0122324D01*
X0137109Y0122293D01*
X0137126Y0122259D01*
X0137140Y0122225D01*
X0136400Y0122225D02*
X0136371Y0122161D01*
X0136344Y0122095D01*
X0136320Y0122028D01*
X0136300Y0121960D01*
X0136282Y0121891D01*
X0136268Y0121822D01*
X0136256Y0121751D01*
X0136248Y0121681D01*
X0136244Y0121610D01*
X0136242Y0121539D01*
X0137298Y0121539D02*
X0137296Y0121610D01*
X0137292Y0121681D01*
X0137284Y0121751D01*
X0137272Y0121822D01*
X0137258Y0121891D01*
X0137240Y0121960D01*
X0137220Y0122028D01*
X0137196Y0122095D01*
X0137169Y0122161D01*
X0137140Y0122225D01*
X0136242Y0121539D02*
X0136244Y0121468D01*
X0136248Y0121397D01*
X0136256Y0121327D01*
X0136268Y0121256D01*
X0136282Y0121187D01*
X0136300Y0121118D01*
X0136320Y0121050D01*
X0136344Y0120983D01*
X0136371Y0120917D01*
X0136400Y0120853D01*
X0136770Y0120588D02*
X0136807Y0120590D01*
X0136844Y0120595D01*
X0136880Y0120604D01*
X0136916Y0120616D01*
X0136950Y0120632D01*
X0136982Y0120650D01*
X0137012Y0120672D01*
X0137040Y0120696D01*
X0137066Y0120724D01*
X0137089Y0120753D01*
X0137109Y0120784D01*
X0137126Y0120818D01*
X0137140Y0120852D01*
X0136770Y0120588D02*
X0136733Y0120590D01*
X0136696Y0120595D01*
X0136660Y0120604D01*
X0136624Y0120616D01*
X0136590Y0120632D01*
X0136558Y0120650D01*
X0136528Y0120672D01*
X0136500Y0120696D01*
X0136474Y0120724D01*
X0136451Y0120753D01*
X0136431Y0120784D01*
X0136414Y0120818D01*
X0136400Y0120852D01*
X0135310Y0120694D02*
X0135205Y0120694D01*
X0135205Y0120589D01*
X0135310Y0120589D01*
X0135310Y0120694D01*
X0135327Y0114089D02*
X0134904Y0114089D01*
X0135327Y0114088D02*
X0135366Y0114086D01*
X0135405Y0114081D01*
X0135442Y0114072D01*
X0135479Y0114060D01*
X0135515Y0114044D01*
X0135549Y0114025D01*
X0135581Y0114003D01*
X0135611Y0113978D01*
X0135639Y0113950D01*
X0135664Y0113920D01*
X0135686Y0113888D01*
X0135705Y0113854D01*
X0135721Y0113818D01*
X0135733Y0113781D01*
X0135742Y0113744D01*
X0135747Y0113705D01*
X0135749Y0113666D01*
X0135749Y0112611D01*
X0135747Y0112572D01*
X0135742Y0112533D01*
X0135733Y0112496D01*
X0135721Y0112459D01*
X0135705Y0112423D01*
X0135686Y0112389D01*
X0135664Y0112357D01*
X0135639Y0112327D01*
X0135611Y0112299D01*
X0135581Y0112274D01*
X0135549Y0112252D01*
X0135515Y0112233D01*
X0135479Y0112217D01*
X0135442Y0112205D01*
X0135405Y0112196D01*
X0135366Y0112191D01*
X0135327Y0112189D01*
X0134904Y0112189D01*
X0133938Y0112189D02*
X0132882Y0112189D01*
X0133410Y0112189D02*
X0133410Y0114089D01*
X0133938Y0113666D01*
X0131778Y0114089D02*
X0131144Y0114089D01*
X0131144Y0114088D02*
X0131104Y0114086D01*
X0131064Y0114080D01*
X0131025Y0114071D01*
X0130987Y0114058D01*
X0130951Y0114041D01*
X0130916Y0114021D01*
X0130883Y0113998D01*
X0130853Y0113971D01*
X0130825Y0113942D01*
X0130800Y0113911D01*
X0130779Y0113877D01*
X0130760Y0113841D01*
X0130745Y0113804D01*
X0130734Y0113765D01*
X0130726Y0113726D01*
X0130722Y0113686D01*
X0130722Y0113646D01*
X0130726Y0113606D01*
X0130734Y0113567D01*
X0130745Y0113528D01*
X0130760Y0113491D01*
X0130779Y0113455D01*
X0130800Y0113421D01*
X0130825Y0113390D01*
X0130853Y0113361D01*
X0130883Y0113334D01*
X0130916Y0113311D01*
X0130951Y0113291D01*
X0130987Y0113274D01*
X0131025Y0113261D01*
X0131064Y0113252D01*
X0131104Y0113246D01*
X0131144Y0113244D01*
X0131566Y0113244D01*
X0131250Y0113244D02*
X0131205Y0113242D01*
X0131161Y0113236D01*
X0131117Y0113227D01*
X0131074Y0113214D01*
X0131033Y0113197D01*
X0130992Y0113177D01*
X0130954Y0113153D01*
X0130918Y0113127D01*
X0130885Y0113097D01*
X0130854Y0113065D01*
X0130825Y0113030D01*
X0130800Y0112993D01*
X0130779Y0112954D01*
X0130760Y0112913D01*
X0130745Y0112871D01*
X0130734Y0112827D01*
X0130726Y0112783D01*
X0130722Y0112738D01*
X0130722Y0112694D01*
X0130726Y0112649D01*
X0130734Y0112605D01*
X0130745Y0112561D01*
X0130760Y0112519D01*
X0130779Y0112478D01*
X0130800Y0112439D01*
X0130825Y0112402D01*
X0130854Y0112367D01*
X0130885Y0112335D01*
X0130918Y0112305D01*
X0130954Y0112279D01*
X0130992Y0112255D01*
X0131033Y0112235D01*
X0131074Y0112218D01*
X0131117Y0112205D01*
X0131161Y0112196D01*
X0131205Y0112190D01*
X0131250Y0112188D01*
X0131250Y0112189D02*
X0131778Y0112189D01*
X0145802Y0101371D02*
X0147702Y0101371D01*
X0147702Y0102216D01*
X0146858Y0102216D02*
X0146858Y0101371D01*
X0146752Y0100153D02*
X0145802Y0100153D01*
X0145802Y0099309D02*
X0147069Y0099309D01*
X0147069Y0099837D01*
X0147067Y0099870D01*
X0147062Y0099903D01*
X0147053Y0099935D01*
X0147042Y0099966D01*
X0147027Y0099996D01*
X0147008Y0100023D01*
X0146988Y0100049D01*
X0146964Y0100073D01*
X0146938Y0100093D01*
X0146911Y0100112D01*
X0146881Y0100127D01*
X0146850Y0100138D01*
X0146818Y0100147D01*
X0146785Y0100152D01*
X0146752Y0100154D01*
X0146858Y0098013D02*
X0145802Y0097115D01*
X0145802Y0098171D01*
X0147280Y0097116D02*
X0147325Y0097132D01*
X0147368Y0097152D01*
X0147410Y0097176D01*
X0147450Y0097202D01*
X0147488Y0097232D01*
X0147523Y0097264D01*
X0147556Y0097300D01*
X0147585Y0097337D01*
X0147612Y0097377D01*
X0147635Y0097419D01*
X0147655Y0097462D01*
X0147672Y0097507D01*
X0147685Y0097553D01*
X0147694Y0097601D01*
X0147700Y0097648D01*
X0147702Y0097696D01*
X0147700Y0097737D01*
X0147695Y0097778D01*
X0147686Y0097819D01*
X0147673Y0097858D01*
X0147657Y0097897D01*
X0147638Y0097934D01*
X0147616Y0097968D01*
X0147591Y0098001D01*
X0147563Y0098032D01*
X0147532Y0098060D01*
X0147499Y0098085D01*
X0147464Y0098107D01*
X0147428Y0098126D01*
X0147389Y0098142D01*
X0147350Y0098155D01*
X0147309Y0098164D01*
X0147268Y0098169D01*
X0147227Y0098171D01*
X0147186Y0098169D01*
X0147145Y0098164D01*
X0147104Y0098156D01*
X0147065Y0098144D01*
X0147026Y0098130D01*
X0146989Y0098112D01*
X0146953Y0098091D01*
X0146919Y0098068D01*
X0146887Y0098041D01*
X0146858Y0098013D01*
X0145908Y0096184D02*
X0145802Y0096184D01*
X0145802Y0096078D01*
X0145908Y0096078D01*
X0145908Y0096184D01*
X0145802Y0095147D02*
X0145802Y0094092D01*
X0146858Y0094989D01*
X0147702Y0094672D02*
X0147700Y0094624D01*
X0147694Y0094577D01*
X0147685Y0094529D01*
X0147672Y0094483D01*
X0147655Y0094438D01*
X0147635Y0094395D01*
X0147612Y0094353D01*
X0147585Y0094313D01*
X0147556Y0094276D01*
X0147523Y0094240D01*
X0147488Y0094208D01*
X0147450Y0094178D01*
X0147410Y0094152D01*
X0147368Y0094128D01*
X0147325Y0094108D01*
X0147280Y0094092D01*
X0146858Y0094989D02*
X0146887Y0095017D01*
X0146919Y0095044D01*
X0146953Y0095067D01*
X0146989Y0095088D01*
X0147026Y0095106D01*
X0147065Y0095120D01*
X0147104Y0095132D01*
X0147145Y0095140D01*
X0147186Y0095145D01*
X0147227Y0095147D01*
X0147268Y0095145D01*
X0147309Y0095140D01*
X0147350Y0095131D01*
X0147389Y0095118D01*
X0147428Y0095102D01*
X0147464Y0095083D01*
X0147499Y0095061D01*
X0147532Y0095036D01*
X0147563Y0095008D01*
X0147591Y0094977D01*
X0147616Y0094944D01*
X0147638Y0094910D01*
X0147657Y0094873D01*
X0147673Y0094834D01*
X0147686Y0094795D01*
X0147695Y0094754D01*
X0147700Y0094713D01*
X0147702Y0094672D01*
X0153614Y0097700D02*
X0154670Y0098544D01*
X0154828Y0098492D02*
X0154862Y0098478D01*
X0154896Y0098461D01*
X0154927Y0098441D01*
X0154956Y0098418D01*
X0154983Y0098392D01*
X0155008Y0098364D01*
X0155030Y0098334D01*
X0155048Y0098302D01*
X0155064Y0098268D01*
X0155076Y0098232D01*
X0155085Y0098196D01*
X0155090Y0098159D01*
X0155092Y0098122D01*
X0155090Y0098085D01*
X0155085Y0098048D01*
X0155076Y0098012D01*
X0155064Y0097976D01*
X0155048Y0097942D01*
X0155030Y0097910D01*
X0155008Y0097880D01*
X0154983Y0097852D01*
X0154956Y0097826D01*
X0154927Y0097803D01*
X0154896Y0097783D01*
X0154862Y0097766D01*
X0154828Y0097752D01*
X0154202Y0097979D02*
X0156102Y0097979D01*
X0155680Y0097451D01*
X0156102Y0096485D02*
X0156102Y0096062D01*
X0156100Y0096023D01*
X0156095Y0095984D01*
X0156086Y0095947D01*
X0156073Y0095910D01*
X0156058Y0095874D01*
X0156039Y0095840D01*
X0156017Y0095808D01*
X0155992Y0095778D01*
X0155964Y0095750D01*
X0155934Y0095725D01*
X0155902Y0095703D01*
X0155868Y0095684D01*
X0155832Y0095668D01*
X0155795Y0095656D01*
X0155758Y0095647D01*
X0155719Y0095642D01*
X0155680Y0095640D01*
X0154624Y0095640D01*
X0154585Y0095642D01*
X0154546Y0095647D01*
X0154509Y0095656D01*
X0154472Y0095668D01*
X0154436Y0095684D01*
X0154402Y0095703D01*
X0154370Y0095725D01*
X0154340Y0095750D01*
X0154312Y0095778D01*
X0154287Y0095808D01*
X0154265Y0095840D01*
X0154246Y0095874D01*
X0154230Y0095910D01*
X0154218Y0095947D01*
X0154209Y0095984D01*
X0154204Y0096023D01*
X0154202Y0096062D01*
X0154202Y0096485D01*
X0153456Y0098492D02*
X0153520Y0098521D01*
X0153586Y0098548D01*
X0153653Y0098572D01*
X0153721Y0098592D01*
X0153790Y0098610D01*
X0153859Y0098624D01*
X0153930Y0098636D01*
X0154000Y0098644D01*
X0154071Y0098648D01*
X0154142Y0098650D01*
X0154202Y0098507D02*
X0154202Y0097451D01*
X0154142Y0098650D02*
X0154213Y0098648D01*
X0154284Y0098644D01*
X0154354Y0098636D01*
X0154425Y0098624D01*
X0154494Y0098610D01*
X0154563Y0098592D01*
X0154631Y0098572D01*
X0154698Y0098548D01*
X0154764Y0098521D01*
X0154828Y0098492D01*
X0154828Y0097752D02*
X0154764Y0097723D01*
X0154698Y0097696D01*
X0154631Y0097672D01*
X0154563Y0097652D01*
X0154494Y0097634D01*
X0154425Y0097620D01*
X0154354Y0097608D01*
X0154284Y0097600D01*
X0154213Y0097596D01*
X0154142Y0097594D01*
X0153191Y0098122D02*
X0153193Y0098159D01*
X0153198Y0098196D01*
X0153207Y0098232D01*
X0153219Y0098268D01*
X0153235Y0098302D01*
X0153253Y0098334D01*
X0153275Y0098364D01*
X0153299Y0098392D01*
X0153327Y0098418D01*
X0153356Y0098441D01*
X0153387Y0098461D01*
X0153421Y0098478D01*
X0153455Y0098492D01*
X0153191Y0098122D02*
X0153193Y0098085D01*
X0153198Y0098048D01*
X0153207Y0098012D01*
X0153219Y0097976D01*
X0153235Y0097942D01*
X0153253Y0097910D01*
X0153275Y0097880D01*
X0153299Y0097852D01*
X0153327Y0097826D01*
X0153356Y0097803D01*
X0153387Y0097783D01*
X0153421Y0097766D01*
X0153455Y0097752D01*
X0153456Y0097752D02*
X0153520Y0097723D01*
X0153586Y0097696D01*
X0153653Y0097672D01*
X0153721Y0097652D01*
X0153790Y0097634D01*
X0153859Y0097620D01*
X0153930Y0097608D01*
X0154000Y0097600D01*
X0154071Y0097596D01*
X0154142Y0097594D01*
X0154730Y0099611D02*
X0155258Y0099611D01*
X0155258Y0100245D01*
X0155258Y0099612D02*
X0155316Y0099614D01*
X0155373Y0099620D01*
X0155430Y0099630D01*
X0155486Y0099643D01*
X0155541Y0099661D01*
X0155594Y0099682D01*
X0155646Y0099707D01*
X0155697Y0099735D01*
X0155745Y0099766D01*
X0155791Y0099801D01*
X0155834Y0099839D01*
X0155875Y0099880D01*
X0155913Y0099923D01*
X0155948Y0099969D01*
X0155979Y0100017D01*
X0156007Y0100068D01*
X0156032Y0100120D01*
X0156053Y0100173D01*
X0156071Y0100228D01*
X0156084Y0100284D01*
X0156094Y0100341D01*
X0156100Y0100398D01*
X0156102Y0100456D01*
X0154835Y0100667D02*
X0154730Y0100667D01*
X0154835Y0100667D02*
X0154874Y0100665D01*
X0154913Y0100660D01*
X0154950Y0100651D01*
X0154987Y0100639D01*
X0155023Y0100623D01*
X0155057Y0100604D01*
X0155089Y0100582D01*
X0155119Y0100557D01*
X0155147Y0100529D01*
X0155172Y0100499D01*
X0155194Y0100467D01*
X0155213Y0100433D01*
X0155229Y0100397D01*
X0155241Y0100360D01*
X0155250Y0100323D01*
X0155255Y0100284D01*
X0155257Y0100245D01*
X0154730Y0100667D02*
X0154685Y0100665D01*
X0154641Y0100659D01*
X0154597Y0100650D01*
X0154554Y0100637D01*
X0154513Y0100620D01*
X0154472Y0100600D01*
X0154434Y0100576D01*
X0154398Y0100550D01*
X0154365Y0100520D01*
X0154334Y0100488D01*
X0154305Y0100453D01*
X0154280Y0100416D01*
X0154259Y0100377D01*
X0154240Y0100336D01*
X0154225Y0100294D01*
X0154214Y0100250D01*
X0154206Y0100206D01*
X0154202Y0100161D01*
X0154202Y0100117D01*
X0154206Y0100072D01*
X0154214Y0100028D01*
X0154225Y0099984D01*
X0154240Y0099942D01*
X0154259Y0099901D01*
X0154280Y0099862D01*
X0154305Y0099825D01*
X0154334Y0099790D01*
X0154365Y0099758D01*
X0154398Y0099728D01*
X0154434Y0099702D01*
X0154472Y0099678D01*
X0154513Y0099658D01*
X0154554Y0099641D01*
X0154597Y0099628D01*
X0154641Y0099619D01*
X0154685Y0099613D01*
X0154730Y0099611D01*
X0161592Y0099189D02*
X0163492Y0099717D01*
X0163492Y0098662D01*
X0163281Y0098662D01*
X0163492Y0097055D02*
X0163492Y0096527D01*
X0161592Y0096527D01*
X0162436Y0096527D02*
X0162436Y0097055D01*
X0162436Y0097160D02*
X0161592Y0097582D01*
X0162436Y0097055D02*
X0162438Y0097100D01*
X0162444Y0097144D01*
X0162453Y0097188D01*
X0162466Y0097231D01*
X0162483Y0097272D01*
X0162503Y0097313D01*
X0162527Y0097351D01*
X0162553Y0097387D01*
X0162583Y0097420D01*
X0162615Y0097451D01*
X0162650Y0097480D01*
X0162687Y0097505D01*
X0162726Y0097526D01*
X0162767Y0097545D01*
X0162809Y0097560D01*
X0162853Y0097571D01*
X0162897Y0097579D01*
X0162942Y0097583D01*
X0162986Y0097583D01*
X0163031Y0097579D01*
X0163075Y0097571D01*
X0163119Y0097560D01*
X0163161Y0097545D01*
X0163202Y0097526D01*
X0163241Y0097505D01*
X0163278Y0097480D01*
X0163313Y0097451D01*
X0163345Y0097420D01*
X0163375Y0097387D01*
X0163401Y0097351D01*
X0163425Y0097313D01*
X0163445Y0097272D01*
X0163462Y0097231D01*
X0163475Y0097188D01*
X0163484Y0097144D01*
X0163490Y0097100D01*
X0163492Y0097055D01*
X0163551Y0086367D02*
X0163551Y0085311D01*
X0162706Y0085311D01*
X0162706Y0085945D01*
X0162704Y0085984D01*
X0162699Y0086023D01*
X0162690Y0086060D01*
X0162678Y0086097D01*
X0162662Y0086133D01*
X0162643Y0086167D01*
X0162621Y0086199D01*
X0162596Y0086229D01*
X0162568Y0086257D01*
X0162538Y0086282D01*
X0162506Y0086304D01*
X0162472Y0086323D01*
X0162436Y0086339D01*
X0162399Y0086351D01*
X0162362Y0086360D01*
X0162323Y0086365D01*
X0162284Y0086367D01*
X0162073Y0086367D01*
X0162034Y0086365D01*
X0161995Y0086360D01*
X0161958Y0086351D01*
X0161921Y0086339D01*
X0161885Y0086323D01*
X0161851Y0086304D01*
X0161819Y0086282D01*
X0161789Y0086257D01*
X0161761Y0086229D01*
X0161736Y0086199D01*
X0161714Y0086167D01*
X0161695Y0086133D01*
X0161679Y0086097D01*
X0161667Y0086060D01*
X0161658Y0086023D01*
X0161653Y0085984D01*
X0161651Y0085945D01*
X0161651Y0085311D01*
X0161651Y0084232D02*
X0162495Y0083810D01*
X0162495Y0083704D02*
X0162495Y0083176D01*
X0162495Y0083704D02*
X0162497Y0083749D01*
X0162503Y0083793D01*
X0162512Y0083837D01*
X0162525Y0083880D01*
X0162542Y0083921D01*
X0162562Y0083962D01*
X0162586Y0084000D01*
X0162612Y0084036D01*
X0162642Y0084069D01*
X0162674Y0084100D01*
X0162709Y0084129D01*
X0162746Y0084154D01*
X0162785Y0084175D01*
X0162826Y0084194D01*
X0162868Y0084209D01*
X0162912Y0084220D01*
X0162956Y0084228D01*
X0163001Y0084232D01*
X0163045Y0084232D01*
X0163090Y0084228D01*
X0163134Y0084220D01*
X0163178Y0084209D01*
X0163220Y0084194D01*
X0163261Y0084175D01*
X0163300Y0084154D01*
X0163337Y0084129D01*
X0163372Y0084100D01*
X0163404Y0084069D01*
X0163434Y0084036D01*
X0163460Y0084000D01*
X0163484Y0083962D01*
X0163504Y0083921D01*
X0163521Y0083880D01*
X0163534Y0083837D01*
X0163543Y0083793D01*
X0163549Y0083749D01*
X0163551Y0083704D01*
X0163551Y0083176D01*
X0161651Y0083176D01*
X0155151Y0084772D02*
X0155149Y0084735D01*
X0155144Y0084698D01*
X0155135Y0084662D01*
X0155123Y0084626D01*
X0155107Y0084592D01*
X0155089Y0084560D01*
X0155067Y0084530D01*
X0155042Y0084502D01*
X0155015Y0084476D01*
X0154986Y0084453D01*
X0154955Y0084433D01*
X0154921Y0084416D01*
X0154887Y0084402D01*
X0155151Y0084772D02*
X0155149Y0084809D01*
X0155144Y0084846D01*
X0155135Y0084882D01*
X0155123Y0084918D01*
X0155107Y0084952D01*
X0155089Y0084984D01*
X0155067Y0085014D01*
X0155042Y0085042D01*
X0155015Y0085068D01*
X0154986Y0085091D01*
X0154955Y0085111D01*
X0154921Y0085128D01*
X0154887Y0085142D01*
X0154729Y0085194D02*
X0153673Y0084349D01*
X0153250Y0084772D02*
X0153252Y0084809D01*
X0153257Y0084846D01*
X0153266Y0084882D01*
X0153278Y0084918D01*
X0153294Y0084952D01*
X0153312Y0084984D01*
X0153334Y0085014D01*
X0153358Y0085042D01*
X0153386Y0085068D01*
X0153415Y0085091D01*
X0153446Y0085111D01*
X0153480Y0085128D01*
X0153514Y0085142D01*
X0153250Y0084772D02*
X0153252Y0084735D01*
X0153257Y0084698D01*
X0153266Y0084662D01*
X0153278Y0084626D01*
X0153294Y0084592D01*
X0153312Y0084560D01*
X0153334Y0084530D01*
X0153358Y0084502D01*
X0153386Y0084476D01*
X0153415Y0084453D01*
X0153446Y0084433D01*
X0153480Y0084416D01*
X0153514Y0084402D01*
X0154201Y0085300D02*
X0154272Y0085298D01*
X0154343Y0085294D01*
X0154413Y0085286D01*
X0154484Y0085274D01*
X0154553Y0085260D01*
X0154622Y0085242D01*
X0154690Y0085222D01*
X0154757Y0085198D01*
X0154823Y0085171D01*
X0154887Y0085142D01*
X0154887Y0084402D02*
X0154823Y0084373D01*
X0154757Y0084346D01*
X0154690Y0084322D01*
X0154622Y0084302D01*
X0154553Y0084284D01*
X0154484Y0084270D01*
X0154413Y0084258D01*
X0154343Y0084250D01*
X0154272Y0084246D01*
X0154201Y0084244D01*
X0154201Y0085300D02*
X0154130Y0085298D01*
X0154059Y0085294D01*
X0153989Y0085286D01*
X0153918Y0085274D01*
X0153849Y0085260D01*
X0153780Y0085242D01*
X0153712Y0085222D01*
X0153645Y0085198D01*
X0153579Y0085171D01*
X0153515Y0085142D01*
X0153515Y0084402D02*
X0153579Y0084373D01*
X0153645Y0084346D01*
X0153712Y0084322D01*
X0153780Y0084302D01*
X0153849Y0084284D01*
X0153918Y0084270D01*
X0153989Y0084258D01*
X0154059Y0084250D01*
X0154130Y0084246D01*
X0154201Y0084244D01*
X0150790Y0132678D02*
X0150854Y0132707D01*
X0150920Y0132734D01*
X0150987Y0132758D01*
X0151055Y0132778D01*
X0151124Y0132796D01*
X0151193Y0132810D01*
X0151264Y0132822D01*
X0151334Y0132830D01*
X0151405Y0132834D01*
X0151476Y0132836D01*
X0151476Y0131780D02*
X0151547Y0131782D01*
X0151618Y0131786D01*
X0151688Y0131794D01*
X0151759Y0131806D01*
X0151828Y0131820D01*
X0151897Y0131838D01*
X0151965Y0131858D01*
X0152032Y0131882D01*
X0152098Y0131909D01*
X0152162Y0131938D01*
X0152427Y0132308D02*
X0152425Y0132345D01*
X0152420Y0132382D01*
X0152411Y0132418D01*
X0152399Y0132454D01*
X0152383Y0132488D01*
X0152365Y0132520D01*
X0152343Y0132550D01*
X0152318Y0132578D01*
X0152291Y0132604D01*
X0152262Y0132627D01*
X0152231Y0132647D01*
X0152197Y0132664D01*
X0152163Y0132678D01*
X0152004Y0132730D02*
X0150949Y0131886D01*
X0150526Y0132308D02*
X0150528Y0132345D01*
X0150533Y0132382D01*
X0150542Y0132418D01*
X0150554Y0132454D01*
X0150570Y0132488D01*
X0150588Y0132520D01*
X0150610Y0132550D01*
X0150634Y0132578D01*
X0150662Y0132604D01*
X0150691Y0132627D01*
X0150722Y0132647D01*
X0150756Y0132664D01*
X0150790Y0132678D01*
X0150526Y0132308D02*
X0150528Y0132271D01*
X0150533Y0132234D01*
X0150542Y0132198D01*
X0150554Y0132162D01*
X0150570Y0132128D01*
X0150588Y0132096D01*
X0150610Y0132066D01*
X0150634Y0132038D01*
X0150662Y0132012D01*
X0150691Y0131989D01*
X0150722Y0131969D01*
X0150756Y0131952D01*
X0150790Y0131938D01*
X0151476Y0132836D02*
X0151547Y0132834D01*
X0151618Y0132830D01*
X0151688Y0132822D01*
X0151759Y0132810D01*
X0151828Y0132796D01*
X0151897Y0132778D01*
X0151965Y0132758D01*
X0152032Y0132734D01*
X0152098Y0132707D01*
X0152162Y0132678D01*
X0152427Y0132308D02*
X0152425Y0132271D01*
X0152420Y0132234D01*
X0152411Y0132198D01*
X0152399Y0132162D01*
X0152383Y0132128D01*
X0152365Y0132096D01*
X0152343Y0132066D01*
X0152318Y0132038D01*
X0152291Y0132012D01*
X0152262Y0131989D01*
X0152231Y0131969D01*
X0152197Y0131952D01*
X0152163Y0131938D01*
X0151476Y0131780D02*
X0151405Y0131782D01*
X0151334Y0131786D01*
X0151264Y0131794D01*
X0151193Y0131806D01*
X0151124Y0131820D01*
X0151055Y0131838D01*
X0150987Y0131858D01*
X0150920Y0131882D01*
X0150854Y0131909D01*
X0150790Y0131938D01*
X0150632Y0133767D02*
X0150632Y0133873D01*
X0150526Y0133873D01*
X0150526Y0133767D01*
X0150632Y0133767D01*
X0150526Y0134804D02*
X0150526Y0135860D01*
X0150526Y0135332D02*
X0152426Y0135332D01*
X0152004Y0134804D01*
X0151793Y0136998D02*
X0150843Y0136998D01*
X0150810Y0137000D01*
X0150777Y0137005D01*
X0150745Y0137014D01*
X0150714Y0137025D01*
X0150685Y0137040D01*
X0150657Y0137059D01*
X0150631Y0137079D01*
X0150607Y0137103D01*
X0150587Y0137129D01*
X0150568Y0137157D01*
X0150553Y0137186D01*
X0150542Y0137217D01*
X0150533Y0137249D01*
X0150528Y0137282D01*
X0150526Y0137315D01*
X0150526Y0137842D01*
X0151793Y0137842D01*
X0151582Y0139060D02*
X0151582Y0139905D01*
X0152426Y0139905D02*
X0152426Y0139060D01*
X0150526Y0139060D01*
X0150949Y0145560D02*
X0150949Y0146616D01*
X0151371Y0146299D02*
X0150526Y0146299D01*
X0150949Y0145560D02*
X0152426Y0145982D01*
X0150632Y0147547D02*
X0150632Y0147653D01*
X0150526Y0147653D01*
X0150526Y0147547D01*
X0150632Y0147547D01*
X0150526Y0149112D02*
X0152426Y0149640D01*
X0152426Y0148584D01*
X0152215Y0148584D01*
X0151793Y0150778D02*
X0150843Y0150778D01*
X0150843Y0150777D02*
X0150810Y0150779D01*
X0150777Y0150784D01*
X0150745Y0150793D01*
X0150714Y0150804D01*
X0150685Y0150819D01*
X0150657Y0150838D01*
X0150631Y0150858D01*
X0150607Y0150882D01*
X0150587Y0150908D01*
X0150568Y0150936D01*
X0150553Y0150965D01*
X0150542Y0150996D01*
X0150533Y0151028D01*
X0150528Y0151061D01*
X0150526Y0151094D01*
X0150526Y0151622D01*
X0151793Y0151622D01*
X0151582Y0152840D02*
X0151582Y0153684D01*
X0152426Y0153684D02*
X0152426Y0152840D01*
X0150526Y0152840D01*
X0053450Y0050114D02*
X0053450Y0049480D01*
X0053450Y0050114D02*
X0053448Y0050154D01*
X0053442Y0050194D01*
X0053433Y0050233D01*
X0053420Y0050271D01*
X0053403Y0050307D01*
X0053383Y0050342D01*
X0053360Y0050375D01*
X0053333Y0050405D01*
X0053304Y0050433D01*
X0053273Y0050458D01*
X0053239Y0050479D01*
X0053203Y0050498D01*
X0053166Y0050513D01*
X0053127Y0050524D01*
X0053088Y0050532D01*
X0053048Y0050536D01*
X0053008Y0050536D01*
X0052968Y0050532D01*
X0052929Y0050524D01*
X0052890Y0050513D01*
X0052853Y0050498D01*
X0052817Y0050479D01*
X0052783Y0050458D01*
X0052752Y0050433D01*
X0052723Y0050405D01*
X0052696Y0050375D01*
X0052673Y0050342D01*
X0052653Y0050307D01*
X0052636Y0050271D01*
X0052623Y0050233D01*
X0052614Y0050194D01*
X0052608Y0050154D01*
X0052606Y0050114D01*
X0052606Y0049691D01*
X0052606Y0050008D02*
X0052604Y0050053D01*
X0052598Y0050097D01*
X0052589Y0050141D01*
X0052576Y0050184D01*
X0052559Y0050225D01*
X0052539Y0050266D01*
X0052515Y0050304D01*
X0052489Y0050340D01*
X0052459Y0050373D01*
X0052427Y0050404D01*
X0052392Y0050433D01*
X0052355Y0050458D01*
X0052316Y0050479D01*
X0052275Y0050498D01*
X0052233Y0050513D01*
X0052189Y0050524D01*
X0052145Y0050532D01*
X0052100Y0050536D01*
X0052056Y0050536D01*
X0052011Y0050532D01*
X0051967Y0050524D01*
X0051923Y0050513D01*
X0051881Y0050498D01*
X0051840Y0050479D01*
X0051801Y0050458D01*
X0051764Y0050433D01*
X0051729Y0050404D01*
X0051697Y0050373D01*
X0051667Y0050340D01*
X0051641Y0050304D01*
X0051617Y0050266D01*
X0051597Y0050225D01*
X0051580Y0050184D01*
X0051567Y0050141D01*
X0051558Y0050097D01*
X0051552Y0050053D01*
X0051550Y0050008D01*
X0051550Y0049480D01*
X0051550Y0048513D02*
X0051550Y0048091D01*
X0051552Y0048052D01*
X0051557Y0048013D01*
X0051566Y0047976D01*
X0051578Y0047939D01*
X0051594Y0047903D01*
X0051613Y0047869D01*
X0051635Y0047837D01*
X0051660Y0047807D01*
X0051688Y0047779D01*
X0051718Y0047754D01*
X0051750Y0047732D01*
X0051784Y0047713D01*
X0051820Y0047697D01*
X0051857Y0047685D01*
X0051894Y0047676D01*
X0051933Y0047671D01*
X0051972Y0047669D01*
X0053028Y0047669D01*
X0053067Y0047671D01*
X0053106Y0047676D01*
X0053143Y0047685D01*
X0053180Y0047697D01*
X0053216Y0047713D01*
X0053250Y0047732D01*
X0053282Y0047754D01*
X0053312Y0047779D01*
X0053340Y0047807D01*
X0053365Y0047837D01*
X0053387Y0047869D01*
X0053406Y0047903D01*
X0053421Y0047939D01*
X0053434Y0047976D01*
X0053443Y0048013D01*
X0053448Y0048052D01*
X0053450Y0048091D01*
X0053450Y0048513D01*
X0023450Y0048513D02*
X0023450Y0048091D01*
X0023448Y0048052D01*
X0023443Y0048013D01*
X0023434Y0047976D01*
X0023421Y0047939D01*
X0023406Y0047903D01*
X0023387Y0047869D01*
X0023365Y0047837D01*
X0023340Y0047807D01*
X0023312Y0047779D01*
X0023282Y0047754D01*
X0023250Y0047732D01*
X0023216Y0047713D01*
X0023180Y0047697D01*
X0023143Y0047685D01*
X0023106Y0047676D01*
X0023067Y0047671D01*
X0023028Y0047669D01*
X0021972Y0047669D01*
X0021933Y0047671D01*
X0021894Y0047676D01*
X0021857Y0047685D01*
X0021820Y0047697D01*
X0021784Y0047713D01*
X0021750Y0047732D01*
X0021718Y0047754D01*
X0021688Y0047779D01*
X0021660Y0047807D01*
X0021635Y0047837D01*
X0021613Y0047869D01*
X0021594Y0047903D01*
X0021578Y0047939D01*
X0021566Y0047976D01*
X0021557Y0048013D01*
X0021552Y0048052D01*
X0021550Y0048091D01*
X0021550Y0048513D01*
X0021550Y0049480D02*
X0021550Y0050536D01*
X0021550Y0049480D02*
X0022606Y0050377D01*
X0023450Y0050061D02*
X0023448Y0050013D01*
X0023442Y0049966D01*
X0023433Y0049918D01*
X0023420Y0049872D01*
X0023403Y0049827D01*
X0023383Y0049784D01*
X0023360Y0049742D01*
X0023333Y0049702D01*
X0023304Y0049665D01*
X0023271Y0049629D01*
X0023236Y0049597D01*
X0023198Y0049567D01*
X0023158Y0049541D01*
X0023116Y0049517D01*
X0023073Y0049497D01*
X0023028Y0049481D01*
X0022606Y0050378D02*
X0022635Y0050406D01*
X0022667Y0050433D01*
X0022701Y0050456D01*
X0022737Y0050477D01*
X0022774Y0050495D01*
X0022813Y0050509D01*
X0022852Y0050521D01*
X0022893Y0050529D01*
X0022934Y0050534D01*
X0022975Y0050536D01*
X0023016Y0050534D01*
X0023057Y0050529D01*
X0023098Y0050520D01*
X0023137Y0050507D01*
X0023176Y0050491D01*
X0023212Y0050472D01*
X0023247Y0050450D01*
X0023280Y0050425D01*
X0023311Y0050397D01*
X0023339Y0050366D01*
X0023364Y0050333D01*
X0023386Y0050299D01*
X0023405Y0050262D01*
X0023421Y0050223D01*
X0023434Y0050184D01*
X0023443Y0050143D01*
X0023448Y0050102D01*
X0023450Y0050061D01*
D14*
X0035401Y0058902D02*
X0035401Y0040205D01*
X0046999Y0040205D02*
X0046999Y0058902D01*
X0065401Y0058902D02*
X0065401Y0040205D01*
X0076999Y0040205D02*
X0076999Y0058902D01*
D15*
X0071197Y0060529D03*
X0071197Y0038629D03*
X0041197Y0038629D03*
X0041197Y0060529D03*
D16*
X0094850Y0125220D02*
X0146424Y0125220D01*
X0146424Y0162819D01*
X0094850Y0162819D01*
X0094850Y0125220D01*
D17*
X0096031Y0156028D02*
X0096031Y0161835D01*
D18*
X0107329Y0173264D03*
X0111929Y0173264D03*
X0111701Y0182870D03*
X0107101Y0182870D03*
X0128982Y0173067D03*
X0133582Y0173067D03*
X0142140Y0171846D03*
X0146740Y0171846D03*
X0135520Y0117319D03*
X0130920Y0117319D03*
X0119772Y0117319D03*
X0115172Y0117319D03*
X0102843Y0117319D03*
X0098243Y0117319D03*
M02*
