G75*
%MOIN*%
%OFA0B0*%
%FSLAX25Y25*%
%IPPOS*%
%LPD*%
%AMOC8*
5,1,8,0,0,1.08239X$1,22.5*
%
%ADD10C,0.10050*%
%ADD11R,0.10000X0.20000*%
%ADD12R,0.03937X0.04331*%
%ADD13R,0.21260X0.24409*%
%ADD14R,0.03937X0.06299*%
%ADD15C,0.11850*%
%ADD16OC8,0.07600*%
%ADD17C,0.03200*%
%ADD18R,0.20000X0.20000*%
%ADD19R,0.04724X0.04724*%
%ADD20C,0.00600*%
%ADD21C,0.03200*%
%ADD22C,0.02978*%
%ADD23C,0.12000*%
%ADD24C,0.02000*%
%ADD25C,0.01600*%
%ADD26C,0.00200*%
D10*
X0187114Y0199912D02*
X0187114Y0209962D01*
X0202114Y0209962D02*
X0202114Y0199912D01*
D11*
X0088823Y0023937D03*
X0058823Y0023937D03*
X0028823Y0023937D03*
D12*
X0028823Y0125091D03*
X0028823Y0131783D03*
X0058823Y0131783D03*
X0058823Y0125091D03*
X0088323Y0125091D03*
X0088323Y0131783D03*
D13*
X0088823Y0107280D03*
X0058823Y0107280D03*
X0028823Y0107280D03*
X0028823Y0057280D03*
X0058823Y0057280D03*
X0088823Y0057280D03*
D14*
X0097799Y0078539D03*
X0079846Y0078539D03*
X0067799Y0078539D03*
X0049846Y0078539D03*
X0037799Y0078539D03*
X0019846Y0078539D03*
X0019846Y0028539D03*
X0037799Y0028539D03*
X0049846Y0028539D03*
X0067799Y0028539D03*
X0079846Y0028539D03*
X0097799Y0028539D03*
D15*
X0123823Y0033362D02*
X0123823Y0021512D01*
X0138823Y0021512D02*
X0138823Y0033362D01*
D16*
X0165244Y0029650D03*
X0165244Y0039650D03*
X0165244Y0049650D03*
X0165244Y0059650D03*
X0165244Y0069650D03*
X0165244Y0079650D03*
X0165244Y0089650D03*
X0165244Y0099650D03*
X0165244Y0109650D03*
X0165244Y0119650D03*
X0165244Y0129650D03*
X0165244Y0139650D03*
X0165244Y0149650D03*
X0165244Y0159650D03*
X0165244Y0169650D03*
X0165244Y0179650D03*
X0165244Y0189650D03*
X0165244Y0199650D03*
X0165244Y0209650D03*
X0225244Y0209650D03*
X0225244Y0199650D03*
X0225244Y0189650D03*
X0225244Y0179650D03*
X0225244Y0169650D03*
X0225244Y0159650D03*
X0225244Y0149650D03*
X0225244Y0139650D03*
X0225244Y0129650D03*
X0225244Y0119650D03*
X0225244Y0109650D03*
X0225244Y0099650D03*
X0225244Y0089650D03*
X0225244Y0079650D03*
X0225244Y0069650D03*
X0225244Y0059650D03*
X0225244Y0049650D03*
X0225244Y0039650D03*
X0225244Y0029650D03*
X0225244Y0019650D03*
X0190244Y0059650D03*
X0180244Y0059650D03*
X0180244Y0069650D03*
X0180244Y0079650D03*
X0190244Y0079650D03*
X0190244Y0069650D03*
X0165244Y0019650D03*
D17*
X0134020Y0095358D03*
X0134020Y0099295D03*
X0134020Y0103232D03*
X0134020Y0107169D03*
X0134020Y0111106D03*
X0130083Y0111106D03*
X0130083Y0107169D03*
X0130083Y0103232D03*
X0130083Y0099295D03*
X0130083Y0095358D03*
X0126146Y0095358D03*
X0122209Y0095358D03*
X0122209Y0099295D03*
X0126146Y0099295D03*
X0126146Y0103232D03*
X0126146Y0107169D03*
X0122209Y0107169D03*
X0122209Y0103232D03*
X0118272Y0103232D03*
X0118272Y0107169D03*
X0118272Y0111106D03*
X0122209Y0111106D03*
X0126146Y0111106D03*
X0118272Y0099295D03*
X0118272Y0095358D03*
D18*
X0126146Y0103232D03*
D19*
X0136736Y0173941D03*
X0145004Y0173941D03*
X0145004Y0184177D03*
X0136736Y0184177D03*
D20*
X0014437Y0021637D02*
X0024637Y0011437D01*
X0077437Y0011437D01*
X0082837Y0016837D01*
X0082837Y0025837D01*
X0080437Y0028237D01*
X0079846Y0028539D01*
X0088837Y0024037D02*
X0088823Y0023937D01*
X0088837Y0024037D02*
X0088837Y0057037D01*
X0088823Y0057280D01*
X0088837Y0057637D01*
X0093037Y0057637D01*
X0108037Y0072637D01*
X0108037Y0074437D01*
X0104437Y0078037D01*
X0097837Y0078037D01*
X0097799Y0078539D01*
X0097237Y0078637D01*
X0097237Y0087037D01*
X0091237Y0089437D02*
X0080437Y0078637D01*
X0079846Y0078539D01*
X0078637Y0089437D02*
X0067837Y0078637D01*
X0067799Y0078539D01*
X0067237Y0078037D01*
X0054037Y0078037D01*
X0050437Y0078637D02*
X0049846Y0078539D01*
X0050437Y0078637D02*
X0061237Y0089437D01*
X0068437Y0089437D01*
X0069637Y0093637D02*
X0043837Y0093637D01*
X0043237Y0094237D01*
X0037799Y0078539D02*
X0037237Y0078637D01*
X0031237Y0078637D01*
X0028837Y0076237D01*
X0028837Y0057637D01*
X0028823Y0057280D01*
X0028837Y0057037D01*
X0028837Y0024037D01*
X0028823Y0023937D01*
X0021637Y0030037D02*
X0020437Y0028837D01*
X0019846Y0028539D01*
X0021637Y0030037D02*
X0021637Y0034237D01*
X0031237Y0036037D02*
X0049837Y0036037D01*
X0052237Y0033637D01*
X0052237Y0030637D01*
X0050437Y0028837D01*
X0049846Y0028539D01*
X0058837Y0024037D02*
X0058823Y0023937D01*
X0058837Y0024037D02*
X0058837Y0049837D01*
X0058823Y0057280D01*
X0058837Y0057037D01*
X0058837Y0049837D01*
X0042637Y0049837D01*
X0040837Y0051637D01*
X0040837Y0066637D01*
X0046237Y0072037D01*
X0046237Y0073837D01*
X0031237Y0078637D02*
X0015637Y0094237D01*
X0015637Y0124237D01*
X0031837Y0140437D01*
X0073237Y0140437D01*
X0074437Y0142837D02*
X0032437Y0142837D01*
X0014437Y0124837D01*
X0014437Y0021637D01*
X0037799Y0028539D02*
X0038902Y0027437D01*
X0038902Y0023154D01*
X0084177Y0011437D02*
X0138637Y0011437D01*
X0145837Y0018637D01*
X0145837Y0060037D01*
X0103237Y0102637D01*
X0103237Y0104437D01*
X0108637Y0099037D02*
X0130237Y0077437D01*
X0138637Y0077437D01*
X0136237Y0078637D02*
X0133837Y0078637D01*
X0131437Y0081037D01*
X0135037Y0081037D02*
X0135037Y0094237D01*
X0134437Y0094837D01*
X0134020Y0095358D01*
X0134020Y0099295D02*
X0130083Y0099295D01*
X0126146Y0103232D01*
X0124237Y0105037D01*
X0122437Y0103237D01*
X0122209Y0103232D01*
X0126146Y0103232D02*
X0130237Y0111037D01*
X0133837Y0111037D01*
X0134020Y0111106D01*
X0133837Y0107437D02*
X0134020Y0107169D01*
X0133837Y0107437D02*
X0130237Y0107437D01*
X0130083Y0107169D01*
X0129637Y0111037D02*
X0126637Y0111037D01*
X0126146Y0111106D01*
X0122209Y0111106D02*
X0121837Y0111037D01*
X0120037Y0109237D01*
X0126146Y0103232D01*
X0129637Y0111037D01*
X0129037Y0114637D02*
X0136237Y0114637D01*
X0137437Y0113437D01*
X0137437Y0079837D01*
X0136237Y0078637D01*
X0147037Y0088837D02*
X0138637Y0097237D01*
X0138637Y0127237D01*
X0130837Y0135037D01*
X0130837Y0148837D01*
X0149437Y0167437D01*
X0149437Y0176437D01*
X0148237Y0177637D01*
X0136837Y0177637D01*
X0136837Y0183637D01*
X0136736Y0184177D01*
X0136837Y0184237D01*
X0138637Y0184237D01*
X0159037Y0204637D01*
X0172837Y0204637D01*
X0184237Y0216037D01*
X0190837Y0216037D01*
X0201037Y0205837D01*
X0202114Y0204937D01*
X0224437Y0217237D02*
X0163237Y0217237D01*
X0129037Y0183037D01*
X0129037Y0171037D01*
X0129637Y0170437D01*
X0139237Y0170437D01*
X0142237Y0173437D01*
X0144637Y0173437D01*
X0145004Y0173941D01*
X0150637Y0177037D02*
X0145237Y0182437D01*
X0145237Y0183637D01*
X0145004Y0184177D01*
X0150637Y0177037D02*
X0150637Y0131437D01*
X0146437Y0131437D01*
X0142837Y0127837D01*
X0142837Y0094837D01*
X0163237Y0074437D01*
X0167437Y0074437D01*
X0177037Y0064837D01*
X0181837Y0064837D01*
X0185437Y0061237D01*
X0185437Y0057637D01*
X0223237Y0019837D01*
X0225037Y0019837D01*
X0225244Y0019650D01*
X0225244Y0059650D02*
X0225637Y0060037D01*
X0230437Y0064837D01*
X0230437Y0081637D01*
X0227437Y0084637D01*
X0223237Y0084637D01*
X0220837Y0087037D01*
X0186637Y0087037D01*
X0171637Y0102037D01*
X0171637Y0110437D01*
X0167437Y0114637D01*
X0163237Y0114637D01*
X0160837Y0112237D01*
X0159037Y0112237D01*
X0154237Y0109837D02*
X0154237Y0103837D01*
X0163237Y0094837D01*
X0175237Y0094837D01*
X0185437Y0084637D01*
X0210637Y0084637D01*
X0225037Y0070237D01*
X0225244Y0069650D01*
X0225244Y0079650D02*
X0225037Y0079837D01*
X0219037Y0085837D01*
X0186037Y0085837D01*
X0167437Y0104437D01*
X0163237Y0104437D01*
X0162037Y0105637D01*
X0160837Y0105637D01*
X0151837Y0099637D02*
X0151837Y0112837D01*
X0160237Y0121237D01*
X0160237Y0121837D01*
X0163237Y0124837D01*
X0170437Y0124837D01*
X0225037Y0179437D01*
X0225244Y0179650D01*
X0225637Y0180037D01*
X0225637Y0183037D01*
X0230437Y0187837D01*
X0230437Y0211237D01*
X0224437Y0217237D01*
X0225244Y0169650D02*
X0225037Y0169237D01*
X0172837Y0117037D01*
X0172837Y0111037D01*
X0174037Y0109837D01*
X0174037Y0103237D01*
X0175237Y0112237D02*
X0177637Y0112237D01*
X0225037Y0159637D01*
X0225244Y0159650D01*
X0150637Y0131437D02*
X0150637Y0115237D01*
X0150037Y0114637D01*
X0147637Y0113437D02*
X0147637Y0129037D01*
X0145237Y0120637D02*
X0145237Y0106237D01*
X0148237Y0103237D01*
X0148237Y0097837D01*
X0154837Y0089437D02*
X0165037Y0089437D01*
X0165244Y0089650D01*
X0147037Y0088837D02*
X0147037Y0051037D01*
X0165037Y0033037D01*
X0165037Y0030037D01*
X0165244Y0029650D01*
X0165637Y0029437D01*
X0165637Y0019837D01*
X0165244Y0019650D01*
X0111137Y0073526D02*
X0110437Y0073837D01*
X0102037Y0082237D01*
X0109451Y0086651D02*
X0112237Y0089437D01*
X0108637Y0099037D02*
X0108637Y0120037D01*
X0085837Y0142837D01*
X0083437Y0142837D01*
X0078637Y0138037D01*
X0048037Y0138037D01*
X0045037Y0135037D01*
X0043237Y0135037D01*
X0043837Y0132037D02*
X0048637Y0136837D01*
X0053437Y0136837D01*
X0058237Y0132037D01*
X0058823Y0131783D01*
X0058837Y0132037D01*
X0084637Y0132037D01*
X0084637Y0140437D01*
X0076837Y0140437D02*
X0074437Y0142837D01*
X0084637Y0132037D02*
X0088237Y0132037D01*
X0088323Y0131783D01*
X0096637Y0128437D02*
X0100837Y0124237D01*
X0096637Y0128437D02*
X0056437Y0128437D01*
X0055237Y0129637D01*
X0051037Y0129637D01*
X0049237Y0127837D01*
X0044437Y0127837D01*
X0043837Y0128437D01*
X0025837Y0128437D01*
X0016837Y0119437D01*
X0016837Y0094837D01*
X0019837Y0091837D01*
X0079837Y0091837D01*
X0082237Y0089437D01*
X0081037Y0092437D02*
X0079837Y0093637D01*
X0073837Y0093637D01*
X0073237Y0094237D01*
X0070837Y0094837D02*
X0069637Y0093637D01*
X0070837Y0094837D02*
X0070837Y0095437D01*
X0073237Y0097837D01*
X0081037Y0092437D02*
X0085237Y0092437D01*
X0103837Y0112237D02*
X0103837Y0115237D01*
X0102037Y0117037D01*
X0109237Y0124237D02*
X0119437Y0124237D01*
X0129037Y0114637D01*
X0118272Y0111106D02*
X0126146Y0103232D01*
X0133837Y0102637D02*
X0133837Y0099637D01*
X0134020Y0099295D01*
X0133837Y0102637D02*
X0134020Y0103232D01*
X0147637Y0113437D02*
X0149437Y0111637D01*
X0149437Y0105637D01*
X0126637Y0127237D02*
X0124837Y0125437D01*
X0121837Y0125437D01*
X0124237Y0128437D02*
X0116437Y0128437D01*
X0099637Y0145237D01*
X0094837Y0145237D02*
X0120637Y0171037D01*
X0129037Y0171037D01*
X0131437Y0173437D02*
X0136237Y0173437D01*
X0136736Y0173941D01*
X0136837Y0174037D01*
X0136837Y0177637D01*
X0125437Y0167437D02*
X0123037Y0167437D01*
X0120637Y0165037D01*
X0120637Y0133837D01*
X0117637Y0130837D01*
X0121237Y0130837D02*
X0124237Y0133837D01*
X0124237Y0165037D01*
X0125437Y0167437D02*
X0135637Y0157237D01*
X0126637Y0146437D02*
X0126637Y0127237D01*
X0118237Y0138037D02*
X0118237Y0165037D01*
X0094837Y0145237D02*
X0042037Y0145237D01*
X0049837Y0134437D02*
X0045637Y0130237D01*
X0043837Y0132037D02*
X0028837Y0132037D01*
X0028823Y0131783D01*
X0042037Y0117037D02*
X0052237Y0127237D01*
X0051637Y0124237D02*
X0045637Y0118237D01*
X0045637Y0115837D01*
X0051637Y0124237D02*
X0054637Y0124237D01*
X0100837Y0138037D02*
X0112237Y0126637D01*
X0024037Y0082237D02*
X0020437Y0078637D01*
X0019846Y0078539D01*
D21*
X0187114Y0204937D02*
X0193889Y0198162D01*
X0193889Y0196919D01*
X0201159Y0189650D01*
X0225244Y0189650D01*
X0225244Y0199650D02*
X0219957Y0204937D01*
X0202114Y0204937D01*
D22*
X0135637Y0157237D03*
X0124237Y0165037D03*
X0118237Y0165037D03*
X0131437Y0173437D03*
X0126637Y0146437D03*
X0118237Y0138037D03*
X0117637Y0130837D03*
X0121237Y0130837D03*
X0124237Y0128437D03*
X0121837Y0125437D03*
X0112237Y0126637D03*
X0109237Y0124237D03*
X0100837Y0124237D03*
X0095988Y0125516D03*
X0102037Y0117037D03*
X0103837Y0112237D03*
X0103237Y0104437D03*
X0112237Y0089437D03*
X0102037Y0082237D03*
X0097237Y0087037D03*
X0091237Y0089437D03*
X0085237Y0092437D03*
X0082237Y0089437D03*
X0078637Y0089437D03*
X0073237Y0094237D03*
X0073237Y0097837D03*
X0068437Y0089437D03*
X0054037Y0078037D03*
X0046237Y0073837D03*
X0043237Y0094237D03*
X0024037Y0082237D03*
X0043232Y0052681D03*
X0031237Y0036037D03*
X0021637Y0034237D03*
X0038902Y0023154D03*
X0042839Y0023154D03*
X0046776Y0023154D03*
X0046776Y0019217D03*
X0042839Y0019217D03*
X0038902Y0019217D03*
X0038902Y0015280D03*
X0042839Y0015280D03*
X0046776Y0015280D03*
X0068429Y0015280D03*
X0072366Y0015280D03*
X0072366Y0019217D03*
X0068429Y0019217D03*
X0068429Y0023154D03*
X0072366Y0023154D03*
X0076303Y0023154D03*
X0076303Y0019217D03*
X0076303Y0015280D03*
X0084177Y0011437D03*
X0097957Y0015280D03*
X0101894Y0015280D03*
X0101894Y0019217D03*
X0097957Y0019217D03*
X0097957Y0023154D03*
X0101894Y0023154D03*
X0105831Y0023154D03*
X0105831Y0019217D03*
X0105831Y0015280D03*
X0073154Y0052872D03*
X0075516Y0073526D03*
X0105437Y0073526D03*
X0111137Y0073526D03*
X0115673Y0056618D03*
X0138637Y0077437D03*
X0135037Y0081037D03*
X0131437Y0081037D03*
X0148237Y0097837D03*
X0151837Y0099637D03*
X0149437Y0105637D03*
X0154237Y0109837D03*
X0159037Y0112237D03*
X0160837Y0105637D03*
X0174037Y0103237D03*
X0175237Y0112237D03*
X0154837Y0089437D03*
X0150037Y0114637D03*
X0145237Y0120637D03*
X0147637Y0129037D03*
X0130837Y0135037D03*
X0100837Y0138037D03*
X0099637Y0145237D03*
X0084637Y0140437D03*
X0076837Y0140437D03*
X0073237Y0140437D03*
X0054637Y0124237D03*
X0052237Y0127237D03*
X0045637Y0130237D03*
X0043237Y0135037D03*
X0049837Y0134437D03*
X0042037Y0145237D03*
X0042037Y0117037D03*
X0045637Y0115837D03*
D23*
X0058823Y0107280D02*
X0028823Y0107280D01*
X0058823Y0107280D02*
X0088823Y0107280D01*
X0109451Y0086651D01*
X0138823Y0057280D01*
X0138823Y0027437D01*
D24*
X0088823Y0107280D02*
X0088323Y0107780D01*
X0088323Y0125091D01*
X0058823Y0125091D02*
X0058823Y0107280D01*
X0028823Y0107280D02*
X0028823Y0125091D01*
D25*
X0050255Y0073526D02*
X0075516Y0073526D01*
X0076793Y0070064D02*
X0079882Y0073154D01*
X0105065Y0073154D01*
X0105437Y0073526D01*
X0111137Y0073526D02*
X0111137Y0061155D01*
X0115673Y0056618D01*
X0076793Y0056511D02*
X0076793Y0070064D01*
X0076793Y0056511D02*
X0073154Y0052872D01*
X0050255Y0073526D02*
X0046793Y0070064D01*
X0046793Y0056242D01*
X0043232Y0052681D01*
X0088823Y0107280D02*
X0088823Y0126170D01*
X0088169Y0125516D01*
X0095988Y0125516D01*
D26*
X0094823Y0033937D02*
X0112323Y0033937D01*
X0112323Y0012937D01*
X0094823Y0012937D01*
X0094823Y0033937D01*
X0094823Y0033824D02*
X0112323Y0033824D01*
X0112323Y0033626D02*
X0094823Y0033626D01*
X0094823Y0033427D02*
X0112323Y0033427D01*
X0112323Y0033229D02*
X0094823Y0033229D01*
X0094823Y0033030D02*
X0112323Y0033030D01*
X0112323Y0032832D02*
X0094823Y0032832D01*
X0094823Y0032633D02*
X0112323Y0032633D01*
X0112323Y0032435D02*
X0094823Y0032435D01*
X0094823Y0032236D02*
X0112323Y0032236D01*
X0112323Y0032038D02*
X0094823Y0032038D01*
X0094823Y0031839D02*
X0112323Y0031839D01*
X0112323Y0031641D02*
X0099868Y0031641D01*
X0099868Y0031730D02*
X0099809Y0031789D01*
X0097899Y0031789D01*
X0097899Y0028639D01*
X0099868Y0028639D01*
X0099868Y0031730D01*
X0099868Y0031442D02*
X0112323Y0031442D01*
X0112323Y0031243D02*
X0099868Y0031243D01*
X0099868Y0031045D02*
X0112323Y0031045D01*
X0112323Y0030846D02*
X0099868Y0030846D01*
X0099868Y0030648D02*
X0112323Y0030648D01*
X0112323Y0030449D02*
X0099868Y0030449D01*
X0099868Y0030251D02*
X0112323Y0030251D01*
X0112323Y0030052D02*
X0099868Y0030052D01*
X0099868Y0029854D02*
X0112323Y0029854D01*
X0112323Y0029655D02*
X0099868Y0029655D01*
X0099868Y0029457D02*
X0112323Y0029457D01*
X0112323Y0029258D02*
X0099868Y0029258D01*
X0099868Y0029060D02*
X0112323Y0029060D01*
X0112323Y0028861D02*
X0099868Y0028861D01*
X0099868Y0028663D02*
X0112323Y0028663D01*
X0112323Y0028464D02*
X0097899Y0028464D01*
X0097899Y0028439D02*
X0097899Y0028639D01*
X0097699Y0028639D01*
X0097699Y0028439D01*
X0097899Y0028439D01*
X0097899Y0025290D01*
X0099809Y0025290D01*
X0099868Y0025348D01*
X0099868Y0028439D01*
X0097899Y0028439D01*
X0097899Y0028266D02*
X0097699Y0028266D01*
X0097699Y0028439D02*
X0097699Y0025290D01*
X0095789Y0025290D01*
X0095731Y0025348D01*
X0095731Y0028439D01*
X0097699Y0028439D01*
X0097699Y0028464D02*
X0094823Y0028464D01*
X0094823Y0028266D02*
X0095731Y0028266D01*
X0095731Y0028067D02*
X0094823Y0028067D01*
X0094823Y0027869D02*
X0095731Y0027869D01*
X0095731Y0027670D02*
X0094823Y0027670D01*
X0094823Y0027472D02*
X0095731Y0027472D01*
X0095731Y0027273D02*
X0094823Y0027273D01*
X0094823Y0027075D02*
X0095731Y0027075D01*
X0095731Y0026876D02*
X0094823Y0026876D01*
X0094823Y0026678D02*
X0095731Y0026678D01*
X0095731Y0026479D02*
X0094823Y0026479D01*
X0094823Y0026281D02*
X0095731Y0026281D01*
X0095731Y0026082D02*
X0094823Y0026082D01*
X0094823Y0025884D02*
X0095731Y0025884D01*
X0095731Y0025685D02*
X0094823Y0025685D01*
X0094823Y0025487D02*
X0095731Y0025487D01*
X0094823Y0025288D02*
X0112323Y0025288D01*
X0112323Y0025090D02*
X0094823Y0025090D01*
X0094823Y0024891D02*
X0112323Y0024891D01*
X0112323Y0024693D02*
X0094823Y0024693D01*
X0094823Y0024494D02*
X0112323Y0024494D01*
X0112323Y0024296D02*
X0094823Y0024296D01*
X0094823Y0024097D02*
X0112323Y0024097D01*
X0112323Y0023899D02*
X0094823Y0023899D01*
X0094823Y0023700D02*
X0112323Y0023700D01*
X0112323Y0023502D02*
X0094823Y0023502D01*
X0094823Y0023303D02*
X0112323Y0023303D01*
X0112323Y0023105D02*
X0094823Y0023105D01*
X0094823Y0022906D02*
X0112323Y0022906D01*
X0112323Y0022707D02*
X0094823Y0022707D01*
X0094823Y0022509D02*
X0112323Y0022509D01*
X0112323Y0022310D02*
X0094823Y0022310D01*
X0094823Y0022112D02*
X0112323Y0022112D01*
X0112323Y0021913D02*
X0094823Y0021913D01*
X0094823Y0021715D02*
X0112323Y0021715D01*
X0112323Y0021516D02*
X0094823Y0021516D01*
X0094823Y0021318D02*
X0112323Y0021318D01*
X0112323Y0021119D02*
X0094823Y0021119D01*
X0094823Y0020921D02*
X0112323Y0020921D01*
X0112323Y0020722D02*
X0094823Y0020722D01*
X0094823Y0020524D02*
X0112323Y0020524D01*
X0112323Y0020325D02*
X0094823Y0020325D01*
X0094823Y0020127D02*
X0112323Y0020127D01*
X0112323Y0019928D02*
X0094823Y0019928D01*
X0094823Y0019730D02*
X0112323Y0019730D01*
X0112323Y0019531D02*
X0094823Y0019531D01*
X0094823Y0019333D02*
X0112323Y0019333D01*
X0112323Y0019134D02*
X0094823Y0019134D01*
X0094823Y0018936D02*
X0112323Y0018936D01*
X0112323Y0018737D02*
X0094823Y0018737D01*
X0094823Y0018539D02*
X0112323Y0018539D01*
X0112323Y0018340D02*
X0094823Y0018340D01*
X0094823Y0018142D02*
X0112323Y0018142D01*
X0112323Y0017943D02*
X0094823Y0017943D01*
X0094823Y0017745D02*
X0112323Y0017745D01*
X0112323Y0017546D02*
X0094823Y0017546D01*
X0094823Y0017348D02*
X0112323Y0017348D01*
X0112323Y0017149D02*
X0094823Y0017149D01*
X0094823Y0016951D02*
X0112323Y0016951D01*
X0112323Y0016752D02*
X0094823Y0016752D01*
X0094823Y0016554D02*
X0112323Y0016554D01*
X0112323Y0016355D02*
X0094823Y0016355D01*
X0094823Y0016157D02*
X0112323Y0016157D01*
X0112323Y0015958D02*
X0094823Y0015958D01*
X0094823Y0015760D02*
X0112323Y0015760D01*
X0112323Y0015561D02*
X0094823Y0015561D01*
X0094823Y0015363D02*
X0112323Y0015363D01*
X0112323Y0015164D02*
X0094823Y0015164D01*
X0094823Y0014966D02*
X0112323Y0014966D01*
X0112323Y0014767D02*
X0094823Y0014767D01*
X0094823Y0014569D02*
X0112323Y0014569D01*
X0112323Y0014370D02*
X0094823Y0014370D01*
X0094823Y0014172D02*
X0112323Y0014172D01*
X0112323Y0013973D02*
X0094823Y0013973D01*
X0094823Y0013774D02*
X0112323Y0013774D01*
X0112323Y0013576D02*
X0094823Y0013576D01*
X0094823Y0013377D02*
X0112323Y0013377D01*
X0112323Y0013179D02*
X0094823Y0013179D01*
X0094823Y0012980D02*
X0112323Y0012980D01*
X0112323Y0025487D02*
X0099868Y0025487D01*
X0099868Y0025685D02*
X0112323Y0025685D01*
X0112323Y0025884D02*
X0099868Y0025884D01*
X0099868Y0026082D02*
X0112323Y0026082D01*
X0112323Y0026281D02*
X0099868Y0026281D01*
X0099868Y0026479D02*
X0112323Y0026479D01*
X0112323Y0026678D02*
X0099868Y0026678D01*
X0099868Y0026876D02*
X0112323Y0026876D01*
X0112323Y0027075D02*
X0099868Y0027075D01*
X0099868Y0027273D02*
X0112323Y0027273D01*
X0112323Y0027472D02*
X0099868Y0027472D01*
X0099868Y0027670D02*
X0112323Y0027670D01*
X0112323Y0027869D02*
X0099868Y0027869D01*
X0099868Y0028067D02*
X0112323Y0028067D01*
X0112323Y0028266D02*
X0099868Y0028266D01*
X0097899Y0028067D02*
X0097699Y0028067D01*
X0097699Y0027869D02*
X0097899Y0027869D01*
X0097899Y0027670D02*
X0097699Y0027670D01*
X0097699Y0027472D02*
X0097899Y0027472D01*
X0097899Y0027273D02*
X0097699Y0027273D01*
X0097699Y0027075D02*
X0097899Y0027075D01*
X0097899Y0026876D02*
X0097699Y0026876D01*
X0097699Y0026678D02*
X0097899Y0026678D01*
X0097899Y0026479D02*
X0097699Y0026479D01*
X0097699Y0026281D02*
X0097899Y0026281D01*
X0097899Y0026082D02*
X0097699Y0026082D01*
X0097699Y0025884D02*
X0097899Y0025884D01*
X0097899Y0025685D02*
X0097699Y0025685D01*
X0097699Y0025487D02*
X0097899Y0025487D01*
X0097699Y0028639D02*
X0095731Y0028639D01*
X0095731Y0031730D01*
X0095789Y0031789D01*
X0097699Y0031789D01*
X0097699Y0028639D01*
X0097699Y0028663D02*
X0097899Y0028663D01*
X0097899Y0028861D02*
X0097699Y0028861D01*
X0097699Y0029060D02*
X0097899Y0029060D01*
X0097899Y0029258D02*
X0097699Y0029258D01*
X0097699Y0029457D02*
X0097899Y0029457D01*
X0097899Y0029655D02*
X0097699Y0029655D01*
X0097699Y0029854D02*
X0097899Y0029854D01*
X0097899Y0030052D02*
X0097699Y0030052D01*
X0097699Y0030251D02*
X0097899Y0030251D01*
X0097899Y0030449D02*
X0097699Y0030449D01*
X0097699Y0030648D02*
X0097899Y0030648D01*
X0097899Y0030846D02*
X0097699Y0030846D01*
X0097699Y0031045D02*
X0097899Y0031045D01*
X0097899Y0031243D02*
X0097699Y0031243D01*
X0097699Y0031442D02*
X0097899Y0031442D01*
X0097899Y0031641D02*
X0097699Y0031641D01*
X0095731Y0031641D02*
X0094823Y0031641D01*
X0094823Y0031442D02*
X0095731Y0031442D01*
X0095731Y0031243D02*
X0094823Y0031243D01*
X0094823Y0031045D02*
X0095731Y0031045D01*
X0095731Y0030846D02*
X0094823Y0030846D01*
X0094823Y0030648D02*
X0095731Y0030648D01*
X0095731Y0030449D02*
X0094823Y0030449D01*
X0094823Y0030251D02*
X0095731Y0030251D01*
X0095731Y0030052D02*
X0094823Y0030052D01*
X0094823Y0029854D02*
X0095731Y0029854D01*
X0095731Y0029655D02*
X0094823Y0029655D01*
X0094823Y0029457D02*
X0095731Y0029457D01*
X0095731Y0029258D02*
X0094823Y0029258D01*
X0094823Y0029060D02*
X0095731Y0029060D01*
X0095731Y0028861D02*
X0094823Y0028861D01*
X0094823Y0028663D02*
X0095731Y0028663D01*
X0081323Y0032389D02*
X0077588Y0032389D01*
X0077178Y0031979D01*
X0077178Y0025100D01*
X0077588Y0024690D01*
X0081323Y0024690D01*
X0081323Y0016737D01*
X0077523Y0012937D01*
X0064823Y0012937D01*
X0064823Y0033937D01*
X0081323Y0033937D01*
X0081323Y0032389D01*
X0081323Y0032435D02*
X0064823Y0032435D01*
X0064823Y0032633D02*
X0081323Y0032633D01*
X0081323Y0032832D02*
X0064823Y0032832D01*
X0064823Y0033030D02*
X0081323Y0033030D01*
X0081323Y0033229D02*
X0064823Y0033229D01*
X0064823Y0033427D02*
X0081323Y0033427D01*
X0081323Y0033626D02*
X0064823Y0033626D01*
X0064823Y0033824D02*
X0081323Y0033824D01*
X0077435Y0032236D02*
X0064823Y0032236D01*
X0064823Y0032038D02*
X0077237Y0032038D01*
X0077178Y0031839D02*
X0064823Y0031839D01*
X0064823Y0031641D02*
X0065731Y0031641D01*
X0065731Y0031730D02*
X0065731Y0028639D01*
X0067699Y0028639D01*
X0067699Y0028439D01*
X0067899Y0028439D01*
X0067899Y0025290D01*
X0069809Y0025290D01*
X0069868Y0025348D01*
X0069868Y0028439D01*
X0067899Y0028439D01*
X0067899Y0028639D01*
X0069868Y0028639D01*
X0069868Y0031730D01*
X0069809Y0031789D01*
X0067899Y0031789D01*
X0067899Y0028639D01*
X0067699Y0028639D01*
X0067699Y0031789D01*
X0065789Y0031789D01*
X0065731Y0031730D01*
X0065731Y0031442D02*
X0064823Y0031442D01*
X0064823Y0031243D02*
X0065731Y0031243D01*
X0065731Y0031045D02*
X0064823Y0031045D01*
X0064823Y0030846D02*
X0065731Y0030846D01*
X0065731Y0030648D02*
X0064823Y0030648D01*
X0064823Y0030449D02*
X0065731Y0030449D01*
X0065731Y0030251D02*
X0064823Y0030251D01*
X0064823Y0030052D02*
X0065731Y0030052D01*
X0065731Y0029854D02*
X0064823Y0029854D01*
X0064823Y0029655D02*
X0065731Y0029655D01*
X0065731Y0029457D02*
X0064823Y0029457D01*
X0064823Y0029258D02*
X0065731Y0029258D01*
X0065731Y0029060D02*
X0064823Y0029060D01*
X0064823Y0028861D02*
X0065731Y0028861D01*
X0065731Y0028663D02*
X0064823Y0028663D01*
X0064823Y0028464D02*
X0067699Y0028464D01*
X0067699Y0028439D02*
X0065731Y0028439D01*
X0065731Y0025348D01*
X0065789Y0025290D01*
X0067699Y0025290D01*
X0067699Y0028439D01*
X0067699Y0028266D02*
X0067899Y0028266D01*
X0067899Y0028464D02*
X0077178Y0028464D01*
X0077178Y0028266D02*
X0069868Y0028266D01*
X0069868Y0028067D02*
X0077178Y0028067D01*
X0077178Y0027869D02*
X0069868Y0027869D01*
X0069868Y0027670D02*
X0077178Y0027670D01*
X0077178Y0027472D02*
X0069868Y0027472D01*
X0069868Y0027273D02*
X0077178Y0027273D01*
X0077178Y0027075D02*
X0069868Y0027075D01*
X0069868Y0026876D02*
X0077178Y0026876D01*
X0077178Y0026678D02*
X0069868Y0026678D01*
X0069868Y0026479D02*
X0077178Y0026479D01*
X0077178Y0026281D02*
X0069868Y0026281D01*
X0069868Y0026082D02*
X0077178Y0026082D01*
X0077178Y0025884D02*
X0069868Y0025884D01*
X0069868Y0025685D02*
X0077178Y0025685D01*
X0077178Y0025487D02*
X0069868Y0025487D01*
X0067899Y0025487D02*
X0067699Y0025487D01*
X0067699Y0025685D02*
X0067899Y0025685D01*
X0067899Y0025884D02*
X0067699Y0025884D01*
X0067699Y0026082D02*
X0067899Y0026082D01*
X0067899Y0026281D02*
X0067699Y0026281D01*
X0067699Y0026479D02*
X0067899Y0026479D01*
X0067899Y0026678D02*
X0067699Y0026678D01*
X0067699Y0026876D02*
X0067899Y0026876D01*
X0067899Y0027075D02*
X0067699Y0027075D01*
X0067699Y0027273D02*
X0067899Y0027273D01*
X0067899Y0027472D02*
X0067699Y0027472D01*
X0067699Y0027670D02*
X0067899Y0027670D01*
X0067899Y0027869D02*
X0067699Y0027869D01*
X0067699Y0028067D02*
X0067899Y0028067D01*
X0067899Y0028663D02*
X0067699Y0028663D01*
X0067699Y0028861D02*
X0067899Y0028861D01*
X0067899Y0029060D02*
X0067699Y0029060D01*
X0067699Y0029258D02*
X0067899Y0029258D01*
X0067899Y0029457D02*
X0067699Y0029457D01*
X0067699Y0029655D02*
X0067899Y0029655D01*
X0067899Y0029854D02*
X0067699Y0029854D01*
X0067699Y0030052D02*
X0067899Y0030052D01*
X0067899Y0030251D02*
X0067699Y0030251D01*
X0067699Y0030449D02*
X0067899Y0030449D01*
X0067899Y0030648D02*
X0067699Y0030648D01*
X0067699Y0030846D02*
X0067899Y0030846D01*
X0067899Y0031045D02*
X0067699Y0031045D01*
X0067699Y0031243D02*
X0067899Y0031243D01*
X0067899Y0031442D02*
X0067699Y0031442D01*
X0067699Y0031641D02*
X0067899Y0031641D01*
X0069868Y0031641D02*
X0077178Y0031641D01*
X0077178Y0031442D02*
X0069868Y0031442D01*
X0069868Y0031243D02*
X0077178Y0031243D01*
X0077178Y0031045D02*
X0069868Y0031045D01*
X0069868Y0030846D02*
X0077178Y0030846D01*
X0077178Y0030648D02*
X0069868Y0030648D01*
X0069868Y0030449D02*
X0077178Y0030449D01*
X0077178Y0030251D02*
X0069868Y0030251D01*
X0069868Y0030052D02*
X0077178Y0030052D01*
X0077178Y0029854D02*
X0069868Y0029854D01*
X0069868Y0029655D02*
X0077178Y0029655D01*
X0077178Y0029457D02*
X0069868Y0029457D01*
X0069868Y0029258D02*
X0077178Y0029258D01*
X0077178Y0029060D02*
X0069868Y0029060D01*
X0069868Y0028861D02*
X0077178Y0028861D01*
X0077178Y0028663D02*
X0069868Y0028663D01*
X0065731Y0028266D02*
X0064823Y0028266D01*
X0064823Y0028067D02*
X0065731Y0028067D01*
X0065731Y0027869D02*
X0064823Y0027869D01*
X0064823Y0027670D02*
X0065731Y0027670D01*
X0065731Y0027472D02*
X0064823Y0027472D01*
X0064823Y0027273D02*
X0065731Y0027273D01*
X0065731Y0027075D02*
X0064823Y0027075D01*
X0064823Y0026876D02*
X0065731Y0026876D01*
X0065731Y0026678D02*
X0064823Y0026678D01*
X0064823Y0026479D02*
X0065731Y0026479D01*
X0065731Y0026281D02*
X0064823Y0026281D01*
X0064823Y0026082D02*
X0065731Y0026082D01*
X0065731Y0025884D02*
X0064823Y0025884D01*
X0064823Y0025685D02*
X0065731Y0025685D01*
X0065731Y0025487D02*
X0064823Y0025487D01*
X0064823Y0025288D02*
X0077178Y0025288D01*
X0077188Y0025090D02*
X0064823Y0025090D01*
X0064823Y0024891D02*
X0077387Y0024891D01*
X0077585Y0024693D02*
X0064823Y0024693D01*
X0064823Y0024494D02*
X0081323Y0024494D01*
X0081323Y0024296D02*
X0064823Y0024296D01*
X0064823Y0024097D02*
X0081323Y0024097D01*
X0081323Y0023899D02*
X0064823Y0023899D01*
X0064823Y0023700D02*
X0081323Y0023700D01*
X0081323Y0023502D02*
X0064823Y0023502D01*
X0064823Y0023303D02*
X0081323Y0023303D01*
X0081323Y0023105D02*
X0064823Y0023105D01*
X0064823Y0022906D02*
X0081323Y0022906D01*
X0081323Y0022707D02*
X0064823Y0022707D01*
X0064823Y0022509D02*
X0081323Y0022509D01*
X0081323Y0022310D02*
X0064823Y0022310D01*
X0064823Y0022112D02*
X0081323Y0022112D01*
X0081323Y0021913D02*
X0064823Y0021913D01*
X0064823Y0021715D02*
X0081323Y0021715D01*
X0081323Y0021516D02*
X0064823Y0021516D01*
X0064823Y0021318D02*
X0081323Y0021318D01*
X0081323Y0021119D02*
X0064823Y0021119D01*
X0064823Y0020921D02*
X0081323Y0020921D01*
X0081323Y0020722D02*
X0064823Y0020722D01*
X0064823Y0020524D02*
X0081323Y0020524D01*
X0081323Y0020325D02*
X0064823Y0020325D01*
X0064823Y0020127D02*
X0081323Y0020127D01*
X0081323Y0019928D02*
X0064823Y0019928D01*
X0064823Y0019730D02*
X0081323Y0019730D01*
X0081323Y0019531D02*
X0064823Y0019531D01*
X0064823Y0019333D02*
X0081323Y0019333D01*
X0081323Y0019134D02*
X0064823Y0019134D01*
X0064823Y0018936D02*
X0081323Y0018936D01*
X0081323Y0018737D02*
X0064823Y0018737D01*
X0064823Y0018539D02*
X0081323Y0018539D01*
X0081323Y0018340D02*
X0064823Y0018340D01*
X0064823Y0018142D02*
X0081323Y0018142D01*
X0081323Y0017943D02*
X0064823Y0017943D01*
X0064823Y0017745D02*
X0081323Y0017745D01*
X0081323Y0017546D02*
X0064823Y0017546D01*
X0064823Y0017348D02*
X0081323Y0017348D01*
X0081323Y0017149D02*
X0064823Y0017149D01*
X0064823Y0016951D02*
X0081323Y0016951D01*
X0081323Y0016752D02*
X0064823Y0016752D01*
X0064823Y0016554D02*
X0081139Y0016554D01*
X0080941Y0016355D02*
X0064823Y0016355D01*
X0064823Y0016157D02*
X0080742Y0016157D01*
X0080544Y0015958D02*
X0064823Y0015958D01*
X0064823Y0015760D02*
X0080345Y0015760D01*
X0080147Y0015561D02*
X0064823Y0015561D01*
X0064823Y0015363D02*
X0079948Y0015363D01*
X0079750Y0015164D02*
X0064823Y0015164D01*
X0064823Y0014966D02*
X0079551Y0014966D01*
X0079353Y0014767D02*
X0064823Y0014767D01*
X0064823Y0014569D02*
X0079154Y0014569D01*
X0078956Y0014370D02*
X0064823Y0014370D01*
X0064823Y0014172D02*
X0078757Y0014172D01*
X0078559Y0013973D02*
X0064823Y0013973D01*
X0064823Y0013774D02*
X0078360Y0013774D01*
X0078162Y0013576D02*
X0064823Y0013576D01*
X0064823Y0013377D02*
X0077963Y0013377D01*
X0077765Y0013179D02*
X0064823Y0013179D01*
X0064823Y0012980D02*
X0077566Y0012980D01*
X0050823Y0012980D02*
X0034823Y0012980D01*
X0034823Y0012937D02*
X0050823Y0012937D01*
X0050823Y0024690D01*
X0047588Y0024690D01*
X0047178Y0025100D01*
X0047178Y0031979D01*
X0047588Y0032389D01*
X0050823Y0032389D01*
X0050823Y0033437D01*
X0034823Y0033437D01*
X0034823Y0012937D01*
X0034823Y0013179D02*
X0050823Y0013179D01*
X0050823Y0013377D02*
X0034823Y0013377D01*
X0034823Y0013576D02*
X0050823Y0013576D01*
X0050823Y0013774D02*
X0034823Y0013774D01*
X0034823Y0013973D02*
X0050823Y0013973D01*
X0050823Y0014172D02*
X0034823Y0014172D01*
X0034823Y0014370D02*
X0050823Y0014370D01*
X0050823Y0014569D02*
X0034823Y0014569D01*
X0034823Y0014767D02*
X0050823Y0014767D01*
X0050823Y0014966D02*
X0034823Y0014966D01*
X0034823Y0015164D02*
X0050823Y0015164D01*
X0050823Y0015363D02*
X0034823Y0015363D01*
X0034823Y0015561D02*
X0050823Y0015561D01*
X0050823Y0015760D02*
X0034823Y0015760D01*
X0034823Y0015958D02*
X0050823Y0015958D01*
X0050823Y0016157D02*
X0034823Y0016157D01*
X0034823Y0016355D02*
X0050823Y0016355D01*
X0050823Y0016554D02*
X0034823Y0016554D01*
X0034823Y0016752D02*
X0050823Y0016752D01*
X0050823Y0016951D02*
X0034823Y0016951D01*
X0034823Y0017149D02*
X0050823Y0017149D01*
X0050823Y0017348D02*
X0034823Y0017348D01*
X0034823Y0017546D02*
X0050823Y0017546D01*
X0050823Y0017745D02*
X0034823Y0017745D01*
X0034823Y0017943D02*
X0050823Y0017943D01*
X0050823Y0018142D02*
X0034823Y0018142D01*
X0034823Y0018340D02*
X0050823Y0018340D01*
X0050823Y0018539D02*
X0034823Y0018539D01*
X0034823Y0018737D02*
X0050823Y0018737D01*
X0050823Y0018936D02*
X0034823Y0018936D01*
X0034823Y0019134D02*
X0050823Y0019134D01*
X0050823Y0019333D02*
X0034823Y0019333D01*
X0034823Y0019531D02*
X0050823Y0019531D01*
X0050823Y0019730D02*
X0034823Y0019730D01*
X0034823Y0019928D02*
X0050823Y0019928D01*
X0050823Y0020127D02*
X0034823Y0020127D01*
X0034823Y0020325D02*
X0050823Y0020325D01*
X0050823Y0020524D02*
X0034823Y0020524D01*
X0034823Y0020722D02*
X0050823Y0020722D01*
X0050823Y0020921D02*
X0034823Y0020921D01*
X0034823Y0021119D02*
X0050823Y0021119D01*
X0050823Y0021318D02*
X0034823Y0021318D01*
X0034823Y0021516D02*
X0050823Y0021516D01*
X0050823Y0021715D02*
X0034823Y0021715D01*
X0034823Y0021913D02*
X0050823Y0021913D01*
X0050823Y0022112D02*
X0034823Y0022112D01*
X0034823Y0022310D02*
X0050823Y0022310D01*
X0050823Y0022509D02*
X0034823Y0022509D01*
X0034823Y0022707D02*
X0050823Y0022707D01*
X0050823Y0022906D02*
X0034823Y0022906D01*
X0034823Y0023105D02*
X0050823Y0023105D01*
X0050823Y0023303D02*
X0034823Y0023303D01*
X0034823Y0023502D02*
X0050823Y0023502D01*
X0050823Y0023700D02*
X0034823Y0023700D01*
X0034823Y0023899D02*
X0050823Y0023899D01*
X0050823Y0024097D02*
X0034823Y0024097D01*
X0034823Y0024296D02*
X0050823Y0024296D01*
X0050823Y0024494D02*
X0034823Y0024494D01*
X0034823Y0024693D02*
X0047585Y0024693D01*
X0047387Y0024891D02*
X0034823Y0024891D01*
X0034823Y0025090D02*
X0047188Y0025090D01*
X0047178Y0025288D02*
X0034823Y0025288D01*
X0034823Y0025487D02*
X0035731Y0025487D01*
X0035731Y0025348D02*
X0035789Y0025290D01*
X0037699Y0025290D01*
X0037699Y0028439D01*
X0037899Y0028439D01*
X0037899Y0025290D01*
X0039809Y0025290D01*
X0039868Y0025348D01*
X0039868Y0028439D01*
X0037899Y0028439D01*
X0037899Y0028639D01*
X0039868Y0028639D01*
X0039868Y0031730D01*
X0039809Y0031789D01*
X0037899Y0031789D01*
X0037899Y0028639D01*
X0037699Y0028639D01*
X0037699Y0028439D01*
X0035731Y0028439D01*
X0035731Y0025348D01*
X0035731Y0025685D02*
X0034823Y0025685D01*
X0034823Y0025884D02*
X0035731Y0025884D01*
X0035731Y0026082D02*
X0034823Y0026082D01*
X0034823Y0026281D02*
X0035731Y0026281D01*
X0035731Y0026479D02*
X0034823Y0026479D01*
X0034823Y0026678D02*
X0035731Y0026678D01*
X0035731Y0026876D02*
X0034823Y0026876D01*
X0034823Y0027075D02*
X0035731Y0027075D01*
X0035731Y0027273D02*
X0034823Y0027273D01*
X0034823Y0027472D02*
X0035731Y0027472D01*
X0035731Y0027670D02*
X0034823Y0027670D01*
X0034823Y0027869D02*
X0035731Y0027869D01*
X0035731Y0028067D02*
X0034823Y0028067D01*
X0034823Y0028266D02*
X0035731Y0028266D01*
X0035731Y0028639D02*
X0037699Y0028639D01*
X0037699Y0031789D01*
X0035789Y0031789D01*
X0035731Y0031730D01*
X0035731Y0028639D01*
X0035731Y0028663D02*
X0034823Y0028663D01*
X0034823Y0028861D02*
X0035731Y0028861D01*
X0035731Y0029060D02*
X0034823Y0029060D01*
X0034823Y0029258D02*
X0035731Y0029258D01*
X0035731Y0029457D02*
X0034823Y0029457D01*
X0034823Y0029655D02*
X0035731Y0029655D01*
X0035731Y0029854D02*
X0034823Y0029854D01*
X0034823Y0030052D02*
X0035731Y0030052D01*
X0035731Y0030251D02*
X0034823Y0030251D01*
X0034823Y0030449D02*
X0035731Y0030449D01*
X0035731Y0030648D02*
X0034823Y0030648D01*
X0034823Y0030846D02*
X0035731Y0030846D01*
X0035731Y0031045D02*
X0034823Y0031045D01*
X0034823Y0031243D02*
X0035731Y0031243D01*
X0035731Y0031442D02*
X0034823Y0031442D01*
X0034823Y0031641D02*
X0035731Y0031641D01*
X0034823Y0031839D02*
X0047178Y0031839D01*
X0047178Y0031641D02*
X0039868Y0031641D01*
X0039868Y0031442D02*
X0047178Y0031442D01*
X0047178Y0031243D02*
X0039868Y0031243D01*
X0039868Y0031045D02*
X0047178Y0031045D01*
X0047178Y0030846D02*
X0039868Y0030846D01*
X0039868Y0030648D02*
X0047178Y0030648D01*
X0047178Y0030449D02*
X0039868Y0030449D01*
X0039868Y0030251D02*
X0047178Y0030251D01*
X0047178Y0030052D02*
X0039868Y0030052D01*
X0039868Y0029854D02*
X0047178Y0029854D01*
X0047178Y0029655D02*
X0039868Y0029655D01*
X0039868Y0029457D02*
X0047178Y0029457D01*
X0047178Y0029258D02*
X0039868Y0029258D01*
X0039868Y0029060D02*
X0047178Y0029060D01*
X0047178Y0028861D02*
X0039868Y0028861D01*
X0039868Y0028663D02*
X0047178Y0028663D01*
X0047178Y0028464D02*
X0037899Y0028464D01*
X0037899Y0028266D02*
X0037699Y0028266D01*
X0037699Y0028464D02*
X0034823Y0028464D01*
X0037699Y0028663D02*
X0037899Y0028663D01*
X0037899Y0028861D02*
X0037699Y0028861D01*
X0037699Y0029060D02*
X0037899Y0029060D01*
X0037899Y0029258D02*
X0037699Y0029258D01*
X0037699Y0029457D02*
X0037899Y0029457D01*
X0037899Y0029655D02*
X0037699Y0029655D01*
X0037699Y0029854D02*
X0037899Y0029854D01*
X0037899Y0030052D02*
X0037699Y0030052D01*
X0037699Y0030251D02*
X0037899Y0030251D01*
X0037899Y0030449D02*
X0037699Y0030449D01*
X0037699Y0030648D02*
X0037899Y0030648D01*
X0037899Y0030846D02*
X0037699Y0030846D01*
X0037699Y0031045D02*
X0037899Y0031045D01*
X0037899Y0031243D02*
X0037699Y0031243D01*
X0037699Y0031442D02*
X0037899Y0031442D01*
X0037899Y0031641D02*
X0037699Y0031641D01*
X0034823Y0032038D02*
X0047237Y0032038D01*
X0047435Y0032236D02*
X0034823Y0032236D01*
X0034823Y0032435D02*
X0050823Y0032435D01*
X0050823Y0032633D02*
X0034823Y0032633D01*
X0034823Y0032832D02*
X0050823Y0032832D01*
X0050823Y0033030D02*
X0034823Y0033030D01*
X0034823Y0033229D02*
X0050823Y0033229D01*
X0050823Y0033427D02*
X0034823Y0033427D01*
X0037699Y0028067D02*
X0037899Y0028067D01*
X0037899Y0027869D02*
X0037699Y0027869D01*
X0037699Y0027670D02*
X0037899Y0027670D01*
X0037899Y0027472D02*
X0037699Y0027472D01*
X0037699Y0027273D02*
X0037899Y0027273D01*
X0037899Y0027075D02*
X0037699Y0027075D01*
X0037699Y0026876D02*
X0037899Y0026876D01*
X0037899Y0026678D02*
X0037699Y0026678D01*
X0037699Y0026479D02*
X0037899Y0026479D01*
X0037899Y0026281D02*
X0037699Y0026281D01*
X0037699Y0026082D02*
X0037899Y0026082D01*
X0037899Y0025884D02*
X0037699Y0025884D01*
X0037699Y0025685D02*
X0037899Y0025685D01*
X0037899Y0025487D02*
X0037699Y0025487D01*
X0039868Y0025487D02*
X0047178Y0025487D01*
X0047178Y0025685D02*
X0039868Y0025685D01*
X0039868Y0025884D02*
X0047178Y0025884D01*
X0047178Y0026082D02*
X0039868Y0026082D01*
X0039868Y0026281D02*
X0047178Y0026281D01*
X0047178Y0026479D02*
X0039868Y0026479D01*
X0039868Y0026678D02*
X0047178Y0026678D01*
X0047178Y0026876D02*
X0039868Y0026876D01*
X0039868Y0027075D02*
X0047178Y0027075D01*
X0047178Y0027273D02*
X0039868Y0027273D01*
X0039868Y0027472D02*
X0047178Y0027472D01*
X0047178Y0027670D02*
X0039868Y0027670D01*
X0039868Y0027869D02*
X0047178Y0027869D01*
X0047178Y0028067D02*
X0039868Y0028067D01*
X0039868Y0028266D02*
X0047178Y0028266D01*
M02*
