%
M48
M72
T01C0.01200
T02C0.01378
T03C0.03150
T04C0.04331
T05C0.06700
T06C0.07900
%
T01
X118272Y95358
X122209Y95358
X126146Y95358
X130083Y95358
X134020Y95358
X134020Y99295
X134020Y103232
X134020Y107169
X134020Y111106
X130083Y111106
X130083Y107169
X130083Y103232
X130083Y99295
X126146Y99295
X122209Y99295
X122209Y103232
X126146Y103232
X126146Y107169
X122209Y107169
X122209Y111106
X126146Y111106
X118272Y111106
X118272Y107169
X118272Y103232
X118272Y99295
T02
X21637Y34237
X31237Y36037
X38902Y23154
X42839Y23154
X46776Y23154
X46776Y19217
X42839Y19217
X38902Y19217
X38902Y15280
X42839Y15280
X46776Y15280
X68429Y15280
X72366Y15280
X72366Y19217
X68429Y19217
X68429Y23154
X72366Y23154
X76303Y23154
X76303Y19217
X76303Y15280
X84177Y11437
X97957Y15280
X101894Y15280
X101894Y19217
X97957Y19217
X97957Y23154
X101894Y23154
X105831Y23154
X105831Y19217
X105831Y15280
X73154Y52872
X75516Y73526
X78637Y89437
X82237Y89437
X85237Y92437
X91237Y89437
X97237Y87037
X102037Y82237
X105437Y73526
X111137Y73526
X115673Y56618
X138637Y77437
X135037Y81037
X131437Y81037
X148237Y97837
X151837Y99637
X149437Y105637
X154237Y109837
X159037Y112237
X160837Y105637
X174037Y103237
X175237Y112237
X154837Y89437
X150037Y114637
X145237Y120637
X147637Y129037
X130837Y135037
X124237Y128437
X121837Y125437
X121237Y130837
X117637Y130837
X112237Y126637
X109237Y124237
X100837Y124237
X95988Y125516
X102037Y117037
X103837Y112237
X103237Y104437
X112237Y89437
X73237Y94237
X73237Y97837
X68437Y89437
X54037Y78037
X46237Y73837
X43237Y94237
X24037Y82237
X43232Y52681
X45637Y115837
X42037Y117037
X52237Y127237
X54637Y124237
X45637Y130237
X43237Y135037
X49837Y134437
X42037Y145237
X73237Y140437
X76837Y140437
X84637Y140437
X99637Y145237
X100837Y138037
X118237Y138037
X126637Y146437
X135637Y157237
X124237Y165037
X118237Y165037
X131437Y173437
T03
X165244Y169650
X165244Y159650
X165244Y149650
X165244Y139650
X165244Y129650
X165244Y119650
X165244Y109650
X165244Y99650
X165244Y89650
X165244Y79650
X165244Y69650
X165244Y59650
X165244Y49650
X165244Y39650
X165244Y29650
X165244Y19650
X225244Y19650
X225244Y29650
X225244Y39650
X225244Y49650
X225244Y59650
X225244Y69650
X225244Y79650
X225244Y89650
X225244Y99650
X225244Y109650
X225244Y119650
X225244Y129650
X225244Y139650
X225244Y149650
X225244Y159650
X225244Y169650
X225244Y179650
X225244Y189650
X225244Y199650
X225244Y209650
X165244Y209650
X165244Y199650
X165244Y189650
X165244Y179650
T04
X180244Y79650
X190244Y79650
X190244Y69650
X180244Y69650
X180244Y59650
X190244Y59650
T05
X187114Y204937
X202114Y204937
T06
X138823Y27437
X123823Y27437
M30
