G04 EAGLE Gerber RS-274X export*
G75*
%MOMM*%
%FSLAX34Y34*%
%LPD*%
%IN*%
%IPPOS*%
%AMOC8*
5,1,8,0,0,1.08239X$1,22.5*%
G01*
%ADD10C,0.254000*%


D10*
X-1208Y581313D02*
X-61Y22325D01*
X52Y19771D01*
X394Y17176D01*
X960Y14621D01*
X1747Y12124D01*
X2748Y9706D01*
X3957Y7384D01*
X5363Y5177D01*
X6956Y3100D01*
X8724Y1170D01*
X10654Y-599D01*
X12730Y-2192D01*
X14937Y-3599D01*
X17259Y-4808D01*
X19677Y-5810D01*
X22173Y-6597D01*
X24729Y-7164D01*
X27324Y-7506D01*
X29939Y-7620D01*
X814288Y-7620D01*
X814355Y-7620D01*
X816969Y-7500D01*
X819563Y-7153D01*
X822117Y-6580D01*
X824612Y-5788D01*
X827027Y-4781D01*
X829346Y-3567D01*
X831550Y-2156D01*
X833623Y-558D01*
X835549Y1214D01*
X837312Y3147D01*
X838901Y5227D01*
X840302Y7438D01*
X841506Y9762D01*
X842502Y12182D01*
X843283Y14680D01*
X843844Y17236D01*
X844180Y19832D01*
X844288Y22447D01*
X843141Y581435D01*
X843028Y583989D01*
X842686Y586584D01*
X842120Y589139D01*
X841333Y591636D01*
X840332Y594054D01*
X839123Y596376D01*
X837717Y598583D01*
X836124Y600660D01*
X834356Y602590D01*
X832426Y604359D01*
X830350Y605952D01*
X828143Y607359D01*
X825821Y608568D01*
X823403Y609570D01*
X820907Y610357D01*
X818351Y610924D01*
X815756Y611266D01*
X813142Y611380D01*
X28792Y611380D01*
X28725Y611380D01*
X26111Y611260D01*
X23517Y610913D01*
X20963Y610340D01*
X18468Y609548D01*
X16053Y608541D01*
X13734Y607327D01*
X11530Y605916D01*
X9457Y604318D01*
X7531Y602546D01*
X5768Y600613D01*
X4179Y598533D01*
X2778Y596322D01*
X1574Y593998D01*
X578Y591578D01*
X-203Y589080D01*
X-764Y586524D01*
X-1100Y583928D01*
X-1208Y581313D01*
M02*
