%
M48
M72
T01C0.01378
T02C0.03150
T03C0.03543
T04C0.04000
T05C0.04331
T06C0.07900
T07C0.11811
%
T01
X86000Y106037
X99750Y108537
X118500Y106037
X124750Y111037
X131000Y106037
X147469Y108537
X150368Y105406
X152297Y108537
X131692Y81975
X129750Y57287
X134531Y57287
X127250Y48537
X127250Y43537
X127250Y38537
X127250Y33537
X122250Y33537
X117250Y33537
X117250Y38537
X117250Y43537
X122250Y43537
X122250Y38537
X122250Y48537
X117250Y48537
X116000Y57287
X92250Y49086
X93500Y21037
X138500Y19787
X162250Y33537
X167250Y33537
X172250Y33537
X172250Y38537
X172250Y43537
X167250Y43537
X167250Y38537
X162250Y38537
X162250Y43537
X162250Y48537
X167250Y48537
X172250Y48537
X173249Y57287
X176827Y56864
X161000Y57287
X173500Y82287
X182562Y82600
X189125Y79787
X176000Y105100
X175568Y108850
X171990Y108791
X184750Y123537
X184750Y127287
X188500Y127287
X188500Y123537
X192250Y123537
X192250Y127287
X213650Y157737
X219750Y137376
X189050Y163137
X211250Y194337
X223250Y191937
X181435Y218537
X181435Y222287
X168650Y214137
X162673Y218850
X164063Y222287
X159050Y220137
X152450Y213537
X152450Y203337
X156050Y203337
X160850Y203337
X152250Y194787
X148500Y191037
X143500Y193537
X146000Y197287
X144050Y203337
X140450Y203337
X132050Y197937
X130250Y203337
X128450Y213537
X124850Y213537
X121850Y215937
X126650Y220137
X121850Y208137
X120650Y190737
X117050Y190737
X104450Y201537
X91250Y219537
X69050Y212937
X105650Y258537
X142250Y235737
X151850Y241137
X144650Y218337
X125450Y173337
X128500Y170959
X127250Y164781
X122764Y150973
X141000Y163537
X145395Y152287
X153500Y150973
X153173Y162287
X159411Y165117
X178850Y256137
X182450Y256137
X175250Y276537
X165050Y283137
X159050Y299937
X204750Y261037
X207250Y48537
X207250Y43537
X207250Y38537
X207250Y33537
X212250Y33537
X217250Y33537
X217250Y38537
X217250Y43537
X212250Y43537
X212250Y38537
X212250Y48537
X217250Y48537
X183500Y19787
T02
X184750Y247287
X174750Y247287
X164750Y247287
X154750Y247287
X144750Y247287
X134750Y247287
X124750Y247287
X114750Y247287
X104750Y247287
X94750Y247287
X84750Y247287
X74750Y247287
X64750Y247287
X54750Y247287
X44750Y247287
X34750Y247287
X24750Y247287
X24750Y307287
X34750Y307287
X44750Y307287
X54750Y307287
X64750Y307287
X74750Y307287
X84750Y307287
X94750Y307287
X104750Y307287
X114750Y307287
X124750Y307287
X134750Y307287
X144750Y307287
X154750Y307287
X164750Y307287
X174750Y307287
X184750Y307287
X194750Y307287
X204750Y307287
X214750Y307287
X214750Y247287
X204750Y247287
X194750Y247287
T03
X62250Y98380
X62250Y78695
X27250Y78695
X27250Y98380
T04
X219750Y97287
X219750Y87287
X219750Y107287
X219750Y117287
X219750Y132287
X219750Y142287
X219750Y152287
X219750Y162287
X219750Y172287
X219750Y182287
T05
X84750Y282287
X84750Y292287
X74750Y292287
X74750Y282287
X64750Y282287
X64750Y292287
T06
X27250Y123537
X27250Y53537
T07
X16000Y15100
X12562Y168850
X217562Y15725
M30
