G75*
%MOIN*%
%OFA0B0*%
%FSLAX25Y25*%
%IPPOS*%
%LPD*%
%AMOC8*
5,1,8,0,0,1.08239X$1,22.5*
%
%ADD10OC8,0.07600*%
%ADD11R,0.01181X0.05807*%
%ADD12R,0.17402X0.13701*%
%ADD13R,0.04331X0.03937*%
%ADD14R,0.03937X0.04331*%
%ADD15C,0.07600*%
%ADD16R,0.07600X0.07600*%
%ADD17R,0.12598X0.07087*%
%ADD18C,0.11850*%
%ADD19C,0.06000*%
%ADD20C,0.17000*%
%ADD21C,0.00500*%
%ADD22C,0.02978*%
%ADD23C,0.20000*%
%ADD24C,0.01500*%
%ADD25C,0.01200*%
%ADD26C,0.07000*%
%ADD27C,0.03000*%
%ADD28C,0.04000*%
%ADD29C,0.05000*%
%ADD30C,0.02000*%
%ADD31C,0.00600*%
%ADD32C,0.01300*%
%ADD33C,0.01100*%
%ADD34C,0.01000*%
%ADD35C,0.00200*%
D10*
X0057000Y0268250D03*
X0067000Y0268250D03*
X0077000Y0268250D03*
X0087000Y0268250D03*
X0097000Y0268250D03*
X0107000Y0268250D03*
X0117000Y0268250D03*
X0127000Y0268250D03*
X0137000Y0268250D03*
X0147000Y0268250D03*
X0157000Y0268250D03*
X0167000Y0268250D03*
X0177000Y0268250D03*
X0187000Y0268250D03*
X0197000Y0268250D03*
X0207000Y0268250D03*
X0217000Y0268250D03*
X0227000Y0268250D03*
X0237000Y0268250D03*
X0247000Y0268250D03*
X0247000Y0328250D03*
X0237000Y0328250D03*
X0227000Y0328250D03*
X0217000Y0328250D03*
X0207000Y0328250D03*
X0197000Y0328250D03*
X0187000Y0328250D03*
X0177000Y0328250D03*
X0167000Y0328250D03*
X0157000Y0328250D03*
X0147000Y0328250D03*
X0137000Y0328250D03*
X0127000Y0328250D03*
X0117000Y0328250D03*
X0107000Y0328250D03*
X0097000Y0328250D03*
X0087000Y0328250D03*
X0077000Y0328250D03*
X0067000Y0328250D03*
X0057000Y0328250D03*
X0097000Y0313250D03*
X0097000Y0303250D03*
X0107000Y0303250D03*
X0107000Y0313250D03*
X0117000Y0313250D03*
X0117000Y0303250D03*
D11*
X0156862Y0229413D03*
X0158831Y0229413D03*
X0160799Y0229413D03*
X0162768Y0229413D03*
X0164736Y0229413D03*
X0166705Y0229413D03*
X0168673Y0229413D03*
X0170642Y0229413D03*
X0172610Y0229413D03*
X0174579Y0229413D03*
X0176547Y0229413D03*
X0178516Y0229413D03*
X0180484Y0229413D03*
X0182453Y0229413D03*
X0184421Y0229413D03*
X0186390Y0229413D03*
X0188358Y0229413D03*
X0190327Y0229413D03*
X0192295Y0229413D03*
X0194264Y0229413D03*
X0196232Y0229413D03*
X0198201Y0229413D03*
X0200169Y0229413D03*
X0202138Y0229413D03*
X0202138Y0199587D03*
X0200169Y0199587D03*
X0198201Y0199587D03*
X0196232Y0199587D03*
X0194264Y0199587D03*
X0192295Y0199587D03*
X0190327Y0199587D03*
X0188358Y0199587D03*
X0186390Y0199587D03*
X0184421Y0199587D03*
X0182453Y0199587D03*
X0180484Y0199587D03*
X0178516Y0199587D03*
X0176547Y0199587D03*
X0174579Y0199587D03*
X0172610Y0199587D03*
X0170642Y0199587D03*
X0168673Y0199587D03*
X0166705Y0199587D03*
X0164736Y0199587D03*
X0162768Y0199587D03*
X0160799Y0199587D03*
X0158831Y0199587D03*
X0156862Y0199587D03*
D12*
X0179500Y0214500D03*
D13*
X0201779Y0243250D03*
X0208471Y0243250D03*
X0190659Y0250125D03*
X0183966Y0250125D03*
X0166596Y0248562D03*
X0159904Y0248562D03*
X0211154Y0194500D03*
X0211154Y0188250D03*
X0217846Y0188250D03*
X0217846Y0194500D03*
D14*
X0227000Y0236154D03*
X0227000Y0242846D03*
X0235750Y0242846D03*
X0235750Y0236154D03*
X0143250Y0237846D03*
X0137000Y0237846D03*
X0137000Y0231154D03*
X0143250Y0231154D03*
X0137000Y0076596D03*
X0137000Y0069904D03*
X0125750Y0054096D03*
X0125750Y0047404D03*
X0170750Y0047404D03*
X0170750Y0054096D03*
X0178250Y0069904D03*
X0178250Y0076596D03*
X0215750Y0054096D03*
X0215750Y0047404D03*
D15*
X0094500Y0099657D03*
X0059500Y0099657D03*
D16*
X0059500Y0119343D03*
X0094500Y0119343D03*
D17*
X0154500Y0090524D03*
X0154500Y0068476D03*
X0199500Y0068476D03*
X0199500Y0090524D03*
D18*
X0065425Y0074500D02*
X0053575Y0074500D01*
X0053575Y0144500D02*
X0065425Y0144500D01*
D19*
X0211154Y0156596D02*
X0223250Y0144500D01*
X0211154Y0156596D02*
X0211154Y0188250D01*
X0249000Y0183250D02*
X0255000Y0183250D01*
X0255000Y0173250D02*
X0249000Y0173250D01*
X0249000Y0163250D02*
X0255000Y0163250D01*
X0255000Y0153250D02*
X0249000Y0153250D01*
X0249000Y0138250D02*
X0255000Y0138250D01*
X0255000Y0128250D02*
X0249000Y0128250D01*
X0249000Y0118250D02*
X0255000Y0118250D01*
X0255000Y0108250D02*
X0249000Y0108250D01*
X0249000Y0193250D02*
X0255000Y0193250D01*
X0255000Y0203250D02*
X0249000Y0203250D01*
D20*
X0094500Y0119343D02*
X0059500Y0119343D01*
X0059500Y0144500D01*
X0059500Y0099657D02*
X0094500Y0099657D01*
X0059500Y0099657D02*
X0059500Y0074500D01*
D21*
X0140750Y0074500D02*
X0140750Y0049500D01*
X0164500Y0049500D01*
X0164500Y0074500D01*
X0140750Y0074500D01*
X0140750Y0074351D02*
X0164500Y0074351D01*
X0164500Y0073853D02*
X0140750Y0073853D01*
X0140750Y0073354D02*
X0164500Y0073354D01*
X0164500Y0072856D02*
X0140750Y0072856D01*
X0140750Y0072357D02*
X0164500Y0072357D01*
X0164500Y0071859D02*
X0140750Y0071859D01*
X0140750Y0071360D02*
X0164500Y0071360D01*
X0164500Y0070862D02*
X0140750Y0070862D01*
X0140750Y0070363D02*
X0164500Y0070363D01*
X0164500Y0069865D02*
X0140750Y0069865D01*
X0140750Y0069366D02*
X0164500Y0069366D01*
X0164500Y0068868D02*
X0140750Y0068868D01*
X0140750Y0068369D02*
X0164500Y0068369D01*
X0164500Y0067870D02*
X0140750Y0067870D01*
X0140750Y0067372D02*
X0164500Y0067372D01*
X0164500Y0066873D02*
X0140750Y0066873D01*
X0140750Y0066375D02*
X0164500Y0066375D01*
X0164500Y0065876D02*
X0140750Y0065876D01*
X0140750Y0065378D02*
X0164500Y0065378D01*
X0164500Y0064879D02*
X0140750Y0064879D01*
X0140750Y0064381D02*
X0164500Y0064381D01*
X0164500Y0063882D02*
X0140750Y0063882D01*
X0140750Y0063384D02*
X0164500Y0063384D01*
X0164500Y0062885D02*
X0140750Y0062885D01*
X0140750Y0062387D02*
X0164500Y0062387D01*
X0164500Y0061888D02*
X0140750Y0061888D01*
X0140750Y0061390D02*
X0164500Y0061390D01*
X0164500Y0060891D02*
X0140750Y0060891D01*
X0140750Y0060393D02*
X0164500Y0060393D01*
X0164500Y0059894D02*
X0140750Y0059894D01*
X0140750Y0059396D02*
X0164500Y0059396D01*
X0164500Y0058897D02*
X0140750Y0058897D01*
X0140750Y0058399D02*
X0164500Y0058399D01*
X0164500Y0057900D02*
X0140750Y0057900D01*
X0140750Y0057402D02*
X0164500Y0057402D01*
X0164500Y0056903D02*
X0140750Y0056903D01*
X0140750Y0056405D02*
X0164500Y0056405D01*
X0164500Y0055906D02*
X0140750Y0055906D01*
X0140750Y0055408D02*
X0164500Y0055408D01*
X0164500Y0054909D02*
X0140750Y0054909D01*
X0140750Y0054411D02*
X0164500Y0054411D01*
X0164500Y0053912D02*
X0140750Y0053912D01*
X0140750Y0053414D02*
X0164500Y0053414D01*
X0164500Y0052915D02*
X0140750Y0052915D01*
X0140750Y0052417D02*
X0164500Y0052417D01*
X0164500Y0051918D02*
X0140750Y0051918D01*
X0140750Y0051420D02*
X0164500Y0051420D01*
X0164500Y0050921D02*
X0140750Y0050921D01*
X0140750Y0050423D02*
X0164500Y0050423D01*
X0164500Y0049924D02*
X0140750Y0049924D01*
X0185750Y0049924D02*
X0209500Y0049924D01*
X0209500Y0049500D02*
X0185750Y0049500D01*
X0185750Y0074500D01*
X0209500Y0074500D01*
X0209500Y0049500D01*
X0209500Y0050423D02*
X0185750Y0050423D01*
X0185750Y0050921D02*
X0209500Y0050921D01*
X0209500Y0051420D02*
X0185750Y0051420D01*
X0185750Y0051918D02*
X0209500Y0051918D01*
X0209500Y0052417D02*
X0185750Y0052417D01*
X0185750Y0052915D02*
X0209500Y0052915D01*
X0209500Y0053414D02*
X0185750Y0053414D01*
X0185750Y0053912D02*
X0209500Y0053912D01*
X0209500Y0054411D02*
X0185750Y0054411D01*
X0185750Y0054909D02*
X0209500Y0054909D01*
X0209500Y0055408D02*
X0185750Y0055408D01*
X0185750Y0055906D02*
X0209500Y0055906D01*
X0209500Y0056405D02*
X0185750Y0056405D01*
X0185750Y0056903D02*
X0209500Y0056903D01*
X0209500Y0057402D02*
X0185750Y0057402D01*
X0185750Y0057900D02*
X0209500Y0057900D01*
X0209500Y0058399D02*
X0185750Y0058399D01*
X0185750Y0058897D02*
X0209500Y0058897D01*
X0209500Y0059396D02*
X0185750Y0059396D01*
X0185750Y0059894D02*
X0209500Y0059894D01*
X0209500Y0060393D02*
X0185750Y0060393D01*
X0185750Y0060891D02*
X0209500Y0060891D01*
X0209500Y0061390D02*
X0185750Y0061390D01*
X0185750Y0061888D02*
X0209500Y0061888D01*
X0209500Y0062387D02*
X0185750Y0062387D01*
X0185750Y0062885D02*
X0209500Y0062885D01*
X0209500Y0063384D02*
X0185750Y0063384D01*
X0185750Y0063882D02*
X0209500Y0063882D01*
X0209500Y0064381D02*
X0185750Y0064381D01*
X0185750Y0064879D02*
X0209500Y0064879D01*
X0209500Y0065378D02*
X0185750Y0065378D01*
X0185750Y0065876D02*
X0209500Y0065876D01*
X0209500Y0066375D02*
X0185750Y0066375D01*
X0185750Y0066873D02*
X0209500Y0066873D01*
X0209500Y0067372D02*
X0185750Y0067372D01*
X0185750Y0067870D02*
X0209500Y0067870D01*
X0209500Y0068369D02*
X0185750Y0068369D01*
X0185750Y0068868D02*
X0209500Y0068868D01*
X0209500Y0069366D02*
X0185750Y0069366D01*
X0185750Y0069865D02*
X0209500Y0069865D01*
X0209500Y0070363D02*
X0185750Y0070363D01*
X0185750Y0070862D02*
X0209500Y0070862D01*
X0209500Y0071360D02*
X0185750Y0071360D01*
X0185750Y0071859D02*
X0209500Y0071859D01*
X0209500Y0072357D02*
X0185750Y0072357D01*
X0185750Y0072856D02*
X0209500Y0072856D01*
X0209500Y0073354D02*
X0185750Y0073354D01*
X0185750Y0073853D02*
X0209500Y0073853D01*
X0209500Y0074351D02*
X0185750Y0074351D01*
X0230750Y0074351D02*
X0254500Y0074351D01*
X0254500Y0074500D02*
X0254500Y0049500D01*
X0230750Y0049500D01*
X0230750Y0074500D01*
X0254500Y0074500D01*
X0254500Y0073853D02*
X0230750Y0073853D01*
X0230750Y0073354D02*
X0254500Y0073354D01*
X0254500Y0072856D02*
X0230750Y0072856D01*
X0230750Y0072357D02*
X0254500Y0072357D01*
X0254500Y0071859D02*
X0230750Y0071859D01*
X0230750Y0071360D02*
X0254500Y0071360D01*
X0254500Y0070862D02*
X0230750Y0070862D01*
X0230750Y0070363D02*
X0254500Y0070363D01*
X0254500Y0069865D02*
X0230750Y0069865D01*
X0230750Y0069366D02*
X0254500Y0069366D01*
X0254500Y0068868D02*
X0230750Y0068868D01*
X0230750Y0068369D02*
X0254500Y0068369D01*
X0254500Y0067870D02*
X0230750Y0067870D01*
X0230750Y0067372D02*
X0254500Y0067372D01*
X0254500Y0066873D02*
X0230750Y0066873D01*
X0230750Y0066375D02*
X0254500Y0066375D01*
X0254500Y0065876D02*
X0230750Y0065876D01*
X0230750Y0065378D02*
X0254500Y0065378D01*
X0254500Y0064879D02*
X0230750Y0064879D01*
X0230750Y0064381D02*
X0254500Y0064381D01*
X0254500Y0063882D02*
X0230750Y0063882D01*
X0230750Y0063384D02*
X0254500Y0063384D01*
X0254500Y0062885D02*
X0230750Y0062885D01*
X0230750Y0062387D02*
X0254500Y0062387D01*
X0254500Y0061888D02*
X0230750Y0061888D01*
X0230750Y0061390D02*
X0254500Y0061390D01*
X0254500Y0060891D02*
X0230750Y0060891D01*
X0230750Y0060393D02*
X0254500Y0060393D01*
X0254500Y0059894D02*
X0230750Y0059894D01*
X0230750Y0059396D02*
X0254500Y0059396D01*
X0254500Y0058897D02*
X0230750Y0058897D01*
X0230750Y0058399D02*
X0254500Y0058399D01*
X0254500Y0057900D02*
X0230750Y0057900D01*
X0230750Y0057402D02*
X0254500Y0057402D01*
X0254500Y0056903D02*
X0230750Y0056903D01*
X0230750Y0056405D02*
X0254500Y0056405D01*
X0254500Y0055906D02*
X0230750Y0055906D01*
X0230750Y0055408D02*
X0254500Y0055408D01*
X0254500Y0054909D02*
X0230750Y0054909D01*
X0230750Y0054411D02*
X0254500Y0054411D01*
X0254500Y0053912D02*
X0230750Y0053912D01*
X0230750Y0053414D02*
X0254500Y0053414D01*
X0254500Y0052915D02*
X0230750Y0052915D01*
X0230750Y0052417D02*
X0254500Y0052417D01*
X0254500Y0051918D02*
X0230750Y0051918D01*
X0230750Y0051420D02*
X0254500Y0051420D01*
X0254500Y0050921D02*
X0230750Y0050921D01*
X0230750Y0050423D02*
X0254500Y0050423D01*
X0254500Y0049924D02*
X0230750Y0049924D01*
X0160824Y0196050D02*
X0159624Y0196050D01*
X0159441Y0195867D01*
X0158669Y0196639D01*
X0156731Y0196639D01*
X0155842Y0195750D01*
X0154500Y0195750D01*
X0154500Y0203250D01*
X0161735Y0203250D01*
X0161327Y0202842D01*
X0161327Y0196553D01*
X0160824Y0196050D01*
X0161260Y0196486D02*
X0158821Y0196486D01*
X0159320Y0195988D02*
X0159562Y0195988D01*
X0161327Y0196985D02*
X0154500Y0196985D01*
X0154500Y0197483D02*
X0161327Y0197483D01*
X0161327Y0197982D02*
X0154500Y0197982D01*
X0154500Y0198480D02*
X0161327Y0198480D01*
X0161327Y0198979D02*
X0154500Y0198979D01*
X0154500Y0199477D02*
X0161327Y0199477D01*
X0161327Y0199976D02*
X0154500Y0199976D01*
X0154500Y0200474D02*
X0161327Y0200474D01*
X0161327Y0200973D02*
X0154500Y0200973D01*
X0154500Y0201472D02*
X0161327Y0201472D01*
X0161327Y0201970D02*
X0154500Y0201970D01*
X0154500Y0202469D02*
X0161327Y0202469D01*
X0161452Y0202967D02*
X0154500Y0202967D01*
X0154500Y0203250D02*
X0161735Y0203250D01*
X0161825Y0203340D01*
X0163710Y0203340D01*
X0163752Y0203299D01*
X0163794Y0203340D01*
X0165679Y0203340D01*
X0165720Y0203299D01*
X0165762Y0203340D01*
X0167647Y0203340D01*
X0167689Y0203299D01*
X0167731Y0203340D01*
X0169616Y0203340D01*
X0169657Y0203299D01*
X0169699Y0203340D01*
X0171110Y0203340D01*
X0171110Y0204482D01*
X0171750Y0205121D01*
X0172629Y0206000D01*
X0193265Y0206000D01*
X0195636Y0203629D01*
X0195636Y0203559D01*
X0195714Y0203481D01*
X0195714Y0203250D01*
X0197168Y0203250D01*
X0197258Y0203340D01*
X0199143Y0203340D01*
X0199234Y0203250D01*
X0201105Y0203250D01*
X0201195Y0203340D01*
X0203080Y0203340D01*
X0203171Y0203250D01*
X0204500Y0203250D01*
X0204500Y0225750D01*
X0201202Y0225750D01*
X0201610Y0226158D01*
X0201610Y0228591D01*
X0201797Y0228779D01*
X0201797Y0232213D01*
X0201901Y0232317D01*
X0202151Y0232567D01*
X0202151Y0233043D01*
X0202358Y0233250D01*
X0204500Y0233250D01*
X0204500Y0225750D01*
X0201202Y0225750D01*
X0201112Y0225660D01*
X0199227Y0225660D01*
X0199185Y0225701D01*
X0199143Y0225660D01*
X0197258Y0225660D01*
X0197217Y0225701D01*
X0197175Y0225660D01*
X0195290Y0225660D01*
X0195248Y0225701D01*
X0195206Y0225660D01*
X0195048Y0225660D01*
X0195439Y0225269D01*
X0195439Y0223331D01*
X0194069Y0221961D01*
X0192131Y0221961D01*
X0190761Y0223331D01*
X0190761Y0225013D01*
X0190750Y0225024D01*
X0190750Y0225660D01*
X0190248Y0225660D01*
X0190639Y0225269D01*
X0190639Y0223331D01*
X0189269Y0221961D01*
X0187331Y0221961D01*
X0186500Y0222792D01*
X0185669Y0221961D01*
X0183731Y0221961D01*
X0182361Y0223331D01*
X0182361Y0225269D01*
X0182752Y0225660D01*
X0181510Y0225660D01*
X0181468Y0225701D01*
X0181427Y0225660D01*
X0179542Y0225660D01*
X0179500Y0225701D01*
X0179458Y0225660D01*
X0179286Y0225660D01*
X0178639Y0225013D01*
X0178639Y0223331D01*
X0177269Y0221961D01*
X0175331Y0221961D01*
X0174500Y0222792D01*
X0173669Y0221961D01*
X0171731Y0221961D01*
X0170361Y0223331D01*
X0170361Y0223335D01*
X0166639Y0219613D01*
X0166639Y0217931D01*
X0165269Y0216561D01*
X0163331Y0216561D01*
X0161961Y0217931D01*
X0161961Y0219869D01*
X0163331Y0221239D01*
X0165013Y0221239D01*
X0168674Y0224900D01*
X0167914Y0225660D01*
X0167731Y0225660D01*
X0167689Y0225701D01*
X0167647Y0225660D01*
X0165762Y0225660D01*
X0165720Y0225701D01*
X0165679Y0225660D01*
X0165486Y0225660D01*
X0164839Y0225013D01*
X0164839Y0223331D01*
X0163469Y0221961D01*
X0161531Y0221961D01*
X0160161Y0223331D01*
X0160161Y0225269D01*
X0160552Y0225660D01*
X0159857Y0225660D01*
X0159815Y0225701D01*
X0159773Y0225660D01*
X0157888Y0225660D01*
X0157846Y0225701D01*
X0157805Y0225660D01*
X0155920Y0225660D01*
X0155829Y0225750D01*
X0154500Y0225750D01*
X0154500Y0213408D01*
X0155239Y0212669D01*
X0155239Y0210731D01*
X0154500Y0209992D01*
X0154500Y0203250D01*
X0154500Y0203466D02*
X0171110Y0203466D01*
X0171110Y0203964D02*
X0154500Y0203964D01*
X0154500Y0204463D02*
X0171110Y0204463D01*
X0171590Y0204961D02*
X0154500Y0204961D01*
X0154500Y0205460D02*
X0172088Y0205460D01*
X0172587Y0205958D02*
X0154500Y0205958D01*
X0154500Y0206457D02*
X0204500Y0206457D01*
X0204500Y0206955D02*
X0154500Y0206955D01*
X0154500Y0207454D02*
X0204500Y0207454D01*
X0204500Y0207952D02*
X0154500Y0207952D01*
X0154500Y0208451D02*
X0204500Y0208451D01*
X0204500Y0208949D02*
X0154500Y0208949D01*
X0154500Y0209448D02*
X0204500Y0209448D01*
X0204500Y0209946D02*
X0154500Y0209946D01*
X0154953Y0210445D02*
X0204500Y0210445D01*
X0204500Y0210943D02*
X0155239Y0210943D01*
X0155239Y0211442D02*
X0204500Y0211442D01*
X0204500Y0211940D02*
X0155239Y0211940D01*
X0155239Y0212439D02*
X0204500Y0212439D01*
X0204500Y0212937D02*
X0154971Y0212937D01*
X0154500Y0213436D02*
X0204500Y0213436D01*
X0204500Y0213934D02*
X0154500Y0213934D01*
X0154500Y0214433D02*
X0204500Y0214433D01*
X0204500Y0214931D02*
X0154500Y0214931D01*
X0154500Y0215430D02*
X0204500Y0215430D01*
X0204500Y0215928D02*
X0154500Y0215928D01*
X0154500Y0216427D02*
X0204500Y0216427D01*
X0204500Y0216925D02*
X0165633Y0216925D01*
X0166132Y0217424D02*
X0204500Y0217424D01*
X0204500Y0217922D02*
X0166630Y0217922D01*
X0166639Y0218421D02*
X0204500Y0218421D01*
X0204500Y0218919D02*
X0166639Y0218919D01*
X0166639Y0219418D02*
X0204500Y0219418D01*
X0204500Y0219916D02*
X0166943Y0219916D01*
X0167441Y0220415D02*
X0204500Y0220415D01*
X0204500Y0220913D02*
X0167940Y0220913D01*
X0168438Y0221412D02*
X0204500Y0221412D01*
X0204500Y0221910D02*
X0168937Y0221910D01*
X0169435Y0222409D02*
X0171283Y0222409D01*
X0170785Y0222908D02*
X0169934Y0222908D01*
X0168177Y0224403D02*
X0164839Y0224403D01*
X0164839Y0223905D02*
X0167678Y0223905D01*
X0167180Y0223406D02*
X0164839Y0223406D01*
X0164415Y0222908D02*
X0166681Y0222908D01*
X0166183Y0222409D02*
X0163917Y0222409D01*
X0165186Y0221412D02*
X0154500Y0221412D01*
X0154500Y0221910D02*
X0165684Y0221910D01*
X0163006Y0220913D02*
X0154500Y0220913D01*
X0154500Y0220415D02*
X0162507Y0220415D01*
X0162009Y0219916D02*
X0154500Y0219916D01*
X0154500Y0219418D02*
X0161961Y0219418D01*
X0161961Y0218919D02*
X0154500Y0218919D01*
X0154500Y0218421D02*
X0161961Y0218421D01*
X0161970Y0217922D02*
X0154500Y0217922D01*
X0154500Y0217424D02*
X0162468Y0217424D01*
X0162967Y0216925D02*
X0154500Y0216925D01*
X0154500Y0222409D02*
X0161083Y0222409D01*
X0160585Y0222908D02*
X0154500Y0222908D01*
X0154500Y0223406D02*
X0160161Y0223406D01*
X0160161Y0223905D02*
X0154500Y0223905D01*
X0154500Y0224403D02*
X0160161Y0224403D01*
X0160161Y0224902D02*
X0154500Y0224902D01*
X0154500Y0225400D02*
X0160292Y0225400D01*
X0164839Y0224902D02*
X0168672Y0224902D01*
X0168174Y0225400D02*
X0165226Y0225400D01*
X0174117Y0222409D02*
X0174883Y0222409D01*
X0177717Y0222409D02*
X0183283Y0222409D01*
X0182785Y0222908D02*
X0178215Y0222908D01*
X0178639Y0223406D02*
X0182361Y0223406D01*
X0182361Y0223905D02*
X0178639Y0223905D01*
X0178639Y0224403D02*
X0182361Y0224403D01*
X0182361Y0224902D02*
X0178639Y0224902D01*
X0179026Y0225400D02*
X0182492Y0225400D01*
X0186117Y0222409D02*
X0186883Y0222409D01*
X0189717Y0222409D02*
X0191683Y0222409D01*
X0191185Y0222908D02*
X0190215Y0222908D01*
X0190639Y0223406D02*
X0190761Y0223406D01*
X0190761Y0223905D02*
X0190639Y0223905D01*
X0190639Y0224403D02*
X0190761Y0224403D01*
X0190761Y0224902D02*
X0190639Y0224902D01*
X0190750Y0225400D02*
X0190508Y0225400D01*
X0195308Y0225400D02*
X0204500Y0225400D01*
X0204500Y0224902D02*
X0195439Y0224902D01*
X0195439Y0224403D02*
X0204500Y0224403D01*
X0204500Y0223905D02*
X0195439Y0223905D01*
X0195439Y0223406D02*
X0204500Y0223406D01*
X0204500Y0222908D02*
X0195015Y0222908D01*
X0194517Y0222409D02*
X0204500Y0222409D01*
X0204500Y0225899D02*
X0201351Y0225899D01*
X0201610Y0226397D02*
X0204500Y0226397D01*
X0204500Y0226896D02*
X0201610Y0226896D01*
X0201610Y0227394D02*
X0204500Y0227394D01*
X0204500Y0227893D02*
X0201610Y0227893D01*
X0201610Y0228391D02*
X0204500Y0228391D01*
X0204500Y0228890D02*
X0201797Y0228890D01*
X0201797Y0229388D02*
X0204500Y0229388D01*
X0204500Y0229887D02*
X0201797Y0229887D01*
X0201797Y0230385D02*
X0204500Y0230385D01*
X0204500Y0230884D02*
X0201797Y0230884D01*
X0201797Y0231382D02*
X0204500Y0231382D01*
X0204500Y0231881D02*
X0201797Y0231881D01*
X0201901Y0232317D02*
X0201901Y0232317D01*
X0201963Y0232379D02*
X0204500Y0232379D01*
X0204500Y0232878D02*
X0202151Y0232878D01*
X0204500Y0205958D02*
X0193307Y0205958D01*
X0193805Y0205460D02*
X0204500Y0205460D01*
X0204500Y0204961D02*
X0194304Y0204961D01*
X0194802Y0204463D02*
X0204500Y0204463D01*
X0204500Y0203964D02*
X0195301Y0203964D01*
X0195714Y0203466D02*
X0204500Y0203466D01*
X0156579Y0196486D02*
X0154500Y0196486D01*
X0154500Y0195988D02*
X0156080Y0195988D01*
D22*
X0157700Y0194300D03*
X0160750Y0191922D03*
X0159500Y0185744D03*
X0173250Y0184500D03*
X0177645Y0173250D03*
X0185750Y0171935D03*
X0185423Y0183250D03*
X0191661Y0186080D03*
X0180750Y0212000D03*
X0184500Y0215750D03*
X0178250Y0218250D03*
X0175750Y0214500D03*
X0176300Y0224300D03*
X0172700Y0224300D03*
X0164300Y0218900D03*
X0162500Y0224300D03*
X0154100Y0229100D03*
X0157100Y0234500D03*
X0160700Y0234500D03*
X0158900Y0241100D03*
X0154100Y0236900D03*
X0136700Y0222500D03*
X0149300Y0211700D03*
X0152900Y0211700D03*
X0176900Y0239300D03*
X0184700Y0234500D03*
X0191300Y0241100D03*
X0194923Y0239812D03*
X0196313Y0243250D03*
X0200900Y0235100D03*
X0193100Y0224300D03*
X0188300Y0224300D03*
X0184700Y0224300D03*
X0213685Y0239500D03*
X0213685Y0243250D03*
X0184100Y0262100D03*
X0174500Y0256700D03*
X0137900Y0279500D03*
X0123500Y0240500D03*
X0101300Y0233900D03*
X0155014Y0171935D03*
X0157000Y0132000D03*
X0150750Y0127000D03*
X0163250Y0127000D03*
X0179719Y0129500D03*
X0182618Y0126368D03*
X0184547Y0129500D03*
X0204240Y0129754D03*
X0207818Y0129812D03*
X0208250Y0126062D03*
X0217000Y0144500D03*
X0217000Y0148250D03*
X0220750Y0148250D03*
X0220750Y0144500D03*
X0224500Y0144500D03*
X0224500Y0148250D03*
X0252000Y0158339D03*
X0245900Y0178700D03*
X0221300Y0184100D03*
X0243500Y0215300D03*
X0255500Y0212900D03*
X0214700Y0277100D03*
X0211100Y0277100D03*
X0207500Y0297500D03*
X0197300Y0304100D03*
X0191300Y0320900D03*
X0237000Y0282000D03*
X0132000Y0129500D03*
X0118250Y0127000D03*
X0148250Y0078250D03*
X0149500Y0069500D03*
X0149500Y0064500D03*
X0154500Y0064500D03*
X0154500Y0069500D03*
X0159500Y0069500D03*
X0159500Y0064500D03*
X0159500Y0059500D03*
X0159500Y0054500D03*
X0154500Y0054500D03*
X0154500Y0059500D03*
X0149500Y0059500D03*
X0149500Y0054500D03*
X0170750Y0040750D03*
X0194500Y0054500D03*
X0194500Y0059500D03*
X0199500Y0059500D03*
X0199500Y0054500D03*
X0204500Y0054500D03*
X0204500Y0059500D03*
X0204500Y0064500D03*
X0204500Y0069500D03*
X0199500Y0069500D03*
X0199500Y0064500D03*
X0194500Y0064500D03*
X0194500Y0069500D03*
X0193250Y0078250D03*
X0205499Y0078250D03*
X0209077Y0077827D03*
X0221375Y0100750D03*
X0214812Y0103562D03*
X0205750Y0103250D03*
X0239500Y0069500D03*
X0239500Y0064500D03*
X0239500Y0059500D03*
X0239500Y0054500D03*
X0244500Y0054500D03*
X0244500Y0059500D03*
X0244500Y0064500D03*
X0244500Y0069500D03*
X0249500Y0069500D03*
X0249500Y0064500D03*
X0249500Y0059500D03*
X0249500Y0054500D03*
X0215750Y0040750D03*
X0166781Y0078250D03*
X0162000Y0078250D03*
X0163942Y0102937D03*
X0124500Y0070049D03*
X0125750Y0042000D03*
D23*
X0104500Y0074500D02*
X0120524Y0090524D01*
X0154500Y0090524D01*
X0199500Y0090524D01*
X0213476Y0090524D01*
X0244500Y0059500D01*
X0104500Y0074500D02*
X0059500Y0074500D01*
D24*
X0124500Y0070049D02*
X0125750Y0068799D01*
X0125750Y0054096D01*
X0154500Y0079500D02*
X0155750Y0078250D01*
X0162000Y0078250D01*
X0166781Y0078250D02*
X0170750Y0074281D01*
X0170750Y0054096D01*
X0154500Y0079500D02*
X0154500Y0084500D01*
X0154500Y0090524D01*
X0163942Y0102937D02*
X0184228Y0123224D01*
X0209426Y0123224D01*
X0211089Y0124887D01*
X0211089Y0131294D01*
X0199473Y0142910D01*
X0199473Y0189161D01*
X0196232Y0192402D01*
X0196232Y0199587D01*
X0202138Y0199587D02*
X0202138Y0196862D01*
X0202625Y0196375D01*
X0204500Y0194500D01*
X0210750Y0194500D01*
X0211154Y0194500D01*
X0206804Y0187509D02*
X0206804Y0150682D01*
X0219650Y0137835D01*
X0219650Y0111702D01*
X0214812Y0106864D01*
X0214812Y0103562D01*
X0199500Y0090524D02*
X0199500Y0089500D01*
X0199500Y0079500D01*
X0200750Y0078250D01*
X0205499Y0078250D01*
X0209077Y0077827D02*
X0215750Y0071154D01*
X0215750Y0054096D01*
X0199500Y0068476D02*
X0199500Y0069500D01*
X0199500Y0075750D01*
X0197000Y0078250D01*
X0193250Y0078250D01*
X0184547Y0129500D02*
X0184547Y0136187D01*
X0182584Y0138150D01*
X0182584Y0192000D01*
X0176529Y0188513D02*
X0176529Y0199568D01*
X0176547Y0199587D01*
X0180484Y0199587D02*
X0180484Y0130265D01*
X0179719Y0129500D01*
X0189500Y0139500D02*
X0189500Y0184226D01*
X0187488Y0186238D01*
X0190327Y0192423D02*
X0194500Y0188250D01*
X0194500Y0140118D01*
X0203615Y0131004D01*
X0203615Y0130379D01*
X0204240Y0129754D01*
X0244724Y0175861D02*
X0232335Y0188250D01*
X0217846Y0188250D01*
X0206804Y0187509D02*
X0200279Y0194034D01*
X0200279Y0194500D01*
X0190327Y0196128D02*
X0190327Y0192423D01*
X0176529Y0188513D02*
X0176316Y0188300D01*
X0176316Y0183197D01*
X0166705Y0193298D02*
X0166705Y0199587D01*
X0163439Y0184376D02*
X0132000Y0152937D01*
X0132000Y0129500D01*
X0172610Y0229413D02*
X0172610Y0233202D01*
X0200197Y0232876D02*
X0200197Y0229441D01*
X0200169Y0229413D01*
X0200197Y0232876D02*
X0200301Y0232980D01*
X0200301Y0233333D01*
X0237000Y0278250D02*
X0237000Y0282000D01*
X0237000Y0278250D02*
X0247000Y0268250D01*
X0244724Y0175861D02*
X0249389Y0175861D01*
X0252000Y0173250D01*
D25*
X0217700Y0132808D02*
X0201450Y0149058D01*
X0201450Y0189942D01*
X0198379Y0193013D01*
X0200279Y0194500D02*
X0200279Y0195610D01*
X0200160Y0195729D01*
X0200160Y0197773D01*
X0200169Y0197783D01*
X0200169Y0199587D01*
X0200169Y0205081D01*
X0199500Y0205750D01*
X0194264Y0202880D02*
X0194264Y0199587D01*
X0192464Y0199418D02*
X0192464Y0193383D01*
X0197000Y0188847D01*
X0197000Y0140796D01*
X0206929Y0130867D01*
X0206929Y0130701D01*
X0207818Y0129812D01*
X0217700Y0132808D02*
X0217700Y0112510D01*
X0212316Y0107126D01*
X0209626Y0107126D01*
X0205750Y0103250D01*
X0221375Y0100750D02*
X0221687Y0100750D01*
X0244500Y0077938D01*
X0244500Y0069500D01*
X0185661Y0126811D02*
X0183061Y0126811D01*
X0182618Y0126368D01*
X0185661Y0126811D02*
X0187236Y0128386D01*
X0187236Y0136256D01*
X0185750Y0137742D01*
X0185750Y0171935D01*
X0178516Y0174120D02*
X0177645Y0173250D01*
X0178516Y0174120D02*
X0178516Y0199587D01*
X0182453Y0199587D02*
X0182453Y0192131D01*
X0182584Y0192000D01*
X0184421Y0192921D02*
X0184421Y0199587D01*
X0186390Y0199587D02*
X0186390Y0187336D01*
X0187488Y0186238D01*
X0188358Y0189383D02*
X0191661Y0186080D01*
X0188358Y0189383D02*
X0188358Y0199587D01*
X0190327Y0199587D02*
X0190327Y0196128D01*
X0192464Y0199418D02*
X0192295Y0199587D01*
X0194264Y0202880D02*
X0194136Y0203008D01*
X0184421Y0192921D02*
X0184534Y0192808D01*
X0184534Y0184139D01*
X0185423Y0183250D01*
X0173250Y0184500D02*
X0173250Y0187992D01*
X0174460Y0189203D01*
X0174460Y0199468D01*
X0174579Y0199587D01*
X0172610Y0199587D02*
X0172610Y0195750D01*
X0172610Y0195750D01*
X0172610Y0190110D01*
X0170750Y0188250D01*
X0170705Y0191641D02*
X0163439Y0184376D01*
X0163151Y0186633D02*
X0160389Y0186633D01*
X0159500Y0185744D01*
X0163151Y0186633D02*
X0168905Y0192387D01*
X0168905Y0194210D01*
X0168673Y0194441D01*
X0168673Y0199587D01*
X0170642Y0199587D02*
X0170642Y0195018D01*
X0170705Y0194955D01*
X0170705Y0191641D01*
X0164736Y0194441D02*
X0164736Y0199587D01*
X0164736Y0194441D02*
X0162217Y0191922D01*
X0160750Y0191922D01*
X0155014Y0171935D02*
X0155014Y0133817D01*
X0154311Y0133114D01*
X0154311Y0130561D01*
X0150750Y0127000D01*
X0160799Y0229413D02*
X0160799Y0234401D01*
X0160700Y0234500D01*
X0192295Y0233202D02*
X0192295Y0229413D01*
X0196232Y0229413D02*
X0196232Y0238503D01*
X0194923Y0239812D01*
X0198101Y0241462D02*
X0196313Y0243250D01*
X0198101Y0241462D02*
X0198101Y0232422D01*
X0198201Y0232322D01*
X0198201Y0229413D01*
X0213685Y0239500D02*
X0217032Y0236154D01*
X0227000Y0236154D01*
D26*
X0319500Y0004500D02*
X0004500Y0004500D01*
X0004500Y0344500D01*
X0039025Y0344500D01*
X0038380Y0344189D01*
X0033591Y0340370D01*
X0033591Y0340370D01*
X0029771Y0335580D01*
X0027113Y0330061D01*
X0025750Y0324089D01*
X0025750Y0038622D01*
X0027113Y0032650D01*
X0029771Y0027130D01*
X0033591Y0022341D01*
X0038380Y0018521D01*
X0038380Y0018521D01*
X0043900Y0015863D01*
X0049872Y0014500D01*
X0243292Y0014500D01*
X0246271Y0014322D01*
X0246271Y0014322D01*
X0252600Y0015374D01*
X0258537Y0017809D01*
X0263783Y0021503D01*
X0268075Y0026272D01*
X0268075Y0026272D01*
X0271198Y0031877D01*
X0272996Y0038036D01*
X0273112Y0039980D01*
X0273201Y0040193D01*
X0273201Y0041461D01*
X0273276Y0042727D01*
X0273201Y0042946D01*
X0273201Y0319765D01*
X0273276Y0319983D01*
X0273201Y0321249D01*
X0273201Y0322517D01*
X0273112Y0322731D01*
X0272996Y0324675D01*
X0271198Y0330834D01*
X0268075Y0336439D01*
X0263783Y0341207D01*
X0263783Y0341207D01*
X0263783Y0341207D01*
X0259107Y0344500D01*
X0319500Y0344500D01*
X0319500Y0004500D01*
X0319500Y0010503D02*
X0004500Y0010503D01*
X0004500Y0017501D02*
X0040498Y0017501D01*
X0043900Y0015863D02*
X0043900Y0015863D01*
X0033591Y0022341D02*
X0033591Y0022341D01*
X0031869Y0024500D02*
X0004500Y0024500D01*
X0004500Y0031499D02*
X0027667Y0031499D01*
X0025779Y0038497D02*
X0004500Y0038497D01*
X0004500Y0045496D02*
X0025750Y0045496D01*
X0025750Y0052494D02*
X0004500Y0052494D01*
X0004500Y0059493D02*
X0025750Y0059493D01*
X0025750Y0066491D02*
X0004500Y0066491D01*
X0004500Y0073490D02*
X0025750Y0073490D01*
X0025750Y0080488D02*
X0004500Y0080488D01*
X0004500Y0087487D02*
X0025750Y0087487D01*
X0025750Y0094485D02*
X0004500Y0094485D01*
X0004500Y0101484D02*
X0025750Y0101484D01*
X0025750Y0108482D02*
X0004500Y0108482D01*
X0004500Y0115481D02*
X0025750Y0115481D01*
X0025750Y0122479D02*
X0004500Y0122479D01*
X0004500Y0129478D02*
X0025750Y0129478D01*
X0025750Y0136476D02*
X0004500Y0136476D01*
X0004500Y0143475D02*
X0025750Y0143475D01*
X0025750Y0150473D02*
X0004500Y0150473D01*
X0004500Y0157472D02*
X0025750Y0157472D01*
X0025750Y0164470D02*
X0004500Y0164470D01*
X0004500Y0171469D02*
X0025750Y0171469D01*
X0025750Y0178467D02*
X0004500Y0178467D01*
X0004500Y0185466D02*
X0025750Y0185466D01*
X0025750Y0192464D02*
X0004500Y0192464D01*
X0004500Y0199463D02*
X0025750Y0199463D01*
X0025750Y0206461D02*
X0004500Y0206461D01*
X0004500Y0213460D02*
X0025750Y0213460D01*
X0025750Y0220458D02*
X0004500Y0220458D01*
X0004500Y0227457D02*
X0025750Y0227457D01*
X0025750Y0234455D02*
X0004500Y0234455D01*
X0004500Y0241454D02*
X0025750Y0241454D01*
X0025750Y0248452D02*
X0004500Y0248452D01*
X0004500Y0255451D02*
X0025750Y0255451D01*
X0025750Y0262449D02*
X0004500Y0262449D01*
X0004500Y0269448D02*
X0025750Y0269448D01*
X0025750Y0276446D02*
X0004500Y0276446D01*
X0004500Y0283445D02*
X0025750Y0283445D01*
X0025750Y0290443D02*
X0004500Y0290443D01*
X0004500Y0297442D02*
X0025750Y0297442D01*
X0025750Y0304440D02*
X0004500Y0304440D01*
X0004500Y0311439D02*
X0025750Y0311439D01*
X0025750Y0318437D02*
X0004500Y0318437D01*
X0004500Y0325436D02*
X0026058Y0325436D01*
X0028256Y0332434D02*
X0004500Y0332434D01*
X0004500Y0339433D02*
X0032844Y0339433D01*
X0044319Y0329642D02*
X0042618Y0327508D01*
X0041434Y0325050D01*
X0040827Y0322390D01*
X0040750Y0321026D01*
X0040750Y0202602D01*
X0043048Y0203218D01*
X0046577Y0203218D01*
X0049987Y0202304D01*
X0053044Y0200540D01*
X0055540Y0198044D01*
X0057304Y0194987D01*
X0058218Y0191577D01*
X0058218Y0188048D01*
X0057304Y0184638D01*
X0055540Y0181581D01*
X0053044Y0179085D01*
X0049987Y0177321D01*
X0046577Y0176407D01*
X0043048Y0176407D01*
X0040750Y0177023D01*
X0040750Y0047212D01*
X0043076Y0048554D01*
X0046485Y0049468D01*
X0050015Y0049468D01*
X0053424Y0048554D01*
X0056481Y0046790D01*
X0058977Y0044294D01*
X0060742Y0041237D01*
X0061655Y0037827D01*
X0061655Y0034298D01*
X0060742Y0030888D01*
X0059940Y0029500D01*
X0238483Y0029500D01*
X0237321Y0031513D01*
X0236407Y0034923D01*
X0236407Y0038452D01*
X0237321Y0041862D01*
X0239085Y0044919D01*
X0239317Y0045150D01*
X0229885Y0045150D01*
X0228286Y0045812D01*
X0227062Y0047036D01*
X0226400Y0048635D01*
X0226400Y0057660D01*
X0220600Y0063460D01*
X0220600Y0059179D01*
X0221194Y0058584D01*
X0221818Y0057077D01*
X0221818Y0051116D01*
X0221667Y0050750D01*
X0221818Y0050384D01*
X0221818Y0044423D01*
X0221194Y0042916D01*
X0220988Y0042709D01*
X0221339Y0041862D01*
X0221339Y0039638D01*
X0220488Y0037584D01*
X0218916Y0036012D01*
X0216862Y0035161D01*
X0214638Y0035161D01*
X0212584Y0036012D01*
X0211012Y0037584D01*
X0210161Y0039638D01*
X0210161Y0041862D01*
X0210512Y0042709D01*
X0210306Y0042916D01*
X0209681Y0044423D01*
X0209681Y0045150D01*
X0184885Y0045150D01*
X0183286Y0045812D01*
X0182062Y0047036D01*
X0181400Y0048635D01*
X0181400Y0063790D01*
X0181034Y0063638D01*
X0175600Y0063638D01*
X0175600Y0059179D01*
X0176194Y0058584D01*
X0176818Y0057077D01*
X0176818Y0051116D01*
X0176667Y0050750D01*
X0176818Y0050384D01*
X0176818Y0044423D01*
X0176194Y0042916D01*
X0175988Y0042709D01*
X0176339Y0041862D01*
X0176339Y0039638D01*
X0175488Y0037584D01*
X0173916Y0036012D01*
X0171862Y0035161D01*
X0169638Y0035161D01*
X0167584Y0036012D01*
X0166012Y0037584D01*
X0165161Y0039638D01*
X0165161Y0041862D01*
X0165512Y0042709D01*
X0165306Y0042916D01*
X0164681Y0044423D01*
X0164681Y0045150D01*
X0139885Y0045150D01*
X0138286Y0045812D01*
X0137062Y0047036D01*
X0136400Y0048635D01*
X0136400Y0063638D01*
X0134216Y0063638D01*
X0132709Y0064262D01*
X0131556Y0065416D01*
X0130931Y0066923D01*
X0130931Y0072884D01*
X0131083Y0073250D01*
X0130931Y0073616D01*
X0130931Y0076424D01*
X0126364Y0076424D01*
X0125578Y0075638D01*
X0125612Y0075638D01*
X0127666Y0074787D01*
X0129238Y0073215D01*
X0130089Y0071161D01*
X0130089Y0070997D01*
X0130600Y0069764D01*
X0130600Y0059179D01*
X0131194Y0058584D01*
X0131818Y0057077D01*
X0131818Y0051116D01*
X0131667Y0050750D01*
X0131818Y0050384D01*
X0131818Y0044423D01*
X0131307Y0043188D01*
X0131339Y0043112D01*
X0131339Y0040888D01*
X0130488Y0038834D01*
X0128916Y0037262D01*
X0126862Y0036411D01*
X0124638Y0036411D01*
X0122584Y0037262D01*
X0121012Y0038834D01*
X0120161Y0040888D01*
X0120161Y0043112D01*
X0120193Y0043188D01*
X0119681Y0044423D01*
X0119681Y0050384D01*
X0119833Y0050750D01*
X0119681Y0051116D01*
X0119681Y0057077D01*
X0120306Y0058584D01*
X0120900Y0059179D01*
X0120900Y0065745D01*
X0119762Y0066883D01*
X0118911Y0068937D01*
X0118911Y0068971D01*
X0118900Y0068960D01*
X0118900Y0063625D01*
X0118230Y0062008D01*
X0116992Y0060770D01*
X0115375Y0060100D01*
X0046125Y0060100D01*
X0044508Y0060770D01*
X0043270Y0062008D01*
X0042600Y0063625D01*
X0042600Y0109125D01*
X0042755Y0109500D01*
X0042600Y0109875D01*
X0042600Y0111625D01*
X0042600Y0152375D01*
X0042600Y0154125D01*
X0043270Y0155742D01*
X0044508Y0156980D01*
X0046125Y0157650D01*
X0101569Y0157650D01*
X0102120Y0158979D01*
X0104257Y0161117D01*
X0149252Y0206111D01*
X0148188Y0206111D01*
X0146134Y0206962D01*
X0145796Y0207300D01*
X0108825Y0207300D01*
X0107208Y0207970D01*
X0055008Y0260170D01*
X0054827Y0260350D01*
X0053728Y0260350D01*
X0049100Y0264978D01*
X0049100Y0271522D01*
X0053728Y0276150D01*
X0057900Y0276150D01*
X0057900Y0276175D01*
X0058570Y0277792D01*
X0089928Y0309150D01*
X0089100Y0309978D01*
X0089100Y0316522D01*
X0093328Y0320750D01*
X0092000Y0322078D01*
X0090272Y0320350D01*
X0083728Y0320350D01*
X0082000Y0322078D01*
X0080272Y0320350D01*
X0073728Y0320350D01*
X0072000Y0322078D01*
X0070272Y0320350D01*
X0063728Y0320350D01*
X0062000Y0322078D01*
X0060272Y0320350D01*
X0053728Y0320350D01*
X0049100Y0324978D01*
X0049100Y0331522D01*
X0050458Y0332880D01*
X0048911Y0332527D01*
X0046452Y0331343D01*
X0046452Y0331343D01*
X0044319Y0329642D01*
X0041620Y0325436D02*
X0049100Y0325436D01*
X0048719Y0332434D02*
X0050012Y0332434D01*
X0040750Y0318437D02*
X0091015Y0318437D01*
X0089100Y0311439D02*
X0040750Y0311439D01*
X0040750Y0304440D02*
X0085218Y0304440D01*
X0091150Y0297928D02*
X0093728Y0295350D01*
X0100272Y0295350D01*
X0102000Y0297078D01*
X0103728Y0295350D01*
X0110272Y0295350D01*
X0112000Y0297078D01*
X0113728Y0295350D01*
X0120272Y0295350D01*
X0124900Y0299978D01*
X0124900Y0306522D01*
X0124022Y0307400D01*
X0136973Y0320350D01*
X0140272Y0320350D01*
X0142000Y0322078D01*
X0143728Y0320350D01*
X0150272Y0320350D01*
X0152000Y0322078D01*
X0153228Y0320850D01*
X0108527Y0276150D01*
X0103728Y0276150D01*
X0102000Y0274422D01*
X0100272Y0276150D01*
X0093728Y0276150D01*
X0092000Y0274422D01*
X0090272Y0276150D01*
X0083728Y0276150D01*
X0082000Y0274422D01*
X0080272Y0276150D01*
X0073728Y0276150D01*
X0072000Y0274422D01*
X0070272Y0276150D01*
X0069373Y0276150D01*
X0091150Y0297928D01*
X0090664Y0297442D02*
X0091636Y0297442D01*
X0083666Y0290443D02*
X0122821Y0290443D01*
X0122364Y0297442D02*
X0129819Y0297442D01*
X0124900Y0304440D02*
X0136818Y0304440D01*
X0142264Y0297442D02*
X0197736Y0297442D01*
X0196666Y0298511D02*
X0211672Y0283505D01*
X0211008Y0283230D01*
X0210466Y0282689D01*
X0209988Y0282689D01*
X0207934Y0281838D01*
X0206362Y0280266D01*
X0205879Y0279100D01*
X0143625Y0279100D01*
X0143489Y0279044D01*
X0143489Y0280612D01*
X0142638Y0282666D01*
X0141066Y0284238D01*
X0139012Y0285089D01*
X0136788Y0285089D01*
X0134734Y0284238D01*
X0133162Y0282666D01*
X0132311Y0280612D01*
X0132311Y0280134D01*
X0128327Y0276150D01*
X0123728Y0276150D01*
X0122000Y0274422D01*
X0120622Y0275800D01*
X0165173Y0320350D01*
X0170272Y0320350D01*
X0172000Y0322078D01*
X0173728Y0320350D01*
X0180272Y0320350D01*
X0181150Y0321228D01*
X0193837Y0308541D01*
X0192562Y0307266D01*
X0191711Y0305212D01*
X0191711Y0302988D01*
X0192562Y0300934D01*
X0194134Y0299362D01*
X0196188Y0298511D01*
X0196666Y0298511D01*
X0191711Y0304440D02*
X0149263Y0304440D01*
X0143816Y0311439D02*
X0128061Y0311439D01*
X0135060Y0318437D02*
X0150815Y0318437D01*
X0156261Y0311439D02*
X0190938Y0311439D01*
X0183940Y0318437D02*
X0163260Y0318437D01*
X0135266Y0290443D02*
X0204734Y0290443D01*
X0211526Y0283445D02*
X0141859Y0283445D01*
X0133941Y0283445D02*
X0128267Y0283445D01*
X0128624Y0276446D02*
X0121269Y0276446D01*
X0115822Y0283445D02*
X0076667Y0283445D01*
X0071221Y0290443D02*
X0040750Y0290443D01*
X0040750Y0283445D02*
X0064222Y0283445D01*
X0069669Y0276446D02*
X0108824Y0276446D01*
X0122000Y0262078D02*
X0123728Y0260350D01*
X0129927Y0260350D01*
X0119277Y0249700D01*
X0115425Y0249700D01*
X0113808Y0249030D01*
X0105700Y0240923D01*
X0105700Y0253677D01*
X0113050Y0261028D01*
X0113728Y0260350D01*
X0120272Y0260350D01*
X0122000Y0262078D01*
X0125028Y0255451D02*
X0107473Y0255451D01*
X0105700Y0248452D02*
X0113230Y0248452D01*
X0106231Y0241454D02*
X0105700Y0241454D01*
X0115278Y0234455D02*
X0121522Y0234455D01*
X0121008Y0234970D02*
X0129077Y0226900D01*
X0107723Y0226900D01*
X0118585Y0237762D01*
X0118762Y0237334D01*
X0119686Y0236410D01*
X0119770Y0236208D01*
X0121008Y0234970D01*
X0128521Y0227457D02*
X0108279Y0227457D01*
X0109523Y0218100D02*
X0133196Y0218100D01*
X0133534Y0217762D01*
X0135588Y0216911D01*
X0137812Y0216911D01*
X0139866Y0217762D01*
X0140241Y0218137D01*
X0142277Y0216100D01*
X0111523Y0216100D01*
X0109523Y0218100D01*
X0101718Y0213460D02*
X0040750Y0213460D01*
X0040750Y0220458D02*
X0094719Y0220458D01*
X0087721Y0227457D02*
X0040750Y0227457D01*
X0040750Y0234455D02*
X0080722Y0234455D01*
X0073724Y0241454D02*
X0040750Y0241454D01*
X0040750Y0248452D02*
X0066725Y0248452D01*
X0059727Y0255451D02*
X0040750Y0255451D01*
X0040750Y0262449D02*
X0051628Y0262449D01*
X0049100Y0269448D02*
X0040750Y0269448D01*
X0040750Y0276446D02*
X0058012Y0276446D01*
X0072700Y0261378D02*
X0072900Y0261178D01*
X0072900Y0258923D01*
X0072700Y0259123D01*
X0072700Y0261378D01*
X0081700Y0261778D02*
X0081700Y0254323D01*
X0092700Y0243323D01*
X0092700Y0261378D01*
X0092000Y0262078D01*
X0090272Y0260350D01*
X0083728Y0260350D01*
X0082000Y0262078D01*
X0081700Y0261778D01*
X0081700Y0255451D02*
X0092700Y0255451D01*
X0092700Y0248452D02*
X0087570Y0248452D01*
X0130523Y0248500D02*
X0143050Y0261028D01*
X0143728Y0260350D01*
X0150272Y0260350D01*
X0152000Y0262078D01*
X0153728Y0260350D01*
X0158700Y0260350D01*
X0158700Y0254662D01*
X0158690Y0254662D01*
X0158614Y0254631D01*
X0156923Y0254631D01*
X0155416Y0254007D01*
X0154262Y0252853D01*
X0153638Y0251347D01*
X0153638Y0250924D01*
X0149840Y0247126D01*
X0146594Y0243880D01*
X0146034Y0244112D01*
X0142911Y0244112D01*
X0140430Y0246592D01*
X0139192Y0247830D01*
X0137575Y0248500D01*
X0130523Y0248500D01*
X0137690Y0248452D02*
X0151167Y0248452D01*
X0158700Y0255451D02*
X0137473Y0255451D01*
X0167500Y0255923D02*
X0168911Y0257334D01*
X0168911Y0257812D01*
X0169762Y0259866D01*
X0170246Y0260350D01*
X0167500Y0260350D01*
X0167500Y0255923D01*
X0190948Y0256725D02*
X0193123Y0258900D01*
X0202975Y0258900D01*
X0204592Y0259570D01*
X0205373Y0260350D01*
X0210272Y0260350D01*
X0212000Y0262078D01*
X0213728Y0260350D01*
X0220272Y0260350D01*
X0220950Y0261028D01*
X0222300Y0259677D01*
X0222300Y0248079D01*
X0221998Y0247777D01*
X0221822Y0247850D01*
X0216989Y0247850D01*
X0216851Y0247988D01*
X0214797Y0248839D01*
X0213220Y0248839D01*
X0212639Y0250241D01*
X0207160Y0255720D01*
X0204734Y0256725D01*
X0190948Y0256725D01*
X0207429Y0255451D02*
X0222300Y0255451D01*
X0222300Y0248452D02*
X0215730Y0248452D01*
X0231100Y0248567D02*
X0231100Y0261077D01*
X0231300Y0260877D01*
X0231300Y0248479D01*
X0231291Y0248488D01*
X0231100Y0248567D01*
X0231100Y0255451D02*
X0231300Y0255451D01*
X0247900Y0254277D02*
X0255592Y0261970D01*
X0256830Y0263208D01*
X0257500Y0264825D01*
X0257500Y0271975D01*
X0256830Y0273592D01*
X0210073Y0320350D01*
X0210272Y0320350D01*
X0212000Y0322078D01*
X0213728Y0320350D01*
X0220272Y0320350D01*
X0222000Y0322078D01*
X0223728Y0320350D01*
X0230272Y0320350D01*
X0232000Y0322078D01*
X0233728Y0320350D01*
X0240272Y0320350D01*
X0242000Y0322078D01*
X0243728Y0320350D01*
X0250272Y0320350D01*
X0254900Y0324978D01*
X0254900Y0328528D01*
X0255726Y0327610D01*
X0257194Y0324975D01*
X0258040Y0322079D01*
X0258201Y0320693D01*
X0258201Y0217831D01*
X0256612Y0218489D01*
X0254388Y0218489D01*
X0252334Y0217638D01*
X0251834Y0217138D01*
X0250608Y0216630D01*
X0249370Y0215392D01*
X0249089Y0215111D01*
X0249089Y0216412D01*
X0248238Y0218466D01*
X0247900Y0218804D01*
X0247900Y0254277D01*
X0249073Y0255451D02*
X0258201Y0255451D01*
X0258201Y0262449D02*
X0256072Y0262449D01*
X0257500Y0269448D02*
X0258201Y0269448D01*
X0258201Y0276446D02*
X0253976Y0276446D01*
X0258201Y0283445D02*
X0246978Y0283445D01*
X0239979Y0290443D02*
X0258201Y0290443D01*
X0258201Y0297442D02*
X0232981Y0297442D01*
X0225982Y0304440D02*
X0258201Y0304440D01*
X0258201Y0311439D02*
X0218984Y0311439D01*
X0211985Y0318437D02*
X0258201Y0318437D01*
X0256937Y0325436D02*
X0254900Y0325436D01*
X0268075Y0336439D02*
X0268075Y0336439D01*
X0265380Y0339433D02*
X0319500Y0339433D01*
X0319500Y0332434D02*
X0270306Y0332434D01*
X0271198Y0330834D02*
X0271198Y0330834D01*
X0272774Y0325436D02*
X0319500Y0325436D01*
X0319500Y0318437D02*
X0273201Y0318437D01*
X0272996Y0324675D02*
X0272996Y0324675D01*
X0273201Y0311439D02*
X0319500Y0311439D01*
X0319500Y0304440D02*
X0273201Y0304440D01*
X0273201Y0297442D02*
X0319500Y0297442D01*
X0319500Y0290443D02*
X0273201Y0290443D01*
X0273201Y0283445D02*
X0319500Y0283445D01*
X0319500Y0276446D02*
X0273201Y0276446D01*
X0273201Y0269448D02*
X0319500Y0269448D01*
X0319500Y0262449D02*
X0273201Y0262449D01*
X0273201Y0255451D02*
X0319500Y0255451D01*
X0319500Y0248452D02*
X0273201Y0248452D01*
X0273201Y0241454D02*
X0319500Y0241454D01*
X0319500Y0234455D02*
X0273201Y0234455D01*
X0273201Y0227457D02*
X0319500Y0227457D01*
X0319500Y0220458D02*
X0273201Y0220458D01*
X0273201Y0213460D02*
X0319500Y0213460D01*
X0319500Y0206461D02*
X0273201Y0206461D01*
X0273201Y0199463D02*
X0319500Y0199463D01*
X0319500Y0192464D02*
X0273201Y0192464D01*
X0273201Y0185466D02*
X0319500Y0185466D01*
X0319500Y0178467D02*
X0273201Y0178467D01*
X0273201Y0171469D02*
X0319500Y0171469D01*
X0319500Y0164470D02*
X0273201Y0164470D01*
X0273201Y0157472D02*
X0319500Y0157472D01*
X0319500Y0150473D02*
X0273201Y0150473D01*
X0273201Y0143475D02*
X0319500Y0143475D01*
X0319500Y0136476D02*
X0273201Y0136476D01*
X0273201Y0129478D02*
X0319500Y0129478D01*
X0319500Y0122479D02*
X0273201Y0122479D01*
X0273201Y0115481D02*
X0319500Y0115481D01*
X0319500Y0108482D02*
X0273201Y0108482D01*
X0273201Y0101484D02*
X0319500Y0101484D01*
X0319500Y0094485D02*
X0273201Y0094485D01*
X0273201Y0087487D02*
X0319500Y0087487D01*
X0319500Y0080488D02*
X0273201Y0080488D01*
X0273201Y0073490D02*
X0319500Y0073490D01*
X0319500Y0066491D02*
X0273201Y0066491D01*
X0273201Y0059493D02*
X0319500Y0059493D01*
X0319500Y0052494D02*
X0273201Y0052494D01*
X0273201Y0045496D02*
X0319500Y0045496D01*
X0319500Y0038497D02*
X0273024Y0038497D01*
X0272996Y0038036D02*
X0272996Y0038036D01*
X0271198Y0031877D02*
X0271198Y0031877D01*
X0270988Y0031499D02*
X0319500Y0031499D01*
X0319500Y0024500D02*
X0266480Y0024500D01*
X0263783Y0021503D02*
X0263783Y0021503D01*
X0258537Y0017809D02*
X0258537Y0017809D01*
X0257787Y0017501D02*
X0319500Y0017501D01*
X0254500Y0081712D02*
X0251638Y0078850D01*
X0249200Y0078850D01*
X0249200Y0078872D01*
X0248484Y0080600D01*
X0247162Y0081922D01*
X0226781Y0102303D01*
X0226113Y0103916D01*
X0224541Y0105488D01*
X0222487Y0106339D01*
X0221146Y0106339D01*
X0222397Y0107590D01*
X0223762Y0108955D01*
X0224500Y0110737D01*
X0224500Y0127800D01*
X0235335Y0127800D01*
X0236879Y0128439D01*
X0238061Y0129621D01*
X0238700Y0131165D01*
X0238700Y0155335D01*
X0238061Y0156879D01*
X0236879Y0158061D01*
X0235335Y0158700D01*
X0219091Y0158700D01*
X0218254Y0159537D01*
X0218254Y0179312D01*
X0220188Y0178511D01*
X0220666Y0178511D01*
X0242666Y0156511D01*
X0241900Y0154662D01*
X0241900Y0151838D01*
X0242981Y0149228D01*
X0244978Y0147231D01*
X0247588Y0146150D01*
X0254500Y0146150D01*
X0254500Y0145350D01*
X0247588Y0145350D01*
X0244978Y0144269D01*
X0242981Y0142272D01*
X0241900Y0139662D01*
X0241900Y0136838D01*
X0242981Y0134228D01*
X0243959Y0133250D01*
X0242981Y0132272D01*
X0241900Y0129662D01*
X0241900Y0126838D01*
X0242981Y0124228D01*
X0243959Y0123250D01*
X0242981Y0122272D01*
X0241900Y0119662D01*
X0241900Y0116838D01*
X0242981Y0114228D01*
X0243959Y0113250D01*
X0242981Y0112272D01*
X0241900Y0109662D01*
X0241900Y0106838D01*
X0242981Y0104228D01*
X0244978Y0102231D01*
X0247588Y0101150D01*
X0254500Y0101150D01*
X0254500Y0081712D01*
X0253276Y0080488D02*
X0248531Y0080488D01*
X0254500Y0087487D02*
X0241598Y0087487D01*
X0234599Y0094485D02*
X0254500Y0094485D01*
X0246782Y0101484D02*
X0227601Y0101484D01*
X0223289Y0108482D02*
X0241900Y0108482D01*
X0242462Y0115481D02*
X0224500Y0115481D01*
X0224500Y0122479D02*
X0243188Y0122479D01*
X0241900Y0129478D02*
X0237917Y0129478D01*
X0238700Y0136476D02*
X0242050Y0136476D01*
X0244184Y0143475D02*
X0238700Y0143475D01*
X0238700Y0150473D02*
X0242465Y0150473D01*
X0241706Y0157472D02*
X0237468Y0157472D01*
X0234707Y0164470D02*
X0218254Y0164470D01*
X0218254Y0171469D02*
X0227709Y0171469D01*
X0233155Y0178467D02*
X0235259Y0178467D01*
X0230326Y0183400D02*
X0241908Y0171818D01*
X0242981Y0169228D01*
X0243959Y0168250D01*
X0243666Y0167957D01*
X0228223Y0183400D01*
X0230326Y0183400D01*
X0236700Y0190744D02*
X0235082Y0192362D01*
X0233300Y0193100D01*
X0224112Y0193100D01*
X0224112Y0197284D01*
X0223488Y0198791D01*
X0222334Y0199944D01*
X0221361Y0200348D01*
X0221090Y0201001D01*
X0208850Y0213241D01*
X0208850Y0220882D01*
X0209642Y0221675D01*
X0210647Y0224100D01*
X0210647Y0228548D01*
X0210700Y0228600D01*
X0211425Y0228300D01*
X0236700Y0228300D01*
X0236700Y0190744D01*
X0236700Y0192464D02*
X0234835Y0192464D01*
X0236700Y0199463D02*
X0222816Y0199463D01*
X0215630Y0206461D02*
X0236700Y0206461D01*
X0236700Y0213460D02*
X0208850Y0213460D01*
X0208850Y0220458D02*
X0236700Y0220458D01*
X0236700Y0227457D02*
X0210647Y0227457D01*
X0179500Y0214500D02*
X0174250Y0209250D01*
X0163139Y0209250D01*
X0108562Y0154674D01*
X0108562Y0106687D01*
X0101532Y0099657D01*
X0094500Y0099657D01*
X0116162Y0112324D02*
X0116162Y0121815D01*
X0117138Y0121411D01*
X0119362Y0121411D01*
X0121416Y0122262D01*
X0122988Y0123834D01*
X0123839Y0125888D01*
X0123839Y0128112D01*
X0123350Y0129292D01*
X0123350Y0147131D01*
X0127150Y0150931D01*
X0127150Y0132396D01*
X0126411Y0130612D01*
X0126411Y0128388D01*
X0127262Y0126334D01*
X0128834Y0124762D01*
X0130888Y0123911D01*
X0133112Y0123911D01*
X0135166Y0124762D01*
X0136738Y0126334D01*
X0137589Y0128388D01*
X0137589Y0130612D01*
X0136850Y0132396D01*
X0136850Y0150928D01*
X0150314Y0164391D01*
X0150314Y0135745D01*
X0149611Y0134049D01*
X0149611Y0132578D01*
X0147584Y0131738D01*
X0146012Y0130166D01*
X0145161Y0128112D01*
X0145161Y0125888D01*
X0146012Y0123834D01*
X0147584Y0122262D01*
X0149638Y0121411D01*
X0151862Y0121411D01*
X0153916Y0122262D01*
X0155488Y0123834D01*
X0156339Y0125888D01*
X0156339Y0125942D01*
X0156808Y0126411D01*
X0157661Y0126411D01*
X0157661Y0125888D01*
X0158512Y0123834D01*
X0160084Y0122262D01*
X0162138Y0121411D01*
X0164362Y0121411D01*
X0166416Y0122262D01*
X0167988Y0123834D01*
X0168839Y0125888D01*
X0168839Y0128112D01*
X0168350Y0129292D01*
X0168350Y0167840D01*
X0172230Y0171720D01*
X0172907Y0170084D01*
X0174479Y0168512D01*
X0175634Y0168034D01*
X0175634Y0133319D01*
X0174981Y0132666D01*
X0174130Y0130612D01*
X0174130Y0128388D01*
X0174981Y0126334D01*
X0176553Y0124762D01*
X0177376Y0124421D01*
X0177724Y0123579D01*
X0162560Y0108415D01*
X0160776Y0107676D01*
X0159204Y0106103D01*
X0158591Y0104624D01*
X0118900Y0104624D01*
X0118900Y0109125D01*
X0118230Y0110742D01*
X0116992Y0111980D01*
X0116162Y0112324D01*
X0116162Y0115481D02*
X0169626Y0115481D01*
X0166633Y0122479D02*
X0176625Y0122479D01*
X0174130Y0129478D02*
X0168350Y0129478D01*
X0168350Y0136476D02*
X0175634Y0136476D01*
X0175634Y0143475D02*
X0168350Y0143475D01*
X0168350Y0150473D02*
X0175634Y0150473D01*
X0175634Y0157472D02*
X0168350Y0157472D01*
X0168350Y0164470D02*
X0175634Y0164470D01*
X0172334Y0171469D02*
X0171978Y0171469D01*
X0150314Y0157472D02*
X0143394Y0157472D01*
X0136850Y0150473D02*
X0150314Y0150473D01*
X0150314Y0143475D02*
X0136850Y0143475D01*
X0136850Y0136476D02*
X0150314Y0136476D01*
X0145727Y0129478D02*
X0137589Y0129478D01*
X0126411Y0129478D02*
X0123350Y0129478D01*
X0123350Y0136476D02*
X0127150Y0136476D01*
X0127150Y0143475D02*
X0123350Y0143475D01*
X0126693Y0150473D02*
X0127150Y0150473D01*
X0107611Y0164470D02*
X0040750Y0164470D01*
X0040750Y0157472D02*
X0045694Y0157472D01*
X0042600Y0150473D02*
X0040750Y0150473D01*
X0040750Y0143475D02*
X0042600Y0143475D01*
X0042600Y0136476D02*
X0040750Y0136476D01*
X0040750Y0129478D02*
X0042600Y0129478D01*
X0042600Y0122479D02*
X0040750Y0122479D01*
X0040750Y0115481D02*
X0042600Y0115481D01*
X0042600Y0108482D02*
X0040750Y0108482D01*
X0040750Y0101484D02*
X0042600Y0101484D01*
X0042600Y0094485D02*
X0040750Y0094485D01*
X0040750Y0087487D02*
X0042600Y0087487D01*
X0042600Y0080488D02*
X0040750Y0080488D01*
X0040750Y0073490D02*
X0042600Y0073490D01*
X0042600Y0066491D02*
X0040750Y0066491D01*
X0040750Y0059493D02*
X0120900Y0059493D01*
X0120154Y0066491D02*
X0118900Y0066491D01*
X0128963Y0073490D02*
X0130984Y0073490D01*
X0131110Y0066491D02*
X0130600Y0066491D01*
X0130600Y0059493D02*
X0136400Y0059493D01*
X0136400Y0052494D02*
X0131818Y0052494D01*
X0131818Y0045496D02*
X0139051Y0045496D01*
X0130151Y0038497D02*
X0165634Y0038497D01*
X0175866Y0038497D02*
X0210634Y0038497D01*
X0220866Y0038497D02*
X0236419Y0038497D01*
X0237329Y0031499D02*
X0060905Y0031499D01*
X0061476Y0038497D02*
X0121349Y0038497D01*
X0119681Y0045496D02*
X0057775Y0045496D01*
X0040750Y0052494D02*
X0119681Y0052494D01*
X0118900Y0108482D02*
X0162628Y0108482D01*
X0172487Y0104624D02*
X0186237Y0118374D01*
X0210391Y0118374D01*
X0212173Y0119112D01*
X0213000Y0119939D01*
X0213000Y0114456D01*
X0210369Y0111826D01*
X0208691Y0111826D01*
X0206963Y0111110D01*
X0205641Y0109788D01*
X0204692Y0108839D01*
X0204638Y0108839D01*
X0202584Y0107988D01*
X0201012Y0106416D01*
X0200270Y0104624D01*
X0172487Y0104624D01*
X0176346Y0108482D02*
X0203777Y0108482D01*
X0213000Y0115481D02*
X0183344Y0115481D01*
X0191936Y0128074D02*
X0193714Y0128074D01*
X0191936Y0129852D01*
X0191936Y0128074D01*
X0191936Y0129478D02*
X0192310Y0129478D01*
X0159867Y0122479D02*
X0154133Y0122479D01*
X0147367Y0122479D02*
X0121633Y0122479D01*
X0114609Y0171469D02*
X0040750Y0171469D01*
X0051973Y0178467D02*
X0121608Y0178467D01*
X0128606Y0185466D02*
X0057526Y0185466D01*
X0057980Y0192464D02*
X0135605Y0192464D01*
X0142604Y0199463D02*
X0054120Y0199463D01*
X0040750Y0206461D02*
X0147343Y0206461D01*
X0218254Y0178467D02*
X0220710Y0178467D01*
X0240154Y0171469D02*
X0242053Y0171469D01*
X0247900Y0220458D02*
X0258201Y0220458D01*
X0258201Y0227457D02*
X0247900Y0227457D01*
X0247900Y0234455D02*
X0258201Y0234455D01*
X0258201Y0241454D02*
X0247900Y0241454D01*
X0247900Y0248452D02*
X0258201Y0248452D01*
X0231499Y0283324D02*
X0198323Y0316500D01*
X0199677Y0316500D01*
X0231896Y0284282D01*
X0231499Y0283324D01*
X0231549Y0283445D02*
X0231378Y0283445D01*
X0225734Y0290443D02*
X0224379Y0290443D01*
X0218736Y0297442D02*
X0217381Y0297442D01*
X0211737Y0304440D02*
X0210382Y0304440D01*
X0204738Y0311439D02*
X0203384Y0311439D01*
X0124527Y0320350D02*
X0122800Y0318622D01*
X0120672Y0320750D01*
X0122000Y0322078D01*
X0123728Y0320350D01*
X0124527Y0320350D01*
X0113328Y0320750D02*
X0112000Y0319422D01*
X0110672Y0320750D01*
X0112000Y0322078D01*
X0113328Y0320750D01*
X0103328Y0320750D02*
X0102000Y0319422D01*
X0100672Y0320750D01*
X0102000Y0322078D01*
X0103328Y0320750D01*
X0078219Y0297442D02*
X0040750Y0297442D01*
X0175600Y0059493D02*
X0181400Y0059493D01*
X0181400Y0052494D02*
X0176818Y0052494D01*
X0176818Y0045496D02*
X0184051Y0045496D01*
X0221818Y0045496D02*
X0229051Y0045496D01*
X0226400Y0052494D02*
X0221818Y0052494D01*
X0220600Y0059493D02*
X0224567Y0059493D01*
X0252600Y0015374D02*
X0252600Y0015374D01*
D27*
X0199500Y0069500D02*
X0199096Y0069904D01*
X0178250Y0069904D01*
X0178250Y0076596D02*
X0191154Y0089500D01*
X0199500Y0089500D01*
X0154500Y0084500D02*
X0144904Y0084500D01*
X0137000Y0076596D01*
X0137000Y0069904D02*
X0154096Y0069904D01*
X0154500Y0069500D01*
D28*
X0217846Y0188250D02*
X0217846Y0194500D01*
X0215919Y0196428D01*
X0215919Y0197545D01*
X0198964Y0214500D01*
X0179500Y0214500D01*
X0157000Y0214500D01*
X0149500Y0222000D01*
X0149500Y0238250D01*
X0149591Y0238250D01*
X0153296Y0241954D01*
X0159904Y0248562D01*
D29*
X0190659Y0250125D02*
X0203421Y0250125D01*
X0207044Y0246503D01*
X0207044Y0244678D01*
X0208471Y0243250D01*
X0208471Y0235706D01*
X0204047Y0231281D01*
X0204047Y0225413D01*
X0193134Y0214500D01*
X0179500Y0214500D01*
D30*
X0172610Y0233202D02*
X0172610Y0242549D01*
X0166596Y0248562D01*
X0153296Y0241954D02*
X0153296Y0241199D01*
X0143250Y0231154D01*
X0137000Y0231154D01*
X0166705Y0193298D02*
X0162240Y0188833D01*
X0157840Y0188833D01*
X0118250Y0149243D01*
X0118250Y0127000D01*
X0157000Y0132000D02*
X0158250Y0133250D01*
X0158250Y0173250D01*
X0162000Y0177000D01*
X0162000Y0179500D01*
X0170750Y0188250D01*
X0176316Y0183197D02*
X0176316Y0183019D01*
X0163250Y0169953D01*
X0163250Y0127000D01*
X0189500Y0139500D02*
X0202937Y0126062D01*
X0208250Y0126062D01*
X0252000Y0118250D02*
X0252000Y0117755D01*
X0259600Y0110155D01*
X0259600Y0079600D01*
X0244500Y0064500D01*
X0215750Y0047404D02*
X0215750Y0040750D01*
X0170750Y0040750D02*
X0170750Y0047404D01*
X0154500Y0068476D02*
X0154500Y0069500D01*
X0154500Y0075750D01*
X0152000Y0078250D01*
X0148250Y0078250D01*
X0125750Y0047404D02*
X0125750Y0042000D01*
X0252000Y0118250D02*
X0259600Y0125850D01*
X0259600Y0155155D01*
X0256905Y0157850D01*
X0252489Y0157850D01*
X0252000Y0158339D01*
X0211154Y0188250D02*
X0210750Y0188654D01*
X0210750Y0194500D01*
X0211154Y0194500D02*
X0204722Y0194500D01*
X0202360Y0196862D01*
X0202360Y0196640D01*
X0202625Y0196375D01*
X0200301Y0233333D02*
X0200301Y0235100D01*
X0200301Y0241772D01*
X0201779Y0243250D01*
X0192267Y0235483D02*
X0192267Y0233230D01*
X0192295Y0233202D01*
X0192267Y0235483D02*
X0183966Y0243784D01*
X0183966Y0250125D01*
D31*
X0180500Y0252500D02*
X0180500Y0247700D01*
X0181700Y0246500D01*
X0181700Y0242900D01*
X0190100Y0234500D01*
X0190100Y0229700D01*
X0190327Y0229413D01*
X0192295Y0229413D02*
X0192500Y0229100D01*
X0192500Y0226700D01*
X0191900Y0226100D01*
X0191900Y0225500D01*
X0193100Y0224300D01*
X0188300Y0224300D02*
X0188300Y0224900D01*
X0187700Y0225500D01*
X0188300Y0226100D01*
X0188300Y0229100D01*
X0188358Y0229413D01*
X0186500Y0229700D02*
X0186500Y0232700D01*
X0184700Y0234500D01*
X0182300Y0229700D02*
X0182300Y0240500D01*
X0179300Y0243500D01*
X0179300Y0260900D01*
X0186500Y0268100D01*
X0187000Y0268250D01*
X0191900Y0266300D02*
X0187700Y0262100D01*
X0184100Y0262100D01*
X0176900Y0261500D02*
X0172100Y0266300D01*
X0172100Y0269900D01*
X0168500Y0273500D01*
X0145100Y0273500D01*
X0142100Y0270500D01*
X0142100Y0266300D01*
X0121100Y0245300D01*
X0116300Y0245300D01*
X0102500Y0231500D01*
X0100100Y0231500D01*
X0097100Y0234500D01*
X0097100Y0268100D01*
X0097000Y0268250D01*
X0101300Y0255500D02*
X0112100Y0266300D01*
X0112100Y0273500D01*
X0166700Y0328100D01*
X0167000Y0328250D01*
X0178700Y0333500D02*
X0182300Y0329900D01*
X0182300Y0326300D01*
X0235100Y0273500D01*
X0241700Y0273500D01*
X0246500Y0268700D01*
X0247000Y0268250D01*
X0251900Y0266300D02*
X0251900Y0270500D01*
X0201500Y0320900D01*
X0191300Y0320900D01*
X0191900Y0323300D02*
X0187100Y0328100D01*
X0187000Y0328250D01*
X0191900Y0323300D02*
X0200900Y0323300D01*
X0253100Y0271100D01*
X0253100Y0265700D01*
X0243500Y0256100D01*
X0243500Y0215300D01*
X0253100Y0212900D02*
X0244700Y0204500D01*
X0244700Y0200900D01*
X0251900Y0193700D01*
X0252000Y0193250D01*
X0241100Y0185300D02*
X0241100Y0255500D01*
X0251900Y0266300D01*
X0237500Y0268100D02*
X0237000Y0268250D01*
X0237500Y0268100D02*
X0237500Y0247100D01*
X0238700Y0245900D01*
X0238700Y0233300D01*
X0238100Y0232700D01*
X0212300Y0232700D01*
X0210500Y0234500D01*
X0208471Y0235706D01*
X0200900Y0235100D02*
X0200301Y0235100D01*
X0194300Y0236900D02*
X0194300Y0229700D01*
X0194264Y0229413D01*
X0194300Y0236900D02*
X0191300Y0239900D01*
X0191300Y0241100D01*
X0180500Y0240500D02*
X0180500Y0229700D01*
X0180484Y0229413D01*
X0178700Y0229100D02*
X0178516Y0229413D01*
X0178700Y0229100D02*
X0178700Y0226700D01*
X0176300Y0224300D01*
X0174500Y0226100D02*
X0174500Y0229100D01*
X0174579Y0229413D01*
X0176547Y0229413D02*
X0176900Y0229700D01*
X0176900Y0239300D01*
X0180500Y0240500D02*
X0176900Y0244100D01*
X0176900Y0261500D01*
X0174500Y0256700D02*
X0167300Y0249500D01*
X0166596Y0248562D01*
X0163100Y0246500D02*
X0163100Y0264500D01*
X0166700Y0268100D01*
X0167000Y0268250D01*
X0180500Y0252500D02*
X0191300Y0263300D01*
X0202100Y0263300D01*
X0206900Y0268100D01*
X0207000Y0268250D01*
X0212300Y0274700D02*
X0144500Y0274700D01*
X0138500Y0268700D01*
X0137000Y0268250D01*
X0127100Y0268700D02*
X0137900Y0279500D01*
X0127100Y0268700D02*
X0127000Y0268250D01*
X0124700Y0242900D02*
X0117500Y0242900D01*
X0102500Y0227900D01*
X0097700Y0227900D01*
X0068300Y0257300D01*
X0068300Y0268100D01*
X0067000Y0268250D01*
X0062300Y0275300D02*
X0062300Y0260900D01*
X0100700Y0222500D01*
X0136700Y0222500D01*
X0136700Y0227900D02*
X0134300Y0227900D01*
X0123500Y0238700D01*
X0123500Y0240500D01*
X0124700Y0242900D02*
X0129500Y0238100D01*
X0136700Y0238100D01*
X0137000Y0237846D01*
X0142700Y0238100D02*
X0136700Y0244100D01*
X0116900Y0244100D01*
X0103100Y0230300D01*
X0099500Y0230300D01*
X0077300Y0252500D01*
X0077300Y0268100D01*
X0077000Y0268250D01*
X0062300Y0275300D02*
X0095300Y0308300D01*
X0118700Y0308300D01*
X0136700Y0326300D01*
X0136700Y0328100D01*
X0137000Y0328250D01*
X0178700Y0333500D02*
X0085100Y0333500D01*
X0080300Y0328700D01*
X0077300Y0328700D01*
X0077000Y0328250D01*
X0057500Y0268100D02*
X0057000Y0268250D01*
X0057500Y0268100D02*
X0057500Y0263900D01*
X0109700Y0211700D01*
X0149300Y0211700D01*
X0152900Y0211700D02*
X0136700Y0227900D01*
X0142700Y0238100D02*
X0143250Y0237846D01*
X0154100Y0236900D02*
X0161900Y0236900D01*
X0163100Y0235700D01*
X0163100Y0229700D01*
X0162768Y0229413D01*
X0164736Y0229413D02*
X0164900Y0229100D01*
X0164900Y0226700D01*
X0162500Y0224300D01*
X0160799Y0229413D02*
X0160700Y0229700D01*
X0160700Y0230750D01*
X0158900Y0229700D02*
X0158900Y0232700D01*
X0157100Y0234500D01*
X0156862Y0229413D02*
X0156500Y0229100D01*
X0154100Y0229100D01*
X0158831Y0229413D02*
X0158900Y0229700D01*
X0166700Y0229700D02*
X0166700Y0235700D01*
X0161300Y0241100D01*
X0158900Y0241100D01*
X0163100Y0246500D02*
X0170300Y0239300D01*
X0170300Y0229700D01*
X0170642Y0229413D01*
X0168673Y0229413D02*
X0168500Y0229100D01*
X0168500Y0226700D01*
X0170300Y0224900D01*
X0164300Y0218900D01*
X0172700Y0224300D02*
X0174500Y0226100D01*
X0166705Y0229413D02*
X0166700Y0229700D01*
X0182300Y0229700D02*
X0182453Y0229413D01*
X0184421Y0229413D02*
X0184700Y0229100D01*
X0184700Y0224300D01*
X0186390Y0229413D02*
X0186500Y0229700D01*
X0162768Y0199587D02*
X0163100Y0199100D01*
X0163100Y0196700D01*
X0161300Y0194900D01*
X0160100Y0194900D01*
X0159500Y0194300D01*
X0157700Y0194300D01*
X0103250Y0153250D02*
X0103250Y0110750D01*
X0047000Y0110750D01*
X0047000Y0153250D01*
X0103250Y0153250D01*
X0103250Y0153180D02*
X0047000Y0153180D01*
X0047000Y0152581D02*
X0103250Y0152581D01*
X0103250Y0151983D02*
X0047000Y0151983D01*
X0047000Y0151384D02*
X0103250Y0151384D01*
X0103250Y0150786D02*
X0047000Y0150786D01*
X0047000Y0150187D02*
X0103250Y0150187D01*
X0103250Y0149589D02*
X0047000Y0149589D01*
X0047000Y0148990D02*
X0103250Y0148990D01*
X0103250Y0148392D02*
X0047000Y0148392D01*
X0047000Y0147793D02*
X0103250Y0147793D01*
X0103250Y0147195D02*
X0047000Y0147195D01*
X0047000Y0146596D02*
X0103250Y0146596D01*
X0103250Y0145998D02*
X0047000Y0145998D01*
X0047000Y0145399D02*
X0103250Y0145399D01*
X0103250Y0144801D02*
X0047000Y0144801D01*
X0047000Y0144202D02*
X0103250Y0144202D01*
X0103250Y0143604D02*
X0047000Y0143604D01*
X0047000Y0143005D02*
X0103250Y0143005D01*
X0103250Y0142407D02*
X0047000Y0142407D01*
X0047000Y0141808D02*
X0103250Y0141808D01*
X0103250Y0141210D02*
X0047000Y0141210D01*
X0047000Y0140611D02*
X0103250Y0140611D01*
X0103250Y0140013D02*
X0047000Y0140013D01*
X0047000Y0139414D02*
X0103250Y0139414D01*
X0103250Y0138816D02*
X0047000Y0138816D01*
X0047000Y0138217D02*
X0103250Y0138217D01*
X0103250Y0137619D02*
X0047000Y0137619D01*
X0047000Y0137020D02*
X0103250Y0137020D01*
X0103250Y0136422D02*
X0047000Y0136422D01*
X0047000Y0135823D02*
X0103250Y0135823D01*
X0103250Y0135225D02*
X0047000Y0135225D01*
X0047000Y0134626D02*
X0103250Y0134626D01*
X0103250Y0134028D02*
X0047000Y0134028D01*
X0047000Y0133429D02*
X0103250Y0133429D01*
X0103250Y0132831D02*
X0047000Y0132831D01*
X0047000Y0132232D02*
X0103250Y0132232D01*
X0103250Y0131634D02*
X0047000Y0131634D01*
X0047000Y0131035D02*
X0103250Y0131035D01*
X0103250Y0130437D02*
X0047000Y0130437D01*
X0047000Y0129838D02*
X0103250Y0129838D01*
X0103250Y0129239D02*
X0047000Y0129239D01*
X0047000Y0128641D02*
X0103250Y0128641D01*
X0103250Y0128042D02*
X0047000Y0128042D01*
X0047000Y0127444D02*
X0103250Y0127444D01*
X0103250Y0126845D02*
X0047000Y0126845D01*
X0047000Y0126247D02*
X0103250Y0126247D01*
X0103250Y0125648D02*
X0047000Y0125648D01*
X0047000Y0125050D02*
X0103250Y0125050D01*
X0103250Y0124451D02*
X0047000Y0124451D01*
X0047000Y0123853D02*
X0103250Y0123853D01*
X0103250Y0123254D02*
X0047000Y0123254D01*
X0047000Y0122656D02*
X0103250Y0122656D01*
X0103250Y0122057D02*
X0047000Y0122057D01*
X0047000Y0121459D02*
X0103250Y0121459D01*
X0103250Y0120860D02*
X0047000Y0120860D01*
X0047000Y0120262D02*
X0103250Y0120262D01*
X0103250Y0119663D02*
X0047000Y0119663D01*
X0047000Y0119065D02*
X0103250Y0119065D01*
X0103250Y0118466D02*
X0047000Y0118466D01*
X0047000Y0117868D02*
X0103250Y0117868D01*
X0103250Y0117269D02*
X0047000Y0117269D01*
X0047000Y0116671D02*
X0103250Y0116671D01*
X0103250Y0116072D02*
X0047000Y0116072D01*
X0047000Y0115474D02*
X0103250Y0115474D01*
X0103250Y0114875D02*
X0047000Y0114875D01*
X0047000Y0114277D02*
X0103250Y0114277D01*
X0103250Y0113678D02*
X0047000Y0113678D01*
X0047000Y0113080D02*
X0103250Y0113080D01*
X0103250Y0112481D02*
X0047000Y0112481D01*
X0047000Y0111883D02*
X0103250Y0111883D01*
X0103250Y0111284D02*
X0047000Y0111284D01*
X0047000Y0108250D02*
X0047000Y0064500D01*
X0114500Y0064500D01*
X0114500Y0108250D01*
X0047000Y0108250D01*
X0047000Y0107693D02*
X0114500Y0107693D01*
X0114500Y0107095D02*
X0047000Y0107095D01*
X0047000Y0106496D02*
X0114500Y0106496D01*
X0114500Y0105898D02*
X0047000Y0105898D01*
X0047000Y0105299D02*
X0114500Y0105299D01*
X0114500Y0104701D02*
X0047000Y0104701D01*
X0047000Y0104102D02*
X0114500Y0104102D01*
X0114500Y0103503D02*
X0047000Y0103503D01*
X0047000Y0102905D02*
X0114500Y0102905D01*
X0114500Y0102306D02*
X0047000Y0102306D01*
X0047000Y0101708D02*
X0114500Y0101708D01*
X0114500Y0101109D02*
X0047000Y0101109D01*
X0047000Y0100511D02*
X0114500Y0100511D01*
X0114500Y0099912D02*
X0047000Y0099912D01*
X0047000Y0099314D02*
X0114500Y0099314D01*
X0114500Y0098715D02*
X0047000Y0098715D01*
X0047000Y0098117D02*
X0114500Y0098117D01*
X0114500Y0097518D02*
X0047000Y0097518D01*
X0047000Y0096920D02*
X0114500Y0096920D01*
X0114500Y0096321D02*
X0047000Y0096321D01*
X0047000Y0095723D02*
X0114500Y0095723D01*
X0114500Y0095124D02*
X0047000Y0095124D01*
X0047000Y0094526D02*
X0114500Y0094526D01*
X0114500Y0093927D02*
X0047000Y0093927D01*
X0047000Y0093329D02*
X0114500Y0093329D01*
X0114500Y0092730D02*
X0047000Y0092730D01*
X0047000Y0092132D02*
X0114500Y0092132D01*
X0114500Y0091533D02*
X0047000Y0091533D01*
X0047000Y0090935D02*
X0114500Y0090935D01*
X0114500Y0090336D02*
X0047000Y0090336D01*
X0047000Y0089738D02*
X0114500Y0089738D01*
X0114500Y0089139D02*
X0047000Y0089139D01*
X0047000Y0088541D02*
X0114500Y0088541D01*
X0114500Y0087942D02*
X0047000Y0087942D01*
X0047000Y0087344D02*
X0114500Y0087344D01*
X0114500Y0086745D02*
X0047000Y0086745D01*
X0047000Y0086147D02*
X0114500Y0086147D01*
X0114500Y0085548D02*
X0047000Y0085548D01*
X0047000Y0084950D02*
X0114500Y0084950D01*
X0114500Y0084351D02*
X0047000Y0084351D01*
X0047000Y0083753D02*
X0114500Y0083753D01*
X0114500Y0083154D02*
X0047000Y0083154D01*
X0047000Y0082556D02*
X0114500Y0082556D01*
X0114500Y0081957D02*
X0047000Y0081957D01*
X0047000Y0081359D02*
X0114500Y0081359D01*
X0114500Y0080760D02*
X0047000Y0080760D01*
X0047000Y0080162D02*
X0114500Y0080162D01*
X0114500Y0079563D02*
X0047000Y0079563D01*
X0047000Y0078965D02*
X0114500Y0078965D01*
X0114500Y0078366D02*
X0047000Y0078366D01*
X0047000Y0077768D02*
X0114500Y0077768D01*
X0114500Y0077169D02*
X0047000Y0077169D01*
X0047000Y0076570D02*
X0114500Y0076570D01*
X0114500Y0075972D02*
X0047000Y0075972D01*
X0047000Y0075373D02*
X0114500Y0075373D01*
X0114500Y0074775D02*
X0047000Y0074775D01*
X0047000Y0074176D02*
X0114500Y0074176D01*
X0114500Y0073578D02*
X0047000Y0073578D01*
X0047000Y0072979D02*
X0114500Y0072979D01*
X0114500Y0072381D02*
X0047000Y0072381D01*
X0047000Y0071782D02*
X0114500Y0071782D01*
X0114500Y0071184D02*
X0047000Y0071184D01*
X0047000Y0070585D02*
X0114500Y0070585D01*
X0114500Y0069987D02*
X0047000Y0069987D01*
X0047000Y0069388D02*
X0114500Y0069388D01*
X0114500Y0068790D02*
X0047000Y0068790D01*
X0047000Y0068191D02*
X0114500Y0068191D01*
X0114500Y0067593D02*
X0047000Y0067593D01*
X0047000Y0066994D02*
X0114500Y0066994D01*
X0114500Y0066396D02*
X0047000Y0066396D01*
X0047000Y0065797D02*
X0114500Y0065797D01*
X0114500Y0065199D02*
X0047000Y0065199D01*
X0047000Y0064600D02*
X0114500Y0064600D01*
X0217000Y0144500D02*
X0220750Y0144500D01*
X0223250Y0144500D01*
X0251900Y0153500D02*
X0252000Y0153250D01*
X0251900Y0153500D02*
X0221300Y0184100D01*
X0241100Y0185300D02*
X0245900Y0180500D01*
X0245900Y0178700D01*
X0253100Y0212900D02*
X0255500Y0212900D01*
X0235750Y0242846D02*
X0235700Y0242900D01*
X0235700Y0262700D01*
X0232100Y0266300D01*
X0232100Y0272900D01*
X0207500Y0297500D01*
X0197300Y0304100D02*
X0221900Y0279500D01*
X0221900Y0266300D01*
X0226700Y0261500D01*
X0226700Y0242900D01*
X0227000Y0242846D01*
X0214700Y0273500D02*
X0195500Y0273500D01*
X0191900Y0269900D01*
X0191900Y0266300D01*
X0211100Y0277100D02*
X0213500Y0279500D01*
X0215900Y0279500D01*
X0217100Y0278300D01*
X0217100Y0275900D01*
X0214700Y0273500D01*
X0212300Y0274700D02*
X0214700Y0277100D01*
X0101300Y0255500D02*
X0101300Y0233900D01*
D32*
X0172610Y0203860D02*
X0172610Y0199587D01*
X0172610Y0203860D02*
X0173250Y0204500D01*
X0192644Y0204500D01*
X0194136Y0203008D01*
D33*
X0198379Y0199409D02*
X0198379Y0193013D01*
D34*
X0198379Y0199409D02*
X0198201Y0199587D01*
X0224576Y0239581D02*
X0232322Y0239581D01*
X0235750Y0236154D01*
X0224576Y0239581D02*
X0220907Y0243250D01*
X0213685Y0243250D01*
X0138250Y0268250D02*
X0137000Y0268250D01*
X0067846Y0268250D02*
X0067000Y0268250D01*
D35*
X0201469Y0200750D02*
X0201469Y0197244D01*
X0201460Y0197235D01*
X0201460Y0196393D01*
X0201460Y0196267D01*
X0201579Y0196148D01*
X0201579Y0195251D01*
X0201729Y0195101D01*
X0201729Y0195084D01*
X0204187Y0192625D01*
X0208250Y0192625D01*
X0208562Y0192312D01*
X0208562Y0186062D01*
X0208875Y0185750D01*
X0213562Y0185750D01*
X0213562Y0194812D01*
X0212312Y0196062D01*
X0205750Y0196062D01*
X0203250Y0198562D01*
X0203250Y0200750D01*
X0201469Y0200750D01*
X0201469Y0200580D02*
X0203250Y0200580D01*
X0203250Y0200381D02*
X0201469Y0200381D01*
X0201469Y0200183D02*
X0203250Y0200183D01*
X0203250Y0199984D02*
X0201469Y0199984D01*
X0201469Y0199785D02*
X0203250Y0199785D01*
X0203250Y0199587D02*
X0201469Y0199587D01*
X0201469Y0199388D02*
X0203250Y0199388D01*
X0203250Y0199190D02*
X0201469Y0199190D01*
X0201469Y0198991D02*
X0203250Y0198991D01*
X0203250Y0198793D02*
X0201469Y0198793D01*
X0201469Y0198594D02*
X0203250Y0198594D01*
X0203417Y0198396D02*
X0201469Y0198396D01*
X0201469Y0198197D02*
X0203615Y0198197D01*
X0203814Y0197999D02*
X0201469Y0197999D01*
X0201469Y0197800D02*
X0204012Y0197800D01*
X0204211Y0197602D02*
X0201469Y0197602D01*
X0201469Y0197403D02*
X0204409Y0197403D01*
X0204608Y0197205D02*
X0201460Y0197205D01*
X0201460Y0197006D02*
X0204806Y0197006D01*
X0205005Y0196808D02*
X0201460Y0196808D01*
X0201460Y0196609D02*
X0205203Y0196609D01*
X0205402Y0196411D02*
X0201460Y0196411D01*
X0201515Y0196212D02*
X0205600Y0196212D01*
X0203181Y0193632D02*
X0213562Y0193632D01*
X0213562Y0193830D02*
X0202982Y0193830D01*
X0202784Y0194029D02*
X0213562Y0194029D01*
X0213562Y0194227D02*
X0202585Y0194227D01*
X0202387Y0194426D02*
X0213562Y0194426D01*
X0213562Y0194624D02*
X0202188Y0194624D01*
X0201990Y0194823D02*
X0213552Y0194823D01*
X0213354Y0195021D02*
X0201791Y0195021D01*
X0201610Y0195220D02*
X0213155Y0195220D01*
X0212957Y0195418D02*
X0201579Y0195418D01*
X0201579Y0195617D02*
X0212758Y0195617D01*
X0212560Y0195815D02*
X0201579Y0195815D01*
X0201579Y0196014D02*
X0212361Y0196014D01*
X0213562Y0193433D02*
X0203379Y0193433D01*
X0203578Y0193235D02*
X0213562Y0193235D01*
X0213562Y0193036D02*
X0203776Y0193036D01*
X0203975Y0192838D02*
X0213562Y0192838D01*
X0213562Y0192639D02*
X0204173Y0192639D01*
X0208434Y0192441D02*
X0213562Y0192441D01*
X0213562Y0192242D02*
X0208562Y0192242D01*
X0208562Y0192044D02*
X0213562Y0192044D01*
X0213562Y0191845D02*
X0208562Y0191845D01*
X0208562Y0191647D02*
X0213562Y0191647D01*
X0213562Y0191448D02*
X0208562Y0191448D01*
X0208562Y0191250D02*
X0213562Y0191250D01*
X0213562Y0191051D02*
X0208562Y0191051D01*
X0208562Y0190852D02*
X0213562Y0190852D01*
X0213562Y0190654D02*
X0208562Y0190654D01*
X0208562Y0190455D02*
X0213562Y0190455D01*
X0213562Y0190257D02*
X0208562Y0190257D01*
X0208562Y0190058D02*
X0213562Y0190058D01*
X0213562Y0189860D02*
X0208562Y0189860D01*
X0208562Y0189661D02*
X0213562Y0189661D01*
X0213562Y0189463D02*
X0208562Y0189463D01*
X0208562Y0189264D02*
X0213562Y0189264D01*
X0213562Y0189066D02*
X0208562Y0189066D01*
X0208562Y0188867D02*
X0213562Y0188867D01*
X0213562Y0188669D02*
X0208562Y0188669D01*
X0208562Y0188470D02*
X0213562Y0188470D01*
X0213562Y0188272D02*
X0208562Y0188272D01*
X0208562Y0188073D02*
X0213562Y0188073D01*
X0213562Y0187875D02*
X0208562Y0187875D01*
X0208562Y0187676D02*
X0213562Y0187676D01*
X0213562Y0187478D02*
X0208562Y0187478D01*
X0208562Y0187279D02*
X0213562Y0187279D01*
X0213562Y0187081D02*
X0208562Y0187081D01*
X0208562Y0186882D02*
X0213562Y0186882D01*
X0213562Y0186684D02*
X0208562Y0186684D01*
X0208562Y0186485D02*
X0213562Y0186485D01*
X0213562Y0186287D02*
X0208562Y0186287D01*
X0208562Y0186088D02*
X0213562Y0186088D01*
X0213562Y0185890D02*
X0208735Y0185890D01*
X0214500Y0154500D02*
X0214500Y0145036D01*
X0221100Y0138436D01*
X0221100Y0132000D01*
X0234500Y0132000D01*
X0234500Y0154500D01*
X0214500Y0154500D01*
X0214500Y0154326D02*
X0234500Y0154326D01*
X0234500Y0154128D02*
X0214500Y0154128D01*
X0214500Y0153929D02*
X0234500Y0153929D01*
X0234500Y0153731D02*
X0214500Y0153731D01*
X0214500Y0153532D02*
X0234500Y0153532D01*
X0234500Y0153334D02*
X0214500Y0153334D01*
X0214500Y0153135D02*
X0234500Y0153135D01*
X0234500Y0152937D02*
X0214500Y0152937D01*
X0214500Y0152738D02*
X0234500Y0152738D01*
X0234500Y0152540D02*
X0214500Y0152540D01*
X0214500Y0152341D02*
X0234500Y0152341D01*
X0234500Y0152143D02*
X0214500Y0152143D01*
X0214500Y0151944D02*
X0234500Y0151944D01*
X0234500Y0151746D02*
X0214500Y0151746D01*
X0214500Y0151547D02*
X0234500Y0151547D01*
X0234500Y0151349D02*
X0214500Y0151349D01*
X0214500Y0151150D02*
X0234500Y0151150D01*
X0234500Y0150952D02*
X0214500Y0150952D01*
X0214500Y0150753D02*
X0234500Y0150753D01*
X0234500Y0150555D02*
X0214500Y0150555D01*
X0214500Y0150356D02*
X0234500Y0150356D01*
X0234500Y0150158D02*
X0214500Y0150158D01*
X0214500Y0149959D02*
X0234500Y0149959D01*
X0234500Y0149761D02*
X0214500Y0149761D01*
X0214500Y0149562D02*
X0234500Y0149562D01*
X0234500Y0149364D02*
X0214500Y0149364D01*
X0214500Y0149165D02*
X0234500Y0149165D01*
X0234500Y0148967D02*
X0214500Y0148967D01*
X0214500Y0148768D02*
X0234500Y0148768D01*
X0234500Y0148570D02*
X0214500Y0148570D01*
X0214500Y0148371D02*
X0234500Y0148371D01*
X0234500Y0148173D02*
X0214500Y0148173D01*
X0214500Y0147974D02*
X0234500Y0147974D01*
X0234500Y0147776D02*
X0214500Y0147776D01*
X0214500Y0147577D02*
X0234500Y0147577D01*
X0234500Y0147379D02*
X0214500Y0147379D01*
X0214500Y0147180D02*
X0234500Y0147180D01*
X0234500Y0146981D02*
X0214500Y0146981D01*
X0214500Y0146783D02*
X0234500Y0146783D01*
X0234500Y0146584D02*
X0214500Y0146584D01*
X0214500Y0146386D02*
X0234500Y0146386D01*
X0234500Y0146187D02*
X0214500Y0146187D01*
X0214500Y0145989D02*
X0234500Y0145989D01*
X0234500Y0145790D02*
X0214500Y0145790D01*
X0214500Y0145592D02*
X0234500Y0145592D01*
X0234500Y0145393D02*
X0214500Y0145393D01*
X0214500Y0145195D02*
X0234500Y0145195D01*
X0234500Y0144996D02*
X0214539Y0144996D01*
X0214738Y0144798D02*
X0234500Y0144798D01*
X0234500Y0144599D02*
X0214936Y0144599D01*
X0215135Y0144401D02*
X0234500Y0144401D01*
X0234500Y0144202D02*
X0215333Y0144202D01*
X0215532Y0144004D02*
X0234500Y0144004D01*
X0234500Y0143805D02*
X0215730Y0143805D01*
X0215929Y0143607D02*
X0234500Y0143607D01*
X0234500Y0143408D02*
X0216127Y0143408D01*
X0216326Y0143210D02*
X0234500Y0143210D01*
X0234500Y0143011D02*
X0216524Y0143011D01*
X0216723Y0142813D02*
X0234500Y0142813D01*
X0234500Y0142614D02*
X0216921Y0142614D01*
X0217120Y0142416D02*
X0234500Y0142416D01*
X0234500Y0142217D02*
X0217318Y0142217D01*
X0217517Y0142019D02*
X0234500Y0142019D01*
X0234500Y0141820D02*
X0217715Y0141820D01*
X0217914Y0141622D02*
X0234500Y0141622D01*
X0234500Y0141423D02*
X0218112Y0141423D01*
X0218311Y0141225D02*
X0234500Y0141225D01*
X0234500Y0141026D02*
X0218510Y0141026D01*
X0218708Y0140828D02*
X0234500Y0140828D01*
X0234500Y0140629D02*
X0218907Y0140629D01*
X0219105Y0140431D02*
X0234500Y0140431D01*
X0234500Y0140232D02*
X0219304Y0140232D01*
X0219502Y0140034D02*
X0234500Y0140034D01*
X0234500Y0139835D02*
X0219701Y0139835D01*
X0219899Y0139637D02*
X0234500Y0139637D01*
X0234500Y0139438D02*
X0220098Y0139438D01*
X0220296Y0139240D02*
X0234500Y0139240D01*
X0234500Y0139041D02*
X0220495Y0139041D01*
X0220693Y0138843D02*
X0234500Y0138843D01*
X0234500Y0138644D02*
X0220892Y0138644D01*
X0221090Y0138445D02*
X0234500Y0138445D01*
X0234500Y0138247D02*
X0221100Y0138247D01*
X0221100Y0138048D02*
X0234500Y0138048D01*
X0234500Y0137850D02*
X0221100Y0137850D01*
X0221100Y0137651D02*
X0234500Y0137651D01*
X0234500Y0137453D02*
X0221100Y0137453D01*
X0221100Y0137254D02*
X0234500Y0137254D01*
X0234500Y0137056D02*
X0221100Y0137056D01*
X0221100Y0136857D02*
X0234500Y0136857D01*
X0234500Y0136659D02*
X0221100Y0136659D01*
X0221100Y0136460D02*
X0234500Y0136460D01*
X0234500Y0136262D02*
X0221100Y0136262D01*
X0221100Y0136063D02*
X0234500Y0136063D01*
X0234500Y0135865D02*
X0221100Y0135865D01*
X0221100Y0135666D02*
X0234500Y0135666D01*
X0234500Y0135468D02*
X0221100Y0135468D01*
X0221100Y0135269D02*
X0234500Y0135269D01*
X0234500Y0135071D02*
X0221100Y0135071D01*
X0221100Y0134872D02*
X0234500Y0134872D01*
X0234500Y0134674D02*
X0221100Y0134674D01*
X0221100Y0134475D02*
X0234500Y0134475D01*
X0234500Y0134277D02*
X0221100Y0134277D01*
X0221100Y0134078D02*
X0234500Y0134078D01*
X0234500Y0133880D02*
X0221100Y0133880D01*
X0221100Y0133681D02*
X0234500Y0133681D01*
X0234500Y0133483D02*
X0221100Y0133483D01*
X0221100Y0133284D02*
X0234500Y0133284D01*
X0234500Y0133086D02*
X0221100Y0133086D01*
X0221100Y0132887D02*
X0234500Y0132887D01*
X0234500Y0132689D02*
X0221100Y0132689D01*
X0221100Y0132490D02*
X0234500Y0132490D01*
X0234500Y0132292D02*
X0221100Y0132292D01*
X0221100Y0132093D02*
X0234500Y0132093D01*
M02*
