G75*
%MOIN*%
%OFA0B0*%
%FSLAX25Y25*%
%IPPOS*%
%LPD*%
%AMOC8*
5,1,8,0,0,1.08239X$1,22.5*
%
%ADD10C,0.11000*%
%ADD11C,0.19000*%
%ADD12C,0.12611*%
%ADD13R,0.22060X0.25209*%
%ADD14R,0.04737X0.07099*%
%ADD15OC8,0.08400*%
%ADD16R,0.05131X0.04737*%
%ADD17C,0.01990*%
%ADD18C,0.07099*%
%ADD19C,0.08400*%
%ADD20R,0.08400X0.08400*%
%ADD21R,0.04737X0.05131*%
%ADD22C,0.12650*%
%ADD23R,0.10800X0.20800*%
%ADD24C,0.06800*%
D10*
X0102250Y0013537D02*
X0102250Y0053537D01*
X0147250Y0058537D02*
X0147250Y0013537D01*
X0192250Y0013537D02*
X0192250Y0058537D01*
D11*
X0192250Y0063537D02*
X0201000Y0072287D01*
X0201000Y0094787D01*
X0192250Y0123537D02*
X0027250Y0123537D01*
X0101000Y0062287D02*
X0111000Y0072287D01*
X0111000Y0094787D01*
X0147250Y0063537D02*
X0156000Y0072287D01*
X0156000Y0094787D01*
D12*
X0016000Y0015100D03*
X0012562Y0168850D03*
X0217562Y0015725D03*
D13*
X0192250Y0063380D03*
X0192250Y0123380D03*
X0147250Y0123380D03*
X0102250Y0123380D03*
X0102250Y0063380D03*
X0147250Y0063380D03*
D14*
X0138274Y0034640D03*
X0156226Y0034640D03*
X0183274Y0034640D03*
X0201226Y0034640D03*
X0201226Y0094640D03*
X0183274Y0094640D03*
X0156226Y0094640D03*
X0138274Y0094640D03*
X0111226Y0094640D03*
X0093274Y0094640D03*
X0093274Y0034640D03*
X0111226Y0034640D03*
D15*
X0114750Y0247287D03*
X0104750Y0247287D03*
X0094750Y0247287D03*
X0084750Y0247287D03*
X0074750Y0247287D03*
X0064750Y0247287D03*
X0054750Y0247287D03*
X0044750Y0247287D03*
X0034750Y0247287D03*
X0024750Y0247287D03*
X0064750Y0282287D03*
X0074750Y0282287D03*
X0074750Y0292287D03*
X0064750Y0292287D03*
X0064750Y0307287D03*
X0054750Y0307287D03*
X0044750Y0307287D03*
X0034750Y0307287D03*
X0024750Y0307287D03*
X0074750Y0307287D03*
X0084750Y0307287D03*
X0094750Y0307287D03*
X0104750Y0307287D03*
X0114750Y0307287D03*
X0124750Y0307287D03*
X0134750Y0307287D03*
X0144750Y0307287D03*
X0154750Y0307287D03*
X0164750Y0307287D03*
X0174750Y0307287D03*
X0184750Y0307287D03*
X0194750Y0307287D03*
X0204750Y0307287D03*
X0214750Y0307287D03*
X0214750Y0247287D03*
X0204750Y0247287D03*
X0194750Y0247287D03*
X0184750Y0247287D03*
X0174750Y0247287D03*
X0164750Y0247287D03*
X0154750Y0247287D03*
X0144750Y0247287D03*
X0134750Y0247287D03*
X0124750Y0247287D03*
X0084750Y0282287D03*
X0084750Y0292287D03*
D16*
X0127654Y0227600D03*
X0134346Y0227600D03*
X0149216Y0229162D03*
X0155909Y0229162D03*
X0160154Y0158537D03*
X0166846Y0158537D03*
X0148096Y0158537D03*
X0141404Y0158537D03*
X0130596Y0158537D03*
X0123904Y0158537D03*
X0050596Y0158537D03*
X0043904Y0158537D03*
D17*
X0026830Y0219664D02*
X0026830Y0222410D01*
X0029576Y0222410D01*
X0029576Y0219664D01*
X0026830Y0219664D01*
X0026830Y0221554D02*
X0029576Y0221554D01*
X0019924Y0222410D02*
X0019924Y0219664D01*
X0019924Y0222410D02*
X0022670Y0222410D01*
X0022670Y0219664D01*
X0019924Y0219664D01*
X0019924Y0221554D02*
X0022670Y0221554D01*
D18*
X0044750Y0219787D03*
X0045375Y0196037D03*
X0064750Y0219787D03*
X0086000Y0219787D03*
X0086000Y0195725D03*
X0189125Y0197287D03*
X0204125Y0197287D03*
X0219125Y0197287D03*
D19*
X0062250Y0078695D03*
X0027250Y0078695D03*
D20*
X0027250Y0098380D03*
X0062250Y0098380D03*
D21*
X0086000Y0100634D03*
X0086000Y0093941D03*
X0102250Y0140191D03*
X0102250Y0146884D03*
X0131000Y0100634D03*
X0131000Y0093941D03*
X0147250Y0140191D03*
X0147250Y0146884D03*
X0176000Y0100634D03*
X0176000Y0093941D03*
X0192250Y0140191D03*
X0192250Y0146884D03*
X0052250Y0146884D03*
X0052250Y0140191D03*
X0042250Y0140191D03*
X0042250Y0146884D03*
D22*
X0033175Y0123537D02*
X0021325Y0123537D01*
X0021325Y0053537D02*
X0033175Y0053537D01*
D23*
X0102250Y0016037D03*
X0147250Y0016037D03*
X0192250Y0016037D03*
D24*
X0216750Y0087287D02*
X0222750Y0087287D01*
X0222750Y0097287D02*
X0216750Y0097287D01*
X0216750Y0107287D02*
X0222750Y0107287D01*
X0222750Y0117287D02*
X0216750Y0117287D01*
X0216750Y0132287D02*
X0222750Y0132287D01*
X0222750Y0142287D02*
X0216750Y0142287D01*
X0216750Y0152287D02*
X0222750Y0152287D01*
X0222750Y0162287D02*
X0216750Y0162287D01*
X0216750Y0172287D02*
X0222750Y0172287D01*
X0222750Y0182287D02*
X0216750Y0182287D01*
M02*
