G75*
%MOIN*%
%OFA0B0*%
%FSLAX25Y25*%
%IPPOS*%
%LPD*%
%AMOC8*
5,1,8,0,0,1.08239X$1,22.5*
%
%ADD10R,0.21260X0.24409*%
%ADD11R,0.03937X0.06299*%
%ADD12OC8,0.07600*%
%ADD13R,0.04331X0.03937*%
%ADD14C,0.01181*%
%ADD15C,0.06299*%
%ADD16C,0.07600*%
%ADD17R,0.07600X0.07600*%
%ADD18R,0.03937X0.04331*%
%ADD19C,0.11850*%
%ADD20R,0.10000X0.20000*%
%ADD21C,0.06000*%
%ADD22C,0.00500*%
%ADD23C,0.02978*%
%ADD24C,0.04000*%
%ADD25C,0.00600*%
%ADD26C,0.02000*%
%ADD27C,0.01500*%
%ADD28C,0.01200*%
%ADD29C,0.20000*%
%ADD30C,0.11000*%
%ADD31C,0.02500*%
%ADD32C,0.00200*%
%ADD33C,0.01000*%
%ADD34C,0.07000*%
D10*
X0134500Y0084343D03*
X0179500Y0084343D03*
X0224500Y0084343D03*
X0224500Y0144343D03*
X0179500Y0144343D03*
X0134500Y0144343D03*
D11*
X0125524Y0115602D03*
X0143476Y0115602D03*
X0170524Y0115602D03*
X0188476Y0115602D03*
X0215524Y0115602D03*
X0233476Y0115602D03*
X0233476Y0055602D03*
X0215524Y0055602D03*
X0188476Y0055602D03*
X0170524Y0055602D03*
X0143476Y0055602D03*
X0125524Y0055602D03*
D12*
X0127000Y0268250D03*
X0117000Y0268250D03*
X0107000Y0268250D03*
X0097000Y0268250D03*
X0087000Y0268250D03*
X0077000Y0268250D03*
X0067000Y0268250D03*
X0057000Y0268250D03*
X0097000Y0303250D03*
X0097000Y0313250D03*
X0107000Y0313250D03*
X0107000Y0303250D03*
X0117000Y0303250D03*
X0117000Y0313250D03*
X0117000Y0328250D03*
X0107000Y0328250D03*
X0097000Y0328250D03*
X0087000Y0328250D03*
X0077000Y0328250D03*
X0067000Y0328250D03*
X0057000Y0328250D03*
X0127000Y0328250D03*
X0137000Y0328250D03*
X0147000Y0328250D03*
X0157000Y0328250D03*
X0167000Y0328250D03*
X0177000Y0328250D03*
X0187000Y0328250D03*
X0197000Y0328250D03*
X0207000Y0328250D03*
X0217000Y0328250D03*
X0227000Y0328250D03*
X0237000Y0328250D03*
X0247000Y0328250D03*
X0247000Y0268250D03*
X0237000Y0268250D03*
X0227000Y0268250D03*
X0217000Y0268250D03*
X0207000Y0268250D03*
X0197000Y0268250D03*
X0187000Y0268250D03*
X0177000Y0268250D03*
X0167000Y0268250D03*
X0157000Y0268250D03*
X0147000Y0268250D03*
X0137000Y0268250D03*
D13*
X0159904Y0248562D03*
X0166596Y0248562D03*
X0181466Y0250125D03*
X0188159Y0250125D03*
X0192404Y0179500D03*
X0199096Y0179500D03*
X0180346Y0179500D03*
X0173654Y0179500D03*
X0162846Y0179500D03*
X0156154Y0179500D03*
X0082846Y0179500D03*
X0076154Y0179500D03*
D14*
X0059075Y0240622D02*
X0059075Y0243378D01*
X0061831Y0243378D01*
X0061831Y0240622D01*
X0059075Y0240622D01*
X0059075Y0241744D02*
X0061831Y0241744D01*
X0061831Y0242866D02*
X0059075Y0242866D01*
X0052169Y0243378D02*
X0052169Y0240622D01*
X0052169Y0243378D02*
X0054925Y0243378D01*
X0054925Y0240622D01*
X0052169Y0240622D01*
X0052169Y0241744D02*
X0054925Y0241744D01*
X0054925Y0242866D02*
X0052169Y0242866D01*
D15*
X0077000Y0240750D03*
X0097000Y0240750D03*
X0118250Y0240750D03*
X0118250Y0216687D03*
X0077625Y0217000D03*
X0221375Y0218250D03*
X0236375Y0218250D03*
X0251375Y0218250D03*
D16*
X0094500Y0099657D03*
X0059500Y0099657D03*
D17*
X0059500Y0119343D03*
X0094500Y0119343D03*
D18*
X0118250Y0121596D03*
X0118250Y0114904D03*
X0134500Y0161154D03*
X0134500Y0167846D03*
X0163250Y0121596D03*
X0163250Y0114904D03*
X0179500Y0161154D03*
X0179500Y0167846D03*
X0208250Y0121596D03*
X0208250Y0114904D03*
X0224500Y0161154D03*
X0224500Y0167846D03*
X0084500Y0167846D03*
X0084500Y0161154D03*
X0074500Y0161154D03*
X0074500Y0167846D03*
D19*
X0065425Y0144500D02*
X0053575Y0144500D01*
X0053575Y0074500D02*
X0065425Y0074500D01*
D20*
X0134500Y0037000D03*
X0179500Y0037000D03*
X0224500Y0037000D03*
D21*
X0249000Y0108250D02*
X0255000Y0108250D01*
X0255000Y0118250D02*
X0249000Y0118250D01*
X0249000Y0128250D02*
X0255000Y0128250D01*
X0255000Y0138250D02*
X0249000Y0138250D01*
X0249000Y0153250D02*
X0255000Y0153250D01*
X0255000Y0163250D02*
X0249000Y0163250D01*
X0249000Y0173250D02*
X0255000Y0173250D01*
X0255000Y0183250D02*
X0249000Y0183250D01*
X0249000Y0193250D02*
X0255000Y0193250D01*
X0255000Y0203250D02*
X0249000Y0203250D01*
X0224500Y0161154D02*
X0224500Y0148250D01*
X0215524Y0115602D02*
X0214825Y0114904D01*
X0208250Y0114904D01*
X0179500Y0144343D02*
X0179500Y0161154D01*
X0170524Y0115602D02*
X0169825Y0114904D01*
X0163250Y0114904D01*
X0134500Y0144500D02*
X0134500Y0161154D01*
X0125524Y0115602D02*
X0124825Y0114904D01*
X0118250Y0114904D01*
D22*
X0149500Y0074500D02*
X0164500Y0074500D01*
X0164500Y0049500D01*
X0140850Y0049500D01*
X0140850Y0064500D01*
X0149500Y0064500D01*
X0149500Y0074500D01*
X0149500Y0074351D02*
X0164500Y0074351D01*
X0164500Y0073853D02*
X0149500Y0073853D01*
X0149500Y0073354D02*
X0164500Y0073354D01*
X0164500Y0072856D02*
X0149500Y0072856D01*
X0149500Y0072357D02*
X0164500Y0072357D01*
X0164500Y0071859D02*
X0149500Y0071859D01*
X0149500Y0071360D02*
X0164500Y0071360D01*
X0164500Y0070862D02*
X0149500Y0070862D01*
X0149500Y0070363D02*
X0164500Y0070363D01*
X0164500Y0069865D02*
X0149500Y0069865D01*
X0149500Y0069366D02*
X0164500Y0069366D01*
X0164500Y0068868D02*
X0149500Y0068868D01*
X0149500Y0068369D02*
X0164500Y0068369D01*
X0164500Y0067870D02*
X0149500Y0067870D01*
X0149500Y0067372D02*
X0164500Y0067372D01*
X0164500Y0066873D02*
X0149500Y0066873D01*
X0149500Y0066375D02*
X0164500Y0066375D01*
X0164500Y0065876D02*
X0149500Y0065876D01*
X0149500Y0065378D02*
X0164500Y0065378D01*
X0164500Y0064879D02*
X0149500Y0064879D01*
X0140850Y0064381D02*
X0164500Y0064381D01*
X0164500Y0063882D02*
X0140850Y0063882D01*
X0140850Y0063384D02*
X0164500Y0063384D01*
X0164500Y0062885D02*
X0140850Y0062885D01*
X0140850Y0062387D02*
X0164500Y0062387D01*
X0164500Y0061888D02*
X0140850Y0061888D01*
X0140850Y0061390D02*
X0164500Y0061390D01*
X0164500Y0060891D02*
X0140850Y0060891D01*
X0140850Y0060393D02*
X0164500Y0060393D01*
X0164500Y0059894D02*
X0140850Y0059894D01*
X0140850Y0059396D02*
X0164500Y0059396D01*
X0164500Y0058897D02*
X0140850Y0058897D01*
X0140850Y0058399D02*
X0164500Y0058399D01*
X0164500Y0057900D02*
X0140850Y0057900D01*
X0140850Y0057402D02*
X0164500Y0057402D01*
X0164500Y0056903D02*
X0140850Y0056903D01*
X0140850Y0056405D02*
X0164500Y0056405D01*
X0164500Y0055906D02*
X0140850Y0055906D01*
X0140850Y0055408D02*
X0164500Y0055408D01*
X0164500Y0054909D02*
X0140850Y0054909D01*
X0140850Y0054411D02*
X0164500Y0054411D01*
X0164500Y0053912D02*
X0140850Y0053912D01*
X0140850Y0053414D02*
X0164500Y0053414D01*
X0164500Y0052915D02*
X0140850Y0052915D01*
X0140850Y0052417D02*
X0164500Y0052417D01*
X0164500Y0051918D02*
X0140850Y0051918D01*
X0140850Y0051420D02*
X0164500Y0051420D01*
X0164500Y0050921D02*
X0140850Y0050921D01*
X0140850Y0050423D02*
X0164500Y0050423D01*
X0164500Y0049924D02*
X0140850Y0049924D01*
X0185850Y0049924D02*
X0209500Y0049924D01*
X0209500Y0049500D02*
X0185850Y0049500D01*
X0185850Y0064500D01*
X0194500Y0064500D01*
X0194500Y0074500D01*
X0206126Y0074500D01*
X0206301Y0074325D01*
X0207238Y0073388D01*
X0209500Y0073388D01*
X0209500Y0049500D01*
X0209500Y0050423D02*
X0185850Y0050423D01*
X0185850Y0050921D02*
X0209500Y0050921D01*
X0209500Y0051420D02*
X0185850Y0051420D01*
X0185850Y0051918D02*
X0209500Y0051918D01*
X0209500Y0052417D02*
X0185850Y0052417D01*
X0185850Y0052915D02*
X0209500Y0052915D01*
X0209500Y0053414D02*
X0185850Y0053414D01*
X0185850Y0053912D02*
X0209500Y0053912D01*
X0209500Y0054411D02*
X0185850Y0054411D01*
X0185850Y0054909D02*
X0209500Y0054909D01*
X0209500Y0055408D02*
X0185850Y0055408D01*
X0185850Y0055906D02*
X0209500Y0055906D01*
X0209500Y0056405D02*
X0185850Y0056405D01*
X0185850Y0056903D02*
X0209500Y0056903D01*
X0209500Y0057402D02*
X0185850Y0057402D01*
X0185850Y0057900D02*
X0209500Y0057900D01*
X0209500Y0058399D02*
X0185850Y0058399D01*
X0185850Y0058897D02*
X0209500Y0058897D01*
X0209500Y0059396D02*
X0185850Y0059396D01*
X0185850Y0059894D02*
X0209500Y0059894D01*
X0209500Y0060393D02*
X0185850Y0060393D01*
X0185850Y0060891D02*
X0209500Y0060891D01*
X0209500Y0061390D02*
X0185850Y0061390D01*
X0185850Y0061888D02*
X0209500Y0061888D01*
X0209500Y0062387D02*
X0185850Y0062387D01*
X0185850Y0062885D02*
X0209500Y0062885D01*
X0209500Y0063384D02*
X0185850Y0063384D01*
X0185850Y0063882D02*
X0209500Y0063882D01*
X0209500Y0064381D02*
X0185850Y0064381D01*
X0194500Y0064879D02*
X0209500Y0064879D01*
X0209500Y0065378D02*
X0194500Y0065378D01*
X0194500Y0065876D02*
X0209500Y0065876D01*
X0209500Y0066375D02*
X0194500Y0066375D01*
X0194500Y0066873D02*
X0209500Y0066873D01*
X0209500Y0067372D02*
X0194500Y0067372D01*
X0194500Y0067870D02*
X0209500Y0067870D01*
X0209500Y0068369D02*
X0194500Y0068369D01*
X0194500Y0068868D02*
X0209500Y0068868D01*
X0209500Y0069366D02*
X0194500Y0069366D01*
X0194500Y0069865D02*
X0209500Y0069865D01*
X0209500Y0070363D02*
X0194500Y0070363D01*
X0194500Y0070862D02*
X0209500Y0070862D01*
X0209500Y0071360D02*
X0194500Y0071360D01*
X0194500Y0071859D02*
X0209500Y0071859D01*
X0209500Y0072357D02*
X0194500Y0072357D01*
X0194500Y0072856D02*
X0209500Y0072856D01*
X0209500Y0073354D02*
X0194500Y0073354D01*
X0194500Y0073853D02*
X0206773Y0073853D01*
X0206275Y0074351D02*
X0194500Y0074351D01*
X0230850Y0064500D02*
X0230850Y0049500D01*
X0254500Y0049500D01*
X0254500Y0074500D01*
X0239500Y0074500D01*
X0239500Y0064500D01*
X0230850Y0064500D01*
X0230850Y0064381D02*
X0254500Y0064381D01*
X0254500Y0064879D02*
X0239500Y0064879D01*
X0239500Y0065378D02*
X0254500Y0065378D01*
X0254500Y0065876D02*
X0239500Y0065876D01*
X0239500Y0066375D02*
X0254500Y0066375D01*
X0254500Y0066873D02*
X0239500Y0066873D01*
X0239500Y0067372D02*
X0254500Y0067372D01*
X0254500Y0067870D02*
X0239500Y0067870D01*
X0239500Y0068369D02*
X0254500Y0068369D01*
X0254500Y0068868D02*
X0239500Y0068868D01*
X0239500Y0069366D02*
X0254500Y0069366D01*
X0254500Y0069865D02*
X0239500Y0069865D01*
X0239500Y0070363D02*
X0254500Y0070363D01*
X0254500Y0070862D02*
X0239500Y0070862D01*
X0239500Y0071360D02*
X0254500Y0071360D01*
X0254500Y0071859D02*
X0239500Y0071859D01*
X0239500Y0072357D02*
X0254500Y0072357D01*
X0254500Y0072856D02*
X0239500Y0072856D01*
X0239500Y0073354D02*
X0254500Y0073354D01*
X0254500Y0073853D02*
X0239500Y0073853D01*
X0239500Y0074351D02*
X0254500Y0074351D01*
X0254500Y0063882D02*
X0230850Y0063882D01*
X0230850Y0063384D02*
X0254500Y0063384D01*
X0254500Y0062885D02*
X0230850Y0062885D01*
X0230850Y0062387D02*
X0254500Y0062387D01*
X0254500Y0061888D02*
X0230850Y0061888D01*
X0230850Y0061390D02*
X0254500Y0061390D01*
X0254500Y0060891D02*
X0230850Y0060891D01*
X0230850Y0060393D02*
X0254500Y0060393D01*
X0254500Y0059894D02*
X0230850Y0059894D01*
X0230850Y0059396D02*
X0254500Y0059396D01*
X0254500Y0058897D02*
X0230850Y0058897D01*
X0230850Y0058399D02*
X0254500Y0058399D01*
X0254500Y0057900D02*
X0230850Y0057900D01*
X0230850Y0057402D02*
X0254500Y0057402D01*
X0254500Y0056903D02*
X0230850Y0056903D01*
X0230850Y0056405D02*
X0254500Y0056405D01*
X0254500Y0055906D02*
X0230850Y0055906D01*
X0230850Y0055408D02*
X0254500Y0055408D01*
X0254500Y0054909D02*
X0230850Y0054909D01*
X0230850Y0054411D02*
X0254500Y0054411D01*
X0254500Y0053912D02*
X0230850Y0053912D01*
X0230850Y0053414D02*
X0254500Y0053414D01*
X0254500Y0052915D02*
X0230850Y0052915D01*
X0230850Y0052417D02*
X0254500Y0052417D01*
X0254500Y0051918D02*
X0230850Y0051918D01*
X0230850Y0051420D02*
X0254500Y0051420D01*
X0254500Y0050921D02*
X0230850Y0050921D01*
X0230850Y0050423D02*
X0254500Y0050423D01*
X0254500Y0049924D02*
X0230850Y0049924D01*
D23*
X0239500Y0054500D03*
X0239500Y0059500D03*
X0239500Y0064500D03*
X0239500Y0069500D03*
X0244500Y0069500D03*
X0244500Y0064500D03*
X0244500Y0059500D03*
X0244500Y0054500D03*
X0249500Y0054500D03*
X0249500Y0059500D03*
X0249500Y0064500D03*
X0249500Y0069500D03*
X0221375Y0100750D03*
X0214812Y0103562D03*
X0205750Y0103250D03*
X0208250Y0126062D03*
X0207818Y0129812D03*
X0204240Y0129754D03*
X0217000Y0144500D03*
X0217000Y0148250D03*
X0220750Y0148250D03*
X0220750Y0144500D03*
X0224500Y0144500D03*
X0224500Y0148250D03*
X0252000Y0158339D03*
X0245900Y0178700D03*
X0221300Y0184100D03*
X0243500Y0215300D03*
X0255500Y0212900D03*
X0213685Y0239500D03*
X0213685Y0243250D03*
X0200900Y0235100D03*
X0194923Y0239812D03*
X0196313Y0243250D03*
X0191300Y0241100D03*
X0184700Y0234500D03*
X0176900Y0239300D03*
X0176300Y0224300D03*
X0172700Y0224300D03*
X0178250Y0218250D03*
X0175750Y0214500D03*
X0180750Y0212000D03*
X0184500Y0215750D03*
X0184700Y0224300D03*
X0188300Y0224300D03*
X0193100Y0224300D03*
X0164300Y0218900D03*
X0162500Y0224300D03*
X0154100Y0229100D03*
X0157100Y0234500D03*
X0160700Y0234500D03*
X0158900Y0241100D03*
X0154100Y0236900D03*
X0136700Y0222500D03*
X0149300Y0211700D03*
X0152900Y0211700D03*
X0157700Y0194300D03*
X0160750Y0191922D03*
X0159500Y0185744D03*
X0173250Y0184500D03*
X0177645Y0173250D03*
X0185750Y0171935D03*
X0185423Y0183250D03*
X0191661Y0186080D03*
X0155014Y0171935D03*
X0157000Y0132000D03*
X0150750Y0127000D03*
X0163250Y0127000D03*
X0179719Y0129500D03*
X0182618Y0126368D03*
X0184547Y0129500D03*
X0163942Y0102937D03*
X0162000Y0078250D03*
X0166781Y0078250D03*
X0159500Y0069500D03*
X0159500Y0064500D03*
X0159500Y0059500D03*
X0159500Y0054500D03*
X0154500Y0054500D03*
X0154500Y0059500D03*
X0149500Y0059500D03*
X0149500Y0054500D03*
X0149500Y0064500D03*
X0149500Y0069500D03*
X0154500Y0069500D03*
X0154500Y0064500D03*
X0148250Y0078250D03*
X0124500Y0070049D03*
X0125750Y0042000D03*
X0170750Y0040750D03*
X0194500Y0054500D03*
X0194500Y0059500D03*
X0199500Y0059500D03*
X0199500Y0054500D03*
X0204500Y0054500D03*
X0204500Y0059500D03*
X0204500Y0064500D03*
X0204500Y0069500D03*
X0199500Y0069500D03*
X0199500Y0064500D03*
X0194500Y0064500D03*
X0194500Y0069500D03*
X0193250Y0078250D03*
X0205499Y0078250D03*
X0209077Y0077827D03*
X0215750Y0040750D03*
X0132000Y0129500D03*
X0118250Y0127000D03*
X0101300Y0233900D03*
X0123500Y0240500D03*
X0137900Y0279500D03*
X0174500Y0256700D03*
X0184100Y0262100D03*
X0211100Y0277100D03*
X0214700Y0277100D03*
X0207500Y0297500D03*
X0197300Y0304100D03*
X0191300Y0320900D03*
X0237000Y0282000D03*
D24*
X0224500Y0167846D02*
X0179500Y0167846D01*
X0134500Y0167846D01*
X0118246Y0184100D01*
X0116996Y0184100D01*
X0079636Y0184100D01*
X0078081Y0182545D01*
X0078081Y0181428D01*
X0076154Y0179500D01*
X0074500Y0177846D01*
X0074500Y0167846D01*
X0072572Y0165919D01*
X0062938Y0165919D01*
X0045050Y0148031D01*
X0045050Y0140969D01*
X0049500Y0136519D01*
X0049500Y0104500D01*
X0054343Y0099657D01*
X0059500Y0099657D01*
X0073673Y0150327D02*
X0084500Y0161154D01*
X0086428Y0163081D01*
X0087545Y0163081D01*
X0089069Y0164604D01*
X0089069Y0173278D01*
X0082846Y0179500D01*
D25*
X0078550Y0209850D02*
X0063500Y0224900D01*
X0063500Y0265100D01*
X0062300Y0266300D01*
X0062300Y0275300D01*
X0095300Y0308300D01*
X0124100Y0308300D01*
X0142100Y0326300D01*
X0142100Y0330500D01*
X0145100Y0333500D01*
X0151700Y0333500D01*
X0156500Y0328700D01*
X0157000Y0328250D01*
X0147000Y0328250D02*
X0146900Y0328100D01*
X0146900Y0326300D01*
X0101900Y0281300D01*
X0101900Y0266300D01*
X0092900Y0257300D01*
X0092900Y0238700D01*
X0095300Y0236300D01*
X0102500Y0236300D01*
X0104900Y0233900D01*
X0122300Y0233900D01*
X0129500Y0241100D01*
X0158900Y0241100D01*
X0154100Y0236900D02*
X0127100Y0236900D01*
X0122900Y0232700D01*
X0102500Y0232700D01*
X0101300Y0233900D01*
X0103700Y0240500D02*
X0109100Y0235100D01*
X0121700Y0235100D01*
X0139700Y0253100D01*
X0190700Y0253100D01*
X0191300Y0252500D01*
X0191300Y0247700D01*
X0187100Y0243500D01*
X0187100Y0229700D01*
X0184700Y0227300D01*
X0184700Y0224300D01*
X0187100Y0221900D02*
X0189500Y0221900D01*
X0190700Y0223100D01*
X0190700Y0228500D01*
X0191300Y0229100D01*
X0191300Y0241100D01*
X0188300Y0242900D02*
X0192500Y0247100D01*
X0192500Y0253100D01*
X0191300Y0254300D01*
X0131900Y0254300D01*
X0131300Y0254300D01*
X0130925Y0254675D01*
X0130925Y0254675D01*
X0117500Y0268100D01*
X0117000Y0268250D01*
X0112100Y0270500D02*
X0115100Y0273500D01*
X0191900Y0273500D01*
X0196700Y0268700D01*
X0197000Y0268250D01*
X0202100Y0266300D02*
X0192500Y0256700D01*
X0174500Y0256700D01*
X0181100Y0250100D02*
X0181466Y0250125D01*
X0181100Y0250100D02*
X0181100Y0247100D01*
X0172700Y0238700D01*
X0172700Y0224300D01*
X0176300Y0224300D02*
X0166100Y0214100D01*
X0151700Y0214100D01*
X0149300Y0211700D01*
X0152900Y0211700D02*
X0167300Y0211700D01*
X0184700Y0229100D01*
X0184700Y0234500D01*
X0188300Y0242900D02*
X0188300Y0224300D01*
X0187100Y0221900D02*
X0185300Y0220100D01*
X0221300Y0184100D01*
X0244700Y0177500D02*
X0245900Y0178700D01*
X0244700Y0177500D02*
X0244700Y0151700D01*
X0251900Y0144500D01*
X0251900Y0138500D01*
X0252000Y0138250D01*
X0243500Y0137900D02*
X0243500Y0215300D01*
X0236900Y0218300D02*
X0236375Y0218250D01*
X0236900Y0218300D02*
X0236900Y0251300D01*
X0251900Y0266300D01*
X0251900Y0270500D01*
X0248900Y0273500D01*
X0205100Y0273500D01*
X0202100Y0270500D01*
X0202100Y0266300D01*
X0211100Y0277100D02*
X0213500Y0274700D01*
X0249500Y0274700D01*
X0255500Y0268700D01*
X0255500Y0216500D01*
X0244700Y0205700D01*
X0244700Y0191900D01*
X0251900Y0184700D01*
X0251900Y0183500D01*
X0252000Y0183250D01*
X0252000Y0203250D02*
X0252500Y0203300D01*
X0252500Y0206300D01*
X0257900Y0211700D01*
X0257900Y0269900D01*
X0248300Y0279500D01*
X0137900Y0279500D01*
X0147000Y0268250D02*
X0147500Y0268100D01*
X0153500Y0262100D01*
X0184100Y0262100D01*
X0187700Y0250100D02*
X0188159Y0250125D01*
X0187700Y0250100D02*
X0176900Y0239300D01*
X0162500Y0224300D02*
X0154700Y0224300D01*
X0152900Y0222500D01*
X0136700Y0222500D01*
X0132550Y0218900D02*
X0123500Y0209850D01*
X0078550Y0209850D01*
X0094700Y0217100D02*
X0072500Y0239300D01*
X0072500Y0263900D01*
X0076700Y0268100D01*
X0077000Y0268250D01*
X0056900Y0275300D02*
X0056900Y0275750D01*
X0097000Y0240750D02*
X0097100Y0240500D01*
X0112100Y0241100D02*
X0112100Y0270500D01*
X0131425Y0253825D02*
X0131900Y0254300D01*
X0131425Y0253825D02*
X0118700Y0241100D01*
X0118250Y0240750D01*
X0122300Y0239300D02*
X0122300Y0238700D01*
X0119900Y0236300D01*
X0116900Y0236300D01*
X0112100Y0241100D01*
X0122300Y0239300D02*
X0123500Y0240500D01*
X0130700Y0229100D02*
X0118700Y0217100D01*
X0118250Y0216687D01*
X0118100Y0217100D01*
X0094700Y0217100D01*
X0132550Y0218900D02*
X0164300Y0218900D01*
X0154100Y0229100D02*
X0130700Y0229100D01*
X0157700Y0194300D02*
X0159500Y0194300D01*
X0185225Y0220025D01*
X0185225Y0220025D01*
X0185300Y0220100D01*
X0214700Y0277100D02*
X0248900Y0277100D01*
X0256700Y0269300D01*
X0256700Y0215900D01*
X0255500Y0214700D01*
X0255500Y0212900D01*
X0224500Y0148250D02*
X0224500Y0144500D01*
X0224500Y0144343D01*
X0220750Y0148093D01*
X0220750Y0148250D01*
X0243500Y0137900D02*
X0251900Y0129500D01*
X0251900Y0128300D01*
X0252000Y0128250D01*
X0134900Y0037100D02*
X0134500Y0037100D01*
X0134500Y0037000D02*
X0134900Y0037100D01*
X0207500Y0297500D02*
X0207500Y0328100D01*
X0207000Y0328250D01*
X0197300Y0328100D02*
X0197000Y0328250D01*
X0197300Y0328100D02*
X0197300Y0304100D01*
X0191300Y0320900D02*
X0184700Y0320900D01*
X0177500Y0328100D01*
X0177000Y0328250D01*
D26*
X0237000Y0282000D02*
X0237600Y0281400D01*
X0249087Y0281400D01*
X0259800Y0270687D01*
X0259800Y0161545D01*
X0252000Y0153745D01*
X0252000Y0153250D01*
X0252000Y0147755D01*
X0259600Y0140155D01*
X0259600Y0116345D01*
X0252000Y0108745D01*
X0252000Y0108250D01*
X0208250Y0121596D02*
X0208250Y0126062D01*
X0252000Y0158339D02*
X0252000Y0163250D01*
X0252000Y0173250D01*
X0157000Y0132000D02*
X0155076Y0130076D01*
X0155076Y0088514D01*
X0148250Y0081688D01*
X0148250Y0078250D01*
X0170524Y0055602D02*
X0170524Y0040976D01*
X0170750Y0040750D01*
X0215524Y0040976D02*
X0215524Y0055602D01*
X0215524Y0040976D02*
X0215750Y0040750D01*
X0125750Y0042000D02*
X0125524Y0042226D01*
X0125524Y0055602D01*
X0118250Y0121596D02*
X0118250Y0127000D01*
D27*
X0132000Y0129500D02*
X0132000Y0106586D01*
X0122520Y0097106D01*
X0122520Y0071579D01*
X0123311Y0070788D01*
X0123761Y0070788D01*
X0124500Y0070049D01*
X0162000Y0078250D02*
X0162000Y0100995D01*
X0163942Y0102937D01*
X0166781Y0104833D02*
X0177126Y0115178D01*
X0177126Y0120304D01*
X0179719Y0122896D01*
X0179719Y0129500D01*
X0184547Y0129500D02*
X0190630Y0129500D01*
X0199826Y0120304D01*
X0199826Y0088618D01*
X0193250Y0082041D01*
X0193250Y0078250D01*
X0205499Y0078250D02*
X0206238Y0077511D01*
X0206238Y0076651D01*
X0207901Y0074988D01*
X0210253Y0074988D01*
X0211916Y0076651D01*
X0211916Y0100666D01*
X0214812Y0103562D01*
X0209077Y0107925D02*
X0203900Y0113102D01*
X0203900Y0126040D01*
X0204240Y0126380D01*
X0204240Y0129754D01*
X0209077Y0107925D02*
X0209077Y0077827D01*
X0166781Y0078250D02*
X0166781Y0104833D01*
X0116996Y0184100D02*
X0148646Y0215750D01*
X0165165Y0215750D01*
X0167139Y0217724D01*
X0167139Y0224046D01*
X0166596Y0224589D01*
X0166596Y0248562D01*
X0161739Y0246727D02*
X0161739Y0239924D01*
X0160700Y0238885D01*
X0160700Y0234500D01*
X0161739Y0246727D02*
X0159904Y0248562D01*
X0131425Y0253825D02*
X0131375Y0253875D01*
X0118250Y0240750D01*
X0107000Y0243800D02*
X0103700Y0240500D01*
X0097100Y0240500D01*
X0107000Y0243800D02*
X0107000Y0268250D01*
X0117000Y0268250D02*
X0131375Y0253875D01*
X0097000Y0268250D02*
X0077000Y0248250D01*
X0077000Y0240750D01*
X0060453Y0242000D02*
X0060453Y0249047D01*
X0057500Y0252000D01*
X0057500Y0267750D01*
X0057000Y0268250D01*
X0053547Y0264420D02*
X0051850Y0266117D01*
X0051850Y0270383D01*
X0054867Y0273400D01*
X0055000Y0273400D01*
X0056900Y0275300D01*
X0056900Y0275750D02*
X0056900Y0328150D01*
X0057000Y0328250D01*
X0067000Y0328250D01*
X0053547Y0264420D02*
X0053547Y0242000D01*
X0053547Y0210188D01*
X0079636Y0184100D01*
D28*
X0082325Y0212300D02*
X0087000Y0212300D01*
X0087038Y0212338D01*
X0120052Y0212338D01*
X0122600Y0214886D01*
X0122600Y0215000D01*
X0134011Y0226411D01*
X0155214Y0226411D01*
X0156789Y0227986D01*
X0156789Y0234189D01*
X0157100Y0234500D01*
X0191300Y0241100D02*
X0193624Y0243424D01*
X0193624Y0244364D01*
X0195199Y0245939D01*
X0224689Y0245939D01*
X0247000Y0268250D01*
X0213685Y0239500D02*
X0195235Y0239500D01*
X0194923Y0239812D01*
X0200900Y0235100D02*
X0204525Y0235100D01*
X0221375Y0218250D01*
X0238177Y0213900D02*
X0203500Y0213900D01*
X0193100Y0224300D01*
X0160750Y0191922D02*
X0156154Y0187326D01*
X0156154Y0179500D01*
X0162846Y0179500D02*
X0155282Y0171935D01*
X0155014Y0171935D01*
X0162846Y0179500D02*
X0162846Y0182398D01*
X0159500Y0185744D01*
X0173250Y0184500D02*
X0173250Y0179904D01*
X0173654Y0179500D01*
X0180346Y0179500D02*
X0180346Y0175951D01*
X0177645Y0173250D01*
X0180346Y0179500D02*
X0185750Y0174096D01*
X0185750Y0171935D01*
X0189173Y0179500D02*
X0185423Y0183250D01*
X0189173Y0179500D02*
X0192404Y0179500D01*
X0198241Y0179500D02*
X0191661Y0186080D01*
X0198241Y0179500D02*
X0199096Y0179500D01*
X0207385Y0171212D01*
X0226966Y0171212D01*
X0236330Y0161847D01*
X0236330Y0131641D01*
X0233476Y0128787D01*
X0233476Y0115602D01*
X0221375Y0116740D02*
X0221375Y0100750D01*
X0221375Y0116740D02*
X0209364Y0128751D01*
X0208879Y0128751D01*
X0207818Y0129812D01*
X0188476Y0120510D02*
X0188476Y0115602D01*
X0188476Y0120510D02*
X0182618Y0126368D01*
X0163250Y0127000D02*
X0163250Y0121596D01*
X0150750Y0122876D02*
X0143476Y0115602D01*
X0150750Y0122876D02*
X0150750Y0127000D01*
X0199500Y0085750D02*
X0205750Y0092000D01*
X0205750Y0103250D01*
X0199500Y0085750D02*
X0199500Y0064500D01*
X0082325Y0212300D02*
X0077625Y0217000D01*
X0077625Y0232054D01*
X0071000Y0238679D01*
X0071000Y0264250D01*
X0067000Y0268250D01*
X0238177Y0213900D02*
X0242526Y0218250D01*
X0251375Y0218250D01*
D29*
X0224500Y0144343D02*
X0179500Y0144343D01*
X0149500Y0144343D01*
X0149343Y0144500D01*
X0134500Y0144500D01*
X0059500Y0144500D01*
X0134500Y0144343D02*
X0149500Y0144343D01*
X0143476Y0115602D02*
X0143476Y0093319D01*
X0134500Y0084343D01*
X0179500Y0084343D02*
X0188476Y0093319D01*
X0188476Y0115602D01*
X0224500Y0084343D02*
X0233476Y0093319D01*
X0233476Y0115602D01*
D30*
X0224500Y0084343D02*
X0224500Y0037000D01*
X0179500Y0037000D02*
X0179500Y0084343D01*
X0134500Y0084343D02*
X0134500Y0037100D01*
X0134500Y0037000D01*
D31*
X0067846Y0144500D02*
X0059500Y0144500D01*
X0067846Y0144500D02*
X0073673Y0150327D01*
X0074500Y0161154D02*
X0077750Y0161154D01*
X0081765Y0165169D01*
X0081822Y0165169D01*
X0084500Y0167846D01*
D32*
X0214500Y0155750D02*
X0214500Y0132000D01*
X0234500Y0132000D01*
X0234500Y0155750D01*
X0214500Y0155750D01*
X0214500Y0155716D02*
X0234500Y0155716D01*
X0234500Y0155517D02*
X0214500Y0155517D01*
X0214500Y0155319D02*
X0234500Y0155319D01*
X0234500Y0155120D02*
X0214500Y0155120D01*
X0214500Y0154922D02*
X0234500Y0154922D01*
X0234500Y0154723D02*
X0214500Y0154723D01*
X0214500Y0154525D02*
X0234500Y0154525D01*
X0234500Y0154326D02*
X0214500Y0154326D01*
X0214500Y0154128D02*
X0234500Y0154128D01*
X0234500Y0153929D02*
X0214500Y0153929D01*
X0214500Y0153731D02*
X0234500Y0153731D01*
X0234500Y0153532D02*
X0214500Y0153532D01*
X0214500Y0153334D02*
X0234500Y0153334D01*
X0234500Y0153135D02*
X0214500Y0153135D01*
X0214500Y0152937D02*
X0234500Y0152937D01*
X0234500Y0152738D02*
X0214500Y0152738D01*
X0214500Y0152540D02*
X0234500Y0152540D01*
X0234500Y0152341D02*
X0214500Y0152341D01*
X0214500Y0152143D02*
X0234500Y0152143D01*
X0234500Y0151944D02*
X0214500Y0151944D01*
X0214500Y0151746D02*
X0234500Y0151746D01*
X0234500Y0151547D02*
X0214500Y0151547D01*
X0214500Y0151349D02*
X0234500Y0151349D01*
X0234500Y0151150D02*
X0214500Y0151150D01*
X0214500Y0150952D02*
X0234500Y0150952D01*
X0234500Y0150753D02*
X0214500Y0150753D01*
X0214500Y0150555D02*
X0234500Y0150555D01*
X0234500Y0150356D02*
X0214500Y0150356D01*
X0214500Y0150158D02*
X0234500Y0150158D01*
X0234500Y0149959D02*
X0214500Y0149959D01*
X0214500Y0149761D02*
X0234500Y0149761D01*
X0234500Y0149562D02*
X0214500Y0149562D01*
X0214500Y0149364D02*
X0234500Y0149364D01*
X0234500Y0149165D02*
X0214500Y0149165D01*
X0214500Y0148967D02*
X0234500Y0148967D01*
X0234500Y0148768D02*
X0214500Y0148768D01*
X0214500Y0148570D02*
X0234500Y0148570D01*
X0234500Y0148371D02*
X0214500Y0148371D01*
X0214500Y0148173D02*
X0234500Y0148173D01*
X0234500Y0147974D02*
X0214500Y0147974D01*
X0214500Y0147776D02*
X0234500Y0147776D01*
X0234500Y0147577D02*
X0214500Y0147577D01*
X0214500Y0147379D02*
X0234500Y0147379D01*
X0234500Y0147180D02*
X0214500Y0147180D01*
X0214500Y0146981D02*
X0234500Y0146981D01*
X0234500Y0146783D02*
X0214500Y0146783D01*
X0214500Y0146584D02*
X0234500Y0146584D01*
X0234500Y0146386D02*
X0214500Y0146386D01*
X0214500Y0146187D02*
X0234500Y0146187D01*
X0234500Y0145989D02*
X0214500Y0145989D01*
X0214500Y0145790D02*
X0234500Y0145790D01*
X0234500Y0145592D02*
X0214500Y0145592D01*
X0214500Y0145393D02*
X0234500Y0145393D01*
X0234500Y0145195D02*
X0214500Y0145195D01*
X0214500Y0144996D02*
X0234500Y0144996D01*
X0234500Y0144798D02*
X0214500Y0144798D01*
X0214500Y0144599D02*
X0234500Y0144599D01*
X0234500Y0144401D02*
X0214500Y0144401D01*
X0214500Y0144202D02*
X0234500Y0144202D01*
X0234500Y0144004D02*
X0214500Y0144004D01*
X0214500Y0143805D02*
X0234500Y0143805D01*
X0234500Y0143607D02*
X0214500Y0143607D01*
X0214500Y0143408D02*
X0234500Y0143408D01*
X0234500Y0143210D02*
X0214500Y0143210D01*
X0214500Y0143011D02*
X0234500Y0143011D01*
X0234500Y0142813D02*
X0214500Y0142813D01*
X0214500Y0142614D02*
X0234500Y0142614D01*
X0234500Y0142416D02*
X0214500Y0142416D01*
X0214500Y0142217D02*
X0234500Y0142217D01*
X0234500Y0142019D02*
X0214500Y0142019D01*
X0214500Y0141820D02*
X0234500Y0141820D01*
X0234500Y0141622D02*
X0214500Y0141622D01*
X0214500Y0141423D02*
X0234500Y0141423D01*
X0234500Y0141225D02*
X0214500Y0141225D01*
X0214500Y0141026D02*
X0234500Y0141026D01*
X0234500Y0140828D02*
X0214500Y0140828D01*
X0214500Y0140629D02*
X0234500Y0140629D01*
X0234500Y0140431D02*
X0214500Y0140431D01*
X0214500Y0140232D02*
X0234500Y0140232D01*
X0234500Y0140034D02*
X0214500Y0140034D01*
X0214500Y0139835D02*
X0234500Y0139835D01*
X0234500Y0139637D02*
X0214500Y0139637D01*
X0214500Y0139438D02*
X0234500Y0139438D01*
X0234500Y0139240D02*
X0214500Y0139240D01*
X0214500Y0139041D02*
X0234500Y0139041D01*
X0234500Y0138843D02*
X0214500Y0138843D01*
X0214500Y0138644D02*
X0234500Y0138644D01*
X0234500Y0138445D02*
X0214500Y0138445D01*
X0214500Y0138247D02*
X0234500Y0138247D01*
X0234500Y0138048D02*
X0214500Y0138048D01*
X0214500Y0137850D02*
X0234500Y0137850D01*
X0234500Y0137651D02*
X0214500Y0137651D01*
X0214500Y0137453D02*
X0234500Y0137453D01*
X0234500Y0137254D02*
X0214500Y0137254D01*
X0214500Y0137056D02*
X0234500Y0137056D01*
X0234500Y0136857D02*
X0214500Y0136857D01*
X0214500Y0136659D02*
X0234500Y0136659D01*
X0234500Y0136460D02*
X0214500Y0136460D01*
X0214500Y0136262D02*
X0234500Y0136262D01*
X0234500Y0136063D02*
X0214500Y0136063D01*
X0214500Y0135865D02*
X0234500Y0135865D01*
X0234500Y0135666D02*
X0214500Y0135666D01*
X0214500Y0135468D02*
X0234500Y0135468D01*
X0234500Y0135269D02*
X0214500Y0135269D01*
X0214500Y0135071D02*
X0234500Y0135071D01*
X0234500Y0134872D02*
X0214500Y0134872D01*
X0214500Y0134674D02*
X0234500Y0134674D01*
X0234500Y0134475D02*
X0214500Y0134475D01*
X0214500Y0134277D02*
X0234500Y0134277D01*
X0234500Y0134078D02*
X0214500Y0134078D01*
X0214500Y0133880D02*
X0234500Y0133880D01*
X0234500Y0133681D02*
X0214500Y0133681D01*
X0214500Y0133483D02*
X0234500Y0133483D01*
X0234500Y0133284D02*
X0214500Y0133284D01*
X0214500Y0133086D02*
X0234500Y0133086D01*
X0234500Y0132887D02*
X0214500Y0132887D01*
X0214500Y0132689D02*
X0234500Y0132689D01*
X0234500Y0132490D02*
X0214500Y0132490D01*
X0214500Y0132292D02*
X0234500Y0132292D01*
X0234500Y0132093D02*
X0214500Y0132093D01*
D33*
X0213685Y0243250D02*
X0196313Y0243250D01*
D34*
X0319500Y0004500D02*
X0004500Y0004500D01*
X0004500Y0349500D01*
X0319500Y0349500D01*
X0319500Y0004500D01*
X0319500Y0010503D02*
X0004500Y0010503D01*
X0004500Y0017501D02*
X0040498Y0017501D01*
X0038380Y0018521D02*
X0043900Y0015863D01*
X0049872Y0014500D01*
X0243292Y0014500D01*
X0246271Y0014322D01*
X0246271Y0014322D01*
X0252600Y0015374D01*
X0258537Y0017809D01*
X0263783Y0021503D01*
X0268075Y0026272D01*
X0268075Y0026272D01*
X0271198Y0031877D01*
X0272996Y0038036D01*
X0273112Y0039980D01*
X0273201Y0040193D01*
X0273201Y0041461D01*
X0273276Y0042727D01*
X0273201Y0042946D01*
X0273201Y0319765D01*
X0273276Y0319983D01*
X0273201Y0321249D01*
X0273201Y0322517D01*
X0273112Y0322731D01*
X0272996Y0324675D01*
X0271198Y0330834D01*
X0268075Y0336439D01*
X0263783Y0341207D01*
X0263783Y0341207D01*
X0263783Y0341207D01*
X0258537Y0344902D01*
X0258537Y0344902D01*
X0252600Y0347336D01*
X0246271Y0348388D01*
X0243292Y0348211D01*
X0049872Y0348211D01*
X0043900Y0346847D01*
X0038380Y0344189D01*
X0033591Y0340370D01*
X0033591Y0340370D01*
X0029771Y0335580D01*
X0027113Y0330061D01*
X0025750Y0324089D01*
X0025750Y0319534D01*
X0025750Y0043177D01*
X0025750Y0038622D01*
X0027113Y0032650D01*
X0029771Y0027130D01*
X0033591Y0022341D01*
X0038380Y0018521D01*
X0038380Y0018521D01*
X0033591Y0022341D02*
X0033591Y0022341D01*
X0031869Y0024500D02*
X0004500Y0024500D01*
X0004500Y0031499D02*
X0027667Y0031499D01*
X0025779Y0038497D02*
X0004500Y0038497D01*
X0004500Y0045496D02*
X0025750Y0045496D01*
X0025750Y0052494D02*
X0004500Y0052494D01*
X0004500Y0059493D02*
X0025750Y0059493D01*
X0025750Y0066491D02*
X0004500Y0066491D01*
X0004500Y0073490D02*
X0025750Y0073490D01*
X0025750Y0080488D02*
X0004500Y0080488D01*
X0004500Y0087487D02*
X0025750Y0087487D01*
X0025750Y0094485D02*
X0004500Y0094485D01*
X0004500Y0101484D02*
X0025750Y0101484D01*
X0025750Y0108482D02*
X0004500Y0108482D01*
X0004500Y0115481D02*
X0025750Y0115481D01*
X0025750Y0122479D02*
X0004500Y0122479D01*
X0004500Y0129478D02*
X0025750Y0129478D01*
X0025750Y0136476D02*
X0004500Y0136476D01*
X0004500Y0143475D02*
X0025750Y0143475D01*
X0025750Y0150473D02*
X0004500Y0150473D01*
X0004500Y0157472D02*
X0025750Y0157472D01*
X0025750Y0164470D02*
X0004500Y0164470D01*
X0004500Y0171469D02*
X0025750Y0171469D01*
X0025750Y0178467D02*
X0004500Y0178467D01*
X0004500Y0185466D02*
X0025750Y0185466D01*
X0025750Y0192464D02*
X0004500Y0192464D01*
X0004500Y0199463D02*
X0025750Y0199463D01*
X0025750Y0206461D02*
X0004500Y0206461D01*
X0004500Y0213460D02*
X0025750Y0213460D01*
X0025750Y0220458D02*
X0004500Y0220458D01*
X0004500Y0227457D02*
X0025750Y0227457D01*
X0025750Y0234455D02*
X0004500Y0234455D01*
X0004500Y0241454D02*
X0025750Y0241454D01*
X0025750Y0248452D02*
X0004500Y0248452D01*
X0004500Y0255451D02*
X0025750Y0255451D01*
X0025750Y0262449D02*
X0004500Y0262449D01*
X0004500Y0269448D02*
X0025750Y0269448D01*
X0025750Y0276446D02*
X0004500Y0276446D01*
X0004500Y0283445D02*
X0025750Y0283445D01*
X0025750Y0290443D02*
X0004500Y0290443D01*
X0004500Y0297442D02*
X0025750Y0297442D01*
X0025750Y0304440D02*
X0004500Y0304440D01*
X0004500Y0311439D02*
X0025750Y0311439D01*
X0025750Y0318437D02*
X0004500Y0318437D01*
X0004500Y0325436D02*
X0026058Y0325436D01*
X0028256Y0332434D02*
X0004500Y0332434D01*
X0004500Y0339433D02*
X0032844Y0339433D01*
X0043036Y0346432D02*
X0004500Y0346432D01*
X0042618Y0327508D02*
X0041434Y0325050D01*
X0040827Y0322390D01*
X0040750Y0321026D01*
X0040750Y0202602D01*
X0043048Y0203218D01*
X0046577Y0203218D01*
X0049987Y0202304D01*
X0053044Y0200540D01*
X0055540Y0198044D01*
X0057304Y0194987D01*
X0058218Y0191577D01*
X0058218Y0188048D01*
X0057304Y0184638D01*
X0055540Y0181581D01*
X0053044Y0179085D01*
X0049987Y0177321D01*
X0046577Y0176407D01*
X0043048Y0176407D01*
X0040750Y0177023D01*
X0040750Y0152358D01*
X0059482Y0171090D01*
X0061724Y0172019D01*
X0068400Y0172019D01*
X0068400Y0179060D01*
X0069329Y0181302D01*
X0069888Y0181861D01*
X0069888Y0182284D01*
X0070512Y0183791D01*
X0071666Y0184944D01*
X0071854Y0185022D01*
X0049436Y0207441D01*
X0048697Y0209224D01*
X0048697Y0237461D01*
X0048193Y0237965D01*
X0047479Y0239689D01*
X0047479Y0244311D01*
X0048193Y0246035D01*
X0048697Y0246539D01*
X0048697Y0262411D01*
X0047738Y0263369D01*
X0047000Y0265152D01*
X0047000Y0271348D01*
X0047738Y0273131D01*
X0050755Y0276147D01*
X0052050Y0277442D01*
X0052050Y0322028D01*
X0049100Y0324978D01*
X0049100Y0331522D01*
X0050458Y0332880D01*
X0048911Y0332527D01*
X0046452Y0331343D01*
X0046452Y0331343D01*
X0044319Y0329642D01*
X0042618Y0327508D01*
X0041620Y0325436D02*
X0049100Y0325436D01*
X0048719Y0332434D02*
X0050012Y0332434D01*
X0052050Y0318437D02*
X0040750Y0318437D01*
X0040750Y0311439D02*
X0052050Y0311439D01*
X0052050Y0304440D02*
X0040750Y0304440D01*
X0040750Y0297442D02*
X0052050Y0297442D01*
X0052050Y0290443D02*
X0040750Y0290443D01*
X0040750Y0283445D02*
X0052050Y0283445D01*
X0051054Y0276446D02*
X0040750Y0276446D01*
X0040750Y0269448D02*
X0047000Y0269448D01*
X0048658Y0262449D02*
X0040750Y0262449D01*
X0040750Y0255451D02*
X0048697Y0255451D01*
X0048697Y0248452D02*
X0040750Y0248452D01*
X0040750Y0241454D02*
X0047479Y0241454D01*
X0048697Y0234455D02*
X0040750Y0234455D01*
X0040750Y0227457D02*
X0048697Y0227457D01*
X0048697Y0220458D02*
X0040750Y0220458D01*
X0040750Y0213460D02*
X0048697Y0213460D01*
X0050415Y0206461D02*
X0040750Y0206461D01*
X0054120Y0199463D02*
X0057414Y0199463D01*
X0057980Y0192464D02*
X0064412Y0192464D01*
X0071132Y0199463D02*
X0125500Y0199463D01*
X0124375Y0205450D02*
X0125992Y0206120D01*
X0127230Y0207358D01*
X0134373Y0214500D01*
X0140538Y0214500D01*
X0116238Y0190200D01*
X0080395Y0190200D01*
X0058397Y0212197D01*
X0058397Y0235931D01*
X0059100Y0235931D01*
X0059100Y0224025D01*
X0059770Y0222408D01*
X0061008Y0221170D01*
X0076058Y0206120D01*
X0077675Y0205450D01*
X0124375Y0205450D01*
X0126334Y0206461D02*
X0132499Y0206461D01*
X0133332Y0213460D02*
X0139497Y0213460D01*
X0146217Y0206461D02*
X0147343Y0206461D01*
X0146546Y0206791D02*
X0148188Y0206111D01*
X0150412Y0206111D01*
X0151100Y0206396D01*
X0151788Y0206111D01*
X0154012Y0206111D01*
X0156066Y0206962D01*
X0156404Y0207300D01*
X0166277Y0207300D01*
X0158850Y0199873D01*
X0158812Y0199889D01*
X0156588Y0199889D01*
X0154534Y0199038D01*
X0152962Y0197466D01*
X0152111Y0195412D01*
X0152111Y0193188D01*
X0152962Y0191134D01*
X0153139Y0190957D01*
X0152169Y0189988D01*
X0151454Y0188260D01*
X0151454Y0184732D01*
X0150512Y0183791D01*
X0149888Y0182284D01*
X0149888Y0176716D01*
X0150475Y0175300D01*
X0150276Y0175101D01*
X0149797Y0173946D01*
X0137683Y0173946D01*
X0137284Y0174112D01*
X0136861Y0174112D01*
X0125364Y0185609D01*
X0146546Y0206791D01*
X0154857Y0206461D02*
X0165439Y0206461D01*
X0170885Y0199463D02*
X0199715Y0199463D01*
X0205161Y0206461D02*
X0239100Y0206461D01*
X0239100Y0209200D02*
X0239100Y0165724D01*
X0238992Y0165832D01*
X0229628Y0175196D01*
X0227900Y0175912D01*
X0209331Y0175912D01*
X0205362Y0179881D01*
X0205362Y0182284D01*
X0204738Y0183791D01*
X0203584Y0184944D01*
X0202077Y0185568D01*
X0198819Y0185568D01*
X0197250Y0187138D01*
X0197250Y0187192D01*
X0196399Y0189246D01*
X0194827Y0190818D01*
X0192773Y0191669D01*
X0190549Y0191669D01*
X0188495Y0190818D01*
X0186923Y0189246D01*
X0186722Y0188761D01*
X0186535Y0188839D01*
X0184312Y0188839D01*
X0182257Y0187988D01*
X0180685Y0186416D01*
X0180334Y0185568D01*
X0178839Y0185568D01*
X0178839Y0185612D01*
X0177988Y0187666D01*
X0176416Y0189238D01*
X0174362Y0190089D01*
X0172138Y0190089D01*
X0170084Y0189238D01*
X0168512Y0187666D01*
X0167661Y0185612D01*
X0167661Y0184618D01*
X0167334Y0184944D01*
X0166672Y0185218D01*
X0165509Y0186382D01*
X0165089Y0186802D01*
X0165089Y0186856D01*
X0164649Y0187917D01*
X0165488Y0188756D01*
X0166339Y0190810D01*
X0166339Y0193034D01*
X0165788Y0194365D01*
X0178362Y0206940D01*
X0179638Y0206411D01*
X0181862Y0206411D01*
X0183916Y0207262D01*
X0185488Y0208834D01*
X0186126Y0210374D01*
X0187666Y0211012D01*
X0187916Y0211262D01*
X0215711Y0183466D01*
X0215711Y0182988D01*
X0216562Y0180934D01*
X0218134Y0179362D01*
X0220188Y0178511D01*
X0222412Y0178511D01*
X0224466Y0179362D01*
X0226038Y0180934D01*
X0226889Y0182988D01*
X0226889Y0185212D01*
X0226038Y0187266D01*
X0224466Y0188838D01*
X0222412Y0189689D01*
X0221934Y0189689D01*
X0202321Y0209301D01*
X0202565Y0209200D01*
X0239100Y0209200D01*
X0239100Y0199463D02*
X0212160Y0199463D01*
X0206713Y0192464D02*
X0166339Y0192464D01*
X0166425Y0185466D02*
X0167661Y0185466D01*
X0168250Y0174971D02*
X0169166Y0174056D01*
X0169429Y0173946D01*
X0167071Y0173946D01*
X0167334Y0174056D01*
X0168250Y0174971D01*
X0172400Y0161746D02*
X0172400Y0160647D01*
X0168055Y0160647D01*
X0166548Y0160023D01*
X0165394Y0158870D01*
X0165217Y0158443D01*
X0151787Y0158443D01*
X0151199Y0158600D01*
X0148717Y0158600D01*
X0148606Y0158870D01*
X0147452Y0160023D01*
X0145945Y0160647D01*
X0141600Y0160647D01*
X0141600Y0161746D01*
X0172400Y0161746D01*
X0186600Y0161746D02*
X0217400Y0161746D01*
X0217400Y0160647D01*
X0213055Y0160647D01*
X0211548Y0160023D01*
X0210394Y0158870D01*
X0210217Y0158443D01*
X0193783Y0158443D01*
X0193606Y0158870D01*
X0192452Y0160023D01*
X0190945Y0160647D01*
X0186600Y0160647D01*
X0186600Y0161746D01*
X0206776Y0178467D02*
X0239100Y0178467D01*
X0239100Y0171469D02*
X0233355Y0171469D01*
X0239100Y0185466D02*
X0226784Y0185466D01*
X0219158Y0192464D02*
X0239100Y0192464D01*
X0229125Y0218600D02*
X0228625Y0218600D01*
X0228625Y0219692D01*
X0227521Y0222357D01*
X0225482Y0224396D01*
X0222817Y0225500D01*
X0220772Y0225500D01*
X0212210Y0234062D01*
X0212574Y0233911D01*
X0214797Y0233911D01*
X0216851Y0234762D01*
X0218424Y0236334D01*
X0219274Y0238388D01*
X0219274Y0240612D01*
X0219015Y0241239D01*
X0225624Y0241239D01*
X0227351Y0241955D01*
X0228673Y0243277D01*
X0232500Y0247103D01*
X0232500Y0224492D01*
X0232268Y0224396D01*
X0230229Y0222357D01*
X0229125Y0219692D01*
X0229125Y0218600D01*
X0229443Y0220458D02*
X0228307Y0220458D01*
X0232500Y0227457D02*
X0218815Y0227457D01*
X0216111Y0234455D02*
X0232500Y0234455D01*
X0232500Y0241454D02*
X0226143Y0241454D01*
X0228673Y0243277D02*
X0228673Y0243277D01*
X0222742Y0250639D02*
X0196900Y0250639D01*
X0196900Y0253975D01*
X0196636Y0254613D01*
X0203050Y0261028D01*
X0203728Y0260350D01*
X0210272Y0260350D01*
X0212000Y0262078D01*
X0213728Y0260350D01*
X0220272Y0260350D01*
X0222000Y0262078D01*
X0223728Y0260350D01*
X0230272Y0260350D01*
X0232000Y0262078D01*
X0233090Y0260987D01*
X0222742Y0250639D01*
X0227554Y0255451D02*
X0197473Y0255451D01*
X0175201Y0248700D02*
X0175201Y0247423D01*
X0172371Y0244593D01*
X0172862Y0245778D01*
X0172862Y0248700D01*
X0175201Y0248700D01*
X0175201Y0248452D02*
X0172862Y0248452D01*
X0177100Y0233711D02*
X0178012Y0233711D01*
X0179111Y0234166D01*
X0179111Y0233388D01*
X0179962Y0231334D01*
X0180300Y0230996D01*
X0180300Y0230923D01*
X0178723Y0229346D01*
X0177412Y0229889D01*
X0177100Y0229889D01*
X0177100Y0233711D01*
X0195700Y0233049D02*
X0195700Y0229272D01*
X0196266Y0229038D01*
X0197838Y0227466D01*
X0198689Y0225412D01*
X0198689Y0225358D01*
X0205446Y0218600D01*
X0214125Y0218600D01*
X0214125Y0218853D01*
X0203041Y0229937D01*
X0202012Y0229511D01*
X0199788Y0229511D01*
X0197734Y0230362D01*
X0196162Y0231934D01*
X0195700Y0233049D01*
X0197842Y0227457D02*
X0205521Y0227457D01*
X0203588Y0220458D02*
X0212520Y0220458D01*
X0192716Y0206461D02*
X0181983Y0206461D01*
X0179517Y0206461D02*
X0177884Y0206461D01*
X0155559Y0199463D02*
X0139218Y0199463D01*
X0132220Y0192464D02*
X0152411Y0192464D01*
X0151454Y0185466D02*
X0125507Y0185466D01*
X0132506Y0178467D02*
X0149888Y0178467D01*
X0128431Y0165288D02*
X0128431Y0165056D01*
X0127400Y0162566D01*
X0127400Y0160647D01*
X0123055Y0160647D01*
X0121548Y0160023D01*
X0120394Y0158870D01*
X0120283Y0158600D01*
X0091691Y0158600D01*
X0092524Y0159433D01*
X0094240Y0161149D01*
X0095168Y0163391D01*
X0095168Y0174491D01*
X0094240Y0176733D01*
X0092973Y0178000D01*
X0115720Y0178000D01*
X0128431Y0165288D01*
X0128189Y0164470D02*
X0095168Y0164470D01*
X0095168Y0171469D02*
X0122251Y0171469D01*
X0118502Y0192464D02*
X0078130Y0192464D01*
X0071411Y0185466D02*
X0057526Y0185466D01*
X0051973Y0178467D02*
X0068400Y0178467D01*
X0060396Y0171469D02*
X0040750Y0171469D01*
X0040750Y0164470D02*
X0052862Y0164470D01*
X0045864Y0157472D02*
X0040750Y0157472D01*
X0040750Y0136642D02*
X0043400Y0133992D01*
X0043400Y0103287D01*
X0044329Y0101045D01*
X0050887Y0094486D01*
X0053129Y0093557D01*
X0054428Y0093557D01*
X0055025Y0092960D01*
X0057929Y0091757D01*
X0061071Y0091757D01*
X0063975Y0092960D01*
X0066197Y0095182D01*
X0067400Y0098086D01*
X0067400Y0101229D01*
X0066197Y0104132D01*
X0063975Y0106355D01*
X0061071Y0107557D01*
X0057929Y0107557D01*
X0055907Y0106720D01*
X0055600Y0107027D01*
X0055600Y0111443D01*
X0064116Y0111443D01*
X0065622Y0112067D01*
X0066776Y0113220D01*
X0067400Y0114727D01*
X0067400Y0123958D01*
X0066776Y0125465D01*
X0065622Y0126618D01*
X0064116Y0127243D01*
X0055600Y0127243D01*
X0055600Y0130948D01*
X0057644Y0130400D01*
X0113746Y0130400D01*
X0113512Y0130166D01*
X0112661Y0128112D01*
X0112661Y0125888D01*
X0112693Y0125812D01*
X0112181Y0124577D01*
X0112181Y0118806D01*
X0111150Y0116316D01*
X0111150Y0113491D01*
X0112231Y0110882D01*
X0114228Y0108884D01*
X0116838Y0107804D01*
X0126237Y0107804D01*
X0126444Y0107889D01*
X0118408Y0099854D01*
X0117670Y0098071D01*
X0117670Y0070614D01*
X0118408Y0068831D01*
X0119199Y0068040D01*
X0119341Y0067899D01*
X0119762Y0066883D01*
X0121334Y0065311D01*
X0123388Y0064460D01*
X0124900Y0064460D01*
X0124900Y0062852D01*
X0122740Y0062852D01*
X0121233Y0062228D01*
X0120079Y0061074D01*
X0119455Y0059568D01*
X0119455Y0051637D01*
X0120079Y0050130D01*
X0120424Y0049786D01*
X0120424Y0043746D01*
X0120161Y0043112D01*
X0120161Y0040888D01*
X0121012Y0038834D01*
X0122584Y0037262D01*
X0124638Y0036411D01*
X0124900Y0036411D01*
X0124900Y0035090D01*
X0125400Y0033883D01*
X0125400Y0029500D01*
X0059940Y0029500D01*
X0060742Y0030888D01*
X0061655Y0034298D01*
X0061655Y0037827D01*
X0060742Y0041237D01*
X0058977Y0044294D01*
X0056481Y0046790D01*
X0053424Y0048554D01*
X0050015Y0049468D01*
X0046485Y0049468D01*
X0043076Y0048554D01*
X0040750Y0047212D01*
X0040750Y0136642D01*
X0040750Y0136476D02*
X0040916Y0136476D01*
X0040750Y0129478D02*
X0043400Y0129478D01*
X0043400Y0122479D02*
X0040750Y0122479D01*
X0040750Y0115481D02*
X0043400Y0115481D01*
X0043400Y0108482D02*
X0040750Y0108482D01*
X0040750Y0101484D02*
X0044147Y0101484D01*
X0040750Y0094485D02*
X0050890Y0094485D01*
X0051581Y0084525D02*
X0047896Y0082999D01*
X0045076Y0080179D01*
X0043550Y0076494D01*
X0043550Y0072506D01*
X0045076Y0068821D01*
X0047896Y0066001D01*
X0051581Y0064475D01*
X0067419Y0064475D01*
X0071104Y0066001D01*
X0073924Y0068821D01*
X0075450Y0072506D01*
X0075450Y0076494D01*
X0073924Y0080179D01*
X0071104Y0082999D01*
X0067419Y0084525D01*
X0051581Y0084525D01*
X0045386Y0080488D02*
X0040750Y0080488D01*
X0040750Y0073490D02*
X0043550Y0073490D01*
X0040750Y0066491D02*
X0047406Y0066491D01*
X0040750Y0059493D02*
X0119455Y0059493D01*
X0119455Y0052494D02*
X0040750Y0052494D01*
X0057775Y0045496D02*
X0120424Y0045496D01*
X0121349Y0038497D02*
X0061476Y0038497D01*
X0060905Y0031499D02*
X0125400Y0031499D01*
X0143600Y0031499D02*
X0170400Y0031499D01*
X0170400Y0029500D02*
X0143600Y0029500D01*
X0143600Y0033883D01*
X0144100Y0035090D01*
X0144100Y0045150D01*
X0165365Y0045150D01*
X0165424Y0045174D01*
X0165424Y0042496D01*
X0165161Y0041862D01*
X0165161Y0039638D01*
X0166012Y0037584D01*
X0167584Y0036012D01*
X0169638Y0035161D01*
X0169900Y0035161D01*
X0169900Y0035090D01*
X0170400Y0033883D01*
X0170400Y0029500D01*
X0165634Y0038497D02*
X0144100Y0038497D01*
X0168850Y0062852D02*
X0168850Y0068038D01*
X0169900Y0068038D01*
X0169900Y0062852D01*
X0168850Y0062852D01*
X0168850Y0066491D02*
X0169900Y0066491D01*
X0156411Y0078850D02*
X0153839Y0078850D01*
X0153839Y0079362D01*
X0153633Y0079858D01*
X0157150Y0083375D01*
X0157150Y0081146D01*
X0156411Y0079362D01*
X0156411Y0078850D01*
X0156878Y0080488D02*
X0154263Y0080488D01*
X0171631Y0100647D02*
X0171631Y0102824D01*
X0174376Y0105569D01*
X0174376Y0100647D01*
X0171631Y0100647D01*
X0171631Y0101484D02*
X0174376Y0101484D01*
X0161461Y0107959D02*
X0160776Y0107676D01*
X0160176Y0107076D01*
X0160176Y0108492D01*
X0161461Y0107959D01*
X0160199Y0108482D02*
X0160176Y0108482D01*
X0169318Y0122852D02*
X0169318Y0124577D01*
X0168807Y0125812D01*
X0168839Y0125888D01*
X0168839Y0128038D01*
X0174275Y0128038D01*
X0174869Y0126604D01*
X0174869Y0124905D01*
X0174379Y0124415D01*
X0173015Y0123051D01*
X0172932Y0122852D01*
X0169318Y0122852D01*
X0196746Y0130243D02*
X0198651Y0130243D01*
X0198651Y0128642D01*
X0198866Y0128123D01*
X0196746Y0130243D01*
X0197511Y0129478D02*
X0198651Y0129478D01*
X0216962Y0127800D02*
X0226403Y0127800D01*
X0224819Y0126885D01*
X0222194Y0124260D01*
X0221574Y0123188D01*
X0216962Y0127800D01*
X0239653Y0128317D02*
X0240314Y0128978D01*
X0241030Y0130706D01*
X0241030Y0134148D01*
X0242959Y0132219D01*
X0241900Y0129662D01*
X0241900Y0127020D01*
X0239653Y0128317D01*
X0240521Y0129478D02*
X0241900Y0129478D01*
X0247576Y0101155D02*
X0247588Y0101150D01*
X0256412Y0101150D01*
X0258201Y0101891D01*
X0258201Y0076933D01*
X0258188Y0076964D01*
X0256964Y0078188D01*
X0255365Y0078850D01*
X0239230Y0078850D01*
X0239230Y0079132D01*
X0244759Y0084661D01*
X0246615Y0087876D01*
X0247576Y0091463D01*
X0247576Y0101155D01*
X0247576Y0094485D02*
X0258201Y0094485D01*
X0258201Y0087487D02*
X0246390Y0087487D01*
X0240586Y0080488D02*
X0258201Y0080488D01*
X0273201Y0080488D02*
X0319500Y0080488D01*
X0319500Y0073490D02*
X0273201Y0073490D01*
X0273201Y0066491D02*
X0319500Y0066491D01*
X0319500Y0059493D02*
X0273201Y0059493D01*
X0273201Y0052494D02*
X0319500Y0052494D01*
X0319500Y0045496D02*
X0273201Y0045496D01*
X0273024Y0038497D02*
X0319500Y0038497D01*
X0319500Y0031499D02*
X0270988Y0031499D01*
X0271198Y0031877D02*
X0271198Y0031877D01*
X0272996Y0038036D02*
X0272996Y0038036D01*
X0266480Y0024500D02*
X0319500Y0024500D01*
X0319500Y0017501D02*
X0257787Y0017501D01*
X0258537Y0017809D02*
X0258537Y0017809D01*
X0263783Y0021503D02*
X0263783Y0021503D01*
X0252600Y0015374D02*
X0252600Y0015374D01*
X0238483Y0029500D02*
X0233600Y0029500D01*
X0233600Y0033883D01*
X0234100Y0035090D01*
X0234100Y0045150D01*
X0239317Y0045150D01*
X0239085Y0044919D01*
X0237321Y0041862D01*
X0236407Y0038452D01*
X0236407Y0034923D01*
X0237321Y0031513D01*
X0238483Y0029500D01*
X0237329Y0031499D02*
X0233600Y0031499D01*
X0234100Y0038497D02*
X0236419Y0038497D01*
X0215400Y0033883D02*
X0215400Y0029500D01*
X0188600Y0029500D01*
X0188600Y0033883D01*
X0189100Y0035090D01*
X0189100Y0045150D01*
X0210365Y0045150D01*
X0210424Y0045174D01*
X0210424Y0042496D01*
X0210161Y0041862D01*
X0210161Y0039638D01*
X0211012Y0037584D01*
X0212584Y0036012D01*
X0214638Y0035161D01*
X0214900Y0035161D01*
X0214900Y0035090D01*
X0215400Y0033883D01*
X0215400Y0031499D02*
X0188600Y0031499D01*
X0189100Y0038497D02*
X0210634Y0038497D01*
X0213850Y0062852D02*
X0213850Y0068038D01*
X0214900Y0068038D01*
X0214900Y0062852D01*
X0213850Y0062852D01*
X0213850Y0066491D02*
X0214900Y0066491D01*
X0204227Y0083773D02*
X0204227Y0083830D01*
X0204200Y0083803D01*
X0204200Y0083761D01*
X0204227Y0083773D01*
X0257218Y0101484D02*
X0258201Y0101484D01*
X0273201Y0101484D02*
X0319500Y0101484D01*
X0319500Y0108482D02*
X0273201Y0108482D01*
X0273201Y0115481D02*
X0319500Y0115481D01*
X0319500Y0122479D02*
X0273201Y0122479D01*
X0273201Y0129478D02*
X0319500Y0129478D01*
X0319500Y0136476D02*
X0273201Y0136476D01*
X0273201Y0143475D02*
X0319500Y0143475D01*
X0319500Y0150473D02*
X0273201Y0150473D01*
X0273201Y0157472D02*
X0319500Y0157472D01*
X0319500Y0164470D02*
X0273201Y0164470D01*
X0273201Y0171469D02*
X0319500Y0171469D01*
X0319500Y0178467D02*
X0273201Y0178467D01*
X0273201Y0185466D02*
X0319500Y0185466D01*
X0319500Y0192464D02*
X0273201Y0192464D01*
X0273201Y0199463D02*
X0319500Y0199463D01*
X0319500Y0206461D02*
X0273201Y0206461D01*
X0273201Y0213460D02*
X0319500Y0213460D01*
X0319500Y0220458D02*
X0273201Y0220458D01*
X0273201Y0227457D02*
X0319500Y0227457D01*
X0319500Y0234455D02*
X0273201Y0234455D01*
X0273201Y0241454D02*
X0319500Y0241454D01*
X0319500Y0248452D02*
X0273201Y0248452D01*
X0273201Y0255451D02*
X0319500Y0255451D01*
X0319500Y0262449D02*
X0273201Y0262449D01*
X0273201Y0269448D02*
X0319500Y0269448D01*
X0319500Y0276446D02*
X0273201Y0276446D01*
X0273201Y0283445D02*
X0319500Y0283445D01*
X0319500Y0290443D02*
X0273201Y0290443D01*
X0273201Y0297442D02*
X0319500Y0297442D01*
X0319500Y0304440D02*
X0273201Y0304440D01*
X0273201Y0311439D02*
X0319500Y0311439D01*
X0319500Y0318437D02*
X0273201Y0318437D01*
X0272996Y0324675D02*
X0272996Y0324675D01*
X0272774Y0325436D02*
X0319500Y0325436D01*
X0319500Y0332434D02*
X0270306Y0332434D01*
X0271198Y0330834D02*
X0271198Y0330834D01*
X0268075Y0336439D02*
X0268075Y0336439D01*
X0265380Y0339433D02*
X0319500Y0339433D01*
X0319500Y0346432D02*
X0254806Y0346432D01*
X0252600Y0347336D02*
X0252600Y0347336D01*
X0246271Y0348388D02*
X0246271Y0348388D01*
X0254900Y0328528D02*
X0255726Y0327610D01*
X0257194Y0324975D01*
X0258040Y0322079D01*
X0258201Y0320693D01*
X0258201Y0279499D01*
X0253411Y0284289D01*
X0251976Y0285724D01*
X0250101Y0286500D01*
X0240404Y0286500D01*
X0240166Y0286738D01*
X0238112Y0287589D01*
X0235888Y0287589D01*
X0233834Y0286738D01*
X0232262Y0285166D01*
X0231738Y0283900D01*
X0141404Y0283900D01*
X0141066Y0284238D01*
X0139012Y0285089D01*
X0136788Y0285089D01*
X0134734Y0284238D01*
X0133162Y0282666D01*
X0132311Y0280612D01*
X0132311Y0278388D01*
X0132513Y0277900D01*
X0114225Y0277900D01*
X0112608Y0277230D01*
X0111370Y0275992D01*
X0110900Y0275522D01*
X0110272Y0276150D01*
X0106300Y0276150D01*
X0106300Y0279477D01*
X0147173Y0320350D01*
X0150272Y0320350D01*
X0152000Y0322078D01*
X0153728Y0320350D01*
X0160272Y0320350D01*
X0162000Y0322078D01*
X0163728Y0320350D01*
X0170272Y0320350D01*
X0172000Y0322078D01*
X0173728Y0320350D01*
X0179027Y0320350D01*
X0180970Y0318408D01*
X0180970Y0318408D01*
X0182208Y0317170D01*
X0183825Y0316500D01*
X0187796Y0316500D01*
X0188134Y0316162D01*
X0190188Y0315311D01*
X0192412Y0315311D01*
X0192900Y0315513D01*
X0192900Y0307604D01*
X0192562Y0307266D01*
X0191711Y0305212D01*
X0191711Y0302988D01*
X0192562Y0300934D01*
X0194134Y0299362D01*
X0196188Y0298511D01*
X0198412Y0298511D01*
X0200466Y0299362D01*
X0202038Y0300934D01*
X0202889Y0302988D01*
X0202889Y0305212D01*
X0202038Y0307266D01*
X0201700Y0307604D01*
X0201700Y0321778D01*
X0202000Y0322078D01*
X0203100Y0320978D01*
X0203100Y0301004D01*
X0202762Y0300666D01*
X0201911Y0298612D01*
X0201911Y0296388D01*
X0202762Y0294334D01*
X0204334Y0292762D01*
X0206388Y0291911D01*
X0208612Y0291911D01*
X0210666Y0292762D01*
X0212238Y0294334D01*
X0213089Y0296388D01*
X0213089Y0298612D01*
X0212238Y0300666D01*
X0211900Y0301004D01*
X0211900Y0321978D01*
X0212000Y0322078D01*
X0213728Y0320350D01*
X0220272Y0320350D01*
X0222000Y0322078D01*
X0223728Y0320350D01*
X0230272Y0320350D01*
X0232000Y0322078D01*
X0233728Y0320350D01*
X0240272Y0320350D01*
X0242000Y0322078D01*
X0243728Y0320350D01*
X0250272Y0320350D01*
X0254900Y0324978D01*
X0254900Y0328528D01*
X0254900Y0325436D02*
X0256937Y0325436D01*
X0258201Y0318437D02*
X0211900Y0318437D01*
X0211900Y0311439D02*
X0258201Y0311439D01*
X0258201Y0304440D02*
X0211900Y0304440D01*
X0213089Y0297442D02*
X0258201Y0297442D01*
X0258201Y0290443D02*
X0117266Y0290443D01*
X0110267Y0283445D02*
X0133941Y0283445D01*
X0124264Y0297442D02*
X0201911Y0297442D01*
X0202889Y0304440D02*
X0203100Y0304440D01*
X0203100Y0311439D02*
X0201700Y0311439D01*
X0201700Y0318437D02*
X0203100Y0318437D01*
X0192900Y0311439D02*
X0138262Y0311439D01*
X0145260Y0318437D02*
X0180940Y0318437D01*
X0191711Y0304440D02*
X0131263Y0304440D01*
X0124900Y0315323D02*
X0124900Y0316522D01*
X0120672Y0320750D01*
X0122000Y0322078D01*
X0123728Y0320350D01*
X0129927Y0320350D01*
X0124900Y0315323D01*
X0122985Y0318437D02*
X0128015Y0318437D01*
X0113328Y0320750D02*
X0112000Y0319422D01*
X0110672Y0320750D01*
X0112000Y0322078D01*
X0113328Y0320750D01*
X0103328Y0320750D02*
X0102000Y0319422D01*
X0100672Y0320750D01*
X0102000Y0322078D01*
X0103328Y0320750D01*
X0093328Y0320750D02*
X0089100Y0316522D01*
X0089100Y0309978D01*
X0089928Y0309150D01*
X0061750Y0280973D01*
X0061750Y0321828D01*
X0062000Y0322078D01*
X0063728Y0320350D01*
X0070272Y0320350D01*
X0072000Y0322078D01*
X0073728Y0320350D01*
X0080272Y0320350D01*
X0082000Y0322078D01*
X0083728Y0320350D01*
X0090272Y0320350D01*
X0092000Y0322078D01*
X0093328Y0320750D01*
X0091015Y0318437D02*
X0061750Y0318437D01*
X0061750Y0311439D02*
X0089100Y0311439D01*
X0085218Y0304440D02*
X0061750Y0304440D01*
X0061750Y0297442D02*
X0078219Y0297442D01*
X0083666Y0290443D02*
X0104821Y0290443D01*
X0103728Y0295350D02*
X0102000Y0297078D01*
X0100272Y0295350D01*
X0093728Y0295350D01*
X0091150Y0297928D01*
X0069373Y0276150D01*
X0070272Y0276150D01*
X0072000Y0274422D01*
X0073728Y0276150D01*
X0080272Y0276150D01*
X0082000Y0274422D01*
X0083728Y0276150D01*
X0090272Y0276150D01*
X0092000Y0274422D01*
X0093728Y0276150D01*
X0097500Y0276150D01*
X0097500Y0280425D01*
X0097500Y0282175D01*
X0098170Y0283792D01*
X0109727Y0295350D01*
X0103728Y0295350D01*
X0098026Y0283445D02*
X0076667Y0283445D01*
X0071221Y0290443D02*
X0061750Y0290443D01*
X0061750Y0283445D02*
X0064222Y0283445D01*
X0069669Y0276446D02*
X0097500Y0276446D01*
X0106300Y0276446D02*
X0111824Y0276446D01*
X0116500Y0260350D02*
X0118041Y0260350D01*
X0124516Y0253875D01*
X0118641Y0248000D01*
X0116808Y0248000D01*
X0116500Y0247872D01*
X0116500Y0260350D01*
X0116500Y0255451D02*
X0122940Y0255451D01*
X0119093Y0248452D02*
X0116500Y0248452D01*
X0102150Y0248452D02*
X0097300Y0248452D01*
X0097300Y0248000D02*
X0097300Y0255477D01*
X0102150Y0260327D01*
X0102150Y0245852D01*
X0101107Y0246896D01*
X0098442Y0248000D01*
X0097300Y0248000D01*
X0097300Y0255451D02*
X0102150Y0255451D01*
X0088500Y0252891D02*
X0088500Y0237825D01*
X0089170Y0236208D01*
X0090408Y0234970D01*
X0092808Y0232570D01*
X0094425Y0231900D01*
X0096079Y0231900D01*
X0096562Y0230734D01*
X0098134Y0229162D01*
X0100188Y0228311D01*
X0101598Y0228311D01*
X0101625Y0228300D01*
X0123677Y0228300D01*
X0119315Y0223937D01*
X0116808Y0223937D01*
X0114143Y0222833D01*
X0112810Y0221500D01*
X0096523Y0221500D01*
X0082263Y0235760D01*
X0083146Y0236643D01*
X0084250Y0239308D01*
X0084250Y0242192D01*
X0083146Y0244857D01*
X0081850Y0246152D01*
X0081850Y0246241D01*
X0088500Y0252891D01*
X0088500Y0248452D02*
X0084061Y0248452D01*
X0084250Y0241454D02*
X0088500Y0241454D01*
X0090408Y0234970D02*
X0090408Y0234970D01*
X0090922Y0234455D02*
X0083567Y0234455D01*
X0090566Y0227457D02*
X0122834Y0227457D01*
X0138323Y0245500D02*
X0141523Y0248700D01*
X0153638Y0248700D01*
X0153638Y0245778D01*
X0153754Y0245500D01*
X0138323Y0245500D01*
X0141275Y0248452D02*
X0153638Y0248452D01*
X0150677Y0258700D02*
X0149027Y0260350D01*
X0143728Y0260350D01*
X0142000Y0262078D01*
X0140272Y0260350D01*
X0133728Y0260350D01*
X0132000Y0262078D01*
X0131016Y0261093D01*
X0133409Y0258700D01*
X0150677Y0258700D01*
X0091636Y0297442D02*
X0090664Y0297442D01*
X0082000Y0262078D02*
X0082984Y0261093D01*
X0076900Y0255009D01*
X0076900Y0260350D01*
X0080272Y0260350D01*
X0082000Y0262078D01*
X0077342Y0255451D02*
X0076900Y0255451D01*
X0067900Y0235132D02*
X0072925Y0230107D01*
X0072925Y0222552D01*
X0072498Y0222125D01*
X0067900Y0226723D01*
X0067900Y0235132D01*
X0067900Y0234455D02*
X0068577Y0234455D01*
X0067900Y0227457D02*
X0072925Y0227457D01*
X0082325Y0223252D02*
X0082325Y0222552D01*
X0083771Y0221107D01*
X0084875Y0218442D01*
X0084875Y0217000D01*
X0086012Y0217000D01*
X0086103Y0217038D01*
X0088540Y0217038D01*
X0082325Y0223252D01*
X0084039Y0220458D02*
X0085119Y0220458D01*
X0075716Y0206461D02*
X0064133Y0206461D01*
X0068718Y0213460D02*
X0058397Y0213460D01*
X0058397Y0220458D02*
X0061719Y0220458D01*
X0059100Y0227457D02*
X0058397Y0227457D01*
X0058397Y0234455D02*
X0059100Y0234455D01*
X0065464Y0159819D02*
X0064245Y0158600D01*
X0068431Y0158600D01*
X0068431Y0159819D01*
X0065464Y0159819D01*
X0055600Y0129478D02*
X0113227Y0129478D01*
X0112181Y0122479D02*
X0102400Y0122479D01*
X0102400Y0123958D02*
X0101776Y0125465D01*
X0100622Y0126618D01*
X0099116Y0127243D01*
X0089884Y0127243D01*
X0088378Y0126618D01*
X0087224Y0125465D01*
X0086600Y0123958D01*
X0086600Y0114727D01*
X0087224Y0113220D01*
X0088378Y0112067D01*
X0089884Y0111443D01*
X0099116Y0111443D01*
X0100622Y0112067D01*
X0101776Y0113220D01*
X0102400Y0114727D01*
X0102400Y0123958D01*
X0102400Y0115481D02*
X0111150Y0115481D01*
X0115199Y0108482D02*
X0055600Y0108482D01*
X0067294Y0101484D02*
X0086706Y0101484D01*
X0086600Y0101229D02*
X0086600Y0098086D01*
X0087803Y0095182D01*
X0090025Y0092960D01*
X0092929Y0091757D01*
X0096071Y0091757D01*
X0098975Y0092960D01*
X0101197Y0095182D01*
X0102400Y0098086D01*
X0102400Y0101229D01*
X0101197Y0104132D01*
X0098975Y0106355D01*
X0096071Y0107557D01*
X0092929Y0107557D01*
X0090025Y0106355D01*
X0087803Y0104132D01*
X0086600Y0101229D01*
X0088500Y0094485D02*
X0065500Y0094485D01*
X0073614Y0080488D02*
X0117670Y0080488D01*
X0117670Y0073490D02*
X0075450Y0073490D01*
X0071594Y0066491D02*
X0120154Y0066491D01*
X0117670Y0087487D02*
X0040750Y0087487D01*
X0067400Y0115481D02*
X0086600Y0115481D01*
X0086600Y0122479D02*
X0067400Y0122479D01*
X0102294Y0101484D02*
X0120038Y0101484D01*
X0117670Y0094485D02*
X0100500Y0094485D01*
X0124318Y0122852D02*
X0127150Y0122852D01*
X0127150Y0126604D01*
X0126556Y0128038D01*
X0123839Y0128038D01*
X0123839Y0125888D01*
X0123807Y0125812D01*
X0124318Y0124577D01*
X0124318Y0122852D01*
X0202325Y0185466D02*
X0213712Y0185466D01*
X0241927Y0222950D02*
X0241300Y0223577D01*
X0241300Y0249477D01*
X0251100Y0259277D01*
X0251100Y0225500D01*
X0249933Y0225500D01*
X0247268Y0224396D01*
X0245823Y0222950D01*
X0241927Y0222950D01*
X0241300Y0227457D02*
X0251100Y0227457D01*
X0251100Y0234455D02*
X0241300Y0234455D01*
X0241300Y0241454D02*
X0251100Y0241454D01*
X0251100Y0248452D02*
X0241300Y0248452D01*
X0247273Y0255451D02*
X0251100Y0255451D01*
X0254255Y0283445D02*
X0258201Y0283445D01*
X0273201Y0094485D02*
X0319500Y0094485D01*
X0319500Y0087487D02*
X0273201Y0087487D01*
X0043900Y0015863D02*
X0043900Y0015863D01*
X0043900Y0346847D02*
X0043900Y0346847D01*
M02*
