G75*
%MOIN*%
%OFA0B0*%
%FSLAX25Y25*%
%IPPOS*%
%LPD*%
%AMOC8*
5,1,8,0,0,1.08239X$1,22.5*
%
%ADD10C,0.11000*%
%ADD11C,0.19000*%
%ADD12C,0.12611*%
%ADD13R,0.22060X0.25209*%
%ADD14R,0.04737X0.07099*%
%ADD15OC8,0.08400*%
%ADD16R,0.05131X0.04737*%
%ADD17C,0.01990*%
%ADD18C,0.07099*%
%ADD19C,0.08400*%
%ADD20R,0.08400X0.08400*%
%ADD21R,0.04737X0.05131*%
%ADD22C,0.12650*%
%ADD23R,0.10800X0.20800*%
%ADD24C,0.06800*%
D10*
X0134500Y0034500D02*
X0134500Y0074500D01*
X0179500Y0079500D02*
X0179500Y0034500D01*
X0224500Y0034500D02*
X0224500Y0079500D01*
D11*
X0224500Y0084500D02*
X0233250Y0093250D01*
X0233250Y0115750D01*
X0224500Y0144500D02*
X0059500Y0144500D01*
X0133250Y0083250D02*
X0143250Y0093250D01*
X0143250Y0115750D01*
X0179500Y0084500D02*
X0188250Y0093250D01*
X0188250Y0115750D01*
D12*
X0048250Y0036063D03*
X0044812Y0189812D03*
X0249812Y0036688D03*
D13*
X0224500Y0084343D03*
X0179500Y0084343D03*
X0134500Y0084343D03*
X0134500Y0144343D03*
X0179500Y0144343D03*
X0224500Y0144343D03*
D14*
X0215524Y0115602D03*
X0233476Y0115602D03*
X0188476Y0115602D03*
X0170524Y0115602D03*
X0143476Y0115602D03*
X0125524Y0115602D03*
X0125524Y0055602D03*
X0143476Y0055602D03*
X0170524Y0055602D03*
X0188476Y0055602D03*
X0215524Y0055602D03*
X0233476Y0055602D03*
D15*
X0237000Y0268250D03*
X0227000Y0268250D03*
X0217000Y0268250D03*
X0207000Y0268250D03*
X0197000Y0268250D03*
X0187000Y0268250D03*
X0177000Y0268250D03*
X0167000Y0268250D03*
X0157000Y0268250D03*
X0147000Y0268250D03*
X0137000Y0268250D03*
X0127000Y0268250D03*
X0117000Y0268250D03*
X0107000Y0268250D03*
X0097000Y0268250D03*
X0087000Y0268250D03*
X0077000Y0268250D03*
X0067000Y0268250D03*
X0057000Y0268250D03*
X0097000Y0303250D03*
X0097000Y0313250D03*
X0107000Y0313250D03*
X0107000Y0303250D03*
X0117000Y0303250D03*
X0117000Y0313250D03*
X0117000Y0328250D03*
X0107000Y0328250D03*
X0097000Y0328250D03*
X0087000Y0328250D03*
X0077000Y0328250D03*
X0067000Y0328250D03*
X0057000Y0328250D03*
X0127000Y0328250D03*
X0137000Y0328250D03*
X0147000Y0328250D03*
X0157000Y0328250D03*
X0167000Y0328250D03*
X0177000Y0328250D03*
X0187000Y0328250D03*
X0197000Y0328250D03*
X0207000Y0328250D03*
X0217000Y0328250D03*
X0227000Y0328250D03*
X0237000Y0328250D03*
X0247000Y0328250D03*
X0247000Y0268250D03*
D16*
X0188159Y0250125D03*
X0181466Y0250125D03*
X0166596Y0248562D03*
X0159904Y0248562D03*
X0162846Y0179500D03*
X0156154Y0179500D03*
X0173654Y0179500D03*
X0180346Y0179500D03*
X0192404Y0179500D03*
X0199096Y0179500D03*
X0082846Y0179500D03*
X0076154Y0179500D03*
D17*
X0059080Y0240627D02*
X0059080Y0243373D01*
X0061826Y0243373D01*
X0061826Y0240627D01*
X0059080Y0240627D01*
X0059080Y0242517D02*
X0061826Y0242517D01*
X0052174Y0243373D02*
X0052174Y0240627D01*
X0052174Y0243373D02*
X0054920Y0243373D01*
X0054920Y0240627D01*
X0052174Y0240627D01*
X0052174Y0242517D02*
X0054920Y0242517D01*
D18*
X0077000Y0240750D03*
X0097000Y0240750D03*
X0118250Y0240750D03*
X0118250Y0216687D03*
X0077625Y0217000D03*
X0221375Y0218250D03*
X0236375Y0218250D03*
X0251375Y0218250D03*
D19*
X0094500Y0099657D03*
X0059500Y0099657D03*
D20*
X0059500Y0119343D03*
X0094500Y0119343D03*
D21*
X0118250Y0121596D03*
X0118250Y0114904D03*
X0134500Y0161154D03*
X0134500Y0167846D03*
X0163250Y0121596D03*
X0163250Y0114904D03*
X0179500Y0161154D03*
X0179500Y0167846D03*
X0208250Y0121596D03*
X0208250Y0114904D03*
X0224500Y0161154D03*
X0224500Y0167846D03*
X0084500Y0167846D03*
X0084500Y0161154D03*
X0074500Y0161154D03*
X0074500Y0167846D03*
D22*
X0065425Y0144500D02*
X0053575Y0144500D01*
X0053575Y0074500D02*
X0065425Y0074500D01*
D23*
X0134500Y0037000D03*
X0179500Y0037000D03*
X0224500Y0037000D03*
D24*
X0249000Y0108250D02*
X0255000Y0108250D01*
X0255000Y0118250D02*
X0249000Y0118250D01*
X0249000Y0128250D02*
X0255000Y0128250D01*
X0255000Y0138250D02*
X0249000Y0138250D01*
X0249000Y0153250D02*
X0255000Y0153250D01*
X0255000Y0163250D02*
X0249000Y0163250D01*
X0249000Y0173250D02*
X0255000Y0173250D01*
X0255000Y0183250D02*
X0249000Y0183250D01*
X0249000Y0193250D02*
X0255000Y0193250D01*
X0255000Y0203250D02*
X0249000Y0203250D01*
M02*
