%
M48
M72
T01C0.01378
T02C0.03150
T03C0.03543
T04C0.04000
T05C0.04331
T06C0.07900
T07C0.11811
%
T01
X118250Y127000
X132000Y129500
X150750Y127000
X157000Y132000
X163250Y127000
X179719Y129500
X182618Y126368
X184547Y129500
X204240Y129754
X207818Y129812
X208250Y126062
X217000Y144500
X217000Y148250
X220750Y148250
X220750Y144500
X224500Y144500
X224500Y148250
X252000Y158339
X245900Y178700
X221300Y184100
X243500Y215300
X255500Y212900
X213685Y239500
X213685Y243250
X200900Y235100
X194923Y239812
X196313Y243250
X191300Y241100
X184700Y234500
X176900Y239300
X176300Y224300
X172700Y224300
X178250Y218250
X175750Y214500
X180750Y212000
X184500Y215750
X184700Y224300
X188300Y224300
X193100Y224300
X164300Y218900
X162500Y224300
X154100Y229100
X157100Y234500
X160700Y234500
X158900Y241100
X154100Y236900
X136700Y222500
X149300Y211700
X152900Y211700
X157700Y194300
X160750Y191922
X159500Y185744
X173250Y184500
X177645Y173250
X185750Y171935
X185423Y183250
X191661Y186080
X155014Y171935
X101300Y233900
X123500Y240500
X137900Y279500
X174500Y256700
X184100Y262100
X211100Y277100
X214700Y277100
X207500Y297500
X197300Y304100
X191300Y320900
X237000Y282000
X214812Y103562
X221375Y100750
X205750Y103250
X205499Y78250
X209077Y77827
X204500Y69500
X204500Y64500
X204500Y59500
X204500Y54500
X199500Y54500
X199500Y59500
X194500Y59500
X194500Y54500
X194500Y64500
X194500Y69500
X199500Y69500
X199500Y64500
X193250Y78250
X166781Y78250
X162000Y78250
X159500Y69500
X159500Y64500
X159500Y59500
X159500Y54500
X154500Y54500
X154500Y59500
X149500Y59500
X149500Y54500
X149500Y64500
X149500Y69500
X154500Y69500
X154500Y64500
X148250Y78250
X124500Y70049
X125750Y42000
X170750Y40750
X215750Y40750
X239500Y54500
X239500Y59500
X239500Y64500
X239500Y69500
X244500Y69500
X244500Y64500
X244500Y59500
X244500Y54500
X249500Y54500
X249500Y59500
X249500Y64500
X249500Y69500
X163942Y102937
T02
X167000Y268250
X157000Y268250
X147000Y268250
X137000Y268250
X127000Y268250
X117000Y268250
X107000Y268250
X97000Y268250
X87000Y268250
X77000Y268250
X67000Y268250
X57000Y268250
X57000Y328250
X67000Y328250
X77000Y328250
X87000Y328250
X97000Y328250
X107000Y328250
X117000Y328250
X127000Y328250
X137000Y328250
X147000Y328250
X157000Y328250
X167000Y328250
X177000Y328250
X187000Y328250
X197000Y328250
X207000Y328250
X217000Y328250
X227000Y328250
X237000Y328250
X247000Y328250
X247000Y268250
X237000Y268250
X227000Y268250
X217000Y268250
X207000Y268250
X197000Y268250
X187000Y268250
X177000Y268250
T03
X94500Y119343
X94500Y99657
X59500Y99657
X59500Y119343
T04
X252000Y118250
X252000Y108250
X252000Y128250
X252000Y138250
X252000Y153250
X252000Y163250
X252000Y173250
X252000Y183250
X252000Y193250
X252000Y203250
T05
X117000Y303250
X117000Y313250
X107000Y313250
X107000Y303250
X97000Y303250
X97000Y313250
T06
X59500Y144500
X59500Y74500
T07
X48250Y36063
X44812Y189812
X249812Y36688
M30
