%
M48
M72
T01C0.01378
T02C0.04000
%
T01
X40310Y44200
X36110Y53800
X31910Y62200
X31910Y65800
X34910Y68200
X46910Y70000
X46910Y73600
X46910Y79600
X51710Y84400
X51710Y88000
X46910Y86200
X34910Y103600
X21710Y94600
X21710Y91000
X17510Y103600
X46910Y64000
X46910Y60400
X50035Y57500
X50035Y53900
X66110Y70000
X66110Y77800
X66110Y84400
X76310Y89200
X78110Y79600
X87110Y92800
X56510Y112000
X54110Y106000
X53510Y124000
X40910Y13000
T02
X10060Y9750
X10060Y19750
X10060Y32875
X10060Y42875
X10060Y52875
X10060Y62875
X10060Y72875
X10060Y82875
X10060Y96000
X10060Y106000
X10060Y120375
X10060Y130375
X41310Y130375
X51310Y130375
X61310Y130375
X71310Y130375
X92560Y97875
X92560Y87875
X92560Y77875
X92560Y67875
X92560Y57875
X92560Y47875
X103185Y47875
X103185Y57875
X103185Y67875
X103185Y77875
X103185Y87875
X103185Y97875
X103185Y31625
X103185Y21625
X86935Y12875
X76935Y12875
X62435Y13500
X51435Y13500
M30
