G75*
%MOIN*%
%OFA0B0*%
%FSLAX25Y25*%
%IPPOS*%
%LPD*%
%AMOC8*
5,1,8,0,0,1.08239X$1,22.5*
%
%ADD10C,0.00000*%
%ADD11C,0.00300*%
%ADD12C,0.00600*%
%ADD13C,0.00200*%
%ADD14C,0.00400*%
%ADD15R,0.03740X0.01969*%
%ADD16C,0.00500*%
%ADD17R,0.01969X0.03740*%
%ADD18C,0.00800*%
%ADD19C,0.00197*%
%ADD20C,0.00394*%
%ADD21C,0.00787*%
%ADD22R,0.02000X0.02000*%
%ADD23R,0.02300X0.02300*%
D10*
X0001310Y0006906D02*
X0001310Y0132545D01*
X0001312Y0132697D01*
X0001318Y0132849D01*
X0001328Y0133001D01*
X0001341Y0133152D01*
X0001359Y0133303D01*
X0001380Y0133454D01*
X0001406Y0133604D01*
X0001435Y0133753D01*
X0001468Y0133902D01*
X0001505Y0134049D01*
X0001545Y0134196D01*
X0001590Y0134341D01*
X0001638Y0134485D01*
X0001690Y0134628D01*
X0001745Y0134770D01*
X0001804Y0134910D01*
X0001867Y0135049D01*
X0001933Y0135186D01*
X0002003Y0135321D01*
X0002076Y0135454D01*
X0002153Y0135585D01*
X0002233Y0135715D01*
X0002316Y0135842D01*
X0002402Y0135967D01*
X0002492Y0136090D01*
X0002585Y0136210D01*
X0002681Y0136328D01*
X0002780Y0136444D01*
X0002882Y0136557D01*
X0002986Y0136667D01*
X0003094Y0136775D01*
X0003204Y0136879D01*
X0003317Y0136981D01*
X0003433Y0137080D01*
X0003551Y0137176D01*
X0003671Y0137269D01*
X0003794Y0137359D01*
X0003919Y0137445D01*
X0004046Y0137528D01*
X0004176Y0137608D01*
X0004307Y0137685D01*
X0004440Y0137758D01*
X0004575Y0137828D01*
X0004712Y0137894D01*
X0004851Y0137957D01*
X0004991Y0138016D01*
X0005133Y0138071D01*
X0005276Y0138123D01*
X0005420Y0138171D01*
X0005565Y0138216D01*
X0005712Y0138256D01*
X0005859Y0138293D01*
X0006008Y0138326D01*
X0006157Y0138355D01*
X0006307Y0138381D01*
X0006458Y0138402D01*
X0006609Y0138420D01*
X0006760Y0138433D01*
X0006912Y0138443D01*
X0007064Y0138449D01*
X0007216Y0138451D01*
X0103357Y0138451D01*
X0103547Y0138449D01*
X0103737Y0138442D01*
X0103927Y0138430D01*
X0104117Y0138414D01*
X0104306Y0138394D01*
X0104495Y0138368D01*
X0104683Y0138339D01*
X0104870Y0138304D01*
X0105056Y0138265D01*
X0105241Y0138222D01*
X0105426Y0138174D01*
X0105609Y0138122D01*
X0105790Y0138066D01*
X0105970Y0138005D01*
X0106149Y0137939D01*
X0106326Y0137870D01*
X0106502Y0137796D01*
X0106675Y0137718D01*
X0106847Y0137635D01*
X0107016Y0137549D01*
X0107184Y0137459D01*
X0107349Y0137364D01*
X0107512Y0137266D01*
X0107672Y0137163D01*
X0107830Y0137057D01*
X0107985Y0136947D01*
X0108138Y0136834D01*
X0108288Y0136716D01*
X0108434Y0136595D01*
X0108578Y0136471D01*
X0108719Y0136343D01*
X0108857Y0136212D01*
X0108992Y0136077D01*
X0109123Y0135939D01*
X0109251Y0135798D01*
X0109375Y0135654D01*
X0109496Y0135508D01*
X0109614Y0135358D01*
X0109727Y0135205D01*
X0109837Y0135050D01*
X0109943Y0134892D01*
X0110046Y0134732D01*
X0110144Y0134569D01*
X0110239Y0134404D01*
X0110329Y0134236D01*
X0110415Y0134067D01*
X0110498Y0133895D01*
X0110576Y0133722D01*
X0110650Y0133546D01*
X0110719Y0133369D01*
X0110785Y0133190D01*
X0110846Y0133010D01*
X0110902Y0132829D01*
X0110954Y0132646D01*
X0111002Y0132461D01*
X0111045Y0132276D01*
X0111084Y0132090D01*
X0111119Y0131903D01*
X0111148Y0131715D01*
X0111174Y0131526D01*
X0111194Y0131337D01*
X0111210Y0131147D01*
X0111222Y0130957D01*
X0111229Y0130767D01*
X0111231Y0130577D01*
X0111231Y0008874D01*
X0111229Y0008684D01*
X0111222Y0008494D01*
X0111210Y0008304D01*
X0111194Y0008114D01*
X0111174Y0007925D01*
X0111148Y0007736D01*
X0111119Y0007548D01*
X0111084Y0007361D01*
X0111045Y0007175D01*
X0111002Y0006990D01*
X0110954Y0006805D01*
X0110902Y0006622D01*
X0110846Y0006441D01*
X0110785Y0006261D01*
X0110719Y0006082D01*
X0110650Y0005905D01*
X0110576Y0005729D01*
X0110498Y0005556D01*
X0110415Y0005384D01*
X0110329Y0005215D01*
X0110239Y0005047D01*
X0110144Y0004882D01*
X0110046Y0004719D01*
X0109943Y0004559D01*
X0109837Y0004401D01*
X0109727Y0004246D01*
X0109614Y0004093D01*
X0109496Y0003943D01*
X0109375Y0003797D01*
X0109251Y0003653D01*
X0109123Y0003512D01*
X0108992Y0003374D01*
X0108857Y0003239D01*
X0108719Y0003108D01*
X0108578Y0002980D01*
X0108434Y0002856D01*
X0108288Y0002735D01*
X0108138Y0002617D01*
X0107985Y0002504D01*
X0107830Y0002394D01*
X0107672Y0002288D01*
X0107512Y0002185D01*
X0107349Y0002087D01*
X0107184Y0001992D01*
X0107016Y0001902D01*
X0106847Y0001816D01*
X0106675Y0001733D01*
X0106502Y0001655D01*
X0106326Y0001581D01*
X0106149Y0001512D01*
X0105970Y0001446D01*
X0105790Y0001385D01*
X0105609Y0001329D01*
X0105426Y0001277D01*
X0105241Y0001229D01*
X0105056Y0001186D01*
X0104870Y0001147D01*
X0104683Y0001112D01*
X0104495Y0001083D01*
X0104306Y0001057D01*
X0104117Y0001037D01*
X0103927Y0001021D01*
X0103737Y0001009D01*
X0103547Y0001002D01*
X0103357Y0001000D01*
X0007216Y0001000D01*
X0007064Y0001002D01*
X0006912Y0001008D01*
X0006760Y0001018D01*
X0006609Y0001031D01*
X0006458Y0001049D01*
X0006307Y0001070D01*
X0006157Y0001096D01*
X0006008Y0001125D01*
X0005859Y0001158D01*
X0005712Y0001195D01*
X0005565Y0001235D01*
X0005420Y0001280D01*
X0005276Y0001328D01*
X0005133Y0001380D01*
X0004991Y0001435D01*
X0004851Y0001494D01*
X0004712Y0001557D01*
X0004575Y0001623D01*
X0004440Y0001693D01*
X0004307Y0001766D01*
X0004176Y0001843D01*
X0004046Y0001923D01*
X0003919Y0002006D01*
X0003794Y0002092D01*
X0003671Y0002182D01*
X0003551Y0002275D01*
X0003433Y0002371D01*
X0003317Y0002470D01*
X0003204Y0002572D01*
X0003094Y0002676D01*
X0002986Y0002784D01*
X0002882Y0002894D01*
X0002780Y0003007D01*
X0002681Y0003123D01*
X0002585Y0003241D01*
X0002492Y0003361D01*
X0002402Y0003484D01*
X0002316Y0003609D01*
X0002233Y0003736D01*
X0002153Y0003866D01*
X0002076Y0003997D01*
X0002003Y0004130D01*
X0001933Y0004265D01*
X0001867Y0004402D01*
X0001804Y0004541D01*
X0001745Y0004681D01*
X0001690Y0004823D01*
X0001638Y0004966D01*
X0001590Y0005110D01*
X0001545Y0005255D01*
X0001505Y0005402D01*
X0001468Y0005549D01*
X0001435Y0005698D01*
X0001406Y0005847D01*
X0001380Y0005997D01*
X0001359Y0006148D01*
X0001341Y0006299D01*
X0001328Y0006450D01*
X0001318Y0006602D01*
X0001312Y0006754D01*
X0001310Y0006906D01*
D11*
X0049960Y0108650D02*
X0052016Y0109883D01*
X0049960Y0111117D01*
X0053660Y0111117D01*
X0053660Y0112712D02*
X0053660Y0113534D01*
X0053660Y0113123D02*
X0049960Y0113123D01*
X0049960Y0112712D02*
X0049960Y0113534D01*
X0050782Y0114959D02*
X0050726Y0114961D01*
X0050670Y0114967D01*
X0050615Y0114976D01*
X0050560Y0114989D01*
X0050507Y0115006D01*
X0050455Y0115027D01*
X0050404Y0115051D01*
X0050355Y0115079D01*
X0050308Y0115109D01*
X0050263Y0115143D01*
X0050221Y0115180D01*
X0050181Y0115220D01*
X0050144Y0115262D01*
X0050110Y0115307D01*
X0050080Y0115354D01*
X0050052Y0115403D01*
X0050028Y0115454D01*
X0050007Y0115506D01*
X0049990Y0115559D01*
X0049977Y0115614D01*
X0049968Y0115669D01*
X0049962Y0115725D01*
X0049960Y0115781D01*
X0050782Y0114958D02*
X0050836Y0114960D01*
X0050890Y0114965D01*
X0050944Y0114974D01*
X0050996Y0114986D01*
X0051048Y0115002D01*
X0051099Y0115020D01*
X0051148Y0115043D01*
X0051196Y0115068D01*
X0051242Y0115096D01*
X0051287Y0115128D01*
X0051329Y0115162D01*
X0051368Y0115199D01*
X0051406Y0115238D01*
X0051440Y0115280D01*
X0051472Y0115323D01*
X0051501Y0115369D01*
X0051502Y0115369D02*
X0052118Y0116500D01*
X0053660Y0116089D02*
X0053658Y0116008D01*
X0053653Y0115928D01*
X0053643Y0115848D01*
X0053630Y0115768D01*
X0053613Y0115689D01*
X0053593Y0115611D01*
X0053569Y0115534D01*
X0053541Y0115458D01*
X0053510Y0115384D01*
X0053476Y0115311D01*
X0053438Y0115240D01*
X0053397Y0115170D01*
X0053353Y0115103D01*
X0053306Y0115037D01*
X0053255Y0114974D01*
X0053202Y0114914D01*
X0053146Y0114856D01*
X0052119Y0116500D02*
X0052148Y0116546D01*
X0052180Y0116589D01*
X0052214Y0116631D01*
X0052252Y0116670D01*
X0052291Y0116707D01*
X0052333Y0116741D01*
X0052378Y0116773D01*
X0052424Y0116801D01*
X0052472Y0116826D01*
X0052521Y0116849D01*
X0052572Y0116867D01*
X0052624Y0116883D01*
X0052676Y0116895D01*
X0052730Y0116904D01*
X0052784Y0116909D01*
X0052838Y0116911D01*
X0052894Y0116909D01*
X0052950Y0116903D01*
X0053005Y0116894D01*
X0053060Y0116881D01*
X0053113Y0116864D01*
X0053165Y0116843D01*
X0053216Y0116819D01*
X0053265Y0116791D01*
X0053312Y0116761D01*
X0053357Y0116727D01*
X0053399Y0116690D01*
X0053439Y0116650D01*
X0053476Y0116608D01*
X0053510Y0116563D01*
X0053540Y0116516D01*
X0053568Y0116467D01*
X0053592Y0116416D01*
X0053613Y0116364D01*
X0053630Y0116311D01*
X0053643Y0116256D01*
X0053652Y0116201D01*
X0053658Y0116145D01*
X0053660Y0116089D01*
X0050268Y0116706D02*
X0050224Y0116644D01*
X0050183Y0116580D01*
X0050145Y0116514D01*
X0050111Y0116445D01*
X0050079Y0116376D01*
X0050052Y0116305D01*
X0050028Y0116232D01*
X0050007Y0116159D01*
X0049990Y0116084D01*
X0049977Y0116009D01*
X0049968Y0115933D01*
X0049962Y0115857D01*
X0049960Y0115781D01*
X0050988Y0118336D02*
X0052632Y0118336D01*
X0052632Y0118335D02*
X0052695Y0118337D01*
X0052758Y0118343D01*
X0052821Y0118353D01*
X0052883Y0118366D01*
X0052944Y0118383D01*
X0053003Y0118404D01*
X0053062Y0118429D01*
X0053118Y0118457D01*
X0053173Y0118489D01*
X0053226Y0118524D01*
X0053276Y0118562D01*
X0053325Y0118603D01*
X0053370Y0118647D01*
X0053413Y0118694D01*
X0053452Y0118743D01*
X0053489Y0118795D01*
X0053522Y0118849D01*
X0053552Y0118905D01*
X0053579Y0118962D01*
X0053602Y0119021D01*
X0053621Y0119082D01*
X0053636Y0119143D01*
X0053648Y0119205D01*
X0053656Y0119268D01*
X0053660Y0119331D01*
X0053660Y0119395D01*
X0053656Y0119458D01*
X0053648Y0119521D01*
X0053636Y0119583D01*
X0053621Y0119644D01*
X0053602Y0119705D01*
X0053579Y0119764D01*
X0053552Y0119821D01*
X0053522Y0119877D01*
X0053489Y0119931D01*
X0053452Y0119983D01*
X0053413Y0120032D01*
X0053370Y0120079D01*
X0053325Y0120123D01*
X0053276Y0120164D01*
X0053226Y0120202D01*
X0053173Y0120237D01*
X0053118Y0120269D01*
X0053062Y0120297D01*
X0053003Y0120322D01*
X0052944Y0120343D01*
X0052883Y0120360D01*
X0052821Y0120373D01*
X0052758Y0120383D01*
X0052695Y0120389D01*
X0052632Y0120391D01*
X0050988Y0120391D01*
X0050925Y0120389D01*
X0050862Y0120383D01*
X0050799Y0120373D01*
X0050737Y0120360D01*
X0050676Y0120343D01*
X0050617Y0120322D01*
X0050558Y0120297D01*
X0050502Y0120269D01*
X0050447Y0120237D01*
X0050394Y0120202D01*
X0050344Y0120164D01*
X0050295Y0120123D01*
X0050250Y0120079D01*
X0050207Y0120032D01*
X0050168Y0119983D01*
X0050131Y0119931D01*
X0050098Y0119877D01*
X0050068Y0119821D01*
X0050041Y0119764D01*
X0050018Y0119705D01*
X0049999Y0119644D01*
X0049984Y0119583D01*
X0049972Y0119521D01*
X0049964Y0119458D01*
X0049960Y0119395D01*
X0049960Y0119331D01*
X0049964Y0119268D01*
X0049972Y0119205D01*
X0049984Y0119143D01*
X0049999Y0119082D01*
X0050018Y0119021D01*
X0050041Y0118962D01*
X0050068Y0118905D01*
X0050098Y0118849D01*
X0050131Y0118795D01*
X0050168Y0118743D01*
X0050207Y0118694D01*
X0050250Y0118647D01*
X0050295Y0118603D01*
X0050344Y0118562D01*
X0050394Y0118524D01*
X0050447Y0118489D01*
X0050502Y0118457D01*
X0050558Y0118429D01*
X0050617Y0118404D01*
X0050676Y0118383D01*
X0050737Y0118366D01*
X0050799Y0118353D01*
X0050862Y0118343D01*
X0050925Y0118337D01*
X0050988Y0118335D01*
X0043035Y0118427D02*
X0039335Y0118427D01*
X0039335Y0116889D02*
X0039335Y0116067D01*
X0039337Y0116011D01*
X0039343Y0115955D01*
X0039352Y0115900D01*
X0039365Y0115845D01*
X0039382Y0115792D01*
X0039403Y0115739D01*
X0039427Y0115689D01*
X0039455Y0115640D01*
X0039485Y0115593D01*
X0039519Y0115548D01*
X0039556Y0115506D01*
X0039596Y0115466D01*
X0039638Y0115429D01*
X0039683Y0115395D01*
X0039730Y0115365D01*
X0039779Y0115337D01*
X0039830Y0115313D01*
X0039882Y0115292D01*
X0039935Y0115275D01*
X0039990Y0115262D01*
X0040045Y0115253D01*
X0040101Y0115247D01*
X0040157Y0115245D01*
X0042213Y0115245D01*
X0042269Y0115247D01*
X0042325Y0115253D01*
X0042380Y0115262D01*
X0042435Y0115275D01*
X0042488Y0115292D01*
X0042540Y0115313D01*
X0042591Y0115337D01*
X0042640Y0115365D01*
X0042687Y0115395D01*
X0042732Y0115429D01*
X0042774Y0115466D01*
X0042814Y0115506D01*
X0042851Y0115548D01*
X0042885Y0115593D01*
X0042915Y0115640D01*
X0042943Y0115689D01*
X0042967Y0115740D01*
X0042988Y0115792D01*
X0043005Y0115845D01*
X0043018Y0115900D01*
X0043027Y0115955D01*
X0043033Y0116011D01*
X0043035Y0116067D01*
X0043035Y0116889D01*
X0041596Y0118427D02*
X0039335Y0120482D01*
X0040774Y0119249D02*
X0043035Y0120482D01*
X0041493Y0113419D02*
X0040877Y0112289D01*
X0039335Y0112700D02*
X0039337Y0112776D01*
X0039343Y0112852D01*
X0039352Y0112928D01*
X0039365Y0113003D01*
X0039382Y0113078D01*
X0039403Y0113151D01*
X0039427Y0113224D01*
X0039454Y0113295D01*
X0039486Y0113364D01*
X0039520Y0113433D01*
X0039558Y0113499D01*
X0039599Y0113563D01*
X0039643Y0113625D01*
X0040876Y0112289D02*
X0040847Y0112243D01*
X0040815Y0112200D01*
X0040781Y0112158D01*
X0040743Y0112119D01*
X0040704Y0112082D01*
X0040662Y0112048D01*
X0040617Y0112016D01*
X0040571Y0111988D01*
X0040523Y0111963D01*
X0040474Y0111940D01*
X0040423Y0111922D01*
X0040371Y0111906D01*
X0040319Y0111894D01*
X0040265Y0111885D01*
X0040211Y0111880D01*
X0040157Y0111878D01*
X0040101Y0111880D01*
X0040045Y0111886D01*
X0039990Y0111895D01*
X0039935Y0111908D01*
X0039882Y0111925D01*
X0039830Y0111946D01*
X0039779Y0111970D01*
X0039730Y0111998D01*
X0039683Y0112028D01*
X0039638Y0112062D01*
X0039596Y0112099D01*
X0039556Y0112139D01*
X0039519Y0112181D01*
X0039485Y0112226D01*
X0039455Y0112273D01*
X0039427Y0112322D01*
X0039403Y0112373D01*
X0039382Y0112425D01*
X0039365Y0112478D01*
X0039352Y0112533D01*
X0039343Y0112588D01*
X0039337Y0112644D01*
X0039335Y0112700D01*
X0042521Y0111775D02*
X0042577Y0111833D01*
X0042630Y0111893D01*
X0042681Y0111956D01*
X0042728Y0112022D01*
X0042772Y0112089D01*
X0042813Y0112159D01*
X0042851Y0112230D01*
X0042885Y0112303D01*
X0042916Y0112377D01*
X0042944Y0112453D01*
X0042968Y0112530D01*
X0042988Y0112608D01*
X0043005Y0112687D01*
X0043018Y0112767D01*
X0043028Y0112847D01*
X0043033Y0112927D01*
X0043035Y0113008D01*
X0043033Y0113064D01*
X0043027Y0113120D01*
X0043018Y0113175D01*
X0043005Y0113230D01*
X0042988Y0113283D01*
X0042967Y0113335D01*
X0042943Y0113386D01*
X0042915Y0113435D01*
X0042885Y0113482D01*
X0042851Y0113527D01*
X0042814Y0113569D01*
X0042774Y0113609D01*
X0042732Y0113646D01*
X0042687Y0113680D01*
X0042640Y0113710D01*
X0042591Y0113738D01*
X0042540Y0113762D01*
X0042488Y0113783D01*
X0042435Y0113800D01*
X0042380Y0113813D01*
X0042325Y0113822D01*
X0042269Y0113828D01*
X0042213Y0113830D01*
X0042159Y0113828D01*
X0042105Y0113823D01*
X0042051Y0113814D01*
X0041999Y0113802D01*
X0041947Y0113786D01*
X0041896Y0113768D01*
X0041847Y0113745D01*
X0041799Y0113720D01*
X0041753Y0113692D01*
X0041708Y0113660D01*
X0041666Y0113626D01*
X0041627Y0113589D01*
X0041589Y0113550D01*
X0041555Y0113508D01*
X0041523Y0113465D01*
X0041494Y0113419D01*
X0049960Y0108650D02*
X0053660Y0108650D01*
X0060585Y0108650D02*
X0062641Y0109883D01*
X0060585Y0111117D01*
X0064285Y0111117D01*
X0063257Y0112816D02*
X0061613Y0112816D01*
X0061613Y0112815D02*
X0061550Y0112817D01*
X0061487Y0112823D01*
X0061424Y0112833D01*
X0061362Y0112846D01*
X0061301Y0112863D01*
X0061242Y0112884D01*
X0061183Y0112909D01*
X0061127Y0112937D01*
X0061072Y0112969D01*
X0061019Y0113004D01*
X0060969Y0113042D01*
X0060920Y0113083D01*
X0060875Y0113127D01*
X0060832Y0113174D01*
X0060793Y0113223D01*
X0060756Y0113275D01*
X0060723Y0113329D01*
X0060693Y0113385D01*
X0060666Y0113442D01*
X0060643Y0113501D01*
X0060624Y0113562D01*
X0060609Y0113623D01*
X0060597Y0113685D01*
X0060589Y0113748D01*
X0060585Y0113811D01*
X0060585Y0113875D01*
X0060589Y0113938D01*
X0060597Y0114001D01*
X0060609Y0114063D01*
X0060624Y0114124D01*
X0060643Y0114185D01*
X0060666Y0114244D01*
X0060693Y0114301D01*
X0060723Y0114357D01*
X0060756Y0114411D01*
X0060793Y0114463D01*
X0060832Y0114512D01*
X0060875Y0114559D01*
X0060920Y0114603D01*
X0060969Y0114644D01*
X0061019Y0114682D01*
X0061072Y0114717D01*
X0061127Y0114749D01*
X0061183Y0114777D01*
X0061242Y0114802D01*
X0061301Y0114823D01*
X0061362Y0114840D01*
X0061424Y0114853D01*
X0061487Y0114863D01*
X0061550Y0114869D01*
X0061613Y0114871D01*
X0063257Y0114871D01*
X0063320Y0114869D01*
X0063383Y0114863D01*
X0063446Y0114853D01*
X0063508Y0114840D01*
X0063569Y0114823D01*
X0063628Y0114802D01*
X0063687Y0114777D01*
X0063743Y0114749D01*
X0063798Y0114717D01*
X0063851Y0114682D01*
X0063901Y0114644D01*
X0063950Y0114603D01*
X0063995Y0114559D01*
X0064038Y0114512D01*
X0064077Y0114463D01*
X0064114Y0114411D01*
X0064147Y0114357D01*
X0064177Y0114301D01*
X0064204Y0114244D01*
X0064227Y0114185D01*
X0064246Y0114124D01*
X0064261Y0114063D01*
X0064273Y0114001D01*
X0064281Y0113938D01*
X0064285Y0113875D01*
X0064285Y0113811D01*
X0064281Y0113748D01*
X0064273Y0113685D01*
X0064261Y0113623D01*
X0064246Y0113562D01*
X0064227Y0113501D01*
X0064204Y0113442D01*
X0064177Y0113385D01*
X0064147Y0113329D01*
X0064114Y0113275D01*
X0064077Y0113223D01*
X0064038Y0113174D01*
X0063995Y0113127D01*
X0063950Y0113083D01*
X0063901Y0113042D01*
X0063851Y0113004D01*
X0063798Y0112969D01*
X0063743Y0112937D01*
X0063687Y0112909D01*
X0063628Y0112884D01*
X0063569Y0112863D01*
X0063508Y0112846D01*
X0063446Y0112833D01*
X0063383Y0112823D01*
X0063320Y0112817D01*
X0063257Y0112815D01*
X0062127Y0116809D02*
X0062743Y0117940D01*
X0064285Y0117529D02*
X0064283Y0117448D01*
X0064278Y0117368D01*
X0064268Y0117288D01*
X0064255Y0117208D01*
X0064238Y0117129D01*
X0064218Y0117051D01*
X0064194Y0116974D01*
X0064166Y0116898D01*
X0064135Y0116824D01*
X0064101Y0116751D01*
X0064063Y0116680D01*
X0064022Y0116610D01*
X0063978Y0116543D01*
X0063931Y0116477D01*
X0063880Y0116414D01*
X0063827Y0116354D01*
X0063771Y0116296D01*
X0062744Y0117940D02*
X0062773Y0117986D01*
X0062805Y0118029D01*
X0062839Y0118071D01*
X0062877Y0118110D01*
X0062916Y0118147D01*
X0062958Y0118181D01*
X0063003Y0118213D01*
X0063049Y0118241D01*
X0063097Y0118266D01*
X0063146Y0118289D01*
X0063197Y0118307D01*
X0063249Y0118323D01*
X0063301Y0118335D01*
X0063355Y0118344D01*
X0063409Y0118349D01*
X0063463Y0118351D01*
X0063519Y0118349D01*
X0063575Y0118343D01*
X0063630Y0118334D01*
X0063685Y0118321D01*
X0063738Y0118304D01*
X0063790Y0118283D01*
X0063841Y0118259D01*
X0063890Y0118231D01*
X0063937Y0118201D01*
X0063982Y0118167D01*
X0064024Y0118130D01*
X0064064Y0118090D01*
X0064101Y0118048D01*
X0064135Y0118003D01*
X0064165Y0117956D01*
X0064193Y0117907D01*
X0064217Y0117856D01*
X0064238Y0117804D01*
X0064255Y0117751D01*
X0064268Y0117696D01*
X0064277Y0117641D01*
X0064283Y0117585D01*
X0064285Y0117529D01*
X0064285Y0119672D02*
X0064285Y0120494D01*
X0064285Y0120083D02*
X0060585Y0120083D01*
X0060585Y0119672D02*
X0060585Y0120494D01*
X0062126Y0116809D02*
X0062097Y0116763D01*
X0062065Y0116720D01*
X0062031Y0116678D01*
X0061993Y0116639D01*
X0061954Y0116602D01*
X0061912Y0116568D01*
X0061867Y0116536D01*
X0061821Y0116508D01*
X0061773Y0116483D01*
X0061724Y0116460D01*
X0061673Y0116442D01*
X0061621Y0116426D01*
X0061569Y0116414D01*
X0061515Y0116405D01*
X0061461Y0116400D01*
X0061407Y0116398D01*
X0061407Y0116399D02*
X0061351Y0116401D01*
X0061295Y0116407D01*
X0061240Y0116416D01*
X0061185Y0116429D01*
X0061132Y0116446D01*
X0061080Y0116467D01*
X0061029Y0116491D01*
X0060980Y0116519D01*
X0060933Y0116549D01*
X0060888Y0116583D01*
X0060846Y0116620D01*
X0060806Y0116660D01*
X0060769Y0116702D01*
X0060735Y0116747D01*
X0060705Y0116794D01*
X0060677Y0116843D01*
X0060653Y0116894D01*
X0060632Y0116946D01*
X0060615Y0116999D01*
X0060602Y0117054D01*
X0060593Y0117109D01*
X0060587Y0117165D01*
X0060585Y0117221D01*
X0060587Y0117297D01*
X0060593Y0117373D01*
X0060602Y0117449D01*
X0060615Y0117524D01*
X0060632Y0117599D01*
X0060653Y0117672D01*
X0060677Y0117745D01*
X0060704Y0117816D01*
X0060736Y0117885D01*
X0060770Y0117954D01*
X0060808Y0118020D01*
X0060849Y0118084D01*
X0060893Y0118146D01*
X0060585Y0108650D02*
X0064285Y0108650D01*
X0069960Y0111775D02*
X0073660Y0113831D01*
X0069960Y0113831D01*
X0070782Y0115478D02*
X0070726Y0115480D01*
X0070670Y0115486D01*
X0070615Y0115495D01*
X0070560Y0115508D01*
X0070507Y0115525D01*
X0070455Y0115546D01*
X0070404Y0115570D01*
X0070355Y0115598D01*
X0070308Y0115628D01*
X0070263Y0115662D01*
X0070221Y0115699D01*
X0070181Y0115739D01*
X0070144Y0115781D01*
X0070110Y0115826D01*
X0070080Y0115873D01*
X0070052Y0115922D01*
X0070028Y0115973D01*
X0070007Y0116025D01*
X0069990Y0116078D01*
X0069977Y0116133D01*
X0069968Y0116188D01*
X0069962Y0116244D01*
X0069960Y0116300D01*
X0070782Y0115478D02*
X0070836Y0115480D01*
X0070890Y0115485D01*
X0070944Y0115494D01*
X0070996Y0115506D01*
X0071048Y0115522D01*
X0071099Y0115540D01*
X0071148Y0115563D01*
X0071196Y0115588D01*
X0071242Y0115616D01*
X0071287Y0115648D01*
X0071329Y0115682D01*
X0071368Y0115719D01*
X0071406Y0115758D01*
X0071440Y0115800D01*
X0071472Y0115843D01*
X0071501Y0115889D01*
X0071502Y0115889D02*
X0072118Y0117019D01*
X0073660Y0116608D02*
X0073658Y0116527D01*
X0073653Y0116447D01*
X0073643Y0116367D01*
X0073630Y0116287D01*
X0073613Y0116208D01*
X0073593Y0116130D01*
X0073569Y0116053D01*
X0073541Y0115977D01*
X0073510Y0115903D01*
X0073476Y0115830D01*
X0073438Y0115759D01*
X0073397Y0115689D01*
X0073353Y0115622D01*
X0073306Y0115556D01*
X0073255Y0115493D01*
X0073202Y0115433D01*
X0073146Y0115375D01*
X0072119Y0117019D02*
X0072148Y0117065D01*
X0072180Y0117108D01*
X0072214Y0117150D01*
X0072252Y0117189D01*
X0072291Y0117226D01*
X0072333Y0117260D01*
X0072378Y0117292D01*
X0072424Y0117320D01*
X0072472Y0117345D01*
X0072521Y0117368D01*
X0072572Y0117386D01*
X0072624Y0117402D01*
X0072676Y0117414D01*
X0072730Y0117423D01*
X0072784Y0117428D01*
X0072838Y0117430D01*
X0072894Y0117428D01*
X0072950Y0117422D01*
X0073005Y0117413D01*
X0073060Y0117400D01*
X0073113Y0117383D01*
X0073165Y0117362D01*
X0073216Y0117338D01*
X0073265Y0117310D01*
X0073312Y0117280D01*
X0073357Y0117246D01*
X0073399Y0117209D01*
X0073439Y0117169D01*
X0073476Y0117127D01*
X0073510Y0117082D01*
X0073540Y0117035D01*
X0073568Y0116986D01*
X0073592Y0116935D01*
X0073613Y0116883D01*
X0073630Y0116830D01*
X0073643Y0116775D01*
X0073652Y0116720D01*
X0073658Y0116664D01*
X0073660Y0116608D01*
X0070268Y0117225D02*
X0070224Y0117163D01*
X0070183Y0117099D01*
X0070145Y0117033D01*
X0070111Y0116964D01*
X0070079Y0116895D01*
X0070052Y0116824D01*
X0070028Y0116751D01*
X0070007Y0116678D01*
X0069990Y0116603D01*
X0069977Y0116528D01*
X0069968Y0116452D01*
X0069962Y0116376D01*
X0069960Y0116300D01*
X0071502Y0119249D02*
X0072118Y0120379D01*
X0073660Y0119968D02*
X0073658Y0119887D01*
X0073653Y0119807D01*
X0073643Y0119727D01*
X0073630Y0119647D01*
X0073613Y0119568D01*
X0073593Y0119490D01*
X0073569Y0119413D01*
X0073541Y0119337D01*
X0073510Y0119263D01*
X0073476Y0119190D01*
X0073438Y0119119D01*
X0073397Y0119049D01*
X0073353Y0118982D01*
X0073306Y0118916D01*
X0073255Y0118853D01*
X0073202Y0118793D01*
X0073146Y0118735D01*
X0072119Y0120379D02*
X0072148Y0120425D01*
X0072180Y0120468D01*
X0072214Y0120510D01*
X0072252Y0120549D01*
X0072291Y0120586D01*
X0072333Y0120620D01*
X0072378Y0120652D01*
X0072424Y0120680D01*
X0072472Y0120705D01*
X0072521Y0120728D01*
X0072572Y0120746D01*
X0072624Y0120762D01*
X0072676Y0120774D01*
X0072730Y0120783D01*
X0072784Y0120788D01*
X0072838Y0120790D01*
X0072894Y0120788D01*
X0072950Y0120782D01*
X0073005Y0120773D01*
X0073060Y0120760D01*
X0073113Y0120743D01*
X0073165Y0120722D01*
X0073216Y0120698D01*
X0073265Y0120670D01*
X0073312Y0120640D01*
X0073357Y0120606D01*
X0073399Y0120569D01*
X0073439Y0120529D01*
X0073476Y0120487D01*
X0073510Y0120442D01*
X0073540Y0120395D01*
X0073568Y0120346D01*
X0073592Y0120295D01*
X0073613Y0120243D01*
X0073630Y0120190D01*
X0073643Y0120135D01*
X0073652Y0120080D01*
X0073658Y0120024D01*
X0073660Y0119968D01*
X0070268Y0120585D02*
X0070224Y0120523D01*
X0070183Y0120459D01*
X0070145Y0120393D01*
X0070111Y0120324D01*
X0070079Y0120255D01*
X0070052Y0120184D01*
X0070028Y0120111D01*
X0070007Y0120038D01*
X0069990Y0119963D01*
X0069977Y0119888D01*
X0069968Y0119812D01*
X0069962Y0119736D01*
X0069960Y0119660D01*
X0069962Y0119604D01*
X0069968Y0119548D01*
X0069977Y0119493D01*
X0069990Y0119438D01*
X0070007Y0119385D01*
X0070028Y0119333D01*
X0070052Y0119282D01*
X0070080Y0119233D01*
X0070110Y0119186D01*
X0070144Y0119141D01*
X0070181Y0119099D01*
X0070221Y0119059D01*
X0070263Y0119022D01*
X0070308Y0118988D01*
X0070355Y0118958D01*
X0070404Y0118930D01*
X0070455Y0118906D01*
X0070507Y0118885D01*
X0070560Y0118868D01*
X0070615Y0118855D01*
X0070670Y0118846D01*
X0070726Y0118840D01*
X0070782Y0118838D01*
X0070836Y0118840D01*
X0070890Y0118845D01*
X0070944Y0118854D01*
X0070996Y0118866D01*
X0071048Y0118882D01*
X0071099Y0118900D01*
X0071148Y0118923D01*
X0071196Y0118948D01*
X0071242Y0118976D01*
X0071287Y0119008D01*
X0071329Y0119042D01*
X0071368Y0119079D01*
X0071406Y0119118D01*
X0071440Y0119160D01*
X0071472Y0119203D01*
X0071501Y0119249D01*
X0069960Y0111775D02*
X0073660Y0111775D01*
D12*
X0016935Y0002875D02*
X0003185Y0002875D01*
X0003185Y0026000D01*
X0016935Y0026000D01*
X0016935Y0089750D01*
X0003185Y0089750D01*
X0003185Y0026000D01*
X0016935Y0026000D02*
X0016935Y0002875D01*
X0016935Y0089750D02*
X0016935Y0112875D01*
X0003185Y0112875D01*
X0003185Y0089750D01*
X0003185Y0112875D02*
X0003185Y0136625D01*
X0016935Y0136625D01*
X0016935Y0112875D01*
D13*
X0019535Y0109650D02*
X0019535Y0109094D01*
X0019537Y0109048D01*
X0019543Y0109002D01*
X0019552Y0108958D01*
X0019565Y0108913D01*
X0019582Y0108871D01*
X0019602Y0108829D01*
X0019626Y0108790D01*
X0019652Y0108752D01*
X0019682Y0108717D01*
X0019714Y0108685D01*
X0019749Y0108655D01*
X0019787Y0108629D01*
X0019826Y0108605D01*
X0019868Y0108585D01*
X0019910Y0108568D01*
X0019955Y0108555D01*
X0019999Y0108546D01*
X0020045Y0108540D01*
X0020091Y0108538D01*
X0020091Y0108539D02*
X0020979Y0108539D01*
X0020979Y0108538D02*
X0021025Y0108540D01*
X0021071Y0108546D01*
X0021115Y0108555D01*
X0021160Y0108568D01*
X0021202Y0108585D01*
X0021244Y0108605D01*
X0021283Y0108629D01*
X0021321Y0108655D01*
X0021356Y0108685D01*
X0021388Y0108717D01*
X0021418Y0108752D01*
X0021444Y0108790D01*
X0021468Y0108829D01*
X0021488Y0108871D01*
X0021505Y0108913D01*
X0021518Y0108958D01*
X0021527Y0109002D01*
X0021533Y0109048D01*
X0021535Y0109094D01*
X0021535Y0109650D01*
X0019535Y0109650D01*
X0019979Y0107610D02*
X0021091Y0107610D01*
X0021132Y0107608D01*
X0021173Y0107602D01*
X0021213Y0107593D01*
X0021251Y0107580D01*
X0021289Y0107563D01*
X0021325Y0107543D01*
X0021359Y0107520D01*
X0021390Y0107494D01*
X0021419Y0107465D01*
X0021445Y0107434D01*
X0021468Y0107400D01*
X0021488Y0107364D01*
X0021505Y0107326D01*
X0021518Y0107288D01*
X0021527Y0107248D01*
X0021533Y0107207D01*
X0021535Y0107166D01*
X0021535Y0106721D01*
X0021535Y0105398D02*
X0019535Y0104732D01*
X0020035Y0104898D02*
X0020035Y0105898D01*
X0019535Y0106065D02*
X0021535Y0105398D01*
X0021535Y0103904D02*
X0019535Y0103904D01*
X0019535Y0103015D01*
X0019535Y0106721D02*
X0019535Y0107166D01*
X0019537Y0107207D01*
X0019543Y0107248D01*
X0019552Y0107288D01*
X0019565Y0107326D01*
X0019582Y0107364D01*
X0019602Y0107400D01*
X0019625Y0107434D01*
X0019651Y0107465D01*
X0019680Y0107494D01*
X0019711Y0107520D01*
X0019745Y0107543D01*
X0019781Y0107563D01*
X0019819Y0107580D01*
X0019857Y0107593D01*
X0019897Y0107602D01*
X0019938Y0107608D01*
X0019979Y0107610D01*
X0021535Y0115592D02*
X0021535Y0116703D01*
X0021535Y0116148D02*
X0019535Y0116148D01*
X0019535Y0117328D02*
X0019535Y0118217D01*
X0021535Y0118217D01*
X0021535Y0119222D02*
X0020091Y0119222D01*
X0020045Y0119224D01*
X0019999Y0119230D01*
X0019955Y0119239D01*
X0019910Y0119252D01*
X0019868Y0119269D01*
X0019826Y0119289D01*
X0019787Y0119313D01*
X0019749Y0119339D01*
X0019714Y0119369D01*
X0019682Y0119401D01*
X0019652Y0119436D01*
X0019626Y0119474D01*
X0019602Y0119513D01*
X0019582Y0119555D01*
X0019565Y0119597D01*
X0019552Y0119642D01*
X0019543Y0119686D01*
X0019537Y0119732D01*
X0019535Y0119778D01*
X0019537Y0119824D01*
X0019543Y0119870D01*
X0019552Y0119914D01*
X0019565Y0119959D01*
X0019582Y0120001D01*
X0019602Y0120043D01*
X0019626Y0120082D01*
X0019652Y0120120D01*
X0019682Y0120155D01*
X0019714Y0120187D01*
X0019749Y0120217D01*
X0019787Y0120243D01*
X0019826Y0120267D01*
X0019868Y0120287D01*
X0019910Y0120304D01*
X0019955Y0120317D01*
X0019999Y0120326D01*
X0020045Y0120332D01*
X0020091Y0120334D01*
X0020091Y0120333D02*
X0021535Y0120333D01*
X0021535Y0121824D02*
X0019535Y0121157D01*
X0020035Y0121324D02*
X0020035Y0122324D01*
X0019535Y0122490D02*
X0021535Y0121824D01*
X0021535Y0123136D02*
X0021535Y0124025D01*
X0019535Y0124025D01*
X0020646Y0124025D02*
X0020646Y0123136D01*
X0021535Y0128221D02*
X0019535Y0128665D01*
X0020868Y0129109D01*
X0019535Y0129554D01*
X0021535Y0129998D01*
X0021535Y0130666D02*
X0021535Y0131777D01*
X0021535Y0131221D02*
X0019535Y0131221D01*
X0019535Y0132412D02*
X0019535Y0132857D01*
X0019537Y0132898D01*
X0019543Y0132939D01*
X0019552Y0132979D01*
X0019565Y0133017D01*
X0019582Y0133055D01*
X0019602Y0133091D01*
X0019625Y0133125D01*
X0019651Y0133156D01*
X0019680Y0133185D01*
X0019711Y0133211D01*
X0019745Y0133234D01*
X0019781Y0133254D01*
X0019819Y0133271D01*
X0019857Y0133284D01*
X0019897Y0133293D01*
X0019938Y0133299D01*
X0019979Y0133301D01*
X0021091Y0133301D01*
X0021132Y0133299D01*
X0021173Y0133293D01*
X0021213Y0133284D01*
X0021251Y0133271D01*
X0021289Y0133254D01*
X0021325Y0133234D01*
X0021359Y0133211D01*
X0021390Y0133185D01*
X0021419Y0133156D01*
X0021445Y0133125D01*
X0021468Y0133091D01*
X0021488Y0133055D01*
X0021505Y0133017D01*
X0021518Y0132979D01*
X0021527Y0132939D01*
X0021533Y0132898D01*
X0021535Y0132857D01*
X0021535Y0132412D01*
X0020979Y0134164D02*
X0020091Y0134164D01*
X0020091Y0134163D02*
X0020045Y0134165D01*
X0019999Y0134171D01*
X0019955Y0134180D01*
X0019910Y0134193D01*
X0019868Y0134210D01*
X0019826Y0134230D01*
X0019787Y0134254D01*
X0019749Y0134280D01*
X0019714Y0134310D01*
X0019682Y0134342D01*
X0019652Y0134377D01*
X0019626Y0134415D01*
X0019602Y0134454D01*
X0019582Y0134496D01*
X0019565Y0134538D01*
X0019552Y0134583D01*
X0019543Y0134627D01*
X0019537Y0134673D01*
X0019535Y0134719D01*
X0019537Y0134765D01*
X0019543Y0134811D01*
X0019552Y0134855D01*
X0019565Y0134900D01*
X0019582Y0134942D01*
X0019602Y0134984D01*
X0019626Y0135023D01*
X0019652Y0135061D01*
X0019682Y0135096D01*
X0019714Y0135128D01*
X0019749Y0135158D01*
X0019787Y0135184D01*
X0019826Y0135208D01*
X0019868Y0135228D01*
X0019910Y0135245D01*
X0019955Y0135258D01*
X0019999Y0135267D01*
X0020045Y0135273D01*
X0020091Y0135275D01*
X0020979Y0135275D01*
X0021025Y0135273D01*
X0021071Y0135267D01*
X0021115Y0135258D01*
X0021160Y0135245D01*
X0021202Y0135228D01*
X0021244Y0135208D01*
X0021283Y0135184D01*
X0021321Y0135158D01*
X0021356Y0135128D01*
X0021388Y0135096D01*
X0021418Y0135061D01*
X0021444Y0135023D01*
X0021468Y0134984D01*
X0021488Y0134942D01*
X0021505Y0134900D01*
X0021518Y0134855D01*
X0021527Y0134811D01*
X0021533Y0134765D01*
X0021535Y0134719D01*
X0021533Y0134673D01*
X0021527Y0134627D01*
X0021518Y0134583D01*
X0021505Y0134538D01*
X0021488Y0134496D01*
X0021468Y0134454D01*
X0021444Y0134415D01*
X0021418Y0134377D01*
X0021388Y0134342D01*
X0021356Y0134310D01*
X0021321Y0134280D01*
X0021283Y0134254D01*
X0021244Y0134230D01*
X0021202Y0134210D01*
X0021160Y0134193D01*
X0021115Y0134180D01*
X0021071Y0134171D01*
X0021025Y0134165D01*
X0020979Y0134163D01*
X0020646Y0097775D02*
X0020646Y0097108D01*
X0021535Y0096886D02*
X0021535Y0097775D01*
X0019535Y0097775D01*
X0019535Y0096886D01*
X0019535Y0096063D02*
X0021535Y0096063D01*
X0019535Y0094952D01*
X0021535Y0094952D01*
X0021535Y0085275D02*
X0021535Y0084831D01*
X0021535Y0085053D02*
X0019535Y0085053D01*
X0019535Y0085275D02*
X0019535Y0084831D01*
X0019535Y0083958D02*
X0021535Y0083958D01*
X0020646Y0083958D02*
X0020646Y0082847D01*
X0021535Y0082847D02*
X0019535Y0082847D01*
X0019535Y0082023D02*
X0021535Y0081357D01*
X0019535Y0080690D01*
X0020035Y0080857D02*
X0020035Y0081857D01*
X0019535Y0075275D02*
X0019535Y0074831D01*
X0019535Y0075053D02*
X0021535Y0075053D01*
X0021535Y0075275D02*
X0021535Y0074831D01*
X0021535Y0073954D02*
X0019535Y0073954D01*
X0019535Y0073065D01*
X0019535Y0072419D02*
X0021535Y0071753D01*
X0019535Y0071086D01*
X0020035Y0071253D02*
X0020035Y0072253D01*
X0019535Y0065275D02*
X0019535Y0064831D01*
X0019535Y0065053D02*
X0021535Y0065053D01*
X0021535Y0065275D02*
X0021535Y0064831D01*
X0021535Y0063958D02*
X0019535Y0063958D01*
X0019535Y0062847D02*
X0021535Y0062847D01*
X0020646Y0062847D02*
X0020646Y0063958D01*
X0020646Y0061815D02*
X0020646Y0061259D01*
X0020647Y0061259D02*
X0020649Y0061218D01*
X0020655Y0061177D01*
X0020664Y0061137D01*
X0020677Y0061099D01*
X0020694Y0061061D01*
X0020714Y0061025D01*
X0020737Y0060991D01*
X0020763Y0060960D01*
X0020792Y0060931D01*
X0020823Y0060905D01*
X0020857Y0060882D01*
X0020893Y0060862D01*
X0020931Y0060845D01*
X0020969Y0060832D01*
X0021009Y0060823D01*
X0021050Y0060817D01*
X0021091Y0060815D01*
X0021132Y0060817D01*
X0021173Y0060823D01*
X0021213Y0060832D01*
X0021251Y0060845D01*
X0021289Y0060862D01*
X0021325Y0060882D01*
X0021359Y0060905D01*
X0021390Y0060931D01*
X0021419Y0060960D01*
X0021445Y0060991D01*
X0021468Y0061025D01*
X0021488Y0061061D01*
X0021505Y0061099D01*
X0021518Y0061137D01*
X0021527Y0061177D01*
X0021533Y0061218D01*
X0021535Y0061259D01*
X0021535Y0061815D01*
X0019535Y0061815D01*
X0019535Y0061259D01*
X0019537Y0061213D01*
X0019543Y0061167D01*
X0019552Y0061123D01*
X0019565Y0061078D01*
X0019582Y0061036D01*
X0019602Y0060994D01*
X0019626Y0060955D01*
X0019652Y0060917D01*
X0019682Y0060882D01*
X0019714Y0060850D01*
X0019749Y0060820D01*
X0019787Y0060794D01*
X0019826Y0060770D01*
X0019868Y0060750D01*
X0019910Y0060733D01*
X0019955Y0060720D01*
X0019999Y0060711D01*
X0020045Y0060705D01*
X0020091Y0060703D01*
X0020137Y0060705D01*
X0020183Y0060711D01*
X0020227Y0060720D01*
X0020272Y0060733D01*
X0020314Y0060750D01*
X0020356Y0060770D01*
X0020395Y0060794D01*
X0020433Y0060820D01*
X0020468Y0060850D01*
X0020500Y0060882D01*
X0020530Y0060917D01*
X0020556Y0060955D01*
X0020580Y0060994D01*
X0020600Y0061036D01*
X0020617Y0061078D01*
X0020630Y0061123D01*
X0020639Y0061167D01*
X0020645Y0061213D01*
X0020647Y0061259D01*
X0021535Y0055275D02*
X0021535Y0054831D01*
X0021535Y0055053D02*
X0019535Y0055053D01*
X0019535Y0055275D02*
X0019535Y0054831D01*
X0019535Y0053954D02*
X0019535Y0053065D01*
X0019535Y0052211D02*
X0021535Y0052211D01*
X0021535Y0051655D01*
X0021533Y0051614D01*
X0021527Y0051573D01*
X0021518Y0051533D01*
X0021505Y0051495D01*
X0021488Y0051457D01*
X0021468Y0051421D01*
X0021445Y0051387D01*
X0021419Y0051356D01*
X0021390Y0051327D01*
X0021359Y0051301D01*
X0021325Y0051278D01*
X0021289Y0051258D01*
X0021251Y0051241D01*
X0021213Y0051228D01*
X0021173Y0051219D01*
X0021132Y0051213D01*
X0021091Y0051211D01*
X0021050Y0051213D01*
X0021009Y0051219D01*
X0020969Y0051228D01*
X0020931Y0051241D01*
X0020893Y0051258D01*
X0020857Y0051278D01*
X0020823Y0051301D01*
X0020792Y0051327D01*
X0020763Y0051356D01*
X0020737Y0051387D01*
X0020714Y0051421D01*
X0020694Y0051457D01*
X0020677Y0051495D01*
X0020664Y0051533D01*
X0020655Y0051573D01*
X0020649Y0051614D01*
X0020647Y0051655D01*
X0020646Y0051655D02*
X0020646Y0052211D01*
X0020647Y0051655D02*
X0020645Y0051609D01*
X0020639Y0051563D01*
X0020630Y0051519D01*
X0020617Y0051474D01*
X0020600Y0051432D01*
X0020580Y0051390D01*
X0020556Y0051351D01*
X0020530Y0051313D01*
X0020500Y0051278D01*
X0020468Y0051246D01*
X0020433Y0051216D01*
X0020395Y0051190D01*
X0020356Y0051166D01*
X0020314Y0051146D01*
X0020272Y0051129D01*
X0020227Y0051116D01*
X0020183Y0051107D01*
X0020137Y0051101D01*
X0020091Y0051099D01*
X0020045Y0051101D01*
X0019999Y0051107D01*
X0019955Y0051116D01*
X0019910Y0051129D01*
X0019868Y0051146D01*
X0019826Y0051166D01*
X0019787Y0051190D01*
X0019749Y0051216D01*
X0019714Y0051246D01*
X0019682Y0051278D01*
X0019652Y0051313D01*
X0019626Y0051351D01*
X0019602Y0051390D01*
X0019582Y0051432D01*
X0019565Y0051474D01*
X0019552Y0051519D01*
X0019543Y0051563D01*
X0019537Y0051609D01*
X0019535Y0051655D01*
X0019535Y0052211D01*
X0019535Y0053954D02*
X0021535Y0053954D01*
X0021535Y0045275D02*
X0021535Y0044831D01*
X0021535Y0045053D02*
X0019535Y0045053D01*
X0019535Y0045275D02*
X0019535Y0044831D01*
X0019535Y0043958D02*
X0021535Y0043958D01*
X0020646Y0043958D02*
X0020646Y0042847D01*
X0021535Y0042847D02*
X0019535Y0042847D01*
X0019979Y0041918D02*
X0021091Y0041918D01*
X0021132Y0041916D01*
X0021173Y0041910D01*
X0021213Y0041901D01*
X0021251Y0041888D01*
X0021289Y0041871D01*
X0021325Y0041851D01*
X0021359Y0041828D01*
X0021390Y0041802D01*
X0021419Y0041773D01*
X0021445Y0041742D01*
X0021468Y0041708D01*
X0021488Y0041672D01*
X0021505Y0041634D01*
X0021518Y0041596D01*
X0021527Y0041556D01*
X0021533Y0041515D01*
X0021535Y0041474D01*
X0021535Y0041030D01*
X0019979Y0041918D02*
X0019938Y0041916D01*
X0019897Y0041910D01*
X0019857Y0041901D01*
X0019819Y0041888D01*
X0019781Y0041871D01*
X0019745Y0041851D01*
X0019711Y0041828D01*
X0019680Y0041802D01*
X0019651Y0041773D01*
X0019625Y0041742D01*
X0019602Y0041708D01*
X0019582Y0041672D01*
X0019565Y0041634D01*
X0019552Y0041596D01*
X0019543Y0041556D01*
X0019537Y0041515D01*
X0019535Y0041474D01*
X0019535Y0041030D01*
X0019535Y0035275D02*
X0019535Y0034831D01*
X0019535Y0035053D02*
X0021535Y0035053D01*
X0021535Y0035275D02*
X0021535Y0034831D01*
X0021535Y0033954D02*
X0019535Y0033954D01*
X0019535Y0033065D01*
X0019979Y0032314D02*
X0021091Y0032314D01*
X0021132Y0032312D01*
X0021173Y0032306D01*
X0021213Y0032297D01*
X0021251Y0032284D01*
X0021289Y0032267D01*
X0021325Y0032247D01*
X0021359Y0032224D01*
X0021390Y0032198D01*
X0021419Y0032169D01*
X0021445Y0032138D01*
X0021468Y0032104D01*
X0021488Y0032068D01*
X0021505Y0032030D01*
X0021518Y0031992D01*
X0021527Y0031952D01*
X0021533Y0031911D01*
X0021535Y0031870D01*
X0021535Y0031426D01*
X0019979Y0032314D02*
X0019938Y0032312D01*
X0019897Y0032306D01*
X0019857Y0032297D01*
X0019819Y0032284D01*
X0019781Y0032267D01*
X0019745Y0032247D01*
X0019711Y0032224D01*
X0019680Y0032198D01*
X0019651Y0032169D01*
X0019625Y0032138D01*
X0019602Y0032104D01*
X0019582Y0032068D01*
X0019565Y0032030D01*
X0019552Y0031992D01*
X0019543Y0031952D01*
X0019537Y0031911D01*
X0019535Y0031870D01*
X0019535Y0031426D01*
X0020877Y0022456D02*
X0020493Y0021753D01*
X0019535Y0022008D02*
X0019537Y0022069D01*
X0019542Y0022130D01*
X0019550Y0022190D01*
X0019562Y0022250D01*
X0019578Y0022309D01*
X0019596Y0022367D01*
X0019618Y0022423D01*
X0019643Y0022479D01*
X0019671Y0022533D01*
X0019702Y0022585D01*
X0019736Y0022636D01*
X0019773Y0022684D01*
X0019813Y0022731D01*
X0019855Y0022775D01*
X0020493Y0021753D02*
X0020469Y0021715D01*
X0020441Y0021679D01*
X0020411Y0021647D01*
X0020377Y0021616D01*
X0020341Y0021589D01*
X0020303Y0021565D01*
X0020264Y0021545D01*
X0020222Y0021528D01*
X0020179Y0021514D01*
X0020135Y0021505D01*
X0020091Y0021499D01*
X0020046Y0021497D01*
X0020004Y0021499D01*
X0019962Y0021504D01*
X0019921Y0021513D01*
X0019880Y0021525D01*
X0019841Y0021540D01*
X0019803Y0021559D01*
X0019767Y0021580D01*
X0019732Y0021605D01*
X0019700Y0021632D01*
X0019670Y0021662D01*
X0019643Y0021694D01*
X0019618Y0021729D01*
X0019597Y0021765D01*
X0019578Y0021803D01*
X0019563Y0021842D01*
X0019551Y0021883D01*
X0019542Y0021924D01*
X0019537Y0021966D01*
X0019535Y0022008D01*
X0021643Y0021625D02*
X0021676Y0021671D01*
X0021705Y0021719D01*
X0021732Y0021768D01*
X0021756Y0021819D01*
X0021777Y0021871D01*
X0021794Y0021924D01*
X0021809Y0021978D01*
X0021820Y0022033D01*
X0021828Y0022088D01*
X0021833Y0022144D01*
X0021835Y0022200D01*
X0021833Y0022242D01*
X0021828Y0022284D01*
X0021819Y0022325D01*
X0021807Y0022366D01*
X0021792Y0022405D01*
X0021773Y0022443D01*
X0021752Y0022479D01*
X0021727Y0022514D01*
X0021700Y0022546D01*
X0021670Y0022576D01*
X0021638Y0022603D01*
X0021603Y0022628D01*
X0021567Y0022649D01*
X0021529Y0022668D01*
X0021490Y0022683D01*
X0021449Y0022695D01*
X0021408Y0022704D01*
X0021366Y0022709D01*
X0021324Y0022711D01*
X0021279Y0022709D01*
X0021235Y0022703D01*
X0021191Y0022694D01*
X0021148Y0022680D01*
X0021106Y0022663D01*
X0021066Y0022643D01*
X0021029Y0022619D01*
X0020993Y0022592D01*
X0020959Y0022561D01*
X0020929Y0022529D01*
X0020901Y0022493D01*
X0020877Y0022455D01*
X0021196Y0020600D02*
X0020174Y0020600D01*
X0020125Y0020598D01*
X0020076Y0020593D01*
X0020028Y0020583D01*
X0019981Y0020570D01*
X0019935Y0020554D01*
X0019890Y0020534D01*
X0019847Y0020510D01*
X0019806Y0020484D01*
X0019767Y0020454D01*
X0019731Y0020421D01*
X0019697Y0020386D01*
X0019666Y0020348D01*
X0019638Y0020308D01*
X0019613Y0020266D01*
X0019591Y0020222D01*
X0019573Y0020177D01*
X0019558Y0020130D01*
X0019547Y0020083D01*
X0019539Y0020034D01*
X0019535Y0019985D01*
X0019535Y0019937D01*
X0019539Y0019888D01*
X0019547Y0019839D01*
X0019558Y0019792D01*
X0019573Y0019745D01*
X0019591Y0019700D01*
X0019613Y0019656D01*
X0019638Y0019614D01*
X0019666Y0019574D01*
X0019697Y0019536D01*
X0019731Y0019501D01*
X0019767Y0019468D01*
X0019806Y0019438D01*
X0019847Y0019412D01*
X0019890Y0019388D01*
X0019935Y0019368D01*
X0019981Y0019352D01*
X0020028Y0019339D01*
X0020076Y0019329D01*
X0020125Y0019324D01*
X0020174Y0019322D01*
X0021196Y0019322D01*
X0021245Y0019324D01*
X0021294Y0019329D01*
X0021342Y0019339D01*
X0021389Y0019352D01*
X0021435Y0019368D01*
X0021480Y0019388D01*
X0021523Y0019412D01*
X0021564Y0019438D01*
X0021603Y0019468D01*
X0021639Y0019501D01*
X0021673Y0019536D01*
X0021704Y0019574D01*
X0021732Y0019614D01*
X0021757Y0019656D01*
X0021779Y0019700D01*
X0021797Y0019745D01*
X0021812Y0019792D01*
X0021823Y0019839D01*
X0021831Y0019888D01*
X0021835Y0019937D01*
X0021835Y0019985D01*
X0021831Y0020034D01*
X0021823Y0020083D01*
X0021812Y0020130D01*
X0021797Y0020177D01*
X0021779Y0020222D01*
X0021757Y0020266D01*
X0021732Y0020308D01*
X0021704Y0020348D01*
X0021673Y0020386D01*
X0021639Y0020421D01*
X0021603Y0020454D01*
X0021564Y0020484D01*
X0021523Y0020510D01*
X0021480Y0020534D01*
X0021435Y0020554D01*
X0021389Y0020570D01*
X0021342Y0020583D01*
X0021294Y0020593D01*
X0021245Y0020598D01*
X0021196Y0020600D01*
X0021324Y0018350D02*
X0021835Y0017711D01*
X0019535Y0017711D01*
X0019535Y0018350D02*
X0019535Y0017072D01*
X0020877Y0011831D02*
X0020493Y0011128D01*
X0019535Y0011383D02*
X0019537Y0011444D01*
X0019542Y0011505D01*
X0019550Y0011565D01*
X0019562Y0011625D01*
X0019578Y0011684D01*
X0019596Y0011742D01*
X0019618Y0011798D01*
X0019643Y0011854D01*
X0019671Y0011908D01*
X0019702Y0011960D01*
X0019736Y0012011D01*
X0019773Y0012059D01*
X0019813Y0012106D01*
X0019855Y0012150D01*
X0020493Y0011128D02*
X0020469Y0011090D01*
X0020441Y0011054D01*
X0020411Y0011022D01*
X0020377Y0010991D01*
X0020341Y0010964D01*
X0020303Y0010940D01*
X0020264Y0010920D01*
X0020222Y0010903D01*
X0020179Y0010889D01*
X0020135Y0010880D01*
X0020091Y0010874D01*
X0020046Y0010872D01*
X0020004Y0010874D01*
X0019962Y0010879D01*
X0019921Y0010888D01*
X0019880Y0010900D01*
X0019841Y0010915D01*
X0019803Y0010934D01*
X0019767Y0010955D01*
X0019732Y0010980D01*
X0019700Y0011007D01*
X0019670Y0011037D01*
X0019643Y0011069D01*
X0019618Y0011104D01*
X0019597Y0011140D01*
X0019578Y0011178D01*
X0019563Y0011217D01*
X0019551Y0011258D01*
X0019542Y0011299D01*
X0019537Y0011341D01*
X0019535Y0011383D01*
X0021643Y0011000D02*
X0021676Y0011046D01*
X0021705Y0011094D01*
X0021732Y0011143D01*
X0021756Y0011194D01*
X0021777Y0011246D01*
X0021794Y0011299D01*
X0021809Y0011353D01*
X0021820Y0011408D01*
X0021828Y0011463D01*
X0021833Y0011519D01*
X0021835Y0011575D01*
X0021833Y0011617D01*
X0021828Y0011659D01*
X0021819Y0011700D01*
X0021807Y0011741D01*
X0021792Y0011780D01*
X0021773Y0011818D01*
X0021752Y0011854D01*
X0021727Y0011889D01*
X0021700Y0011921D01*
X0021670Y0011951D01*
X0021638Y0011978D01*
X0021603Y0012003D01*
X0021567Y0012024D01*
X0021529Y0012043D01*
X0021490Y0012058D01*
X0021449Y0012070D01*
X0021408Y0012079D01*
X0021366Y0012084D01*
X0021324Y0012086D01*
X0021279Y0012084D01*
X0021235Y0012078D01*
X0021191Y0012069D01*
X0021148Y0012055D01*
X0021106Y0012038D01*
X0021066Y0012018D01*
X0021029Y0011994D01*
X0020993Y0011967D01*
X0020959Y0011936D01*
X0020929Y0011904D01*
X0020901Y0011868D01*
X0020877Y0011830D01*
X0021196Y0009975D02*
X0020174Y0009975D01*
X0020125Y0009973D01*
X0020076Y0009968D01*
X0020028Y0009958D01*
X0019981Y0009945D01*
X0019935Y0009929D01*
X0019890Y0009909D01*
X0019847Y0009885D01*
X0019806Y0009859D01*
X0019767Y0009829D01*
X0019731Y0009796D01*
X0019697Y0009761D01*
X0019666Y0009723D01*
X0019638Y0009683D01*
X0019613Y0009641D01*
X0019591Y0009597D01*
X0019573Y0009552D01*
X0019558Y0009505D01*
X0019547Y0009458D01*
X0019539Y0009409D01*
X0019535Y0009360D01*
X0019535Y0009312D01*
X0019539Y0009263D01*
X0019547Y0009214D01*
X0019558Y0009167D01*
X0019573Y0009120D01*
X0019591Y0009075D01*
X0019613Y0009031D01*
X0019638Y0008989D01*
X0019666Y0008949D01*
X0019697Y0008911D01*
X0019731Y0008876D01*
X0019767Y0008843D01*
X0019806Y0008813D01*
X0019847Y0008787D01*
X0019890Y0008763D01*
X0019935Y0008743D01*
X0019981Y0008727D01*
X0020028Y0008714D01*
X0020076Y0008704D01*
X0020125Y0008699D01*
X0020174Y0008697D01*
X0021196Y0008697D01*
X0021245Y0008699D01*
X0021294Y0008704D01*
X0021342Y0008714D01*
X0021389Y0008727D01*
X0021435Y0008743D01*
X0021480Y0008763D01*
X0021523Y0008787D01*
X0021564Y0008813D01*
X0021603Y0008843D01*
X0021639Y0008876D01*
X0021673Y0008911D01*
X0021704Y0008949D01*
X0021732Y0008989D01*
X0021757Y0009031D01*
X0021779Y0009075D01*
X0021797Y0009120D01*
X0021812Y0009167D01*
X0021823Y0009214D01*
X0021831Y0009263D01*
X0021835Y0009312D01*
X0021835Y0009360D01*
X0021831Y0009409D01*
X0021823Y0009458D01*
X0021812Y0009505D01*
X0021797Y0009552D01*
X0021779Y0009597D01*
X0021757Y0009641D01*
X0021732Y0009683D01*
X0021704Y0009723D01*
X0021673Y0009761D01*
X0021639Y0009796D01*
X0021603Y0009829D01*
X0021564Y0009859D01*
X0021523Y0009885D01*
X0021480Y0009909D01*
X0021435Y0009929D01*
X0021389Y0009945D01*
X0021342Y0009958D01*
X0021294Y0009968D01*
X0021245Y0009973D01*
X0021196Y0009975D01*
X0021324Y0007725D02*
X0021835Y0007086D01*
X0019535Y0007086D01*
X0019535Y0007725D02*
X0019535Y0006447D01*
X0072660Y0017350D02*
X0073438Y0017350D01*
X0073494Y0017352D01*
X0073549Y0017358D01*
X0073603Y0017368D01*
X0073657Y0017382D01*
X0073710Y0017399D01*
X0073761Y0017420D01*
X0073811Y0017445D01*
X0073859Y0017474D01*
X0073904Y0017505D01*
X0073947Y0017540D01*
X0073988Y0017578D01*
X0074026Y0017619D01*
X0074061Y0017662D01*
X0074092Y0017707D01*
X0074121Y0017755D01*
X0074146Y0017805D01*
X0074167Y0017856D01*
X0074184Y0017909D01*
X0074198Y0017963D01*
X0074208Y0018017D01*
X0074214Y0018072D01*
X0074216Y0018128D01*
X0074214Y0018184D01*
X0074208Y0018239D01*
X0074198Y0018293D01*
X0074184Y0018347D01*
X0074167Y0018400D01*
X0074146Y0018451D01*
X0074121Y0018501D01*
X0074092Y0018549D01*
X0074061Y0018594D01*
X0074026Y0018637D01*
X0073988Y0018678D01*
X0073947Y0018716D01*
X0073904Y0018751D01*
X0073859Y0018782D01*
X0073811Y0018811D01*
X0073761Y0018836D01*
X0073710Y0018857D01*
X0073657Y0018874D01*
X0073603Y0018888D01*
X0073549Y0018898D01*
X0073494Y0018904D01*
X0073438Y0018906D01*
X0073593Y0018906D02*
X0072971Y0018906D01*
X0073593Y0018906D02*
X0073642Y0018908D01*
X0073690Y0018914D01*
X0073738Y0018923D01*
X0073785Y0018936D01*
X0073831Y0018953D01*
X0073875Y0018974D01*
X0073918Y0018998D01*
X0073959Y0019025D01*
X0073997Y0019055D01*
X0074033Y0019088D01*
X0074066Y0019124D01*
X0074096Y0019162D01*
X0074123Y0019203D01*
X0074147Y0019246D01*
X0074168Y0019290D01*
X0074185Y0019336D01*
X0074198Y0019383D01*
X0074207Y0019431D01*
X0074213Y0019479D01*
X0074215Y0019528D01*
X0074213Y0019577D01*
X0074207Y0019625D01*
X0074198Y0019673D01*
X0074185Y0019720D01*
X0074168Y0019766D01*
X0074147Y0019810D01*
X0074123Y0019853D01*
X0074096Y0019894D01*
X0074066Y0019932D01*
X0074033Y0019968D01*
X0073997Y0020001D01*
X0073959Y0020031D01*
X0073918Y0020058D01*
X0073875Y0020082D01*
X0073831Y0020103D01*
X0073785Y0020120D01*
X0073738Y0020133D01*
X0073690Y0020142D01*
X0073642Y0020148D01*
X0073593Y0020150D01*
X0072660Y0020150D01*
X0075204Y0020150D02*
X0076138Y0017350D01*
X0077071Y0020150D01*
X0078060Y0020150D02*
X0078993Y0020150D01*
X0079042Y0020148D01*
X0079090Y0020142D01*
X0079138Y0020133D01*
X0079185Y0020120D01*
X0079231Y0020103D01*
X0079275Y0020082D01*
X0079318Y0020058D01*
X0079359Y0020031D01*
X0079397Y0020001D01*
X0079433Y0019968D01*
X0079466Y0019932D01*
X0079496Y0019894D01*
X0079523Y0019853D01*
X0079547Y0019810D01*
X0079568Y0019766D01*
X0079585Y0019720D01*
X0079598Y0019673D01*
X0079607Y0019625D01*
X0079613Y0019577D01*
X0079615Y0019528D01*
X0079613Y0019479D01*
X0079607Y0019431D01*
X0079598Y0019383D01*
X0079585Y0019336D01*
X0079568Y0019290D01*
X0079547Y0019246D01*
X0079523Y0019203D01*
X0079496Y0019162D01*
X0079466Y0019124D01*
X0079433Y0019088D01*
X0079397Y0019055D01*
X0079359Y0019025D01*
X0079318Y0018998D01*
X0079275Y0018974D01*
X0079231Y0018953D01*
X0079185Y0018936D01*
X0079138Y0018923D01*
X0079090Y0018914D01*
X0079042Y0018908D01*
X0078993Y0018906D01*
X0078371Y0018906D01*
X0078838Y0018906D02*
X0078894Y0018904D01*
X0078949Y0018898D01*
X0079003Y0018888D01*
X0079057Y0018874D01*
X0079110Y0018857D01*
X0079161Y0018836D01*
X0079211Y0018811D01*
X0079259Y0018782D01*
X0079304Y0018751D01*
X0079347Y0018716D01*
X0079388Y0018678D01*
X0079426Y0018637D01*
X0079461Y0018594D01*
X0079492Y0018549D01*
X0079521Y0018501D01*
X0079546Y0018451D01*
X0079567Y0018400D01*
X0079584Y0018347D01*
X0079598Y0018293D01*
X0079608Y0018239D01*
X0079614Y0018184D01*
X0079616Y0018128D01*
X0079614Y0018072D01*
X0079608Y0018017D01*
X0079598Y0017963D01*
X0079584Y0017909D01*
X0079567Y0017856D01*
X0079546Y0017805D01*
X0079521Y0017755D01*
X0079492Y0017707D01*
X0079461Y0017662D01*
X0079426Y0017619D01*
X0079388Y0017578D01*
X0079347Y0017540D01*
X0079304Y0017505D01*
X0079259Y0017474D01*
X0079211Y0017445D01*
X0079161Y0017420D01*
X0079110Y0017399D01*
X0079057Y0017382D01*
X0079003Y0017368D01*
X0078949Y0017358D01*
X0078894Y0017352D01*
X0078838Y0017350D01*
X0078060Y0017350D01*
X0092077Y0105239D02*
X0092543Y0106094D01*
X0093710Y0105783D02*
X0093708Y0105714D01*
X0093703Y0105645D01*
X0093694Y0105576D01*
X0093681Y0105508D01*
X0093665Y0105441D01*
X0093645Y0105375D01*
X0093622Y0105310D01*
X0093595Y0105246D01*
X0093565Y0105184D01*
X0093532Y0105123D01*
X0093496Y0105064D01*
X0093456Y0105007D01*
X0093414Y0104952D01*
X0093369Y0104900D01*
X0093321Y0104850D01*
X0092544Y0106095D02*
X0092569Y0106134D01*
X0092597Y0106172D01*
X0092628Y0106207D01*
X0092661Y0106240D01*
X0092697Y0106270D01*
X0092735Y0106298D01*
X0092774Y0106323D01*
X0092816Y0106344D01*
X0092859Y0106363D01*
X0092903Y0106378D01*
X0092949Y0106390D01*
X0092995Y0106399D01*
X0093041Y0106404D01*
X0093088Y0106406D01*
X0093088Y0106405D02*
X0093137Y0106403D01*
X0093185Y0106397D01*
X0093233Y0106388D01*
X0093280Y0106375D01*
X0093326Y0106358D01*
X0093370Y0106337D01*
X0093413Y0106313D01*
X0093454Y0106286D01*
X0093492Y0106256D01*
X0093528Y0106223D01*
X0093561Y0106187D01*
X0093591Y0106149D01*
X0093618Y0106108D01*
X0093642Y0106065D01*
X0093663Y0106021D01*
X0093680Y0105975D01*
X0093693Y0105928D01*
X0093702Y0105880D01*
X0093708Y0105832D01*
X0093710Y0105783D01*
X0091143Y0106250D02*
X0091107Y0106199D01*
X0091074Y0106146D01*
X0091043Y0106092D01*
X0091016Y0106035D01*
X0090991Y0105978D01*
X0090970Y0105919D01*
X0090952Y0105859D01*
X0090937Y0105798D01*
X0090925Y0105737D01*
X0090917Y0105675D01*
X0090912Y0105613D01*
X0090910Y0105550D01*
X0090912Y0105501D01*
X0090918Y0105453D01*
X0090927Y0105405D01*
X0090940Y0105358D01*
X0090957Y0105312D01*
X0090978Y0105268D01*
X0091002Y0105225D01*
X0091029Y0105184D01*
X0091059Y0105146D01*
X0091092Y0105110D01*
X0091128Y0105077D01*
X0091166Y0105047D01*
X0091207Y0105020D01*
X0091250Y0104996D01*
X0091294Y0104975D01*
X0091340Y0104958D01*
X0091387Y0104945D01*
X0091435Y0104936D01*
X0091483Y0104930D01*
X0091532Y0104928D01*
X0091579Y0104930D01*
X0091625Y0104935D01*
X0091671Y0104944D01*
X0091717Y0104956D01*
X0091761Y0104971D01*
X0091804Y0104990D01*
X0091846Y0105011D01*
X0091885Y0105036D01*
X0091923Y0105064D01*
X0091959Y0105094D01*
X0091992Y0105127D01*
X0092023Y0105162D01*
X0092051Y0105200D01*
X0092076Y0105239D01*
X0092154Y0107550D02*
X0092154Y0109106D01*
X0090910Y0109106D02*
X0093710Y0109106D01*
X0093710Y0110435D02*
X0093710Y0111679D01*
X0094021Y0112566D02*
X0094021Y0113810D01*
X0093710Y0114684D02*
X0090910Y0116551D01*
X0090910Y0114684D02*
X0093710Y0116551D01*
X0093710Y0110435D02*
X0090910Y0110435D01*
X0090910Y0107550D02*
X0093710Y0107550D01*
X0101535Y0107105D02*
X0104335Y0107105D01*
X0104335Y0105781D02*
X0104335Y0104847D01*
X0104333Y0104798D01*
X0104327Y0104750D01*
X0104318Y0104702D01*
X0104305Y0104655D01*
X0104288Y0104609D01*
X0104267Y0104565D01*
X0104243Y0104522D01*
X0104216Y0104481D01*
X0104186Y0104443D01*
X0104153Y0104407D01*
X0104117Y0104374D01*
X0104079Y0104344D01*
X0104038Y0104317D01*
X0103995Y0104293D01*
X0103951Y0104272D01*
X0103905Y0104255D01*
X0103858Y0104242D01*
X0103810Y0104233D01*
X0103762Y0104227D01*
X0103713Y0104225D01*
X0102157Y0104225D01*
X0102108Y0104227D01*
X0102060Y0104233D01*
X0102012Y0104242D01*
X0101965Y0104255D01*
X0101919Y0104272D01*
X0101875Y0104293D01*
X0101832Y0104317D01*
X0101791Y0104344D01*
X0101753Y0104374D01*
X0101717Y0104407D01*
X0101684Y0104443D01*
X0101654Y0104481D01*
X0101627Y0104522D01*
X0101603Y0104565D01*
X0101582Y0104609D01*
X0101565Y0104655D01*
X0101552Y0104702D01*
X0101543Y0104750D01*
X0101537Y0104798D01*
X0101535Y0104847D01*
X0101535Y0105781D01*
X0102779Y0105781D02*
X0102779Y0105314D01*
X0102779Y0105781D02*
X0104335Y0105781D01*
X0102779Y0107105D02*
X0102779Y0108661D01*
X0101535Y0108661D02*
X0104335Y0108661D01*
X0104335Y0109990D02*
X0104335Y0111234D01*
X0104646Y0112121D02*
X0104646Y0113365D01*
X0104335Y0114239D02*
X0101535Y0116106D01*
X0101535Y0114239D02*
X0104335Y0116106D01*
X0104335Y0109990D02*
X0101535Y0109990D01*
X0098085Y0124225D02*
X0096285Y0124225D01*
X0096285Y0125025D01*
X0096285Y0125601D02*
X0096285Y0126601D01*
X0096285Y0126101D02*
X0098085Y0126101D01*
X0098285Y0127201D02*
X0098285Y0128001D01*
X0098085Y0128661D02*
X0098085Y0129061D01*
X0098085Y0128861D02*
X0096285Y0128861D01*
X0096285Y0128661D02*
X0096285Y0129061D01*
X0096285Y0129861D02*
X0098085Y0130861D01*
X0096285Y0130861D01*
X0096285Y0131781D02*
X0096285Y0132281D01*
X0096287Y0132325D01*
X0096293Y0132368D01*
X0096302Y0132410D01*
X0096315Y0132452D01*
X0096332Y0132492D01*
X0096352Y0132531D01*
X0096375Y0132568D01*
X0096402Y0132602D01*
X0096431Y0132635D01*
X0096464Y0132664D01*
X0096498Y0132691D01*
X0096535Y0132714D01*
X0096574Y0132734D01*
X0096614Y0132751D01*
X0096656Y0132764D01*
X0096698Y0132773D01*
X0096741Y0132779D01*
X0096785Y0132781D01*
X0097585Y0132781D01*
X0097629Y0132779D01*
X0097672Y0132773D01*
X0097714Y0132764D01*
X0097756Y0132751D01*
X0097796Y0132734D01*
X0097835Y0132714D01*
X0097872Y0132691D01*
X0097906Y0132664D01*
X0097939Y0132635D01*
X0097968Y0132602D01*
X0097995Y0132568D01*
X0098018Y0132531D01*
X0098038Y0132492D01*
X0098055Y0132452D01*
X0098068Y0132410D01*
X0098077Y0132368D01*
X0098083Y0132325D01*
X0098085Y0132281D01*
X0098085Y0131781D01*
X0096285Y0131781D01*
X0096285Y0129861D02*
X0098085Y0129861D01*
X0097085Y0125025D02*
X0097085Y0124225D01*
X0079960Y0124225D02*
X0078160Y0124225D01*
X0078160Y0125025D01*
X0078160Y0125781D02*
X0079960Y0126781D01*
X0078160Y0126781D01*
X0078160Y0125781D02*
X0079960Y0125781D01*
X0079960Y0125025D02*
X0079960Y0124225D01*
X0078960Y0124225D02*
X0078960Y0124825D01*
X0080160Y0127561D02*
X0080160Y0128361D01*
X0079960Y0129021D02*
X0079960Y0129421D01*
X0079960Y0129221D02*
X0078160Y0129221D01*
X0078160Y0129021D02*
X0078160Y0129421D01*
X0078160Y0130221D02*
X0079960Y0131221D01*
X0078160Y0131221D01*
X0078160Y0132141D02*
X0078160Y0132641D01*
X0078162Y0132685D01*
X0078168Y0132728D01*
X0078177Y0132770D01*
X0078190Y0132812D01*
X0078207Y0132852D01*
X0078227Y0132891D01*
X0078250Y0132928D01*
X0078277Y0132962D01*
X0078306Y0132995D01*
X0078339Y0133024D01*
X0078373Y0133051D01*
X0078410Y0133074D01*
X0078449Y0133094D01*
X0078489Y0133111D01*
X0078531Y0133124D01*
X0078573Y0133133D01*
X0078616Y0133139D01*
X0078660Y0133141D01*
X0079460Y0133141D01*
X0079504Y0133139D01*
X0079547Y0133133D01*
X0079589Y0133124D01*
X0079631Y0133111D01*
X0079671Y0133094D01*
X0079710Y0133074D01*
X0079747Y0133051D01*
X0079781Y0133024D01*
X0079814Y0132995D01*
X0079843Y0132962D01*
X0079870Y0132928D01*
X0079893Y0132891D01*
X0079913Y0132852D01*
X0079930Y0132812D01*
X0079943Y0132770D01*
X0079952Y0132728D01*
X0079958Y0132685D01*
X0079960Y0132641D01*
X0079960Y0132141D01*
X0078160Y0132141D01*
X0078160Y0130221D02*
X0079960Y0130221D01*
D14*
X0080910Y0089277D02*
X0080910Y0086473D01*
X0084261Y0086473D02*
X0084261Y0089277D01*
X0084261Y0076152D02*
X0084261Y0073348D01*
X0080910Y0073348D02*
X0080910Y0076152D01*
X0080910Y0063027D02*
X0080910Y0060223D01*
X0084261Y0060223D02*
X0084261Y0063027D01*
X0056462Y0035775D02*
X0053658Y0035775D01*
X0053658Y0032424D02*
X0056462Y0032424D01*
X0056462Y0029525D02*
X0053658Y0029525D01*
X0053658Y0026174D02*
X0056462Y0026174D01*
X0038962Y0021451D02*
X0036158Y0021451D01*
X0036158Y0018100D02*
X0038962Y0018100D01*
X0038962Y0010201D02*
X0036158Y0010201D01*
X0036158Y0006850D02*
X0038962Y0006850D01*
X0029210Y0010223D02*
X0029210Y0013027D01*
X0025859Y0013027D02*
X0025859Y0010223D01*
X0025910Y0042098D02*
X0025910Y0044902D01*
X0029261Y0044902D02*
X0029261Y0042098D01*
X0029210Y0055223D02*
X0029210Y0058027D01*
X0025859Y0058027D02*
X0025859Y0055223D01*
X0025859Y0068348D02*
X0025859Y0071152D01*
X0029210Y0071152D02*
X0029210Y0068348D01*
X0028033Y0079299D02*
X0030837Y0079299D01*
X0030837Y0082650D02*
X0028033Y0082650D01*
X0028033Y0086174D02*
X0030837Y0086174D01*
X0030837Y0089525D02*
X0028033Y0089525D01*
X0028033Y0093049D02*
X0030837Y0093049D01*
X0030837Y0096400D02*
X0028033Y0096400D01*
D15*
X0027540Y0072034D03*
X0027540Y0067434D03*
X0027540Y0058909D03*
X0027540Y0054309D03*
X0027580Y0045816D03*
X0027580Y0041216D03*
X0027540Y0013909D03*
X0027540Y0009309D03*
X0082580Y0059341D03*
X0082580Y0063941D03*
X0082580Y0072466D03*
X0082580Y0077066D03*
X0082580Y0085591D03*
X0082580Y0090191D03*
D16*
X0079310Y0089875D02*
X0078043Y0089875D01*
X0078043Y0089030D02*
X0078993Y0089030D01*
X0079026Y0089032D01*
X0079059Y0089037D01*
X0079091Y0089046D01*
X0079122Y0089057D01*
X0079152Y0089072D01*
X0079179Y0089091D01*
X0079205Y0089111D01*
X0079229Y0089135D01*
X0079249Y0089161D01*
X0079268Y0089189D01*
X0079283Y0089218D01*
X0079294Y0089249D01*
X0079303Y0089281D01*
X0079308Y0089314D01*
X0079310Y0089347D01*
X0079310Y0089875D01*
X0079310Y0091093D02*
X0077410Y0091093D01*
X0077410Y0091937D01*
X0078254Y0091937D02*
X0078254Y0091093D01*
X0079310Y0087892D02*
X0079310Y0086837D01*
X0079310Y0087365D02*
X0077410Y0087365D01*
X0077832Y0086837D01*
X0078360Y0083813D02*
X0078431Y0083815D01*
X0078502Y0083819D01*
X0078572Y0083827D01*
X0078643Y0083839D01*
X0078712Y0083853D01*
X0078781Y0083871D01*
X0078849Y0083891D01*
X0078916Y0083915D01*
X0078982Y0083942D01*
X0079046Y0083971D01*
X0078888Y0083919D02*
X0077832Y0084763D01*
X0077674Y0084711D02*
X0077640Y0084697D01*
X0077606Y0084680D01*
X0077575Y0084660D01*
X0077546Y0084637D01*
X0077519Y0084611D01*
X0077494Y0084583D01*
X0077472Y0084553D01*
X0077454Y0084521D01*
X0077438Y0084487D01*
X0077426Y0084451D01*
X0077417Y0084415D01*
X0077412Y0084378D01*
X0077410Y0084341D01*
X0077412Y0084304D01*
X0077417Y0084267D01*
X0077426Y0084231D01*
X0077438Y0084195D01*
X0077454Y0084161D01*
X0077472Y0084129D01*
X0077494Y0084099D01*
X0077519Y0084071D01*
X0077546Y0084045D01*
X0077575Y0084022D01*
X0077606Y0084002D01*
X0077640Y0083985D01*
X0077674Y0083971D01*
X0077674Y0084711D02*
X0077738Y0084740D01*
X0077804Y0084767D01*
X0077871Y0084791D01*
X0077939Y0084811D01*
X0078008Y0084829D01*
X0078077Y0084843D01*
X0078148Y0084855D01*
X0078218Y0084863D01*
X0078289Y0084867D01*
X0078360Y0084869D01*
X0078360Y0083813D02*
X0078289Y0083815D01*
X0078218Y0083819D01*
X0078148Y0083827D01*
X0078077Y0083839D01*
X0078008Y0083853D01*
X0077939Y0083871D01*
X0077871Y0083891D01*
X0077804Y0083915D01*
X0077738Y0083942D01*
X0077674Y0083971D01*
X0078360Y0084869D02*
X0078431Y0084867D01*
X0078502Y0084863D01*
X0078572Y0084855D01*
X0078643Y0084843D01*
X0078712Y0084829D01*
X0078781Y0084811D01*
X0078849Y0084791D01*
X0078916Y0084767D01*
X0078982Y0084740D01*
X0079046Y0084711D01*
X0079080Y0084697D01*
X0079114Y0084680D01*
X0079145Y0084660D01*
X0079174Y0084637D01*
X0079202Y0084611D01*
X0079226Y0084583D01*
X0079248Y0084553D01*
X0079266Y0084521D01*
X0079282Y0084487D01*
X0079294Y0084451D01*
X0079303Y0084415D01*
X0079308Y0084378D01*
X0079310Y0084341D01*
X0079308Y0084304D01*
X0079303Y0084267D01*
X0079294Y0084231D01*
X0079282Y0084195D01*
X0079266Y0084161D01*
X0079248Y0084129D01*
X0079226Y0084099D01*
X0079202Y0084071D01*
X0079174Y0084045D01*
X0079145Y0084022D01*
X0079114Y0084002D01*
X0079080Y0083985D01*
X0079046Y0083971D01*
X0079204Y0085800D02*
X0079204Y0085905D01*
X0079310Y0085905D01*
X0079310Y0085800D01*
X0079204Y0085800D01*
X0078254Y0078812D02*
X0078254Y0077968D01*
X0077410Y0077968D02*
X0077410Y0078812D01*
X0077410Y0077968D02*
X0079310Y0077968D01*
X0079310Y0076750D02*
X0078043Y0076750D01*
X0078043Y0075905D02*
X0078993Y0075905D01*
X0079026Y0075907D01*
X0079059Y0075912D01*
X0079091Y0075921D01*
X0079122Y0075932D01*
X0079152Y0075947D01*
X0079179Y0075966D01*
X0079205Y0075986D01*
X0079229Y0076010D01*
X0079249Y0076036D01*
X0079268Y0076064D01*
X0079283Y0076093D01*
X0079294Y0076124D01*
X0079303Y0076156D01*
X0079308Y0076189D01*
X0079310Y0076222D01*
X0079310Y0076750D01*
X0079310Y0074767D02*
X0079310Y0073712D01*
X0079310Y0074240D02*
X0077410Y0074240D01*
X0077832Y0073712D01*
X0078360Y0070688D02*
X0078431Y0070690D01*
X0078502Y0070694D01*
X0078572Y0070702D01*
X0078643Y0070714D01*
X0078712Y0070728D01*
X0078781Y0070746D01*
X0078849Y0070766D01*
X0078916Y0070790D01*
X0078982Y0070817D01*
X0079046Y0070846D01*
X0078888Y0070794D02*
X0077832Y0071638D01*
X0077674Y0071586D02*
X0077640Y0071572D01*
X0077606Y0071555D01*
X0077575Y0071535D01*
X0077546Y0071512D01*
X0077519Y0071486D01*
X0077494Y0071458D01*
X0077472Y0071428D01*
X0077454Y0071396D01*
X0077438Y0071362D01*
X0077426Y0071326D01*
X0077417Y0071290D01*
X0077412Y0071253D01*
X0077410Y0071216D01*
X0077412Y0071179D01*
X0077417Y0071142D01*
X0077426Y0071106D01*
X0077438Y0071070D01*
X0077454Y0071036D01*
X0077472Y0071004D01*
X0077494Y0070974D01*
X0077519Y0070946D01*
X0077546Y0070920D01*
X0077575Y0070897D01*
X0077606Y0070877D01*
X0077640Y0070860D01*
X0077674Y0070846D01*
X0077674Y0071586D02*
X0077738Y0071615D01*
X0077804Y0071642D01*
X0077871Y0071666D01*
X0077939Y0071686D01*
X0078008Y0071704D01*
X0078077Y0071718D01*
X0078148Y0071730D01*
X0078218Y0071738D01*
X0078289Y0071742D01*
X0078360Y0071744D01*
X0078360Y0070688D02*
X0078289Y0070690D01*
X0078218Y0070694D01*
X0078148Y0070702D01*
X0078077Y0070714D01*
X0078008Y0070728D01*
X0077939Y0070746D01*
X0077871Y0070766D01*
X0077804Y0070790D01*
X0077738Y0070817D01*
X0077674Y0070846D01*
X0078360Y0071744D02*
X0078431Y0071742D01*
X0078502Y0071738D01*
X0078572Y0071730D01*
X0078643Y0071718D01*
X0078712Y0071704D01*
X0078781Y0071686D01*
X0078849Y0071666D01*
X0078916Y0071642D01*
X0078982Y0071615D01*
X0079046Y0071586D01*
X0079080Y0071572D01*
X0079114Y0071555D01*
X0079145Y0071535D01*
X0079174Y0071512D01*
X0079202Y0071486D01*
X0079226Y0071458D01*
X0079248Y0071428D01*
X0079266Y0071396D01*
X0079282Y0071362D01*
X0079294Y0071326D01*
X0079303Y0071290D01*
X0079308Y0071253D01*
X0079310Y0071216D01*
X0079308Y0071179D01*
X0079303Y0071142D01*
X0079294Y0071106D01*
X0079282Y0071070D01*
X0079266Y0071036D01*
X0079248Y0071004D01*
X0079226Y0070974D01*
X0079202Y0070946D01*
X0079174Y0070920D01*
X0079145Y0070897D01*
X0079114Y0070877D01*
X0079080Y0070860D01*
X0079046Y0070846D01*
X0079204Y0072675D02*
X0079204Y0072780D01*
X0079310Y0072780D01*
X0079310Y0072675D01*
X0079204Y0072675D01*
X0078254Y0065687D02*
X0078254Y0064843D01*
X0077410Y0064843D02*
X0077410Y0065687D01*
X0077410Y0064843D02*
X0079310Y0064843D01*
X0079310Y0063625D02*
X0078043Y0063625D01*
X0078043Y0062780D02*
X0078993Y0062780D01*
X0079026Y0062782D01*
X0079059Y0062787D01*
X0079091Y0062796D01*
X0079122Y0062807D01*
X0079152Y0062822D01*
X0079179Y0062841D01*
X0079205Y0062861D01*
X0079229Y0062885D01*
X0079249Y0062911D01*
X0079268Y0062939D01*
X0079283Y0062968D01*
X0079294Y0062999D01*
X0079303Y0063031D01*
X0079308Y0063064D01*
X0079310Y0063097D01*
X0079310Y0063625D01*
X0079310Y0061642D02*
X0079310Y0060587D01*
X0079310Y0061115D02*
X0077410Y0061115D01*
X0077832Y0060587D01*
X0078360Y0057563D02*
X0078431Y0057565D01*
X0078502Y0057569D01*
X0078572Y0057577D01*
X0078643Y0057589D01*
X0078712Y0057603D01*
X0078781Y0057621D01*
X0078849Y0057641D01*
X0078916Y0057665D01*
X0078982Y0057692D01*
X0079046Y0057721D01*
X0078888Y0057669D02*
X0077832Y0058513D01*
X0077674Y0058461D02*
X0077640Y0058447D01*
X0077606Y0058430D01*
X0077575Y0058410D01*
X0077546Y0058387D01*
X0077519Y0058361D01*
X0077494Y0058333D01*
X0077472Y0058303D01*
X0077454Y0058271D01*
X0077438Y0058237D01*
X0077426Y0058201D01*
X0077417Y0058165D01*
X0077412Y0058128D01*
X0077410Y0058091D01*
X0077412Y0058054D01*
X0077417Y0058017D01*
X0077426Y0057981D01*
X0077438Y0057945D01*
X0077454Y0057911D01*
X0077472Y0057879D01*
X0077494Y0057849D01*
X0077519Y0057821D01*
X0077546Y0057795D01*
X0077575Y0057772D01*
X0077606Y0057752D01*
X0077640Y0057735D01*
X0077674Y0057721D01*
X0077674Y0058461D02*
X0077738Y0058490D01*
X0077804Y0058517D01*
X0077871Y0058541D01*
X0077939Y0058561D01*
X0078008Y0058579D01*
X0078077Y0058593D01*
X0078148Y0058605D01*
X0078218Y0058613D01*
X0078289Y0058617D01*
X0078360Y0058619D01*
X0078360Y0057563D02*
X0078289Y0057565D01*
X0078218Y0057569D01*
X0078148Y0057577D01*
X0078077Y0057589D01*
X0078008Y0057603D01*
X0077939Y0057621D01*
X0077871Y0057641D01*
X0077804Y0057665D01*
X0077738Y0057692D01*
X0077674Y0057721D01*
X0078360Y0058619D02*
X0078431Y0058617D01*
X0078502Y0058613D01*
X0078572Y0058605D01*
X0078643Y0058593D01*
X0078712Y0058579D01*
X0078781Y0058561D01*
X0078849Y0058541D01*
X0078916Y0058517D01*
X0078982Y0058490D01*
X0079046Y0058461D01*
X0079080Y0058447D01*
X0079114Y0058430D01*
X0079145Y0058410D01*
X0079174Y0058387D01*
X0079202Y0058361D01*
X0079226Y0058333D01*
X0079248Y0058303D01*
X0079266Y0058271D01*
X0079282Y0058237D01*
X0079294Y0058201D01*
X0079303Y0058165D01*
X0079308Y0058128D01*
X0079310Y0058091D01*
X0079308Y0058054D01*
X0079303Y0058017D01*
X0079294Y0057981D01*
X0079282Y0057945D01*
X0079266Y0057911D01*
X0079248Y0057879D01*
X0079226Y0057849D01*
X0079202Y0057821D01*
X0079174Y0057795D01*
X0079145Y0057772D01*
X0079114Y0057752D01*
X0079080Y0057735D01*
X0079046Y0057721D01*
X0079204Y0059550D02*
X0079204Y0059655D01*
X0079310Y0059655D01*
X0079310Y0059550D01*
X0079204Y0059550D01*
X0085810Y0059534D02*
X0085810Y0059956D01*
X0085810Y0059534D02*
X0085812Y0059495D01*
X0085817Y0059456D01*
X0085826Y0059418D01*
X0085839Y0059382D01*
X0085854Y0059346D01*
X0085873Y0059312D01*
X0085895Y0059280D01*
X0085920Y0059250D01*
X0085948Y0059222D01*
X0085978Y0059197D01*
X0086010Y0059175D01*
X0086044Y0059156D01*
X0086080Y0059140D01*
X0086117Y0059128D01*
X0086154Y0059119D01*
X0086193Y0059114D01*
X0086232Y0059112D01*
X0087288Y0059112D01*
X0087327Y0059114D01*
X0087366Y0059119D01*
X0087403Y0059128D01*
X0087440Y0059140D01*
X0087476Y0059156D01*
X0087510Y0059175D01*
X0087542Y0059197D01*
X0087572Y0059222D01*
X0087600Y0059250D01*
X0087625Y0059280D01*
X0087647Y0059312D01*
X0087666Y0059346D01*
X0087682Y0059382D01*
X0087694Y0059419D01*
X0087703Y0059456D01*
X0087708Y0059495D01*
X0087710Y0059534D01*
X0087710Y0059956D01*
X0087710Y0060923D02*
X0087710Y0061978D01*
X0087710Y0061451D02*
X0085810Y0061451D01*
X0086232Y0060923D01*
X0085810Y0063083D02*
X0085810Y0063716D01*
X0085812Y0063756D01*
X0085818Y0063796D01*
X0085827Y0063835D01*
X0085840Y0063873D01*
X0085857Y0063909D01*
X0085877Y0063944D01*
X0085900Y0063977D01*
X0085927Y0064007D01*
X0085956Y0064035D01*
X0085987Y0064060D01*
X0086021Y0064081D01*
X0086057Y0064100D01*
X0086094Y0064115D01*
X0086133Y0064126D01*
X0086172Y0064134D01*
X0086212Y0064138D01*
X0086252Y0064138D01*
X0086292Y0064134D01*
X0086331Y0064126D01*
X0086370Y0064115D01*
X0086407Y0064100D01*
X0086443Y0064081D01*
X0086477Y0064060D01*
X0086508Y0064035D01*
X0086537Y0064007D01*
X0086564Y0063977D01*
X0086587Y0063944D01*
X0086607Y0063909D01*
X0086624Y0063873D01*
X0086637Y0063835D01*
X0086646Y0063796D01*
X0086652Y0063756D01*
X0086654Y0063716D01*
X0086654Y0063294D01*
X0086654Y0063611D02*
X0086656Y0063656D01*
X0086662Y0063700D01*
X0086671Y0063744D01*
X0086684Y0063787D01*
X0086701Y0063828D01*
X0086721Y0063869D01*
X0086745Y0063907D01*
X0086771Y0063943D01*
X0086801Y0063976D01*
X0086833Y0064007D01*
X0086868Y0064036D01*
X0086905Y0064061D01*
X0086944Y0064082D01*
X0086985Y0064101D01*
X0087027Y0064116D01*
X0087071Y0064127D01*
X0087115Y0064135D01*
X0087160Y0064139D01*
X0087204Y0064139D01*
X0087249Y0064135D01*
X0087293Y0064127D01*
X0087337Y0064116D01*
X0087379Y0064101D01*
X0087420Y0064082D01*
X0087459Y0064061D01*
X0087496Y0064036D01*
X0087531Y0064007D01*
X0087563Y0063976D01*
X0087593Y0063943D01*
X0087619Y0063907D01*
X0087643Y0063869D01*
X0087663Y0063828D01*
X0087680Y0063787D01*
X0087693Y0063744D01*
X0087702Y0063700D01*
X0087708Y0063656D01*
X0087710Y0063611D01*
X0087710Y0063083D01*
X0087288Y0072237D02*
X0086232Y0072237D01*
X0086193Y0072239D01*
X0086154Y0072244D01*
X0086117Y0072253D01*
X0086080Y0072265D01*
X0086044Y0072281D01*
X0086010Y0072300D01*
X0085978Y0072322D01*
X0085948Y0072347D01*
X0085920Y0072375D01*
X0085895Y0072405D01*
X0085873Y0072437D01*
X0085854Y0072471D01*
X0085839Y0072507D01*
X0085826Y0072543D01*
X0085817Y0072581D01*
X0085812Y0072620D01*
X0085810Y0072659D01*
X0085810Y0073081D01*
X0086232Y0074048D02*
X0085810Y0074576D01*
X0087710Y0074576D01*
X0087710Y0075103D02*
X0087710Y0074048D01*
X0087710Y0073081D02*
X0087710Y0072659D01*
X0087708Y0072620D01*
X0087703Y0072581D01*
X0087694Y0072544D01*
X0087682Y0072507D01*
X0087666Y0072471D01*
X0087647Y0072437D01*
X0087625Y0072405D01*
X0087600Y0072375D01*
X0087572Y0072347D01*
X0087542Y0072322D01*
X0087510Y0072300D01*
X0087476Y0072281D01*
X0087440Y0072265D01*
X0087403Y0072253D01*
X0087366Y0072244D01*
X0087327Y0072239D01*
X0087288Y0072237D01*
X0087710Y0076208D02*
X0086654Y0077105D01*
X0085810Y0076788D02*
X0085812Y0076740D01*
X0085818Y0076693D01*
X0085827Y0076646D01*
X0085840Y0076599D01*
X0085856Y0076554D01*
X0085877Y0076511D01*
X0085900Y0076469D01*
X0085927Y0076429D01*
X0085956Y0076392D01*
X0085989Y0076356D01*
X0086024Y0076324D01*
X0086062Y0076294D01*
X0086102Y0076268D01*
X0086144Y0076244D01*
X0086187Y0076224D01*
X0086232Y0076208D01*
X0086654Y0077105D02*
X0086625Y0077133D01*
X0086593Y0077160D01*
X0086559Y0077183D01*
X0086523Y0077204D01*
X0086486Y0077222D01*
X0086447Y0077236D01*
X0086408Y0077248D01*
X0086367Y0077256D01*
X0086326Y0077261D01*
X0086285Y0077263D01*
X0086244Y0077261D01*
X0086203Y0077256D01*
X0086162Y0077247D01*
X0086123Y0077234D01*
X0086084Y0077218D01*
X0086048Y0077199D01*
X0086013Y0077177D01*
X0085980Y0077152D01*
X0085949Y0077124D01*
X0085921Y0077093D01*
X0085896Y0077060D01*
X0085874Y0077026D01*
X0085855Y0076989D01*
X0085839Y0076950D01*
X0085826Y0076911D01*
X0085817Y0076871D01*
X0085812Y0076829D01*
X0085810Y0076788D01*
X0087710Y0077263D02*
X0087710Y0076208D01*
X0087288Y0086442D02*
X0086232Y0086442D01*
X0086193Y0086444D01*
X0086154Y0086449D01*
X0086117Y0086458D01*
X0086080Y0086470D01*
X0086044Y0086486D01*
X0086010Y0086505D01*
X0085978Y0086527D01*
X0085948Y0086552D01*
X0085920Y0086580D01*
X0085895Y0086610D01*
X0085873Y0086642D01*
X0085854Y0086676D01*
X0085839Y0086712D01*
X0085826Y0086748D01*
X0085817Y0086786D01*
X0085812Y0086825D01*
X0085810Y0086864D01*
X0085810Y0087286D01*
X0086232Y0088253D02*
X0085810Y0088781D01*
X0087710Y0088781D01*
X0087710Y0089308D02*
X0087710Y0088253D01*
X0087710Y0087286D02*
X0087710Y0086864D01*
X0087708Y0086825D01*
X0087703Y0086786D01*
X0087694Y0086749D01*
X0087682Y0086712D01*
X0087666Y0086676D01*
X0087647Y0086642D01*
X0087625Y0086610D01*
X0087600Y0086580D01*
X0087572Y0086552D01*
X0087542Y0086527D01*
X0087510Y0086505D01*
X0087476Y0086486D01*
X0087440Y0086470D01*
X0087403Y0086458D01*
X0087366Y0086449D01*
X0087327Y0086444D01*
X0087288Y0086442D01*
X0098310Y0100409D02*
X0099788Y0100409D01*
X0099827Y0100407D01*
X0099866Y0100402D01*
X0099903Y0100393D01*
X0099940Y0100381D01*
X0099976Y0100365D01*
X0100010Y0100346D01*
X0100042Y0100324D01*
X0100072Y0100299D01*
X0100100Y0100271D01*
X0100125Y0100241D01*
X0100147Y0100209D01*
X0100166Y0100175D01*
X0100182Y0100139D01*
X0100194Y0100102D01*
X0100203Y0100065D01*
X0100208Y0100026D01*
X0100210Y0099987D01*
X0100210Y0099776D01*
X0099682Y0101569D02*
X0099727Y0101571D01*
X0099771Y0101577D01*
X0099815Y0101586D01*
X0099858Y0101599D01*
X0099899Y0101616D01*
X0099940Y0101636D01*
X0099978Y0101660D01*
X0100014Y0101686D01*
X0100047Y0101716D01*
X0100078Y0101748D01*
X0100107Y0101783D01*
X0100132Y0101820D01*
X0100153Y0101859D01*
X0100172Y0101900D01*
X0100187Y0101942D01*
X0100198Y0101986D01*
X0100206Y0102030D01*
X0100210Y0102075D01*
X0100210Y0102119D01*
X0100206Y0102164D01*
X0100198Y0102208D01*
X0100187Y0102252D01*
X0100172Y0102294D01*
X0100153Y0102335D01*
X0100132Y0102374D01*
X0100107Y0102411D01*
X0100078Y0102446D01*
X0100047Y0102478D01*
X0100014Y0102508D01*
X0099978Y0102534D01*
X0099940Y0102558D01*
X0099899Y0102578D01*
X0099858Y0102595D01*
X0099815Y0102608D01*
X0099771Y0102617D01*
X0099727Y0102623D01*
X0099682Y0102625D01*
X0099637Y0102623D01*
X0099593Y0102617D01*
X0099549Y0102608D01*
X0099506Y0102595D01*
X0099465Y0102578D01*
X0099424Y0102558D01*
X0099386Y0102534D01*
X0099350Y0102508D01*
X0099317Y0102478D01*
X0099286Y0102446D01*
X0099257Y0102411D01*
X0099232Y0102374D01*
X0099211Y0102335D01*
X0099192Y0102294D01*
X0099177Y0102252D01*
X0099166Y0102208D01*
X0099158Y0102164D01*
X0099154Y0102119D01*
X0099154Y0102075D01*
X0099158Y0102030D01*
X0099166Y0101986D01*
X0099177Y0101942D01*
X0099192Y0101900D01*
X0099211Y0101859D01*
X0099232Y0101820D01*
X0099257Y0101783D01*
X0099286Y0101748D01*
X0099317Y0101716D01*
X0099350Y0101686D01*
X0099386Y0101660D01*
X0099424Y0101636D01*
X0099465Y0101616D01*
X0099506Y0101599D01*
X0099549Y0101586D01*
X0099593Y0101577D01*
X0099637Y0101571D01*
X0099682Y0101569D01*
X0098732Y0101675D02*
X0098772Y0101677D01*
X0098812Y0101683D01*
X0098851Y0101692D01*
X0098889Y0101705D01*
X0098925Y0101722D01*
X0098960Y0101742D01*
X0098993Y0101765D01*
X0099023Y0101792D01*
X0099051Y0101821D01*
X0099076Y0101852D01*
X0099097Y0101886D01*
X0099116Y0101922D01*
X0099131Y0101959D01*
X0099142Y0101998D01*
X0099150Y0102037D01*
X0099154Y0102077D01*
X0099154Y0102117D01*
X0099150Y0102157D01*
X0099142Y0102196D01*
X0099131Y0102235D01*
X0099116Y0102272D01*
X0099097Y0102308D01*
X0099076Y0102342D01*
X0099051Y0102373D01*
X0099023Y0102402D01*
X0098993Y0102429D01*
X0098960Y0102452D01*
X0098925Y0102472D01*
X0098889Y0102489D01*
X0098851Y0102502D01*
X0098812Y0102511D01*
X0098772Y0102517D01*
X0098732Y0102519D01*
X0098692Y0102517D01*
X0098652Y0102511D01*
X0098613Y0102502D01*
X0098575Y0102489D01*
X0098539Y0102472D01*
X0098504Y0102452D01*
X0098471Y0102429D01*
X0098441Y0102402D01*
X0098413Y0102373D01*
X0098388Y0102342D01*
X0098367Y0102308D01*
X0098348Y0102272D01*
X0098333Y0102235D01*
X0098322Y0102196D01*
X0098314Y0102157D01*
X0098310Y0102117D01*
X0098310Y0102077D01*
X0098314Y0102037D01*
X0098322Y0101998D01*
X0098333Y0101959D01*
X0098348Y0101922D01*
X0098367Y0101886D01*
X0098388Y0101852D01*
X0098413Y0101821D01*
X0098441Y0101792D01*
X0098471Y0101765D01*
X0098504Y0101742D01*
X0098539Y0101722D01*
X0098575Y0101705D01*
X0098613Y0101692D01*
X0098652Y0101683D01*
X0098692Y0101677D01*
X0098732Y0101675D01*
X0108935Y0100409D02*
X0110413Y0100409D01*
X0110452Y0100407D01*
X0110491Y0100402D01*
X0110528Y0100393D01*
X0110565Y0100381D01*
X0110601Y0100365D01*
X0110635Y0100346D01*
X0110667Y0100324D01*
X0110697Y0100299D01*
X0110725Y0100271D01*
X0110750Y0100241D01*
X0110772Y0100209D01*
X0110791Y0100175D01*
X0110807Y0100139D01*
X0110819Y0100102D01*
X0110828Y0100065D01*
X0110833Y0100026D01*
X0110835Y0099987D01*
X0110835Y0099776D01*
X0110835Y0101781D02*
X0110833Y0101836D01*
X0110828Y0101891D01*
X0110819Y0101946D01*
X0110806Y0101999D01*
X0110790Y0102052D01*
X0110771Y0102104D01*
X0110748Y0102154D01*
X0110722Y0102203D01*
X0110693Y0102250D01*
X0110661Y0102295D01*
X0110626Y0102337D01*
X0110588Y0102378D01*
X0110547Y0102416D01*
X0110505Y0102451D01*
X0110460Y0102483D01*
X0110413Y0102512D01*
X0110364Y0102538D01*
X0110314Y0102561D01*
X0110262Y0102580D01*
X0110209Y0102596D01*
X0110156Y0102609D01*
X0110101Y0102618D01*
X0110046Y0102623D01*
X0109991Y0102625D01*
X0109463Y0102625D01*
X0109991Y0102625D02*
X0109991Y0101992D01*
X0109990Y0101992D02*
X0109988Y0101953D01*
X0109983Y0101914D01*
X0109974Y0101877D01*
X0109962Y0101840D01*
X0109946Y0101804D01*
X0109927Y0101770D01*
X0109905Y0101738D01*
X0109880Y0101708D01*
X0109852Y0101680D01*
X0109822Y0101655D01*
X0109790Y0101633D01*
X0109756Y0101614D01*
X0109720Y0101598D01*
X0109683Y0101586D01*
X0109646Y0101577D01*
X0109607Y0101572D01*
X0109568Y0101570D01*
X0109568Y0101569D02*
X0109463Y0101569D01*
X0109418Y0101571D01*
X0109374Y0101577D01*
X0109330Y0101586D01*
X0109287Y0101599D01*
X0109246Y0101616D01*
X0109205Y0101636D01*
X0109167Y0101660D01*
X0109131Y0101686D01*
X0109098Y0101716D01*
X0109067Y0101748D01*
X0109038Y0101783D01*
X0109013Y0101820D01*
X0108992Y0101859D01*
X0108973Y0101900D01*
X0108958Y0101942D01*
X0108947Y0101986D01*
X0108939Y0102030D01*
X0108935Y0102075D01*
X0108935Y0102119D01*
X0108939Y0102164D01*
X0108947Y0102208D01*
X0108958Y0102252D01*
X0108973Y0102294D01*
X0108992Y0102335D01*
X0109013Y0102374D01*
X0109038Y0102411D01*
X0109067Y0102446D01*
X0109098Y0102478D01*
X0109131Y0102508D01*
X0109167Y0102534D01*
X0109205Y0102558D01*
X0109246Y0102578D01*
X0109287Y0102595D01*
X0109330Y0102608D01*
X0109374Y0102617D01*
X0109418Y0102623D01*
X0109463Y0102625D01*
X0093185Y0127875D02*
X0091935Y0129125D01*
X0090685Y0127875D01*
X0090060Y0129125D02*
X0091935Y0129125D01*
X0093810Y0129125D01*
X0086310Y0129125D02*
X0084435Y0129125D01*
X0085685Y0127875D01*
X0084435Y0129125D02*
X0083185Y0127875D01*
X0082560Y0129125D02*
X0084435Y0129125D01*
X0039409Y0136125D02*
X0038354Y0136125D01*
X0039251Y0137181D01*
X0038934Y0138025D02*
X0038886Y0138023D01*
X0038839Y0138017D01*
X0038791Y0138008D01*
X0038745Y0137995D01*
X0038700Y0137978D01*
X0038657Y0137958D01*
X0038615Y0137935D01*
X0038575Y0137908D01*
X0038538Y0137879D01*
X0038502Y0137846D01*
X0038470Y0137811D01*
X0038440Y0137773D01*
X0038414Y0137733D01*
X0038390Y0137691D01*
X0038370Y0137648D01*
X0038354Y0137603D01*
X0039251Y0137181D02*
X0039279Y0137210D01*
X0039306Y0137242D01*
X0039329Y0137276D01*
X0039350Y0137312D01*
X0039368Y0137349D01*
X0039382Y0137388D01*
X0039394Y0137427D01*
X0039402Y0137468D01*
X0039407Y0137509D01*
X0039409Y0137550D01*
X0039407Y0137591D01*
X0039402Y0137632D01*
X0039393Y0137673D01*
X0039380Y0137712D01*
X0039364Y0137751D01*
X0039345Y0137788D01*
X0039323Y0137822D01*
X0039298Y0137855D01*
X0039270Y0137886D01*
X0039239Y0137914D01*
X0039206Y0137939D01*
X0039172Y0137961D01*
X0039135Y0137980D01*
X0039096Y0137996D01*
X0039057Y0138009D01*
X0039016Y0138018D01*
X0038975Y0138023D01*
X0038934Y0138025D01*
X0037193Y0138025D02*
X0037193Y0136547D01*
X0037191Y0136508D01*
X0037186Y0136469D01*
X0037177Y0136432D01*
X0037165Y0136395D01*
X0037149Y0136359D01*
X0037130Y0136325D01*
X0037108Y0136293D01*
X0037083Y0136263D01*
X0037055Y0136235D01*
X0037025Y0136210D01*
X0036993Y0136188D01*
X0036959Y0136169D01*
X0036923Y0136153D01*
X0036886Y0136141D01*
X0036849Y0136132D01*
X0036810Y0136127D01*
X0036771Y0136125D01*
X0036560Y0136125D01*
X0031213Y0099900D02*
X0031213Y0098000D01*
X0031213Y0098633D02*
X0032057Y0099267D01*
X0031582Y0098897D02*
X0032057Y0098000D01*
X0029131Y0098264D02*
X0029102Y0098328D01*
X0029075Y0098394D01*
X0029051Y0098461D01*
X0029031Y0098529D01*
X0029013Y0098598D01*
X0028999Y0098667D01*
X0028987Y0098738D01*
X0028979Y0098808D01*
X0028975Y0098879D01*
X0028973Y0098950D01*
X0030029Y0098950D02*
X0030027Y0099021D01*
X0030023Y0099092D01*
X0030015Y0099162D01*
X0030003Y0099233D01*
X0029989Y0099302D01*
X0029971Y0099371D01*
X0029951Y0099439D01*
X0029927Y0099506D01*
X0029900Y0099572D01*
X0029871Y0099636D01*
X0029923Y0099478D02*
X0029078Y0098422D01*
X0029501Y0098000D02*
X0029538Y0098002D01*
X0029575Y0098007D01*
X0029611Y0098016D01*
X0029647Y0098028D01*
X0029681Y0098044D01*
X0029713Y0098062D01*
X0029743Y0098084D01*
X0029771Y0098108D01*
X0029797Y0098136D01*
X0029820Y0098165D01*
X0029840Y0098196D01*
X0029857Y0098230D01*
X0029871Y0098264D01*
X0029501Y0098000D02*
X0029464Y0098002D01*
X0029427Y0098007D01*
X0029391Y0098016D01*
X0029355Y0098028D01*
X0029321Y0098044D01*
X0029289Y0098062D01*
X0029259Y0098084D01*
X0029231Y0098108D01*
X0029205Y0098136D01*
X0029182Y0098165D01*
X0029162Y0098196D01*
X0029145Y0098230D01*
X0029131Y0098264D01*
X0029871Y0098264D02*
X0029900Y0098328D01*
X0029927Y0098394D01*
X0029951Y0098461D01*
X0029971Y0098529D01*
X0029989Y0098598D01*
X0030003Y0098667D01*
X0030015Y0098738D01*
X0030023Y0098808D01*
X0030027Y0098879D01*
X0030029Y0098950D01*
X0028973Y0098950D02*
X0028975Y0099021D01*
X0028979Y0099092D01*
X0028987Y0099162D01*
X0028999Y0099233D01*
X0029013Y0099302D01*
X0029031Y0099371D01*
X0029051Y0099439D01*
X0029075Y0099506D01*
X0029102Y0099572D01*
X0029131Y0099636D01*
X0029145Y0099670D01*
X0029162Y0099704D01*
X0029182Y0099735D01*
X0029205Y0099764D01*
X0029231Y0099791D01*
X0029259Y0099816D01*
X0029289Y0099838D01*
X0029321Y0099856D01*
X0029355Y0099872D01*
X0029391Y0099884D01*
X0029427Y0099893D01*
X0029464Y0099898D01*
X0029501Y0099900D01*
X0029538Y0099898D01*
X0029575Y0099893D01*
X0029611Y0099884D01*
X0029647Y0099872D01*
X0029681Y0099856D01*
X0029713Y0099838D01*
X0029743Y0099816D01*
X0029771Y0099791D01*
X0029797Y0099764D01*
X0029820Y0099735D01*
X0029840Y0099704D01*
X0029857Y0099670D01*
X0029871Y0099636D01*
X0027341Y0099900D02*
X0027341Y0098000D01*
X0027868Y0098000D02*
X0026813Y0098000D01*
X0026813Y0099478D02*
X0027341Y0099900D01*
X0027341Y0093025D02*
X0027341Y0091125D01*
X0027868Y0091125D02*
X0026813Y0091125D01*
X0026813Y0092603D02*
X0027341Y0093025D01*
X0030029Y0092075D02*
X0030027Y0092004D01*
X0030023Y0091933D01*
X0030015Y0091863D01*
X0030003Y0091792D01*
X0029989Y0091723D01*
X0029971Y0091654D01*
X0029951Y0091586D01*
X0029927Y0091519D01*
X0029900Y0091453D01*
X0029871Y0091389D01*
X0029857Y0091355D01*
X0029840Y0091321D01*
X0029820Y0091290D01*
X0029797Y0091261D01*
X0029771Y0091233D01*
X0029743Y0091209D01*
X0029713Y0091187D01*
X0029681Y0091169D01*
X0029647Y0091153D01*
X0029611Y0091141D01*
X0029575Y0091132D01*
X0029538Y0091127D01*
X0029501Y0091125D01*
X0029464Y0091127D01*
X0029427Y0091132D01*
X0029391Y0091141D01*
X0029355Y0091153D01*
X0029321Y0091169D01*
X0029289Y0091187D01*
X0029259Y0091209D01*
X0029231Y0091233D01*
X0029205Y0091261D01*
X0029182Y0091290D01*
X0029162Y0091321D01*
X0029145Y0091355D01*
X0029131Y0091389D01*
X0029078Y0091547D02*
X0029923Y0092603D01*
X0029871Y0092761D02*
X0029857Y0092795D01*
X0029840Y0092829D01*
X0029820Y0092860D01*
X0029797Y0092889D01*
X0029771Y0092916D01*
X0029743Y0092941D01*
X0029713Y0092963D01*
X0029681Y0092981D01*
X0029647Y0092997D01*
X0029611Y0093009D01*
X0029575Y0093018D01*
X0029538Y0093023D01*
X0029501Y0093025D01*
X0029464Y0093023D01*
X0029427Y0093018D01*
X0029391Y0093009D01*
X0029355Y0092997D01*
X0029321Y0092981D01*
X0029289Y0092963D01*
X0029259Y0092941D01*
X0029231Y0092916D01*
X0029205Y0092889D01*
X0029182Y0092860D01*
X0029162Y0092829D01*
X0029145Y0092795D01*
X0029131Y0092761D01*
X0029871Y0092761D02*
X0029900Y0092697D01*
X0029927Y0092631D01*
X0029951Y0092564D01*
X0029971Y0092496D01*
X0029989Y0092427D01*
X0030003Y0092358D01*
X0030015Y0092287D01*
X0030023Y0092217D01*
X0030027Y0092146D01*
X0030029Y0092075D01*
X0028973Y0092075D02*
X0028975Y0092146D01*
X0028979Y0092217D01*
X0028987Y0092287D01*
X0028999Y0092358D01*
X0029013Y0092427D01*
X0029031Y0092496D01*
X0029051Y0092564D01*
X0029075Y0092631D01*
X0029102Y0092697D01*
X0029131Y0092761D01*
X0028973Y0092075D02*
X0028975Y0092004D01*
X0028979Y0091933D01*
X0028987Y0091863D01*
X0028999Y0091792D01*
X0029013Y0091723D01*
X0029031Y0091654D01*
X0029051Y0091586D01*
X0029075Y0091519D01*
X0029102Y0091453D01*
X0029131Y0091389D01*
X0031213Y0091125D02*
X0031213Y0093025D01*
X0032057Y0092392D02*
X0031213Y0091758D01*
X0031582Y0092022D02*
X0032057Y0091125D01*
X0032653Y0086150D02*
X0033497Y0086150D01*
X0032653Y0086150D02*
X0032653Y0084250D01*
X0032653Y0085306D02*
X0033497Y0085306D01*
X0031435Y0085517D02*
X0031435Y0084250D01*
X0030907Y0084250D01*
X0030874Y0084252D01*
X0030841Y0084257D01*
X0030809Y0084266D01*
X0030778Y0084277D01*
X0030749Y0084292D01*
X0030721Y0084311D01*
X0030695Y0084331D01*
X0030671Y0084355D01*
X0030651Y0084381D01*
X0030632Y0084409D01*
X0030617Y0084438D01*
X0030606Y0084469D01*
X0030597Y0084501D01*
X0030592Y0084534D01*
X0030590Y0084567D01*
X0030590Y0085517D01*
X0029452Y0084250D02*
X0028397Y0084250D01*
X0029294Y0085306D01*
X0028977Y0086150D02*
X0028929Y0086148D01*
X0028882Y0086142D01*
X0028834Y0086133D01*
X0028788Y0086120D01*
X0028743Y0086103D01*
X0028700Y0086083D01*
X0028658Y0086060D01*
X0028618Y0086033D01*
X0028581Y0086004D01*
X0028545Y0085971D01*
X0028513Y0085936D01*
X0028483Y0085898D01*
X0028457Y0085858D01*
X0028433Y0085816D01*
X0028413Y0085773D01*
X0028397Y0085728D01*
X0029294Y0085306D02*
X0029322Y0085335D01*
X0029349Y0085367D01*
X0029372Y0085401D01*
X0029393Y0085437D01*
X0029411Y0085474D01*
X0029425Y0085513D01*
X0029437Y0085552D01*
X0029445Y0085593D01*
X0029450Y0085634D01*
X0029452Y0085675D01*
X0029450Y0085716D01*
X0029445Y0085757D01*
X0029436Y0085798D01*
X0029423Y0085837D01*
X0029407Y0085876D01*
X0029388Y0085913D01*
X0029366Y0085947D01*
X0029341Y0085980D01*
X0029313Y0086011D01*
X0029282Y0086039D01*
X0029249Y0086064D01*
X0029215Y0086086D01*
X0029178Y0086105D01*
X0029139Y0086121D01*
X0029100Y0086134D01*
X0029059Y0086143D01*
X0029018Y0086148D01*
X0028977Y0086150D01*
X0027465Y0084356D02*
X0027465Y0084250D01*
X0027360Y0084250D01*
X0027360Y0084356D01*
X0027465Y0084356D01*
X0026429Y0084250D02*
X0025373Y0084250D01*
X0026270Y0085306D01*
X0025954Y0086150D02*
X0025906Y0086148D01*
X0025859Y0086142D01*
X0025811Y0086133D01*
X0025765Y0086120D01*
X0025720Y0086103D01*
X0025677Y0086083D01*
X0025635Y0086060D01*
X0025595Y0086033D01*
X0025558Y0086004D01*
X0025522Y0085971D01*
X0025490Y0085936D01*
X0025460Y0085898D01*
X0025434Y0085858D01*
X0025410Y0085816D01*
X0025390Y0085773D01*
X0025374Y0085728D01*
X0026270Y0085306D02*
X0026298Y0085335D01*
X0026325Y0085367D01*
X0026348Y0085401D01*
X0026369Y0085437D01*
X0026387Y0085474D01*
X0026401Y0085513D01*
X0026413Y0085552D01*
X0026421Y0085593D01*
X0026426Y0085634D01*
X0026428Y0085675D01*
X0026429Y0085675D02*
X0026427Y0085716D01*
X0026422Y0085757D01*
X0026413Y0085798D01*
X0026400Y0085837D01*
X0026384Y0085876D01*
X0026365Y0085913D01*
X0026343Y0085947D01*
X0026318Y0085980D01*
X0026290Y0086011D01*
X0026259Y0086039D01*
X0026226Y0086064D01*
X0026192Y0086086D01*
X0026155Y0086105D01*
X0026116Y0086121D01*
X0026077Y0086134D01*
X0026036Y0086143D01*
X0025995Y0086148D01*
X0025954Y0086150D01*
X0031435Y0074892D02*
X0031435Y0074048D01*
X0033335Y0074048D01*
X0032279Y0074048D02*
X0032279Y0074892D01*
X0032068Y0072830D02*
X0033335Y0072830D01*
X0033335Y0072302D01*
X0033333Y0072269D01*
X0033328Y0072236D01*
X0033319Y0072204D01*
X0033308Y0072173D01*
X0033293Y0072144D01*
X0033274Y0072116D01*
X0033254Y0072090D01*
X0033230Y0072066D01*
X0033204Y0072046D01*
X0033177Y0072027D01*
X0033147Y0072012D01*
X0033116Y0072001D01*
X0033084Y0071992D01*
X0033051Y0071987D01*
X0033018Y0071985D01*
X0032068Y0071985D01*
X0032279Y0070689D02*
X0033335Y0069792D01*
X0033335Y0070847D01*
X0031857Y0069792D02*
X0031812Y0069808D01*
X0031769Y0069828D01*
X0031727Y0069852D01*
X0031687Y0069878D01*
X0031649Y0069908D01*
X0031614Y0069940D01*
X0031581Y0069976D01*
X0031552Y0070013D01*
X0031525Y0070053D01*
X0031502Y0070095D01*
X0031481Y0070138D01*
X0031465Y0070183D01*
X0031452Y0070230D01*
X0031443Y0070277D01*
X0031437Y0070324D01*
X0031435Y0070372D01*
X0031437Y0070413D01*
X0031442Y0070455D01*
X0031451Y0070495D01*
X0031464Y0070534D01*
X0031480Y0070573D01*
X0031499Y0070610D01*
X0031521Y0070644D01*
X0031546Y0070677D01*
X0031574Y0070708D01*
X0031605Y0070736D01*
X0031638Y0070761D01*
X0031673Y0070783D01*
X0031709Y0070802D01*
X0031748Y0070818D01*
X0031787Y0070831D01*
X0031828Y0070840D01*
X0031869Y0070845D01*
X0031910Y0070847D01*
X0031951Y0070845D01*
X0031992Y0070840D01*
X0032033Y0070832D01*
X0032072Y0070820D01*
X0032111Y0070806D01*
X0032148Y0070788D01*
X0032184Y0070767D01*
X0032218Y0070744D01*
X0032250Y0070717D01*
X0032279Y0070689D01*
X0032279Y0068529D02*
X0033335Y0067632D01*
X0033335Y0068688D01*
X0031857Y0067632D02*
X0031812Y0067648D01*
X0031769Y0067668D01*
X0031727Y0067692D01*
X0031687Y0067718D01*
X0031649Y0067748D01*
X0031614Y0067780D01*
X0031581Y0067816D01*
X0031552Y0067853D01*
X0031525Y0067893D01*
X0031502Y0067935D01*
X0031481Y0067978D01*
X0031465Y0068023D01*
X0031452Y0068070D01*
X0031443Y0068117D01*
X0031437Y0068164D01*
X0031435Y0068212D01*
X0031437Y0068253D01*
X0031442Y0068295D01*
X0031451Y0068335D01*
X0031464Y0068374D01*
X0031480Y0068413D01*
X0031499Y0068450D01*
X0031521Y0068484D01*
X0031546Y0068517D01*
X0031574Y0068548D01*
X0031605Y0068576D01*
X0031638Y0068601D01*
X0031673Y0068623D01*
X0031709Y0068642D01*
X0031748Y0068658D01*
X0031787Y0068671D01*
X0031828Y0068680D01*
X0031869Y0068685D01*
X0031910Y0068687D01*
X0031951Y0068685D01*
X0031992Y0068680D01*
X0032033Y0068672D01*
X0032072Y0068660D01*
X0032111Y0068646D01*
X0032148Y0068628D01*
X0032184Y0068607D01*
X0032218Y0068584D01*
X0032250Y0068557D01*
X0032279Y0068529D01*
X0033229Y0066701D02*
X0033335Y0066701D01*
X0033335Y0066595D01*
X0033229Y0066595D01*
X0033229Y0066701D01*
X0033071Y0064766D02*
X0033007Y0064737D01*
X0032941Y0064710D01*
X0032874Y0064686D01*
X0032806Y0064666D01*
X0032737Y0064648D01*
X0032668Y0064634D01*
X0032597Y0064622D01*
X0032527Y0064614D01*
X0032456Y0064610D01*
X0032385Y0064608D01*
X0032385Y0065664D02*
X0032314Y0065662D01*
X0032243Y0065658D01*
X0032173Y0065650D01*
X0032102Y0065638D01*
X0032033Y0065624D01*
X0031964Y0065606D01*
X0031896Y0065586D01*
X0031829Y0065562D01*
X0031763Y0065535D01*
X0031699Y0065506D01*
X0031857Y0065558D02*
X0032913Y0064714D01*
X0033335Y0065136D02*
X0033333Y0065173D01*
X0033328Y0065210D01*
X0033319Y0065246D01*
X0033307Y0065282D01*
X0033291Y0065316D01*
X0033273Y0065348D01*
X0033251Y0065378D01*
X0033227Y0065406D01*
X0033199Y0065432D01*
X0033170Y0065455D01*
X0033139Y0065475D01*
X0033105Y0065492D01*
X0033071Y0065506D01*
X0033335Y0065136D02*
X0033333Y0065099D01*
X0033328Y0065062D01*
X0033319Y0065026D01*
X0033307Y0064990D01*
X0033291Y0064956D01*
X0033273Y0064924D01*
X0033251Y0064894D01*
X0033227Y0064866D01*
X0033199Y0064840D01*
X0033170Y0064817D01*
X0033139Y0064797D01*
X0033105Y0064780D01*
X0033071Y0064766D01*
X0033071Y0065506D02*
X0033007Y0065535D01*
X0032941Y0065562D01*
X0032874Y0065586D01*
X0032806Y0065606D01*
X0032737Y0065624D01*
X0032668Y0065638D01*
X0032597Y0065650D01*
X0032527Y0065658D01*
X0032456Y0065662D01*
X0032385Y0065664D01*
X0032385Y0064608D02*
X0032314Y0064610D01*
X0032243Y0064614D01*
X0032173Y0064622D01*
X0032102Y0064634D01*
X0032033Y0064648D01*
X0031964Y0064666D01*
X0031896Y0064686D01*
X0031829Y0064710D01*
X0031763Y0064737D01*
X0031699Y0064766D01*
X0031665Y0064780D01*
X0031631Y0064797D01*
X0031600Y0064817D01*
X0031571Y0064840D01*
X0031544Y0064866D01*
X0031519Y0064894D01*
X0031497Y0064924D01*
X0031479Y0064956D01*
X0031463Y0064990D01*
X0031451Y0065026D01*
X0031442Y0065062D01*
X0031437Y0065099D01*
X0031435Y0065136D01*
X0031437Y0065173D01*
X0031442Y0065210D01*
X0031451Y0065246D01*
X0031463Y0065282D01*
X0031479Y0065316D01*
X0031497Y0065348D01*
X0031519Y0065378D01*
X0031544Y0065406D01*
X0031571Y0065432D01*
X0031600Y0065455D01*
X0031631Y0065475D01*
X0031665Y0065492D01*
X0031699Y0065506D01*
X0031435Y0060687D02*
X0031435Y0059843D01*
X0033335Y0059843D01*
X0032279Y0059843D02*
X0032279Y0060687D01*
X0032068Y0058625D02*
X0033335Y0058625D01*
X0033335Y0058097D01*
X0033333Y0058064D01*
X0033328Y0058031D01*
X0033319Y0057999D01*
X0033308Y0057968D01*
X0033293Y0057939D01*
X0033274Y0057911D01*
X0033254Y0057885D01*
X0033230Y0057861D01*
X0033204Y0057841D01*
X0033177Y0057822D01*
X0033147Y0057807D01*
X0033116Y0057796D01*
X0033084Y0057787D01*
X0033051Y0057782D01*
X0033018Y0057780D01*
X0032068Y0057780D01*
X0032385Y0055587D02*
X0032456Y0055589D01*
X0032527Y0055593D01*
X0032597Y0055601D01*
X0032668Y0055613D01*
X0032737Y0055627D01*
X0032806Y0055645D01*
X0032874Y0055665D01*
X0032941Y0055689D01*
X0033007Y0055716D01*
X0033071Y0055745D01*
X0032913Y0055692D02*
X0031857Y0056537D01*
X0031699Y0056485D02*
X0031665Y0056471D01*
X0031631Y0056454D01*
X0031600Y0056434D01*
X0031571Y0056411D01*
X0031544Y0056385D01*
X0031519Y0056357D01*
X0031497Y0056327D01*
X0031479Y0056295D01*
X0031463Y0056261D01*
X0031451Y0056225D01*
X0031442Y0056189D01*
X0031437Y0056152D01*
X0031435Y0056115D01*
X0031437Y0056078D01*
X0031442Y0056041D01*
X0031451Y0056005D01*
X0031463Y0055969D01*
X0031479Y0055935D01*
X0031497Y0055903D01*
X0031519Y0055873D01*
X0031544Y0055845D01*
X0031571Y0055819D01*
X0031600Y0055796D01*
X0031631Y0055776D01*
X0031665Y0055759D01*
X0031699Y0055745D01*
X0031699Y0056485D02*
X0031763Y0056514D01*
X0031829Y0056541D01*
X0031896Y0056565D01*
X0031964Y0056585D01*
X0032033Y0056603D01*
X0032102Y0056617D01*
X0032173Y0056629D01*
X0032243Y0056637D01*
X0032314Y0056641D01*
X0032385Y0056643D01*
X0032385Y0055587D02*
X0032314Y0055589D01*
X0032243Y0055593D01*
X0032173Y0055601D01*
X0032102Y0055613D01*
X0032033Y0055627D01*
X0031964Y0055645D01*
X0031896Y0055665D01*
X0031829Y0055689D01*
X0031763Y0055716D01*
X0031699Y0055745D01*
X0032385Y0056643D02*
X0032456Y0056641D01*
X0032527Y0056637D01*
X0032597Y0056629D01*
X0032668Y0056617D01*
X0032737Y0056603D01*
X0032806Y0056585D01*
X0032874Y0056565D01*
X0032941Y0056541D01*
X0033007Y0056514D01*
X0033071Y0056485D01*
X0033105Y0056471D01*
X0033139Y0056454D01*
X0033170Y0056434D01*
X0033199Y0056411D01*
X0033227Y0056385D01*
X0033251Y0056357D01*
X0033273Y0056327D01*
X0033291Y0056295D01*
X0033307Y0056261D01*
X0033319Y0056225D01*
X0033328Y0056189D01*
X0033333Y0056152D01*
X0033335Y0056115D01*
X0033333Y0056078D01*
X0033328Y0056041D01*
X0033319Y0056005D01*
X0033307Y0055969D01*
X0033291Y0055935D01*
X0033273Y0055903D01*
X0033251Y0055873D01*
X0033227Y0055845D01*
X0033199Y0055819D01*
X0033170Y0055796D01*
X0033139Y0055776D01*
X0033105Y0055759D01*
X0033071Y0055745D01*
X0033229Y0054655D02*
X0033335Y0054655D01*
X0033335Y0054550D01*
X0033229Y0054550D01*
X0033229Y0054655D01*
X0033335Y0053619D02*
X0033335Y0052563D01*
X0033335Y0053091D02*
X0031435Y0053091D01*
X0031857Y0052563D01*
X0032004Y0047562D02*
X0032004Y0046718D01*
X0031160Y0046718D02*
X0031160Y0047562D01*
X0031160Y0046718D02*
X0033060Y0046718D01*
X0033060Y0045500D02*
X0031793Y0045500D01*
X0031793Y0044655D02*
X0032743Y0044655D01*
X0032776Y0044657D01*
X0032809Y0044662D01*
X0032841Y0044671D01*
X0032872Y0044682D01*
X0032902Y0044697D01*
X0032929Y0044716D01*
X0032955Y0044736D01*
X0032979Y0044760D01*
X0032999Y0044786D01*
X0033018Y0044814D01*
X0033033Y0044843D01*
X0033044Y0044874D01*
X0033053Y0044906D01*
X0033058Y0044939D01*
X0033060Y0044972D01*
X0033060Y0045500D01*
X0032796Y0042620D02*
X0032732Y0042591D01*
X0032666Y0042564D01*
X0032599Y0042540D01*
X0032531Y0042520D01*
X0032462Y0042502D01*
X0032393Y0042488D01*
X0032322Y0042476D01*
X0032252Y0042468D01*
X0032181Y0042464D01*
X0032110Y0042462D01*
X0032110Y0043518D02*
X0032039Y0043516D01*
X0031968Y0043512D01*
X0031898Y0043504D01*
X0031827Y0043492D01*
X0031758Y0043478D01*
X0031689Y0043460D01*
X0031621Y0043440D01*
X0031554Y0043416D01*
X0031488Y0043389D01*
X0031424Y0043360D01*
X0031582Y0043412D02*
X0032638Y0042567D01*
X0033060Y0042990D02*
X0033058Y0043027D01*
X0033053Y0043064D01*
X0033044Y0043100D01*
X0033032Y0043136D01*
X0033016Y0043170D01*
X0032998Y0043202D01*
X0032976Y0043232D01*
X0032952Y0043260D01*
X0032924Y0043286D01*
X0032895Y0043309D01*
X0032864Y0043329D01*
X0032830Y0043346D01*
X0032796Y0043360D01*
X0033060Y0042990D02*
X0033058Y0042953D01*
X0033053Y0042916D01*
X0033044Y0042880D01*
X0033032Y0042844D01*
X0033016Y0042810D01*
X0032998Y0042778D01*
X0032976Y0042748D01*
X0032952Y0042720D01*
X0032924Y0042694D01*
X0032895Y0042671D01*
X0032864Y0042651D01*
X0032830Y0042634D01*
X0032796Y0042620D01*
X0032796Y0043360D02*
X0032732Y0043389D01*
X0032666Y0043416D01*
X0032599Y0043440D01*
X0032531Y0043460D01*
X0032462Y0043478D01*
X0032393Y0043492D01*
X0032322Y0043504D01*
X0032252Y0043512D01*
X0032181Y0043516D01*
X0032110Y0043518D01*
X0032110Y0042462D02*
X0032039Y0042464D01*
X0031968Y0042468D01*
X0031898Y0042476D01*
X0031827Y0042488D01*
X0031758Y0042502D01*
X0031689Y0042520D01*
X0031621Y0042540D01*
X0031554Y0042564D01*
X0031488Y0042591D01*
X0031424Y0042620D01*
X0031160Y0042990D02*
X0031162Y0043027D01*
X0031167Y0043064D01*
X0031176Y0043100D01*
X0031188Y0043136D01*
X0031204Y0043170D01*
X0031222Y0043202D01*
X0031244Y0043232D01*
X0031269Y0043260D01*
X0031296Y0043286D01*
X0031325Y0043309D01*
X0031356Y0043329D01*
X0031390Y0043346D01*
X0031424Y0043360D01*
X0031160Y0042990D02*
X0031162Y0042953D01*
X0031167Y0042916D01*
X0031176Y0042880D01*
X0031188Y0042844D01*
X0031204Y0042810D01*
X0031222Y0042778D01*
X0031244Y0042748D01*
X0031269Y0042720D01*
X0031296Y0042694D01*
X0031325Y0042671D01*
X0031356Y0042651D01*
X0031390Y0042634D01*
X0031424Y0042620D01*
X0032954Y0041530D02*
X0033060Y0041530D01*
X0033060Y0041425D01*
X0032954Y0041425D01*
X0032954Y0041530D01*
X0033060Y0040494D02*
X0033060Y0039438D01*
X0033060Y0039966D02*
X0031160Y0039966D01*
X0031582Y0039438D01*
X0027279Y0026937D02*
X0027279Y0026093D01*
X0026435Y0026093D02*
X0026435Y0026937D01*
X0026435Y0026093D02*
X0028335Y0026093D01*
X0028335Y0024875D02*
X0027385Y0024875D01*
X0027349Y0024873D01*
X0027314Y0024867D01*
X0027280Y0024857D01*
X0027247Y0024844D01*
X0027216Y0024826D01*
X0027187Y0024806D01*
X0027161Y0024782D01*
X0027137Y0024756D01*
X0027117Y0024727D01*
X0027099Y0024696D01*
X0027086Y0024663D01*
X0027076Y0024629D01*
X0027070Y0024593D01*
X0027068Y0024558D01*
X0027068Y0024030D01*
X0028335Y0024030D01*
X0028335Y0022892D02*
X0028335Y0021837D01*
X0027279Y0022734D01*
X0026435Y0022417D02*
X0026437Y0022369D01*
X0026443Y0022322D01*
X0026452Y0022275D01*
X0026465Y0022228D01*
X0026481Y0022183D01*
X0026502Y0022140D01*
X0026525Y0022098D01*
X0026552Y0022058D01*
X0026581Y0022021D01*
X0026614Y0021985D01*
X0026649Y0021953D01*
X0026687Y0021923D01*
X0026727Y0021897D01*
X0026769Y0021873D01*
X0026812Y0021853D01*
X0026857Y0021837D01*
X0027279Y0022734D02*
X0027250Y0022762D01*
X0027218Y0022789D01*
X0027184Y0022812D01*
X0027148Y0022833D01*
X0027111Y0022851D01*
X0027072Y0022865D01*
X0027033Y0022877D01*
X0026992Y0022885D01*
X0026951Y0022890D01*
X0026910Y0022892D01*
X0026869Y0022890D01*
X0026828Y0022885D01*
X0026787Y0022876D01*
X0026748Y0022863D01*
X0026709Y0022847D01*
X0026673Y0022828D01*
X0026638Y0022806D01*
X0026605Y0022781D01*
X0026574Y0022753D01*
X0026546Y0022722D01*
X0026521Y0022689D01*
X0026499Y0022655D01*
X0026480Y0022618D01*
X0026464Y0022579D01*
X0026451Y0022540D01*
X0026442Y0022500D01*
X0026437Y0022458D01*
X0026435Y0022417D01*
X0028229Y0020905D02*
X0028335Y0020905D01*
X0028335Y0020800D01*
X0028229Y0020800D01*
X0028229Y0020905D01*
X0028335Y0019869D02*
X0028335Y0018813D01*
X0027279Y0019710D01*
X0026435Y0019393D02*
X0026437Y0019345D01*
X0026443Y0019298D01*
X0026452Y0019251D01*
X0026465Y0019204D01*
X0026481Y0019159D01*
X0026502Y0019116D01*
X0026525Y0019074D01*
X0026552Y0019034D01*
X0026581Y0018997D01*
X0026614Y0018961D01*
X0026649Y0018929D01*
X0026687Y0018899D01*
X0026727Y0018873D01*
X0026769Y0018849D01*
X0026812Y0018829D01*
X0026857Y0018813D01*
X0027279Y0019710D02*
X0027250Y0019738D01*
X0027218Y0019765D01*
X0027184Y0019788D01*
X0027148Y0019809D01*
X0027111Y0019827D01*
X0027072Y0019841D01*
X0027033Y0019853D01*
X0026992Y0019861D01*
X0026951Y0019866D01*
X0026910Y0019868D01*
X0026869Y0019866D01*
X0026828Y0019861D01*
X0026787Y0019852D01*
X0026748Y0019839D01*
X0026709Y0019823D01*
X0026673Y0019804D01*
X0026638Y0019782D01*
X0026605Y0019757D01*
X0026574Y0019729D01*
X0026546Y0019698D01*
X0026521Y0019665D01*
X0026499Y0019631D01*
X0026480Y0019594D01*
X0026464Y0019555D01*
X0026451Y0019516D01*
X0026442Y0019476D01*
X0026437Y0019434D01*
X0026435Y0019393D01*
X0038088Y0015550D02*
X0038086Y0015479D01*
X0038082Y0015408D01*
X0038074Y0015338D01*
X0038062Y0015267D01*
X0038048Y0015198D01*
X0038030Y0015129D01*
X0038010Y0015061D01*
X0037986Y0014994D01*
X0037959Y0014928D01*
X0037930Y0014864D01*
X0037916Y0014830D01*
X0037899Y0014796D01*
X0037879Y0014765D01*
X0037856Y0014736D01*
X0037830Y0014708D01*
X0037802Y0014684D01*
X0037772Y0014662D01*
X0037740Y0014644D01*
X0037706Y0014628D01*
X0037670Y0014616D01*
X0037634Y0014607D01*
X0037597Y0014602D01*
X0037560Y0014600D01*
X0037523Y0014602D01*
X0037486Y0014607D01*
X0037450Y0014616D01*
X0037414Y0014628D01*
X0037380Y0014644D01*
X0037348Y0014662D01*
X0037318Y0014684D01*
X0037290Y0014708D01*
X0037264Y0014736D01*
X0037241Y0014765D01*
X0037221Y0014796D01*
X0037204Y0014830D01*
X0037190Y0014864D01*
X0037138Y0015022D02*
X0037982Y0016078D01*
X0037930Y0016236D02*
X0037916Y0016270D01*
X0037899Y0016304D01*
X0037879Y0016335D01*
X0037856Y0016364D01*
X0037830Y0016391D01*
X0037802Y0016416D01*
X0037772Y0016438D01*
X0037740Y0016456D01*
X0037706Y0016472D01*
X0037670Y0016484D01*
X0037634Y0016493D01*
X0037597Y0016498D01*
X0037560Y0016500D01*
X0037523Y0016498D01*
X0037486Y0016493D01*
X0037450Y0016484D01*
X0037414Y0016472D01*
X0037380Y0016456D01*
X0037348Y0016438D01*
X0037318Y0016416D01*
X0037290Y0016391D01*
X0037264Y0016364D01*
X0037241Y0016335D01*
X0037221Y0016304D01*
X0037204Y0016270D01*
X0037190Y0016236D01*
X0037930Y0016236D02*
X0037959Y0016172D01*
X0037986Y0016106D01*
X0038010Y0016039D01*
X0038030Y0015971D01*
X0038048Y0015902D01*
X0038062Y0015833D01*
X0038074Y0015762D01*
X0038082Y0015692D01*
X0038086Y0015621D01*
X0038088Y0015550D01*
X0037032Y0015550D02*
X0037034Y0015621D01*
X0037038Y0015692D01*
X0037046Y0015762D01*
X0037058Y0015833D01*
X0037072Y0015902D01*
X0037090Y0015971D01*
X0037110Y0016039D01*
X0037134Y0016106D01*
X0037161Y0016172D01*
X0037190Y0016236D01*
X0037032Y0015550D02*
X0037034Y0015479D01*
X0037038Y0015408D01*
X0037046Y0015338D01*
X0037058Y0015267D01*
X0037072Y0015198D01*
X0037090Y0015129D01*
X0037110Y0015061D01*
X0037134Y0014994D01*
X0037161Y0014928D01*
X0037190Y0014864D01*
X0037560Y0005250D02*
X0037523Y0005248D01*
X0037486Y0005243D01*
X0037450Y0005234D01*
X0037414Y0005222D01*
X0037380Y0005206D01*
X0037348Y0005188D01*
X0037318Y0005166D01*
X0037290Y0005141D01*
X0037264Y0005114D01*
X0037241Y0005085D01*
X0037221Y0005054D01*
X0037204Y0005020D01*
X0037190Y0004986D01*
X0037560Y0005250D02*
X0037597Y0005248D01*
X0037634Y0005243D01*
X0037670Y0005234D01*
X0037706Y0005222D01*
X0037740Y0005206D01*
X0037772Y0005188D01*
X0037802Y0005166D01*
X0037830Y0005141D01*
X0037856Y0005114D01*
X0037879Y0005085D01*
X0037899Y0005054D01*
X0037916Y0005020D01*
X0037930Y0004986D01*
X0037982Y0004828D02*
X0037138Y0003772D01*
X0037560Y0003350D02*
X0037597Y0003352D01*
X0037634Y0003357D01*
X0037670Y0003366D01*
X0037706Y0003378D01*
X0037740Y0003394D01*
X0037772Y0003412D01*
X0037802Y0003434D01*
X0037830Y0003458D01*
X0037856Y0003486D01*
X0037879Y0003515D01*
X0037899Y0003546D01*
X0037916Y0003580D01*
X0037930Y0003614D01*
X0037560Y0003350D02*
X0037523Y0003352D01*
X0037486Y0003357D01*
X0037450Y0003366D01*
X0037414Y0003378D01*
X0037380Y0003394D01*
X0037348Y0003412D01*
X0037318Y0003434D01*
X0037290Y0003458D01*
X0037264Y0003486D01*
X0037241Y0003515D01*
X0037221Y0003546D01*
X0037204Y0003580D01*
X0037190Y0003614D01*
X0038088Y0004300D02*
X0038086Y0004371D01*
X0038082Y0004442D01*
X0038074Y0004512D01*
X0038062Y0004583D01*
X0038048Y0004652D01*
X0038030Y0004721D01*
X0038010Y0004789D01*
X0037986Y0004856D01*
X0037959Y0004922D01*
X0037930Y0004986D01*
X0037190Y0004986D02*
X0037161Y0004922D01*
X0037134Y0004856D01*
X0037110Y0004789D01*
X0037090Y0004721D01*
X0037072Y0004652D01*
X0037058Y0004583D01*
X0037046Y0004512D01*
X0037038Y0004442D01*
X0037034Y0004371D01*
X0037032Y0004300D01*
X0038088Y0004300D02*
X0038086Y0004229D01*
X0038082Y0004158D01*
X0038074Y0004088D01*
X0038062Y0004017D01*
X0038048Y0003948D01*
X0038030Y0003879D01*
X0038010Y0003811D01*
X0037986Y0003744D01*
X0037959Y0003678D01*
X0037930Y0003614D01*
X0037190Y0003614D02*
X0037161Y0003678D01*
X0037134Y0003744D01*
X0037110Y0003811D01*
X0037090Y0003879D01*
X0037072Y0003948D01*
X0037058Y0004017D01*
X0037046Y0004088D01*
X0037038Y0004158D01*
X0037034Y0004229D01*
X0037032Y0004300D01*
X0051104Y0029047D02*
X0051948Y0030103D01*
X0051896Y0030261D02*
X0051882Y0030295D01*
X0051865Y0030329D01*
X0051845Y0030360D01*
X0051822Y0030389D01*
X0051796Y0030416D01*
X0051768Y0030441D01*
X0051738Y0030463D01*
X0051706Y0030481D01*
X0051672Y0030497D01*
X0051636Y0030509D01*
X0051600Y0030518D01*
X0051563Y0030523D01*
X0051526Y0030525D01*
X0051489Y0030523D01*
X0051452Y0030518D01*
X0051416Y0030509D01*
X0051380Y0030497D01*
X0051346Y0030481D01*
X0051314Y0030463D01*
X0051284Y0030441D01*
X0051256Y0030416D01*
X0051230Y0030389D01*
X0051207Y0030360D01*
X0051187Y0030329D01*
X0051170Y0030295D01*
X0051156Y0030261D01*
X0051896Y0030261D02*
X0051925Y0030197D01*
X0051952Y0030131D01*
X0051976Y0030064D01*
X0051996Y0029996D01*
X0052014Y0029927D01*
X0052028Y0029858D01*
X0052040Y0029787D01*
X0052048Y0029717D01*
X0052052Y0029646D01*
X0052054Y0029575D01*
X0050998Y0029575D02*
X0051000Y0029646D01*
X0051004Y0029717D01*
X0051012Y0029787D01*
X0051024Y0029858D01*
X0051038Y0029927D01*
X0051056Y0029996D01*
X0051076Y0030064D01*
X0051100Y0030131D01*
X0051127Y0030197D01*
X0051156Y0030261D01*
X0052054Y0029575D02*
X0052052Y0029504D01*
X0052048Y0029433D01*
X0052040Y0029363D01*
X0052028Y0029292D01*
X0052014Y0029223D01*
X0051996Y0029154D01*
X0051976Y0029086D01*
X0051952Y0029019D01*
X0051925Y0028953D01*
X0051896Y0028889D01*
X0051882Y0028855D01*
X0051865Y0028821D01*
X0051845Y0028790D01*
X0051822Y0028761D01*
X0051796Y0028733D01*
X0051768Y0028709D01*
X0051738Y0028687D01*
X0051706Y0028669D01*
X0051672Y0028653D01*
X0051636Y0028641D01*
X0051600Y0028632D01*
X0051563Y0028627D01*
X0051526Y0028625D01*
X0051489Y0028627D01*
X0051452Y0028632D01*
X0051416Y0028641D01*
X0051380Y0028653D01*
X0051346Y0028669D01*
X0051314Y0028687D01*
X0051284Y0028709D01*
X0051256Y0028733D01*
X0051230Y0028761D01*
X0051207Y0028790D01*
X0051187Y0028821D01*
X0051170Y0028855D01*
X0051156Y0028889D01*
X0051127Y0028953D01*
X0051100Y0029019D01*
X0051076Y0029086D01*
X0051056Y0029154D01*
X0051038Y0029223D01*
X0051024Y0029292D01*
X0051012Y0029363D01*
X0051004Y0029433D01*
X0051000Y0029504D01*
X0050998Y0029575D01*
X0051737Y0031125D02*
X0051737Y0031969D01*
X0052054Y0031547D02*
X0050998Y0031547D01*
X0051420Y0033025D01*
X0052985Y0031231D02*
X0053090Y0031231D01*
X0053090Y0031125D01*
X0052985Y0031125D01*
X0052985Y0031231D01*
X0054022Y0030103D02*
X0054550Y0030525D01*
X0054550Y0028625D01*
X0055077Y0028625D02*
X0054022Y0028625D01*
X0053090Y0028625D02*
X0052985Y0028625D01*
X0052985Y0028731D01*
X0053090Y0028731D01*
X0053090Y0028625D01*
X0054550Y0031125D02*
X0055077Y0033025D01*
X0054022Y0033025D01*
X0054022Y0032814D01*
X0056215Y0032392D02*
X0056215Y0031442D01*
X0056217Y0031409D01*
X0056222Y0031376D01*
X0056231Y0031344D01*
X0056242Y0031313D01*
X0056257Y0031284D01*
X0056276Y0031256D01*
X0056296Y0031230D01*
X0056320Y0031206D01*
X0056346Y0031186D01*
X0056374Y0031167D01*
X0056403Y0031152D01*
X0056434Y0031141D01*
X0056466Y0031132D01*
X0056499Y0031127D01*
X0056532Y0031125D01*
X0057060Y0031125D01*
X0057060Y0032392D01*
X0058278Y0032181D02*
X0059122Y0032181D01*
X0059122Y0033025D02*
X0058278Y0033025D01*
X0058278Y0031125D01*
X0058278Y0030525D02*
X0059122Y0030525D01*
X0058278Y0030525D02*
X0058278Y0028625D01*
X0058278Y0029681D02*
X0059122Y0029681D01*
X0057060Y0029892D02*
X0057060Y0028625D01*
X0056532Y0028625D01*
X0056499Y0028627D01*
X0056466Y0028632D01*
X0056434Y0028641D01*
X0056403Y0028652D01*
X0056374Y0028667D01*
X0056346Y0028686D01*
X0056320Y0028706D01*
X0056296Y0028730D01*
X0056276Y0028756D01*
X0056257Y0028784D01*
X0056242Y0028813D01*
X0056231Y0028844D01*
X0056222Y0028876D01*
X0056217Y0028909D01*
X0056215Y0028942D01*
X0056215Y0029892D01*
X0060935Y0005900D02*
X0061568Y0004000D01*
X0062202Y0005900D01*
X0063085Y0005900D02*
X0063507Y0005900D01*
X0063296Y0005900D02*
X0063296Y0004000D01*
X0063085Y0004000D02*
X0063507Y0004000D01*
X0064569Y0004000D02*
X0064569Y0005900D01*
X0065624Y0004000D01*
X0065624Y0005900D01*
X0108935Y0034159D02*
X0110413Y0034159D01*
X0110452Y0034157D01*
X0110491Y0034152D01*
X0110528Y0034143D01*
X0110565Y0034131D01*
X0110601Y0034115D01*
X0110635Y0034096D01*
X0110667Y0034074D01*
X0110697Y0034049D01*
X0110725Y0034021D01*
X0110750Y0033991D01*
X0110772Y0033959D01*
X0110791Y0033925D01*
X0110807Y0033889D01*
X0110819Y0033852D01*
X0110828Y0033815D01*
X0110833Y0033776D01*
X0110835Y0033737D01*
X0110835Y0033526D01*
X0110835Y0035847D02*
X0108935Y0036375D01*
X0108935Y0035319D01*
X0109146Y0035319D01*
X0004310Y0030974D02*
X0004310Y0029919D01*
X0004310Y0030447D02*
X0002410Y0030447D01*
X0002832Y0029919D01*
X0002410Y0028758D02*
X0003888Y0028758D01*
X0003927Y0028756D01*
X0003966Y0028751D01*
X0004003Y0028742D01*
X0004040Y0028730D01*
X0004076Y0028714D01*
X0004110Y0028695D01*
X0004142Y0028673D01*
X0004172Y0028648D01*
X0004200Y0028620D01*
X0004225Y0028590D01*
X0004247Y0028558D01*
X0004266Y0028524D01*
X0004282Y0028488D01*
X0004294Y0028451D01*
X0004303Y0028414D01*
X0004308Y0028375D01*
X0004310Y0028336D01*
X0004310Y0028125D01*
X0003888Y0007849D02*
X0003677Y0007849D01*
X0003638Y0007847D01*
X0003599Y0007842D01*
X0003562Y0007833D01*
X0003525Y0007821D01*
X0003489Y0007805D01*
X0003455Y0007786D01*
X0003423Y0007764D01*
X0003393Y0007739D01*
X0003365Y0007711D01*
X0003340Y0007681D01*
X0003318Y0007649D01*
X0003299Y0007615D01*
X0003283Y0007579D01*
X0003271Y0007542D01*
X0003262Y0007505D01*
X0003257Y0007466D01*
X0003255Y0007427D01*
X0003254Y0007427D02*
X0003254Y0006794D01*
X0002410Y0006794D01*
X0002410Y0007849D01*
X0003888Y0007849D02*
X0003927Y0007847D01*
X0003966Y0007842D01*
X0004003Y0007833D01*
X0004040Y0007821D01*
X0004076Y0007805D01*
X0004110Y0007786D01*
X0004142Y0007764D01*
X0004172Y0007739D01*
X0004200Y0007711D01*
X0004225Y0007681D01*
X0004247Y0007649D01*
X0004266Y0007615D01*
X0004282Y0007579D01*
X0004294Y0007542D01*
X0004303Y0007505D01*
X0004308Y0007466D01*
X0004310Y0007427D01*
X0004310Y0006794D01*
X0003888Y0005633D02*
X0002410Y0005633D01*
X0003888Y0005633D02*
X0003927Y0005631D01*
X0003966Y0005626D01*
X0004003Y0005617D01*
X0004040Y0005605D01*
X0004076Y0005589D01*
X0004110Y0005570D01*
X0004142Y0005548D01*
X0004172Y0005523D01*
X0004200Y0005495D01*
X0004225Y0005465D01*
X0004247Y0005433D01*
X0004266Y0005399D01*
X0004282Y0005363D01*
X0004294Y0005326D01*
X0004303Y0005289D01*
X0004308Y0005250D01*
X0004310Y0005211D01*
X0004310Y0005000D01*
X0004310Y0091250D02*
X0004310Y0091461D01*
X0004308Y0091500D01*
X0004303Y0091539D01*
X0004294Y0091576D01*
X0004282Y0091613D01*
X0004266Y0091649D01*
X0004247Y0091683D01*
X0004225Y0091715D01*
X0004200Y0091745D01*
X0004172Y0091773D01*
X0004142Y0091798D01*
X0004110Y0091820D01*
X0004076Y0091839D01*
X0004040Y0091855D01*
X0004003Y0091867D01*
X0003966Y0091876D01*
X0003927Y0091881D01*
X0003888Y0091883D01*
X0002410Y0091883D01*
X0002410Y0093466D02*
X0003888Y0093044D01*
X0003888Y0094099D01*
X0003466Y0093783D02*
X0004310Y0093783D01*
X0004310Y0115625D02*
X0004310Y0115836D01*
X0004308Y0115875D01*
X0004303Y0115914D01*
X0004294Y0115951D01*
X0004282Y0115988D01*
X0004266Y0116024D01*
X0004247Y0116058D01*
X0004225Y0116090D01*
X0004200Y0116120D01*
X0004172Y0116148D01*
X0004142Y0116173D01*
X0004110Y0116195D01*
X0004076Y0116214D01*
X0004040Y0116230D01*
X0004003Y0116242D01*
X0003966Y0116251D01*
X0003927Y0116256D01*
X0003888Y0116258D01*
X0002410Y0116258D01*
X0002410Y0117419D02*
X0002410Y0118052D01*
X0002412Y0118092D01*
X0002418Y0118132D01*
X0002427Y0118171D01*
X0002440Y0118209D01*
X0002457Y0118245D01*
X0002477Y0118280D01*
X0002500Y0118313D01*
X0002527Y0118343D01*
X0002556Y0118371D01*
X0002587Y0118396D01*
X0002621Y0118417D01*
X0002657Y0118436D01*
X0002694Y0118451D01*
X0002733Y0118462D01*
X0002772Y0118470D01*
X0002812Y0118474D01*
X0002852Y0118474D01*
X0002892Y0118470D01*
X0002931Y0118462D01*
X0002970Y0118451D01*
X0003007Y0118436D01*
X0003043Y0118417D01*
X0003077Y0118396D01*
X0003108Y0118371D01*
X0003137Y0118343D01*
X0003164Y0118313D01*
X0003187Y0118280D01*
X0003207Y0118245D01*
X0003224Y0118209D01*
X0003237Y0118171D01*
X0003246Y0118132D01*
X0003252Y0118092D01*
X0003254Y0118052D01*
X0003254Y0117630D01*
X0003254Y0117947D02*
X0003256Y0117992D01*
X0003262Y0118036D01*
X0003271Y0118080D01*
X0003284Y0118123D01*
X0003301Y0118164D01*
X0003321Y0118205D01*
X0003345Y0118243D01*
X0003371Y0118279D01*
X0003401Y0118312D01*
X0003433Y0118343D01*
X0003468Y0118372D01*
X0003505Y0118397D01*
X0003544Y0118418D01*
X0003585Y0118437D01*
X0003627Y0118452D01*
X0003671Y0118463D01*
X0003715Y0118471D01*
X0003760Y0118475D01*
X0003804Y0118475D01*
X0003849Y0118471D01*
X0003893Y0118463D01*
X0003937Y0118452D01*
X0003979Y0118437D01*
X0004020Y0118418D01*
X0004059Y0118397D01*
X0004096Y0118372D01*
X0004131Y0118343D01*
X0004163Y0118312D01*
X0004193Y0118279D01*
X0004219Y0118243D01*
X0004243Y0118205D01*
X0004263Y0118164D01*
X0004280Y0118123D01*
X0004293Y0118080D01*
X0004302Y0118036D01*
X0004308Y0117992D01*
X0004310Y0117947D01*
X0004310Y0117419D01*
D17*
X0027151Y0094730D03*
X0031751Y0094730D03*
X0031751Y0087855D03*
X0027151Y0087855D03*
X0027151Y0080980D03*
X0031751Y0080980D03*
X0052776Y0034105D03*
X0057376Y0034105D03*
X0057376Y0027855D03*
X0052776Y0027855D03*
X0039844Y0019770D03*
X0035244Y0019770D03*
X0035244Y0008520D03*
X0039844Y0008520D03*
D18*
X0046935Y0009600D02*
X0048035Y0008500D01*
X0046935Y0009600D02*
X0046935Y0013500D01*
X0046935Y0017400D01*
X0048035Y0018500D01*
X0047935Y0013500D02*
X0046935Y0013500D01*
X0055435Y0013500D02*
X0058435Y0013500D01*
X0065935Y0013500D02*
X0066935Y0013500D01*
X0066935Y0017400D01*
X0065835Y0018500D01*
X0066935Y0013500D02*
X0066935Y0009600D01*
X0065835Y0008500D01*
X0071935Y0010375D02*
X0074435Y0007875D01*
X0079435Y0007875D01*
X0081935Y0010375D01*
X0084435Y0007875D01*
X0089435Y0007875D01*
X0091935Y0010375D01*
X0091935Y0015375D01*
X0089435Y0017875D01*
X0084435Y0017875D01*
X0081935Y0015375D01*
X0079435Y0017875D01*
X0074435Y0017875D01*
X0071935Y0015375D01*
X0071935Y0010375D01*
X0098185Y0019125D02*
X0098185Y0024125D01*
X0100685Y0026625D01*
X0098185Y0029125D01*
X0098185Y0034125D01*
X0100685Y0036625D01*
X0105685Y0036625D01*
X0108185Y0034125D01*
X0108185Y0029125D01*
X0105685Y0026625D01*
X0108185Y0024125D01*
X0108185Y0019125D01*
X0105685Y0016625D01*
X0100685Y0016625D01*
X0098185Y0019125D01*
X0100685Y0042875D02*
X0105685Y0042875D01*
X0108185Y0045375D01*
X0108185Y0050375D01*
X0105685Y0052875D01*
X0108185Y0055375D01*
X0108185Y0060375D01*
X0105685Y0062875D01*
X0108185Y0065375D01*
X0108185Y0070375D01*
X0105685Y0072875D01*
X0108185Y0075375D01*
X0108185Y0080375D01*
X0105685Y0082875D01*
X0108185Y0085375D01*
X0108185Y0090375D01*
X0105685Y0092875D01*
X0108185Y0095375D01*
X0108185Y0100375D01*
X0105685Y0102875D01*
X0100685Y0102875D01*
X0098185Y0100375D01*
X0098185Y0095375D01*
X0100685Y0092875D01*
X0098185Y0090375D01*
X0098185Y0085375D01*
X0100685Y0082875D01*
X0098185Y0080375D01*
X0098185Y0075375D01*
X0100685Y0072875D01*
X0098185Y0070375D01*
X0098185Y0065375D01*
X0100685Y0062875D01*
X0098185Y0060375D01*
X0098185Y0055375D01*
X0100685Y0052875D01*
X0098185Y0050375D01*
X0098185Y0045375D01*
X0100685Y0042875D01*
X0097560Y0045375D02*
X0095060Y0042875D01*
X0090060Y0042875D01*
X0087560Y0045375D01*
X0087560Y0050375D01*
X0090060Y0052875D01*
X0087560Y0055375D01*
X0087560Y0060375D01*
X0090060Y0062875D01*
X0087560Y0065375D01*
X0087560Y0070375D01*
X0090060Y0072875D01*
X0087560Y0075375D01*
X0087560Y0080375D01*
X0090060Y0082875D01*
X0087560Y0085375D01*
X0087560Y0090375D01*
X0090060Y0092875D01*
X0087560Y0095375D01*
X0087560Y0100375D01*
X0090060Y0102875D01*
X0095060Y0102875D01*
X0097560Y0100375D01*
X0097560Y0095375D01*
X0095060Y0092875D01*
X0097560Y0090375D01*
X0097560Y0085375D01*
X0095060Y0082875D01*
X0097560Y0080375D01*
X0097560Y0075375D01*
X0095060Y0072875D01*
X0097560Y0070375D01*
X0097560Y0065375D01*
X0095060Y0062875D01*
X0097560Y0060375D01*
X0097560Y0055375D01*
X0095060Y0052875D01*
X0097560Y0050375D01*
X0097560Y0045375D01*
X0073810Y0125375D02*
X0068810Y0125375D01*
X0066310Y0127875D01*
X0063810Y0125375D01*
X0058810Y0125375D01*
X0056310Y0127875D01*
X0053810Y0125375D01*
X0048810Y0125375D01*
X0046310Y0127875D01*
X0043810Y0125375D01*
X0038810Y0125375D01*
X0036310Y0127875D01*
X0036310Y0132875D01*
X0038810Y0135375D01*
X0043810Y0135375D01*
X0046310Y0132875D01*
X0048810Y0135375D01*
X0053810Y0135375D01*
X0056310Y0132875D01*
X0058810Y0135375D01*
X0063810Y0135375D01*
X0066310Y0132875D01*
X0068810Y0135375D01*
X0073810Y0135375D01*
X0076310Y0132875D01*
X0076310Y0127875D01*
X0073810Y0125375D01*
X0082560Y0134750D02*
X0086310Y0134750D01*
X0090060Y0134750D02*
X0093810Y0134750D01*
X0015060Y0132875D02*
X0015060Y0127875D01*
X0012560Y0125375D01*
X0015060Y0122875D01*
X0015060Y0117875D01*
X0012560Y0115375D01*
X0007560Y0115375D01*
X0005060Y0117875D01*
X0005060Y0122875D01*
X0007560Y0125375D01*
X0005060Y0127875D01*
X0005060Y0132875D01*
X0007560Y0135375D01*
X0012560Y0135375D01*
X0015060Y0132875D01*
X0012560Y0111000D02*
X0007560Y0111000D01*
X0005060Y0108500D01*
X0005060Y0103500D01*
X0007560Y0101000D01*
X0005060Y0098500D01*
X0005060Y0093500D01*
X0007560Y0091000D01*
X0012560Y0091000D01*
X0015060Y0093500D01*
X0015060Y0098500D01*
X0012560Y0101000D01*
X0015060Y0103500D01*
X0015060Y0108500D01*
X0012560Y0111000D01*
X0012560Y0087875D02*
X0007560Y0087875D01*
X0005060Y0085375D01*
X0005060Y0080375D01*
X0007560Y0077875D01*
X0005060Y0075375D01*
X0005060Y0070375D01*
X0007560Y0067875D01*
X0005060Y0065375D01*
X0005060Y0060375D01*
X0007560Y0057875D01*
X0005060Y0055375D01*
X0005060Y0050375D01*
X0007560Y0047875D01*
X0005060Y0045375D01*
X0005060Y0040375D01*
X0007560Y0037875D01*
X0005060Y0035375D01*
X0005060Y0030375D01*
X0007560Y0027875D01*
X0012560Y0027875D01*
X0015060Y0030375D01*
X0015060Y0035375D01*
X0012560Y0037875D01*
X0015060Y0040375D01*
X0015060Y0045375D01*
X0012560Y0047875D01*
X0015060Y0050375D01*
X0015060Y0055375D01*
X0012560Y0057875D01*
X0015060Y0060375D01*
X0015060Y0065375D01*
X0012560Y0067875D01*
X0015060Y0070375D01*
X0015060Y0075375D01*
X0012560Y0077875D01*
X0015060Y0080375D01*
X0015060Y0085375D01*
X0012560Y0087875D01*
X0012560Y0024750D02*
X0007560Y0024750D01*
X0005060Y0022250D01*
X0005060Y0017250D01*
X0007560Y0014750D01*
X0005060Y0012250D01*
X0005060Y0007250D01*
X0007560Y0004750D01*
X0012560Y0004750D01*
X0015060Y0007250D01*
X0015060Y0012250D01*
X0012560Y0014750D01*
X0015060Y0017250D01*
X0015060Y0022250D01*
X0012560Y0024750D01*
D19*
X0037511Y0045213D02*
X0037511Y0096787D01*
X0075109Y0096787D01*
X0075109Y0045213D01*
X0037511Y0045213D01*
D20*
X0044302Y0046394D02*
X0044302Y0095606D01*
X0068318Y0095606D01*
X0068318Y0046394D01*
X0044302Y0046394D01*
X0044302Y0093638D02*
X0046271Y0095606D01*
D21*
X0044302Y0095606D02*
X0038495Y0095606D01*
D22*
X0041310Y0130375D03*
X0051310Y0130375D03*
X0061310Y0130375D03*
X0071310Y0130375D03*
X0092560Y0097875D03*
X0092560Y0087875D03*
X0092560Y0077875D03*
X0092560Y0067875D03*
X0092560Y0057875D03*
X0092560Y0047875D03*
X0103185Y0047875D03*
X0103185Y0057875D03*
X0103185Y0067875D03*
X0103185Y0077875D03*
X0103185Y0087875D03*
X0103185Y0097875D03*
X0103185Y0031625D03*
X0103185Y0021625D03*
X0086935Y0012875D03*
X0076935Y0012875D03*
X0010060Y0009750D03*
X0010060Y0019750D03*
X0010060Y0032875D03*
X0010060Y0042875D03*
X0010060Y0052875D03*
X0010060Y0062875D03*
X0010060Y0072875D03*
X0010060Y0082875D03*
X0010060Y0096000D03*
X0010060Y0106000D03*
X0010060Y0120375D03*
X0010060Y0130375D03*
D23*
X0051935Y0013500D03*
X0061935Y0013500D03*
M02*
