G75*
%MOIN*%
%OFA0B0*%
%FSLAX25Y25*%
%IPPOS*%
%LPD*%
%AMOC8*
5,1,8,0,0,1.08239X$1,22.5*
%
%ADD10R,0.04737X0.05131*%
%ADD11R,0.05131X0.04737*%
%ADD12C,0.01990*%
%ADD13R,0.06607X0.01981*%
%ADD14R,0.14501X0.18202*%
%ADD15C,0.08200*%
%ADD16C,0.06800*%
%ADD17C,0.03778*%
D10*
X0027560Y0008279D03*
X0027560Y0014971D03*
X0027560Y0040154D03*
X0027560Y0046846D03*
X0027560Y0053279D03*
X0027560Y0059971D03*
X0027560Y0066404D03*
X0027560Y0073096D03*
X0082560Y0071404D03*
X0082560Y0064971D03*
X0082560Y0058279D03*
X0082560Y0078096D03*
X0082560Y0084529D03*
X0082560Y0091221D03*
D11*
X0058406Y0034125D03*
X0058406Y0027875D03*
X0051714Y0027875D03*
X0051714Y0034125D03*
X0040906Y0019750D03*
X0034214Y0019750D03*
X0034214Y0008500D03*
X0040906Y0008500D03*
X0032781Y0081000D03*
X0026089Y0081000D03*
X0026089Y0087875D03*
X0032781Y0087875D03*
X0032781Y0094750D03*
X0026089Y0094750D03*
D12*
X0083062Y0123674D02*
X0085808Y0123674D01*
X0083062Y0123674D02*
X0083062Y0126420D01*
X0085808Y0126420D01*
X0085808Y0123674D01*
X0085808Y0125564D02*
X0083062Y0125564D01*
X0083062Y0130580D02*
X0085808Y0130580D01*
X0083062Y0130580D02*
X0083062Y0133326D01*
X0085808Y0133326D01*
X0085808Y0130580D01*
X0085808Y0132470D02*
X0083062Y0132470D01*
X0090562Y0130580D02*
X0093308Y0130580D01*
X0090562Y0130580D02*
X0090562Y0133326D01*
X0093308Y0133326D01*
X0093308Y0130580D01*
X0093308Y0132470D02*
X0090562Y0132470D01*
X0090562Y0123674D02*
X0093308Y0123674D01*
X0090562Y0123674D02*
X0090562Y0126420D01*
X0093308Y0126420D01*
X0093308Y0123674D01*
X0093308Y0125564D02*
X0090562Y0125564D01*
D13*
X0071223Y0093638D03*
X0071223Y0091669D03*
X0071223Y0089701D03*
X0071223Y0087732D03*
X0071223Y0085764D03*
X0071223Y0083795D03*
X0071223Y0081827D03*
X0071223Y0079858D03*
X0071223Y0077890D03*
X0071223Y0075921D03*
X0071223Y0073953D03*
X0071223Y0071984D03*
X0071223Y0070016D03*
X0071223Y0068047D03*
X0071223Y0066079D03*
X0071223Y0064110D03*
X0071223Y0062142D03*
X0071223Y0060173D03*
X0071223Y0058205D03*
X0071223Y0056236D03*
X0071223Y0054268D03*
X0071223Y0052299D03*
X0071223Y0050331D03*
X0071223Y0048362D03*
X0041397Y0048362D03*
X0041397Y0050331D03*
X0041397Y0052299D03*
X0041397Y0054268D03*
X0041397Y0056236D03*
X0041397Y0058205D03*
X0041397Y0060173D03*
X0041397Y0062142D03*
X0041397Y0064110D03*
X0041397Y0066079D03*
X0041397Y0068047D03*
X0041397Y0070016D03*
X0041397Y0071984D03*
X0041397Y0073953D03*
X0041397Y0075921D03*
X0041397Y0077890D03*
X0041397Y0079858D03*
X0041397Y0081827D03*
X0041397Y0083795D03*
X0041397Y0085764D03*
X0041397Y0087732D03*
X0041397Y0089701D03*
X0041397Y0091669D03*
X0041397Y0093638D03*
D14*
X0056310Y0071000D03*
D15*
X0010060Y0009750D03*
X0010060Y0019750D03*
X0010060Y0032875D03*
X0010060Y0042875D03*
X0010060Y0052875D03*
X0010060Y0062875D03*
X0010060Y0072875D03*
X0010060Y0082875D03*
X0010060Y0096000D03*
X0010060Y0106000D03*
X0010060Y0120375D03*
X0010060Y0130375D03*
X0041310Y0130375D03*
X0051310Y0130375D03*
X0061310Y0130375D03*
X0071310Y0130375D03*
X0092560Y0097875D03*
X0092560Y0087875D03*
X0092560Y0077875D03*
X0092560Y0067875D03*
X0092560Y0057875D03*
X0092560Y0047875D03*
X0103185Y0047875D03*
X0103185Y0057875D03*
X0103185Y0067875D03*
X0103185Y0077875D03*
X0103185Y0087875D03*
X0103185Y0097875D03*
X0103185Y0031625D03*
X0103185Y0021625D03*
X0086935Y0012875D03*
X0076935Y0012875D03*
D16*
X0062435Y0010500D02*
X0062435Y0016500D01*
X0051435Y0016500D02*
X0051435Y0010500D01*
D17*
X0040910Y0013000D03*
X0040310Y0044200D03*
X0036110Y0053800D03*
X0031910Y0062200D03*
X0031910Y0065800D03*
X0034910Y0068200D03*
X0046910Y0070000D03*
X0046910Y0073600D03*
X0046910Y0079600D03*
X0051710Y0084400D03*
X0051710Y0088000D03*
X0046910Y0086200D03*
X0034910Y0103600D03*
X0021710Y0094600D03*
X0021710Y0091000D03*
X0017510Y0103600D03*
X0046910Y0064000D03*
X0046910Y0060400D03*
X0050035Y0057500D03*
X0050035Y0053900D03*
X0066110Y0070000D03*
X0066110Y0077800D03*
X0066110Y0084400D03*
X0076310Y0089200D03*
X0078110Y0079600D03*
X0087110Y0092800D03*
X0056510Y0112000D03*
X0054110Y0106000D03*
X0053510Y0124000D03*
M02*
