G75*
%MOIN*%
%OFA0B0*%
%FSLAX25Y25*%
%IPPOS*%
%LPD*%
%AMOC8*
5,1,8,0,0,1.08239X$1,22.5*
%
%ADD10C,0.15000*%
%ADD11C,0.12611*%
%ADD12R,0.05131X0.04737*%
%ADD13R,0.04737X0.05131*%
%ADD14R,0.13792X0.05721*%
%ADD15C,0.05950*%
%ADD16R,0.06607X0.02572*%
%ADD17C,0.01207*%
%ADD18C,0.08600*%
%ADD19R,0.10800X0.20800*%
%ADD20C,0.01268*%
%ADD21R,0.04737X0.03162*%
D10*
X0035650Y0020650D02*
X0035650Y0045650D01*
X0034400Y0069400D02*
X0036900Y0069400D01*
X0035650Y0070025D02*
X0035650Y0075650D01*
X0026900Y0084400D01*
X0061900Y0084400D02*
X0070650Y0075650D01*
X0070650Y0070025D01*
X0070650Y0045650D02*
X0070650Y0020650D01*
X0105650Y0020650D02*
X0105650Y0045650D01*
X0105650Y0070650D02*
X0105650Y0075650D01*
X0096900Y0084400D01*
D11*
X0020650Y0208150D03*
D12*
X0032304Y0096900D03*
X0038996Y0096900D03*
X0067304Y0096900D03*
X0073996Y0096900D03*
X0102304Y0096900D03*
X0108996Y0096900D03*
X0138554Y0040650D03*
X0145246Y0040650D03*
D13*
X0121900Y0038554D03*
X0121900Y0045246D03*
X0090650Y0038996D03*
X0090650Y0032304D03*
X0055650Y0032304D03*
X0055650Y0038996D03*
X0048150Y0083554D03*
X0048150Y0090246D03*
X0083150Y0090246D03*
X0083150Y0083554D03*
X0118150Y0083554D03*
X0118150Y0090246D03*
D14*
X0105650Y0069961D03*
X0105650Y0046339D03*
X0070650Y0046339D03*
X0070650Y0069961D03*
X0035650Y0069961D03*
X0035650Y0046339D03*
D15*
X0173075Y0043150D02*
X0178225Y0043150D01*
X0178225Y0053150D02*
X0173075Y0053150D01*
X0173075Y0063150D02*
X0178225Y0063150D01*
X0178225Y0073150D02*
X0173075Y0073150D01*
X0173075Y0083150D02*
X0178225Y0083150D01*
X0178225Y0093150D02*
X0173075Y0093150D01*
X0173075Y0103150D02*
X0178225Y0103150D01*
X0178225Y0113150D02*
X0173075Y0113150D01*
X0173075Y0123150D02*
X0178225Y0123150D01*
X0178225Y0133150D02*
X0173075Y0133150D01*
X0173075Y0143150D02*
X0178225Y0143150D01*
X0178225Y0153150D02*
X0173075Y0153150D01*
X0173075Y0163150D02*
X0178225Y0163150D01*
X0178225Y0173150D02*
X0173075Y0173150D01*
X0173075Y0183150D02*
X0178225Y0183150D01*
X0178225Y0193150D02*
X0173075Y0193150D01*
X0173075Y0203150D02*
X0178225Y0203150D01*
X0178225Y0213150D02*
X0173075Y0213150D01*
X0233075Y0213150D02*
X0238225Y0213150D01*
X0238225Y0203150D02*
X0233075Y0203150D01*
X0233075Y0193150D02*
X0238225Y0193150D01*
X0238225Y0183150D02*
X0233075Y0183150D01*
X0233075Y0173150D02*
X0238225Y0173150D01*
X0238225Y0163150D02*
X0233075Y0163150D01*
X0233075Y0153150D02*
X0238225Y0153150D01*
X0238225Y0143150D02*
X0233075Y0143150D01*
X0233075Y0133150D02*
X0238225Y0133150D01*
X0238225Y0123150D02*
X0233075Y0123150D01*
X0233075Y0113150D02*
X0238225Y0113150D01*
X0238225Y0103150D02*
X0233075Y0103150D01*
X0233075Y0093150D02*
X0238225Y0093150D01*
X0238225Y0083150D02*
X0233075Y0083150D01*
X0233075Y0073150D02*
X0238225Y0073150D01*
X0238225Y0063150D02*
X0233075Y0063150D01*
X0233075Y0053150D02*
X0238225Y0053150D01*
X0238225Y0043150D02*
X0233075Y0043150D01*
X0233075Y0033150D02*
X0238225Y0033150D01*
X0238225Y0023150D02*
X0233075Y0023150D01*
X0178225Y0023150D02*
X0173075Y0023150D01*
X0173075Y0033150D02*
X0178225Y0033150D01*
D16*
X0155967Y0129193D03*
X0155967Y0131752D03*
X0155967Y0134311D03*
X0155967Y0136870D03*
X0155967Y0139430D03*
X0155967Y0141989D03*
X0155967Y0144548D03*
X0155967Y0147107D03*
X0132833Y0147107D03*
X0132833Y0144548D03*
X0132833Y0141989D03*
X0132833Y0139430D03*
X0132833Y0136870D03*
X0132833Y0134311D03*
X0132833Y0131752D03*
X0132833Y0129193D03*
D17*
X0095093Y0072336D02*
X0095093Y0066562D01*
X0093885Y0066562D01*
X0093885Y0072336D01*
X0095093Y0072336D01*
X0095093Y0067709D02*
X0093885Y0067709D01*
X0093885Y0068856D02*
X0095093Y0068856D01*
X0095093Y0070003D02*
X0093885Y0070003D01*
X0093885Y0071150D02*
X0095093Y0071150D01*
X0095093Y0072297D02*
X0093885Y0072297D01*
X0092534Y0072336D02*
X0092534Y0066562D01*
X0091326Y0066562D01*
X0091326Y0072336D01*
X0092534Y0072336D01*
X0092534Y0067709D02*
X0091326Y0067709D01*
X0091326Y0068856D02*
X0092534Y0068856D01*
X0092534Y0070003D02*
X0091326Y0070003D01*
X0091326Y0071150D02*
X0092534Y0071150D01*
X0092534Y0072297D02*
X0091326Y0072297D01*
X0089974Y0072336D02*
X0089974Y0066562D01*
X0088766Y0066562D01*
X0088766Y0072336D01*
X0089974Y0072336D01*
X0089974Y0067709D02*
X0088766Y0067709D01*
X0088766Y0068856D02*
X0089974Y0068856D01*
X0089974Y0070003D02*
X0088766Y0070003D01*
X0088766Y0071150D02*
X0089974Y0071150D01*
X0089974Y0072297D02*
X0088766Y0072297D01*
X0087415Y0072336D02*
X0087415Y0066562D01*
X0086207Y0066562D01*
X0086207Y0072336D01*
X0087415Y0072336D01*
X0087415Y0067709D02*
X0086207Y0067709D01*
X0086207Y0068856D02*
X0087415Y0068856D01*
X0087415Y0070003D02*
X0086207Y0070003D01*
X0086207Y0071150D02*
X0087415Y0071150D01*
X0087415Y0072297D02*
X0086207Y0072297D01*
X0087415Y0049738D02*
X0087415Y0043964D01*
X0086207Y0043964D01*
X0086207Y0049738D01*
X0087415Y0049738D01*
X0087415Y0045111D02*
X0086207Y0045111D01*
X0086207Y0046258D02*
X0087415Y0046258D01*
X0087415Y0047405D02*
X0086207Y0047405D01*
X0086207Y0048552D02*
X0087415Y0048552D01*
X0087415Y0049699D02*
X0086207Y0049699D01*
X0089974Y0049738D02*
X0089974Y0043964D01*
X0088766Y0043964D01*
X0088766Y0049738D01*
X0089974Y0049738D01*
X0089974Y0045111D02*
X0088766Y0045111D01*
X0088766Y0046258D02*
X0089974Y0046258D01*
X0089974Y0047405D02*
X0088766Y0047405D01*
X0088766Y0048552D02*
X0089974Y0048552D01*
X0089974Y0049699D02*
X0088766Y0049699D01*
X0092534Y0049738D02*
X0092534Y0043964D01*
X0091326Y0043964D01*
X0091326Y0049738D01*
X0092534Y0049738D01*
X0092534Y0045111D02*
X0091326Y0045111D01*
X0091326Y0046258D02*
X0092534Y0046258D01*
X0092534Y0047405D02*
X0091326Y0047405D01*
X0091326Y0048552D02*
X0092534Y0048552D01*
X0092534Y0049699D02*
X0091326Y0049699D01*
X0095093Y0049738D02*
X0095093Y0043964D01*
X0093885Y0043964D01*
X0093885Y0049738D01*
X0095093Y0049738D01*
X0095093Y0045111D02*
X0093885Y0045111D01*
X0093885Y0046258D02*
X0095093Y0046258D01*
X0095093Y0047405D02*
X0093885Y0047405D01*
X0093885Y0048552D02*
X0095093Y0048552D01*
X0095093Y0049699D02*
X0093885Y0049699D01*
X0060093Y0049738D02*
X0060093Y0043964D01*
X0058885Y0043964D01*
X0058885Y0049738D01*
X0060093Y0049738D01*
X0060093Y0045111D02*
X0058885Y0045111D01*
X0058885Y0046258D02*
X0060093Y0046258D01*
X0060093Y0047405D02*
X0058885Y0047405D01*
X0058885Y0048552D02*
X0060093Y0048552D01*
X0060093Y0049699D02*
X0058885Y0049699D01*
X0057534Y0049738D02*
X0057534Y0043964D01*
X0056326Y0043964D01*
X0056326Y0049738D01*
X0057534Y0049738D01*
X0057534Y0045111D02*
X0056326Y0045111D01*
X0056326Y0046258D02*
X0057534Y0046258D01*
X0057534Y0047405D02*
X0056326Y0047405D01*
X0056326Y0048552D02*
X0057534Y0048552D01*
X0057534Y0049699D02*
X0056326Y0049699D01*
X0054974Y0049738D02*
X0054974Y0043964D01*
X0053766Y0043964D01*
X0053766Y0049738D01*
X0054974Y0049738D01*
X0054974Y0045111D02*
X0053766Y0045111D01*
X0053766Y0046258D02*
X0054974Y0046258D01*
X0054974Y0047405D02*
X0053766Y0047405D01*
X0053766Y0048552D02*
X0054974Y0048552D01*
X0054974Y0049699D02*
X0053766Y0049699D01*
X0052415Y0049738D02*
X0052415Y0043964D01*
X0051207Y0043964D01*
X0051207Y0049738D01*
X0052415Y0049738D01*
X0052415Y0045111D02*
X0051207Y0045111D01*
X0051207Y0046258D02*
X0052415Y0046258D01*
X0052415Y0047405D02*
X0051207Y0047405D01*
X0051207Y0048552D02*
X0052415Y0048552D01*
X0052415Y0049699D02*
X0051207Y0049699D01*
X0052415Y0066562D02*
X0052415Y0072336D01*
X0052415Y0066562D02*
X0051207Y0066562D01*
X0051207Y0072336D01*
X0052415Y0072336D01*
X0052415Y0067709D02*
X0051207Y0067709D01*
X0051207Y0068856D02*
X0052415Y0068856D01*
X0052415Y0070003D02*
X0051207Y0070003D01*
X0051207Y0071150D02*
X0052415Y0071150D01*
X0052415Y0072297D02*
X0051207Y0072297D01*
X0054974Y0072336D02*
X0054974Y0066562D01*
X0053766Y0066562D01*
X0053766Y0072336D01*
X0054974Y0072336D01*
X0054974Y0067709D02*
X0053766Y0067709D01*
X0053766Y0068856D02*
X0054974Y0068856D01*
X0054974Y0070003D02*
X0053766Y0070003D01*
X0053766Y0071150D02*
X0054974Y0071150D01*
X0054974Y0072297D02*
X0053766Y0072297D01*
X0057534Y0072336D02*
X0057534Y0066562D01*
X0056326Y0066562D01*
X0056326Y0072336D01*
X0057534Y0072336D01*
X0057534Y0067709D02*
X0056326Y0067709D01*
X0056326Y0068856D02*
X0057534Y0068856D01*
X0057534Y0070003D02*
X0056326Y0070003D01*
X0056326Y0071150D02*
X0057534Y0071150D01*
X0057534Y0072297D02*
X0056326Y0072297D01*
X0060093Y0072336D02*
X0060093Y0066562D01*
X0058885Y0066562D01*
X0058885Y0072336D01*
X0060093Y0072336D01*
X0060093Y0067709D02*
X0058885Y0067709D01*
X0058885Y0068856D02*
X0060093Y0068856D01*
X0060093Y0070003D02*
X0058885Y0070003D01*
X0058885Y0071150D02*
X0060093Y0071150D01*
X0060093Y0072297D02*
X0058885Y0072297D01*
X0025093Y0072336D02*
X0025093Y0066562D01*
X0023885Y0066562D01*
X0023885Y0072336D01*
X0025093Y0072336D01*
X0025093Y0067709D02*
X0023885Y0067709D01*
X0023885Y0068856D02*
X0025093Y0068856D01*
X0025093Y0070003D02*
X0023885Y0070003D01*
X0023885Y0071150D02*
X0025093Y0071150D01*
X0025093Y0072297D02*
X0023885Y0072297D01*
X0022534Y0072336D02*
X0022534Y0066562D01*
X0021326Y0066562D01*
X0021326Y0072336D01*
X0022534Y0072336D01*
X0022534Y0067709D02*
X0021326Y0067709D01*
X0021326Y0068856D02*
X0022534Y0068856D01*
X0022534Y0070003D02*
X0021326Y0070003D01*
X0021326Y0071150D02*
X0022534Y0071150D01*
X0022534Y0072297D02*
X0021326Y0072297D01*
X0019974Y0072336D02*
X0019974Y0066562D01*
X0018766Y0066562D01*
X0018766Y0072336D01*
X0019974Y0072336D01*
X0019974Y0067709D02*
X0018766Y0067709D01*
X0018766Y0068856D02*
X0019974Y0068856D01*
X0019974Y0070003D02*
X0018766Y0070003D01*
X0018766Y0071150D02*
X0019974Y0071150D01*
X0019974Y0072297D02*
X0018766Y0072297D01*
X0017415Y0072336D02*
X0017415Y0066562D01*
X0016207Y0066562D01*
X0016207Y0072336D01*
X0017415Y0072336D01*
X0017415Y0067709D02*
X0016207Y0067709D01*
X0016207Y0068856D02*
X0017415Y0068856D01*
X0017415Y0070003D02*
X0016207Y0070003D01*
X0016207Y0071150D02*
X0017415Y0071150D01*
X0017415Y0072297D02*
X0016207Y0072297D01*
X0017415Y0049738D02*
X0017415Y0043964D01*
X0016207Y0043964D01*
X0016207Y0049738D01*
X0017415Y0049738D01*
X0017415Y0045111D02*
X0016207Y0045111D01*
X0016207Y0046258D02*
X0017415Y0046258D01*
X0017415Y0047405D02*
X0016207Y0047405D01*
X0016207Y0048552D02*
X0017415Y0048552D01*
X0017415Y0049699D02*
X0016207Y0049699D01*
X0019974Y0049738D02*
X0019974Y0043964D01*
X0018766Y0043964D01*
X0018766Y0049738D01*
X0019974Y0049738D01*
X0019974Y0045111D02*
X0018766Y0045111D01*
X0018766Y0046258D02*
X0019974Y0046258D01*
X0019974Y0047405D02*
X0018766Y0047405D01*
X0018766Y0048552D02*
X0019974Y0048552D01*
X0019974Y0049699D02*
X0018766Y0049699D01*
X0022534Y0049738D02*
X0022534Y0043964D01*
X0021326Y0043964D01*
X0021326Y0049738D01*
X0022534Y0049738D01*
X0022534Y0045111D02*
X0021326Y0045111D01*
X0021326Y0046258D02*
X0022534Y0046258D01*
X0022534Y0047405D02*
X0021326Y0047405D01*
X0021326Y0048552D02*
X0022534Y0048552D01*
X0022534Y0049699D02*
X0021326Y0049699D01*
X0025093Y0049738D02*
X0025093Y0043964D01*
X0023885Y0043964D01*
X0023885Y0049738D01*
X0025093Y0049738D01*
X0025093Y0045111D02*
X0023885Y0045111D01*
X0023885Y0046258D02*
X0025093Y0046258D01*
X0025093Y0047405D02*
X0023885Y0047405D01*
X0023885Y0048552D02*
X0025093Y0048552D01*
X0025093Y0049699D02*
X0023885Y0049699D01*
D18*
X0130650Y0022050D02*
X0130650Y0014250D01*
X0150650Y0014250D02*
X0150650Y0022050D01*
X0195650Y0019250D02*
X0195650Y0027050D01*
X0215650Y0027050D02*
X0215650Y0019250D01*
D19*
X0035650Y0020650D03*
X0070650Y0020650D03*
X0105650Y0020650D03*
D20*
X0109240Y0131601D02*
X0116510Y0131601D01*
X0116510Y0129699D01*
X0109240Y0129699D01*
X0109240Y0131601D01*
X0109240Y0130904D02*
X0116510Y0130904D01*
X0116510Y0136601D02*
X0109240Y0136601D01*
X0116510Y0136601D02*
X0116510Y0134699D01*
X0109240Y0134699D01*
X0109240Y0136601D01*
X0109240Y0135904D02*
X0116510Y0135904D01*
X0116510Y0141601D02*
X0109240Y0141601D01*
X0116510Y0141601D02*
X0116510Y0139699D01*
X0109240Y0139699D01*
X0109240Y0141601D01*
X0109240Y0140904D02*
X0116510Y0140904D01*
X0116510Y0146601D02*
X0109240Y0146601D01*
X0116510Y0146601D02*
X0116510Y0144699D01*
X0109240Y0144699D01*
X0109240Y0146601D01*
X0109240Y0145904D02*
X0116510Y0145904D01*
X0097060Y0146601D02*
X0089790Y0146601D01*
X0097060Y0146601D02*
X0097060Y0144699D01*
X0089790Y0144699D01*
X0089790Y0146601D01*
X0089790Y0145904D02*
X0097060Y0145904D01*
X0097060Y0141601D02*
X0089790Y0141601D01*
X0097060Y0141601D02*
X0097060Y0139699D01*
X0089790Y0139699D01*
X0089790Y0141601D01*
X0089790Y0140904D02*
X0097060Y0140904D01*
X0097060Y0136601D02*
X0089790Y0136601D01*
X0097060Y0136601D02*
X0097060Y0134699D01*
X0089790Y0134699D01*
X0089790Y0136601D01*
X0089790Y0135904D02*
X0097060Y0135904D01*
X0097060Y0131601D02*
X0089790Y0131601D01*
X0097060Y0131601D02*
X0097060Y0129699D01*
X0089790Y0129699D01*
X0089790Y0131601D01*
X0089790Y0130904D02*
X0097060Y0130904D01*
X0081510Y0131601D02*
X0074240Y0131601D01*
X0081510Y0131601D02*
X0081510Y0129699D01*
X0074240Y0129699D01*
X0074240Y0131601D01*
X0074240Y0130904D02*
X0081510Y0130904D01*
X0081510Y0136601D02*
X0074240Y0136601D01*
X0081510Y0136601D02*
X0081510Y0134699D01*
X0074240Y0134699D01*
X0074240Y0136601D01*
X0074240Y0135904D02*
X0081510Y0135904D01*
X0081510Y0141601D02*
X0074240Y0141601D01*
X0081510Y0141601D02*
X0081510Y0139699D01*
X0074240Y0139699D01*
X0074240Y0141601D01*
X0074240Y0140904D02*
X0081510Y0140904D01*
X0081510Y0146601D02*
X0074240Y0146601D01*
X0081510Y0146601D02*
X0081510Y0144699D01*
X0074240Y0144699D01*
X0074240Y0146601D01*
X0074240Y0145904D02*
X0081510Y0145904D01*
X0062060Y0146601D02*
X0054790Y0146601D01*
X0062060Y0146601D02*
X0062060Y0144699D01*
X0054790Y0144699D01*
X0054790Y0146601D01*
X0054790Y0145904D02*
X0062060Y0145904D01*
X0062060Y0141601D02*
X0054790Y0141601D01*
X0062060Y0141601D02*
X0062060Y0139699D01*
X0054790Y0139699D01*
X0054790Y0141601D01*
X0054790Y0140904D02*
X0062060Y0140904D01*
X0062060Y0136601D02*
X0054790Y0136601D01*
X0062060Y0136601D02*
X0062060Y0134699D01*
X0054790Y0134699D01*
X0054790Y0136601D01*
X0054790Y0135904D02*
X0062060Y0135904D01*
X0062060Y0131601D02*
X0054790Y0131601D01*
X0062060Y0131601D02*
X0062060Y0129699D01*
X0054790Y0129699D01*
X0054790Y0131601D01*
X0054790Y0130904D02*
X0062060Y0130904D01*
X0046510Y0131601D02*
X0039240Y0131601D01*
X0046510Y0131601D02*
X0046510Y0129699D01*
X0039240Y0129699D01*
X0039240Y0131601D01*
X0039240Y0130904D02*
X0046510Y0130904D01*
X0046510Y0136601D02*
X0039240Y0136601D01*
X0046510Y0136601D02*
X0046510Y0134699D01*
X0039240Y0134699D01*
X0039240Y0136601D01*
X0039240Y0135904D02*
X0046510Y0135904D01*
X0046510Y0141601D02*
X0039240Y0141601D01*
X0046510Y0141601D02*
X0046510Y0139699D01*
X0039240Y0139699D01*
X0039240Y0141601D01*
X0039240Y0140904D02*
X0046510Y0140904D01*
X0046510Y0146601D02*
X0039240Y0146601D01*
X0046510Y0146601D02*
X0046510Y0144699D01*
X0039240Y0144699D01*
X0039240Y0146601D01*
X0039240Y0145904D02*
X0046510Y0145904D01*
X0027060Y0146601D02*
X0019790Y0146601D01*
X0027060Y0146601D02*
X0027060Y0144699D01*
X0019790Y0144699D01*
X0019790Y0146601D01*
X0019790Y0145904D02*
X0027060Y0145904D01*
X0027060Y0141601D02*
X0019790Y0141601D01*
X0027060Y0141601D02*
X0027060Y0139699D01*
X0019790Y0139699D01*
X0019790Y0141601D01*
X0019790Y0140904D02*
X0027060Y0140904D01*
X0027060Y0136601D02*
X0019790Y0136601D01*
X0027060Y0136601D02*
X0027060Y0134699D01*
X0019790Y0134699D01*
X0019790Y0136601D01*
X0019790Y0135904D02*
X0027060Y0135904D01*
X0027060Y0131601D02*
X0019790Y0131601D01*
X0027060Y0131601D02*
X0027060Y0129699D01*
X0019790Y0129699D01*
X0019790Y0131601D01*
X0019790Y0130904D02*
X0027060Y0130904D01*
D21*
X0032569Y0115650D03*
X0041231Y0115650D03*
X0067569Y0115650D03*
X0076231Y0115650D03*
X0102569Y0115650D03*
X0111231Y0115650D03*
M02*
