G75*
%MOIN*%
%OFA0B0*%
%FSLAX25Y25*%
%IPPOS*%
%LPD*%
%AMOC8*
5,1,8,0,0,1.08239X$1,22.5*
%
%ADD10C,0.15000*%
%ADD11C,0.12000*%
%ADD12C,0.12611*%
%ADD13C,0.05950*%
%ADD14R,0.22060X0.25209*%
%ADD15R,0.04737X0.07099*%
%ADD16C,0.08600*%
D10*
X0035650Y0063150D02*
X0035650Y0075650D01*
X0026900Y0084400D01*
X0061900Y0084400D02*
X0070650Y0075650D01*
X0070650Y0060650D01*
X0096900Y0084400D02*
X0105650Y0075650D01*
X0105650Y0060650D01*
D11*
X0026900Y0031900D02*
X0026900Y0018150D01*
X0096900Y0018150D01*
X0096900Y0031900D01*
X0096900Y0018150D02*
X0130650Y0018150D01*
X0150650Y0016900D02*
X0150650Y0110650D01*
X0033150Y0110650D01*
X0061900Y0031900D02*
X0061900Y0020650D01*
D12*
X0020650Y0208150D03*
D13*
X0173075Y0203150D02*
X0178225Y0203150D01*
X0178225Y0193150D02*
X0173075Y0193150D01*
X0173075Y0183150D02*
X0178225Y0183150D01*
X0178225Y0173150D02*
X0173075Y0173150D01*
X0173075Y0163150D02*
X0178225Y0163150D01*
X0178225Y0153150D02*
X0173075Y0153150D01*
X0173075Y0143150D02*
X0178225Y0143150D01*
X0178225Y0133150D02*
X0173075Y0133150D01*
X0173075Y0123150D02*
X0178225Y0123150D01*
X0178225Y0113150D02*
X0173075Y0113150D01*
X0173075Y0103150D02*
X0178225Y0103150D01*
X0178225Y0093150D02*
X0173075Y0093150D01*
X0173075Y0083150D02*
X0178225Y0083150D01*
X0178225Y0073150D02*
X0173075Y0073150D01*
X0173075Y0063150D02*
X0178225Y0063150D01*
X0178225Y0053150D02*
X0173075Y0053150D01*
X0173075Y0043150D02*
X0178225Y0043150D01*
X0178225Y0033150D02*
X0173075Y0033150D01*
X0173075Y0023150D02*
X0178225Y0023150D01*
X0233075Y0023150D02*
X0238225Y0023150D01*
X0238225Y0033150D02*
X0233075Y0033150D01*
X0233075Y0043150D02*
X0238225Y0043150D01*
X0238225Y0053150D02*
X0233075Y0053150D01*
X0233075Y0063150D02*
X0238225Y0063150D01*
X0238225Y0073150D02*
X0233075Y0073150D01*
X0233075Y0083150D02*
X0238225Y0083150D01*
X0238225Y0093150D02*
X0233075Y0093150D01*
X0233075Y0103150D02*
X0238225Y0103150D01*
X0238225Y0113150D02*
X0233075Y0113150D01*
X0233075Y0123150D02*
X0238225Y0123150D01*
X0238225Y0133150D02*
X0233075Y0133150D01*
X0233075Y0143150D02*
X0238225Y0143150D01*
X0238225Y0153150D02*
X0233075Y0153150D01*
X0233075Y0163150D02*
X0238225Y0163150D01*
X0238225Y0173150D02*
X0233075Y0173150D01*
X0233075Y0183150D02*
X0238225Y0183150D01*
X0238225Y0193150D02*
X0233075Y0193150D01*
X0233075Y0203150D02*
X0238225Y0203150D01*
X0238225Y0213150D02*
X0233075Y0213150D01*
X0178225Y0213150D02*
X0173075Y0213150D01*
D14*
X0105650Y0112993D03*
X0070650Y0112993D03*
X0035650Y0112993D03*
X0035650Y0060493D03*
X0070650Y0060493D03*
X0105650Y0060493D03*
D15*
X0096674Y0084252D03*
X0079626Y0084252D03*
X0061674Y0084252D03*
X0044626Y0084252D03*
X0026674Y0084252D03*
X0026674Y0031752D03*
X0044626Y0031752D03*
X0061674Y0031752D03*
X0079626Y0031752D03*
X0096674Y0031752D03*
X0114626Y0031752D03*
X0114626Y0084252D03*
D16*
X0130650Y0022050D02*
X0130650Y0014250D01*
X0150650Y0014250D02*
X0150650Y0022050D01*
X0195650Y0019250D02*
X0195650Y0027050D01*
X0215650Y0027050D02*
X0215650Y0019250D01*
M02*
