G75*
%MOIN*%
%OFA0B0*%
%FSLAX25Y25*%
%IPPOS*%
%LPD*%
%AMOC8*
5,1,8,0,0,1.08239X$1,22.5*
%
%ADD10C,0.05150*%
%ADD11R,0.21260X0.24409*%
%ADD12R,0.03937X0.06299*%
%ADD13C,0.07800*%
%ADD14C,0.12000*%
%ADD15C,0.00600*%
%ADD16C,0.02978*%
%ADD17C,0.15000*%
%ADD18C,0.02000*%
%ADD19C,0.01000*%
%ADD20C,0.01800*%
D10*
X0173075Y0023150D02*
X0178225Y0023150D01*
X0178225Y0033150D02*
X0173075Y0033150D01*
X0173075Y0043150D02*
X0178225Y0043150D01*
X0178225Y0053150D02*
X0173075Y0053150D01*
X0173075Y0063150D02*
X0178225Y0063150D01*
X0178225Y0073150D02*
X0173075Y0073150D01*
X0173075Y0083150D02*
X0178225Y0083150D01*
X0178225Y0093150D02*
X0173075Y0093150D01*
X0173075Y0103150D02*
X0178225Y0103150D01*
X0178225Y0113150D02*
X0173075Y0113150D01*
X0173075Y0123150D02*
X0178225Y0123150D01*
X0178225Y0133150D02*
X0173075Y0133150D01*
X0173075Y0143150D02*
X0178225Y0143150D01*
X0178225Y0153150D02*
X0173075Y0153150D01*
X0173075Y0163150D02*
X0178225Y0163150D01*
X0178225Y0173150D02*
X0173075Y0173150D01*
X0173075Y0183150D02*
X0178225Y0183150D01*
X0178225Y0193150D02*
X0173075Y0193150D01*
X0173075Y0203150D02*
X0178225Y0203150D01*
X0178225Y0213150D02*
X0173075Y0213150D01*
X0233075Y0213150D02*
X0238225Y0213150D01*
X0238225Y0203150D02*
X0233075Y0203150D01*
X0233075Y0193150D02*
X0238225Y0193150D01*
X0238225Y0183150D02*
X0233075Y0183150D01*
X0233075Y0173150D02*
X0238225Y0173150D01*
X0238225Y0163150D02*
X0233075Y0163150D01*
X0233075Y0153150D02*
X0238225Y0153150D01*
X0238225Y0143150D02*
X0233075Y0143150D01*
X0233075Y0133150D02*
X0238225Y0133150D01*
X0238225Y0123150D02*
X0233075Y0123150D01*
X0233075Y0113150D02*
X0238225Y0113150D01*
X0238225Y0103150D02*
X0233075Y0103150D01*
X0233075Y0093150D02*
X0238225Y0093150D01*
X0238225Y0083150D02*
X0233075Y0083150D01*
X0233075Y0073150D02*
X0238225Y0073150D01*
X0238225Y0063150D02*
X0233075Y0063150D01*
X0233075Y0053150D02*
X0238225Y0053150D01*
X0238225Y0043150D02*
X0233075Y0043150D01*
X0233075Y0033150D02*
X0238225Y0033150D01*
X0238225Y0023150D02*
X0233075Y0023150D01*
D11*
X0105650Y0060493D03*
X0070650Y0060493D03*
X0035650Y0060493D03*
X0035650Y0112993D03*
X0070650Y0112993D03*
X0105650Y0112993D03*
D12*
X0096674Y0084252D03*
X0079626Y0084252D03*
X0061674Y0084252D03*
X0044626Y0084252D03*
X0026674Y0084252D03*
X0026674Y0031752D03*
X0044626Y0031752D03*
X0061674Y0031752D03*
X0079626Y0031752D03*
X0096674Y0031752D03*
X0114626Y0031752D03*
X0114626Y0084252D03*
D13*
X0130650Y0022050D02*
X0130650Y0014250D01*
X0150650Y0014250D02*
X0150650Y0022050D01*
X0195650Y0019250D02*
X0195650Y0027050D01*
X0215650Y0027050D02*
X0215650Y0019250D01*
D14*
X0150650Y0018150D02*
X0150650Y0110650D01*
X0107250Y0110650D01*
X0074400Y0110650D01*
X0074400Y0108150D01*
X0074400Y0110650D02*
X0069400Y0110650D01*
X0069400Y0108150D01*
X0068150Y0108150D01*
X0068150Y0110650D01*
X0069400Y0110650D01*
X0070650Y0110650D02*
X0070650Y0112993D01*
X0070650Y0110650D02*
X0035850Y0110650D01*
X0034400Y0110650D01*
X0026674Y0031752D02*
X0026674Y0018376D01*
X0026900Y0018150D01*
X0066900Y0018150D01*
X0061674Y0023376D01*
X0061674Y0031752D01*
X0066900Y0018150D02*
X0100650Y0018150D01*
X0096674Y0022126D01*
X0096674Y0031752D01*
X0100650Y0018150D02*
X0130650Y0018150D01*
D15*
X0096674Y0031752D02*
X0092850Y0036350D01*
X0089850Y0039350D01*
X0089850Y0058550D01*
X0089250Y0061550D02*
X0082650Y0054950D01*
X0082650Y0048350D01*
X0081450Y0047150D01*
X0059850Y0047150D01*
X0056850Y0050150D01*
X0056850Y0059150D01*
X0055650Y0060350D01*
X0053250Y0060350D01*
X0048450Y0055550D01*
X0048450Y0047150D01*
X0047250Y0045950D01*
X0023850Y0045950D01*
X0014250Y0055550D01*
X0014250Y0117950D01*
X0046050Y0149750D01*
X0169050Y0149750D01*
X0175650Y0143150D01*
X0177450Y0137150D02*
X0148650Y0137150D01*
X0144450Y0136550D02*
X0172650Y0108350D01*
X0210450Y0108350D01*
X0235650Y0083150D01*
X0235650Y0063350D02*
X0235650Y0063150D01*
X0235650Y0063350D02*
X0191850Y0107150D01*
X0172050Y0107150D01*
X0145050Y0134150D01*
X0143250Y0134150D01*
X0142050Y0134150D01*
X0143250Y0134150D02*
X0139050Y0129950D01*
X0124050Y0129950D01*
X0121050Y0132950D01*
X0085050Y0132950D01*
X0082650Y0135350D01*
X0050850Y0135350D01*
X0045450Y0147350D02*
X0127650Y0147350D01*
X0121650Y0143750D02*
X0085050Y0143750D01*
X0083850Y0142550D01*
X0085650Y0135950D02*
X0117450Y0135950D01*
X0119250Y0137750D01*
X0137850Y0137750D01*
X0139050Y0136550D01*
X0144450Y0136550D01*
X0137850Y0132350D02*
X0123450Y0132350D01*
X0120450Y0135350D01*
X0124650Y0140750D02*
X0106650Y0140750D01*
X0106900Y0116150D02*
X0107250Y0116150D01*
X0107250Y0110650D01*
X0105650Y0112993D02*
X0107250Y0116150D01*
X0089250Y0090950D02*
X0067050Y0090950D01*
X0065250Y0092750D01*
X0057450Y0092750D01*
X0050250Y0085550D01*
X0041850Y0093950D01*
X0025050Y0093950D01*
X0025050Y0099350D01*
X0023850Y0100550D01*
X0023850Y0125750D01*
X0045450Y0147350D01*
X0071900Y0119400D02*
X0072450Y0118550D01*
X0070650Y0112993D01*
X0070650Y0113150D01*
X0074400Y0110650D01*
X0079626Y0084252D02*
X0079650Y0083750D01*
X0082650Y0080750D01*
X0082650Y0078950D01*
X0089250Y0074750D02*
X0089250Y0061550D01*
X0105450Y0075350D02*
X0105650Y0075650D01*
X0105450Y0075350D02*
X0105650Y0075276D01*
X0115050Y0083750D02*
X0114626Y0084252D01*
X0115050Y0083750D02*
X0118050Y0080750D01*
X0118050Y0078950D01*
X0095250Y0037550D02*
X0096674Y0031752D01*
X0061674Y0031752D02*
X0060450Y0037550D01*
X0059850Y0038150D01*
X0054450Y0043550D01*
X0054450Y0057950D01*
X0052050Y0060950D02*
X0047250Y0056150D01*
X0047250Y0047750D01*
X0046650Y0047150D01*
X0024450Y0047150D01*
X0016650Y0054950D01*
X0016650Y0102950D01*
X0035850Y0110650D02*
X0035850Y0112550D01*
X0035650Y0112993D01*
X0035250Y0116150D01*
X0035075Y0116325D01*
X0044626Y0084252D02*
X0044850Y0083750D01*
X0046650Y0081950D01*
X0046650Y0078950D01*
X0053250Y0075950D02*
X0053250Y0082550D01*
X0050250Y0085550D01*
X0035650Y0075276D02*
X0034650Y0076550D01*
X0034400Y0076900D01*
X0052050Y0062750D02*
X0052050Y0060950D01*
X0069450Y0076550D02*
X0069400Y0076900D01*
X0069450Y0076550D02*
X0070650Y0075276D01*
X0023850Y0036950D02*
X0026674Y0031752D01*
X0023850Y0036950D02*
X0022650Y0038150D01*
X0169050Y0039950D02*
X0175650Y0033350D01*
X0175650Y0033150D01*
X0177450Y0137150D02*
X0203250Y0162950D01*
X0235650Y0162950D01*
X0235650Y0163150D01*
D16*
X0148650Y0137150D03*
X0142050Y0134150D03*
X0139050Y0136550D03*
X0137850Y0132350D03*
X0124650Y0140750D03*
X0121650Y0143750D03*
X0127650Y0147350D03*
X0120450Y0135350D03*
X0106900Y0130346D03*
X0106650Y0140750D03*
X0085650Y0135950D03*
X0083850Y0142550D03*
X0071900Y0129400D03*
X0050850Y0135350D03*
X0036900Y0130346D03*
X0016650Y0102950D03*
X0025050Y0093950D03*
X0034400Y0084400D03*
X0034400Y0080650D03*
X0038150Y0080650D03*
X0038150Y0076900D03*
X0034400Y0076900D03*
X0030650Y0076900D03*
X0026900Y0076900D03*
X0023150Y0079400D03*
X0030950Y0080550D03*
X0046650Y0078950D03*
X0053250Y0075950D03*
X0058150Y0079400D03*
X0061900Y0076900D03*
X0065650Y0076900D03*
X0069400Y0076900D03*
X0069400Y0080650D03*
X0065950Y0080550D03*
X0069400Y0084400D03*
X0073150Y0080650D03*
X0073150Y0076900D03*
X0082650Y0078950D03*
X0089250Y0074750D03*
X0094400Y0078150D03*
X0098150Y0075650D03*
X0101900Y0075650D03*
X0105650Y0075650D03*
X0105650Y0079400D03*
X0102200Y0079300D03*
X0105650Y0083150D03*
X0109400Y0079400D03*
X0109400Y0075650D03*
X0118050Y0078950D03*
X0089250Y0090950D03*
X0052050Y0062750D03*
X0054450Y0057950D03*
X0059850Y0038150D03*
X0050650Y0031900D03*
X0022650Y0038150D03*
X0085650Y0031900D03*
X0095250Y0037550D03*
X0089850Y0058550D03*
X0119400Y0031900D03*
X0169050Y0039950D03*
D17*
X0105650Y0060493D02*
X0105650Y0075276D01*
X0096674Y0084252D01*
X0070650Y0075276D02*
X0070650Y0060493D01*
X0070650Y0075276D02*
X0061674Y0084252D01*
X0035650Y0075276D02*
X0035650Y0060493D01*
X0035650Y0075276D02*
X0026674Y0084252D01*
D18*
X0034400Y0115650D02*
X0035075Y0116325D01*
X0036900Y0118150D01*
X0036900Y0130346D01*
X0071900Y0129400D02*
X0071900Y0119400D01*
X0070650Y0118150D01*
X0106900Y0116150D02*
X0106900Y0114400D01*
X0106900Y0116150D02*
X0106900Y0130346D01*
D19*
X0114626Y0031752D02*
X0119252Y0031752D01*
X0119400Y0031900D01*
X0085650Y0031900D02*
X0085502Y0031752D01*
X0079626Y0031752D01*
X0050650Y0031900D02*
X0050502Y0031752D01*
X0044626Y0031752D01*
D20*
X0006035Y0005976D02*
X0005025Y0007326D01*
X0004217Y0008805D01*
X0003628Y0010383D01*
X0003270Y0012030D01*
X0003150Y0013711D01*
X0003150Y0224400D01*
X0003181Y0224122D01*
X0003274Y0223858D01*
X0003423Y0223621D01*
X0003621Y0223423D01*
X0003858Y0223274D01*
X0004122Y0223181D01*
X0004400Y0223150D01*
X0011412Y0223150D01*
X0009700Y0222162D01*
X0006589Y0219051D01*
X0006589Y0219051D01*
X0004389Y0215240D01*
X0003250Y0210990D01*
X0003250Y0015261D01*
X0004389Y0011011D01*
X0006589Y0007200D01*
X0009700Y0004089D01*
X0009700Y0004089D01*
X0009700Y0004089D01*
X0013284Y0002020D01*
X0013280Y0002020D01*
X0011633Y0002378D01*
X0010055Y0002967D01*
X0008576Y0003775D01*
X0007226Y0004785D01*
X0006035Y0005976D01*
X0005754Y0006351D02*
X0007438Y0006351D01*
X0006589Y0007200D02*
X0006589Y0007200D01*
X0006041Y0008150D02*
X0004575Y0008150D01*
X0005002Y0009949D02*
X0003791Y0009949D01*
X0004192Y0011747D02*
X0003332Y0011747D01*
X0003162Y0013546D02*
X0003710Y0013546D01*
X0003250Y0015344D02*
X0003150Y0015344D01*
X0003150Y0017143D02*
X0003250Y0017143D01*
X0003250Y0018941D02*
X0003150Y0018941D01*
X0003150Y0020740D02*
X0003250Y0020740D01*
X0003250Y0022538D02*
X0003150Y0022538D01*
X0003150Y0024337D02*
X0003250Y0024337D01*
X0003250Y0026135D02*
X0003150Y0026135D01*
X0003150Y0027934D02*
X0003250Y0027934D01*
X0003250Y0029732D02*
X0003150Y0029732D01*
X0003150Y0031531D02*
X0003250Y0031531D01*
X0003250Y0033329D02*
X0003150Y0033329D01*
X0003150Y0035128D02*
X0003250Y0035128D01*
X0003250Y0036926D02*
X0003150Y0036926D01*
X0003150Y0038725D02*
X0003250Y0038725D01*
X0003250Y0040523D02*
X0003150Y0040523D01*
X0003150Y0042322D02*
X0003250Y0042322D01*
X0003250Y0044120D02*
X0003150Y0044120D01*
X0003150Y0045919D02*
X0003250Y0045919D01*
X0003250Y0047717D02*
X0003150Y0047717D01*
X0003150Y0049516D02*
X0003250Y0049516D01*
X0003250Y0051314D02*
X0003150Y0051314D01*
X0003150Y0053113D02*
X0003250Y0053113D01*
X0003250Y0054911D02*
X0003150Y0054911D01*
X0003150Y0056710D02*
X0003250Y0056710D01*
X0003250Y0058508D02*
X0003150Y0058508D01*
X0003150Y0060307D02*
X0003250Y0060307D01*
X0003250Y0062105D02*
X0003150Y0062105D01*
X0003150Y0063904D02*
X0003250Y0063904D01*
X0003250Y0065702D02*
X0003150Y0065702D01*
X0003150Y0067501D02*
X0003250Y0067501D01*
X0003250Y0069299D02*
X0003150Y0069299D01*
X0003150Y0071098D02*
X0003250Y0071098D01*
X0003250Y0072896D02*
X0003150Y0072896D01*
X0003150Y0074695D02*
X0003250Y0074695D01*
X0003250Y0076493D02*
X0003150Y0076493D01*
X0003150Y0078292D02*
X0003250Y0078292D01*
X0003250Y0080090D02*
X0003150Y0080090D01*
X0003150Y0081889D02*
X0003250Y0081889D01*
X0003250Y0083687D02*
X0003150Y0083687D01*
X0003150Y0085486D02*
X0003250Y0085486D01*
X0003250Y0087284D02*
X0003150Y0087284D01*
X0003150Y0089083D02*
X0003250Y0089083D01*
X0003250Y0090882D02*
X0003150Y0090882D01*
X0003150Y0092680D02*
X0003250Y0092680D01*
X0003250Y0094479D02*
X0003150Y0094479D01*
X0003150Y0096277D02*
X0003250Y0096277D01*
X0003250Y0098076D02*
X0003150Y0098076D01*
X0003150Y0099874D02*
X0003250Y0099874D01*
X0003250Y0101673D02*
X0003150Y0101673D01*
X0003150Y0103471D02*
X0003250Y0103471D01*
X0003250Y0105270D02*
X0003150Y0105270D01*
X0003150Y0107068D02*
X0003250Y0107068D01*
X0003250Y0108867D02*
X0003150Y0108867D01*
X0003150Y0110665D02*
X0003250Y0110665D01*
X0003250Y0112464D02*
X0003150Y0112464D01*
X0003150Y0114262D02*
X0003250Y0114262D01*
X0003250Y0116061D02*
X0003150Y0116061D01*
X0003150Y0117859D02*
X0003250Y0117859D01*
X0003250Y0119658D02*
X0003150Y0119658D01*
X0003150Y0121456D02*
X0003250Y0121456D01*
X0003250Y0123255D02*
X0003150Y0123255D01*
X0003150Y0125053D02*
X0003250Y0125053D01*
X0003250Y0126852D02*
X0003150Y0126852D01*
X0003150Y0128650D02*
X0003250Y0128650D01*
X0003250Y0130449D02*
X0003150Y0130449D01*
X0003150Y0132247D02*
X0003250Y0132247D01*
X0003250Y0134046D02*
X0003150Y0134046D01*
X0003150Y0135844D02*
X0003250Y0135844D01*
X0003250Y0137643D02*
X0003150Y0137643D01*
X0003150Y0139441D02*
X0003250Y0139441D01*
X0003250Y0141240D02*
X0003150Y0141240D01*
X0003150Y0143038D02*
X0003250Y0143038D01*
X0003250Y0144837D02*
X0003150Y0144837D01*
X0003150Y0146635D02*
X0003250Y0146635D01*
X0003250Y0148434D02*
X0003150Y0148434D01*
X0003150Y0150232D02*
X0003250Y0150232D01*
X0003250Y0152031D02*
X0003150Y0152031D01*
X0003150Y0153829D02*
X0003250Y0153829D01*
X0003250Y0155628D02*
X0003150Y0155628D01*
X0003150Y0157426D02*
X0003250Y0157426D01*
X0003250Y0159225D02*
X0003150Y0159225D01*
X0003150Y0161023D02*
X0003250Y0161023D01*
X0003250Y0162822D02*
X0003150Y0162822D01*
X0003150Y0164620D02*
X0003250Y0164620D01*
X0003250Y0166419D02*
X0003150Y0166419D01*
X0003150Y0168218D02*
X0003250Y0168218D01*
X0003250Y0170016D02*
X0003150Y0170016D01*
X0003150Y0171815D02*
X0003250Y0171815D01*
X0003250Y0173613D02*
X0003150Y0173613D01*
X0003150Y0175412D02*
X0003250Y0175412D01*
X0003250Y0177210D02*
X0003150Y0177210D01*
X0003150Y0179009D02*
X0003250Y0179009D01*
X0003250Y0180807D02*
X0003150Y0180807D01*
X0003150Y0182606D02*
X0003250Y0182606D01*
X0003250Y0184404D02*
X0003150Y0184404D01*
X0003150Y0186203D02*
X0003250Y0186203D01*
X0003250Y0188001D02*
X0003150Y0188001D01*
X0003150Y0189800D02*
X0003250Y0189800D01*
X0003250Y0191598D02*
X0003150Y0191598D01*
X0003150Y0193397D02*
X0003250Y0193397D01*
X0003250Y0195195D02*
X0003150Y0195195D01*
X0003150Y0196994D02*
X0003250Y0196994D01*
X0003250Y0198792D02*
X0003150Y0198792D01*
X0003150Y0200591D02*
X0003250Y0200591D01*
X0003250Y0202389D02*
X0003150Y0202389D01*
X0003150Y0204188D02*
X0003250Y0204188D01*
X0003250Y0205986D02*
X0003150Y0205986D01*
X0003150Y0207785D02*
X0003250Y0207785D01*
X0003250Y0209583D02*
X0003150Y0209583D01*
X0003150Y0211382D02*
X0003355Y0211382D01*
X0003150Y0213180D02*
X0003837Y0213180D01*
X0004319Y0214979D02*
X0003150Y0214979D01*
X0003150Y0216777D02*
X0005276Y0216777D01*
X0006315Y0218576D02*
X0003150Y0218576D01*
X0003150Y0220374D02*
X0007913Y0220374D01*
X0009700Y0222162D02*
X0009700Y0222162D01*
X0009719Y0222173D02*
X0003150Y0222173D01*
X0003150Y0223971D02*
X0003234Y0223971D01*
X0028380Y0215701D02*
X0169863Y0215701D01*
X0169621Y0215458D01*
X0169000Y0213961D01*
X0169000Y0212339D01*
X0169621Y0210842D01*
X0170767Y0209696D01*
X0172265Y0209075D01*
X0179035Y0209075D01*
X0180533Y0209696D01*
X0181679Y0210842D01*
X0182300Y0212339D01*
X0182300Y0213961D01*
X0181679Y0215458D01*
X0181437Y0215701D01*
X0229863Y0215701D01*
X0229621Y0215458D01*
X0229000Y0213961D01*
X0229000Y0212339D01*
X0229621Y0210842D01*
X0230767Y0209696D01*
X0232265Y0209075D01*
X0239035Y0209075D01*
X0240533Y0209696D01*
X0241679Y0210842D01*
X0242300Y0212339D01*
X0242300Y0213961D01*
X0241920Y0214877D01*
X0242967Y0214273D01*
X0244243Y0212997D01*
X0245145Y0211434D01*
X0245612Y0209692D01*
X0245671Y0208790D01*
X0245671Y0017461D01*
X0245612Y0016559D01*
X0245145Y0014816D01*
X0244243Y0013254D01*
X0242967Y0011978D01*
X0241405Y0011076D01*
X0239662Y0010609D01*
X0238760Y0010550D01*
X0154587Y0010550D01*
X0155228Y0011191D01*
X0155886Y0012779D01*
X0157008Y0013902D01*
X0158150Y0016658D01*
X0158150Y0112142D01*
X0157008Y0114898D01*
X0154898Y0117008D01*
X0152142Y0118150D01*
X0117780Y0118150D01*
X0117780Y0125819D01*
X0116901Y0126697D01*
X0109400Y0126697D01*
X0109400Y0128619D01*
X0109434Y0128653D01*
X0109889Y0129751D01*
X0109889Y0130940D01*
X0109802Y0131150D01*
X0120304Y0131150D01*
X0122250Y0129204D01*
X0123304Y0128150D01*
X0139796Y0128150D01*
X0142921Y0131276D01*
X0143743Y0131616D01*
X0144391Y0132264D01*
X0170250Y0106404D01*
X0170408Y0106246D01*
X0169621Y0105458D01*
X0169000Y0103961D01*
X0169000Y0102339D01*
X0169621Y0100842D01*
X0170767Y0099696D01*
X0172265Y0099075D01*
X0179035Y0099075D01*
X0180533Y0099696D01*
X0181679Y0100842D01*
X0182300Y0102339D01*
X0182300Y0103961D01*
X0181724Y0105350D01*
X0191104Y0105350D01*
X0230308Y0066146D01*
X0229621Y0065458D01*
X0229000Y0063961D01*
X0229000Y0062339D01*
X0229621Y0060842D01*
X0230767Y0059696D01*
X0232265Y0059075D01*
X0239035Y0059075D01*
X0240533Y0059696D01*
X0241679Y0060842D01*
X0242300Y0062339D01*
X0242300Y0063961D01*
X0241679Y0065458D01*
X0240533Y0066604D01*
X0239035Y0067225D01*
X0234321Y0067225D01*
X0232470Y0069075D01*
X0239035Y0069075D01*
X0240533Y0069696D01*
X0241679Y0070842D01*
X0242300Y0072339D01*
X0242300Y0073961D01*
X0241679Y0075458D01*
X0240533Y0076604D01*
X0239035Y0077225D01*
X0232265Y0077225D01*
X0230767Y0076604D01*
X0229621Y0075458D01*
X0229000Y0073961D01*
X0229000Y0072545D01*
X0194996Y0106550D01*
X0209704Y0106550D01*
X0230208Y0086046D01*
X0229621Y0085458D01*
X0229000Y0083961D01*
X0229000Y0082339D01*
X0229621Y0080842D01*
X0230767Y0079696D01*
X0232265Y0079075D01*
X0239035Y0079075D01*
X0240533Y0079696D01*
X0241679Y0080842D01*
X0242300Y0082339D01*
X0242300Y0083961D01*
X0241679Y0085458D01*
X0240533Y0086604D01*
X0239035Y0087225D01*
X0234121Y0087225D01*
X0232270Y0089075D01*
X0239035Y0089075D01*
X0240533Y0089696D01*
X0241679Y0090842D01*
X0242300Y0092339D01*
X0242300Y0093961D01*
X0241679Y0095458D01*
X0240533Y0096604D01*
X0239035Y0097225D01*
X0232265Y0097225D01*
X0230767Y0096604D01*
X0229621Y0095458D01*
X0229000Y0093961D01*
X0229000Y0092345D01*
X0211196Y0110150D01*
X0180987Y0110150D01*
X0181679Y0110842D01*
X0182300Y0112339D01*
X0182300Y0113961D01*
X0181679Y0115458D01*
X0180533Y0116604D01*
X0179035Y0117225D01*
X0172265Y0117225D01*
X0170767Y0116604D01*
X0169621Y0115458D01*
X0169172Y0114374D01*
X0149344Y0134202D01*
X0150343Y0134616D01*
X0151077Y0135350D01*
X0169576Y0135350D01*
X0169000Y0133961D01*
X0169000Y0132339D01*
X0169621Y0130842D01*
X0170767Y0129696D01*
X0172265Y0129075D01*
X0179035Y0129075D01*
X0180533Y0129696D01*
X0181679Y0130842D01*
X0182300Y0132339D01*
X0182300Y0133961D01*
X0181679Y0135458D01*
X0180533Y0136604D01*
X0179767Y0136922D01*
X0203996Y0161150D01*
X0229493Y0161150D01*
X0229621Y0160842D01*
X0230767Y0159696D01*
X0232265Y0159075D01*
X0239035Y0159075D01*
X0240533Y0159696D01*
X0241679Y0160842D01*
X0242300Y0162339D01*
X0242300Y0163961D01*
X0241679Y0165458D01*
X0240533Y0166604D01*
X0239035Y0167225D01*
X0232265Y0167225D01*
X0230767Y0166604D01*
X0229621Y0165458D01*
X0229327Y0164750D01*
X0202504Y0164750D01*
X0182128Y0144374D01*
X0181679Y0145458D01*
X0180533Y0146604D01*
X0179035Y0147225D01*
X0174121Y0147225D01*
X0172270Y0149075D01*
X0179035Y0149075D01*
X0180533Y0149696D01*
X0181679Y0150842D01*
X0182300Y0152339D01*
X0182300Y0153961D01*
X0181679Y0155458D01*
X0180533Y0156604D01*
X0179035Y0157225D01*
X0172265Y0157225D01*
X0170767Y0156604D01*
X0169621Y0155458D01*
X0169000Y0153961D01*
X0169000Y0152339D01*
X0169327Y0151550D01*
X0045304Y0151550D01*
X0044250Y0150496D01*
X0013050Y0119296D01*
X0013050Y0200469D01*
X0014015Y0199503D01*
X0016479Y0198081D01*
X0019227Y0197344D01*
X0022073Y0197344D01*
X0024821Y0198081D01*
X0027285Y0199503D01*
X0029297Y0201515D01*
X0030719Y0203979D01*
X0031455Y0206727D01*
X0031455Y0209573D01*
X0030719Y0212321D01*
X0029297Y0214785D01*
X0028380Y0215701D01*
X0029102Y0214979D02*
X0169422Y0214979D01*
X0169000Y0213180D02*
X0030223Y0213180D01*
X0030971Y0211382D02*
X0169397Y0211382D01*
X0171038Y0209583D02*
X0031453Y0209583D01*
X0031455Y0207785D02*
X0245671Y0207785D01*
X0245671Y0205986D02*
X0241151Y0205986D01*
X0241679Y0205458D02*
X0240533Y0206604D01*
X0239035Y0207225D01*
X0232265Y0207225D01*
X0230767Y0206604D01*
X0229621Y0205458D01*
X0229000Y0203961D01*
X0229000Y0202339D01*
X0229621Y0200842D01*
X0230767Y0199696D01*
X0232265Y0199075D01*
X0239035Y0199075D01*
X0240533Y0199696D01*
X0241679Y0200842D01*
X0242300Y0202339D01*
X0242300Y0203961D01*
X0241679Y0205458D01*
X0242205Y0204188D02*
X0245671Y0204188D01*
X0245671Y0202389D02*
X0242300Y0202389D01*
X0241428Y0200591D02*
X0245671Y0200591D01*
X0245671Y0198792D02*
X0026053Y0198792D01*
X0028372Y0200591D02*
X0169872Y0200591D01*
X0169621Y0200842D02*
X0170767Y0199696D01*
X0172265Y0199075D01*
X0179035Y0199075D01*
X0180533Y0199696D01*
X0181679Y0200842D01*
X0182300Y0202339D01*
X0182300Y0203961D01*
X0181679Y0205458D01*
X0180533Y0206604D01*
X0179035Y0207225D01*
X0172265Y0207225D01*
X0170767Y0206604D01*
X0169621Y0205458D01*
X0169000Y0203961D01*
X0169000Y0202339D01*
X0169621Y0200842D01*
X0169000Y0202389D02*
X0029801Y0202389D01*
X0030775Y0204188D02*
X0169095Y0204188D01*
X0170149Y0205986D02*
X0031257Y0205986D01*
X0015247Y0198792D02*
X0013050Y0198792D01*
X0013050Y0196994D02*
X0171707Y0196994D01*
X0172265Y0197225D02*
X0170767Y0196604D01*
X0169621Y0195458D01*
X0169000Y0193961D01*
X0169000Y0192339D01*
X0169621Y0190842D01*
X0170767Y0189696D01*
X0172265Y0189075D01*
X0179035Y0189075D01*
X0180533Y0189696D01*
X0181679Y0190842D01*
X0182300Y0192339D01*
X0182300Y0193961D01*
X0181679Y0195458D01*
X0180533Y0196604D01*
X0179035Y0197225D01*
X0172265Y0197225D01*
X0169512Y0195195D02*
X0013050Y0195195D01*
X0013050Y0193397D02*
X0169000Y0193397D01*
X0169307Y0191598D02*
X0013050Y0191598D01*
X0013050Y0189800D02*
X0170663Y0189800D01*
X0172265Y0187225D02*
X0170767Y0186604D01*
X0169621Y0185458D01*
X0169000Y0183961D01*
X0169000Y0182339D01*
X0169621Y0180842D01*
X0170767Y0179696D01*
X0172265Y0179075D01*
X0179035Y0179075D01*
X0180533Y0179696D01*
X0181679Y0180842D01*
X0182300Y0182339D01*
X0182300Y0183961D01*
X0181679Y0185458D01*
X0180533Y0186604D01*
X0179035Y0187225D01*
X0172265Y0187225D01*
X0170365Y0186203D02*
X0013050Y0186203D01*
X0013050Y0188001D02*
X0245671Y0188001D01*
X0245671Y0186203D02*
X0240935Y0186203D01*
X0240533Y0186604D02*
X0239035Y0187225D01*
X0232265Y0187225D01*
X0230767Y0186604D01*
X0229621Y0185458D01*
X0229000Y0183961D01*
X0229000Y0182339D01*
X0229621Y0180842D01*
X0230767Y0179696D01*
X0232265Y0179075D01*
X0239035Y0179075D01*
X0240533Y0179696D01*
X0241679Y0180842D01*
X0242300Y0182339D01*
X0242300Y0183961D01*
X0241679Y0185458D01*
X0240533Y0186604D01*
X0242116Y0184404D02*
X0245671Y0184404D01*
X0245671Y0182606D02*
X0242300Y0182606D01*
X0241645Y0180807D02*
X0245671Y0180807D01*
X0245671Y0179009D02*
X0013050Y0179009D01*
X0013050Y0180807D02*
X0169655Y0180807D01*
X0169000Y0182606D02*
X0013050Y0182606D01*
X0013050Y0184404D02*
X0169184Y0184404D01*
X0172229Y0177210D02*
X0013050Y0177210D01*
X0013050Y0175412D02*
X0169601Y0175412D01*
X0169621Y0175458D02*
X0169000Y0173961D01*
X0169000Y0172339D01*
X0169621Y0170842D01*
X0170767Y0169696D01*
X0172265Y0169075D01*
X0179035Y0169075D01*
X0180533Y0169696D01*
X0181679Y0170842D01*
X0182300Y0172339D01*
X0182300Y0173961D01*
X0181679Y0175458D01*
X0180533Y0176604D01*
X0179035Y0177225D01*
X0172265Y0177225D01*
X0170767Y0176604D01*
X0169621Y0175458D01*
X0169000Y0173613D02*
X0013050Y0173613D01*
X0013050Y0171815D02*
X0169218Y0171815D01*
X0170447Y0170016D02*
X0013050Y0170016D01*
X0013050Y0168218D02*
X0245671Y0168218D01*
X0245671Y0170016D02*
X0240853Y0170016D01*
X0240533Y0169696D02*
X0241679Y0170842D01*
X0242300Y0172339D01*
X0242300Y0173961D01*
X0241679Y0175458D01*
X0240533Y0176604D01*
X0239035Y0177225D01*
X0232265Y0177225D01*
X0230767Y0176604D01*
X0229621Y0175458D01*
X0229000Y0173961D01*
X0229000Y0172339D01*
X0229621Y0170842D01*
X0230767Y0169696D01*
X0232265Y0169075D01*
X0239035Y0169075D01*
X0240533Y0169696D01*
X0242082Y0171815D02*
X0245671Y0171815D01*
X0245671Y0173613D02*
X0242300Y0173613D01*
X0241699Y0175412D02*
X0245671Y0175412D01*
X0245671Y0177210D02*
X0239071Y0177210D01*
X0232229Y0177210D02*
X0179071Y0177210D01*
X0181699Y0175412D02*
X0229601Y0175412D01*
X0229000Y0173613D02*
X0182300Y0173613D01*
X0182082Y0171815D02*
X0229218Y0171815D01*
X0230447Y0170016D02*
X0180853Y0170016D01*
X0179035Y0167225D02*
X0172265Y0167225D01*
X0170767Y0166604D01*
X0169621Y0165458D01*
X0169000Y0163961D01*
X0169000Y0162339D01*
X0169621Y0160842D01*
X0170767Y0159696D01*
X0172265Y0159075D01*
X0179035Y0159075D01*
X0180533Y0159696D01*
X0181679Y0160842D01*
X0182300Y0162339D01*
X0182300Y0163961D01*
X0181679Y0165458D01*
X0180533Y0166604D01*
X0179035Y0167225D01*
X0180718Y0166419D02*
X0230582Y0166419D01*
X0229545Y0161023D02*
X0203869Y0161023D01*
X0202071Y0159225D02*
X0231903Y0159225D01*
X0232265Y0157225D02*
X0230767Y0156604D01*
X0229621Y0155458D01*
X0229000Y0153961D01*
X0229000Y0152339D01*
X0229621Y0150842D01*
X0230767Y0149696D01*
X0232265Y0149075D01*
X0239035Y0149075D01*
X0240533Y0149696D01*
X0241679Y0150842D01*
X0242300Y0152339D01*
X0242300Y0153961D01*
X0241679Y0155458D01*
X0240533Y0156604D01*
X0239035Y0157225D01*
X0232265Y0157225D01*
X0229790Y0155628D02*
X0198474Y0155628D01*
X0200272Y0157426D02*
X0245671Y0157426D01*
X0245671Y0155628D02*
X0241509Y0155628D01*
X0242300Y0153829D02*
X0245671Y0153829D01*
X0245671Y0152031D02*
X0242172Y0152031D01*
X0241070Y0150232D02*
X0245671Y0150232D01*
X0245671Y0148434D02*
X0191279Y0148434D01*
X0189481Y0146635D02*
X0230842Y0146635D01*
X0230767Y0146604D02*
X0229621Y0145458D01*
X0229000Y0143961D01*
X0229000Y0142339D01*
X0229621Y0140842D01*
X0230767Y0139696D01*
X0232265Y0139075D01*
X0239035Y0139075D01*
X0240533Y0139696D01*
X0241679Y0140842D01*
X0242300Y0142339D01*
X0242300Y0143961D01*
X0241679Y0145458D01*
X0240533Y0146604D01*
X0239035Y0147225D01*
X0232265Y0147225D01*
X0230767Y0146604D01*
X0229363Y0144837D02*
X0187682Y0144837D01*
X0185884Y0143038D02*
X0229000Y0143038D01*
X0229456Y0141240D02*
X0184085Y0141240D01*
X0182287Y0139441D02*
X0231381Y0139441D01*
X0232265Y0137225D02*
X0230767Y0136604D01*
X0229621Y0135458D01*
X0229000Y0133961D01*
X0229000Y0132339D01*
X0229621Y0130842D01*
X0230767Y0129696D01*
X0232265Y0129075D01*
X0239035Y0129075D01*
X0240533Y0129696D01*
X0241679Y0130842D01*
X0242300Y0132339D01*
X0242300Y0133961D01*
X0241679Y0135458D01*
X0240533Y0136604D01*
X0239035Y0137225D01*
X0232265Y0137225D01*
X0230007Y0135844D02*
X0181293Y0135844D01*
X0180488Y0137643D02*
X0245671Y0137643D01*
X0245671Y0139441D02*
X0239919Y0139441D01*
X0241844Y0141240D02*
X0245671Y0141240D01*
X0245671Y0143038D02*
X0242300Y0143038D01*
X0241937Y0144837D02*
X0245671Y0144837D01*
X0245671Y0146635D02*
X0240458Y0146635D01*
X0241293Y0135844D02*
X0245671Y0135844D01*
X0245671Y0134046D02*
X0242264Y0134046D01*
X0242261Y0132247D02*
X0245671Y0132247D01*
X0245671Y0130449D02*
X0241286Y0130449D01*
X0239936Y0126852D02*
X0245671Y0126852D01*
X0245671Y0128650D02*
X0154895Y0128650D01*
X0153097Y0130449D02*
X0170014Y0130449D01*
X0169039Y0132247D02*
X0151298Y0132247D01*
X0149500Y0134046D02*
X0169036Y0134046D01*
X0171381Y0139441D02*
X0150586Y0139441D01*
X0150343Y0139684D02*
X0149245Y0140139D01*
X0148055Y0140139D01*
X0146957Y0139684D01*
X0146116Y0138843D01*
X0145702Y0137844D01*
X0145196Y0138350D01*
X0141477Y0138350D01*
X0140743Y0139084D01*
X0139645Y0139539D01*
X0138607Y0139539D01*
X0138596Y0139550D01*
X0127388Y0139550D01*
X0127639Y0140155D01*
X0127639Y0141345D01*
X0127184Y0142443D01*
X0126343Y0143284D01*
X0125245Y0143739D01*
X0124639Y0143739D01*
X0124639Y0144345D01*
X0124184Y0145443D01*
X0124077Y0145550D01*
X0125223Y0145550D01*
X0125957Y0144816D01*
X0127055Y0144361D01*
X0128245Y0144361D01*
X0129343Y0144816D01*
X0130184Y0145657D01*
X0130639Y0146755D01*
X0130639Y0147945D01*
X0130637Y0147950D01*
X0168304Y0147950D01*
X0170208Y0146046D01*
X0169621Y0145458D01*
X0169000Y0143961D01*
X0169000Y0142339D01*
X0169621Y0140842D01*
X0170767Y0139696D01*
X0172265Y0139075D01*
X0176830Y0139075D01*
X0176704Y0138950D01*
X0151077Y0138950D01*
X0150343Y0139684D01*
X0146714Y0139441D02*
X0139880Y0139441D01*
X0136063Y0135950D02*
X0123437Y0135950D01*
X0123439Y0135945D01*
X0123439Y0134907D01*
X0124196Y0134150D01*
X0135423Y0134150D01*
X0136157Y0134884D01*
X0136454Y0135007D01*
X0136063Y0135950D01*
X0136107Y0135844D02*
X0123439Y0135844D01*
X0117904Y0138950D02*
X0117450Y0138496D01*
X0116704Y0137750D01*
X0088077Y0137750D01*
X0087343Y0138484D01*
X0086245Y0138939D01*
X0085055Y0138939D01*
X0083957Y0138484D01*
X0083116Y0137643D01*
X0082912Y0137150D01*
X0053277Y0137150D01*
X0052543Y0137884D01*
X0051445Y0138339D01*
X0050255Y0138339D01*
X0049157Y0137884D01*
X0048316Y0137043D01*
X0047861Y0135945D01*
X0047861Y0134755D01*
X0048316Y0133657D01*
X0049157Y0132816D01*
X0050255Y0132361D01*
X0051445Y0132361D01*
X0052543Y0132816D01*
X0053277Y0133550D01*
X0081904Y0133550D01*
X0083250Y0132204D01*
X0084304Y0131150D01*
X0103998Y0131150D01*
X0103911Y0130940D01*
X0103911Y0129751D01*
X0104366Y0128653D01*
X0104400Y0128619D01*
X0104400Y0126697D01*
X0094399Y0126697D01*
X0093520Y0125819D01*
X0093520Y0118150D01*
X0082780Y0118150D01*
X0082780Y0125819D01*
X0081901Y0126697D01*
X0074400Y0126697D01*
X0074400Y0127673D01*
X0074434Y0127707D01*
X0074889Y0128805D01*
X0074889Y0129995D01*
X0074434Y0131093D01*
X0073593Y0131934D01*
X0072495Y0132389D01*
X0071305Y0132389D01*
X0070207Y0131934D01*
X0069366Y0131093D01*
X0068911Y0129995D01*
X0068911Y0128805D01*
X0069366Y0127707D01*
X0069400Y0127673D01*
X0069400Y0126697D01*
X0059399Y0126697D01*
X0058520Y0125819D01*
X0058520Y0118150D01*
X0047780Y0118150D01*
X0047780Y0125819D01*
X0046901Y0126697D01*
X0039400Y0126697D01*
X0039400Y0128619D01*
X0039434Y0128653D01*
X0039889Y0129751D01*
X0039889Y0130940D01*
X0039434Y0132039D01*
X0038593Y0132880D01*
X0037495Y0133335D01*
X0036305Y0133335D01*
X0035207Y0132880D01*
X0034366Y0132039D01*
X0033911Y0130940D01*
X0033911Y0129751D01*
X0034366Y0128653D01*
X0034400Y0128619D01*
X0034400Y0126697D01*
X0027343Y0126697D01*
X0046196Y0145550D01*
X0119223Y0145550D01*
X0119223Y0145550D01*
X0084304Y0145550D01*
X0084293Y0145539D01*
X0083255Y0145539D01*
X0082157Y0145084D01*
X0081316Y0144243D01*
X0080861Y0143145D01*
X0080861Y0141955D01*
X0081316Y0140857D01*
X0082157Y0140016D01*
X0083255Y0139561D01*
X0084445Y0139561D01*
X0085543Y0140016D01*
X0086384Y0140857D01*
X0086837Y0141950D01*
X0103912Y0141950D01*
X0103661Y0141345D01*
X0103661Y0140155D01*
X0104116Y0139057D01*
X0104957Y0138216D01*
X0106055Y0137761D01*
X0107245Y0137761D01*
X0108343Y0138216D01*
X0109077Y0138950D01*
X0117904Y0138950D01*
X0124435Y0144837D02*
X0125936Y0144837D01*
X0126589Y0143038D02*
X0169000Y0143038D01*
X0169363Y0144837D02*
X0129364Y0144837D01*
X0130589Y0146635D02*
X0169619Y0146635D01*
X0172912Y0148434D02*
X0186188Y0148434D01*
X0184390Y0146635D02*
X0180458Y0146635D01*
X0181937Y0144837D02*
X0182591Y0144837D01*
X0181070Y0150232D02*
X0187987Y0150232D01*
X0189785Y0152031D02*
X0182172Y0152031D01*
X0182300Y0153829D02*
X0191584Y0153829D01*
X0193382Y0155628D02*
X0181509Y0155628D01*
X0179397Y0159225D02*
X0196979Y0159225D01*
X0195181Y0157426D02*
X0013050Y0157426D01*
X0013050Y0155628D02*
X0169790Y0155628D01*
X0169000Y0153829D02*
X0013050Y0153829D01*
X0013050Y0152031D02*
X0169128Y0152031D01*
X0171903Y0159225D02*
X0013050Y0159225D01*
X0013050Y0161023D02*
X0169545Y0161023D01*
X0169000Y0162822D02*
X0013050Y0162822D01*
X0013050Y0164620D02*
X0169274Y0164620D01*
X0170582Y0166419D02*
X0013050Y0166419D01*
X0013050Y0150232D02*
X0043987Y0150232D01*
X0042188Y0148434D02*
X0013050Y0148434D01*
X0013050Y0146635D02*
X0040390Y0146635D01*
X0038591Y0144837D02*
X0013050Y0144837D01*
X0013050Y0143038D02*
X0036793Y0143038D01*
X0034994Y0141240D02*
X0013050Y0141240D01*
X0013050Y0139441D02*
X0033196Y0139441D01*
X0031397Y0137643D02*
X0013050Y0137643D01*
X0013050Y0135844D02*
X0029599Y0135844D01*
X0027800Y0134046D02*
X0013050Y0134046D01*
X0013050Y0132247D02*
X0026002Y0132247D01*
X0024203Y0130449D02*
X0013050Y0130449D01*
X0013050Y0128650D02*
X0022405Y0128650D01*
X0020606Y0126852D02*
X0013050Y0126852D01*
X0013050Y0125053D02*
X0018808Y0125053D01*
X0017009Y0123255D02*
X0013050Y0123255D01*
X0013050Y0121456D02*
X0015211Y0121456D01*
X0013412Y0119658D02*
X0013050Y0119658D01*
X0016050Y0117204D02*
X0022050Y0123204D01*
X0022050Y0099804D01*
X0023104Y0098750D01*
X0023250Y0098604D01*
X0023250Y0096377D01*
X0022516Y0095643D01*
X0022061Y0094545D01*
X0022061Y0093355D01*
X0022511Y0092270D01*
X0021576Y0091882D01*
X0019044Y0089350D01*
X0018450Y0087917D01*
X0018450Y0100523D01*
X0019184Y0101257D01*
X0019639Y0102355D01*
X0019639Y0103545D01*
X0019184Y0104643D01*
X0018343Y0105484D01*
X0017245Y0105939D01*
X0016055Y0105939D01*
X0016050Y0105937D01*
X0016050Y0117204D01*
X0016705Y0117859D02*
X0022050Y0117859D01*
X0022050Y0116061D02*
X0016050Y0116061D01*
X0016050Y0114262D02*
X0022050Y0114262D01*
X0022050Y0112464D02*
X0016050Y0112464D01*
X0016050Y0110665D02*
X0022050Y0110665D01*
X0022050Y0108867D02*
X0016050Y0108867D01*
X0016050Y0107068D02*
X0022050Y0107068D01*
X0022050Y0105270D02*
X0018557Y0105270D01*
X0019639Y0103471D02*
X0022050Y0103471D01*
X0022050Y0101673D02*
X0019356Y0101673D01*
X0018450Y0099874D02*
X0022050Y0099874D01*
X0023250Y0098076D02*
X0018450Y0098076D01*
X0018450Y0096277D02*
X0023150Y0096277D01*
X0022061Y0094479D02*
X0018450Y0094479D01*
X0018450Y0092680D02*
X0022341Y0092680D01*
X0020575Y0090882D02*
X0018450Y0090882D01*
X0018450Y0089083D02*
X0018933Y0089083D01*
X0026850Y0096377D02*
X0026850Y0099288D01*
X0046901Y0099288D01*
X0047780Y0100166D01*
X0047780Y0103150D01*
X0058520Y0103150D01*
X0058520Y0100166D01*
X0059399Y0099288D01*
X0081901Y0099288D01*
X0082780Y0100166D01*
X0082780Y0103150D01*
X0093520Y0103150D01*
X0093520Y0100166D01*
X0094399Y0099288D01*
X0116901Y0099288D01*
X0117780Y0100166D01*
X0117780Y0103150D01*
X0143150Y0103150D01*
X0143150Y0016658D01*
X0144292Y0013902D01*
X0145414Y0012779D01*
X0146072Y0011191D01*
X0146713Y0010550D01*
X0134587Y0010550D01*
X0135228Y0011191D01*
X0135886Y0012779D01*
X0137008Y0013902D01*
X0138150Y0016658D01*
X0138150Y0019642D01*
X0137008Y0022398D01*
X0135886Y0023521D01*
X0135228Y0025109D01*
X0133709Y0026628D01*
X0131724Y0027450D01*
X0129576Y0027450D01*
X0127591Y0026628D01*
X0126613Y0025650D01*
X0104174Y0025650D01*
X0104174Y0033244D01*
X0103032Y0036001D01*
X0100922Y0038111D01*
X0098165Y0039252D01*
X0097775Y0039252D01*
X0096943Y0040084D01*
X0095845Y0040539D01*
X0094655Y0040539D01*
X0093557Y0040084D01*
X0092716Y0039243D01*
X0092654Y0039092D01*
X0091650Y0040096D01*
X0091650Y0056123D01*
X0092384Y0056857D01*
X0092839Y0057955D01*
X0092839Y0059145D01*
X0092384Y0060243D01*
X0091543Y0061084D01*
X0091050Y0061288D01*
X0091050Y0072323D01*
X0091784Y0073057D01*
X0092239Y0074155D01*
X0092239Y0075345D01*
X0091804Y0076394D01*
X0094200Y0073998D01*
X0093520Y0073319D01*
X0093520Y0047666D01*
X0094399Y0046788D01*
X0116901Y0046788D01*
X0117780Y0047666D01*
X0117780Y0073319D01*
X0116901Y0074197D01*
X0114650Y0074197D01*
X0114650Y0077066D01*
X0113599Y0079603D01*
X0115085Y0079603D01*
X0115061Y0079545D01*
X0115061Y0078355D01*
X0115516Y0077257D01*
X0116357Y0076416D01*
X0117455Y0075961D01*
X0118645Y0075961D01*
X0119743Y0076416D01*
X0120584Y0077257D01*
X0121039Y0078355D01*
X0121039Y0079545D01*
X0120584Y0080643D01*
X0119850Y0081377D01*
X0119850Y0081496D01*
X0118095Y0083251D01*
X0118095Y0088023D01*
X0117216Y0088902D01*
X0112037Y0088902D01*
X0111158Y0088023D01*
X0111158Y0082496D01*
X0110748Y0082906D01*
X0101772Y0091882D01*
X0098464Y0093252D01*
X0094883Y0093252D01*
X0092022Y0092067D01*
X0091784Y0092643D01*
X0090943Y0093484D01*
X0089845Y0093939D01*
X0088655Y0093939D01*
X0087557Y0093484D01*
X0086823Y0092750D01*
X0067796Y0092750D01*
X0067050Y0093496D01*
X0065996Y0094550D01*
X0056704Y0094550D01*
X0050250Y0088096D01*
X0042596Y0095750D01*
X0027477Y0095750D01*
X0026850Y0096377D01*
X0026950Y0096277D02*
X0143150Y0096277D01*
X0143150Y0094479D02*
X0066067Y0094479D01*
X0069504Y0089150D02*
X0086823Y0089150D01*
X0087557Y0088416D01*
X0088496Y0088027D01*
X0087674Y0086043D01*
X0087674Y0082462D01*
X0089044Y0079154D01*
X0090894Y0077304D01*
X0089845Y0077739D01*
X0088655Y0077739D01*
X0087557Y0077284D01*
X0086716Y0076443D01*
X0086261Y0075345D01*
X0086261Y0074155D01*
X0086716Y0073057D01*
X0087450Y0072323D01*
X0087450Y0062296D01*
X0082780Y0057625D01*
X0082780Y0073319D01*
X0081901Y0074197D01*
X0079650Y0074197D01*
X0079650Y0077066D01*
X0078599Y0079603D01*
X0079685Y0079603D01*
X0079661Y0079545D01*
X0079661Y0078355D01*
X0080116Y0077257D01*
X0080957Y0076416D01*
X0082055Y0075961D01*
X0083245Y0075961D01*
X0084343Y0076416D01*
X0085184Y0077257D01*
X0085639Y0078355D01*
X0085639Y0079545D01*
X0085184Y0080643D01*
X0084450Y0081377D01*
X0084450Y0081496D01*
X0083095Y0082851D01*
X0083095Y0088023D01*
X0082216Y0088902D01*
X0077037Y0088902D01*
X0076158Y0088023D01*
X0076158Y0082496D01*
X0075748Y0082906D01*
X0069504Y0089150D01*
X0069571Y0089083D02*
X0086890Y0089083D01*
X0088188Y0087284D02*
X0083095Y0087284D01*
X0083095Y0085486D02*
X0087674Y0085486D01*
X0087674Y0083687D02*
X0083095Y0083687D01*
X0084057Y0081889D02*
X0087911Y0081889D01*
X0088656Y0080090D02*
X0085413Y0080090D01*
X0085613Y0078292D02*
X0089906Y0078292D01*
X0086766Y0076493D02*
X0084420Y0076493D01*
X0086261Y0074695D02*
X0079650Y0074695D01*
X0079650Y0076493D02*
X0080880Y0076493D01*
X0079687Y0078292D02*
X0079142Y0078292D01*
X0076158Y0083687D02*
X0074966Y0083687D01*
X0076158Y0085486D02*
X0073168Y0085486D01*
X0071369Y0087284D02*
X0076158Y0087284D01*
X0082488Y0099874D02*
X0093812Y0099874D01*
X0093520Y0101673D02*
X0082780Y0101673D01*
X0091747Y0092680D02*
X0093502Y0092680D01*
X0099846Y0092680D02*
X0143150Y0092680D01*
X0143150Y0090882D02*
X0102772Y0090882D01*
X0104571Y0089083D02*
X0143150Y0089083D01*
X0143150Y0087284D02*
X0118095Y0087284D01*
X0118095Y0085486D02*
X0143150Y0085486D01*
X0143150Y0083687D02*
X0118095Y0083687D01*
X0119457Y0081889D02*
X0143150Y0081889D01*
X0143150Y0080090D02*
X0120813Y0080090D01*
X0121013Y0078292D02*
X0143150Y0078292D01*
X0143150Y0076493D02*
X0119820Y0076493D01*
X0117780Y0072896D02*
X0143150Y0072896D01*
X0143150Y0071098D02*
X0117780Y0071098D01*
X0117780Y0069299D02*
X0143150Y0069299D01*
X0143150Y0067501D02*
X0117780Y0067501D01*
X0117780Y0065702D02*
X0143150Y0065702D01*
X0143150Y0063904D02*
X0117780Y0063904D01*
X0117780Y0062105D02*
X0143150Y0062105D01*
X0143150Y0060307D02*
X0117780Y0060307D01*
X0117780Y0058508D02*
X0143150Y0058508D01*
X0143150Y0056710D02*
X0117780Y0056710D01*
X0117780Y0054911D02*
X0143150Y0054911D01*
X0143150Y0053113D02*
X0117780Y0053113D01*
X0117780Y0051314D02*
X0143150Y0051314D01*
X0143150Y0049516D02*
X0117780Y0049516D01*
X0117780Y0047717D02*
X0143150Y0047717D01*
X0143150Y0045919D02*
X0091650Y0045919D01*
X0091650Y0047717D02*
X0093520Y0047717D01*
X0093520Y0049516D02*
X0091650Y0049516D01*
X0091650Y0051314D02*
X0093520Y0051314D01*
X0093520Y0053113D02*
X0091650Y0053113D01*
X0091650Y0054911D02*
X0093520Y0054911D01*
X0093520Y0056710D02*
X0092237Y0056710D01*
X0092839Y0058508D02*
X0093520Y0058508D01*
X0093520Y0060307D02*
X0092320Y0060307D01*
X0093520Y0062105D02*
X0091050Y0062105D01*
X0091050Y0063904D02*
X0093520Y0063904D01*
X0093520Y0065702D02*
X0091050Y0065702D01*
X0091050Y0067501D02*
X0093520Y0067501D01*
X0093520Y0069299D02*
X0091050Y0069299D01*
X0091050Y0071098D02*
X0093520Y0071098D01*
X0093520Y0072896D02*
X0091623Y0072896D01*
X0092239Y0074695D02*
X0093503Y0074695D01*
X0086877Y0072896D02*
X0082780Y0072896D01*
X0082780Y0071098D02*
X0087450Y0071098D01*
X0087450Y0069299D02*
X0082780Y0069299D01*
X0082780Y0067501D02*
X0087450Y0067501D01*
X0087450Y0065702D02*
X0082780Y0065702D01*
X0082780Y0063904D02*
X0087450Y0063904D01*
X0087260Y0062105D02*
X0082780Y0062105D01*
X0082780Y0060307D02*
X0085461Y0060307D01*
X0083663Y0058508D02*
X0082780Y0058508D01*
X0085157Y0054911D02*
X0088050Y0054911D01*
X0088050Y0056123D02*
X0088050Y0038604D01*
X0090485Y0036170D01*
X0090315Y0036001D01*
X0089174Y0033244D01*
X0089174Y0025650D01*
X0070007Y0025650D01*
X0069174Y0026483D01*
X0069174Y0033244D01*
X0068032Y0036001D01*
X0065922Y0038111D01*
X0063165Y0039252D01*
X0062629Y0039252D01*
X0062384Y0039843D01*
X0061543Y0040684D01*
X0060445Y0041139D01*
X0059407Y0041139D01*
X0056250Y0044296D01*
X0056250Y0048204D01*
X0059104Y0045350D01*
X0060596Y0045350D01*
X0082196Y0045350D01*
X0083250Y0046404D01*
X0084450Y0047604D01*
X0084450Y0054204D01*
X0087254Y0057008D01*
X0087316Y0056857D01*
X0088050Y0056123D01*
X0087463Y0056710D02*
X0086955Y0056710D01*
X0088050Y0053113D02*
X0084450Y0053113D01*
X0084450Y0051314D02*
X0088050Y0051314D01*
X0088050Y0049516D02*
X0084450Y0049516D01*
X0084450Y0047717D02*
X0088050Y0047717D01*
X0088050Y0045919D02*
X0082764Y0045919D01*
X0088050Y0044120D02*
X0056425Y0044120D01*
X0056250Y0045919D02*
X0058536Y0045919D01*
X0056737Y0047717D02*
X0056250Y0047717D01*
X0052650Y0047717D02*
X0050250Y0047717D01*
X0050250Y0046404D02*
X0050250Y0054804D01*
X0051854Y0056408D01*
X0051916Y0056257D01*
X0052650Y0055523D01*
X0052650Y0042804D01*
X0056861Y0038593D01*
X0056861Y0037555D01*
X0056864Y0037549D01*
X0055315Y0036001D01*
X0054174Y0033244D01*
X0054174Y0025650D01*
X0034174Y0025650D01*
X0034174Y0033244D01*
X0033032Y0036001D01*
X0030922Y0038111D01*
X0028165Y0039252D01*
X0025429Y0039252D01*
X0025184Y0039843D01*
X0024343Y0040684D01*
X0023245Y0041139D01*
X0022055Y0041139D01*
X0020957Y0040684D01*
X0020116Y0039843D01*
X0019661Y0038745D01*
X0019661Y0037555D01*
X0020116Y0036457D01*
X0020444Y0036129D01*
X0020315Y0036001D01*
X0019174Y0033244D01*
X0019174Y0016885D01*
X0020315Y0014128D01*
X0022652Y0011792D01*
X0025408Y0010650D01*
X0126613Y0010650D01*
X0126713Y0010550D01*
X0019961Y0010550D01*
X0019059Y0010609D01*
X0017316Y0011076D01*
X0015754Y0011978D01*
X0014478Y0013254D01*
X0013576Y0014816D01*
X0013109Y0016559D01*
X0013050Y0017461D01*
X0013050Y0054204D01*
X0013504Y0053750D01*
X0023104Y0044150D01*
X0024596Y0044150D01*
X0047996Y0044150D01*
X0049050Y0045204D01*
X0050250Y0046404D01*
X0049764Y0045919D02*
X0052650Y0045919D01*
X0052650Y0044120D02*
X0013050Y0044120D01*
X0013050Y0042322D02*
X0053133Y0042322D01*
X0054931Y0040523D02*
X0024504Y0040523D01*
X0020796Y0040523D02*
X0013050Y0040523D01*
X0013050Y0038725D02*
X0019661Y0038725D01*
X0019922Y0036926D02*
X0013050Y0036926D01*
X0013050Y0035128D02*
X0019954Y0035128D01*
X0019209Y0033329D02*
X0013050Y0033329D01*
X0013050Y0031531D02*
X0019174Y0031531D01*
X0019174Y0029732D02*
X0013050Y0029732D01*
X0013050Y0027934D02*
X0019174Y0027934D01*
X0019174Y0026135D02*
X0013050Y0026135D01*
X0013050Y0024337D02*
X0019174Y0024337D01*
X0019174Y0022538D02*
X0013050Y0022538D01*
X0013050Y0020740D02*
X0019174Y0020740D01*
X0019174Y0018941D02*
X0013050Y0018941D01*
X0013071Y0017143D02*
X0019174Y0017143D01*
X0019812Y0015344D02*
X0013435Y0015344D01*
X0014310Y0013546D02*
X0020898Y0013546D01*
X0022760Y0011747D02*
X0016154Y0011747D01*
X0009236Y0004553D02*
X0007536Y0004553D01*
X0010625Y0002754D02*
X0012011Y0002754D01*
X0034174Y0026135D02*
X0054174Y0026135D01*
X0054174Y0027934D02*
X0048047Y0027934D01*
X0048095Y0027981D02*
X0048095Y0029752D01*
X0048571Y0029752D01*
X0048957Y0029366D01*
X0050055Y0028911D01*
X0051245Y0028911D01*
X0052343Y0029366D01*
X0053184Y0030207D01*
X0053639Y0031305D01*
X0053639Y0032495D01*
X0053184Y0033593D01*
X0052343Y0034434D01*
X0051245Y0034889D01*
X0050055Y0034889D01*
X0048957Y0034434D01*
X0048275Y0033752D01*
X0048095Y0033752D01*
X0048095Y0035523D01*
X0047216Y0036402D01*
X0042037Y0036402D01*
X0041158Y0035523D01*
X0041158Y0027981D01*
X0042037Y0027103D01*
X0047216Y0027103D01*
X0048095Y0027981D01*
X0048095Y0029732D02*
X0048591Y0029732D01*
X0052709Y0029732D02*
X0054174Y0029732D01*
X0054174Y0031531D02*
X0053639Y0031531D01*
X0053293Y0033329D02*
X0054209Y0033329D01*
X0054954Y0035128D02*
X0048095Y0035128D01*
X0041158Y0035128D02*
X0033393Y0035128D01*
X0034138Y0033329D02*
X0041158Y0033329D01*
X0041158Y0031531D02*
X0034174Y0031531D01*
X0034174Y0029732D02*
X0041158Y0029732D01*
X0041206Y0027934D02*
X0034174Y0027934D01*
X0032106Y0036926D02*
X0056241Y0036926D01*
X0056730Y0038725D02*
X0029439Y0038725D01*
X0021336Y0045919D02*
X0013050Y0045919D01*
X0013050Y0047717D02*
X0019537Y0047717D01*
X0017739Y0049516D02*
X0013050Y0049516D01*
X0013050Y0051314D02*
X0015940Y0051314D01*
X0014142Y0053113D02*
X0013050Y0053113D01*
X0018450Y0055696D02*
X0018450Y0080588D01*
X0019044Y0079154D01*
X0024200Y0073998D01*
X0023520Y0073319D01*
X0023520Y0050625D01*
X0018450Y0055696D01*
X0018450Y0056710D02*
X0023520Y0056710D01*
X0023520Y0058508D02*
X0018450Y0058508D01*
X0018450Y0060307D02*
X0023520Y0060307D01*
X0023520Y0062105D02*
X0018450Y0062105D01*
X0018450Y0063904D02*
X0023520Y0063904D01*
X0023520Y0065702D02*
X0018450Y0065702D01*
X0018450Y0067501D02*
X0023520Y0067501D01*
X0023520Y0069299D02*
X0018450Y0069299D01*
X0018450Y0071098D02*
X0023520Y0071098D01*
X0023520Y0072896D02*
X0018450Y0072896D01*
X0018450Y0074695D02*
X0023503Y0074695D01*
X0021705Y0076493D02*
X0018450Y0076493D01*
X0018450Y0078292D02*
X0019906Y0078292D01*
X0018656Y0080090D02*
X0018450Y0080090D01*
X0031125Y0092150D02*
X0041104Y0092150D01*
X0044352Y0088902D01*
X0042037Y0088902D01*
X0041158Y0088023D01*
X0041158Y0082496D01*
X0040748Y0082906D01*
X0031772Y0091882D01*
X0031125Y0092150D01*
X0032772Y0090882D02*
X0042373Y0090882D01*
X0044171Y0089083D02*
X0034571Y0089083D01*
X0036369Y0087284D02*
X0041158Y0087284D01*
X0041158Y0085486D02*
X0038168Y0085486D01*
X0039966Y0083687D02*
X0041158Y0083687D01*
X0043599Y0079603D02*
X0043661Y0079454D01*
X0043661Y0079545D01*
X0043685Y0079603D01*
X0043599Y0079603D01*
X0044650Y0076723D02*
X0044957Y0076416D01*
X0046055Y0075961D01*
X0047245Y0075961D01*
X0048343Y0076416D01*
X0049184Y0077257D01*
X0049639Y0078355D01*
X0049639Y0079545D01*
X0049184Y0080643D01*
X0048450Y0081377D01*
X0048450Y0082696D01*
X0048095Y0083051D01*
X0048095Y0085160D01*
X0048450Y0084804D01*
X0049504Y0083750D01*
X0051450Y0081804D01*
X0051450Y0078377D01*
X0050716Y0077643D01*
X0050261Y0076545D01*
X0050261Y0075355D01*
X0050716Y0074257D01*
X0051557Y0073416D01*
X0052655Y0072961D01*
X0053845Y0072961D01*
X0054943Y0073416D01*
X0055784Y0074257D01*
X0056239Y0075355D01*
X0056239Y0076545D01*
X0055946Y0077252D01*
X0059200Y0073998D01*
X0058520Y0073319D01*
X0058520Y0060025D01*
X0057450Y0061096D01*
X0056396Y0062150D01*
X0055037Y0062150D01*
X0055039Y0062155D01*
X0055039Y0063345D01*
X0054584Y0064443D01*
X0053743Y0065284D01*
X0052645Y0065739D01*
X0051455Y0065739D01*
X0050357Y0065284D01*
X0049516Y0064443D01*
X0049061Y0063345D01*
X0049061Y0062155D01*
X0049516Y0061057D01*
X0049564Y0061009D01*
X0047780Y0059225D01*
X0047780Y0073319D01*
X0046901Y0074197D01*
X0044650Y0074197D01*
X0044650Y0076723D01*
X0044650Y0076493D02*
X0044880Y0076493D01*
X0044650Y0074695D02*
X0050535Y0074695D01*
X0050261Y0076493D02*
X0048420Y0076493D01*
X0049613Y0078292D02*
X0051365Y0078292D01*
X0051450Y0080090D02*
X0049413Y0080090D01*
X0048450Y0081889D02*
X0051365Y0081889D01*
X0049567Y0083687D02*
X0048095Y0083687D01*
X0049263Y0089083D02*
X0051237Y0089083D01*
X0053036Y0090882D02*
X0047464Y0090882D01*
X0045666Y0092680D02*
X0054834Y0092680D01*
X0056633Y0094479D02*
X0043867Y0094479D01*
X0047488Y0099874D02*
X0058812Y0099874D01*
X0058520Y0101673D02*
X0047780Y0101673D01*
X0047780Y0119658D02*
X0058520Y0119658D01*
X0058520Y0121456D02*
X0047780Y0121456D01*
X0047780Y0123255D02*
X0058520Y0123255D01*
X0058520Y0125053D02*
X0047780Y0125053D01*
X0039400Y0126852D02*
X0069400Y0126852D01*
X0068975Y0128650D02*
X0039431Y0128650D01*
X0039889Y0130449D02*
X0069099Y0130449D01*
X0070963Y0132247D02*
X0039226Y0132247D01*
X0036490Y0135844D02*
X0047861Y0135844D01*
X0048155Y0134046D02*
X0034691Y0134046D01*
X0034574Y0132247D02*
X0032893Y0132247D01*
X0033911Y0130449D02*
X0031094Y0130449D01*
X0029296Y0128650D02*
X0034369Y0128650D01*
X0034400Y0126852D02*
X0027497Y0126852D01*
X0022050Y0121456D02*
X0020302Y0121456D01*
X0022050Y0119658D02*
X0018503Y0119658D01*
X0038288Y0137643D02*
X0048916Y0137643D01*
X0052784Y0137643D02*
X0083116Y0137643D01*
X0081157Y0141240D02*
X0041885Y0141240D01*
X0040087Y0139441D02*
X0103957Y0139441D01*
X0103661Y0141240D02*
X0086543Y0141240D01*
X0081910Y0144837D02*
X0045482Y0144837D01*
X0043684Y0143038D02*
X0080861Y0143038D01*
X0083207Y0132247D02*
X0072837Y0132247D01*
X0074701Y0130449D02*
X0103911Y0130449D01*
X0104369Y0128650D02*
X0074825Y0128650D01*
X0074400Y0126852D02*
X0104400Y0126852D01*
X0109400Y0126852D02*
X0149803Y0126852D01*
X0151601Y0125053D02*
X0117780Y0125053D01*
X0117780Y0123255D02*
X0153400Y0123255D01*
X0155198Y0121456D02*
X0117780Y0121456D01*
X0117780Y0119658D02*
X0156997Y0119658D01*
X0158795Y0117859D02*
X0152844Y0117859D01*
X0155846Y0116061D02*
X0160594Y0116061D01*
X0162392Y0114262D02*
X0157272Y0114262D01*
X0158017Y0112464D02*
X0164191Y0112464D01*
X0165989Y0110665D02*
X0158150Y0110665D01*
X0158150Y0108867D02*
X0167788Y0108867D01*
X0169586Y0107068D02*
X0158150Y0107068D01*
X0158150Y0105270D02*
X0169543Y0105270D01*
X0169000Y0103471D02*
X0158150Y0103471D01*
X0158150Y0101673D02*
X0169277Y0101673D01*
X0170588Y0099874D02*
X0158150Y0099874D01*
X0158150Y0098076D02*
X0198379Y0098076D01*
X0196580Y0099874D02*
X0180712Y0099874D01*
X0182023Y0101673D02*
X0194782Y0101673D01*
X0192983Y0103471D02*
X0182300Y0103471D01*
X0181757Y0105270D02*
X0191185Y0105270D01*
X0196276Y0105270D02*
X0210985Y0105270D01*
X0212783Y0103471D02*
X0198074Y0103471D01*
X0199873Y0101673D02*
X0214582Y0101673D01*
X0216380Y0099874D02*
X0201671Y0099874D01*
X0203470Y0098076D02*
X0218179Y0098076D01*
X0219977Y0096277D02*
X0205269Y0096277D01*
X0207067Y0094479D02*
X0221776Y0094479D01*
X0223574Y0092680D02*
X0208866Y0092680D01*
X0210664Y0090882D02*
X0225373Y0090882D01*
X0227171Y0089083D02*
X0212463Y0089083D01*
X0214261Y0087284D02*
X0228970Y0087284D01*
X0229649Y0085486D02*
X0216060Y0085486D01*
X0217858Y0083687D02*
X0229000Y0083687D01*
X0229187Y0081889D02*
X0219657Y0081889D01*
X0221455Y0080090D02*
X0230372Y0080090D01*
X0230656Y0076493D02*
X0225052Y0076493D01*
X0226851Y0074695D02*
X0229305Y0074695D01*
X0229000Y0072896D02*
X0228649Y0072896D01*
X0225357Y0071098D02*
X0181785Y0071098D01*
X0181679Y0070842D02*
X0182300Y0072339D01*
X0182300Y0073961D01*
X0181679Y0075458D01*
X0180533Y0076604D01*
X0179035Y0077225D01*
X0172265Y0077225D01*
X0170767Y0076604D01*
X0169621Y0075458D01*
X0169000Y0073961D01*
X0169000Y0072339D01*
X0169621Y0070842D01*
X0170767Y0069696D01*
X0172265Y0069075D01*
X0179035Y0069075D01*
X0180533Y0069696D01*
X0181679Y0070842D01*
X0182300Y0072896D02*
X0223558Y0072896D01*
X0221759Y0074695D02*
X0181995Y0074695D01*
X0180644Y0076493D02*
X0219961Y0076493D01*
X0218162Y0078292D02*
X0158150Y0078292D01*
X0158150Y0080090D02*
X0170372Y0080090D01*
X0170767Y0079696D02*
X0172265Y0079075D01*
X0179035Y0079075D01*
X0180533Y0079696D01*
X0181679Y0080842D01*
X0182300Y0082339D01*
X0182300Y0083961D01*
X0181679Y0085458D01*
X0180533Y0086604D01*
X0179035Y0087225D01*
X0172265Y0087225D01*
X0170767Y0086604D01*
X0169621Y0085458D01*
X0169000Y0083961D01*
X0169000Y0082339D01*
X0169621Y0080842D01*
X0170767Y0079696D01*
X0169187Y0081889D02*
X0158150Y0081889D01*
X0158150Y0083687D02*
X0169000Y0083687D01*
X0169649Y0085486D02*
X0158150Y0085486D01*
X0158150Y0087284D02*
X0209170Y0087284D01*
X0210968Y0085486D02*
X0181651Y0085486D01*
X0182300Y0083687D02*
X0212767Y0083687D01*
X0214565Y0081889D02*
X0182113Y0081889D01*
X0180928Y0080090D02*
X0216364Y0080090D01*
X0223254Y0078292D02*
X0245671Y0078292D01*
X0245671Y0080090D02*
X0240928Y0080090D01*
X0242113Y0081889D02*
X0245671Y0081889D01*
X0245671Y0083687D02*
X0242300Y0083687D01*
X0241651Y0085486D02*
X0245671Y0085486D01*
X0245671Y0087284D02*
X0234061Y0087284D01*
X0239054Y0089083D02*
X0245671Y0089083D01*
X0245671Y0090882D02*
X0241696Y0090882D01*
X0242300Y0092680D02*
X0245671Y0092680D01*
X0245671Y0094479D02*
X0242085Y0094479D01*
X0240860Y0096277D02*
X0245671Y0096277D01*
X0245671Y0098076D02*
X0223270Y0098076D01*
X0221471Y0099874D02*
X0230588Y0099874D01*
X0230767Y0099696D02*
X0232265Y0099075D01*
X0239035Y0099075D01*
X0240533Y0099696D01*
X0241679Y0100842D01*
X0242300Y0102339D01*
X0242300Y0103961D01*
X0241679Y0105458D01*
X0240533Y0106604D01*
X0239035Y0107225D01*
X0232265Y0107225D01*
X0230767Y0106604D01*
X0229621Y0105458D01*
X0229000Y0103961D01*
X0229000Y0102339D01*
X0229621Y0100842D01*
X0230767Y0099696D01*
X0229277Y0101673D02*
X0219673Y0101673D01*
X0217874Y0103471D02*
X0229000Y0103471D01*
X0229543Y0105270D02*
X0216076Y0105270D01*
X0214277Y0107068D02*
X0231886Y0107068D01*
X0232265Y0109075D02*
X0230767Y0109696D01*
X0229621Y0110842D01*
X0229000Y0112339D01*
X0229000Y0113961D01*
X0229621Y0115458D01*
X0230767Y0116604D01*
X0232265Y0117225D01*
X0239035Y0117225D01*
X0240533Y0116604D01*
X0241679Y0115458D01*
X0242300Y0113961D01*
X0242300Y0112339D01*
X0241679Y0110842D01*
X0240533Y0109696D01*
X0239035Y0109075D01*
X0232265Y0109075D01*
X0229797Y0110665D02*
X0181503Y0110665D01*
X0182300Y0112464D02*
X0229000Y0112464D01*
X0229125Y0114262D02*
X0182175Y0114262D01*
X0181077Y0116061D02*
X0230223Y0116061D01*
X0232265Y0119075D02*
X0230767Y0119696D01*
X0229621Y0120842D01*
X0229000Y0122339D01*
X0229000Y0123961D01*
X0229621Y0125458D01*
X0230767Y0126604D01*
X0232265Y0127225D01*
X0239035Y0127225D01*
X0240533Y0126604D01*
X0241679Y0125458D01*
X0242300Y0123961D01*
X0242300Y0122339D01*
X0241679Y0120842D01*
X0240533Y0119696D01*
X0239035Y0119075D01*
X0232265Y0119075D01*
X0230858Y0119658D02*
X0180442Y0119658D01*
X0180533Y0119696D02*
X0181679Y0120842D01*
X0182300Y0122339D01*
X0182300Y0123961D01*
X0181679Y0125458D01*
X0180533Y0126604D01*
X0179035Y0127225D01*
X0172265Y0127225D01*
X0170767Y0126604D01*
X0169621Y0125458D01*
X0169000Y0123961D01*
X0169000Y0122339D01*
X0169621Y0120842D01*
X0170767Y0119696D01*
X0172265Y0119075D01*
X0179035Y0119075D01*
X0180533Y0119696D01*
X0181934Y0121456D02*
X0229366Y0121456D01*
X0229000Y0123255D02*
X0182300Y0123255D01*
X0181847Y0125053D02*
X0229453Y0125053D01*
X0231364Y0126852D02*
X0179936Y0126852D01*
X0181286Y0130449D02*
X0230014Y0130449D01*
X0229039Y0132247D02*
X0182261Y0132247D01*
X0182264Y0134046D02*
X0229036Y0134046D01*
X0241847Y0125053D02*
X0245671Y0125053D01*
X0245671Y0123255D02*
X0242300Y0123255D01*
X0241934Y0121456D02*
X0245671Y0121456D01*
X0245671Y0119658D02*
X0240442Y0119658D01*
X0241077Y0116061D02*
X0245671Y0116061D01*
X0245671Y0117859D02*
X0165686Y0117859D01*
X0163888Y0119658D02*
X0170858Y0119658D01*
X0169366Y0121456D02*
X0162089Y0121456D01*
X0160291Y0123255D02*
X0169000Y0123255D01*
X0169453Y0125053D02*
X0158492Y0125053D01*
X0156694Y0126852D02*
X0171364Y0126852D01*
X0170223Y0116061D02*
X0167485Y0116061D01*
X0148004Y0128650D02*
X0140296Y0128650D01*
X0142094Y0130449D02*
X0146206Y0130449D01*
X0144407Y0132247D02*
X0144374Y0132247D01*
X0127639Y0141240D02*
X0169456Y0141240D01*
X0181754Y0161023D02*
X0198778Y0161023D01*
X0200576Y0162822D02*
X0182300Y0162822D01*
X0182026Y0164620D02*
X0202375Y0164620D01*
X0196675Y0153829D02*
X0229000Y0153829D01*
X0229128Y0152031D02*
X0194876Y0152031D01*
X0193078Y0150232D02*
X0230230Y0150232D01*
X0239397Y0159225D02*
X0245671Y0159225D01*
X0245671Y0161023D02*
X0241754Y0161023D01*
X0242300Y0162822D02*
X0245671Y0162822D01*
X0245671Y0164620D02*
X0242026Y0164620D01*
X0240718Y0166419D02*
X0245671Y0166419D01*
X0255471Y0166419D02*
X0258150Y0166419D01*
X0258150Y0164620D02*
X0255471Y0164620D01*
X0255471Y0162822D02*
X0258150Y0162822D01*
X0258150Y0161023D02*
X0255471Y0161023D01*
X0255471Y0159225D02*
X0258150Y0159225D01*
X0258150Y0157426D02*
X0255471Y0157426D01*
X0255471Y0155628D02*
X0258150Y0155628D01*
X0258150Y0153829D02*
X0255471Y0153829D01*
X0255471Y0152031D02*
X0258150Y0152031D01*
X0258150Y0150232D02*
X0255471Y0150232D01*
X0255471Y0148434D02*
X0258150Y0148434D01*
X0258150Y0146635D02*
X0255471Y0146635D01*
X0255471Y0144837D02*
X0258150Y0144837D01*
X0258150Y0143038D02*
X0255471Y0143038D01*
X0255471Y0141240D02*
X0258150Y0141240D01*
X0258150Y0139441D02*
X0255471Y0139441D01*
X0255471Y0137643D02*
X0258150Y0137643D01*
X0258150Y0135844D02*
X0255471Y0135844D01*
X0255471Y0134046D02*
X0258150Y0134046D01*
X0258150Y0132247D02*
X0255471Y0132247D01*
X0255471Y0130449D02*
X0258150Y0130449D01*
X0258150Y0128650D02*
X0255471Y0128650D01*
X0255471Y0126852D02*
X0258150Y0126852D01*
X0258150Y0125053D02*
X0255471Y0125053D01*
X0255471Y0123255D02*
X0258150Y0123255D01*
X0258150Y0121456D02*
X0255471Y0121456D01*
X0255471Y0119658D02*
X0258150Y0119658D01*
X0258150Y0117859D02*
X0255471Y0117859D01*
X0255471Y0116061D02*
X0258150Y0116061D01*
X0258150Y0114262D02*
X0255471Y0114262D01*
X0255471Y0112464D02*
X0258150Y0112464D01*
X0258150Y0110665D02*
X0255471Y0110665D01*
X0255471Y0108867D02*
X0258150Y0108867D01*
X0258150Y0107068D02*
X0255471Y0107068D01*
X0255471Y0105270D02*
X0258150Y0105270D01*
X0258150Y0103471D02*
X0255471Y0103471D01*
X0255471Y0101673D02*
X0258150Y0101673D01*
X0258150Y0099874D02*
X0255471Y0099874D01*
X0255471Y0098076D02*
X0258150Y0098076D01*
X0258150Y0096277D02*
X0255471Y0096277D01*
X0255471Y0094479D02*
X0258150Y0094479D01*
X0258150Y0092680D02*
X0255471Y0092680D01*
X0255471Y0090882D02*
X0258150Y0090882D01*
X0258150Y0089083D02*
X0255471Y0089083D01*
X0255471Y0087284D02*
X0258150Y0087284D01*
X0258150Y0085486D02*
X0255471Y0085486D01*
X0255471Y0083687D02*
X0258150Y0083687D01*
X0258150Y0081889D02*
X0255471Y0081889D01*
X0255471Y0080090D02*
X0258150Y0080090D01*
X0258150Y0078292D02*
X0255471Y0078292D01*
X0255471Y0076493D02*
X0258150Y0076493D01*
X0258150Y0074695D02*
X0255471Y0074695D01*
X0255471Y0072896D02*
X0258150Y0072896D01*
X0258150Y0071098D02*
X0255471Y0071098D01*
X0255471Y0069299D02*
X0258150Y0069299D01*
X0258150Y0067501D02*
X0255471Y0067501D01*
X0255471Y0065702D02*
X0258150Y0065702D01*
X0258150Y0063904D02*
X0255471Y0063904D01*
X0255471Y0062105D02*
X0258150Y0062105D01*
X0258150Y0060307D02*
X0255471Y0060307D01*
X0255471Y0058508D02*
X0258150Y0058508D01*
X0258150Y0056710D02*
X0255471Y0056710D01*
X0255471Y0054911D02*
X0258150Y0054911D01*
X0258150Y0053113D02*
X0255471Y0053113D01*
X0255471Y0051314D02*
X0258150Y0051314D01*
X0258150Y0049516D02*
X0255471Y0049516D01*
X0255471Y0047717D02*
X0258150Y0047717D01*
X0258150Y0045919D02*
X0255471Y0045919D01*
X0255471Y0044120D02*
X0258150Y0044120D01*
X0258150Y0042322D02*
X0255471Y0042322D01*
X0255471Y0040523D02*
X0258150Y0040523D01*
X0258150Y0038725D02*
X0255471Y0038725D01*
X0255471Y0036926D02*
X0258150Y0036926D01*
X0258150Y0035128D02*
X0255471Y0035128D01*
X0255471Y0033329D02*
X0258150Y0033329D01*
X0258150Y0031531D02*
X0255471Y0031531D01*
X0255471Y0029732D02*
X0258150Y0029732D01*
X0258150Y0027934D02*
X0255471Y0027934D01*
X0255471Y0026135D02*
X0258150Y0026135D01*
X0258150Y0024337D02*
X0255471Y0024337D01*
X0255471Y0022538D02*
X0258150Y0022538D01*
X0258150Y0020740D02*
X0255471Y0020740D01*
X0255471Y0018941D02*
X0258150Y0018941D01*
X0258150Y0017143D02*
X0255471Y0017143D01*
X0255471Y0015344D02*
X0258150Y0015344D01*
X0258150Y0013546D02*
X0255012Y0013546D01*
X0255471Y0015261D02*
X0254332Y0011011D01*
X0254332Y0011011D01*
X0252132Y0007200D01*
X0252132Y0007200D01*
X0249021Y0004089D01*
X0249021Y0004089D01*
X0245230Y0001900D01*
X0258150Y0001900D01*
X0258150Y0211339D01*
X0258030Y0213020D01*
X0257672Y0214667D01*
X0257083Y0216245D01*
X0256275Y0217724D01*
X0255265Y0219074D01*
X0254074Y0220265D01*
X0252724Y0221275D01*
X0251245Y0222083D01*
X0249667Y0222672D01*
X0248020Y0223030D01*
X0247447Y0223071D01*
X0249021Y0222162D01*
X0249021Y0222162D01*
X0252132Y0219051D01*
X0252132Y0219051D01*
X0254332Y0215240D01*
X0254332Y0215240D01*
X0255471Y0210990D01*
X0255471Y0015261D01*
X0254530Y0011747D02*
X0258150Y0011747D01*
X0258150Y0009949D02*
X0253719Y0009949D01*
X0252681Y0008150D02*
X0258150Y0008150D01*
X0258150Y0006351D02*
X0251284Y0006351D01*
X0249485Y0004553D02*
X0258150Y0004553D01*
X0258150Y0002754D02*
X0246710Y0002754D01*
X0242567Y0011747D02*
X0155458Y0011747D01*
X0156652Y0013546D02*
X0244412Y0013546D01*
X0245287Y0015344D02*
X0219381Y0015344D01*
X0218709Y0014672D02*
X0220228Y0016191D01*
X0221050Y0018176D01*
X0221050Y0028124D01*
X0220228Y0030109D01*
X0218709Y0031628D01*
X0216724Y0032450D01*
X0214576Y0032450D01*
X0212591Y0031628D01*
X0211072Y0030109D01*
X0210250Y0028124D01*
X0210250Y0018176D01*
X0211072Y0016191D01*
X0212591Y0014672D01*
X0214576Y0013850D01*
X0216724Y0013850D01*
X0218709Y0014672D01*
X0220622Y0017143D02*
X0245650Y0017143D01*
X0245671Y0018941D02*
X0221050Y0018941D01*
X0221050Y0020740D02*
X0229723Y0020740D01*
X0229621Y0020842D02*
X0230767Y0019696D01*
X0232265Y0019075D01*
X0239035Y0019075D01*
X0240533Y0019696D01*
X0241679Y0020842D01*
X0242300Y0022339D01*
X0242300Y0023961D01*
X0241679Y0025458D01*
X0240533Y0026604D01*
X0239035Y0027225D01*
X0232265Y0027225D01*
X0230767Y0026604D01*
X0229621Y0025458D01*
X0229000Y0023961D01*
X0229000Y0022339D01*
X0229621Y0020842D01*
X0229000Y0022538D02*
X0221050Y0022538D01*
X0221050Y0024337D02*
X0229156Y0024337D01*
X0230298Y0026135D02*
X0221050Y0026135D01*
X0221050Y0027934D02*
X0245671Y0027934D01*
X0245671Y0029732D02*
X0240570Y0029732D01*
X0240533Y0029696D02*
X0241679Y0030842D01*
X0242300Y0032339D01*
X0242300Y0033961D01*
X0241679Y0035458D01*
X0240533Y0036604D01*
X0239035Y0037225D01*
X0232265Y0037225D01*
X0230767Y0036604D01*
X0229621Y0035458D01*
X0229000Y0033961D01*
X0229000Y0032339D01*
X0229621Y0030842D01*
X0230767Y0029696D01*
X0232265Y0029075D01*
X0239035Y0029075D01*
X0240533Y0029696D01*
X0241965Y0031531D02*
X0245671Y0031531D01*
X0245671Y0033329D02*
X0242300Y0033329D01*
X0241816Y0035128D02*
X0245671Y0035128D01*
X0245671Y0036926D02*
X0239756Y0036926D01*
X0239035Y0039075D02*
X0240533Y0039696D01*
X0241679Y0040842D01*
X0242300Y0042339D01*
X0242300Y0043961D01*
X0241679Y0045458D01*
X0240533Y0046604D01*
X0239035Y0047225D01*
X0232265Y0047225D01*
X0230767Y0046604D01*
X0229621Y0045458D01*
X0229000Y0043961D01*
X0229000Y0042339D01*
X0229621Y0040842D01*
X0230767Y0039696D01*
X0232265Y0039075D01*
X0239035Y0039075D01*
X0241361Y0040523D02*
X0245671Y0040523D01*
X0245671Y0038725D02*
X0172821Y0038725D01*
X0172470Y0039075D02*
X0179035Y0039075D01*
X0180533Y0039696D01*
X0181679Y0040842D01*
X0182300Y0042339D01*
X0182300Y0043961D01*
X0181679Y0045458D01*
X0180533Y0046604D01*
X0179035Y0047225D01*
X0172265Y0047225D01*
X0170767Y0046604D01*
X0169621Y0045458D01*
X0169000Y0043961D01*
X0169000Y0042939D01*
X0168455Y0042939D01*
X0167357Y0042484D01*
X0166516Y0041643D01*
X0166061Y0040545D01*
X0166061Y0039355D01*
X0166516Y0038257D01*
X0167357Y0037416D01*
X0168455Y0036961D01*
X0169493Y0036961D01*
X0170308Y0036146D01*
X0169621Y0035458D01*
X0169000Y0033961D01*
X0169000Y0032339D01*
X0169621Y0030842D01*
X0170767Y0029696D01*
X0172265Y0029075D01*
X0179035Y0029075D01*
X0180533Y0029696D01*
X0181679Y0030842D01*
X0182300Y0032339D01*
X0182300Y0033961D01*
X0181679Y0035458D01*
X0180533Y0036604D01*
X0179035Y0037225D01*
X0174321Y0037225D01*
X0172470Y0039075D01*
X0169528Y0036926D02*
X0158150Y0036926D01*
X0158150Y0035128D02*
X0169484Y0035128D01*
X0169000Y0033329D02*
X0158150Y0033329D01*
X0158150Y0031531D02*
X0169335Y0031531D01*
X0170730Y0029732D02*
X0158150Y0029732D01*
X0158150Y0027934D02*
X0190250Y0027934D01*
X0190250Y0028124D02*
X0191072Y0030109D01*
X0192591Y0031628D01*
X0194576Y0032450D01*
X0196724Y0032450D01*
X0198709Y0031628D01*
X0200228Y0030109D01*
X0201050Y0028124D01*
X0201050Y0018176D01*
X0200228Y0016191D01*
X0198709Y0014672D01*
X0196724Y0013850D01*
X0194576Y0013850D01*
X0192591Y0014672D01*
X0191072Y0016191D01*
X0190250Y0018176D01*
X0190250Y0028124D01*
X0190916Y0029732D02*
X0180570Y0029732D01*
X0181965Y0031531D02*
X0192494Y0031531D01*
X0190250Y0026135D02*
X0181002Y0026135D01*
X0180533Y0026604D02*
X0179035Y0027225D01*
X0172265Y0027225D01*
X0170767Y0026604D01*
X0169621Y0025458D01*
X0169000Y0023961D01*
X0169000Y0022339D01*
X0169621Y0020842D01*
X0170767Y0019696D01*
X0172265Y0019075D01*
X0179035Y0019075D01*
X0180533Y0019696D01*
X0181679Y0020842D01*
X0182300Y0022339D01*
X0182300Y0023961D01*
X0181679Y0025458D01*
X0180533Y0026604D01*
X0182144Y0024337D02*
X0190250Y0024337D01*
X0190250Y0022538D02*
X0182300Y0022538D01*
X0181577Y0020740D02*
X0190250Y0020740D01*
X0190250Y0018941D02*
X0158150Y0018941D01*
X0158150Y0017143D02*
X0190678Y0017143D01*
X0191919Y0015344D02*
X0157606Y0015344D01*
X0158150Y0020740D02*
X0169723Y0020740D01*
X0169000Y0022538D02*
X0158150Y0022538D01*
X0158150Y0024337D02*
X0169156Y0024337D01*
X0170298Y0026135D02*
X0158150Y0026135D01*
X0143150Y0026135D02*
X0134202Y0026135D01*
X0135548Y0024337D02*
X0143150Y0024337D01*
X0143150Y0022538D02*
X0136868Y0022538D01*
X0137695Y0020740D02*
X0143150Y0020740D01*
X0143150Y0018941D02*
X0138150Y0018941D01*
X0138150Y0017143D02*
X0143150Y0017143D01*
X0143694Y0015344D02*
X0137606Y0015344D01*
X0136652Y0013546D02*
X0144648Y0013546D01*
X0145842Y0011747D02*
X0135458Y0011747D01*
X0127098Y0026135D02*
X0104174Y0026135D01*
X0104174Y0027934D02*
X0111206Y0027934D01*
X0111158Y0027981D02*
X0112037Y0027103D01*
X0117216Y0027103D01*
X0118095Y0027981D01*
X0118095Y0029205D01*
X0118805Y0028911D01*
X0119995Y0028911D01*
X0121093Y0029366D01*
X0121934Y0030207D01*
X0122389Y0031305D01*
X0122389Y0032495D01*
X0121934Y0033593D01*
X0121093Y0034434D01*
X0119995Y0034889D01*
X0118805Y0034889D01*
X0118095Y0034595D01*
X0118095Y0035523D01*
X0117216Y0036402D01*
X0112037Y0036402D01*
X0111158Y0035523D01*
X0111158Y0027981D01*
X0111158Y0029732D02*
X0104174Y0029732D01*
X0104174Y0031531D02*
X0111158Y0031531D01*
X0111158Y0033329D02*
X0104138Y0033329D01*
X0103393Y0035128D02*
X0111158Y0035128D01*
X0118095Y0035128D02*
X0143150Y0035128D01*
X0143150Y0036926D02*
X0102106Y0036926D01*
X0099439Y0038725D02*
X0143150Y0038725D01*
X0143150Y0040523D02*
X0095883Y0040523D01*
X0094617Y0040523D02*
X0091650Y0040523D01*
X0091650Y0042322D02*
X0143150Y0042322D01*
X0143150Y0044120D02*
X0091650Y0044120D01*
X0088050Y0042322D02*
X0058224Y0042322D01*
X0061704Y0040523D02*
X0088050Y0040523D01*
X0088050Y0038725D02*
X0064439Y0038725D01*
X0067106Y0036926D02*
X0089728Y0036926D01*
X0089954Y0035128D02*
X0083095Y0035128D01*
X0083095Y0035523D02*
X0082216Y0036402D01*
X0077037Y0036402D01*
X0076158Y0035523D01*
X0076158Y0027981D01*
X0077037Y0027103D01*
X0082216Y0027103D01*
X0083095Y0027981D01*
X0083095Y0029752D01*
X0083571Y0029752D01*
X0083957Y0029366D01*
X0085055Y0028911D01*
X0086245Y0028911D01*
X0087343Y0029366D01*
X0088184Y0030207D01*
X0088639Y0031305D01*
X0088639Y0032495D01*
X0088184Y0033593D01*
X0087343Y0034434D01*
X0086245Y0034889D01*
X0085055Y0034889D01*
X0083957Y0034434D01*
X0083275Y0033752D01*
X0083095Y0033752D01*
X0083095Y0035523D01*
X0088293Y0033329D02*
X0089209Y0033329D01*
X0089174Y0031531D02*
X0088639Y0031531D01*
X0089174Y0029732D02*
X0087709Y0029732D01*
X0089174Y0027934D02*
X0083047Y0027934D01*
X0083095Y0029732D02*
X0083591Y0029732D01*
X0089174Y0026135D02*
X0069521Y0026135D01*
X0069174Y0027934D02*
X0076206Y0027934D01*
X0076158Y0029732D02*
X0069174Y0029732D01*
X0069174Y0031531D02*
X0076158Y0031531D01*
X0076158Y0033329D02*
X0069138Y0033329D01*
X0068393Y0035128D02*
X0076158Y0035128D01*
X0052650Y0049516D02*
X0050250Y0049516D01*
X0050250Y0051314D02*
X0052650Y0051314D01*
X0052650Y0053113D02*
X0050250Y0053113D01*
X0050357Y0054911D02*
X0052650Y0054911D01*
X0048861Y0060307D02*
X0047780Y0060307D01*
X0047780Y0062105D02*
X0049082Y0062105D01*
X0049293Y0063904D02*
X0047780Y0063904D01*
X0047780Y0065702D02*
X0051367Y0065702D01*
X0052733Y0065702D02*
X0058520Y0065702D01*
X0058520Y0063904D02*
X0054807Y0063904D01*
X0056440Y0062105D02*
X0058520Y0062105D01*
X0058520Y0060307D02*
X0058239Y0060307D01*
X0058520Y0067501D02*
X0047780Y0067501D01*
X0047780Y0069299D02*
X0058520Y0069299D01*
X0058520Y0071098D02*
X0047780Y0071098D01*
X0047780Y0072896D02*
X0058520Y0072896D01*
X0058503Y0074695D02*
X0055965Y0074695D01*
X0056239Y0076493D02*
X0056705Y0076493D01*
X0026850Y0098076D02*
X0143150Y0098076D01*
X0143150Y0099874D02*
X0117488Y0099874D01*
X0117780Y0101673D02*
X0143150Y0101673D01*
X0158150Y0096277D02*
X0170440Y0096277D01*
X0170767Y0096604D02*
X0169621Y0095458D01*
X0169000Y0093961D01*
X0169000Y0092339D01*
X0169621Y0090842D01*
X0170767Y0089696D01*
X0172265Y0089075D01*
X0179035Y0089075D01*
X0180533Y0089696D01*
X0181679Y0090842D01*
X0182300Y0092339D01*
X0182300Y0093961D01*
X0181679Y0095458D01*
X0180533Y0096604D01*
X0179035Y0097225D01*
X0172265Y0097225D01*
X0170767Y0096604D01*
X0169215Y0094479D02*
X0158150Y0094479D01*
X0158150Y0092680D02*
X0169000Y0092680D01*
X0169604Y0090882D02*
X0158150Y0090882D01*
X0158150Y0089083D02*
X0172246Y0089083D01*
X0179054Y0089083D02*
X0207371Y0089083D01*
X0205573Y0090882D02*
X0181696Y0090882D01*
X0182300Y0092680D02*
X0203774Y0092680D01*
X0201976Y0094479D02*
X0182085Y0094479D01*
X0180860Y0096277D02*
X0200177Y0096277D01*
X0212479Y0108867D02*
X0245671Y0108867D01*
X0245671Y0110665D02*
X0241503Y0110665D01*
X0242300Y0112464D02*
X0245671Y0112464D01*
X0245671Y0114262D02*
X0242175Y0114262D01*
X0239414Y0107068D02*
X0245671Y0107068D01*
X0245671Y0105270D02*
X0241757Y0105270D01*
X0242300Y0103471D02*
X0245671Y0103471D01*
X0245671Y0101673D02*
X0242023Y0101673D01*
X0240712Y0099874D02*
X0245671Y0099874D01*
X0230440Y0096277D02*
X0225069Y0096277D01*
X0226867Y0094479D02*
X0229215Y0094479D01*
X0229000Y0092680D02*
X0228666Y0092680D01*
X0240644Y0076493D02*
X0245671Y0076493D01*
X0245671Y0074695D02*
X0241995Y0074695D01*
X0242300Y0072896D02*
X0245671Y0072896D01*
X0245671Y0071098D02*
X0241785Y0071098D01*
X0239577Y0069299D02*
X0245671Y0069299D01*
X0245671Y0067501D02*
X0234045Y0067501D01*
X0229865Y0065702D02*
X0181435Y0065702D01*
X0181679Y0065458D02*
X0180533Y0066604D01*
X0179035Y0067225D01*
X0172265Y0067225D01*
X0170767Y0066604D01*
X0169621Y0065458D01*
X0169000Y0063961D01*
X0169000Y0062339D01*
X0169621Y0060842D01*
X0170767Y0059696D01*
X0172265Y0059075D01*
X0179035Y0059075D01*
X0180533Y0059696D01*
X0181679Y0060842D01*
X0182300Y0062339D01*
X0182300Y0063961D01*
X0181679Y0065458D01*
X0182300Y0063904D02*
X0229000Y0063904D01*
X0229097Y0062105D02*
X0182203Y0062105D01*
X0181144Y0060307D02*
X0230156Y0060307D01*
X0231021Y0056710D02*
X0180279Y0056710D01*
X0180533Y0056604D02*
X0179035Y0057225D01*
X0172265Y0057225D01*
X0170767Y0056604D01*
X0169621Y0055458D01*
X0169000Y0053961D01*
X0169000Y0052339D01*
X0169621Y0050842D01*
X0170767Y0049696D01*
X0172265Y0049075D01*
X0179035Y0049075D01*
X0180533Y0049696D01*
X0181679Y0050842D01*
X0182300Y0052339D01*
X0182300Y0053961D01*
X0181679Y0055458D01*
X0180533Y0056604D01*
X0181906Y0054911D02*
X0229394Y0054911D01*
X0229621Y0055458D02*
X0229000Y0053961D01*
X0229000Y0052339D01*
X0229621Y0050842D01*
X0230767Y0049696D01*
X0232265Y0049075D01*
X0239035Y0049075D01*
X0240533Y0049696D01*
X0241679Y0050842D01*
X0242300Y0052339D01*
X0242300Y0053961D01*
X0241679Y0055458D01*
X0240533Y0056604D01*
X0239035Y0057225D01*
X0232265Y0057225D01*
X0230767Y0056604D01*
X0229621Y0055458D01*
X0229000Y0053113D02*
X0182300Y0053113D01*
X0181875Y0051314D02*
X0229425Y0051314D01*
X0231201Y0049516D02*
X0180099Y0049516D01*
X0181219Y0045919D02*
X0230081Y0045919D01*
X0229067Y0044120D02*
X0182233Y0044120D01*
X0182292Y0042322D02*
X0229008Y0042322D01*
X0229939Y0040523D02*
X0181361Y0040523D01*
X0179756Y0036926D02*
X0231544Y0036926D01*
X0229484Y0035128D02*
X0181816Y0035128D01*
X0182300Y0033329D02*
X0229000Y0033329D01*
X0229335Y0031531D02*
X0218806Y0031531D01*
X0220384Y0029732D02*
X0230730Y0029732D01*
X0241002Y0026135D02*
X0245671Y0026135D01*
X0245671Y0024337D02*
X0242144Y0024337D01*
X0242300Y0022538D02*
X0245671Y0022538D01*
X0245671Y0020740D02*
X0241577Y0020740D01*
X0242292Y0042322D02*
X0245671Y0042322D01*
X0245671Y0044120D02*
X0242233Y0044120D01*
X0241219Y0045919D02*
X0245671Y0045919D01*
X0245671Y0047717D02*
X0158150Y0047717D01*
X0158150Y0045919D02*
X0170081Y0045919D01*
X0169067Y0044120D02*
X0158150Y0044120D01*
X0158150Y0042322D02*
X0167195Y0042322D01*
X0166061Y0040523D02*
X0158150Y0040523D01*
X0158150Y0038725D02*
X0166322Y0038725D01*
X0171201Y0049516D02*
X0158150Y0049516D01*
X0158150Y0051314D02*
X0169425Y0051314D01*
X0169000Y0053113D02*
X0158150Y0053113D01*
X0158150Y0054911D02*
X0169394Y0054911D01*
X0171021Y0056710D02*
X0158150Y0056710D01*
X0158150Y0058508D02*
X0245671Y0058508D01*
X0245671Y0056710D02*
X0240279Y0056710D01*
X0241906Y0054911D02*
X0245671Y0054911D01*
X0245671Y0053113D02*
X0242300Y0053113D01*
X0241875Y0051314D02*
X0245671Y0051314D01*
X0245671Y0049516D02*
X0240099Y0049516D01*
X0241144Y0060307D02*
X0245671Y0060307D01*
X0245671Y0062105D02*
X0242203Y0062105D01*
X0242300Y0063904D02*
X0245671Y0063904D01*
X0245671Y0065702D02*
X0241435Y0065702D01*
X0228954Y0067501D02*
X0158150Y0067501D01*
X0158150Y0069299D02*
X0171723Y0069299D01*
X0169515Y0071098D02*
X0158150Y0071098D01*
X0158150Y0072896D02*
X0169000Y0072896D01*
X0169305Y0074695D02*
X0158150Y0074695D01*
X0158150Y0076493D02*
X0170656Y0076493D01*
X0169865Y0065702D02*
X0158150Y0065702D01*
X0158150Y0063904D02*
X0169000Y0063904D01*
X0169097Y0062105D02*
X0158150Y0062105D01*
X0158150Y0060307D02*
X0170156Y0060307D01*
X0179577Y0069299D02*
X0227155Y0069299D01*
X0212494Y0031531D02*
X0198806Y0031531D01*
X0200384Y0029732D02*
X0210916Y0029732D01*
X0210250Y0027934D02*
X0201050Y0027934D01*
X0201050Y0026135D02*
X0210250Y0026135D01*
X0210250Y0024337D02*
X0201050Y0024337D01*
X0201050Y0022538D02*
X0210250Y0022538D01*
X0210250Y0020740D02*
X0201050Y0020740D01*
X0201050Y0018941D02*
X0210250Y0018941D01*
X0210678Y0017143D02*
X0200622Y0017143D01*
X0199381Y0015344D02*
X0211919Y0015344D01*
X0143150Y0027934D02*
X0118047Y0027934D01*
X0121459Y0029732D02*
X0143150Y0029732D01*
X0143150Y0031531D02*
X0122389Y0031531D01*
X0122043Y0033329D02*
X0143150Y0033329D01*
X0143150Y0074695D02*
X0114650Y0074695D01*
X0114650Y0076493D02*
X0116280Y0076493D01*
X0115087Y0078292D02*
X0114142Y0078292D01*
X0111158Y0083687D02*
X0109966Y0083687D01*
X0111158Y0085486D02*
X0108168Y0085486D01*
X0106369Y0087284D02*
X0111158Y0087284D01*
X0093520Y0119658D02*
X0082780Y0119658D01*
X0082780Y0121456D02*
X0093520Y0121456D01*
X0093520Y0123255D02*
X0082780Y0123255D01*
X0082780Y0125053D02*
X0093520Y0125053D01*
X0083250Y0132204D02*
X0083250Y0132204D01*
X0109431Y0128650D02*
X0122804Y0128650D01*
X0121006Y0130449D02*
X0109889Y0130449D01*
X0181645Y0180807D02*
X0229655Y0180807D01*
X0229000Y0182606D02*
X0182300Y0182606D01*
X0182116Y0184404D02*
X0229184Y0184404D01*
X0230365Y0186203D02*
X0180935Y0186203D01*
X0180637Y0189800D02*
X0230663Y0189800D01*
X0230767Y0189696D02*
X0232265Y0189075D01*
X0239035Y0189075D01*
X0240533Y0189696D01*
X0241679Y0190842D01*
X0242300Y0192339D01*
X0242300Y0193961D01*
X0241679Y0195458D01*
X0240533Y0196604D01*
X0239035Y0197225D01*
X0232265Y0197225D01*
X0230767Y0196604D01*
X0229621Y0195458D01*
X0229000Y0193961D01*
X0229000Y0192339D01*
X0229621Y0190842D01*
X0230767Y0189696D01*
X0229307Y0191598D02*
X0181993Y0191598D01*
X0182300Y0193397D02*
X0229000Y0193397D01*
X0229512Y0195195D02*
X0181788Y0195195D01*
X0179593Y0196994D02*
X0231707Y0196994D01*
X0229872Y0200591D02*
X0181428Y0200591D01*
X0182300Y0202389D02*
X0229000Y0202389D01*
X0229095Y0204188D02*
X0182205Y0204188D01*
X0181151Y0205986D02*
X0230149Y0205986D01*
X0231038Y0209583D02*
X0180262Y0209583D01*
X0181903Y0211382D02*
X0229397Y0211382D01*
X0229000Y0213180D02*
X0182300Y0213180D01*
X0181878Y0214979D02*
X0229422Y0214979D01*
X0240262Y0209583D02*
X0245619Y0209583D01*
X0245159Y0211382D02*
X0241903Y0211382D01*
X0242300Y0213180D02*
X0244060Y0213180D01*
X0250809Y0220374D02*
X0253928Y0220374D01*
X0252406Y0218576D02*
X0255638Y0218576D01*
X0256792Y0216777D02*
X0253445Y0216777D01*
X0254402Y0214979D02*
X0257555Y0214979D01*
X0257995Y0213180D02*
X0254884Y0213180D01*
X0255366Y0211382D02*
X0258147Y0211382D01*
X0258150Y0209583D02*
X0255471Y0209583D01*
X0255471Y0207785D02*
X0258150Y0207785D01*
X0258150Y0205986D02*
X0255471Y0205986D01*
X0255471Y0204188D02*
X0258150Y0204188D01*
X0258150Y0202389D02*
X0255471Y0202389D01*
X0255471Y0200591D02*
X0258150Y0200591D01*
X0258150Y0198792D02*
X0255471Y0198792D01*
X0255471Y0196994D02*
X0258150Y0196994D01*
X0258150Y0195195D02*
X0255471Y0195195D01*
X0255471Y0193397D02*
X0258150Y0193397D01*
X0258150Y0191598D02*
X0255471Y0191598D01*
X0255471Y0189800D02*
X0258150Y0189800D01*
X0258150Y0188001D02*
X0255471Y0188001D01*
X0255471Y0186203D02*
X0258150Y0186203D01*
X0258150Y0184404D02*
X0255471Y0184404D01*
X0255471Y0182606D02*
X0258150Y0182606D01*
X0258150Y0180807D02*
X0255471Y0180807D01*
X0255471Y0179009D02*
X0258150Y0179009D01*
X0258150Y0177210D02*
X0255471Y0177210D01*
X0255471Y0175412D02*
X0258150Y0175412D01*
X0258150Y0173613D02*
X0255471Y0173613D01*
X0255471Y0171815D02*
X0258150Y0171815D01*
X0258150Y0170016D02*
X0255471Y0170016D01*
X0255471Y0168218D02*
X0258150Y0168218D01*
X0245671Y0189800D02*
X0240637Y0189800D01*
X0241993Y0191598D02*
X0245671Y0191598D01*
X0245671Y0193397D02*
X0242300Y0193397D01*
X0241788Y0195195D02*
X0245671Y0195195D01*
X0245671Y0196994D02*
X0239593Y0196994D01*
X0249002Y0222173D02*
X0251004Y0222173D01*
X0023520Y0054911D02*
X0019234Y0054911D01*
X0021033Y0053113D02*
X0023520Y0053113D01*
X0023520Y0051314D02*
X0022831Y0051314D01*
M02*
