G75*
%MOIN*%
%OFA0B0*%
%FSLAX25Y25*%
%IPPOS*%
%LPD*%
%AMOC8*
5,1,8,0,0,1.08239X$1,22.5*
%
%ADD10R,0.04331X0.03937*%
%ADD11R,0.03937X0.04331*%
%ADD12R,0.12992X0.04921*%
%ADD13C,0.05150*%
%ADD14R,0.05807X0.01772*%
%ADD15C,0.00404*%
%ADD16C,0.07800*%
%ADD17R,0.10000X0.20000*%
%ADD18C,0.00474*%
%ADD19R,0.03937X0.02362*%
%ADD20C,0.01000*%
%ADD21C,0.02000*%
%ADD22C,0.00600*%
%ADD23C,0.02978*%
%ADD24C,0.15000*%
%ADD25C,0.01800*%
D10*
X0032304Y0096900D03*
X0038996Y0096900D03*
X0067304Y0096900D03*
X0073996Y0096900D03*
X0102304Y0096900D03*
X0108996Y0096900D03*
X0138554Y0040650D03*
X0145246Y0040650D03*
D11*
X0121900Y0038554D03*
X0121900Y0045246D03*
X0090650Y0038996D03*
X0090650Y0032304D03*
X0055650Y0032304D03*
X0055650Y0038996D03*
X0048150Y0083554D03*
X0048150Y0090246D03*
X0083150Y0090246D03*
X0083150Y0083554D03*
X0118150Y0083554D03*
X0118150Y0090246D03*
D12*
X0105650Y0069961D03*
X0105650Y0046339D03*
X0070650Y0046339D03*
X0070650Y0069961D03*
X0035650Y0069961D03*
X0035650Y0046339D03*
D13*
X0173075Y0043150D02*
X0178225Y0043150D01*
X0178225Y0053150D02*
X0173075Y0053150D01*
X0173075Y0063150D02*
X0178225Y0063150D01*
X0178225Y0073150D02*
X0173075Y0073150D01*
X0173075Y0083150D02*
X0178225Y0083150D01*
X0178225Y0093150D02*
X0173075Y0093150D01*
X0173075Y0103150D02*
X0178225Y0103150D01*
X0178225Y0113150D02*
X0173075Y0113150D01*
X0173075Y0123150D02*
X0178225Y0123150D01*
X0178225Y0133150D02*
X0173075Y0133150D01*
X0173075Y0143150D02*
X0178225Y0143150D01*
X0178225Y0153150D02*
X0173075Y0153150D01*
X0173075Y0163150D02*
X0178225Y0163150D01*
X0178225Y0173150D02*
X0173075Y0173150D01*
X0173075Y0183150D02*
X0178225Y0183150D01*
X0178225Y0193150D02*
X0173075Y0193150D01*
X0173075Y0203150D02*
X0178225Y0203150D01*
X0178225Y0213150D02*
X0173075Y0213150D01*
X0233075Y0213150D02*
X0238225Y0213150D01*
X0238225Y0203150D02*
X0233075Y0203150D01*
X0233075Y0193150D02*
X0238225Y0193150D01*
X0238225Y0183150D02*
X0233075Y0183150D01*
X0233075Y0173150D02*
X0238225Y0173150D01*
X0238225Y0163150D02*
X0233075Y0163150D01*
X0233075Y0153150D02*
X0238225Y0153150D01*
X0238225Y0143150D02*
X0233075Y0143150D01*
X0233075Y0133150D02*
X0238225Y0133150D01*
X0238225Y0123150D02*
X0233075Y0123150D01*
X0233075Y0113150D02*
X0238225Y0113150D01*
X0238225Y0103150D02*
X0233075Y0103150D01*
X0233075Y0093150D02*
X0238225Y0093150D01*
X0238225Y0083150D02*
X0233075Y0083150D01*
X0233075Y0073150D02*
X0238225Y0073150D01*
X0238225Y0063150D02*
X0233075Y0063150D01*
X0233075Y0053150D02*
X0238225Y0053150D01*
X0238225Y0043150D02*
X0233075Y0043150D01*
X0233075Y0033150D02*
X0238225Y0033150D01*
X0238225Y0023150D02*
X0233075Y0023150D01*
X0178225Y0023150D02*
X0173075Y0023150D01*
X0173075Y0033150D02*
X0178225Y0033150D01*
D14*
X0155967Y0129193D03*
X0155967Y0131752D03*
X0155967Y0134311D03*
X0155967Y0136870D03*
X0155967Y0139430D03*
X0155967Y0141989D03*
X0155967Y0144548D03*
X0155967Y0147107D03*
X0132833Y0147107D03*
X0132833Y0144548D03*
X0132833Y0141989D03*
X0132833Y0139430D03*
X0132833Y0136870D03*
X0132833Y0134311D03*
X0132833Y0131752D03*
X0132833Y0129193D03*
D15*
X0095094Y0072337D02*
X0095094Y0066561D01*
X0093884Y0066561D01*
X0093884Y0072337D01*
X0095094Y0072337D01*
X0095094Y0066945D02*
X0093884Y0066945D01*
X0093884Y0067329D02*
X0095094Y0067329D01*
X0095094Y0067713D02*
X0093884Y0067713D01*
X0093884Y0068097D02*
X0095094Y0068097D01*
X0095094Y0068481D02*
X0093884Y0068481D01*
X0093884Y0068865D02*
X0095094Y0068865D01*
X0095094Y0069249D02*
X0093884Y0069249D01*
X0093884Y0069633D02*
X0095094Y0069633D01*
X0095094Y0070017D02*
X0093884Y0070017D01*
X0093884Y0070401D02*
X0095094Y0070401D01*
X0095094Y0070785D02*
X0093884Y0070785D01*
X0093884Y0071169D02*
X0095094Y0071169D01*
X0095094Y0071553D02*
X0093884Y0071553D01*
X0093884Y0071937D02*
X0095094Y0071937D01*
X0095094Y0072321D02*
X0093884Y0072321D01*
X0092535Y0072337D02*
X0092535Y0066561D01*
X0091325Y0066561D01*
X0091325Y0072337D01*
X0092535Y0072337D01*
X0092535Y0066945D02*
X0091325Y0066945D01*
X0091325Y0067329D02*
X0092535Y0067329D01*
X0092535Y0067713D02*
X0091325Y0067713D01*
X0091325Y0068097D02*
X0092535Y0068097D01*
X0092535Y0068481D02*
X0091325Y0068481D01*
X0091325Y0068865D02*
X0092535Y0068865D01*
X0092535Y0069249D02*
X0091325Y0069249D01*
X0091325Y0069633D02*
X0092535Y0069633D01*
X0092535Y0070017D02*
X0091325Y0070017D01*
X0091325Y0070401D02*
X0092535Y0070401D01*
X0092535Y0070785D02*
X0091325Y0070785D01*
X0091325Y0071169D02*
X0092535Y0071169D01*
X0092535Y0071553D02*
X0091325Y0071553D01*
X0091325Y0071937D02*
X0092535Y0071937D01*
X0092535Y0072321D02*
X0091325Y0072321D01*
X0089975Y0072337D02*
X0089975Y0066561D01*
X0088765Y0066561D01*
X0088765Y0072337D01*
X0089975Y0072337D01*
X0089975Y0066945D02*
X0088765Y0066945D01*
X0088765Y0067329D02*
X0089975Y0067329D01*
X0089975Y0067713D02*
X0088765Y0067713D01*
X0088765Y0068097D02*
X0089975Y0068097D01*
X0089975Y0068481D02*
X0088765Y0068481D01*
X0088765Y0068865D02*
X0089975Y0068865D01*
X0089975Y0069249D02*
X0088765Y0069249D01*
X0088765Y0069633D02*
X0089975Y0069633D01*
X0089975Y0070017D02*
X0088765Y0070017D01*
X0088765Y0070401D02*
X0089975Y0070401D01*
X0089975Y0070785D02*
X0088765Y0070785D01*
X0088765Y0071169D02*
X0089975Y0071169D01*
X0089975Y0071553D02*
X0088765Y0071553D01*
X0088765Y0071937D02*
X0089975Y0071937D01*
X0089975Y0072321D02*
X0088765Y0072321D01*
X0087416Y0072337D02*
X0087416Y0066561D01*
X0086206Y0066561D01*
X0086206Y0072337D01*
X0087416Y0072337D01*
X0087416Y0066945D02*
X0086206Y0066945D01*
X0086206Y0067329D02*
X0087416Y0067329D01*
X0087416Y0067713D02*
X0086206Y0067713D01*
X0086206Y0068097D02*
X0087416Y0068097D01*
X0087416Y0068481D02*
X0086206Y0068481D01*
X0086206Y0068865D02*
X0087416Y0068865D01*
X0087416Y0069249D02*
X0086206Y0069249D01*
X0086206Y0069633D02*
X0087416Y0069633D01*
X0087416Y0070017D02*
X0086206Y0070017D01*
X0086206Y0070401D02*
X0087416Y0070401D01*
X0087416Y0070785D02*
X0086206Y0070785D01*
X0086206Y0071169D02*
X0087416Y0071169D01*
X0087416Y0071553D02*
X0086206Y0071553D01*
X0086206Y0071937D02*
X0087416Y0071937D01*
X0087416Y0072321D02*
X0086206Y0072321D01*
X0087416Y0049739D02*
X0087416Y0043963D01*
X0086206Y0043963D01*
X0086206Y0049739D01*
X0087416Y0049739D01*
X0087416Y0044347D02*
X0086206Y0044347D01*
X0086206Y0044731D02*
X0087416Y0044731D01*
X0087416Y0045115D02*
X0086206Y0045115D01*
X0086206Y0045499D02*
X0087416Y0045499D01*
X0087416Y0045883D02*
X0086206Y0045883D01*
X0086206Y0046267D02*
X0087416Y0046267D01*
X0087416Y0046651D02*
X0086206Y0046651D01*
X0086206Y0047035D02*
X0087416Y0047035D01*
X0087416Y0047419D02*
X0086206Y0047419D01*
X0086206Y0047803D02*
X0087416Y0047803D01*
X0087416Y0048187D02*
X0086206Y0048187D01*
X0086206Y0048571D02*
X0087416Y0048571D01*
X0087416Y0048955D02*
X0086206Y0048955D01*
X0086206Y0049339D02*
X0087416Y0049339D01*
X0087416Y0049723D02*
X0086206Y0049723D01*
X0089975Y0049739D02*
X0089975Y0043963D01*
X0088765Y0043963D01*
X0088765Y0049739D01*
X0089975Y0049739D01*
X0089975Y0044347D02*
X0088765Y0044347D01*
X0088765Y0044731D02*
X0089975Y0044731D01*
X0089975Y0045115D02*
X0088765Y0045115D01*
X0088765Y0045499D02*
X0089975Y0045499D01*
X0089975Y0045883D02*
X0088765Y0045883D01*
X0088765Y0046267D02*
X0089975Y0046267D01*
X0089975Y0046651D02*
X0088765Y0046651D01*
X0088765Y0047035D02*
X0089975Y0047035D01*
X0089975Y0047419D02*
X0088765Y0047419D01*
X0088765Y0047803D02*
X0089975Y0047803D01*
X0089975Y0048187D02*
X0088765Y0048187D01*
X0088765Y0048571D02*
X0089975Y0048571D01*
X0089975Y0048955D02*
X0088765Y0048955D01*
X0088765Y0049339D02*
X0089975Y0049339D01*
X0089975Y0049723D02*
X0088765Y0049723D01*
X0092535Y0049739D02*
X0092535Y0043963D01*
X0091325Y0043963D01*
X0091325Y0049739D01*
X0092535Y0049739D01*
X0092535Y0044347D02*
X0091325Y0044347D01*
X0091325Y0044731D02*
X0092535Y0044731D01*
X0092535Y0045115D02*
X0091325Y0045115D01*
X0091325Y0045499D02*
X0092535Y0045499D01*
X0092535Y0045883D02*
X0091325Y0045883D01*
X0091325Y0046267D02*
X0092535Y0046267D01*
X0092535Y0046651D02*
X0091325Y0046651D01*
X0091325Y0047035D02*
X0092535Y0047035D01*
X0092535Y0047419D02*
X0091325Y0047419D01*
X0091325Y0047803D02*
X0092535Y0047803D01*
X0092535Y0048187D02*
X0091325Y0048187D01*
X0091325Y0048571D02*
X0092535Y0048571D01*
X0092535Y0048955D02*
X0091325Y0048955D01*
X0091325Y0049339D02*
X0092535Y0049339D01*
X0092535Y0049723D02*
X0091325Y0049723D01*
X0095094Y0049739D02*
X0095094Y0043963D01*
X0093884Y0043963D01*
X0093884Y0049739D01*
X0095094Y0049739D01*
X0095094Y0044347D02*
X0093884Y0044347D01*
X0093884Y0044731D02*
X0095094Y0044731D01*
X0095094Y0045115D02*
X0093884Y0045115D01*
X0093884Y0045499D02*
X0095094Y0045499D01*
X0095094Y0045883D02*
X0093884Y0045883D01*
X0093884Y0046267D02*
X0095094Y0046267D01*
X0095094Y0046651D02*
X0093884Y0046651D01*
X0093884Y0047035D02*
X0095094Y0047035D01*
X0095094Y0047419D02*
X0093884Y0047419D01*
X0093884Y0047803D02*
X0095094Y0047803D01*
X0095094Y0048187D02*
X0093884Y0048187D01*
X0093884Y0048571D02*
X0095094Y0048571D01*
X0095094Y0048955D02*
X0093884Y0048955D01*
X0093884Y0049339D02*
X0095094Y0049339D01*
X0095094Y0049723D02*
X0093884Y0049723D01*
X0060094Y0049739D02*
X0060094Y0043963D01*
X0058884Y0043963D01*
X0058884Y0049739D01*
X0060094Y0049739D01*
X0060094Y0044347D02*
X0058884Y0044347D01*
X0058884Y0044731D02*
X0060094Y0044731D01*
X0060094Y0045115D02*
X0058884Y0045115D01*
X0058884Y0045499D02*
X0060094Y0045499D01*
X0060094Y0045883D02*
X0058884Y0045883D01*
X0058884Y0046267D02*
X0060094Y0046267D01*
X0060094Y0046651D02*
X0058884Y0046651D01*
X0058884Y0047035D02*
X0060094Y0047035D01*
X0060094Y0047419D02*
X0058884Y0047419D01*
X0058884Y0047803D02*
X0060094Y0047803D01*
X0060094Y0048187D02*
X0058884Y0048187D01*
X0058884Y0048571D02*
X0060094Y0048571D01*
X0060094Y0048955D02*
X0058884Y0048955D01*
X0058884Y0049339D02*
X0060094Y0049339D01*
X0060094Y0049723D02*
X0058884Y0049723D01*
X0057535Y0049739D02*
X0057535Y0043963D01*
X0056325Y0043963D01*
X0056325Y0049739D01*
X0057535Y0049739D01*
X0057535Y0044347D02*
X0056325Y0044347D01*
X0056325Y0044731D02*
X0057535Y0044731D01*
X0057535Y0045115D02*
X0056325Y0045115D01*
X0056325Y0045499D02*
X0057535Y0045499D01*
X0057535Y0045883D02*
X0056325Y0045883D01*
X0056325Y0046267D02*
X0057535Y0046267D01*
X0057535Y0046651D02*
X0056325Y0046651D01*
X0056325Y0047035D02*
X0057535Y0047035D01*
X0057535Y0047419D02*
X0056325Y0047419D01*
X0056325Y0047803D02*
X0057535Y0047803D01*
X0057535Y0048187D02*
X0056325Y0048187D01*
X0056325Y0048571D02*
X0057535Y0048571D01*
X0057535Y0048955D02*
X0056325Y0048955D01*
X0056325Y0049339D02*
X0057535Y0049339D01*
X0057535Y0049723D02*
X0056325Y0049723D01*
X0054975Y0049739D02*
X0054975Y0043963D01*
X0053765Y0043963D01*
X0053765Y0049739D01*
X0054975Y0049739D01*
X0054975Y0044347D02*
X0053765Y0044347D01*
X0053765Y0044731D02*
X0054975Y0044731D01*
X0054975Y0045115D02*
X0053765Y0045115D01*
X0053765Y0045499D02*
X0054975Y0045499D01*
X0054975Y0045883D02*
X0053765Y0045883D01*
X0053765Y0046267D02*
X0054975Y0046267D01*
X0054975Y0046651D02*
X0053765Y0046651D01*
X0053765Y0047035D02*
X0054975Y0047035D01*
X0054975Y0047419D02*
X0053765Y0047419D01*
X0053765Y0047803D02*
X0054975Y0047803D01*
X0054975Y0048187D02*
X0053765Y0048187D01*
X0053765Y0048571D02*
X0054975Y0048571D01*
X0054975Y0048955D02*
X0053765Y0048955D01*
X0053765Y0049339D02*
X0054975Y0049339D01*
X0054975Y0049723D02*
X0053765Y0049723D01*
X0052416Y0049739D02*
X0052416Y0043963D01*
X0051206Y0043963D01*
X0051206Y0049739D01*
X0052416Y0049739D01*
X0052416Y0044347D02*
X0051206Y0044347D01*
X0051206Y0044731D02*
X0052416Y0044731D01*
X0052416Y0045115D02*
X0051206Y0045115D01*
X0051206Y0045499D02*
X0052416Y0045499D01*
X0052416Y0045883D02*
X0051206Y0045883D01*
X0051206Y0046267D02*
X0052416Y0046267D01*
X0052416Y0046651D02*
X0051206Y0046651D01*
X0051206Y0047035D02*
X0052416Y0047035D01*
X0052416Y0047419D02*
X0051206Y0047419D01*
X0051206Y0047803D02*
X0052416Y0047803D01*
X0052416Y0048187D02*
X0051206Y0048187D01*
X0051206Y0048571D02*
X0052416Y0048571D01*
X0052416Y0048955D02*
X0051206Y0048955D01*
X0051206Y0049339D02*
X0052416Y0049339D01*
X0052416Y0049723D02*
X0051206Y0049723D01*
X0052416Y0066561D02*
X0052416Y0072337D01*
X0052416Y0066561D02*
X0051206Y0066561D01*
X0051206Y0072337D01*
X0052416Y0072337D01*
X0052416Y0066945D02*
X0051206Y0066945D01*
X0051206Y0067329D02*
X0052416Y0067329D01*
X0052416Y0067713D02*
X0051206Y0067713D01*
X0051206Y0068097D02*
X0052416Y0068097D01*
X0052416Y0068481D02*
X0051206Y0068481D01*
X0051206Y0068865D02*
X0052416Y0068865D01*
X0052416Y0069249D02*
X0051206Y0069249D01*
X0051206Y0069633D02*
X0052416Y0069633D01*
X0052416Y0070017D02*
X0051206Y0070017D01*
X0051206Y0070401D02*
X0052416Y0070401D01*
X0052416Y0070785D02*
X0051206Y0070785D01*
X0051206Y0071169D02*
X0052416Y0071169D01*
X0052416Y0071553D02*
X0051206Y0071553D01*
X0051206Y0071937D02*
X0052416Y0071937D01*
X0052416Y0072321D02*
X0051206Y0072321D01*
X0054975Y0072337D02*
X0054975Y0066561D01*
X0053765Y0066561D01*
X0053765Y0072337D01*
X0054975Y0072337D01*
X0054975Y0066945D02*
X0053765Y0066945D01*
X0053765Y0067329D02*
X0054975Y0067329D01*
X0054975Y0067713D02*
X0053765Y0067713D01*
X0053765Y0068097D02*
X0054975Y0068097D01*
X0054975Y0068481D02*
X0053765Y0068481D01*
X0053765Y0068865D02*
X0054975Y0068865D01*
X0054975Y0069249D02*
X0053765Y0069249D01*
X0053765Y0069633D02*
X0054975Y0069633D01*
X0054975Y0070017D02*
X0053765Y0070017D01*
X0053765Y0070401D02*
X0054975Y0070401D01*
X0054975Y0070785D02*
X0053765Y0070785D01*
X0053765Y0071169D02*
X0054975Y0071169D01*
X0054975Y0071553D02*
X0053765Y0071553D01*
X0053765Y0071937D02*
X0054975Y0071937D01*
X0054975Y0072321D02*
X0053765Y0072321D01*
X0057535Y0072337D02*
X0057535Y0066561D01*
X0056325Y0066561D01*
X0056325Y0072337D01*
X0057535Y0072337D01*
X0057535Y0066945D02*
X0056325Y0066945D01*
X0056325Y0067329D02*
X0057535Y0067329D01*
X0057535Y0067713D02*
X0056325Y0067713D01*
X0056325Y0068097D02*
X0057535Y0068097D01*
X0057535Y0068481D02*
X0056325Y0068481D01*
X0056325Y0068865D02*
X0057535Y0068865D01*
X0057535Y0069249D02*
X0056325Y0069249D01*
X0056325Y0069633D02*
X0057535Y0069633D01*
X0057535Y0070017D02*
X0056325Y0070017D01*
X0056325Y0070401D02*
X0057535Y0070401D01*
X0057535Y0070785D02*
X0056325Y0070785D01*
X0056325Y0071169D02*
X0057535Y0071169D01*
X0057535Y0071553D02*
X0056325Y0071553D01*
X0056325Y0071937D02*
X0057535Y0071937D01*
X0057535Y0072321D02*
X0056325Y0072321D01*
X0060094Y0072337D02*
X0060094Y0066561D01*
X0058884Y0066561D01*
X0058884Y0072337D01*
X0060094Y0072337D01*
X0060094Y0066945D02*
X0058884Y0066945D01*
X0058884Y0067329D02*
X0060094Y0067329D01*
X0060094Y0067713D02*
X0058884Y0067713D01*
X0058884Y0068097D02*
X0060094Y0068097D01*
X0060094Y0068481D02*
X0058884Y0068481D01*
X0058884Y0068865D02*
X0060094Y0068865D01*
X0060094Y0069249D02*
X0058884Y0069249D01*
X0058884Y0069633D02*
X0060094Y0069633D01*
X0060094Y0070017D02*
X0058884Y0070017D01*
X0058884Y0070401D02*
X0060094Y0070401D01*
X0060094Y0070785D02*
X0058884Y0070785D01*
X0058884Y0071169D02*
X0060094Y0071169D01*
X0060094Y0071553D02*
X0058884Y0071553D01*
X0058884Y0071937D02*
X0060094Y0071937D01*
X0060094Y0072321D02*
X0058884Y0072321D01*
X0025094Y0072337D02*
X0025094Y0066561D01*
X0023884Y0066561D01*
X0023884Y0072337D01*
X0025094Y0072337D01*
X0025094Y0066945D02*
X0023884Y0066945D01*
X0023884Y0067329D02*
X0025094Y0067329D01*
X0025094Y0067713D02*
X0023884Y0067713D01*
X0023884Y0068097D02*
X0025094Y0068097D01*
X0025094Y0068481D02*
X0023884Y0068481D01*
X0023884Y0068865D02*
X0025094Y0068865D01*
X0025094Y0069249D02*
X0023884Y0069249D01*
X0023884Y0069633D02*
X0025094Y0069633D01*
X0025094Y0070017D02*
X0023884Y0070017D01*
X0023884Y0070401D02*
X0025094Y0070401D01*
X0025094Y0070785D02*
X0023884Y0070785D01*
X0023884Y0071169D02*
X0025094Y0071169D01*
X0025094Y0071553D02*
X0023884Y0071553D01*
X0023884Y0071937D02*
X0025094Y0071937D01*
X0025094Y0072321D02*
X0023884Y0072321D01*
X0022535Y0072337D02*
X0022535Y0066561D01*
X0021325Y0066561D01*
X0021325Y0072337D01*
X0022535Y0072337D01*
X0022535Y0066945D02*
X0021325Y0066945D01*
X0021325Y0067329D02*
X0022535Y0067329D01*
X0022535Y0067713D02*
X0021325Y0067713D01*
X0021325Y0068097D02*
X0022535Y0068097D01*
X0022535Y0068481D02*
X0021325Y0068481D01*
X0021325Y0068865D02*
X0022535Y0068865D01*
X0022535Y0069249D02*
X0021325Y0069249D01*
X0021325Y0069633D02*
X0022535Y0069633D01*
X0022535Y0070017D02*
X0021325Y0070017D01*
X0021325Y0070401D02*
X0022535Y0070401D01*
X0022535Y0070785D02*
X0021325Y0070785D01*
X0021325Y0071169D02*
X0022535Y0071169D01*
X0022535Y0071553D02*
X0021325Y0071553D01*
X0021325Y0071937D02*
X0022535Y0071937D01*
X0022535Y0072321D02*
X0021325Y0072321D01*
X0019975Y0072337D02*
X0019975Y0066561D01*
X0018765Y0066561D01*
X0018765Y0072337D01*
X0019975Y0072337D01*
X0019975Y0066945D02*
X0018765Y0066945D01*
X0018765Y0067329D02*
X0019975Y0067329D01*
X0019975Y0067713D02*
X0018765Y0067713D01*
X0018765Y0068097D02*
X0019975Y0068097D01*
X0019975Y0068481D02*
X0018765Y0068481D01*
X0018765Y0068865D02*
X0019975Y0068865D01*
X0019975Y0069249D02*
X0018765Y0069249D01*
X0018765Y0069633D02*
X0019975Y0069633D01*
X0019975Y0070017D02*
X0018765Y0070017D01*
X0018765Y0070401D02*
X0019975Y0070401D01*
X0019975Y0070785D02*
X0018765Y0070785D01*
X0018765Y0071169D02*
X0019975Y0071169D01*
X0019975Y0071553D02*
X0018765Y0071553D01*
X0018765Y0071937D02*
X0019975Y0071937D01*
X0019975Y0072321D02*
X0018765Y0072321D01*
X0017416Y0072337D02*
X0017416Y0066561D01*
X0016206Y0066561D01*
X0016206Y0072337D01*
X0017416Y0072337D01*
X0017416Y0066945D02*
X0016206Y0066945D01*
X0016206Y0067329D02*
X0017416Y0067329D01*
X0017416Y0067713D02*
X0016206Y0067713D01*
X0016206Y0068097D02*
X0017416Y0068097D01*
X0017416Y0068481D02*
X0016206Y0068481D01*
X0016206Y0068865D02*
X0017416Y0068865D01*
X0017416Y0069249D02*
X0016206Y0069249D01*
X0016206Y0069633D02*
X0017416Y0069633D01*
X0017416Y0070017D02*
X0016206Y0070017D01*
X0016206Y0070401D02*
X0017416Y0070401D01*
X0017416Y0070785D02*
X0016206Y0070785D01*
X0016206Y0071169D02*
X0017416Y0071169D01*
X0017416Y0071553D02*
X0016206Y0071553D01*
X0016206Y0071937D02*
X0017416Y0071937D01*
X0017416Y0072321D02*
X0016206Y0072321D01*
X0017416Y0049739D02*
X0017416Y0043963D01*
X0016206Y0043963D01*
X0016206Y0049739D01*
X0017416Y0049739D01*
X0017416Y0044347D02*
X0016206Y0044347D01*
X0016206Y0044731D02*
X0017416Y0044731D01*
X0017416Y0045115D02*
X0016206Y0045115D01*
X0016206Y0045499D02*
X0017416Y0045499D01*
X0017416Y0045883D02*
X0016206Y0045883D01*
X0016206Y0046267D02*
X0017416Y0046267D01*
X0017416Y0046651D02*
X0016206Y0046651D01*
X0016206Y0047035D02*
X0017416Y0047035D01*
X0017416Y0047419D02*
X0016206Y0047419D01*
X0016206Y0047803D02*
X0017416Y0047803D01*
X0017416Y0048187D02*
X0016206Y0048187D01*
X0016206Y0048571D02*
X0017416Y0048571D01*
X0017416Y0048955D02*
X0016206Y0048955D01*
X0016206Y0049339D02*
X0017416Y0049339D01*
X0017416Y0049723D02*
X0016206Y0049723D01*
X0019975Y0049739D02*
X0019975Y0043963D01*
X0018765Y0043963D01*
X0018765Y0049739D01*
X0019975Y0049739D01*
X0019975Y0044347D02*
X0018765Y0044347D01*
X0018765Y0044731D02*
X0019975Y0044731D01*
X0019975Y0045115D02*
X0018765Y0045115D01*
X0018765Y0045499D02*
X0019975Y0045499D01*
X0019975Y0045883D02*
X0018765Y0045883D01*
X0018765Y0046267D02*
X0019975Y0046267D01*
X0019975Y0046651D02*
X0018765Y0046651D01*
X0018765Y0047035D02*
X0019975Y0047035D01*
X0019975Y0047419D02*
X0018765Y0047419D01*
X0018765Y0047803D02*
X0019975Y0047803D01*
X0019975Y0048187D02*
X0018765Y0048187D01*
X0018765Y0048571D02*
X0019975Y0048571D01*
X0019975Y0048955D02*
X0018765Y0048955D01*
X0018765Y0049339D02*
X0019975Y0049339D01*
X0019975Y0049723D02*
X0018765Y0049723D01*
X0022535Y0049739D02*
X0022535Y0043963D01*
X0021325Y0043963D01*
X0021325Y0049739D01*
X0022535Y0049739D01*
X0022535Y0044347D02*
X0021325Y0044347D01*
X0021325Y0044731D02*
X0022535Y0044731D01*
X0022535Y0045115D02*
X0021325Y0045115D01*
X0021325Y0045499D02*
X0022535Y0045499D01*
X0022535Y0045883D02*
X0021325Y0045883D01*
X0021325Y0046267D02*
X0022535Y0046267D01*
X0022535Y0046651D02*
X0021325Y0046651D01*
X0021325Y0047035D02*
X0022535Y0047035D01*
X0022535Y0047419D02*
X0021325Y0047419D01*
X0021325Y0047803D02*
X0022535Y0047803D01*
X0022535Y0048187D02*
X0021325Y0048187D01*
X0021325Y0048571D02*
X0022535Y0048571D01*
X0022535Y0048955D02*
X0021325Y0048955D01*
X0021325Y0049339D02*
X0022535Y0049339D01*
X0022535Y0049723D02*
X0021325Y0049723D01*
X0025094Y0049739D02*
X0025094Y0043963D01*
X0023884Y0043963D01*
X0023884Y0049739D01*
X0025094Y0049739D01*
X0025094Y0044347D02*
X0023884Y0044347D01*
X0023884Y0044731D02*
X0025094Y0044731D01*
X0025094Y0045115D02*
X0023884Y0045115D01*
X0023884Y0045499D02*
X0025094Y0045499D01*
X0025094Y0045883D02*
X0023884Y0045883D01*
X0023884Y0046267D02*
X0025094Y0046267D01*
X0025094Y0046651D02*
X0023884Y0046651D01*
X0023884Y0047035D02*
X0025094Y0047035D01*
X0025094Y0047419D02*
X0023884Y0047419D01*
X0023884Y0047803D02*
X0025094Y0047803D01*
X0025094Y0048187D02*
X0023884Y0048187D01*
X0023884Y0048571D02*
X0025094Y0048571D01*
X0025094Y0048955D02*
X0023884Y0048955D01*
X0023884Y0049339D02*
X0025094Y0049339D01*
X0025094Y0049723D02*
X0023884Y0049723D01*
D16*
X0130650Y0022050D02*
X0130650Y0014250D01*
X0150650Y0014250D02*
X0150650Y0022050D01*
X0195650Y0019250D02*
X0195650Y0027050D01*
X0215650Y0027050D02*
X0215650Y0019250D01*
D17*
X0105650Y0020650D03*
X0070650Y0020650D03*
X0035650Y0020650D03*
D18*
X0039243Y0131598D02*
X0046507Y0131598D01*
X0046507Y0129702D01*
X0039243Y0129702D01*
X0039243Y0131598D01*
X0039243Y0130152D02*
X0046507Y0130152D01*
X0046507Y0130602D02*
X0039243Y0130602D01*
X0039243Y0131052D02*
X0046507Y0131052D01*
X0046507Y0131502D02*
X0039243Y0131502D01*
X0039243Y0136598D02*
X0046507Y0136598D01*
X0046507Y0134702D01*
X0039243Y0134702D01*
X0039243Y0136598D01*
X0039243Y0135152D02*
X0046507Y0135152D01*
X0046507Y0135602D02*
X0039243Y0135602D01*
X0039243Y0136052D02*
X0046507Y0136052D01*
X0046507Y0136502D02*
X0039243Y0136502D01*
X0039243Y0141598D02*
X0046507Y0141598D01*
X0046507Y0139702D01*
X0039243Y0139702D01*
X0039243Y0141598D01*
X0039243Y0140152D02*
X0046507Y0140152D01*
X0046507Y0140602D02*
X0039243Y0140602D01*
X0039243Y0141052D02*
X0046507Y0141052D01*
X0046507Y0141502D02*
X0039243Y0141502D01*
X0039243Y0146598D02*
X0046507Y0146598D01*
X0046507Y0144702D01*
X0039243Y0144702D01*
X0039243Y0146598D01*
X0039243Y0145152D02*
X0046507Y0145152D01*
X0046507Y0145602D02*
X0039243Y0145602D01*
X0039243Y0146052D02*
X0046507Y0146052D01*
X0046507Y0146502D02*
X0039243Y0146502D01*
X0027057Y0146598D02*
X0019793Y0146598D01*
X0027057Y0146598D02*
X0027057Y0144702D01*
X0019793Y0144702D01*
X0019793Y0146598D01*
X0019793Y0145152D02*
X0027057Y0145152D01*
X0027057Y0145602D02*
X0019793Y0145602D01*
X0019793Y0146052D02*
X0027057Y0146052D01*
X0027057Y0146502D02*
X0019793Y0146502D01*
X0019793Y0141598D02*
X0027057Y0141598D01*
X0027057Y0139702D01*
X0019793Y0139702D01*
X0019793Y0141598D01*
X0019793Y0140152D02*
X0027057Y0140152D01*
X0027057Y0140602D02*
X0019793Y0140602D01*
X0019793Y0141052D02*
X0027057Y0141052D01*
X0027057Y0141502D02*
X0019793Y0141502D01*
X0019793Y0136598D02*
X0027057Y0136598D01*
X0027057Y0134702D01*
X0019793Y0134702D01*
X0019793Y0136598D01*
X0019793Y0135152D02*
X0027057Y0135152D01*
X0027057Y0135602D02*
X0019793Y0135602D01*
X0019793Y0136052D02*
X0027057Y0136052D01*
X0027057Y0136502D02*
X0019793Y0136502D01*
X0019793Y0131598D02*
X0027057Y0131598D01*
X0027057Y0129702D01*
X0019793Y0129702D01*
X0019793Y0131598D01*
X0019793Y0130152D02*
X0027057Y0130152D01*
X0027057Y0130602D02*
X0019793Y0130602D01*
X0019793Y0131052D02*
X0027057Y0131052D01*
X0027057Y0131502D02*
X0019793Y0131502D01*
X0054793Y0131598D02*
X0062057Y0131598D01*
X0062057Y0129702D01*
X0054793Y0129702D01*
X0054793Y0131598D01*
X0054793Y0130152D02*
X0062057Y0130152D01*
X0062057Y0130602D02*
X0054793Y0130602D01*
X0054793Y0131052D02*
X0062057Y0131052D01*
X0062057Y0131502D02*
X0054793Y0131502D01*
X0054793Y0136598D02*
X0062057Y0136598D01*
X0062057Y0134702D01*
X0054793Y0134702D01*
X0054793Y0136598D01*
X0054793Y0135152D02*
X0062057Y0135152D01*
X0062057Y0135602D02*
X0054793Y0135602D01*
X0054793Y0136052D02*
X0062057Y0136052D01*
X0062057Y0136502D02*
X0054793Y0136502D01*
X0054793Y0141598D02*
X0062057Y0141598D01*
X0062057Y0139702D01*
X0054793Y0139702D01*
X0054793Y0141598D01*
X0054793Y0140152D02*
X0062057Y0140152D01*
X0062057Y0140602D02*
X0054793Y0140602D01*
X0054793Y0141052D02*
X0062057Y0141052D01*
X0062057Y0141502D02*
X0054793Y0141502D01*
X0054793Y0146598D02*
X0062057Y0146598D01*
X0062057Y0144702D01*
X0054793Y0144702D01*
X0054793Y0146598D01*
X0054793Y0145152D02*
X0062057Y0145152D01*
X0062057Y0145602D02*
X0054793Y0145602D01*
X0054793Y0146052D02*
X0062057Y0146052D01*
X0062057Y0146502D02*
X0054793Y0146502D01*
X0074243Y0146598D02*
X0081507Y0146598D01*
X0081507Y0144702D01*
X0074243Y0144702D01*
X0074243Y0146598D01*
X0074243Y0145152D02*
X0081507Y0145152D01*
X0081507Y0145602D02*
X0074243Y0145602D01*
X0074243Y0146052D02*
X0081507Y0146052D01*
X0081507Y0146502D02*
X0074243Y0146502D01*
X0074243Y0141598D02*
X0081507Y0141598D01*
X0081507Y0139702D01*
X0074243Y0139702D01*
X0074243Y0141598D01*
X0074243Y0140152D02*
X0081507Y0140152D01*
X0081507Y0140602D02*
X0074243Y0140602D01*
X0074243Y0141052D02*
X0081507Y0141052D01*
X0081507Y0141502D02*
X0074243Y0141502D01*
X0074243Y0136598D02*
X0081507Y0136598D01*
X0081507Y0134702D01*
X0074243Y0134702D01*
X0074243Y0136598D01*
X0074243Y0135152D02*
X0081507Y0135152D01*
X0081507Y0135602D02*
X0074243Y0135602D01*
X0074243Y0136052D02*
X0081507Y0136052D01*
X0081507Y0136502D02*
X0074243Y0136502D01*
X0074243Y0131598D02*
X0081507Y0131598D01*
X0081507Y0129702D01*
X0074243Y0129702D01*
X0074243Y0131598D01*
X0074243Y0130152D02*
X0081507Y0130152D01*
X0081507Y0130602D02*
X0074243Y0130602D01*
X0074243Y0131052D02*
X0081507Y0131052D01*
X0081507Y0131502D02*
X0074243Y0131502D01*
X0089793Y0131598D02*
X0097057Y0131598D01*
X0097057Y0129702D01*
X0089793Y0129702D01*
X0089793Y0131598D01*
X0089793Y0130152D02*
X0097057Y0130152D01*
X0097057Y0130602D02*
X0089793Y0130602D01*
X0089793Y0131052D02*
X0097057Y0131052D01*
X0097057Y0131502D02*
X0089793Y0131502D01*
X0089793Y0136598D02*
X0097057Y0136598D01*
X0097057Y0134702D01*
X0089793Y0134702D01*
X0089793Y0136598D01*
X0089793Y0135152D02*
X0097057Y0135152D01*
X0097057Y0135602D02*
X0089793Y0135602D01*
X0089793Y0136052D02*
X0097057Y0136052D01*
X0097057Y0136502D02*
X0089793Y0136502D01*
X0089793Y0141598D02*
X0097057Y0141598D01*
X0097057Y0139702D01*
X0089793Y0139702D01*
X0089793Y0141598D01*
X0089793Y0140152D02*
X0097057Y0140152D01*
X0097057Y0140602D02*
X0089793Y0140602D01*
X0089793Y0141052D02*
X0097057Y0141052D01*
X0097057Y0141502D02*
X0089793Y0141502D01*
X0089793Y0146598D02*
X0097057Y0146598D01*
X0097057Y0144702D01*
X0089793Y0144702D01*
X0089793Y0146598D01*
X0089793Y0145152D02*
X0097057Y0145152D01*
X0097057Y0145602D02*
X0089793Y0145602D01*
X0089793Y0146052D02*
X0097057Y0146052D01*
X0097057Y0146502D02*
X0089793Y0146502D01*
X0109243Y0146598D02*
X0116507Y0146598D01*
X0116507Y0144702D01*
X0109243Y0144702D01*
X0109243Y0146598D01*
X0109243Y0145152D02*
X0116507Y0145152D01*
X0116507Y0145602D02*
X0109243Y0145602D01*
X0109243Y0146052D02*
X0116507Y0146052D01*
X0116507Y0146502D02*
X0109243Y0146502D01*
X0109243Y0141598D02*
X0116507Y0141598D01*
X0116507Y0139702D01*
X0109243Y0139702D01*
X0109243Y0141598D01*
X0109243Y0140152D02*
X0116507Y0140152D01*
X0116507Y0140602D02*
X0109243Y0140602D01*
X0109243Y0141052D02*
X0116507Y0141052D01*
X0116507Y0141502D02*
X0109243Y0141502D01*
X0109243Y0136598D02*
X0116507Y0136598D01*
X0116507Y0134702D01*
X0109243Y0134702D01*
X0109243Y0136598D01*
X0109243Y0135152D02*
X0116507Y0135152D01*
X0116507Y0135602D02*
X0109243Y0135602D01*
X0109243Y0136052D02*
X0116507Y0136052D01*
X0116507Y0136502D02*
X0109243Y0136502D01*
X0109243Y0131598D02*
X0116507Y0131598D01*
X0116507Y0129702D01*
X0109243Y0129702D01*
X0109243Y0131598D01*
X0109243Y0130152D02*
X0116507Y0130152D01*
X0116507Y0130602D02*
X0109243Y0130602D01*
X0109243Y0131052D02*
X0116507Y0131052D01*
X0116507Y0131502D02*
X0109243Y0131502D01*
D19*
X0111231Y0115650D03*
X0102569Y0115650D03*
X0076231Y0115650D03*
X0067569Y0115650D03*
X0041231Y0115650D03*
X0032569Y0115650D03*
D20*
X0036587Y0123958D02*
X0036587Y0106061D01*
X0048150Y0094498D01*
X0048150Y0090246D01*
X0051219Y0080933D02*
X0051219Y0128777D01*
X0047061Y0132935D01*
X0037611Y0132935D01*
X0027611Y0142935D01*
X0026140Y0142935D01*
X0023425Y0145650D01*
X0023425Y0140650D02*
X0020710Y0137935D01*
X0019239Y0137935D01*
X0018456Y0137152D01*
X0018456Y0105058D01*
X0029683Y0093831D01*
X0034925Y0093831D01*
X0037993Y0096900D01*
X0038996Y0096900D01*
X0053456Y0105058D02*
X0053456Y0137152D01*
X0054239Y0137935D01*
X0055710Y0137935D01*
X0058425Y0140650D01*
X0061140Y0142935D02*
X0062611Y0142935D01*
X0072611Y0132935D01*
X0082061Y0132935D01*
X0086219Y0128777D01*
X0086219Y0074191D01*
X0084904Y0072877D01*
X0084904Y0043423D01*
X0086900Y0041427D01*
X0086900Y0040650D01*
X0088554Y0038996D01*
X0090650Y0038996D01*
X0090650Y0032304D02*
X0090246Y0031900D01*
X0085650Y0031900D01*
X0055650Y0032304D02*
X0055246Y0031900D01*
X0050650Y0031900D01*
X0052304Y0038996D02*
X0055650Y0038996D01*
X0052304Y0038996D02*
X0049400Y0041900D01*
X0049400Y0079114D01*
X0051219Y0080933D01*
X0064683Y0093831D02*
X0053456Y0105058D01*
X0064683Y0093831D02*
X0069925Y0093831D01*
X0072521Y0096428D01*
X0073996Y0096428D01*
X0083150Y0098248D02*
X0083150Y0090246D01*
X0083150Y0098248D02*
X0072837Y0108561D01*
X0072837Y0122708D01*
X0062611Y0132935D01*
X0061140Y0132935D01*
X0058425Y0135650D01*
X0061140Y0142935D02*
X0058425Y0145650D01*
X0036587Y0123958D02*
X0027611Y0132935D01*
X0026140Y0132935D01*
X0023425Y0135650D01*
X0088456Y0137152D02*
X0088456Y0105058D01*
X0099683Y0093831D01*
X0105928Y0093831D01*
X0108996Y0096900D01*
X0118150Y0098248D02*
X0118150Y0090246D01*
X0118150Y0098248D02*
X0107837Y0108561D01*
X0107837Y0122708D01*
X0097611Y0132935D01*
X0096140Y0132935D01*
X0093425Y0135650D01*
X0090710Y0137935D02*
X0089239Y0137935D01*
X0088456Y0137152D01*
X0090710Y0137935D02*
X0093425Y0140650D01*
X0096140Y0142935D02*
X0097611Y0142935D01*
X0107611Y0132935D01*
X0117061Y0132935D01*
X0121900Y0128095D01*
X0121900Y0045246D01*
X0121900Y0038554D02*
X0121900Y0034400D01*
X0119400Y0031900D01*
X0132833Y0129193D02*
X0155967Y0129193D01*
X0156540Y0129767D01*
X0159326Y0129767D01*
X0159970Y0130411D01*
X0159970Y0133094D01*
X0159326Y0133738D01*
X0156540Y0133738D01*
X0155967Y0134311D01*
X0156540Y0134885D01*
X0159326Y0134885D01*
X0159970Y0135529D01*
X0159970Y0140771D01*
X0159326Y0141415D01*
X0156540Y0141415D01*
X0155967Y0141989D01*
X0096140Y0142935D02*
X0093425Y0145650D01*
D21*
X0089032Y0148435D02*
X0086248Y0145650D01*
X0077875Y0145650D01*
X0065603Y0145650D01*
X0062818Y0148435D01*
X0054032Y0148435D01*
X0051248Y0145650D01*
X0042875Y0145650D01*
X0042875Y0130650D02*
X0037204Y0130650D01*
X0036900Y0130346D01*
X0042875Y0130650D02*
X0042875Y0117294D01*
X0041231Y0115650D01*
X0032569Y0115650D02*
X0032304Y0115384D01*
X0032304Y0096900D01*
X0038996Y0096900D02*
X0038996Y0095871D01*
X0026900Y0083775D01*
X0023150Y0080025D01*
X0023150Y0079400D01*
X0025650Y0076900D01*
X0026900Y0076900D01*
X0030650Y0076900D01*
X0030950Y0077200D01*
X0030950Y0080550D01*
X0034400Y0080650D02*
X0034400Y0084400D01*
X0034400Y0080650D02*
X0038150Y0080650D01*
X0038150Y0076900D01*
X0034400Y0076900D01*
X0035650Y0075650D01*
X0035650Y0069961D01*
X0019370Y0053681D01*
X0019370Y0046851D01*
X0024400Y0054400D02*
X0027589Y0054400D01*
X0035650Y0046339D01*
X0054370Y0046851D02*
X0054370Y0053120D01*
X0070650Y0069400D01*
X0070650Y0069961D01*
X0070650Y0075650D01*
X0069400Y0076900D01*
X0069400Y0080650D01*
X0073150Y0080650D01*
X0073150Y0076900D01*
X0069400Y0076900D02*
X0065650Y0076900D01*
X0065950Y0077200D01*
X0065950Y0080550D01*
X0065125Y0080550D01*
X0061969Y0083706D01*
X0061969Y0084400D02*
X0073996Y0096428D01*
X0073996Y0096900D01*
X0067304Y0096900D02*
X0067304Y0115384D01*
X0067304Y0121772D01*
X0058425Y0130650D01*
X0071900Y0129400D02*
X0073150Y0130650D01*
X0077875Y0130650D01*
X0077875Y0117294D01*
X0076231Y0115650D01*
X0067569Y0115650D02*
X0067304Y0115384D01*
X0093425Y0130650D02*
X0102569Y0121506D01*
X0102569Y0115650D01*
X0102569Y0109735D01*
X0102304Y0109469D01*
X0102304Y0096900D01*
X0108996Y0096900D02*
X0096969Y0084872D01*
X0096969Y0084400D01*
X0096969Y0083706D02*
X0101275Y0079400D01*
X0101900Y0079400D01*
X0100650Y0078150D01*
X0094400Y0078150D01*
X0098150Y0075650D02*
X0098450Y0075950D01*
X0102200Y0075950D01*
X0101900Y0075650D01*
X0105025Y0075650D01*
X0105650Y0075025D01*
X0105650Y0079400D01*
X0109400Y0079400D01*
X0109400Y0075650D01*
X0105650Y0075650D01*
X0105650Y0069961D01*
X0105650Y0069400D01*
X0089370Y0053120D01*
X0089370Y0046851D01*
X0094400Y0054400D02*
X0097589Y0054400D01*
X0105650Y0046339D01*
X0130650Y0018150D02*
X0138554Y0026054D01*
X0138554Y0040650D01*
X0153452Y0055548D01*
X0155967Y0058063D01*
X0155967Y0129193D01*
X0168900Y0140225D02*
X0168900Y0079550D01*
X0168900Y0051421D01*
X0173150Y0047171D01*
X0173150Y0043150D01*
X0175650Y0043150D01*
X0175650Y0041629D01*
X0168900Y0034879D01*
X0168900Y0021421D01*
X0176571Y0013750D01*
X0197928Y0013750D01*
X0207328Y0023150D01*
X0215650Y0023150D01*
X0195650Y0023150D02*
X0195650Y0163150D01*
X0235650Y0203150D01*
X0168900Y0140225D02*
X0159533Y0149593D01*
X0152401Y0149593D01*
X0149915Y0147107D01*
X0132833Y0147107D01*
X0128330Y0132373D02*
X0128330Y0130204D01*
X0129267Y0129267D01*
X0132760Y0129267D01*
X0132833Y0129193D01*
X0128330Y0132373D02*
X0115052Y0145650D01*
X0112875Y0145650D01*
X0100603Y0145650D01*
X0097818Y0148435D01*
X0089032Y0148435D01*
X0106900Y0130346D02*
X0112571Y0130346D01*
X0112875Y0130650D01*
X0112875Y0117294D01*
X0111231Y0115650D01*
X0105650Y0083150D02*
X0101900Y0079400D01*
X0102200Y0079300D02*
X0102200Y0075950D01*
X0102200Y0079300D02*
X0105550Y0079300D01*
X0105650Y0079400D01*
X0105650Y0083150D01*
X0069400Y0084400D02*
X0069400Y0080650D01*
X0069300Y0080550D01*
X0065950Y0080550D01*
X0065650Y0076900D02*
X0061900Y0076900D01*
X0059400Y0079400D01*
X0058150Y0079400D01*
X0034400Y0076900D02*
X0027525Y0083775D01*
X0026900Y0083775D01*
X0059400Y0054400D02*
X0062589Y0054400D01*
X0070650Y0046339D01*
X0145246Y0040650D02*
X0150650Y0035246D01*
X0150650Y0018150D01*
X0175650Y0023150D02*
X0195650Y0023150D01*
X0175650Y0023150D02*
X0175650Y0033150D01*
X0032569Y0115650D02*
X0032569Y0121506D01*
X0023425Y0130650D01*
D22*
X0037650Y0144350D02*
X0041250Y0140750D01*
X0042450Y0140750D01*
X0042875Y0140650D01*
X0037650Y0144350D02*
X0037650Y0146750D01*
X0041250Y0150350D01*
X0098850Y0150350D01*
X0100050Y0149150D01*
X0119850Y0149150D01*
X0124050Y0144950D01*
X0132450Y0144950D01*
X0132833Y0144548D01*
X0132833Y0141989D02*
X0133050Y0141950D01*
X0137250Y0141950D01*
X0142050Y0137150D01*
X0142050Y0134150D01*
X0143250Y0131750D02*
X0138450Y0131750D01*
X0137850Y0132350D01*
X0133050Y0132350D01*
X0132833Y0131752D01*
X0132833Y0134311D02*
X0132450Y0134750D01*
X0129450Y0134750D01*
X0124650Y0139550D01*
X0124650Y0140750D01*
X0125250Y0143750D02*
X0121650Y0143750D01*
X0125250Y0143750D02*
X0129450Y0139550D01*
X0132450Y0139550D01*
X0132833Y0139430D01*
X0132833Y0136870D02*
X0133050Y0136550D01*
X0139050Y0136550D01*
X0143250Y0131750D02*
X0148650Y0137150D01*
X0132833Y0147107D02*
X0131850Y0147350D01*
X0127650Y0147350D01*
X0120450Y0135350D02*
X0113250Y0135350D01*
X0112875Y0135650D01*
X0112875Y0140650D02*
X0112650Y0140750D01*
X0106650Y0140750D01*
X0085650Y0135950D02*
X0078450Y0135950D01*
X0077875Y0135650D01*
X0077875Y0140650D02*
X0078450Y0140750D01*
X0080250Y0142550D01*
X0083850Y0142550D01*
X0050850Y0135350D02*
X0043050Y0135350D01*
X0042875Y0135650D01*
X0022650Y0151550D02*
X0167850Y0151550D01*
X0172650Y0146750D01*
X0179850Y0146750D01*
X0182250Y0144350D01*
X0182250Y0099950D01*
X0175650Y0093350D01*
X0175650Y0093150D01*
X0183450Y0090950D02*
X0175650Y0083150D01*
X0179850Y0079550D02*
X0168900Y0079550D01*
X0179850Y0079550D02*
X0184650Y0084350D01*
X0184650Y0159950D01*
X0235650Y0210950D01*
X0235650Y0213150D01*
X0173250Y0147950D02*
X0168450Y0152750D01*
X0022050Y0152750D01*
X0014250Y0144950D01*
X0014250Y0101750D01*
X0016650Y0099350D01*
X0016650Y0069950D01*
X0016811Y0069449D01*
X0019050Y0069350D02*
X0019050Y0066350D01*
X0014850Y0062150D01*
X0014850Y0043550D01*
X0016050Y0042350D01*
X0022650Y0042350D01*
X0022650Y0038150D01*
X0022650Y0042350D02*
X0024450Y0044150D01*
X0024450Y0046550D01*
X0024489Y0046851D01*
X0024450Y0069350D02*
X0022050Y0069350D01*
X0021930Y0069449D01*
X0021450Y0069950D01*
X0021450Y0077150D01*
X0018450Y0080150D01*
X0018450Y0087350D01*
X0025050Y0093950D01*
X0016650Y0102950D02*
X0016650Y0145550D01*
X0022650Y0151550D01*
X0088050Y0089750D02*
X0089250Y0090950D01*
X0088050Y0089750D02*
X0088050Y0080150D01*
X0091650Y0076550D01*
X0091650Y0069950D01*
X0091930Y0069449D01*
X0092250Y0069350D01*
X0094050Y0069350D01*
X0094489Y0069449D01*
X0089850Y0069350D02*
X0089370Y0069449D01*
X0089850Y0069350D02*
X0089850Y0058550D01*
X0086811Y0069449D02*
X0086850Y0069950D01*
X0086850Y0072350D01*
X0089250Y0074750D01*
X0082650Y0078950D02*
X0082650Y0083150D01*
X0083150Y0083554D01*
X0059489Y0069449D02*
X0059250Y0069350D01*
X0057450Y0069350D01*
X0056930Y0069449D01*
X0056850Y0069950D01*
X0056850Y0072350D01*
X0053250Y0075950D01*
X0047850Y0080150D02*
X0046650Y0078950D01*
X0047850Y0080150D02*
X0047850Y0083150D01*
X0048150Y0083554D01*
X0051811Y0069449D02*
X0052050Y0069350D01*
X0052050Y0062750D01*
X0054450Y0057950D02*
X0054450Y0069350D01*
X0054370Y0069449D01*
X0059489Y0046851D02*
X0059850Y0046550D01*
X0059850Y0038150D01*
X0094650Y0038150D02*
X0095250Y0037550D01*
X0094650Y0038150D02*
X0094650Y0046550D01*
X0094489Y0046851D01*
X0118050Y0078950D02*
X0118050Y0083150D01*
X0118150Y0083554D01*
X0153452Y0055548D02*
X0169050Y0039950D01*
X0183450Y0090950D02*
X0183450Y0144950D01*
X0180450Y0147950D01*
X0173250Y0147950D01*
X0024489Y0069449D02*
X0024450Y0069350D01*
X0019370Y0069449D02*
X0019050Y0069350D01*
D23*
X0026900Y0076900D03*
X0030650Y0076900D03*
X0030950Y0080550D03*
X0034400Y0080650D03*
X0038150Y0080650D03*
X0038150Y0076900D03*
X0034400Y0076900D03*
X0034400Y0084400D03*
X0025050Y0093950D03*
X0016650Y0102950D03*
X0023150Y0079400D03*
X0046650Y0078950D03*
X0053250Y0075950D03*
X0058150Y0079400D03*
X0061900Y0076900D03*
X0065650Y0076900D03*
X0069400Y0076900D03*
X0069400Y0080650D03*
X0065950Y0080550D03*
X0069400Y0084400D03*
X0073150Y0080650D03*
X0073150Y0076900D03*
X0082650Y0078950D03*
X0089250Y0074750D03*
X0094400Y0078150D03*
X0098150Y0075650D03*
X0101900Y0075650D03*
X0105650Y0075650D03*
X0105650Y0079400D03*
X0102200Y0079300D03*
X0105650Y0083150D03*
X0109400Y0079400D03*
X0109400Y0075650D03*
X0118050Y0078950D03*
X0089250Y0090950D03*
X0052050Y0062750D03*
X0054450Y0057950D03*
X0059850Y0038150D03*
X0050650Y0031900D03*
X0022650Y0038150D03*
X0085650Y0031900D03*
X0095250Y0037550D03*
X0089850Y0058550D03*
X0119400Y0031900D03*
X0169050Y0039950D03*
X0106900Y0130346D03*
X0106650Y0140750D03*
X0120450Y0135350D03*
X0124650Y0140750D03*
X0121650Y0143750D03*
X0127650Y0147350D03*
X0139050Y0136550D03*
X0142050Y0134150D03*
X0137850Y0132350D03*
X0148650Y0137150D03*
X0085650Y0135950D03*
X0083850Y0142550D03*
X0071900Y0129400D03*
X0050850Y0135350D03*
X0036900Y0130346D03*
D24*
X0026900Y0083775D02*
X0035650Y0075025D01*
X0035650Y0069961D01*
X0035650Y0046339D02*
X0035650Y0020650D01*
X0070650Y0020650D02*
X0070650Y0046339D01*
X0070650Y0069961D02*
X0070650Y0075025D01*
X0061969Y0083706D01*
X0061969Y0084400D01*
X0096969Y0084400D02*
X0096969Y0083706D01*
X0105650Y0075025D01*
X0105650Y0069961D01*
X0105650Y0046339D02*
X0105650Y0020650D01*
D25*
X0004785Y0005976D02*
X0003775Y0007326D01*
X0002967Y0008805D01*
X0002378Y0010383D01*
X0002020Y0012030D01*
X0001900Y0013711D01*
X0001900Y0224400D01*
X0001931Y0224122D01*
X0002024Y0223858D01*
X0002173Y0223621D01*
X0002371Y0223423D01*
X0002608Y0223274D01*
X0002872Y0223181D01*
X0003150Y0223150D01*
X0011412Y0223150D01*
X0009700Y0222162D01*
X0006589Y0219051D01*
X0006589Y0219051D01*
X0004389Y0215240D01*
X0003250Y0210990D01*
X0003250Y0015261D01*
X0004389Y0011011D01*
X0006589Y0007200D01*
X0009700Y0004089D01*
X0009700Y0004089D01*
X0009700Y0004089D01*
X0013460Y0001918D01*
X0012030Y0002020D01*
X0010383Y0002378D01*
X0008805Y0002967D01*
X0007326Y0003775D01*
X0005976Y0004785D01*
X0004785Y0005976D01*
X0004504Y0006351D02*
X0007438Y0006351D01*
X0006589Y0007200D02*
X0006589Y0007200D01*
X0006041Y0008150D02*
X0003325Y0008150D01*
X0002541Y0009949D02*
X0005002Y0009949D01*
X0004192Y0011747D02*
X0002082Y0011747D01*
X0001912Y0013546D02*
X0003710Y0013546D01*
X0003250Y0015344D02*
X0001900Y0015344D01*
X0001900Y0017143D02*
X0003250Y0017143D01*
X0003250Y0018941D02*
X0001900Y0018941D01*
X0001900Y0020740D02*
X0003250Y0020740D01*
X0003250Y0022538D02*
X0001900Y0022538D01*
X0001900Y0024337D02*
X0003250Y0024337D01*
X0003250Y0026135D02*
X0001900Y0026135D01*
X0001900Y0027934D02*
X0003250Y0027934D01*
X0003250Y0029732D02*
X0001900Y0029732D01*
X0001900Y0031531D02*
X0003250Y0031531D01*
X0003250Y0033329D02*
X0001900Y0033329D01*
X0001900Y0035128D02*
X0003250Y0035128D01*
X0003250Y0036926D02*
X0001900Y0036926D01*
X0001900Y0038725D02*
X0003250Y0038725D01*
X0003250Y0040523D02*
X0001900Y0040523D01*
X0001900Y0042322D02*
X0003250Y0042322D01*
X0003250Y0044120D02*
X0001900Y0044120D01*
X0001900Y0045919D02*
X0003250Y0045919D01*
X0003250Y0047717D02*
X0001900Y0047717D01*
X0001900Y0049516D02*
X0003250Y0049516D01*
X0003250Y0051314D02*
X0001900Y0051314D01*
X0001900Y0053113D02*
X0003250Y0053113D01*
X0003250Y0054911D02*
X0001900Y0054911D01*
X0001900Y0056710D02*
X0003250Y0056710D01*
X0003250Y0058508D02*
X0001900Y0058508D01*
X0001900Y0060307D02*
X0003250Y0060307D01*
X0003250Y0062105D02*
X0001900Y0062105D01*
X0001900Y0063904D02*
X0003250Y0063904D01*
X0003250Y0065702D02*
X0001900Y0065702D01*
X0001900Y0067501D02*
X0003250Y0067501D01*
X0003250Y0069299D02*
X0001900Y0069299D01*
X0001900Y0071098D02*
X0003250Y0071098D01*
X0003250Y0072896D02*
X0001900Y0072896D01*
X0001900Y0074695D02*
X0003250Y0074695D01*
X0003250Y0076493D02*
X0001900Y0076493D01*
X0001900Y0078292D02*
X0003250Y0078292D01*
X0003250Y0080090D02*
X0001900Y0080090D01*
X0001900Y0081889D02*
X0003250Y0081889D01*
X0003250Y0083687D02*
X0001900Y0083687D01*
X0001900Y0085486D02*
X0003250Y0085486D01*
X0003250Y0087284D02*
X0001900Y0087284D01*
X0001900Y0089083D02*
X0003250Y0089083D01*
X0003250Y0090882D02*
X0001900Y0090882D01*
X0001900Y0092680D02*
X0003250Y0092680D01*
X0003250Y0094479D02*
X0001900Y0094479D01*
X0001900Y0096277D02*
X0003250Y0096277D01*
X0003250Y0098076D02*
X0001900Y0098076D01*
X0001900Y0099874D02*
X0003250Y0099874D01*
X0003250Y0101673D02*
X0001900Y0101673D01*
X0001900Y0103471D02*
X0003250Y0103471D01*
X0003250Y0105270D02*
X0001900Y0105270D01*
X0001900Y0107068D02*
X0003250Y0107068D01*
X0003250Y0108867D02*
X0001900Y0108867D01*
X0001900Y0110665D02*
X0003250Y0110665D01*
X0003250Y0112464D02*
X0001900Y0112464D01*
X0001900Y0114262D02*
X0003250Y0114262D01*
X0003250Y0116061D02*
X0001900Y0116061D01*
X0001900Y0117859D02*
X0003250Y0117859D01*
X0003250Y0119658D02*
X0001900Y0119658D01*
X0001900Y0121456D02*
X0003250Y0121456D01*
X0003250Y0123255D02*
X0001900Y0123255D01*
X0001900Y0125053D02*
X0003250Y0125053D01*
X0003250Y0126852D02*
X0001900Y0126852D01*
X0001900Y0128650D02*
X0003250Y0128650D01*
X0003250Y0130449D02*
X0001900Y0130449D01*
X0001900Y0132247D02*
X0003250Y0132247D01*
X0003250Y0134046D02*
X0001900Y0134046D01*
X0001900Y0135844D02*
X0003250Y0135844D01*
X0003250Y0137643D02*
X0001900Y0137643D01*
X0001900Y0139441D02*
X0003250Y0139441D01*
X0003250Y0141240D02*
X0001900Y0141240D01*
X0001900Y0143038D02*
X0003250Y0143038D01*
X0003250Y0144837D02*
X0001900Y0144837D01*
X0001900Y0146635D02*
X0003250Y0146635D01*
X0003250Y0148434D02*
X0001900Y0148434D01*
X0001900Y0150232D02*
X0003250Y0150232D01*
X0003250Y0152031D02*
X0001900Y0152031D01*
X0001900Y0153829D02*
X0003250Y0153829D01*
X0003250Y0155628D02*
X0001900Y0155628D01*
X0001900Y0157426D02*
X0003250Y0157426D01*
X0003250Y0159225D02*
X0001900Y0159225D01*
X0001900Y0161023D02*
X0003250Y0161023D01*
X0003250Y0162822D02*
X0001900Y0162822D01*
X0001900Y0164620D02*
X0003250Y0164620D01*
X0003250Y0166419D02*
X0001900Y0166419D01*
X0001900Y0168218D02*
X0003250Y0168218D01*
X0003250Y0170016D02*
X0001900Y0170016D01*
X0001900Y0171815D02*
X0003250Y0171815D01*
X0003250Y0173613D02*
X0001900Y0173613D01*
X0001900Y0175412D02*
X0003250Y0175412D01*
X0003250Y0177210D02*
X0001900Y0177210D01*
X0001900Y0179009D02*
X0003250Y0179009D01*
X0003250Y0180807D02*
X0001900Y0180807D01*
X0001900Y0182606D02*
X0003250Y0182606D01*
X0003250Y0184404D02*
X0001900Y0184404D01*
X0001900Y0186203D02*
X0003250Y0186203D01*
X0003250Y0188001D02*
X0001900Y0188001D01*
X0001900Y0189800D02*
X0003250Y0189800D01*
X0003250Y0191598D02*
X0001900Y0191598D01*
X0001900Y0193397D02*
X0003250Y0193397D01*
X0003250Y0195195D02*
X0001900Y0195195D01*
X0001900Y0196994D02*
X0003250Y0196994D01*
X0003250Y0198792D02*
X0001900Y0198792D01*
X0001900Y0200591D02*
X0003250Y0200591D01*
X0003250Y0202389D02*
X0001900Y0202389D01*
X0001900Y0204188D02*
X0003250Y0204188D01*
X0003250Y0205986D02*
X0001900Y0205986D01*
X0001900Y0207785D02*
X0003250Y0207785D01*
X0003250Y0209583D02*
X0001900Y0209583D01*
X0001900Y0211382D02*
X0003355Y0211382D01*
X0003837Y0213180D02*
X0001900Y0213180D01*
X0001900Y0214979D02*
X0004319Y0214979D01*
X0005276Y0216777D02*
X0001900Y0216777D01*
X0001900Y0218576D02*
X0006315Y0218576D01*
X0007913Y0220374D02*
X0001900Y0220374D01*
X0001900Y0222173D02*
X0009719Y0222173D01*
X0009700Y0222162D02*
X0009700Y0222162D01*
X0001984Y0223971D02*
X0001900Y0223971D01*
X0013050Y0200469D02*
X0014015Y0199503D01*
X0016479Y0198081D01*
X0019227Y0197344D01*
X0022073Y0197344D01*
X0024821Y0198081D01*
X0027285Y0199503D01*
X0029297Y0201515D01*
X0030719Y0203979D01*
X0031455Y0206727D01*
X0031455Y0209573D01*
X0030719Y0212321D01*
X0029297Y0214785D01*
X0028380Y0215701D01*
X0169863Y0215701D01*
X0169621Y0215458D01*
X0169000Y0213961D01*
X0169000Y0212339D01*
X0169621Y0210842D01*
X0170767Y0209696D01*
X0172265Y0209075D01*
X0179035Y0209075D01*
X0180533Y0209696D01*
X0181679Y0210842D01*
X0182300Y0212339D01*
X0182300Y0213961D01*
X0181679Y0215458D01*
X0181437Y0215701D01*
X0229863Y0215701D01*
X0229621Y0215458D01*
X0229000Y0213961D01*
X0229000Y0212339D01*
X0229621Y0210842D01*
X0230767Y0209696D01*
X0231533Y0209378D01*
X0183904Y0161750D01*
X0182850Y0160696D01*
X0182850Y0148096D01*
X0181196Y0149750D01*
X0180587Y0149750D01*
X0181679Y0150842D01*
X0182300Y0152339D01*
X0182300Y0153961D01*
X0181679Y0155458D01*
X0180533Y0156604D01*
X0179035Y0157225D01*
X0172265Y0157225D01*
X0170767Y0156604D01*
X0169621Y0155458D01*
X0169230Y0154515D01*
X0169196Y0154550D01*
X0021304Y0154550D01*
X0020250Y0153496D01*
X0013050Y0146296D01*
X0013050Y0200469D01*
X0013050Y0198792D02*
X0015247Y0198792D01*
X0013050Y0196994D02*
X0171707Y0196994D01*
X0172265Y0197225D02*
X0170767Y0196604D01*
X0169621Y0195458D01*
X0169000Y0193961D01*
X0169000Y0192339D01*
X0169621Y0190842D01*
X0170767Y0189696D01*
X0172265Y0189075D01*
X0179035Y0189075D01*
X0180533Y0189696D01*
X0181679Y0190842D01*
X0182300Y0192339D01*
X0182300Y0193961D01*
X0181679Y0195458D01*
X0180533Y0196604D01*
X0179035Y0197225D01*
X0172265Y0197225D01*
X0172265Y0199075D02*
X0170767Y0199696D01*
X0169621Y0200842D01*
X0169000Y0202339D01*
X0169000Y0203961D01*
X0169621Y0205458D01*
X0170767Y0206604D01*
X0172265Y0207225D01*
X0179035Y0207225D01*
X0180533Y0206604D01*
X0181679Y0205458D01*
X0182300Y0203961D01*
X0182300Y0202339D01*
X0181679Y0200842D01*
X0180533Y0199696D01*
X0179035Y0199075D01*
X0172265Y0199075D01*
X0169872Y0200591D02*
X0028372Y0200591D01*
X0029801Y0202389D02*
X0169000Y0202389D01*
X0169095Y0204188D02*
X0030775Y0204188D01*
X0031257Y0205986D02*
X0170149Y0205986D01*
X0171038Y0209583D02*
X0031453Y0209583D01*
X0031455Y0207785D02*
X0229939Y0207785D01*
X0231038Y0209583D02*
X0180262Y0209583D01*
X0181903Y0211382D02*
X0229397Y0211382D01*
X0229000Y0213180D02*
X0182300Y0213180D01*
X0181878Y0214979D02*
X0229422Y0214979D01*
X0236321Y0209075D02*
X0239035Y0209075D01*
X0240533Y0209696D01*
X0241679Y0210842D01*
X0242300Y0212339D01*
X0242300Y0213961D01*
X0241920Y0214877D01*
X0242967Y0214273D01*
X0244243Y0212997D01*
X0245145Y0211434D01*
X0245612Y0209692D01*
X0245671Y0208790D01*
X0245671Y0017461D01*
X0245612Y0016559D01*
X0245145Y0014816D01*
X0244243Y0013254D01*
X0242967Y0011978D01*
X0241405Y0011076D01*
X0239662Y0010609D01*
X0238760Y0010550D01*
X0154587Y0010550D01*
X0155228Y0011191D01*
X0156050Y0013176D01*
X0156050Y0023124D01*
X0155228Y0025109D01*
X0153709Y0026628D01*
X0153150Y0026859D01*
X0153150Y0035744D01*
X0152769Y0036663D01*
X0152066Y0037366D01*
X0148912Y0040520D01*
X0148912Y0043240D01*
X0148033Y0044118D01*
X0145558Y0044118D01*
X0153947Y0052508D01*
X0166061Y0040393D01*
X0166061Y0039355D01*
X0166516Y0038257D01*
X0167357Y0037416D01*
X0167742Y0037257D01*
X0166781Y0036295D01*
X0166400Y0035377D01*
X0166400Y0020923D01*
X0166781Y0020005D01*
X0175155Y0011631D01*
X0176074Y0011250D01*
X0198425Y0011250D01*
X0199344Y0011631D01*
X0200048Y0012334D01*
X0208364Y0020650D01*
X0210250Y0020650D01*
X0210250Y0018176D01*
X0211072Y0016191D01*
X0212591Y0014672D01*
X0214576Y0013850D01*
X0216724Y0013850D01*
X0218709Y0014672D01*
X0220228Y0016191D01*
X0221050Y0018176D01*
X0221050Y0028124D01*
X0220228Y0030109D01*
X0218709Y0031628D01*
X0216724Y0032450D01*
X0214576Y0032450D01*
X0212591Y0031628D01*
X0211072Y0030109D01*
X0210250Y0028124D01*
X0210250Y0025650D01*
X0206831Y0025650D01*
X0205912Y0025269D01*
X0205209Y0024566D01*
X0201050Y0020407D01*
X0201050Y0028124D01*
X0200228Y0030109D01*
X0198709Y0031628D01*
X0198150Y0031859D01*
X0198150Y0162114D01*
X0229000Y0192965D01*
X0229000Y0192339D01*
X0229621Y0190842D01*
X0230767Y0189696D01*
X0232265Y0189075D01*
X0239035Y0189075D01*
X0240533Y0189696D01*
X0241679Y0190842D01*
X0242300Y0192339D01*
X0242300Y0193961D01*
X0241679Y0195458D01*
X0240533Y0196604D01*
X0239035Y0197225D01*
X0233260Y0197225D01*
X0235111Y0199075D01*
X0239035Y0199075D01*
X0240533Y0199696D01*
X0241679Y0200842D01*
X0242300Y0202339D01*
X0242300Y0203961D01*
X0241679Y0205458D01*
X0240533Y0206604D01*
X0239035Y0207225D01*
X0234470Y0207225D01*
X0236321Y0209075D01*
X0235030Y0207785D02*
X0245671Y0207785D01*
X0245671Y0205986D02*
X0241151Y0205986D01*
X0242205Y0204188D02*
X0245671Y0204188D01*
X0245671Y0202389D02*
X0242300Y0202389D01*
X0241428Y0200591D02*
X0245671Y0200591D01*
X0245671Y0198792D02*
X0234828Y0198792D01*
X0239593Y0196994D02*
X0245671Y0196994D01*
X0245671Y0195195D02*
X0241788Y0195195D01*
X0242300Y0193397D02*
X0245671Y0193397D01*
X0245671Y0191598D02*
X0241993Y0191598D01*
X0240637Y0189800D02*
X0245671Y0189800D01*
X0245671Y0188001D02*
X0224037Y0188001D01*
X0225835Y0189800D02*
X0230663Y0189800D01*
X0229307Y0191598D02*
X0227634Y0191598D01*
X0224160Y0195195D02*
X0222441Y0195195D01*
X0222361Y0193397D02*
X0220642Y0193397D01*
X0220563Y0191598D02*
X0218844Y0191598D01*
X0218764Y0189800D02*
X0217045Y0189800D01*
X0216966Y0188001D02*
X0215247Y0188001D01*
X0215167Y0186203D02*
X0213448Y0186203D01*
X0213369Y0184404D02*
X0211650Y0184404D01*
X0211570Y0182606D02*
X0209851Y0182606D01*
X0209772Y0180807D02*
X0208053Y0180807D01*
X0207973Y0179009D02*
X0206254Y0179009D01*
X0206175Y0177210D02*
X0204456Y0177210D01*
X0204376Y0175412D02*
X0202657Y0175412D01*
X0202578Y0173613D02*
X0200859Y0173613D01*
X0200779Y0171815D02*
X0199060Y0171815D01*
X0198980Y0170016D02*
X0197262Y0170016D01*
X0197182Y0168218D02*
X0195463Y0168218D01*
X0195383Y0166419D02*
X0193665Y0166419D01*
X0194234Y0165269D02*
X0193531Y0164566D01*
X0193150Y0163647D01*
X0193150Y0031859D01*
X0192591Y0031628D01*
X0191072Y0030109D01*
X0190250Y0028124D01*
X0190250Y0025650D01*
X0181487Y0025650D01*
X0180533Y0026604D01*
X0179035Y0027225D01*
X0178150Y0027225D01*
X0178150Y0029075D01*
X0179035Y0029075D01*
X0180533Y0029696D01*
X0181679Y0030842D01*
X0182300Y0032339D01*
X0182300Y0033961D01*
X0181679Y0035458D01*
X0180533Y0036604D01*
X0179035Y0037225D01*
X0174781Y0037225D01*
X0176632Y0039075D01*
X0179035Y0039075D01*
X0180533Y0039696D01*
X0181679Y0040842D01*
X0182300Y0042339D01*
X0182300Y0043961D01*
X0181679Y0045458D01*
X0180533Y0046604D01*
X0179035Y0047225D01*
X0175650Y0047225D01*
X0175650Y0047668D01*
X0175269Y0048587D01*
X0174781Y0049075D01*
X0179035Y0049075D01*
X0180533Y0049696D01*
X0181679Y0050842D01*
X0182300Y0052339D01*
X0182300Y0053961D01*
X0181679Y0055458D01*
X0180533Y0056604D01*
X0179035Y0057225D01*
X0172265Y0057225D01*
X0171400Y0056867D01*
X0171400Y0059433D01*
X0172265Y0059075D01*
X0179035Y0059075D01*
X0180533Y0059696D01*
X0181679Y0060842D01*
X0182300Y0062339D01*
X0182300Y0063961D01*
X0181679Y0065458D01*
X0180533Y0066604D01*
X0179035Y0067225D01*
X0172265Y0067225D01*
X0171400Y0066867D01*
X0171400Y0069433D01*
X0172265Y0069075D01*
X0179035Y0069075D01*
X0180533Y0069696D01*
X0181679Y0070842D01*
X0182300Y0072339D01*
X0182300Y0073961D01*
X0181679Y0075458D01*
X0180533Y0076604D01*
X0179035Y0077225D01*
X0172265Y0077225D01*
X0171400Y0076867D01*
X0171400Y0077750D01*
X0180596Y0077750D01*
X0181650Y0078804D01*
X0186450Y0083604D01*
X0186450Y0159204D01*
X0229172Y0201926D01*
X0229621Y0200842D01*
X0229714Y0200749D01*
X0194234Y0165269D01*
X0193585Y0164620D02*
X0191866Y0164620D01*
X0193150Y0162822D02*
X0190068Y0162822D01*
X0188269Y0161023D02*
X0193150Y0161023D01*
X0193150Y0159225D02*
X0186471Y0159225D01*
X0186450Y0157426D02*
X0193150Y0157426D01*
X0193150Y0155628D02*
X0186450Y0155628D01*
X0186450Y0153829D02*
X0193150Y0153829D01*
X0193150Y0152031D02*
X0186450Y0152031D01*
X0186450Y0150232D02*
X0193150Y0150232D01*
X0193150Y0148434D02*
X0186450Y0148434D01*
X0186450Y0146635D02*
X0193150Y0146635D01*
X0193150Y0144837D02*
X0186450Y0144837D01*
X0186450Y0143038D02*
X0193150Y0143038D01*
X0193150Y0141240D02*
X0186450Y0141240D01*
X0186450Y0139441D02*
X0193150Y0139441D01*
X0193150Y0137643D02*
X0186450Y0137643D01*
X0186450Y0135844D02*
X0193150Y0135844D01*
X0193150Y0134046D02*
X0186450Y0134046D01*
X0186450Y0132247D02*
X0193150Y0132247D01*
X0193150Y0130449D02*
X0186450Y0130449D01*
X0186450Y0128650D02*
X0193150Y0128650D01*
X0193150Y0126852D02*
X0186450Y0126852D01*
X0186450Y0125053D02*
X0193150Y0125053D01*
X0193150Y0123255D02*
X0186450Y0123255D01*
X0186450Y0121456D02*
X0193150Y0121456D01*
X0193150Y0119658D02*
X0186450Y0119658D01*
X0186450Y0117859D02*
X0193150Y0117859D01*
X0193150Y0116061D02*
X0186450Y0116061D01*
X0186450Y0114262D02*
X0193150Y0114262D01*
X0193150Y0112464D02*
X0186450Y0112464D01*
X0186450Y0110665D02*
X0193150Y0110665D01*
X0193150Y0108867D02*
X0186450Y0108867D01*
X0186450Y0107068D02*
X0193150Y0107068D01*
X0193150Y0105270D02*
X0186450Y0105270D01*
X0186450Y0103471D02*
X0193150Y0103471D01*
X0193150Y0101673D02*
X0186450Y0101673D01*
X0186450Y0099874D02*
X0193150Y0099874D01*
X0193150Y0098076D02*
X0186450Y0098076D01*
X0186450Y0096277D02*
X0193150Y0096277D01*
X0193150Y0094479D02*
X0186450Y0094479D01*
X0186450Y0092680D02*
X0193150Y0092680D01*
X0193150Y0090882D02*
X0186450Y0090882D01*
X0186450Y0089083D02*
X0193150Y0089083D01*
X0193150Y0087284D02*
X0186450Y0087284D01*
X0186450Y0085486D02*
X0193150Y0085486D01*
X0193150Y0083687D02*
X0186450Y0083687D01*
X0184735Y0081889D02*
X0193150Y0081889D01*
X0193150Y0080090D02*
X0182936Y0080090D01*
X0181138Y0078292D02*
X0193150Y0078292D01*
X0193150Y0076493D02*
X0180644Y0076493D01*
X0181995Y0074695D02*
X0193150Y0074695D01*
X0193150Y0072896D02*
X0182300Y0072896D01*
X0181785Y0071098D02*
X0193150Y0071098D01*
X0193150Y0069299D02*
X0179577Y0069299D01*
X0181435Y0065702D02*
X0193150Y0065702D01*
X0193150Y0063904D02*
X0182300Y0063904D01*
X0182203Y0062105D02*
X0193150Y0062105D01*
X0193150Y0060307D02*
X0181144Y0060307D01*
X0180279Y0056710D02*
X0193150Y0056710D01*
X0193150Y0058508D02*
X0171400Y0058508D01*
X0166400Y0058508D02*
X0158467Y0058508D01*
X0158467Y0057566D02*
X0158467Y0126807D01*
X0159492Y0126807D01*
X0160370Y0127686D01*
X0160370Y0127982D01*
X0161326Y0128938D01*
X0161970Y0129582D01*
X0161970Y0133922D01*
X0161581Y0134311D01*
X0161970Y0134701D01*
X0161970Y0141599D01*
X0161326Y0142244D01*
X0160370Y0143199D01*
X0160370Y0145220D01*
X0166400Y0139190D01*
X0166400Y0050923D01*
X0166781Y0050005D01*
X0167484Y0049301D01*
X0167484Y0049301D01*
X0170474Y0046312D01*
X0169621Y0045458D01*
X0169000Y0043961D01*
X0169000Y0042939D01*
X0168607Y0042939D01*
X0156492Y0055053D01*
X0158086Y0056647D01*
X0158467Y0057566D01*
X0158112Y0056710D02*
X0166400Y0056710D01*
X0166400Y0054911D02*
X0156634Y0054911D01*
X0158433Y0053113D02*
X0166400Y0053113D01*
X0166400Y0051314D02*
X0160231Y0051314D01*
X0162030Y0049516D02*
X0167270Y0049516D01*
X0169068Y0047717D02*
X0163828Y0047717D01*
X0165627Y0045919D02*
X0170081Y0045919D01*
X0169067Y0044120D02*
X0167425Y0044120D01*
X0164133Y0042322D02*
X0148912Y0042322D01*
X0148912Y0040523D02*
X0165931Y0040523D01*
X0166322Y0038725D02*
X0150707Y0038725D01*
X0152506Y0036926D02*
X0167412Y0036926D01*
X0166400Y0035128D02*
X0153150Y0035128D01*
X0153150Y0033329D02*
X0166400Y0033329D01*
X0166400Y0031531D02*
X0153150Y0031531D01*
X0153150Y0029732D02*
X0166400Y0029732D01*
X0166400Y0027934D02*
X0153150Y0027934D01*
X0154202Y0026135D02*
X0166400Y0026135D01*
X0166400Y0024337D02*
X0155548Y0024337D01*
X0156050Y0022538D02*
X0166400Y0022538D01*
X0166477Y0020740D02*
X0156050Y0020740D01*
X0156050Y0018941D02*
X0167845Y0018941D01*
X0169643Y0017143D02*
X0156050Y0017143D01*
X0156050Y0015344D02*
X0171442Y0015344D01*
X0173240Y0013546D02*
X0156050Y0013546D01*
X0155458Y0011747D02*
X0175039Y0011747D01*
X0177607Y0016250D02*
X0174781Y0019075D01*
X0179035Y0019075D01*
X0180533Y0019696D01*
X0181487Y0020650D01*
X0190250Y0020650D01*
X0190250Y0018176D01*
X0191048Y0016250D01*
X0177607Y0016250D01*
X0176714Y0017143D02*
X0190678Y0017143D01*
X0190250Y0018941D02*
X0174916Y0018941D01*
X0171400Y0026867D02*
X0171400Y0029433D01*
X0172265Y0029075D01*
X0173150Y0029075D01*
X0173150Y0027225D01*
X0172265Y0027225D01*
X0171400Y0026867D01*
X0171400Y0027934D02*
X0173150Y0027934D01*
X0178150Y0027934D02*
X0190250Y0027934D01*
X0190250Y0026135D02*
X0181002Y0026135D01*
X0180570Y0029732D02*
X0190916Y0029732D01*
X0192494Y0031531D02*
X0181965Y0031531D01*
X0182300Y0033329D02*
X0193150Y0033329D01*
X0193150Y0035128D02*
X0181816Y0035128D01*
X0179756Y0036926D02*
X0193150Y0036926D01*
X0193150Y0038725D02*
X0176281Y0038725D01*
X0181361Y0040523D02*
X0193150Y0040523D01*
X0193150Y0042322D02*
X0182292Y0042322D01*
X0182233Y0044120D02*
X0193150Y0044120D01*
X0193150Y0045919D02*
X0181219Y0045919D01*
X0180099Y0049516D02*
X0193150Y0049516D01*
X0193150Y0051314D02*
X0181875Y0051314D01*
X0182300Y0053113D02*
X0193150Y0053113D01*
X0193150Y0054911D02*
X0181906Y0054911D01*
X0175630Y0047717D02*
X0193150Y0047717D01*
X0198150Y0047717D02*
X0245671Y0047717D01*
X0245671Y0045919D02*
X0241219Y0045919D01*
X0241679Y0045458D02*
X0240533Y0046604D01*
X0239035Y0047225D01*
X0232265Y0047225D01*
X0230767Y0046604D01*
X0229621Y0045458D01*
X0229000Y0043961D01*
X0229000Y0042339D01*
X0229621Y0040842D01*
X0230767Y0039696D01*
X0232265Y0039075D01*
X0239035Y0039075D01*
X0240533Y0039696D01*
X0241679Y0040842D01*
X0242300Y0042339D01*
X0242300Y0043961D01*
X0241679Y0045458D01*
X0242233Y0044120D02*
X0245671Y0044120D01*
X0245671Y0042322D02*
X0242292Y0042322D01*
X0241361Y0040523D02*
X0245671Y0040523D01*
X0245671Y0038725D02*
X0198150Y0038725D01*
X0198150Y0040523D02*
X0229939Y0040523D01*
X0229008Y0042322D02*
X0198150Y0042322D01*
X0198150Y0044120D02*
X0229067Y0044120D01*
X0230081Y0045919D02*
X0198150Y0045919D01*
X0198150Y0049516D02*
X0231201Y0049516D01*
X0230767Y0049696D02*
X0232265Y0049075D01*
X0239035Y0049075D01*
X0240533Y0049696D01*
X0241679Y0050842D01*
X0242300Y0052339D01*
X0242300Y0053961D01*
X0241679Y0055458D01*
X0240533Y0056604D01*
X0239035Y0057225D01*
X0232265Y0057225D01*
X0230767Y0056604D01*
X0229621Y0055458D01*
X0229000Y0053961D01*
X0229000Y0052339D01*
X0229621Y0050842D01*
X0230767Y0049696D01*
X0229425Y0051314D02*
X0198150Y0051314D01*
X0198150Y0053113D02*
X0229000Y0053113D01*
X0229394Y0054911D02*
X0198150Y0054911D01*
X0198150Y0056710D02*
X0231021Y0056710D01*
X0232265Y0059075D02*
X0230767Y0059696D01*
X0229621Y0060842D01*
X0229000Y0062339D01*
X0229000Y0063961D01*
X0229621Y0065458D01*
X0230767Y0066604D01*
X0232265Y0067225D01*
X0239035Y0067225D01*
X0240533Y0066604D01*
X0241679Y0065458D01*
X0242300Y0063961D01*
X0242300Y0062339D01*
X0241679Y0060842D01*
X0240533Y0059696D01*
X0239035Y0059075D01*
X0232265Y0059075D01*
X0230156Y0060307D02*
X0198150Y0060307D01*
X0198150Y0062105D02*
X0229097Y0062105D01*
X0229000Y0063904D02*
X0198150Y0063904D01*
X0198150Y0065702D02*
X0229865Y0065702D01*
X0231723Y0069299D02*
X0198150Y0069299D01*
X0198150Y0067501D02*
X0245671Y0067501D01*
X0245671Y0069299D02*
X0239577Y0069299D01*
X0239035Y0069075D02*
X0240533Y0069696D01*
X0241679Y0070842D01*
X0242300Y0072339D01*
X0242300Y0073961D01*
X0241679Y0075458D01*
X0240533Y0076604D01*
X0239035Y0077225D01*
X0232265Y0077225D01*
X0230767Y0076604D01*
X0229621Y0075458D01*
X0229000Y0073961D01*
X0229000Y0072339D01*
X0229621Y0070842D01*
X0230767Y0069696D01*
X0232265Y0069075D01*
X0239035Y0069075D01*
X0241785Y0071098D02*
X0245671Y0071098D01*
X0245671Y0072896D02*
X0242300Y0072896D01*
X0241995Y0074695D02*
X0245671Y0074695D01*
X0245671Y0076493D02*
X0240644Y0076493D01*
X0239035Y0079075D02*
X0240533Y0079696D01*
X0241679Y0080842D01*
X0242300Y0082339D01*
X0242300Y0083961D01*
X0241679Y0085458D01*
X0240533Y0086604D01*
X0239035Y0087225D01*
X0232265Y0087225D01*
X0230767Y0086604D01*
X0229621Y0085458D01*
X0229000Y0083961D01*
X0229000Y0082339D01*
X0229621Y0080842D01*
X0230767Y0079696D01*
X0232265Y0079075D01*
X0239035Y0079075D01*
X0240928Y0080090D02*
X0245671Y0080090D01*
X0245671Y0078292D02*
X0198150Y0078292D01*
X0198150Y0080090D02*
X0230372Y0080090D01*
X0229187Y0081889D02*
X0198150Y0081889D01*
X0198150Y0083687D02*
X0229000Y0083687D01*
X0229649Y0085486D02*
X0198150Y0085486D01*
X0198150Y0087284D02*
X0245671Y0087284D01*
X0245671Y0085486D02*
X0241651Y0085486D01*
X0242300Y0083687D02*
X0245671Y0083687D01*
X0245671Y0081889D02*
X0242113Y0081889D01*
X0239054Y0089083D02*
X0245671Y0089083D01*
X0245671Y0090882D02*
X0241696Y0090882D01*
X0241679Y0090842D02*
X0242300Y0092339D01*
X0242300Y0093961D01*
X0241679Y0095458D01*
X0240533Y0096604D01*
X0239035Y0097225D01*
X0232265Y0097225D01*
X0230767Y0096604D01*
X0229621Y0095458D01*
X0229000Y0093961D01*
X0229000Y0092339D01*
X0229621Y0090842D01*
X0230767Y0089696D01*
X0232265Y0089075D01*
X0239035Y0089075D01*
X0240533Y0089696D01*
X0241679Y0090842D01*
X0242300Y0092680D02*
X0245671Y0092680D01*
X0245671Y0094479D02*
X0242085Y0094479D01*
X0240860Y0096277D02*
X0245671Y0096277D01*
X0245671Y0098076D02*
X0198150Y0098076D01*
X0198150Y0099874D02*
X0230588Y0099874D01*
X0230767Y0099696D02*
X0232265Y0099075D01*
X0239035Y0099075D01*
X0240533Y0099696D01*
X0241679Y0100842D01*
X0242300Y0102339D01*
X0242300Y0103961D01*
X0241679Y0105458D01*
X0240533Y0106604D01*
X0239035Y0107225D01*
X0232265Y0107225D01*
X0230767Y0106604D01*
X0229621Y0105458D01*
X0229000Y0103961D01*
X0229000Y0102339D01*
X0229621Y0100842D01*
X0230767Y0099696D01*
X0229277Y0101673D02*
X0198150Y0101673D01*
X0198150Y0103471D02*
X0229000Y0103471D01*
X0229543Y0105270D02*
X0198150Y0105270D01*
X0198150Y0107068D02*
X0231886Y0107068D01*
X0232265Y0109075D02*
X0230767Y0109696D01*
X0229621Y0110842D01*
X0229000Y0112339D01*
X0229000Y0113961D01*
X0229621Y0115458D01*
X0230767Y0116604D01*
X0232265Y0117225D01*
X0239035Y0117225D01*
X0240533Y0116604D01*
X0241679Y0115458D01*
X0242300Y0113961D01*
X0242300Y0112339D01*
X0241679Y0110842D01*
X0240533Y0109696D01*
X0239035Y0109075D01*
X0232265Y0109075D01*
X0229797Y0110665D02*
X0198150Y0110665D01*
X0198150Y0108867D02*
X0245671Y0108867D01*
X0245671Y0110665D02*
X0241503Y0110665D01*
X0242300Y0112464D02*
X0245671Y0112464D01*
X0245671Y0114262D02*
X0242175Y0114262D01*
X0241077Y0116061D02*
X0245671Y0116061D01*
X0245671Y0117859D02*
X0198150Y0117859D01*
X0198150Y0116061D02*
X0230223Y0116061D01*
X0229125Y0114262D02*
X0198150Y0114262D01*
X0198150Y0112464D02*
X0229000Y0112464D01*
X0232265Y0119075D02*
X0230767Y0119696D01*
X0229621Y0120842D01*
X0229000Y0122339D01*
X0229000Y0123961D01*
X0229621Y0125458D01*
X0230767Y0126604D01*
X0232265Y0127225D01*
X0239035Y0127225D01*
X0240533Y0126604D01*
X0241679Y0125458D01*
X0242300Y0123961D01*
X0242300Y0122339D01*
X0241679Y0120842D01*
X0240533Y0119696D01*
X0239035Y0119075D01*
X0232265Y0119075D01*
X0230858Y0119658D02*
X0198150Y0119658D01*
X0198150Y0121456D02*
X0229366Y0121456D01*
X0229000Y0123255D02*
X0198150Y0123255D01*
X0198150Y0125053D02*
X0229453Y0125053D01*
X0231364Y0126852D02*
X0198150Y0126852D01*
X0198150Y0128650D02*
X0245671Y0128650D01*
X0245671Y0126852D02*
X0239936Y0126852D01*
X0239035Y0129075D02*
X0240533Y0129696D01*
X0241679Y0130842D01*
X0242300Y0132339D01*
X0242300Y0133961D01*
X0241679Y0135458D01*
X0240533Y0136604D01*
X0239035Y0137225D01*
X0232265Y0137225D01*
X0230767Y0136604D01*
X0229621Y0135458D01*
X0229000Y0133961D01*
X0229000Y0132339D01*
X0229621Y0130842D01*
X0230767Y0129696D01*
X0232265Y0129075D01*
X0239035Y0129075D01*
X0241286Y0130449D02*
X0245671Y0130449D01*
X0245671Y0132247D02*
X0242261Y0132247D01*
X0242264Y0134046D02*
X0245671Y0134046D01*
X0245671Y0135844D02*
X0241293Y0135844D01*
X0239919Y0139441D02*
X0245671Y0139441D01*
X0245671Y0137643D02*
X0198150Y0137643D01*
X0198150Y0139441D02*
X0231381Y0139441D01*
X0230767Y0139696D02*
X0232265Y0139075D01*
X0239035Y0139075D01*
X0240533Y0139696D01*
X0241679Y0140842D01*
X0242300Y0142339D01*
X0242300Y0143961D01*
X0241679Y0145458D01*
X0240533Y0146604D01*
X0239035Y0147225D01*
X0232265Y0147225D01*
X0230767Y0146604D01*
X0229621Y0145458D01*
X0229000Y0143961D01*
X0229000Y0142339D01*
X0229621Y0140842D01*
X0230767Y0139696D01*
X0229456Y0141240D02*
X0198150Y0141240D01*
X0198150Y0143038D02*
X0229000Y0143038D01*
X0229363Y0144837D02*
X0198150Y0144837D01*
X0198150Y0146635D02*
X0230842Y0146635D01*
X0232265Y0149075D02*
X0230767Y0149696D01*
X0229621Y0150842D01*
X0229000Y0152339D01*
X0229000Y0153961D01*
X0229621Y0155458D01*
X0230767Y0156604D01*
X0232265Y0157225D01*
X0239035Y0157225D01*
X0240533Y0156604D01*
X0241679Y0155458D01*
X0242300Y0153961D01*
X0242300Y0152339D01*
X0241679Y0150842D01*
X0240533Y0149696D01*
X0239035Y0149075D01*
X0232265Y0149075D01*
X0230230Y0150232D02*
X0198150Y0150232D01*
X0198150Y0148434D02*
X0245671Y0148434D01*
X0245671Y0150232D02*
X0241070Y0150232D01*
X0242172Y0152031D02*
X0245671Y0152031D01*
X0245671Y0153829D02*
X0242300Y0153829D01*
X0241509Y0155628D02*
X0245671Y0155628D01*
X0245671Y0157426D02*
X0198150Y0157426D01*
X0198150Y0155628D02*
X0229790Y0155628D01*
X0229000Y0153829D02*
X0198150Y0153829D01*
X0198150Y0152031D02*
X0229128Y0152031D01*
X0231903Y0159225D02*
X0198150Y0159225D01*
X0198150Y0161023D02*
X0229545Y0161023D01*
X0229621Y0160842D02*
X0230767Y0159696D01*
X0232265Y0159075D01*
X0239035Y0159075D01*
X0240533Y0159696D01*
X0241679Y0160842D01*
X0242300Y0162339D01*
X0242300Y0163961D01*
X0241679Y0165458D01*
X0240533Y0166604D01*
X0239035Y0167225D01*
X0232265Y0167225D01*
X0230767Y0166604D01*
X0229621Y0165458D01*
X0229000Y0163961D01*
X0229000Y0162339D01*
X0229621Y0160842D01*
X0229000Y0162822D02*
X0198857Y0162822D01*
X0200656Y0164620D02*
X0229274Y0164620D01*
X0230582Y0166419D02*
X0202455Y0166419D01*
X0204253Y0168218D02*
X0245671Y0168218D01*
X0245671Y0170016D02*
X0240853Y0170016D01*
X0240533Y0169696D02*
X0241679Y0170842D01*
X0242300Y0172339D01*
X0242300Y0173961D01*
X0241679Y0175458D01*
X0240533Y0176604D01*
X0239035Y0177225D01*
X0232265Y0177225D01*
X0230767Y0176604D01*
X0229621Y0175458D01*
X0229000Y0173961D01*
X0229000Y0172339D01*
X0229621Y0170842D01*
X0230767Y0169696D01*
X0232265Y0169075D01*
X0239035Y0169075D01*
X0240533Y0169696D01*
X0242082Y0171815D02*
X0245671Y0171815D01*
X0245671Y0173613D02*
X0242300Y0173613D01*
X0241699Y0175412D02*
X0245671Y0175412D01*
X0245671Y0177210D02*
X0239071Y0177210D01*
X0239035Y0179075D02*
X0240533Y0179696D01*
X0241679Y0180842D01*
X0242300Y0182339D01*
X0242300Y0183961D01*
X0241679Y0185458D01*
X0240533Y0186604D01*
X0239035Y0187225D01*
X0232265Y0187225D01*
X0230767Y0186604D01*
X0229621Y0185458D01*
X0229000Y0183961D01*
X0229000Y0182339D01*
X0229621Y0180842D01*
X0230767Y0179696D01*
X0232265Y0179075D01*
X0239035Y0179075D01*
X0241645Y0180807D02*
X0245671Y0180807D01*
X0245671Y0179009D02*
X0215044Y0179009D01*
X0216843Y0180807D02*
X0229655Y0180807D01*
X0229000Y0182606D02*
X0218641Y0182606D01*
X0220440Y0184404D02*
X0229184Y0184404D01*
X0230365Y0186203D02*
X0222238Y0186203D01*
X0215551Y0193397D02*
X0182300Y0193397D01*
X0181993Y0191598D02*
X0213753Y0191598D01*
X0211954Y0189800D02*
X0180637Y0189800D01*
X0179035Y0187225D02*
X0172265Y0187225D01*
X0170767Y0186604D01*
X0169621Y0185458D01*
X0169000Y0183961D01*
X0169000Y0182339D01*
X0169621Y0180842D01*
X0170767Y0179696D01*
X0172265Y0179075D01*
X0179035Y0179075D01*
X0180533Y0179696D01*
X0181679Y0180842D01*
X0182300Y0182339D01*
X0182300Y0183961D01*
X0181679Y0185458D01*
X0180533Y0186604D01*
X0179035Y0187225D01*
X0180935Y0186203D02*
X0208357Y0186203D01*
X0210156Y0188001D02*
X0013050Y0188001D01*
X0013050Y0186203D02*
X0170365Y0186203D01*
X0169184Y0184404D02*
X0013050Y0184404D01*
X0013050Y0182606D02*
X0169000Y0182606D01*
X0169655Y0180807D02*
X0013050Y0180807D01*
X0013050Y0179009D02*
X0201163Y0179009D01*
X0202962Y0180807D02*
X0181645Y0180807D01*
X0182300Y0182606D02*
X0204760Y0182606D01*
X0206559Y0184404D02*
X0182116Y0184404D01*
X0179071Y0177210D02*
X0199364Y0177210D01*
X0197566Y0175412D02*
X0181699Y0175412D01*
X0181679Y0175458D02*
X0180533Y0176604D01*
X0179035Y0177225D01*
X0172265Y0177225D01*
X0170767Y0176604D01*
X0169621Y0175458D01*
X0169000Y0173961D01*
X0169000Y0172339D01*
X0169621Y0170842D01*
X0170767Y0169696D01*
X0172265Y0169075D01*
X0179035Y0169075D01*
X0180533Y0169696D01*
X0181679Y0170842D01*
X0182300Y0172339D01*
X0182300Y0173961D01*
X0181679Y0175458D01*
X0182300Y0173613D02*
X0195767Y0173613D01*
X0193969Y0171815D02*
X0182082Y0171815D01*
X0180853Y0170016D02*
X0192170Y0170016D01*
X0190372Y0168218D02*
X0013050Y0168218D01*
X0013050Y0170016D02*
X0170447Y0170016D01*
X0169218Y0171815D02*
X0013050Y0171815D01*
X0013050Y0173613D02*
X0169000Y0173613D01*
X0169601Y0175412D02*
X0013050Y0175412D01*
X0013050Y0177210D02*
X0172229Y0177210D01*
X0172265Y0167225D02*
X0170767Y0166604D01*
X0169621Y0165458D01*
X0169000Y0163961D01*
X0169000Y0162339D01*
X0169621Y0160842D01*
X0170767Y0159696D01*
X0172265Y0159075D01*
X0179035Y0159075D01*
X0180533Y0159696D01*
X0181679Y0160842D01*
X0182300Y0162339D01*
X0182300Y0163961D01*
X0181679Y0165458D01*
X0180533Y0166604D01*
X0179035Y0167225D01*
X0172265Y0167225D01*
X0170582Y0166419D02*
X0013050Y0166419D01*
X0013050Y0164620D02*
X0169274Y0164620D01*
X0169000Y0162822D02*
X0013050Y0162822D01*
X0013050Y0161023D02*
X0169545Y0161023D01*
X0171903Y0159225D02*
X0013050Y0159225D01*
X0013050Y0157426D02*
X0182850Y0157426D01*
X0182850Y0155628D02*
X0181509Y0155628D01*
X0182300Y0153829D02*
X0182850Y0153829D01*
X0182850Y0152031D02*
X0182172Y0152031D01*
X0182850Y0150232D02*
X0181070Y0150232D01*
X0182512Y0148434D02*
X0182850Y0148434D01*
X0180450Y0139661D02*
X0179035Y0139075D01*
X0172265Y0139075D01*
X0171400Y0139433D01*
X0171400Y0136867D01*
X0172265Y0137225D01*
X0179035Y0137225D01*
X0180450Y0136639D01*
X0180450Y0139661D01*
X0180450Y0139441D02*
X0179919Y0139441D01*
X0180450Y0137643D02*
X0171400Y0137643D01*
X0166400Y0137643D02*
X0161970Y0137643D01*
X0161970Y0139441D02*
X0166149Y0139441D01*
X0164350Y0141240D02*
X0161970Y0141240D01*
X0162552Y0143038D02*
X0160532Y0143038D01*
X0160370Y0144837D02*
X0160753Y0144837D01*
X0164227Y0148434D02*
X0168421Y0148434D01*
X0167104Y0149750D02*
X0170508Y0146346D01*
X0169621Y0145458D01*
X0169000Y0143961D01*
X0169000Y0143661D01*
X0162911Y0149750D01*
X0167104Y0149750D01*
X0166026Y0146635D02*
X0170219Y0146635D01*
X0169363Y0144837D02*
X0167824Y0144837D01*
X0166400Y0135844D02*
X0161970Y0135844D01*
X0161847Y0134046D02*
X0166400Y0134046D01*
X0166400Y0132247D02*
X0161970Y0132247D01*
X0161970Y0130449D02*
X0166400Y0130449D01*
X0166400Y0128650D02*
X0161038Y0128650D01*
X0159536Y0126852D02*
X0166400Y0126852D01*
X0166400Y0125053D02*
X0158467Y0125053D01*
X0158467Y0123255D02*
X0166400Y0123255D01*
X0166400Y0121456D02*
X0158467Y0121456D01*
X0158467Y0119658D02*
X0166400Y0119658D01*
X0166400Y0117859D02*
X0158467Y0117859D01*
X0158467Y0116061D02*
X0166400Y0116061D01*
X0166400Y0114262D02*
X0158467Y0114262D01*
X0158467Y0112464D02*
X0166400Y0112464D01*
X0166400Y0110665D02*
X0158467Y0110665D01*
X0158467Y0108867D02*
X0166400Y0108867D01*
X0166400Y0107068D02*
X0158467Y0107068D01*
X0158467Y0105270D02*
X0166400Y0105270D01*
X0166400Y0103471D02*
X0158467Y0103471D01*
X0158467Y0101673D02*
X0166400Y0101673D01*
X0166400Y0099874D02*
X0158467Y0099874D01*
X0158467Y0098076D02*
X0166400Y0098076D01*
X0166400Y0096277D02*
X0158467Y0096277D01*
X0158467Y0094479D02*
X0166400Y0094479D01*
X0166400Y0092680D02*
X0158467Y0092680D01*
X0158467Y0090882D02*
X0166400Y0090882D01*
X0166400Y0089083D02*
X0158467Y0089083D01*
X0158467Y0087284D02*
X0166400Y0087284D01*
X0166400Y0085486D02*
X0158467Y0085486D01*
X0158467Y0083687D02*
X0166400Y0083687D01*
X0166400Y0081889D02*
X0158467Y0081889D01*
X0158467Y0080090D02*
X0166400Y0080090D01*
X0166400Y0078292D02*
X0158467Y0078292D01*
X0158467Y0076493D02*
X0166400Y0076493D01*
X0166400Y0074695D02*
X0158467Y0074695D01*
X0158467Y0072896D02*
X0166400Y0072896D01*
X0166400Y0071098D02*
X0158467Y0071098D01*
X0158467Y0069299D02*
X0166400Y0069299D01*
X0166400Y0067501D02*
X0158467Y0067501D01*
X0158467Y0065702D02*
X0166400Y0065702D01*
X0166400Y0063904D02*
X0158467Y0063904D01*
X0158467Y0062105D02*
X0166400Y0062105D01*
X0166400Y0060307D02*
X0158467Y0060307D01*
X0153467Y0060307D02*
X0123900Y0060307D01*
X0123900Y0062105D02*
X0153467Y0062105D01*
X0153467Y0063904D02*
X0123900Y0063904D01*
X0123900Y0065702D02*
X0153467Y0065702D01*
X0153467Y0067501D02*
X0123900Y0067501D01*
X0123900Y0069299D02*
X0153467Y0069299D01*
X0153467Y0071098D02*
X0123900Y0071098D01*
X0123900Y0072896D02*
X0153467Y0072896D01*
X0153467Y0074695D02*
X0123900Y0074695D01*
X0123900Y0076493D02*
X0153467Y0076493D01*
X0153467Y0078292D02*
X0123900Y0078292D01*
X0123900Y0080090D02*
X0153467Y0080090D01*
X0153467Y0081889D02*
X0123900Y0081889D01*
X0123900Y0083687D02*
X0153467Y0083687D01*
X0153467Y0085486D02*
X0123900Y0085486D01*
X0123900Y0087284D02*
X0153467Y0087284D01*
X0153467Y0089083D02*
X0123900Y0089083D01*
X0123900Y0090882D02*
X0153467Y0090882D01*
X0153467Y0092680D02*
X0123900Y0092680D01*
X0123900Y0094479D02*
X0153467Y0094479D01*
X0153467Y0096277D02*
X0123900Y0096277D01*
X0123900Y0098076D02*
X0153467Y0098076D01*
X0153467Y0099874D02*
X0123900Y0099874D01*
X0123900Y0101673D02*
X0153467Y0101673D01*
X0153467Y0103471D02*
X0123900Y0103471D01*
X0123900Y0105270D02*
X0153467Y0105270D01*
X0153467Y0107068D02*
X0123900Y0107068D01*
X0123900Y0108867D02*
X0153467Y0108867D01*
X0153467Y0110665D02*
X0123900Y0110665D01*
X0123900Y0112464D02*
X0153467Y0112464D01*
X0153467Y0114262D02*
X0123900Y0114262D01*
X0123900Y0116061D02*
X0153467Y0116061D01*
X0153467Y0117859D02*
X0123900Y0117859D01*
X0123900Y0119658D02*
X0153467Y0119658D01*
X0153467Y0121456D02*
X0123900Y0121456D01*
X0123900Y0123255D02*
X0153467Y0123255D01*
X0153467Y0125053D02*
X0123900Y0125053D01*
X0123900Y0126852D02*
X0128564Y0126852D01*
X0128769Y0126767D02*
X0132159Y0126767D01*
X0132336Y0126693D01*
X0133330Y0126693D01*
X0133606Y0126807D01*
X0136358Y0126807D01*
X0136744Y0127193D01*
X0152056Y0127193D01*
X0152442Y0126807D01*
X0153467Y0126807D01*
X0153467Y0059099D01*
X0152036Y0057668D01*
X0138487Y0044118D01*
X0135767Y0044118D01*
X0134888Y0043240D01*
X0134888Y0038060D01*
X0135767Y0037181D01*
X0136054Y0037181D01*
X0136054Y0027089D01*
X0134651Y0025686D01*
X0133709Y0026628D01*
X0131724Y0027450D01*
X0129576Y0027450D01*
X0127591Y0026628D01*
X0126072Y0025109D01*
X0125250Y0023124D01*
X0125250Y0013176D01*
X0126072Y0011191D01*
X0126713Y0010550D01*
X0112150Y0010550D01*
X0112150Y0014422D01*
X0113280Y0015552D01*
X0114650Y0018860D01*
X0114650Y0048129D01*
X0113280Y0051437D01*
X0110748Y0053969D01*
X0107440Y0055339D01*
X0103860Y0055339D01*
X0101262Y0054263D01*
X0099005Y0056519D01*
X0098086Y0056900D01*
X0096686Y0056900D01*
X0101658Y0061873D01*
X0103860Y0060961D01*
X0107440Y0060961D01*
X0110748Y0062331D01*
X0113280Y0064863D01*
X0114650Y0068171D01*
X0114650Y0076815D01*
X0113280Y0080123D01*
X0105089Y0088314D01*
X0104754Y0089122D01*
X0109063Y0093431D01*
X0111783Y0093431D01*
X0112662Y0094310D01*
X0112662Y0099490D01*
X0111783Y0100368D01*
X0106210Y0100368D01*
X0105650Y0099809D01*
X0105090Y0100368D01*
X0104804Y0100368D01*
X0104804Y0108596D01*
X0105069Y0109237D01*
X0105069Y0112969D01*
X0105159Y0112969D01*
X0105837Y0113647D01*
X0105837Y0107732D01*
X0116150Y0097419D01*
X0116150Y0093912D01*
X0115560Y0093912D01*
X0114681Y0093033D01*
X0114681Y0087460D01*
X0115241Y0086900D01*
X0114681Y0086340D01*
X0114681Y0080767D01*
X0115308Y0080140D01*
X0115061Y0079545D01*
X0115061Y0078355D01*
X0115516Y0077257D01*
X0116357Y0076416D01*
X0117455Y0075961D01*
X0118645Y0075961D01*
X0119743Y0076416D01*
X0119900Y0076573D01*
X0119900Y0048912D01*
X0119310Y0048912D01*
X0118431Y0048033D01*
X0118431Y0042460D01*
X0118991Y0041900D01*
X0118431Y0041340D01*
X0118431Y0035767D01*
X0119309Y0034889D01*
X0118805Y0034889D01*
X0117707Y0034434D01*
X0116866Y0033593D01*
X0116411Y0032495D01*
X0116411Y0031305D01*
X0116866Y0030207D01*
X0117707Y0029366D01*
X0118805Y0028911D01*
X0119995Y0028911D01*
X0121093Y0029366D01*
X0121934Y0030207D01*
X0122389Y0031305D01*
X0122389Y0032061D01*
X0123900Y0033572D01*
X0123900Y0034888D01*
X0124490Y0034888D01*
X0125368Y0035767D01*
X0125368Y0041340D01*
X0124809Y0041900D01*
X0125368Y0042460D01*
X0125368Y0048033D01*
X0124490Y0048912D01*
X0123900Y0048912D01*
X0123900Y0128924D01*
X0122728Y0130095D01*
X0120463Y0132361D01*
X0121045Y0132361D01*
X0122143Y0132816D01*
X0122984Y0133657D01*
X0123138Y0134029D01*
X0125830Y0131337D01*
X0125830Y0129706D01*
X0126210Y0128788D01*
X0127147Y0127850D01*
X0127851Y0127147D01*
X0128769Y0126767D01*
X0126348Y0128650D02*
X0123900Y0128650D01*
X0122375Y0130449D02*
X0125830Y0130449D01*
X0124920Y0132247D02*
X0120577Y0132247D01*
X0118214Y0128953D02*
X0119900Y0127267D01*
X0119900Y0099326D01*
X0109837Y0109389D01*
X0109837Y0112969D01*
X0113821Y0112969D01*
X0114699Y0113848D01*
X0114699Y0115583D01*
X0114994Y0115878D01*
X0115375Y0116797D01*
X0115375Y0127965D01*
X0117226Y0127965D01*
X0118214Y0128953D01*
X0117911Y0128650D02*
X0118517Y0128650D01*
X0119900Y0126852D02*
X0115375Y0126852D01*
X0115375Y0125053D02*
X0119900Y0125053D01*
X0119900Y0123255D02*
X0115375Y0123255D01*
X0115375Y0121456D02*
X0119900Y0121456D01*
X0119900Y0119658D02*
X0115375Y0119658D01*
X0115375Y0117859D02*
X0119900Y0117859D01*
X0119900Y0116061D02*
X0115070Y0116061D01*
X0114699Y0114262D02*
X0119900Y0114262D01*
X0119900Y0112464D02*
X0109837Y0112464D01*
X0109837Y0110665D02*
X0119900Y0110665D01*
X0119900Y0108867D02*
X0110360Y0108867D01*
X0112158Y0107068D02*
X0119900Y0107068D01*
X0119900Y0105270D02*
X0113957Y0105270D01*
X0115755Y0103471D02*
X0119900Y0103471D01*
X0119900Y0101673D02*
X0117554Y0101673D01*
X0119352Y0099874D02*
X0119900Y0099874D01*
X0115494Y0098076D02*
X0112662Y0098076D01*
X0112662Y0096277D02*
X0116150Y0096277D01*
X0116150Y0094479D02*
X0112662Y0094479D01*
X0114681Y0092680D02*
X0108312Y0092680D01*
X0106513Y0090882D02*
X0114681Y0090882D01*
X0114681Y0089083D02*
X0104770Y0089083D01*
X0106118Y0087284D02*
X0114857Y0087284D01*
X0114681Y0085486D02*
X0107917Y0085486D01*
X0109715Y0083687D02*
X0114681Y0083687D01*
X0114681Y0081889D02*
X0111514Y0081889D01*
X0113293Y0080090D02*
X0115287Y0080090D01*
X0115087Y0078292D02*
X0114038Y0078292D01*
X0114650Y0076493D02*
X0116280Y0076493D01*
X0114650Y0074695D02*
X0119900Y0074695D01*
X0119900Y0076493D02*
X0119820Y0076493D01*
X0119900Y0072896D02*
X0114650Y0072896D01*
X0114650Y0071098D02*
X0119900Y0071098D01*
X0119900Y0069299D02*
X0114650Y0069299D01*
X0114372Y0067501D02*
X0119900Y0067501D01*
X0119900Y0065702D02*
X0113628Y0065702D01*
X0112321Y0063904D02*
X0119900Y0063904D01*
X0119900Y0062105D02*
X0110203Y0062105D01*
X0108473Y0054911D02*
X0119900Y0054911D01*
X0119900Y0053113D02*
X0111604Y0053113D01*
X0113331Y0051314D02*
X0119900Y0051314D01*
X0119900Y0049516D02*
X0114076Y0049516D01*
X0114650Y0047717D02*
X0118431Y0047717D01*
X0118431Y0045919D02*
X0114650Y0045919D01*
X0114650Y0044120D02*
X0118431Y0044120D01*
X0118570Y0042322D02*
X0114650Y0042322D01*
X0114650Y0040523D02*
X0118431Y0040523D01*
X0118431Y0038725D02*
X0114650Y0038725D01*
X0114650Y0036926D02*
X0118431Y0036926D01*
X0119071Y0035128D02*
X0114650Y0035128D01*
X0114650Y0033329D02*
X0116757Y0033329D01*
X0116411Y0031531D02*
X0114650Y0031531D01*
X0114650Y0029732D02*
X0117341Y0029732D01*
X0114650Y0027934D02*
X0136054Y0027934D01*
X0136054Y0029732D02*
X0121459Y0029732D01*
X0122389Y0031531D02*
X0136054Y0031531D01*
X0136054Y0033329D02*
X0123658Y0033329D01*
X0124729Y0035128D02*
X0136054Y0035128D01*
X0136054Y0036926D02*
X0125368Y0036926D01*
X0125368Y0038725D02*
X0134888Y0038725D01*
X0134888Y0040523D02*
X0125368Y0040523D01*
X0125230Y0042322D02*
X0134888Y0042322D01*
X0138488Y0044120D02*
X0125368Y0044120D01*
X0125368Y0045919D02*
X0140287Y0045919D01*
X0142085Y0047717D02*
X0125368Y0047717D01*
X0123900Y0049516D02*
X0143884Y0049516D01*
X0145682Y0051314D02*
X0123900Y0051314D01*
X0123900Y0053113D02*
X0147481Y0053113D01*
X0149279Y0054911D02*
X0123900Y0054911D01*
X0123900Y0056710D02*
X0151078Y0056710D01*
X0152876Y0058508D02*
X0123900Y0058508D01*
X0119900Y0058508D02*
X0098294Y0058508D01*
X0098545Y0056710D02*
X0119900Y0056710D01*
X0119900Y0060307D02*
X0100092Y0060307D01*
X0096618Y0063904D02*
X0091650Y0063904D01*
X0091650Y0064859D02*
X0095799Y0064859D01*
X0096796Y0065856D01*
X0096796Y0067819D01*
X0097890Y0065176D01*
X0092552Y0059837D01*
X0092384Y0060243D01*
X0091650Y0060977D01*
X0091650Y0064859D01*
X0091650Y0062105D02*
X0094820Y0062105D01*
X0093021Y0060307D02*
X0092320Y0060307D01*
X0088050Y0060977D02*
X0088050Y0064859D01*
X0086904Y0064859D01*
X0086904Y0059249D01*
X0087316Y0060243D01*
X0088050Y0060977D01*
X0087380Y0060307D02*
X0086904Y0060307D01*
X0086904Y0062105D02*
X0088050Y0062105D01*
X0088050Y0063904D02*
X0086904Y0063904D01*
X0082904Y0063904D02*
X0077321Y0063904D01*
X0078280Y0064863D02*
X0075748Y0062331D01*
X0072440Y0060961D01*
X0068860Y0060961D01*
X0066658Y0061873D01*
X0061686Y0056900D01*
X0063086Y0056900D01*
X0064005Y0056519D01*
X0066262Y0054263D01*
X0068860Y0055339D01*
X0072440Y0055339D01*
X0075748Y0053969D01*
X0078280Y0051437D01*
X0079650Y0048129D01*
X0079650Y0018860D01*
X0078280Y0015552D01*
X0077150Y0014422D01*
X0077150Y0010550D01*
X0099150Y0010550D01*
X0099150Y0014422D01*
X0098020Y0015552D01*
X0096650Y0018860D01*
X0096650Y0034895D01*
X0095845Y0034561D01*
X0094655Y0034561D01*
X0094118Y0034783D01*
X0094118Y0029517D01*
X0093240Y0028638D01*
X0088060Y0028638D01*
X0087335Y0029363D01*
X0086245Y0028911D01*
X0085055Y0028911D01*
X0083957Y0029366D01*
X0083116Y0030207D01*
X0082661Y0031305D01*
X0082661Y0032495D01*
X0083116Y0033593D01*
X0083957Y0034434D01*
X0085055Y0034889D01*
X0086245Y0034889D01*
X0087181Y0034501D01*
X0087181Y0035090D01*
X0087741Y0035650D01*
X0087181Y0036210D01*
X0087181Y0037540D01*
X0086554Y0038168D01*
X0084900Y0039822D01*
X0084900Y0040599D01*
X0084076Y0041423D01*
X0082904Y0042594D01*
X0082904Y0073706D01*
X0084076Y0074877D01*
X0084219Y0075020D01*
X0084219Y0076364D01*
X0083245Y0075961D01*
X0082055Y0075961D01*
X0080957Y0076416D01*
X0080116Y0077257D01*
X0079661Y0078355D01*
X0079661Y0079545D01*
X0080025Y0080423D01*
X0079681Y0080767D01*
X0079681Y0086340D01*
X0080241Y0086900D01*
X0079681Y0087460D01*
X0079681Y0093033D01*
X0080560Y0093912D01*
X0081150Y0093912D01*
X0081150Y0097419D01*
X0072009Y0106561D01*
X0070837Y0107732D01*
X0070837Y0113647D01*
X0070159Y0112969D01*
X0069804Y0112969D01*
X0069804Y0100368D01*
X0070090Y0100368D01*
X0070650Y0099809D01*
X0071210Y0100368D01*
X0076783Y0100368D01*
X0077662Y0099490D01*
X0077662Y0094310D01*
X0076783Y0093431D01*
X0074536Y0093431D01*
X0069892Y0088788D01*
X0070089Y0088314D01*
X0078280Y0080123D01*
X0079650Y0076815D01*
X0079650Y0068171D01*
X0078280Y0064863D01*
X0078628Y0065702D02*
X0082904Y0065702D01*
X0082904Y0067501D02*
X0079372Y0067501D01*
X0079650Y0069299D02*
X0082904Y0069299D01*
X0082904Y0071098D02*
X0079650Y0071098D01*
X0079650Y0072896D02*
X0082904Y0072896D01*
X0083894Y0074695D02*
X0079650Y0074695D01*
X0079650Y0076493D02*
X0080880Y0076493D01*
X0079687Y0078292D02*
X0079038Y0078292D01*
X0078293Y0080090D02*
X0079887Y0080090D01*
X0079681Y0081889D02*
X0076514Y0081889D01*
X0074715Y0083687D02*
X0079681Y0083687D01*
X0079681Y0085486D02*
X0072917Y0085486D01*
X0071118Y0087284D02*
X0079857Y0087284D01*
X0079681Y0089083D02*
X0070187Y0089083D01*
X0071986Y0090882D02*
X0079681Y0090882D01*
X0079681Y0092680D02*
X0073784Y0092680D01*
X0077662Y0094479D02*
X0081150Y0094479D01*
X0081150Y0096277D02*
X0077662Y0096277D01*
X0077662Y0098076D02*
X0080494Y0098076D01*
X0078695Y0099874D02*
X0077278Y0099874D01*
X0076897Y0101673D02*
X0069804Y0101673D01*
X0069804Y0103471D02*
X0075098Y0103471D01*
X0073300Y0105270D02*
X0069804Y0105270D01*
X0069804Y0107068D02*
X0071501Y0107068D01*
X0070837Y0108867D02*
X0069804Y0108867D01*
X0069804Y0110665D02*
X0070837Y0110665D01*
X0070837Y0112464D02*
X0069804Y0112464D01*
X0064804Y0112464D02*
X0055456Y0112464D01*
X0055456Y0114262D02*
X0064101Y0114262D01*
X0064101Y0113848D02*
X0064804Y0113145D01*
X0064804Y0100368D01*
X0064517Y0100368D01*
X0063638Y0099490D01*
X0063638Y0097704D01*
X0055456Y0105886D01*
X0055456Y0127965D01*
X0057575Y0127965D01*
X0064804Y0120736D01*
X0064804Y0118155D01*
X0064101Y0117452D01*
X0064101Y0113848D01*
X0064101Y0116061D02*
X0055456Y0116061D01*
X0055456Y0117859D02*
X0064508Y0117859D01*
X0064804Y0119658D02*
X0055456Y0119658D01*
X0055456Y0121456D02*
X0064083Y0121456D01*
X0062285Y0123255D02*
X0055456Y0123255D01*
X0055456Y0125053D02*
X0060486Y0125053D01*
X0058688Y0126852D02*
X0055456Y0126852D01*
X0051456Y0131367D02*
X0050463Y0132361D01*
X0051445Y0132361D01*
X0051456Y0132366D01*
X0051456Y0131367D01*
X0051456Y0132247D02*
X0050576Y0132247D01*
X0048214Y0128953D02*
X0049219Y0127948D01*
X0049219Y0096258D01*
X0038587Y0106889D01*
X0038587Y0113022D01*
X0038641Y0112969D01*
X0043821Y0112969D01*
X0044699Y0113848D01*
X0044699Y0115583D01*
X0044994Y0115878D01*
X0045375Y0116797D01*
X0045375Y0127965D01*
X0047226Y0127965D01*
X0048214Y0128953D01*
X0047911Y0128650D02*
X0048517Y0128650D01*
X0049219Y0126852D02*
X0045375Y0126852D01*
X0045375Y0125053D02*
X0049219Y0125053D01*
X0049219Y0123255D02*
X0045375Y0123255D01*
X0045375Y0121456D02*
X0049219Y0121456D01*
X0049219Y0119658D02*
X0045375Y0119658D01*
X0045375Y0117859D02*
X0049219Y0117859D01*
X0049219Y0116061D02*
X0045070Y0116061D01*
X0044699Y0114262D02*
X0049219Y0114262D01*
X0049219Y0112464D02*
X0038587Y0112464D01*
X0038587Y0110665D02*
X0049219Y0110665D01*
X0049219Y0108867D02*
X0038587Y0108867D01*
X0038587Y0107068D02*
X0049219Y0107068D01*
X0049219Y0105270D02*
X0040207Y0105270D01*
X0042005Y0103471D02*
X0049219Y0103471D01*
X0049219Y0101673D02*
X0043804Y0101673D01*
X0045602Y0099874D02*
X0049219Y0099874D01*
X0049219Y0098076D02*
X0047401Y0098076D01*
X0049199Y0096277D02*
X0049219Y0096277D01*
X0045908Y0093912D02*
X0045560Y0093912D01*
X0044681Y0093033D01*
X0044681Y0087460D01*
X0045241Y0086900D01*
X0044681Y0086340D01*
X0044681Y0081209D01*
X0044116Y0080643D01*
X0043661Y0079545D01*
X0043661Y0079203D01*
X0043280Y0080123D01*
X0035032Y0088371D01*
X0040092Y0093431D01*
X0041783Y0093431D01*
X0042662Y0094310D01*
X0042662Y0097158D01*
X0045908Y0093912D01*
X0045341Y0094479D02*
X0042662Y0094479D01*
X0042662Y0096277D02*
X0043542Y0096277D01*
X0044681Y0092680D02*
X0039341Y0092680D01*
X0037542Y0090882D02*
X0044681Y0090882D01*
X0044681Y0089083D02*
X0035744Y0089083D01*
X0036118Y0087284D02*
X0044857Y0087284D01*
X0044681Y0085486D02*
X0037917Y0085486D01*
X0039715Y0083687D02*
X0044681Y0083687D01*
X0044681Y0081889D02*
X0041514Y0081889D01*
X0043293Y0080090D02*
X0043887Y0080090D01*
X0044650Y0076723D02*
X0044957Y0076416D01*
X0046055Y0075961D01*
X0047245Y0075961D01*
X0047400Y0076025D01*
X0047400Y0041072D01*
X0050304Y0038168D01*
X0051475Y0036996D01*
X0052181Y0036996D01*
X0052181Y0036210D01*
X0052741Y0035650D01*
X0052181Y0035090D01*
X0052181Y0034501D01*
X0051245Y0034889D01*
X0050055Y0034889D01*
X0048957Y0034434D01*
X0048116Y0033593D01*
X0047661Y0032495D01*
X0047661Y0031305D01*
X0048116Y0030207D01*
X0048957Y0029366D01*
X0050055Y0028911D01*
X0051245Y0028911D01*
X0052335Y0029363D01*
X0053060Y0028638D01*
X0058240Y0028638D01*
X0059118Y0029517D01*
X0059118Y0035090D01*
X0058901Y0035308D01*
X0059255Y0035161D01*
X0060445Y0035161D01*
X0061543Y0035616D01*
X0061650Y0035723D01*
X0061650Y0018860D01*
X0063020Y0015552D01*
X0064150Y0014422D01*
X0064150Y0010550D01*
X0042150Y0010550D01*
X0042150Y0014422D01*
X0043280Y0015552D01*
X0044650Y0018860D01*
X0044650Y0048129D01*
X0043280Y0051437D01*
X0040748Y0053969D01*
X0037440Y0055339D01*
X0033860Y0055339D01*
X0031262Y0054263D01*
X0029005Y0056519D01*
X0028086Y0056900D01*
X0026124Y0056900D01*
X0031262Y0062037D01*
X0033860Y0060961D01*
X0037440Y0060961D01*
X0040748Y0062331D01*
X0043280Y0064863D01*
X0044650Y0068171D01*
X0044650Y0076723D01*
X0044650Y0076493D02*
X0044880Y0076493D01*
X0044650Y0074695D02*
X0047400Y0074695D01*
X0047400Y0072896D02*
X0044650Y0072896D01*
X0044650Y0071098D02*
X0047400Y0071098D01*
X0047400Y0069299D02*
X0044650Y0069299D01*
X0044372Y0067501D02*
X0047400Y0067501D01*
X0047400Y0065702D02*
X0043628Y0065702D01*
X0042321Y0063904D02*
X0047400Y0063904D01*
X0047400Y0062105D02*
X0040203Y0062105D01*
X0038473Y0054911D02*
X0047400Y0054911D01*
X0047400Y0053113D02*
X0041604Y0053113D01*
X0043331Y0051314D02*
X0047400Y0051314D01*
X0047400Y0049516D02*
X0044076Y0049516D01*
X0044650Y0047717D02*
X0047400Y0047717D01*
X0047400Y0045919D02*
X0044650Y0045919D01*
X0044650Y0044120D02*
X0047400Y0044120D01*
X0047400Y0042322D02*
X0044650Y0042322D01*
X0044650Y0040523D02*
X0047948Y0040523D01*
X0049747Y0038725D02*
X0044650Y0038725D01*
X0044650Y0036926D02*
X0052181Y0036926D01*
X0052219Y0035128D02*
X0044650Y0035128D01*
X0044650Y0033329D02*
X0048007Y0033329D01*
X0047661Y0031531D02*
X0044650Y0031531D01*
X0044650Y0029732D02*
X0048591Y0029732D01*
X0044650Y0027934D02*
X0061650Y0027934D01*
X0061650Y0029732D02*
X0059118Y0029732D01*
X0059118Y0031531D02*
X0061650Y0031531D01*
X0061650Y0033329D02*
X0059118Y0033329D01*
X0059081Y0035128D02*
X0061650Y0035128D01*
X0061650Y0040577D02*
X0061650Y0040577D01*
X0061650Y0043111D01*
X0061650Y0043111D01*
X0061650Y0040577D01*
X0061650Y0042322D02*
X0061650Y0042322D01*
X0056930Y0046851D02*
X0056930Y0051930D01*
X0059400Y0054400D01*
X0060294Y0051900D02*
X0061553Y0051900D01*
X0062726Y0050727D01*
X0061796Y0048481D01*
X0061796Y0050444D01*
X0060799Y0051441D01*
X0059835Y0051441D01*
X0060294Y0051900D01*
X0060926Y0051314D02*
X0062139Y0051314D01*
X0062224Y0049516D02*
X0061796Y0049516D01*
X0065613Y0054911D02*
X0067827Y0054911D01*
X0063545Y0056710D02*
X0082904Y0056710D01*
X0082904Y0058508D02*
X0063294Y0058508D01*
X0065092Y0060307D02*
X0082904Y0060307D01*
X0082904Y0062105D02*
X0075203Y0062105D01*
X0073473Y0054911D02*
X0082904Y0054911D01*
X0082904Y0053113D02*
X0076604Y0053113D01*
X0078331Y0051314D02*
X0082904Y0051314D01*
X0082904Y0049516D02*
X0079076Y0049516D01*
X0079650Y0047717D02*
X0082904Y0047717D01*
X0082904Y0045919D02*
X0079650Y0045919D01*
X0079650Y0044120D02*
X0082904Y0044120D01*
X0083177Y0042322D02*
X0079650Y0042322D01*
X0079650Y0040523D02*
X0084900Y0040523D01*
X0085997Y0038725D02*
X0079650Y0038725D01*
X0079650Y0036926D02*
X0087181Y0036926D01*
X0087219Y0035128D02*
X0079650Y0035128D01*
X0079650Y0033329D02*
X0083007Y0033329D01*
X0082661Y0031531D02*
X0079650Y0031531D01*
X0079650Y0029732D02*
X0083591Y0029732D01*
X0079650Y0027934D02*
X0096650Y0027934D01*
X0096650Y0029732D02*
X0094118Y0029732D01*
X0094118Y0031531D02*
X0096650Y0031531D01*
X0096650Y0033329D02*
X0094118Y0033329D01*
X0096650Y0040205D02*
X0096450Y0040288D01*
X0096450Y0042911D01*
X0096650Y0043111D01*
X0096650Y0040205D01*
X0096650Y0040523D02*
X0096450Y0040523D01*
X0096450Y0042322D02*
X0096650Y0042322D01*
X0091930Y0046851D02*
X0091930Y0051930D01*
X0094400Y0054400D01*
X0095294Y0051900D02*
X0096553Y0051900D01*
X0097726Y0050727D01*
X0096796Y0048481D01*
X0096796Y0050444D01*
X0095799Y0051441D01*
X0094835Y0051441D01*
X0095294Y0051900D01*
X0095926Y0051314D02*
X0097139Y0051314D01*
X0097224Y0049516D02*
X0096796Y0049516D01*
X0100613Y0054911D02*
X0102827Y0054911D01*
X0097672Y0065702D02*
X0096642Y0065702D01*
X0096796Y0067501D02*
X0096927Y0067501D01*
X0093907Y0074040D02*
X0093450Y0074040D01*
X0093450Y0074497D01*
X0093907Y0074040D01*
X0086904Y0057851D02*
X0086904Y0053699D01*
X0087251Y0054537D01*
X0087954Y0055240D01*
X0087954Y0055240D01*
X0088563Y0055848D01*
X0088157Y0056016D01*
X0087316Y0056857D01*
X0086904Y0057851D01*
X0086904Y0056710D02*
X0087463Y0056710D01*
X0087626Y0054911D02*
X0086904Y0054911D01*
X0062890Y0065176D02*
X0057093Y0059379D01*
X0056984Y0059643D01*
X0056250Y0060377D01*
X0056250Y0064859D01*
X0060799Y0064859D01*
X0061796Y0065856D01*
X0061796Y0067819D01*
X0062890Y0065176D01*
X0062672Y0065702D02*
X0061642Y0065702D01*
X0061618Y0063904D02*
X0056250Y0063904D01*
X0056250Y0062105D02*
X0059820Y0062105D01*
X0058021Y0060307D02*
X0056320Y0060307D01*
X0052034Y0059761D02*
X0051916Y0059643D01*
X0051461Y0058545D01*
X0051461Y0057355D01*
X0051916Y0056257D01*
X0052757Y0055416D01*
X0053021Y0055307D01*
X0052251Y0054537D01*
X0051870Y0053618D01*
X0051870Y0051441D01*
X0051400Y0051441D01*
X0051400Y0059784D01*
X0051455Y0059761D01*
X0052034Y0059761D01*
X0051461Y0058508D02*
X0051400Y0058508D01*
X0051400Y0056710D02*
X0051728Y0056710D01*
X0051400Y0054911D02*
X0052626Y0054911D01*
X0051870Y0053113D02*
X0051400Y0053113D01*
X0047400Y0056710D02*
X0028545Y0056710D01*
X0027733Y0058508D02*
X0047400Y0058508D01*
X0047400Y0060307D02*
X0029531Y0060307D01*
X0026057Y0063904D02*
X0019149Y0063904D01*
X0019796Y0064550D02*
X0020104Y0064859D01*
X0025799Y0064859D01*
X0026796Y0065856D01*
X0026796Y0067819D01*
X0027726Y0065573D01*
X0017251Y0055098D01*
X0016870Y0054179D01*
X0016870Y0053184D01*
X0016870Y0051441D01*
X0016650Y0051441D01*
X0016650Y0061404D01*
X0019796Y0064550D01*
X0017351Y0062105D02*
X0024259Y0062105D01*
X0022460Y0060307D02*
X0016650Y0060307D01*
X0016650Y0058508D02*
X0020662Y0058508D01*
X0018863Y0056710D02*
X0016650Y0056710D01*
X0016650Y0054911D02*
X0017174Y0054911D01*
X0016870Y0053113D02*
X0016650Y0053113D01*
X0013050Y0053113D02*
X0013050Y0053113D01*
X0013050Y0054911D02*
X0013050Y0054911D01*
X0013050Y0056710D02*
X0013050Y0056710D01*
X0013050Y0058508D02*
X0013050Y0058508D01*
X0013050Y0060307D02*
X0013050Y0060307D01*
X0013050Y0062105D02*
X0013050Y0062105D01*
X0013050Y0062896D02*
X0013050Y0042804D01*
X0014104Y0041750D01*
X0015304Y0040550D01*
X0020823Y0040550D01*
X0020116Y0039843D01*
X0019661Y0038745D01*
X0019661Y0037555D01*
X0020116Y0036457D01*
X0020957Y0035616D01*
X0022055Y0035161D01*
X0023245Y0035161D01*
X0024343Y0035616D01*
X0025184Y0036457D01*
X0025639Y0037555D01*
X0025639Y0038745D01*
X0025184Y0039843D01*
X0024450Y0040577D01*
X0024450Y0041604D01*
X0025106Y0042260D01*
X0025799Y0042260D01*
X0026650Y0043111D01*
X0026650Y0018860D01*
X0028020Y0015552D01*
X0029150Y0014422D01*
X0029150Y0010550D01*
X0019961Y0010550D01*
X0019059Y0010609D01*
X0017316Y0011076D01*
X0015754Y0011978D01*
X0014478Y0013254D01*
X0013576Y0014816D01*
X0013109Y0016559D01*
X0013050Y0017461D01*
X0013050Y0100404D01*
X0013504Y0099950D01*
X0014850Y0098604D01*
X0014850Y0073389D01*
X0014504Y0073043D01*
X0014504Y0065856D01*
X0015257Y0065103D01*
X0013050Y0062896D01*
X0013050Y0063904D02*
X0014058Y0063904D01*
X0014657Y0065702D02*
X0013050Y0065702D01*
X0013050Y0067501D02*
X0014504Y0067501D01*
X0014504Y0069299D02*
X0013050Y0069299D01*
X0013050Y0071098D02*
X0014504Y0071098D01*
X0014504Y0072896D02*
X0013050Y0072896D01*
X0013050Y0074695D02*
X0014850Y0074695D01*
X0014850Y0076493D02*
X0013050Y0076493D01*
X0013050Y0078292D02*
X0014850Y0078292D01*
X0014850Y0080090D02*
X0013050Y0080090D01*
X0013050Y0081889D02*
X0014850Y0081889D01*
X0014850Y0083687D02*
X0013050Y0083687D01*
X0013050Y0085486D02*
X0014850Y0085486D01*
X0014850Y0087284D02*
X0013050Y0087284D01*
X0013050Y0089083D02*
X0014850Y0089083D01*
X0014850Y0090882D02*
X0013050Y0090882D01*
X0013050Y0092680D02*
X0014850Y0092680D01*
X0014850Y0094479D02*
X0013050Y0094479D01*
X0013050Y0096277D02*
X0014850Y0096277D01*
X0014850Y0098076D02*
X0013050Y0098076D01*
X0013050Y0099874D02*
X0013580Y0099874D01*
X0018192Y0100354D02*
X0018343Y0100416D01*
X0019184Y0101257D01*
X0019256Y0101430D01*
X0023954Y0096731D01*
X0023357Y0096484D01*
X0022516Y0095643D01*
X0022061Y0094545D01*
X0022061Y0093507D01*
X0018450Y0089896D01*
X0018450Y0100096D01*
X0018192Y0100354D01*
X0018450Y0099874D02*
X0020812Y0099874D01*
X0022610Y0098076D02*
X0018450Y0098076D01*
X0018450Y0096277D02*
X0023150Y0096277D01*
X0022061Y0094479D02*
X0018450Y0094479D01*
X0018450Y0092680D02*
X0021234Y0092680D01*
X0019436Y0090882D02*
X0018450Y0090882D01*
X0027799Y0092775D02*
X0027911Y0092775D01*
X0027831Y0092854D01*
X0027799Y0092775D01*
X0030968Y0091831D02*
X0031421Y0091831D01*
X0031288Y0091699D01*
X0030968Y0091831D01*
X0028638Y0097704D02*
X0020456Y0105886D01*
X0020456Y0127965D01*
X0022575Y0127965D01*
X0030069Y0120470D01*
X0030069Y0118331D01*
X0029979Y0118331D01*
X0029101Y0117452D01*
X0029101Y0113848D01*
X0029804Y0113145D01*
X0029804Y0100368D01*
X0029517Y0100368D01*
X0028638Y0099490D01*
X0028638Y0097704D01*
X0028638Y0098076D02*
X0028267Y0098076D01*
X0029022Y0099874D02*
X0026468Y0099874D01*
X0024670Y0101673D02*
X0029804Y0101673D01*
X0029804Y0103471D02*
X0022871Y0103471D01*
X0021073Y0105270D02*
X0029804Y0105270D01*
X0029804Y0107068D02*
X0020456Y0107068D01*
X0020456Y0108867D02*
X0029804Y0108867D01*
X0029804Y0110665D02*
X0020456Y0110665D01*
X0020456Y0112464D02*
X0029804Y0112464D01*
X0029101Y0114262D02*
X0020456Y0114262D01*
X0020456Y0116061D02*
X0029101Y0116061D01*
X0029508Y0117859D02*
X0020456Y0117859D01*
X0020456Y0119658D02*
X0030069Y0119658D01*
X0029083Y0121456D02*
X0020456Y0121456D01*
X0020456Y0123255D02*
X0027285Y0123255D01*
X0025486Y0125053D02*
X0020456Y0125053D01*
X0020456Y0126852D02*
X0023688Y0126852D01*
X0028711Y0128900D02*
X0034587Y0123023D01*
X0034587Y0123130D01*
X0028764Y0128953D01*
X0028711Y0128900D01*
X0028960Y0128650D02*
X0029067Y0128650D01*
X0030759Y0126852D02*
X0030866Y0126852D01*
X0032557Y0125053D02*
X0032664Y0125053D01*
X0034356Y0123255D02*
X0034463Y0123255D01*
X0037416Y0125958D02*
X0035813Y0127561D01*
X0036305Y0127357D01*
X0037495Y0127357D01*
X0038593Y0127812D01*
X0038746Y0127965D01*
X0040375Y0127965D01*
X0040375Y0118331D01*
X0038641Y0118331D01*
X0038587Y0118278D01*
X0038587Y0124787D01*
X0037416Y0125958D01*
X0036522Y0126852D02*
X0040375Y0126852D01*
X0040375Y0125053D02*
X0038321Y0125053D01*
X0038587Y0123255D02*
X0040375Y0123255D01*
X0040375Y0121456D02*
X0038587Y0121456D01*
X0038587Y0119658D02*
X0040375Y0119658D01*
X0034115Y0129259D02*
X0028794Y0134580D01*
X0028794Y0137317D01*
X0027961Y0138150D01*
X0028764Y0138953D01*
X0035022Y0132695D01*
X0034366Y0132039D01*
X0033911Y0130940D01*
X0033911Y0129751D01*
X0034115Y0129259D01*
X0033911Y0130449D02*
X0032925Y0130449D01*
X0034574Y0132247D02*
X0031127Y0132247D01*
X0029328Y0134046D02*
X0033672Y0134046D01*
X0031873Y0135844D02*
X0028794Y0135844D01*
X0028469Y0137643D02*
X0030075Y0137643D01*
X0032134Y0141240D02*
X0037506Y0141240D01*
X0037506Y0141948D02*
X0037506Y0138983D01*
X0038339Y0138150D01*
X0037506Y0137317D01*
X0037506Y0135868D01*
X0028794Y0144580D01*
X0028794Y0147317D01*
X0027777Y0148335D01*
X0021980Y0148335D01*
X0023396Y0149750D01*
X0038104Y0149750D01*
X0036904Y0148550D01*
X0035850Y0147496D01*
X0035850Y0143604D01*
X0037506Y0141948D01*
X0036416Y0143038D02*
X0030336Y0143038D01*
X0028794Y0144837D02*
X0035850Y0144837D01*
X0035850Y0146635D02*
X0028794Y0146635D01*
X0022079Y0148434D02*
X0036788Y0148434D01*
X0041780Y0148335D02*
X0041996Y0148550D01*
X0050612Y0148550D01*
X0050212Y0148150D01*
X0047411Y0148150D01*
X0047226Y0148335D01*
X0041780Y0148335D01*
X0041879Y0148434D02*
X0050496Y0148434D01*
X0053086Y0143953D02*
X0053889Y0143150D01*
X0053056Y0142317D01*
X0053056Y0139580D01*
X0052628Y0139152D01*
X0051707Y0138230D01*
X0051445Y0138339D01*
X0050255Y0138339D01*
X0049157Y0137884D01*
X0048423Y0137150D01*
X0048244Y0137150D01*
X0048244Y0137317D01*
X0047411Y0138150D01*
X0048244Y0138983D01*
X0048244Y0142317D01*
X0047411Y0143150D01*
X0051745Y0143150D01*
X0052664Y0143531D01*
X0053086Y0143953D01*
X0053777Y0143038D02*
X0047523Y0143038D01*
X0047411Y0143150D02*
X0047411Y0143150D01*
X0048244Y0141240D02*
X0053056Y0141240D01*
X0052918Y0139441D02*
X0048244Y0139441D01*
X0047918Y0137643D02*
X0048916Y0137643D01*
X0037831Y0137643D02*
X0035731Y0137643D01*
X0037506Y0139441D02*
X0033933Y0139441D01*
X0018889Y0143150D02*
X0018450Y0143589D01*
X0018450Y0142711D01*
X0018889Y0143150D01*
X0018777Y0143038D02*
X0018450Y0143038D01*
X0013390Y0146635D02*
X0013050Y0146635D01*
X0013050Y0148434D02*
X0015188Y0148434D01*
X0016987Y0150232D02*
X0013050Y0150232D01*
X0013050Y0152031D02*
X0018785Y0152031D01*
X0020584Y0153829D02*
X0013050Y0153829D01*
X0013050Y0155628D02*
X0169790Y0155628D01*
X0179397Y0159225D02*
X0182850Y0159225D01*
X0183178Y0161023D02*
X0181754Y0161023D01*
X0182300Y0162822D02*
X0184976Y0162822D01*
X0183904Y0161750D02*
X0183904Y0161750D01*
X0182026Y0164620D02*
X0186775Y0164620D01*
X0188573Y0166419D02*
X0180718Y0166419D01*
X0170663Y0189800D02*
X0013050Y0189800D01*
X0013050Y0191598D02*
X0169307Y0191598D01*
X0169000Y0193397D02*
X0013050Y0193397D01*
X0013050Y0195195D02*
X0169512Y0195195D01*
X0179593Y0196994D02*
X0219148Y0196994D01*
X0220947Y0198792D02*
X0026053Y0198792D01*
X0030971Y0211382D02*
X0169397Y0211382D01*
X0169000Y0213180D02*
X0030223Y0213180D01*
X0029102Y0214979D02*
X0169422Y0214979D01*
X0181151Y0205986D02*
X0228141Y0205986D01*
X0226342Y0204188D02*
X0182205Y0204188D01*
X0182300Y0202389D02*
X0224544Y0202389D01*
X0222745Y0200591D02*
X0181428Y0200591D01*
X0181788Y0195195D02*
X0217350Y0195195D01*
X0224239Y0196994D02*
X0225958Y0196994D01*
X0226038Y0198792D02*
X0227757Y0198792D01*
X0227836Y0200591D02*
X0229555Y0200591D01*
X0240262Y0209583D02*
X0245619Y0209583D01*
X0245159Y0211382D02*
X0241903Y0211382D01*
X0242300Y0213180D02*
X0244060Y0213180D01*
X0250809Y0220374D02*
X0255032Y0220374D01*
X0254699Y0220707D02*
X0255707Y0219699D01*
X0256563Y0218556D01*
X0257246Y0217304D01*
X0257745Y0215967D01*
X0258048Y0214573D01*
X0258150Y0213150D01*
X0258150Y0013711D01*
X0258030Y0012030D01*
X0257672Y0010383D01*
X0257083Y0008805D01*
X0256275Y0007326D01*
X0255265Y0005976D01*
X0254074Y0004785D01*
X0252724Y0003775D01*
X0251245Y0002967D01*
X0249667Y0002378D01*
X0248020Y0002020D01*
X0246339Y0001900D01*
X0245230Y0001900D01*
X0249021Y0004089D01*
X0252132Y0007200D01*
X0254332Y0011011D01*
X0255471Y0015261D01*
X0255471Y0210990D01*
X0254332Y0215240D01*
X0252132Y0219051D01*
X0249021Y0222162D01*
X0247310Y0223150D01*
X0248150Y0223150D01*
X0249573Y0223048D01*
X0250967Y0222745D01*
X0252304Y0222246D01*
X0253556Y0221563D01*
X0254699Y0220707D01*
X0252439Y0222173D02*
X0249002Y0222173D01*
X0249021Y0222162D02*
X0249021Y0222162D01*
X0252132Y0219051D02*
X0252132Y0219051D01*
X0252406Y0218576D02*
X0256548Y0218576D01*
X0257443Y0216777D02*
X0253445Y0216777D01*
X0254332Y0215240D02*
X0254332Y0215240D01*
X0254402Y0214979D02*
X0257960Y0214979D01*
X0258148Y0213180D02*
X0254884Y0213180D01*
X0255366Y0211382D02*
X0258150Y0211382D01*
X0258150Y0209583D02*
X0255471Y0209583D01*
X0255471Y0207785D02*
X0258150Y0207785D01*
X0258150Y0205986D02*
X0255471Y0205986D01*
X0255471Y0204188D02*
X0258150Y0204188D01*
X0258150Y0202389D02*
X0255471Y0202389D01*
X0255471Y0200591D02*
X0258150Y0200591D01*
X0258150Y0198792D02*
X0255471Y0198792D01*
X0255471Y0196994D02*
X0258150Y0196994D01*
X0258150Y0195195D02*
X0255471Y0195195D01*
X0255471Y0193397D02*
X0258150Y0193397D01*
X0258150Y0191598D02*
X0255471Y0191598D01*
X0255471Y0189800D02*
X0258150Y0189800D01*
X0258150Y0188001D02*
X0255471Y0188001D01*
X0255471Y0186203D02*
X0258150Y0186203D01*
X0258150Y0184404D02*
X0255471Y0184404D01*
X0255471Y0182606D02*
X0258150Y0182606D01*
X0258150Y0180807D02*
X0255471Y0180807D01*
X0255471Y0179009D02*
X0258150Y0179009D01*
X0258150Y0177210D02*
X0255471Y0177210D01*
X0255471Y0175412D02*
X0258150Y0175412D01*
X0258150Y0173613D02*
X0255471Y0173613D01*
X0255471Y0171815D02*
X0258150Y0171815D01*
X0258150Y0170016D02*
X0255471Y0170016D01*
X0255471Y0168218D02*
X0258150Y0168218D01*
X0258150Y0166419D02*
X0255471Y0166419D01*
X0255471Y0164620D02*
X0258150Y0164620D01*
X0258150Y0162822D02*
X0255471Y0162822D01*
X0255471Y0161023D02*
X0258150Y0161023D01*
X0258150Y0159225D02*
X0255471Y0159225D01*
X0255471Y0157426D02*
X0258150Y0157426D01*
X0258150Y0155628D02*
X0255471Y0155628D01*
X0255471Y0153829D02*
X0258150Y0153829D01*
X0258150Y0152031D02*
X0255471Y0152031D01*
X0255471Y0150232D02*
X0258150Y0150232D01*
X0258150Y0148434D02*
X0255471Y0148434D01*
X0255471Y0146635D02*
X0258150Y0146635D01*
X0258150Y0144837D02*
X0255471Y0144837D01*
X0255471Y0143038D02*
X0258150Y0143038D01*
X0258150Y0141240D02*
X0255471Y0141240D01*
X0255471Y0139441D02*
X0258150Y0139441D01*
X0258150Y0137643D02*
X0255471Y0137643D01*
X0255471Y0135844D02*
X0258150Y0135844D01*
X0258150Y0134046D02*
X0255471Y0134046D01*
X0255471Y0132247D02*
X0258150Y0132247D01*
X0258150Y0130449D02*
X0255471Y0130449D01*
X0255471Y0128650D02*
X0258150Y0128650D01*
X0258150Y0126852D02*
X0255471Y0126852D01*
X0255471Y0125053D02*
X0258150Y0125053D01*
X0258150Y0123255D02*
X0255471Y0123255D01*
X0255471Y0121456D02*
X0258150Y0121456D01*
X0258150Y0119658D02*
X0255471Y0119658D01*
X0255471Y0117859D02*
X0258150Y0117859D01*
X0258150Y0116061D02*
X0255471Y0116061D01*
X0255471Y0114262D02*
X0258150Y0114262D01*
X0258150Y0112464D02*
X0255471Y0112464D01*
X0255471Y0110665D02*
X0258150Y0110665D01*
X0258150Y0108867D02*
X0255471Y0108867D01*
X0255471Y0107068D02*
X0258150Y0107068D01*
X0258150Y0105270D02*
X0255471Y0105270D01*
X0255471Y0103471D02*
X0258150Y0103471D01*
X0258150Y0101673D02*
X0255471Y0101673D01*
X0255471Y0099874D02*
X0258150Y0099874D01*
X0258150Y0098076D02*
X0255471Y0098076D01*
X0255471Y0096277D02*
X0258150Y0096277D01*
X0258150Y0094479D02*
X0255471Y0094479D01*
X0255471Y0092680D02*
X0258150Y0092680D01*
X0258150Y0090882D02*
X0255471Y0090882D01*
X0255471Y0089083D02*
X0258150Y0089083D01*
X0258150Y0087284D02*
X0255471Y0087284D01*
X0255471Y0085486D02*
X0258150Y0085486D01*
X0258150Y0083687D02*
X0255471Y0083687D01*
X0255471Y0081889D02*
X0258150Y0081889D01*
X0258150Y0080090D02*
X0255471Y0080090D01*
X0255471Y0078292D02*
X0258150Y0078292D01*
X0258150Y0076493D02*
X0255471Y0076493D01*
X0255471Y0074695D02*
X0258150Y0074695D01*
X0258150Y0072896D02*
X0255471Y0072896D01*
X0255471Y0071098D02*
X0258150Y0071098D01*
X0258150Y0069299D02*
X0255471Y0069299D01*
X0255471Y0067501D02*
X0258150Y0067501D01*
X0258150Y0065702D02*
X0255471Y0065702D01*
X0255471Y0063904D02*
X0258150Y0063904D01*
X0258150Y0062105D02*
X0255471Y0062105D01*
X0255471Y0060307D02*
X0258150Y0060307D01*
X0258150Y0058508D02*
X0255471Y0058508D01*
X0255471Y0056710D02*
X0258150Y0056710D01*
X0258150Y0054911D02*
X0255471Y0054911D01*
X0255471Y0053113D02*
X0258150Y0053113D01*
X0258150Y0051314D02*
X0255471Y0051314D01*
X0255471Y0049516D02*
X0258150Y0049516D01*
X0258150Y0047717D02*
X0255471Y0047717D01*
X0255471Y0045919D02*
X0258150Y0045919D01*
X0258150Y0044120D02*
X0255471Y0044120D01*
X0255471Y0042322D02*
X0258150Y0042322D01*
X0258150Y0040523D02*
X0255471Y0040523D01*
X0255471Y0038725D02*
X0258150Y0038725D01*
X0258150Y0036926D02*
X0255471Y0036926D01*
X0255471Y0035128D02*
X0258150Y0035128D01*
X0258150Y0033329D02*
X0255471Y0033329D01*
X0255471Y0031531D02*
X0258150Y0031531D01*
X0258150Y0029732D02*
X0255471Y0029732D01*
X0255471Y0027934D02*
X0258150Y0027934D01*
X0258150Y0026135D02*
X0255471Y0026135D01*
X0255471Y0024337D02*
X0258150Y0024337D01*
X0258150Y0022538D02*
X0255471Y0022538D01*
X0255471Y0020740D02*
X0258150Y0020740D01*
X0258150Y0018941D02*
X0255471Y0018941D01*
X0255471Y0017143D02*
X0258150Y0017143D01*
X0258150Y0015344D02*
X0255471Y0015344D01*
X0255012Y0013546D02*
X0258138Y0013546D01*
X0257968Y0011747D02*
X0254530Y0011747D01*
X0254332Y0011011D02*
X0254332Y0011011D01*
X0253719Y0009949D02*
X0257509Y0009949D01*
X0256725Y0008150D02*
X0252681Y0008150D01*
X0252132Y0007200D02*
X0252132Y0007200D01*
X0251284Y0006351D02*
X0255546Y0006351D01*
X0253764Y0004553D02*
X0249485Y0004553D01*
X0249021Y0004089D02*
X0249021Y0004089D01*
X0250675Y0002754D02*
X0246710Y0002754D01*
X0242567Y0011747D02*
X0199461Y0011747D01*
X0200048Y0012334D02*
X0200048Y0012334D01*
X0201259Y0013546D02*
X0244412Y0013546D01*
X0245287Y0015344D02*
X0219381Y0015344D01*
X0220622Y0017143D02*
X0245650Y0017143D01*
X0245671Y0018941D02*
X0221050Y0018941D01*
X0221050Y0020740D02*
X0229723Y0020740D01*
X0229621Y0020842D02*
X0230767Y0019696D01*
X0232265Y0019075D01*
X0239035Y0019075D01*
X0240533Y0019696D01*
X0241679Y0020842D01*
X0242300Y0022339D01*
X0242300Y0023961D01*
X0241679Y0025458D01*
X0240533Y0026604D01*
X0239035Y0027225D01*
X0232265Y0027225D01*
X0230767Y0026604D01*
X0229621Y0025458D01*
X0229000Y0023961D01*
X0229000Y0022339D01*
X0229621Y0020842D01*
X0229000Y0022538D02*
X0221050Y0022538D01*
X0221050Y0024337D02*
X0229156Y0024337D01*
X0230298Y0026135D02*
X0221050Y0026135D01*
X0221050Y0027934D02*
X0245671Y0027934D01*
X0245671Y0029732D02*
X0240570Y0029732D01*
X0240533Y0029696D02*
X0241679Y0030842D01*
X0242300Y0032339D01*
X0242300Y0033961D01*
X0241679Y0035458D01*
X0240533Y0036604D01*
X0239035Y0037225D01*
X0232265Y0037225D01*
X0230767Y0036604D01*
X0229621Y0035458D01*
X0229000Y0033961D01*
X0229000Y0032339D01*
X0229621Y0030842D01*
X0230767Y0029696D01*
X0232265Y0029075D01*
X0239035Y0029075D01*
X0240533Y0029696D01*
X0241965Y0031531D02*
X0245671Y0031531D01*
X0245671Y0033329D02*
X0242300Y0033329D01*
X0241816Y0035128D02*
X0245671Y0035128D01*
X0245671Y0036926D02*
X0239756Y0036926D01*
X0231544Y0036926D02*
X0198150Y0036926D01*
X0198150Y0035128D02*
X0229484Y0035128D01*
X0229000Y0033329D02*
X0198150Y0033329D01*
X0198806Y0031531D02*
X0212494Y0031531D01*
X0210916Y0029732D02*
X0200384Y0029732D01*
X0201050Y0027934D02*
X0210250Y0027934D01*
X0210250Y0026135D02*
X0201050Y0026135D01*
X0201050Y0024337D02*
X0204979Y0024337D01*
X0205209Y0024566D02*
X0205209Y0024566D01*
X0203181Y0022538D02*
X0201050Y0022538D01*
X0201050Y0020740D02*
X0201382Y0020740D01*
X0204856Y0017143D02*
X0210678Y0017143D01*
X0210250Y0018941D02*
X0206655Y0018941D01*
X0203058Y0015344D02*
X0211919Y0015344D01*
X0220384Y0029732D02*
X0230730Y0029732D01*
X0229335Y0031531D02*
X0218806Y0031531D01*
X0241002Y0026135D02*
X0245671Y0026135D01*
X0245671Y0024337D02*
X0242144Y0024337D01*
X0242300Y0022538D02*
X0245671Y0022538D01*
X0245671Y0020740D02*
X0241577Y0020740D01*
X0240099Y0049516D02*
X0245671Y0049516D01*
X0245671Y0051314D02*
X0241875Y0051314D01*
X0242300Y0053113D02*
X0245671Y0053113D01*
X0245671Y0054911D02*
X0241906Y0054911D01*
X0240279Y0056710D02*
X0245671Y0056710D01*
X0245671Y0058508D02*
X0198150Y0058508D01*
X0193150Y0067501D02*
X0171400Y0067501D01*
X0171400Y0069299D02*
X0171723Y0069299D01*
X0182128Y0084374D02*
X0181679Y0085458D01*
X0181091Y0086046D01*
X0182850Y0087804D01*
X0182850Y0085096D01*
X0182128Y0084374D01*
X0181651Y0085486D02*
X0182850Y0085486D01*
X0182850Y0087284D02*
X0182330Y0087284D01*
X0179030Y0089075D02*
X0177179Y0087225D01*
X0172265Y0087225D01*
X0171400Y0086867D01*
X0171400Y0089433D01*
X0172265Y0089075D01*
X0179030Y0089075D01*
X0177239Y0087284D02*
X0171400Y0087284D01*
X0171400Y0089083D02*
X0172246Y0089083D01*
X0171400Y0096867D02*
X0171400Y0099433D01*
X0172265Y0099075D01*
X0178830Y0099075D01*
X0176979Y0097225D01*
X0172265Y0097225D01*
X0171400Y0096867D01*
X0171400Y0098076D02*
X0177830Y0098076D01*
X0180991Y0096146D02*
X0181650Y0096804D01*
X0181650Y0095487D01*
X0180991Y0096146D01*
X0181123Y0096277D02*
X0181650Y0096277D01*
X0180450Y0106639D02*
X0179035Y0107225D01*
X0172265Y0107225D01*
X0171400Y0106867D01*
X0171400Y0109433D01*
X0172265Y0109075D01*
X0179035Y0109075D01*
X0180450Y0109661D01*
X0180450Y0106639D01*
X0180450Y0107068D02*
X0179414Y0107068D01*
X0180450Y0108867D02*
X0171400Y0108867D01*
X0171400Y0107068D02*
X0171886Y0107068D01*
X0171400Y0116867D02*
X0171400Y0119433D01*
X0172265Y0119075D01*
X0179035Y0119075D01*
X0180450Y0119661D01*
X0180450Y0116639D01*
X0179035Y0117225D01*
X0172265Y0117225D01*
X0171400Y0116867D01*
X0171400Y0117859D02*
X0180450Y0117859D01*
X0180442Y0119658D02*
X0180450Y0119658D01*
X0180450Y0126639D02*
X0179035Y0127225D01*
X0172265Y0127225D01*
X0171400Y0126867D01*
X0171400Y0129433D01*
X0172265Y0129075D01*
X0179035Y0129075D01*
X0180450Y0129661D01*
X0180450Y0126639D01*
X0180450Y0126852D02*
X0179936Y0126852D01*
X0180450Y0128650D02*
X0171400Y0128650D01*
X0152398Y0126852D02*
X0136402Y0126852D01*
X0145239Y0131193D02*
X0148207Y0134161D01*
X0149245Y0134161D01*
X0150343Y0134616D01*
X0151184Y0135457D01*
X0151563Y0136373D01*
X0151563Y0135363D01*
X0151563Y0131193D01*
X0145239Y0131193D01*
X0146293Y0132247D02*
X0151563Y0132247D01*
X0151563Y0134046D02*
X0148091Y0134046D01*
X0145661Y0136707D02*
X0144646Y0135692D01*
X0144584Y0135843D01*
X0143850Y0136577D01*
X0143850Y0137896D01*
X0142796Y0138950D01*
X0137996Y0143750D01*
X0137237Y0143750D01*
X0137237Y0144607D01*
X0150412Y0144607D01*
X0151331Y0144987D01*
X0151563Y0145220D01*
X0151563Y0143040D01*
X0151563Y0137927D01*
X0151184Y0138843D01*
X0150343Y0139684D01*
X0149245Y0140139D01*
X0148055Y0140139D01*
X0146957Y0139684D01*
X0146116Y0138843D01*
X0145661Y0137745D01*
X0145661Y0136707D01*
X0145661Y0137643D02*
X0143850Y0137643D01*
X0144583Y0135844D02*
X0144799Y0135844D01*
X0146714Y0139441D02*
X0142304Y0139441D01*
X0140506Y0141240D02*
X0151563Y0141240D01*
X0151563Y0143038D02*
X0138707Y0143038D01*
X0137237Y0139418D02*
X0137237Y0138964D01*
X0137357Y0139084D01*
X0137508Y0139146D01*
X0137237Y0139418D01*
X0128430Y0143116D02*
X0128396Y0143150D01*
X0128430Y0143150D01*
X0128430Y0143116D01*
X0124661Y0146885D02*
X0124661Y0147945D01*
X0125116Y0149043D01*
X0125823Y0149750D01*
X0121796Y0149750D01*
X0124661Y0146885D01*
X0124864Y0148434D02*
X0123112Y0148434D01*
X0120108Y0146346D02*
X0119957Y0146284D01*
X0119116Y0145443D01*
X0119022Y0145216D01*
X0118244Y0145994D01*
X0118244Y0147317D01*
X0118211Y0147350D01*
X0119104Y0147350D01*
X0120108Y0146346D01*
X0119819Y0146635D02*
X0118244Y0146635D01*
X0118214Y0138953D02*
X0119129Y0138038D01*
X0118757Y0137884D01*
X0118217Y0137344D01*
X0117411Y0138150D01*
X0118214Y0138953D01*
X0117918Y0137643D02*
X0118516Y0137643D01*
X0108339Y0138150D02*
X0107506Y0137317D01*
X0107506Y0135868D01*
X0105300Y0138074D01*
X0106055Y0137761D01*
X0107245Y0137761D01*
X0108293Y0138195D01*
X0108339Y0138150D01*
X0107831Y0137643D02*
X0105731Y0137643D01*
X0103974Y0139400D02*
X0100224Y0143150D01*
X0101100Y0143150D01*
X0104823Y0143150D01*
X0104116Y0142443D01*
X0103661Y0141345D01*
X0103661Y0140155D01*
X0103974Y0139400D01*
X0103957Y0139441D02*
X0103933Y0139441D01*
X0103661Y0141240D02*
X0102134Y0141240D01*
X0100336Y0143038D02*
X0104711Y0143038D01*
X0100075Y0137643D02*
X0098469Y0137643D01*
X0098794Y0137317D02*
X0097961Y0138150D01*
X0098764Y0138953D01*
X0105022Y0132695D01*
X0104366Y0132039D01*
X0103911Y0130940D01*
X0103911Y0129751D01*
X0104115Y0129259D01*
X0099611Y0133763D01*
X0099611Y0133763D01*
X0098794Y0134580D01*
X0098794Y0137317D01*
X0098794Y0135844D02*
X0101873Y0135844D01*
X0103672Y0134046D02*
X0099328Y0134046D01*
X0101127Y0132247D02*
X0104574Y0132247D01*
X0103911Y0130449D02*
X0102925Y0130449D01*
X0105813Y0127561D02*
X0106305Y0127357D01*
X0107495Y0127357D01*
X0108593Y0127812D01*
X0108627Y0127846D01*
X0110375Y0127846D01*
X0110375Y0118331D01*
X0109837Y0118331D01*
X0109837Y0123537D01*
X0108666Y0124708D01*
X0105813Y0127561D01*
X0106522Y0126852D02*
X0110375Y0126852D01*
X0110375Y0125053D02*
X0108321Y0125053D01*
X0108666Y0124708D02*
X0108666Y0124708D01*
X0109837Y0123255D02*
X0110375Y0123255D01*
X0110375Y0121456D02*
X0109837Y0121456D01*
X0109837Y0119658D02*
X0110375Y0119658D01*
X0105837Y0119658D02*
X0105069Y0119658D01*
X0105069Y0118331D02*
X0105069Y0122003D01*
X0104689Y0122922D01*
X0098711Y0128900D01*
X0098764Y0128953D01*
X0105837Y0121880D01*
X0105837Y0117653D01*
X0105159Y0118331D01*
X0105069Y0118331D01*
X0105631Y0117859D02*
X0105837Y0117859D01*
X0105837Y0121456D02*
X0105069Y0121456D01*
X0104463Y0123255D02*
X0104356Y0123255D01*
X0102664Y0125053D02*
X0102557Y0125053D01*
X0100866Y0126852D02*
X0100759Y0126852D01*
X0099067Y0128650D02*
X0098960Y0128650D01*
X0095486Y0125053D02*
X0090456Y0125053D01*
X0090456Y0123255D02*
X0097285Y0123255D01*
X0099083Y0121456D02*
X0090456Y0121456D01*
X0090456Y0119658D02*
X0100069Y0119658D01*
X0100069Y0120470D02*
X0100069Y0118331D01*
X0099979Y0118331D01*
X0099101Y0117452D01*
X0099101Y0113848D01*
X0099979Y0112969D01*
X0100069Y0112969D01*
X0100069Y0110608D01*
X0099804Y0109966D01*
X0099804Y0100368D01*
X0099517Y0100368D01*
X0098638Y0099490D01*
X0098638Y0097704D01*
X0090456Y0105886D01*
X0090456Y0127965D01*
X0092574Y0127965D01*
X0100069Y0120470D01*
X0099508Y0117859D02*
X0090456Y0117859D01*
X0090456Y0116061D02*
X0099101Y0116061D01*
X0099101Y0114262D02*
X0090456Y0114262D01*
X0090456Y0112464D02*
X0100069Y0112464D01*
X0100069Y0110665D02*
X0090456Y0110665D01*
X0090456Y0108867D02*
X0099804Y0108867D01*
X0099804Y0107068D02*
X0090456Y0107068D01*
X0091073Y0105270D02*
X0099804Y0105270D01*
X0099804Y0103471D02*
X0092871Y0103471D01*
X0094670Y0101673D02*
X0099804Y0101673D01*
X0099022Y0099874D02*
X0096468Y0099874D01*
X0098267Y0098076D02*
X0098638Y0098076D01*
X0094409Y0096277D02*
X0088218Y0096277D01*
X0088218Y0094479D02*
X0096207Y0094479D01*
X0095178Y0093400D02*
X0092013Y0092089D01*
X0091784Y0092643D01*
X0090943Y0093484D01*
X0089845Y0093939D01*
X0088655Y0093939D01*
X0088218Y0093758D01*
X0088218Y0102467D01*
X0097286Y0093400D01*
X0095178Y0093400D01*
X0093440Y0092680D02*
X0091747Y0092680D01*
X0092610Y0098076D02*
X0088218Y0098076D01*
X0088218Y0099874D02*
X0090812Y0099874D01*
X0089013Y0101673D02*
X0088218Y0101673D01*
X0084219Y0101673D02*
X0082554Y0101673D01*
X0084219Y0100008D02*
X0074837Y0109389D01*
X0074837Y0112969D01*
X0078821Y0112969D01*
X0079699Y0113848D01*
X0079699Y0115583D01*
X0079994Y0115878D01*
X0080375Y0116797D01*
X0080375Y0127965D01*
X0082226Y0127965D01*
X0083214Y0128953D01*
X0084219Y0127948D01*
X0084219Y0100008D01*
X0084219Y0103471D02*
X0080755Y0103471D01*
X0078957Y0105270D02*
X0084219Y0105270D01*
X0084219Y0107068D02*
X0077158Y0107068D01*
X0075360Y0108867D02*
X0084219Y0108867D01*
X0084219Y0110665D02*
X0074837Y0110665D01*
X0074837Y0112464D02*
X0084219Y0112464D01*
X0084219Y0114262D02*
X0079699Y0114262D01*
X0080070Y0116061D02*
X0084219Y0116061D01*
X0084219Y0117859D02*
X0080375Y0117859D01*
X0080375Y0119658D02*
X0084219Y0119658D01*
X0084219Y0121456D02*
X0080375Y0121456D01*
X0080375Y0123255D02*
X0084219Y0123255D01*
X0084219Y0125053D02*
X0080375Y0125053D01*
X0080375Y0126852D02*
X0084219Y0126852D01*
X0083517Y0128650D02*
X0082911Y0128650D01*
X0086456Y0131367D02*
X0084726Y0133097D01*
X0085055Y0132961D01*
X0086245Y0132961D01*
X0086456Y0133049D01*
X0086456Y0131367D01*
X0086456Y0132247D02*
X0085576Y0132247D01*
X0083223Y0137750D02*
X0082811Y0137750D01*
X0082411Y0138150D01*
X0083244Y0138983D01*
X0083244Y0139566D01*
X0083255Y0139561D01*
X0084445Y0139561D01*
X0085543Y0140016D01*
X0086384Y0140857D01*
X0086839Y0141955D01*
X0086839Y0143145D01*
X0086823Y0143182D01*
X0087664Y0143531D01*
X0088086Y0143953D01*
X0088889Y0143150D01*
X0088056Y0142317D01*
X0088056Y0139580D01*
X0087628Y0139152D01*
X0087072Y0138596D01*
X0086245Y0138939D01*
X0085055Y0138939D01*
X0083957Y0138484D01*
X0083223Y0137750D01*
X0083244Y0139441D02*
X0087918Y0139441D01*
X0088056Y0141240D02*
X0086543Y0141240D01*
X0086839Y0143038D02*
X0088777Y0143038D01*
X0085212Y0148150D02*
X0085612Y0148550D01*
X0066238Y0148550D01*
X0066638Y0148150D01*
X0073339Y0148150D01*
X0073523Y0148335D01*
X0082226Y0148335D01*
X0082411Y0148150D01*
X0085212Y0148150D01*
X0085496Y0148434D02*
X0066354Y0148434D01*
X0066100Y0143150D02*
X0065224Y0143150D01*
X0072506Y0135868D01*
X0072506Y0137317D01*
X0073339Y0138150D01*
X0072506Y0138983D01*
X0072506Y0142317D01*
X0073339Y0143150D01*
X0073339Y0143150D01*
X0066100Y0143150D01*
X0065336Y0143038D02*
X0073227Y0143038D01*
X0072506Y0141240D02*
X0067134Y0141240D01*
X0068933Y0139441D02*
X0072506Y0139441D01*
X0072831Y0137643D02*
X0070731Y0137643D01*
X0068672Y0134046D02*
X0064328Y0134046D01*
X0063794Y0134580D02*
X0068911Y0129463D01*
X0068911Y0129995D01*
X0069366Y0131093D01*
X0070207Y0131934D01*
X0070615Y0132103D01*
X0063764Y0138953D01*
X0062961Y0138150D01*
X0063794Y0137317D01*
X0063794Y0134580D01*
X0063794Y0135844D02*
X0066873Y0135844D01*
X0065075Y0137643D02*
X0063469Y0137643D01*
X0066127Y0132247D02*
X0070470Y0132247D01*
X0069099Y0130449D02*
X0067925Y0130449D01*
X0065866Y0126852D02*
X0065759Y0126852D01*
X0064067Y0128650D02*
X0063960Y0128650D01*
X0063711Y0128900D02*
X0063764Y0128953D01*
X0070837Y0121880D01*
X0070837Y0117653D01*
X0070159Y0118331D01*
X0069804Y0118331D01*
X0069804Y0122269D01*
X0069423Y0123188D01*
X0063711Y0128900D01*
X0067557Y0125053D02*
X0067664Y0125053D01*
X0069356Y0123255D02*
X0069463Y0123255D01*
X0069804Y0121456D02*
X0070837Y0121456D01*
X0070837Y0119658D02*
X0069804Y0119658D01*
X0070631Y0117859D02*
X0070837Y0117859D01*
X0074837Y0118331D02*
X0075375Y0118331D01*
X0075375Y0127965D01*
X0074541Y0127965D01*
X0074434Y0127707D01*
X0073593Y0126866D01*
X0072495Y0126411D01*
X0071963Y0126411D01*
X0073666Y0124708D01*
X0074837Y0123537D01*
X0074837Y0118331D01*
X0074837Y0119658D02*
X0075375Y0119658D01*
X0075375Y0121456D02*
X0074837Y0121456D01*
X0074837Y0123255D02*
X0075375Y0123255D01*
X0075375Y0125053D02*
X0073321Y0125053D01*
X0073559Y0126852D02*
X0075375Y0126852D01*
X0090456Y0126852D02*
X0093688Y0126852D01*
X0105069Y0112464D02*
X0105837Y0112464D01*
X0105837Y0110665D02*
X0105069Y0110665D01*
X0104916Y0108867D02*
X0105837Y0108867D01*
X0106501Y0107068D02*
X0104804Y0107068D01*
X0104804Y0105270D02*
X0108300Y0105270D01*
X0110098Y0103471D02*
X0104804Y0103471D01*
X0104804Y0101673D02*
X0111897Y0101673D01*
X0112278Y0099874D02*
X0113695Y0099874D01*
X0105715Y0099874D02*
X0105585Y0099874D01*
X0070715Y0099874D02*
X0070585Y0099874D01*
X0064804Y0101673D02*
X0059670Y0101673D01*
X0057871Y0103471D02*
X0064804Y0103471D01*
X0064804Y0105270D02*
X0056073Y0105270D01*
X0055456Y0107068D02*
X0064804Y0107068D01*
X0064804Y0108867D02*
X0055456Y0108867D01*
X0055456Y0110665D02*
X0064804Y0110665D01*
X0064022Y0099874D02*
X0061468Y0099874D01*
X0063267Y0098076D02*
X0063638Y0098076D01*
X0061207Y0094479D02*
X0053218Y0094479D01*
X0053218Y0096277D02*
X0059409Y0096277D01*
X0057610Y0098076D02*
X0053218Y0098076D01*
X0053218Y0099874D02*
X0055812Y0099874D01*
X0054013Y0101673D02*
X0053218Y0101673D01*
X0053218Y0102467D02*
X0062286Y0093400D01*
X0060178Y0093400D01*
X0056870Y0092030D01*
X0054339Y0089498D01*
X0053218Y0086794D01*
X0053218Y0102467D01*
X0053218Y0092680D02*
X0058440Y0092680D01*
X0055722Y0090882D02*
X0053218Y0090882D01*
X0053218Y0089083D02*
X0054167Y0089083D01*
X0053422Y0087284D02*
X0053218Y0087284D01*
X0053218Y0081313D02*
X0054276Y0078760D01*
X0053845Y0078939D01*
X0052655Y0078939D01*
X0051628Y0078513D01*
X0052047Y0078933D01*
X0053218Y0080104D01*
X0053218Y0081313D01*
X0053205Y0080090D02*
X0053725Y0080090D01*
X0056123Y0076824D02*
X0056870Y0076077D01*
X0058907Y0074040D01*
X0058240Y0074040D01*
X0057706Y0074040D01*
X0057596Y0074150D01*
X0056239Y0075507D01*
X0056239Y0076545D01*
X0056123Y0076824D01*
X0056239Y0076493D02*
X0056454Y0076493D01*
X0057051Y0074695D02*
X0058252Y0074695D01*
X0061796Y0067501D02*
X0061927Y0067501D01*
X0052659Y0042260D02*
X0051868Y0042260D01*
X0052263Y0041865D01*
X0052659Y0042260D01*
X0044650Y0026135D02*
X0061650Y0026135D01*
X0061650Y0024337D02*
X0044650Y0024337D01*
X0044650Y0022538D02*
X0061650Y0022538D01*
X0061650Y0020740D02*
X0044650Y0020740D01*
X0044650Y0018941D02*
X0061650Y0018941D01*
X0062361Y0017143D02*
X0043939Y0017143D01*
X0043072Y0015344D02*
X0063228Y0015344D01*
X0064150Y0013546D02*
X0042150Y0013546D01*
X0042150Y0011747D02*
X0064150Y0011747D01*
X0077150Y0011747D02*
X0099150Y0011747D01*
X0099150Y0013546D02*
X0077150Y0013546D01*
X0078072Y0015344D02*
X0098228Y0015344D01*
X0097361Y0017143D02*
X0078939Y0017143D01*
X0079650Y0018941D02*
X0096650Y0018941D01*
X0096650Y0020740D02*
X0079650Y0020740D01*
X0079650Y0022538D02*
X0096650Y0022538D01*
X0096650Y0024337D02*
X0079650Y0024337D01*
X0079650Y0026135D02*
X0096650Y0026135D01*
X0113939Y0017143D02*
X0125250Y0017143D01*
X0125250Y0018941D02*
X0114650Y0018941D01*
X0114650Y0020740D02*
X0125250Y0020740D01*
X0125250Y0022538D02*
X0114650Y0022538D01*
X0114650Y0024337D02*
X0125752Y0024337D01*
X0127098Y0026135D02*
X0114650Y0026135D01*
X0113072Y0015344D02*
X0125250Y0015344D01*
X0125250Y0013546D02*
X0112150Y0013546D01*
X0112150Y0011747D02*
X0125842Y0011747D01*
X0134587Y0010550D02*
X0135228Y0011191D01*
X0136050Y0013176D01*
X0136050Y0020014D01*
X0140673Y0024637D01*
X0141054Y0025556D01*
X0141054Y0037181D01*
X0141340Y0037181D01*
X0141900Y0037741D01*
X0142460Y0037181D01*
X0145179Y0037181D01*
X0148150Y0034211D01*
X0148150Y0026859D01*
X0147591Y0026628D01*
X0146072Y0025109D01*
X0145250Y0023124D01*
X0145250Y0013176D01*
X0146072Y0011191D01*
X0146713Y0010550D01*
X0134587Y0010550D01*
X0135458Y0011747D02*
X0145842Y0011747D01*
X0145250Y0013546D02*
X0136050Y0013546D01*
X0136050Y0015344D02*
X0145250Y0015344D01*
X0145250Y0017143D02*
X0136050Y0017143D01*
X0136050Y0018941D02*
X0145250Y0018941D01*
X0145250Y0020740D02*
X0136775Y0020740D01*
X0138574Y0022538D02*
X0145250Y0022538D01*
X0145752Y0024337D02*
X0140372Y0024337D01*
X0141054Y0026135D02*
X0147098Y0026135D01*
X0148150Y0027934D02*
X0141054Y0027934D01*
X0141054Y0029732D02*
X0148150Y0029732D01*
X0148150Y0031531D02*
X0141054Y0031531D01*
X0141054Y0033329D02*
X0148150Y0033329D01*
X0147233Y0035128D02*
X0141054Y0035128D01*
X0141054Y0036926D02*
X0145435Y0036926D01*
X0145559Y0044120D02*
X0162334Y0044120D01*
X0160536Y0045919D02*
X0147358Y0045919D01*
X0149156Y0047717D02*
X0158737Y0047717D01*
X0156939Y0049516D02*
X0150955Y0049516D01*
X0152753Y0051314D02*
X0155140Y0051314D01*
X0135100Y0026135D02*
X0134202Y0026135D01*
X0198150Y0071098D02*
X0229515Y0071098D01*
X0229000Y0072896D02*
X0198150Y0072896D01*
X0198150Y0074695D02*
X0229305Y0074695D01*
X0230656Y0076493D02*
X0198150Y0076493D01*
X0198150Y0089083D02*
X0232246Y0089083D01*
X0229604Y0090882D02*
X0198150Y0090882D01*
X0198150Y0092680D02*
X0229000Y0092680D01*
X0229215Y0094479D02*
X0198150Y0094479D01*
X0198150Y0096277D02*
X0230440Y0096277D01*
X0240712Y0099874D02*
X0245671Y0099874D01*
X0245671Y0101673D02*
X0242023Y0101673D01*
X0242300Y0103471D02*
X0245671Y0103471D01*
X0245671Y0105270D02*
X0241757Y0105270D01*
X0239414Y0107068D02*
X0245671Y0107068D01*
X0245671Y0119658D02*
X0240442Y0119658D01*
X0241934Y0121456D02*
X0245671Y0121456D01*
X0245671Y0123255D02*
X0242300Y0123255D01*
X0241847Y0125053D02*
X0245671Y0125053D01*
X0230014Y0130449D02*
X0198150Y0130449D01*
X0198150Y0132247D02*
X0229039Y0132247D01*
X0229036Y0134046D02*
X0198150Y0134046D01*
X0198150Y0135844D02*
X0230007Y0135844D01*
X0241844Y0141240D02*
X0245671Y0141240D01*
X0245671Y0143038D02*
X0242300Y0143038D01*
X0241937Y0144837D02*
X0245671Y0144837D01*
X0245671Y0146635D02*
X0240458Y0146635D01*
X0239397Y0159225D02*
X0245671Y0159225D01*
X0245671Y0161023D02*
X0241754Y0161023D01*
X0242300Y0162822D02*
X0245671Y0162822D01*
X0245671Y0164620D02*
X0242026Y0164620D01*
X0240718Y0166419D02*
X0245671Y0166419D01*
X0232229Y0177210D02*
X0213246Y0177210D01*
X0211447Y0175412D02*
X0229601Y0175412D01*
X0229000Y0173613D02*
X0209649Y0173613D01*
X0207850Y0171815D02*
X0229218Y0171815D01*
X0230447Y0170016D02*
X0206052Y0170016D01*
X0240935Y0186203D02*
X0245671Y0186203D01*
X0245671Y0184404D02*
X0242116Y0184404D01*
X0242300Y0182606D02*
X0245671Y0182606D01*
X0151563Y0144837D02*
X0150968Y0144837D01*
X0148879Y0149607D02*
X0149023Y0149750D01*
X0129477Y0149750D01*
X0129735Y0149493D01*
X0132060Y0149493D01*
X0132336Y0149607D01*
X0148879Y0149607D01*
X0150586Y0139441D02*
X0151563Y0139441D01*
X0151563Y0135844D02*
X0151344Y0135844D01*
X0241435Y0065702D02*
X0245671Y0065702D01*
X0245671Y0063904D02*
X0242300Y0063904D01*
X0242203Y0062105D02*
X0245671Y0062105D01*
X0245671Y0060307D02*
X0241144Y0060307D01*
X0039451Y0100368D02*
X0036210Y0100368D01*
X0035650Y0099809D01*
X0035090Y0100368D01*
X0034804Y0100368D01*
X0034804Y0105016D01*
X0035759Y0104061D01*
X0039451Y0100368D01*
X0038147Y0101673D02*
X0034804Y0101673D01*
X0034804Y0103471D02*
X0036348Y0103471D01*
X0035715Y0099874D02*
X0035585Y0099874D01*
X0018450Y0077604D02*
X0019650Y0076404D01*
X0019650Y0074040D01*
X0018450Y0074040D01*
X0018450Y0077604D01*
X0018450Y0076493D02*
X0019561Y0076493D01*
X0019650Y0074695D02*
X0018450Y0074695D01*
X0023250Y0074697D02*
X0023250Y0074040D01*
X0023907Y0074040D01*
X0023250Y0074697D01*
X0023250Y0074695D02*
X0023252Y0074695D01*
X0026796Y0067501D02*
X0026927Y0067501D01*
X0026642Y0065702D02*
X0027672Y0065702D01*
X0030613Y0054911D02*
X0032827Y0054911D01*
X0027726Y0050727D02*
X0026796Y0048481D01*
X0026796Y0050444D01*
X0025799Y0051441D01*
X0024835Y0051441D01*
X0025294Y0051900D01*
X0026553Y0051900D01*
X0027726Y0050727D01*
X0027139Y0051314D02*
X0025926Y0051314D01*
X0026796Y0049516D02*
X0027224Y0049516D01*
X0024400Y0054400D02*
X0021930Y0051930D01*
X0021930Y0046851D01*
X0025860Y0042322D02*
X0026650Y0042322D01*
X0026650Y0040523D02*
X0024504Y0040523D01*
X0025639Y0038725D02*
X0026650Y0038725D01*
X0026650Y0036926D02*
X0025378Y0036926D01*
X0026650Y0035128D02*
X0013050Y0035128D01*
X0013050Y0036926D02*
X0019922Y0036926D01*
X0019661Y0038725D02*
X0013050Y0038725D01*
X0013050Y0040523D02*
X0020796Y0040523D01*
X0013533Y0042322D02*
X0013050Y0042322D01*
X0013050Y0044120D02*
X0013050Y0044120D01*
X0013050Y0045919D02*
X0013050Y0045919D01*
X0013050Y0047717D02*
X0013050Y0047717D01*
X0013050Y0049516D02*
X0013050Y0049516D01*
X0013050Y0051314D02*
X0013050Y0051314D01*
X0013050Y0033329D02*
X0026650Y0033329D01*
X0026650Y0031531D02*
X0013050Y0031531D01*
X0013050Y0029732D02*
X0026650Y0029732D01*
X0026650Y0027934D02*
X0013050Y0027934D01*
X0013050Y0026135D02*
X0026650Y0026135D01*
X0026650Y0024337D02*
X0013050Y0024337D01*
X0013050Y0022538D02*
X0026650Y0022538D01*
X0026650Y0020740D02*
X0013050Y0020740D01*
X0013050Y0018941D02*
X0026650Y0018941D01*
X0027361Y0017143D02*
X0013071Y0017143D01*
X0013435Y0015344D02*
X0028228Y0015344D01*
X0029150Y0013546D02*
X0014310Y0013546D01*
X0016154Y0011747D02*
X0029150Y0011747D01*
X0012011Y0002754D02*
X0009375Y0002754D01*
X0009236Y0004553D02*
X0006286Y0004553D01*
M02*
