%
M48
M72
T01C0.01378
T02C0.03150
T03C0.05200
T04C0.11811
%
T01
X22650Y38150
X50650Y31900
X59850Y38150
X54450Y57950
X52050Y62750
X53250Y75950
X58150Y79400
X61900Y76900
X65650Y76900
X69400Y76900
X69400Y80650
X65950Y80550
X69400Y84400
X73150Y80650
X73150Y76900
X82650Y78950
X89250Y74750
X94400Y78150
X98150Y75650
X101900Y75650
X105650Y75650
X105650Y79400
X102200Y79300
X105650Y83150
X109400Y79400
X109400Y75650
X118050Y78950
X89250Y90950
X89850Y58550
X95250Y37550
X85650Y31900
X119400Y31900
X169050Y39950
X106900Y130346
X106650Y140750
X120450Y135350
X124650Y140750
X121650Y143750
X127650Y147350
X139050Y136550
X142050Y134150
X137850Y132350
X148650Y137150
X85650Y135950
X83850Y142550
X71900Y129400
X50850Y135350
X36900Y130346
X16650Y102950
X25050Y93950
X34400Y84400
X34400Y80650
X38150Y80650
X38150Y76900
X34400Y76900
X30650Y76900
X26900Y76900
X23150Y79400
X30950Y80550
X46650Y78950
T02
X175650Y83150
X175650Y73150
X175650Y63150
X175650Y53150
X175650Y43150
X175650Y33150
X175650Y23150
X235650Y23150
X235650Y33150
X235650Y43150
X235650Y53150
X235650Y63150
X235650Y73150
X235650Y83150
X235650Y93150
X235650Y103150
X235650Y113150
X235650Y123150
X235650Y133150
X235650Y143150
X235650Y153150
X235650Y163150
X235650Y173150
X235650Y183150
X235650Y193150
X235650Y203150
X235650Y213150
X175650Y213150
X175650Y203150
X175650Y193150
X175650Y183150
X175650Y173150
X175650Y163150
X175650Y153150
X175650Y143150
X175650Y133150
X175650Y123150
X175650Y113150
X175650Y103150
X175650Y93150
T03
X195650Y23150
X215650Y23150
X150650Y18150
X130650Y18150
T04
X20650Y208150
M30
