M48
;GenerationSoftware,Autodesk,EAGLE,9.6.2*%
;CreationDate,2021-10-22T01:53:03Z*%
FMAT,2
ICI,OFF
METRIC,TZ,000.000
T7C0.305
T6C0.350
T5C0.800
T4C1.016
T3C1.100
T2C1.702
T1C2.007
%
G90
M71
T1
X41021Y4064
X57785Y4064
X75184Y4064
X25400Y4445
X32893Y4445
T2
X12827Y57531
X9017Y57531
T3
X8255Y14605
X10795Y14605
X10795Y17145
X10795Y19685
X8255Y19685
X8255Y17145
T4
X27813Y42418
X27813Y39878
X27813Y37338
X27813Y34798
X27813Y32258
X27813Y29718
X81661Y30099
X81661Y32639
X81661Y35179
X81661Y37719
X27813Y44958
X81661Y42799
X81661Y45339
X81661Y47879
X81661Y50419
X81661Y52959
X81661Y55499
X81661Y58039
X27813Y47498
X27813Y50038
X27813Y52578
X27813Y55118
X27813Y57658
X81661Y40259
T5
X19685Y27305
X4445Y24765
X4445Y52705
X4445Y50165
X4445Y47625
X4445Y45085
X4445Y42545
X4445Y40005
X4445Y37465
X4445Y34925
X4445Y32385
X4445Y29845
X4445Y27305
X4445Y22225
X4445Y19685
X4445Y17145
X4445Y14605
X4445Y12065
X4445Y9525
X4445Y6985
X4445Y4445
X19685Y52705
X19685Y50165
X19685Y47625
X19685Y45085
X19685Y42545
X19685Y40005
X19685Y37465
X19685Y34925
X19685Y32385
X19685Y29845
X19685Y24765
X19685Y22225
X19685Y19685
X19685Y17145
X19685Y14605
X19685Y12065
X19685Y9525
X19685Y6985
X19685Y4445
T6
X36449Y17653
X38608Y21336
X37338Y20828
X39624Y20701
X37084Y16764
X40005Y16764
X61265Y30328
X36703Y19939
X36576Y18796
X40767Y19812
X38608Y16637
X40767Y17780
X40767Y18796
X41021Y35941
X49149Y35941
X52578Y39751
X52273Y15850
X41021Y32074
X40386Y38227
X38989Y39116
X34544Y53721
X61417Y38557
X56845Y45415
X54864Y32004
X54407Y40386
X31394Y17221
X63703Y37490
X67666Y36424
X68275Y29108
X60808Y28499
X45872Y21488
X58217Y20117
X69647Y21031
X56642Y21082
X54229Y21082
X59893Y28194
X56388Y16891
X53975Y16891
X55372Y16891
X53213Y17907
X54102Y18923
X53340Y19939
X56896Y17907
X57785Y18923
X56896Y19939
X55372Y21463
X69190Y29108
X74981Y29413
X76048Y26365
X51511Y9296
X70256Y19355
X78181Y33376
X74524Y28499
X58369Y43434
X55931Y28499
X65380Y40081
X32309Y28499
X49225Y32004
X47854Y33376
X57760Y29413
X48768Y33376
X17526Y33680
X33680Y24994
X48006Y47625
X41529Y29337
X50673Y24892
X64897Y24765
X58674Y40843
X60503Y44653
X29566Y30785
X50444Y29870
X55931Y29413
X72771Y21971
X74168Y19812
X74168Y18796
X74168Y17780
X72771Y16510
X74168Y16891
X73787Y20828
X71374Y21717
X71247Y16891
X70993Y17780
X71247Y18796
X70993Y20574
T7
X55785Y33052
X56785Y33052
X57785Y33052
X58785Y33052
X59785Y33052
X59785Y34052
X58785Y34052
X57785Y34052
X56785Y34052
X55785Y34052
X55785Y35052
X56785Y35052
X57785Y35052
X58785Y35052
X59785Y35052
X59785Y36052
X58785Y36052
X57785Y36052
X56785Y36052
X55785Y36052
X59785Y37052
X58785Y37052
X56785Y37052
X55785Y37052
X57785Y37052
M30