G04 EAGLE Gerber RS-274X export*
G75*
%MOMM*%
%FSLAX34Y34*%
%LPD*%
%INSoldermask Top*%
%IPPOS*%
%AMOC8*
5,1,8,0,0,1.08239X$1,22.5*%
G01*
%ADD10C,5.080000*%
%ADD11C,6.350000*%
%ADD12C,5.588000*%
%ADD13C,3.810000*%
%ADD14C,0.762000*%
%ADD15P,2.309387X8X202.500000*%
%ADD16R,1.500000X0.350000*%
%ADD17R,0.350000X1.500000*%
%ADD18R,5.203200X5.203200*%
%ADD19C,1.016000*%
%ADD20R,1.303200X1.203200*%
%ADD21R,1.203200X1.303200*%
%ADD22C,3.213100*%
%ADD23R,5.603200X6.403200*%
%ADD24R,1.203200X1.803200*%
%ADD25C,1.727200*%
%ADD26C,2.755900*%
%ADD27C,0.959600*%


D10*
X659130Y217170D02*
X628650Y247650D01*
X532130Y247650D01*
X500380Y215900D01*
X500380Y217170D02*
X469900Y247650D01*
X365760Y247650D01*
X327660Y209550D01*
X285750Y209550D01*
X254000Y177800D01*
X254000Y45720D01*
X350520Y135890D02*
X370840Y115570D01*
X415290Y115570D01*
X516890Y135890D02*
X537210Y115570D01*
X582930Y115570D01*
X685800Y135890D02*
X706120Y115570D01*
X756920Y115570D01*
D11*
X410210Y109220D02*
X410210Y43180D01*
X577850Y40640D02*
X577850Y109220D01*
X751840Y109220D02*
X751840Y40640D01*
D12*
X387350Y190500D02*
X386080Y189230D01*
X386080Y186690D01*
D10*
X552450Y189230D02*
X552450Y193040D01*
D13*
X723900Y212090D02*
X727710Y208280D01*
X727710Y181610D01*
D14*
X712470Y180340D02*
X712470Y189230D01*
X712470Y180340D02*
X709930Y177800D01*
X709930Y171450D01*
X716280Y165100D01*
X727710Y165100D01*
X577850Y189230D02*
X541020Y189230D01*
D15*
X196850Y44450D03*
X196850Y69850D03*
X196850Y95250D03*
X196850Y120650D03*
X196850Y146050D03*
X196850Y171450D03*
X196850Y196850D03*
X196850Y222250D03*
X196850Y247650D03*
X196850Y273050D03*
X196850Y298450D03*
X196850Y323850D03*
X196850Y349250D03*
X196850Y374650D03*
X196850Y400050D03*
X196850Y425450D03*
X196850Y450850D03*
X196850Y476250D03*
X196850Y501650D03*
X196850Y527050D03*
X44450Y44450D03*
X44450Y69850D03*
X44450Y95250D03*
X44450Y120650D03*
X44450Y146050D03*
X44450Y171450D03*
X44450Y196850D03*
X44450Y222250D03*
X44450Y247650D03*
X44450Y273050D03*
X44450Y298450D03*
X44450Y323850D03*
X44450Y349250D03*
X44450Y374650D03*
X44450Y400050D03*
X44450Y425450D03*
X44450Y450850D03*
X44450Y476250D03*
X44450Y501650D03*
X44450Y527050D03*
X82550Y146050D03*
X82550Y171450D03*
X82550Y196850D03*
X107950Y196850D03*
X107950Y171450D03*
X107950Y146050D03*
D16*
X534850Y378020D03*
X534850Y373020D03*
X534850Y368020D03*
X534850Y363020D03*
X534850Y358020D03*
X534850Y353020D03*
X534850Y348020D03*
X534850Y343020D03*
X534850Y338020D03*
X534850Y333020D03*
X534850Y328020D03*
X534850Y323020D03*
D17*
X550350Y307520D03*
X555350Y307520D03*
X560350Y307520D03*
X565350Y307520D03*
X570350Y307520D03*
X575350Y307520D03*
X580350Y307520D03*
X585350Y307520D03*
X590350Y307520D03*
X595350Y307520D03*
X600350Y307520D03*
X605350Y307520D03*
D16*
X620850Y323020D03*
X620850Y328020D03*
X620850Y333020D03*
X620850Y338020D03*
X620850Y343020D03*
X620850Y348020D03*
X620850Y353020D03*
X620850Y358020D03*
X620850Y363020D03*
X620850Y368020D03*
X620850Y373020D03*
X620850Y378020D03*
D17*
X605350Y393520D03*
X600350Y393520D03*
X595350Y393520D03*
X590350Y393520D03*
X585350Y393520D03*
X580350Y393520D03*
X575350Y393520D03*
X570350Y393520D03*
X565350Y393520D03*
X560350Y393520D03*
X555350Y393520D03*
X550350Y393520D03*
D18*
X577850Y350520D03*
D19*
X557850Y370520D03*
X567850Y370520D03*
X577850Y370520D03*
X587850Y370520D03*
X597850Y370520D03*
X557850Y360520D03*
X567850Y360520D03*
X577850Y360520D03*
X587850Y360520D03*
X597850Y360520D03*
X597850Y350520D03*
X587850Y350520D03*
X577850Y350520D03*
X567850Y350520D03*
X557850Y350520D03*
X557850Y340520D03*
X567850Y340520D03*
X577850Y340520D03*
X587850Y340520D03*
X597850Y340520D03*
X597850Y330520D03*
X587850Y330520D03*
X577850Y330520D03*
X567850Y330520D03*
X557850Y330520D03*
D20*
X454025Y318380D03*
X454025Y301380D03*
D21*
X474345Y318380D03*
X474345Y301380D03*
D20*
X625865Y394970D03*
X642865Y394970D03*
D21*
X635000Y437125D03*
X635000Y420125D03*
X614680Y437125D03*
X614680Y420125D03*
X594360Y437125D03*
X594360Y420125D03*
X552450Y432680D03*
X552450Y415680D03*
D20*
X532130Y415680D03*
X532130Y432680D03*
D21*
X572770Y415680D03*
X572770Y432680D03*
X511810Y415680D03*
X511810Y432680D03*
D22*
X410210Y55690D02*
X410210Y25591D01*
X577850Y25591D02*
X577850Y55690D01*
X751840Y55690D02*
X751840Y25591D01*
D21*
X434340Y318380D03*
X434340Y301380D03*
D23*
X327025Y209150D03*
D24*
X304225Y136150D03*
X349825Y136150D03*
D23*
X409575Y114700D03*
D24*
X432375Y187700D03*
X386775Y187700D03*
D23*
X494030Y209150D03*
D24*
X471230Y136150D03*
X516830Y136150D03*
D23*
X577215Y114700D03*
D24*
X600015Y187700D03*
X554415Y187700D03*
D23*
X662940Y209150D03*
D24*
X640140Y136150D03*
X685740Y136150D03*
D23*
X751205Y114700D03*
D24*
X774005Y187700D03*
X728405Y187700D03*
D22*
X254000Y59500D02*
X254000Y29401D01*
X328930Y29401D02*
X328930Y59500D01*
D25*
X808990Y580390D02*
X824230Y580390D01*
X824230Y554990D02*
X808990Y554990D01*
X808990Y529590D02*
X824230Y529590D01*
X824230Y504190D02*
X808990Y504190D01*
X808990Y478790D02*
X824230Y478790D01*
X824230Y453390D02*
X808990Y453390D01*
X808990Y427990D02*
X824230Y427990D01*
X824230Y402590D02*
X808990Y402590D01*
X808990Y377190D02*
X824230Y377190D01*
X824230Y351790D02*
X808990Y351790D01*
X808990Y326390D02*
X824230Y326390D01*
X824230Y300990D02*
X808990Y300990D01*
X285750Y297180D02*
X270510Y297180D01*
X270510Y322580D02*
X285750Y322580D01*
X285750Y347980D02*
X270510Y347980D01*
X270510Y373380D02*
X285750Y373380D01*
X285750Y398780D02*
X270510Y398780D01*
X270510Y424180D02*
X285750Y424180D01*
X285750Y449580D02*
X270510Y449580D01*
X270510Y474980D02*
X285750Y474980D01*
X285750Y500380D02*
X270510Y500380D01*
X270510Y525780D02*
X285750Y525780D01*
X285750Y551180D02*
X270510Y551180D01*
X270510Y576580D02*
X285750Y576580D01*
D26*
X90170Y588074D02*
X90170Y562547D01*
X128270Y562547D02*
X128270Y588074D01*
D27*
X653796Y400812D03*
X583692Y434340D03*
X559308Y284988D03*
X323088Y284988D03*
X492252Y320040D03*
X478536Y333756D03*
X577596Y294132D03*
X487680Y333756D03*
X175260Y336804D03*
X336804Y249936D03*
X480060Y476250D03*
X415290Y293370D03*
X506730Y248920D03*
X648970Y247650D03*
X586740Y408432D03*
X605028Y446532D03*
X295656Y307848D03*
X504444Y298704D03*
X559308Y294132D03*
X727710Y219710D03*
X741680Y198120D03*
X741680Y187960D03*
X741680Y177800D03*
X727710Y165100D03*
X741680Y168910D03*
X709930Y205740D03*
X712470Y187960D03*
X709930Y177800D03*
X712470Y168910D03*
X713740Y217170D03*
X737870Y208280D03*
X745236Y284988D03*
X781812Y333756D03*
X702564Y193548D03*
X515112Y92964D03*
X760476Y263652D03*
X749808Y294132D03*
X522732Y158496D03*
X598932Y281940D03*
X691896Y291084D03*
X553720Y214630D03*
X568960Y199390D03*
X577850Y189230D03*
X568960Y179070D03*
X533400Y199390D03*
X541020Y189230D03*
X532130Y179070D03*
X553720Y168910D03*
X539750Y168910D03*
X563880Y168910D03*
X542290Y210820D03*
X566420Y210820D03*
X696468Y210312D03*
X582168Y201168D03*
X458724Y214884D03*
X608076Y284988D03*
X682752Y291084D03*
X676656Y364236D03*
X637032Y374904D03*
X313944Y172212D03*
X544068Y403860D03*
X548640Y320040D03*
X568452Y454152D03*
X614172Y385572D03*
X345440Y537210D03*
X389890Y391160D03*
X403860Y382270D03*
X410210Y320738D03*
X525780Y397510D03*
X491490Y359410D03*
X410210Y359410D03*
X407670Y187960D03*
X407670Y177800D03*
X386080Y166370D03*
X407670Y198120D03*
X365760Y187960D03*
X367030Y199390D03*
X364490Y176530D03*
X386080Y213360D03*
X373380Y208280D03*
X396240Y207010D03*
X370840Y167640D03*
X400050Y167640D03*
X612648Y303276D03*
M02*
