G75*
%MOIN*%
%OFA0B0*%
%FSLAX25Y25*%
%IPPOS*%
%LPD*%
%AMOC8*
5,1,8,0,0,1.08239X$1,22.5*
%
%ADD10C,0.01000*%
D10*
X0001500Y0013311D02*
X0001500Y0210161D01*
X0001503Y0210446D01*
X0001514Y0210732D01*
X0001531Y0211017D01*
X0001555Y0211301D01*
X0001586Y0211585D01*
X0001624Y0211868D01*
X0001669Y0212149D01*
X0001720Y0212430D01*
X0001778Y0212710D01*
X0001843Y0212988D01*
X0001915Y0213264D01*
X0001993Y0213538D01*
X0002078Y0213811D01*
X0002170Y0214081D01*
X0002268Y0214349D01*
X0002372Y0214615D01*
X0002483Y0214878D01*
X0002600Y0215138D01*
X0002723Y0215396D01*
X0002853Y0215650D01*
X0002989Y0215901D01*
X0003130Y0216149D01*
X0003278Y0216393D01*
X0003431Y0216634D01*
X0003591Y0216870D01*
X0003756Y0217103D01*
X0003926Y0217332D01*
X0004102Y0217557D01*
X0004284Y0217777D01*
X0004470Y0217993D01*
X0004662Y0218204D01*
X0004859Y0218411D01*
X0005061Y0218613D01*
X0005268Y0218810D01*
X0005479Y0219002D01*
X0005695Y0219188D01*
X0005915Y0219370D01*
X0006140Y0219546D01*
X0006369Y0219716D01*
X0006602Y0219881D01*
X0006838Y0220041D01*
X0007079Y0220194D01*
X0007323Y0220342D01*
X0007571Y0220483D01*
X0007822Y0220619D01*
X0008076Y0220749D01*
X0008334Y0220872D01*
X0008594Y0220989D01*
X0008857Y0221100D01*
X0009123Y0221204D01*
X0009391Y0221302D01*
X0009661Y0221394D01*
X0009934Y0221479D01*
X0010208Y0221557D01*
X0010484Y0221629D01*
X0010762Y0221694D01*
X0011042Y0221752D01*
X0011323Y0221803D01*
X0011604Y0221848D01*
X0011887Y0221886D01*
X0012171Y0221917D01*
X0012455Y0221941D01*
X0012740Y0221958D01*
X0013026Y0221969D01*
X0013311Y0221972D01*
X0229846Y0221972D01*
X0230131Y0221969D01*
X0230417Y0221958D01*
X0230702Y0221941D01*
X0230986Y0221917D01*
X0231270Y0221886D01*
X0231553Y0221848D01*
X0231834Y0221803D01*
X0232115Y0221752D01*
X0232395Y0221694D01*
X0232673Y0221629D01*
X0232949Y0221557D01*
X0233223Y0221479D01*
X0233496Y0221394D01*
X0233766Y0221302D01*
X0234034Y0221204D01*
X0234300Y0221100D01*
X0234563Y0220989D01*
X0234823Y0220872D01*
X0235081Y0220749D01*
X0235335Y0220619D01*
X0235586Y0220483D01*
X0235834Y0220342D01*
X0236078Y0220194D01*
X0236319Y0220041D01*
X0236555Y0219881D01*
X0236788Y0219716D01*
X0237017Y0219546D01*
X0237242Y0219370D01*
X0237462Y0219188D01*
X0237678Y0219002D01*
X0237889Y0218810D01*
X0238096Y0218613D01*
X0238298Y0218411D01*
X0238495Y0218204D01*
X0238687Y0217993D01*
X0238873Y0217777D01*
X0239055Y0217557D01*
X0239231Y0217332D01*
X0239401Y0217103D01*
X0239566Y0216870D01*
X0239726Y0216634D01*
X0239879Y0216393D01*
X0240027Y0216149D01*
X0240168Y0215901D01*
X0240304Y0215650D01*
X0240434Y0215396D01*
X0240557Y0215138D01*
X0240674Y0214878D01*
X0240785Y0214615D01*
X0240889Y0214349D01*
X0240987Y0214081D01*
X0241079Y0213811D01*
X0241164Y0213538D01*
X0241242Y0213264D01*
X0241314Y0212988D01*
X0241379Y0212710D01*
X0241437Y0212430D01*
X0241488Y0212149D01*
X0241533Y0211868D01*
X0241571Y0211585D01*
X0241602Y0211301D01*
X0241626Y0211017D01*
X0241643Y0210732D01*
X0241654Y0210446D01*
X0241657Y0210161D01*
X0241657Y0013311D01*
X0241654Y0013026D01*
X0241643Y0012740D01*
X0241626Y0012455D01*
X0241602Y0012171D01*
X0241571Y0011887D01*
X0241533Y0011604D01*
X0241488Y0011323D01*
X0241437Y0011042D01*
X0241379Y0010762D01*
X0241314Y0010484D01*
X0241242Y0010208D01*
X0241164Y0009934D01*
X0241079Y0009661D01*
X0240987Y0009391D01*
X0240889Y0009123D01*
X0240785Y0008857D01*
X0240674Y0008594D01*
X0240557Y0008334D01*
X0240434Y0008076D01*
X0240304Y0007822D01*
X0240168Y0007571D01*
X0240027Y0007323D01*
X0239879Y0007079D01*
X0239726Y0006838D01*
X0239566Y0006602D01*
X0239401Y0006369D01*
X0239231Y0006140D01*
X0239055Y0005915D01*
X0238873Y0005695D01*
X0238687Y0005479D01*
X0238495Y0005268D01*
X0238298Y0005061D01*
X0238096Y0004859D01*
X0237889Y0004662D01*
X0237678Y0004470D01*
X0237462Y0004284D01*
X0237242Y0004102D01*
X0237017Y0003926D01*
X0236788Y0003756D01*
X0236555Y0003591D01*
X0236319Y0003431D01*
X0236078Y0003278D01*
X0235834Y0003130D01*
X0235586Y0002989D01*
X0235335Y0002853D01*
X0235081Y0002723D01*
X0234823Y0002600D01*
X0234563Y0002483D01*
X0234300Y0002372D01*
X0234034Y0002268D01*
X0233766Y0002170D01*
X0233496Y0002078D01*
X0233223Y0001993D01*
X0232949Y0001915D01*
X0232673Y0001843D01*
X0232395Y0001778D01*
X0232115Y0001720D01*
X0231834Y0001669D01*
X0231553Y0001624D01*
X0231270Y0001586D01*
X0230986Y0001555D01*
X0230702Y0001531D01*
X0230417Y0001514D01*
X0230131Y0001503D01*
X0229846Y0001500D01*
X0013311Y0001500D01*
X0013026Y0001503D01*
X0012740Y0001514D01*
X0012455Y0001531D01*
X0012171Y0001555D01*
X0011887Y0001586D01*
X0011604Y0001624D01*
X0011323Y0001669D01*
X0011042Y0001720D01*
X0010762Y0001778D01*
X0010484Y0001843D01*
X0010208Y0001915D01*
X0009934Y0001993D01*
X0009661Y0002078D01*
X0009391Y0002170D01*
X0009123Y0002268D01*
X0008857Y0002372D01*
X0008594Y0002483D01*
X0008334Y0002600D01*
X0008076Y0002723D01*
X0007822Y0002853D01*
X0007571Y0002989D01*
X0007323Y0003130D01*
X0007079Y0003278D01*
X0006838Y0003431D01*
X0006602Y0003591D01*
X0006369Y0003756D01*
X0006140Y0003926D01*
X0005915Y0004102D01*
X0005695Y0004284D01*
X0005479Y0004470D01*
X0005268Y0004662D01*
X0005061Y0004859D01*
X0004859Y0005061D01*
X0004662Y0005268D01*
X0004470Y0005479D01*
X0004284Y0005695D01*
X0004102Y0005915D01*
X0003926Y0006140D01*
X0003756Y0006369D01*
X0003591Y0006602D01*
X0003431Y0006838D01*
X0003278Y0007079D01*
X0003130Y0007323D01*
X0002989Y0007571D01*
X0002853Y0007822D01*
X0002723Y0008076D01*
X0002600Y0008334D01*
X0002483Y0008594D01*
X0002372Y0008857D01*
X0002268Y0009123D01*
X0002170Y0009391D01*
X0002078Y0009661D01*
X0001993Y0009934D01*
X0001915Y0010208D01*
X0001843Y0010484D01*
X0001778Y0010762D01*
X0001720Y0011042D01*
X0001669Y0011323D01*
X0001624Y0011604D01*
X0001586Y0011887D01*
X0001555Y0012171D01*
X0001531Y0012455D01*
X0001514Y0012740D01*
X0001503Y0013026D01*
X0001500Y0013311D01*
M02*
