%
M48
M72
T01C0.01378
T02C0.03150
T03C0.04331
T04C0.06700
T05C0.07900
%
T01
X35794Y16945
X39731Y16945
X39731Y20882
X35794Y20882
X35794Y24819
X39731Y24819
X43669Y24819
X43669Y20882
X43669Y16945
X66306Y16945
X70243Y16945
X70243Y20882
X66306Y20882
X66306Y24819
X70243Y24819
X74180Y24819
X74180Y20882
X74180Y16945
X38114Y44302
X41109Y54994
X53708Y74246
X48314Y86302
X54314Y88702
X85514Y84502
X84914Y80302
X85991Y74246
X99914Y82702
X125714Y108502
X125714Y112102
X115514Y110902
X111914Y110902
X118514Y121702
X123314Y121702
X126314Y124102
X132314Y121702
X135914Y121702
X144259Y123638
X130514Y134302
X126914Y134302
X123314Y134302
X119714Y134302
X115514Y134302
X114535Y138992
X118472Y138992
X122409Y138992
X126346Y138992
X126346Y143913
X122409Y143913
X118472Y143913
X114535Y143913
X114535Y148835
X118472Y148835
X122409Y148835
X126346Y148835
X130480Y153559
X134074Y152524
X133788Y164446
X130051Y168744
X140299Y180057
X143714Y181702
X148111Y178880
X152920Y174425
X144905Y167490
X161114Y154702
X185114Y152902
X187514Y122902
X185114Y110902
X169514Y112702
X163514Y92902
X153914Y90502
X153914Y86902
X107714Y124102
X105914Y134302
X108914Y136702
X95714Y133702
X90314Y130102
X91514Y125902
X94514Y123502
X94514Y146902
X105314Y149902
X105314Y153502
X110114Y153502
X108314Y164302
X110114Y169102
X100514Y164302
X122114Y153502
X132682Y181691
X142514Y190102
X147914Y187102
X151514Y191302
X230714Y154702
X71424Y54994
T02
X177885Y50331
X177885Y40331
X177885Y30331
X177885Y20331
X177885Y60331
X177885Y70331
X177885Y80331
X177885Y90331
X177885Y100331
X177885Y110331
X177885Y120331
X177885Y130331
X177885Y140331
X177885Y150331
X177885Y160331
X177885Y170331
X177885Y180331
X177885Y190331
X177885Y200331
X177885Y210331
X237885Y210331
X237885Y200331
X237885Y190331
X237885Y180331
X237885Y170331
X237885Y160331
X237885Y150331
X237885Y140331
X237885Y130331
X237885Y120331
X237885Y110331
X237885Y100331
X237885Y90331
X237885Y80331
X237885Y70331
X237885Y60331
X237885Y50331
X237885Y40331
X237885Y30331
X237885Y20331
T03
X202885Y60331
X202885Y70331
X192885Y70331
X192885Y60331
X192885Y80331
X202885Y80331
T04
X199755Y24319
X214755Y24319
T05
X134731Y29102
X117763Y29102
M30
